<svg xmlns="http://www.w3.org/2000/svg" width="432" height="334" viewBox="0 0 432 334" fill="none"><path d="M127.399 204.948C81.4664 235.621 23.2489 212.502 54.227 160.77C81.0849 115.447 70.0976 86.6054 88.9439 66.6909C114.047 40.2146 152.808 77.6782 152.808 77.6782C202.327 123.306 176.766 171.91 127.399 204.948Z" fill="#F6FBFE"></path><path d="M237.884 8.85497C213.62 25.2596 209.729 54.1013 212.246 71.5742C214.764 89.0471 213.544 108.427 193.934 123.306C174.325 138.185 172.494 165.119 188.212 179.921C205.227 195.944 246.506 217.69 294.804 188.772C322.12 171.91 343.56 147.112 356.226 117.736C366.756 93.2436 370.647 72.795 360.194 60.5869C349.817 48.3788 337.838 55.4747 332.496 57.9927C327.155 60.5106 311.361 64.3256 305.715 36.2469C299.077 2.82721 265.047 -9.45722 237.884 8.85497Z" fill="#F6FBFE"></path><path d="M263.061 317.186H147.923C137.928 317.186 129.764 309.022 129.764 299.027V42.8087C129.764 32.8134 137.928 24.6492 147.923 24.6492H263.061C273.057 24.6492 281.221 32.8134 281.221 42.8087V299.027C281.221 309.098 273.057 317.186 263.061 317.186Z" fill="#D68029"></path><path d="M262.452 313.066H148.535C139.76 313.066 132.588 305.97 132.588 297.119V43.114C132.588 34.3394 139.684 27.1671 148.535 27.1671H262.452C271.226 27.1671 278.399 34.2631 278.399 43.114V297.119C278.399 305.894 271.226 313.066 262.452 313.066Z" fill="white"></path><path d="M271.988 42.6561V296.356C271.988 302.308 267.181 307.115 261.23 307.115H149.754C143.803 307.115 138.996 302.308 138.996 296.356V42.6561C138.996 36.7047 143.803 31.8977 149.754 31.8977H168.372C169.44 31.8977 170.356 32.5081 170.814 33.4237L172.797 37.3914C173.713 39.2226 175.544 40.3671 177.604 40.3671H233.533C235.517 40.3671 237.424 39.2226 238.34 37.3914L240.323 33.4237C240.781 32.5081 241.697 31.8977 242.765 31.8977H261.383C267.181 31.8214 271.988 36.7047 271.988 42.6561Z" fill="#EDF7FC"></path><path d="M228.956 35.6366H183.939C182.871 35.6366 182.031 34.7973 182.031 33.7291C182.031 32.6608 182.871 31.8215 183.939 31.8215H228.956C230.024 31.8215 230.864 32.6608 230.864 33.7291C230.864 34.7973 230.024 35.6366 228.956 35.6366Z" fill="#EDF7FC"></path><path d="M254.287 298.34H154.104C150.136 298.34 147.008 295.135 147.008 291.244V255.841C147.008 251.873 150.212 248.745 154.104 248.745H254.287C258.254 248.745 261.383 251.949 261.383 255.841V291.244C261.459 295.135 258.254 298.34 254.287 298.34Z" stroke="#698BD1" stroke-width="1.115" stroke-miterlimit="10" stroke-linecap="round" stroke-linejoin="round" stroke-dasharray="3.16 3.16"></path><path d="M259.934 240.428H157.233C153.876 240.428 151.129 237.681 151.129 234.324V190.985C151.129 187.628 153.876 184.881 157.233 184.881H259.934C263.291 184.881 266.038 187.628 266.038 190.985V234.324C266.038 237.681 263.291 240.428 259.934 240.428Z" fill="#D68029"></path><path d="M261.459 186.483V229.822C261.459 233.179 258.712 235.926 255.355 235.926H153.036C149.678 235.926 146.932 233.179 146.932 229.822V186.483C146.932 183.126 149.678 180.379 153.036 180.379H255.279C258.712 180.379 261.459 183.126 261.459 186.483Z" fill="#D68029"></path><path d="M186.531 231.424H156.392C154.103 231.424 152.271 229.593 152.271 227.304V197.165C152.271 194.876 154.103 193.045 156.392 193.045H186.531C188.82 193.045 190.651 194.876 190.651 197.165V227.304C190.651 229.517 188.743 231.424 186.531 231.424Z" fill="white"></path><path d="M222.164 197.852H195.612C194.925 197.852 194.314 197.242 194.314 196.555C194.314 195.868 194.925 195.258 195.612 195.258H222.164C222.851 195.258 223.461 195.868 223.461 196.555C223.461 197.318 222.927 197.852 222.164 197.852Z" fill="#EDF7FC"></path><path d="M210.109 203.117H195.688C195.001 203.117 194.391 202.506 194.391 201.82C194.391 201.133 195.001 200.522 195.688 200.522H210.109C210.795 200.522 211.406 201.133 211.406 201.82C211.406 202.506 210.795 203.117 210.109 203.117Z" fill="#EDF7FC"></path><path d="M254.515 203.117H215.449C214.763 203.117 214.152 202.506 214.152 201.82C214.152 201.133 214.763 200.522 215.449 200.522H254.515C255.202 200.522 255.813 201.133 255.813 201.82C255.813 202.506 255.202 203.117 254.515 203.117Z" fill="#EDF7FC"></path><path d="M217.968 208.305H195.612C194.925 208.305 194.314 207.695 194.314 207.008C194.314 206.321 194.925 205.711 195.612 205.711H217.968C218.654 205.711 219.265 206.321 219.265 207.008C219.341 207.695 218.731 208.305 217.968 208.305Z" fill="#EDF7FC"></path><path d="M236.965 208.305H222.926C222.239 208.305 221.629 207.695 221.629 207.008C221.629 206.321 222.239 205.711 222.926 205.711H236.965C237.652 205.711 238.262 206.321 238.262 207.008C238.262 207.695 237.652 208.305 236.965 208.305Z" fill="#EDF7FC"></path><path d="M254.514 208.305H241.543C240.857 208.305 240.246 207.695 240.246 207.008C240.246 206.321 240.857 205.711 241.543 205.711H254.514C255.201 205.711 255.811 206.321 255.811 207.008C255.811 207.695 255.201 208.305 254.514 208.305Z" fill="#EDF7FC"></path><path d="M254.516 213.494H195.688C195.001 213.494 194.391 212.883 194.391 212.197C194.391 211.51 195.001 210.899 195.688 210.899H254.516C255.202 210.899 255.813 211.51 255.813 212.197C255.813 212.96 255.202 213.494 254.516 213.494Z" fill="#EDF7FC"></path><path d="M228.039 218.758H195.688C195.001 218.758 194.391 218.148 194.391 217.461C194.391 216.774 195.001 216.164 195.688 216.164H228.039C228.726 216.164 229.336 216.774 229.336 217.461C229.336 218.148 228.726 218.758 228.039 218.758Z" fill="#EDF7FC"></path><path d="M254.517 218.758H233.305C232.618 218.758 232.008 218.148 232.008 217.461C232.008 216.774 232.618 216.164 233.305 216.164H254.517C255.203 216.164 255.814 216.774 255.814 217.461C255.814 218.148 255.203 218.758 254.517 218.758Z" fill="#EDF7FC"></path><path d="M214.687 223.947H195.688C195.001 223.947 194.391 223.336 194.391 222.65C194.391 221.963 195.001 221.353 195.688 221.353H214.687C215.373 221.353 215.984 221.963 215.984 222.65C215.984 223.336 215.373 223.947 214.687 223.947Z" fill="#EDF7FC"></path><path d="M238.874 223.947H219.875C219.189 223.947 218.578 223.336 218.578 222.65C218.578 221.963 219.189 221.353 219.875 221.353H238.874C239.561 221.353 240.171 221.963 240.171 222.65C240.171 223.336 239.561 223.947 238.874 223.947Z" fill="#EDF7FC"></path><path d="M254.517 223.947H243.453C242.767 223.947 242.156 223.336 242.156 222.65C242.156 221.963 242.767 221.353 243.453 221.353H254.517C255.204 221.353 255.814 221.963 255.814 222.65C255.814 223.336 255.204 223.947 254.517 223.947Z" fill="#EDF7FC"></path><path d="M222.164 229.135H195.612C194.925 229.135 194.314 228.525 194.314 227.838C194.314 227.151 194.925 226.541 195.612 226.541H222.164C222.851 226.541 223.461 227.151 223.461 227.838C223.461 228.601 222.927 229.135 222.164 229.135Z" fill="#EDF7FC"></path><path d="M254.516 197.852H227.963C227.276 197.852 226.666 197.242 226.666 196.555C226.666 195.868 227.276 195.258 227.963 195.258H254.516C255.203 195.258 255.813 195.868 255.813 196.555C255.813 197.318 255.203 197.852 254.516 197.852Z" fill="#EDF7FC"></path><path d="M261.459 186.483V188.314H146.932V186.483C146.932 183.126 149.678 180.379 153.036 180.379H255.279C258.712 180.379 261.459 183.126 261.459 186.483Z" fill="#D68029"></path><path d="M239.866 184.499C239.866 185.262 239.256 185.949 238.417 185.949C237.653 185.949 236.967 185.339 236.967 184.499C236.967 183.736 237.577 183.05 238.417 183.05C239.18 183.05 239.866 183.66 239.866 184.499Z" fill="#DEE3FC"></path><path d="M247.116 184.499C247.116 185.262 246.506 185.949 245.667 185.949C244.903 185.949 244.217 185.339 244.217 184.499C244.217 183.736 244.827 183.05 245.667 183.05C246.506 183.05 247.116 183.66 247.116 184.499Z" fill="#DEE3FC"></path><path d="M254.364 184.499C254.364 185.262 253.754 185.949 252.915 185.949C252.152 185.949 251.465 185.339 251.465 184.499C251.465 183.736 252.075 183.05 252.915 183.05C253.754 183.05 254.364 183.66 254.364 184.499Z" fill="#DEE3FC"></path><path d="M354.7 266.141H310.217V332.981H354.7V266.141Z" fill="#D68029"></path><path d="M354.686 332.94H371.701V266.101H354.686V332.94Z" fill="#D68029"></path><path d="M369.654 268.659H357.141V270.796H369.654V268.659Z" fill="#B2C1F9"></path><path d="M369.654 273.237H357.141V275.374H369.654V273.237Z" fill="#B2C1F9"></path><path d="M369.654 277.815H357.141V279.952H369.654V277.815Z" fill="#B2C1F9"></path><path d="M369.654 282.47H357.141V284.606H369.654V282.47Z" fill="#B2C1F9"></path><path d="M369.654 287.048H357.141V289.184H369.654V287.048Z" fill="#B2C1F9"></path><path d="M369.654 291.626H357.141V293.762H369.654V291.626Z" fill="#B2C1F9"></path><path d="M369.654 296.204H357.141V298.34H369.654V296.204Z" fill="#B2C1F9"></path><path d="M369.654 300.782H357.141V302.918H369.654V300.782Z" fill="#B2C1F9"></path><path d="M369.654 305.36H357.141V307.496H369.654V305.36Z" fill="#B2C1F9"></path><path d="M369.654 309.938H357.141V312.074H369.654V309.938Z" fill="#B2C1F9"></path><path d="M369.654 314.516H357.141V316.652H369.654V314.516Z" fill="#B2C1F9"></path><path d="M369.654 319.094H357.141V321.23H369.654V319.094Z" fill="#B2C1F9"></path><path d="M369.654 323.672H357.141V325.808H369.654V323.672Z" fill="#B2C1F9"></path><path d="M369.654 328.25H357.141V330.387H369.654V328.25Z" fill="#B2C1F9"></path><path d="M302.967 332.981H325.552C325.552 332.981 326.849 328.937 324.102 323.977C324.102 323.977 322.271 325.427 316.854 324.435C316.854 324.435 314.565 326.343 313.039 327.106C311.436 327.869 302.356 329.624 302.967 332.981Z" fill="#0C0042"></path><path d="M304.571 269.193C306.021 277.892 312.735 307.344 315.635 324.817C320.9 325.274 323.494 324.664 324.791 324.359C324.562 318.255 324.028 303.758 324.104 297.425C324.181 286.666 324.715 272.474 319.984 264.692L304.037 265.912C304.113 266.752 304.19 267.438 304.266 267.896C304.419 268.354 304.495 268.812 304.571 269.193Z" fill="#0C0042"></path><path d="M262.07 332.981H284.655C284.655 332.981 285.953 328.937 283.206 323.977C283.206 323.977 281.375 325.427 275.957 324.435C275.957 324.435 273.668 326.343 272.142 327.106C270.54 327.869 261.46 329.624 262.07 332.981Z" fill="#0C0042"></path><path d="M275.271 324.282C279.621 325.351 282.749 325.274 284.199 325.045C285.419 318.026 287.327 302.613 289.006 295.441C291.676 284.225 294.27 268.812 292.439 263.318L276.797 259.35C276.797 259.885 275.5 307.115 275.271 324.282Z" fill="#0C0042"></path><path d="M337.685 243.327C337.38 240.199 336.998 237.986 336.998 237.986L319.525 242.259L304.647 245.616C299.153 246.837 292.439 248.287 286.563 249.66C280.001 251.186 275.576 256.146 277.026 262.784L278.704 270.796C287.937 270.643 331.276 266.523 334.938 264.615C339.135 262.555 340.432 255.078 337.685 243.327Z" fill="#0C0042"></path><path d="M363.779 243.327C363.473 240.199 361.947 236.918 361.947 236.918L345.619 242.259L330.74 245.616C325.247 246.837 318.532 248.287 312.657 249.66C306.095 251.186 301.67 256.146 303.12 262.784L304.798 270.796C314.031 270.643 352.562 269.346 361.032 264.615C365.228 262.403 366.525 255.078 363.779 243.327Z" fill="#0C0042"></path><path d="M314.794 218.224C314.794 218.224 322.576 214.715 324.713 218.224C325.857 220.132 325.094 223.718 322.424 225.244C319.753 226.77 304.798 233.103 290.606 236.613C290.606 236.613 289.996 234.629 289.004 232.569C289.004 232.569 295.337 229.898 301.67 225.473C308.003 221.124 314.794 218.224 314.794 218.224Z" fill="#E5918F"></path><path d="M316.777 193.961L310.139 220.59C310.139 220.59 310.825 227.304 317.616 224.023C324.407 220.742 328.909 199.531 328.909 199.531L316.777 193.961Z" fill="#FFBD9D"></path><path d="M327.995 208.839C327.156 208.61 326.393 208.458 325.63 208.229C324.867 208 324.104 207.771 323.417 207.542C317.084 205.406 313.65 202.735 313.65 202.735C315.634 194.113 318.076 188.238 320.136 184.423C320.212 184.347 320.212 184.271 320.289 184.118C320.365 184.042 320.365 183.965 320.441 183.813C321.586 181.905 323.264 180.303 325.096 179.006C325.248 178.853 325.477 178.777 325.63 178.624L326.393 192.511L326.545 193.961L327.995 208.839Z" fill="#E0E0E0"></path><path d="M327.994 208.839C327.155 208.611 326.392 208.458 325.629 208.229C324.866 208 324.103 207.771 323.416 207.542C324.713 198.157 325.934 192.282 325.934 192.282L326.621 193.961L327.994 208.839Z" fill="#B9B9BA"></path><path d="M367.365 184.805C367.212 188.925 366.449 195.563 365.839 202.201C365.61 204.338 365.457 206.398 365.304 208.458C365.228 209.755 363.244 216.47 363.168 217.69C362.863 223.489 359.963 227.838 362.71 236.689C363.321 238.826 363.55 239.894 363.55 240.733C363.55 241.344 362.787 241.954 362.481 242.183C361.337 242.87 359.124 243.327 356.454 243.633C351.189 244.243 344.017 244.396 339.667 244.396C333.869 244.396 325.17 243.48 324.102 242.03C323.11 240.657 324.026 238.749 324.484 236.079C326.62 223.947 325.857 217.69 325.704 208.916C325.704 208.687 325.704 208.458 325.704 208.229C325.475 194.724 324.56 183.202 325.247 179.082C325.399 178.93 325.628 178.853 325.781 178.701C326.696 178.09 327.612 177.48 328.451 177.022C328.528 177.022 328.604 176.946 328.68 176.869C328.909 176.717 329.214 176.564 329.443 176.412C329.519 176.335 329.672 176.335 329.748 176.259C331.732 175.267 334.555 174.275 336.234 173.741C336.463 173.665 336.615 173.589 336.768 173.589C338.294 173.512 339.973 173.512 341.804 173.512C343.406 173.589 345.771 173.741 348.366 174.123C351.341 174.504 354.546 175.038 357.14 175.725C357.14 175.725 357.14 175.725 357.217 175.725C357.674 175.878 360.803 177.022 364.084 180.532C365.228 181.676 366.373 183.05 367.365 184.805Z" fill="#E0E0E0"></path><path d="M362.712 236.689C363.322 238.826 363.551 239.894 363.551 240.733C363.551 241.343 362.788 241.954 362.483 242.183C361.338 242.869 359.126 243.327 356.455 243.632C357.6 243.48 359.507 241.725 359.507 240.123C359.507 238.978 358.058 231.501 358.439 226.694C358.821 221.887 359.66 214.18 358.134 208C356.608 201.82 355.234 193.732 355.234 193.732L363.704 198.844C363.704 198.844 364.772 200.37 365.993 202.201C365.764 204.338 365.611 206.398 365.459 208.458C365.23 209.679 360.041 227.838 362.712 236.689Z" fill="#B9B9BA"></path><path d="M325.555 149.172C325.555 149.172 326.318 158.023 329.217 158.634C332.117 159.244 331.43 155.505 331.43 155.505L331.048 151.309L325.555 149.172Z" fill="#002C54"></path><path d="M339.06 181.219C333.337 180.532 335.474 174.962 336.237 173.665C336.465 173.588 337.457 173.283 337.534 173.283C337.686 173.131 337.839 172.902 337.991 172.597C338.526 171.147 338.297 168.171 338.297 168.018V167.484C338.373 167.103 338.449 166.798 338.526 166.492L341.578 164.127L347.987 159.091C347.987 159.091 346.308 167.484 347.682 172.749C347.758 173.131 347.987 173.741 348.521 174.046C348.674 174.123 348.902 174.199 349.131 174.275C350.657 174.962 348.445 182.287 339.06 181.219Z" fill="#FFBD9D"></path><path d="M344.094 164.432C344.094 164.432 344.018 170.002 337.99 172.597C338.524 171.147 338.295 168.171 338.295 168.019L340.813 166.035L344.094 164.432Z" fill="#CC6362" fill-opacity="0.45"></path><path d="M326.928 150.469C326.928 150.469 328.225 168.782 333.184 170.384C333.184 170.384 339.517 170.994 344.019 164.89C345.316 163.135 346.995 162.754 347.529 160.617C348.368 157.184 349.665 150.851 348.063 147.036C345.85 141.466 327.157 137.193 326.928 150.469Z" fill="#FFBD9D"></path><path d="M348.139 143.908C348.063 140.55 344.706 139.329 344.706 139.329C341.349 137.727 334.405 138.414 327.157 140.016C325.478 140.398 323.342 139.329 322.197 140.169C320.747 141.161 322.197 145.662 322.197 145.662C324.944 154.056 335.168 151.309 338.22 150.317C338.983 152.453 338.831 155.505 340.662 157.031C341.73 157.947 343.485 157.947 345.316 157.642C345.545 158.099 346.384 158.481 346.537 159.015C347.147 160.999 346.995 164.051 346.995 166.416L347.834 165.958C348.063 165.424 357.066 144.213 348.139 143.908Z" fill="#0C0042"></path><path d="M332.039 156.65C332.268 158.176 331.581 159.549 330.361 159.778C329.14 160.007 327.995 158.939 327.766 157.413C327.537 155.887 328.224 154.513 329.445 154.284C330.589 154.056 331.81 155.124 332.039 156.65Z" stroke="#0C0042" stroke-miterlimit="10"></path><path d="M337.99 155.505C338.219 157.031 337.533 158.405 336.312 158.634C335.091 158.862 333.946 157.794 333.718 156.268C333.489 154.742 334.175 153.369 335.396 153.14C336.617 152.911 337.761 153.979 337.99 155.505Z" stroke="#0C0042" stroke-miterlimit="10"></path><path d="M332.039 156.65C332.039 156.65 332.268 156.192 333.641 156.345" stroke="#0C0042" stroke-miterlimit="10"></path><path d="M338.066 155.887L343.179 155.047" stroke="#0C0042" stroke-miterlimit="10"></path><path d="M343.562 161.533C347.071 162.906 348.216 154.208 344.859 153.827C342.341 153.521 342.188 157.108 342.188 157.108C342.188 157.108 341.578 160.77 343.562 161.533Z" fill="#FFBD9D"></path><g opacity="0.5"><path d="M344.705 155.124C343.56 156.345 343.789 158.023 343.942 159.626C342.873 158.328 342.873 155.734 344.705 155.124Z" fill="#CC6362"></path><path d="M345.238 156.802C344.475 156.879 343.941 157.489 343.788 158.176L343.178 157.947C343.636 157.184 344.475 156.65 345.238 156.802Z" fill="#CC6362"></path></g><path d="M377.439 221.734C375.913 223.565 370.037 224.863 367.214 222.345C366.299 221.582 365.307 219.445 364.315 216.851C361.797 210.213 359.432 200.37 359.432 200.37L372.555 193.656C372.555 193.656 374.234 201.209 375.684 208.458C375.684 208.458 375.684 208.534 375.76 208.687C376.218 210.976 376.676 213.265 377.057 215.249C377.057 215.325 377.057 215.325 377.057 215.401C377.362 217.69 377.591 220.132 377.439 221.734Z" fill="#FFBD9D"></path><path d="M354.471 191.214C355.768 196.479 359.735 206.474 359.735 206.474C362.559 206.932 366.297 206.398 369.349 205.33C372.935 204.032 375.53 201.362 375.53 201.362C375.53 201.362 372.859 193.961 370.494 188.62C368.357 183.813 367.06 182.058 366.145 181.066C364.771 179.616 362.482 177.938 360.956 177.175L354.471 191.214Z" fill="#E0E0E0"></path><path d="M371.029 194.647L363.323 191.29L357.219 175.649C357.219 175.649 358.363 175.954 359.813 176.564C359.813 176.564 359.889 176.564 360.042 176.64C360.042 176.64 360.118 176.64 360.118 176.717C361.415 177.327 366.527 180.303 370.037 191.214C370.037 191.29 370.114 191.367 370.114 191.519C370.495 192.74 370.8 193.808 370.877 194.266C370.877 194.342 370.877 194.342 370.953 194.419C371.029 194.495 371.029 194.571 371.029 194.647Z" fill="#E0E0E0"></path><path d="M377.437 221.734C377.361 222.726 377.056 223.413 376.598 223.642C376.522 223.718 375.454 224.328 375.377 224.405C373.775 225.397 370.876 227.075 367.213 228.601C358.439 232.416 345.62 236.765 338.753 238.826C338.753 238.826 338.066 236.918 336.998 234.858C336.998 234.858 343.255 231.958 349.359 227.304C355.463 222.65 364.314 216.927 364.314 216.927L366.526 214.333C366.526 214.333 374.462 207.084 375.683 208.534C375.683 208.534 375.683 208.61 375.759 208.763C375.911 209.526 376.598 212.349 377.056 215.325C377.056 215.401 377.056 215.401 377.056 215.477C377.361 217.69 377.59 220.132 377.437 221.734Z" fill="#FFBD9D"></path><path d="M337.915 234.4C337.915 234.4 336.389 235.316 334.786 235.01C333.947 234.858 333.566 234.476 332.955 234.324C332.345 234.247 330.59 234.019 329.75 233.561C328.911 233.179 328.606 233.103 328.606 233.942C328.606 234.782 330.285 235.545 330.742 235.773C331.2 236.002 331.734 236.765 331.811 236.842C331.887 236.918 328.987 238.444 328.224 238.139C328.224 238.139 327.996 238.825 328.148 239.207C328.301 239.588 328.835 239.741 328.911 239.894C328.987 240.123 328.759 240.504 328.911 240.809C329.064 241.115 329.598 241.114 329.75 241.649C329.979 242.183 329.75 242.183 329.903 242.641C330.056 243.175 330.742 243.251 330.819 243.556C330.971 243.861 330.895 244.167 331.124 244.319C331.429 244.472 333.947 243.709 334.939 243.251C335.855 242.869 338.372 239.207 341.196 237.986L337.915 234.4Z" fill="#FFBD9D"></path><path d="M351.038 250.5H331.047V248.516H351.038C351.572 248.516 352.03 248.974 352.03 249.508C352.03 250.118 351.572 250.5 351.038 250.5Z" fill="#375F84"></path><path d="M340.201 250.5H290.148C289.538 250.5 289.004 250.118 288.851 249.508L278.627 212.654C278.398 211.815 279.008 211.052 279.847 211.052H328.222C329.367 211.052 330.359 211.815 330.664 212.883L340.888 249.66C341.041 250.118 340.659 250.5 340.201 250.5Z" fill="#375F84"></path><path d="M338.447 250.5H288.394C287.784 250.5 287.25 250.118 287.097 249.508L276.873 212.654C276.644 211.815 277.254 211.052 278.094 211.052H326.468C327.613 211.052 328.605 211.815 328.91 212.883L339.134 249.66C339.21 250.118 338.905 250.5 338.447 250.5Z" fill="#D68029"></path><path d="M140.064 226.694L145.863 220.742C145.863 220.742 146.092 218.072 146.397 217.538C146.703 217.003 147.542 214.943 147.923 214.714C148.305 214.486 149.144 214.714 149.144 214.714C149.144 214.714 149.984 214.409 150.289 214.409C150.67 214.409 151.357 214.714 151.357 214.714C151.357 214.714 152.196 214.638 152.578 214.638C152.959 214.638 153.036 214.714 153.036 214.714C153.036 214.714 154.409 213.112 155.096 212.578C155.782 212.044 156.774 211.052 157.08 211.052C157.385 211.052 157.461 211.586 157.308 212.12C157.08 212.654 156.164 213.57 156.164 213.57L153.493 217.538C153.493 217.538 153.951 217.385 154.18 217.232C154.409 217.08 156.011 215.554 156.164 215.554C156.24 215.477 157.003 215.02 157.385 215.477C157.766 215.935 154.638 219.75 154.104 220.284C153.57 220.818 150.67 222.268 150.67 222.268C150.67 222.268 147.542 227.838 147.313 228.22C147.008 228.601 140.064 226.694 140.064 226.694Z" fill="#FFBD9D"></path><path d="M145.484 199.302C145.484 199.302 142.279 218.072 139.227 218.529C139.227 218.529 127.019 218.987 124.348 204.261C121.983 191.443 131.444 188.696 135.87 189.688C140.219 190.603 146.399 191.214 145.484 199.302Z" fill="#FFBD9D"></path><path d="M134.723 215.477C134.723 215.477 133.045 217.766 132.434 223.336C132.434 223.336 127.399 224.023 122.668 221.658C122.668 221.658 125.186 213.799 125.491 205.253" fill="#FFBD9D"></path><path d="M131.292 186.483C124.654 187.933 125.188 192.129 125.188 192.129C122.059 192.892 121.373 194.189 121.449 199.912C121.449 205.635 123.585 212.578 124.73 213.112C125.874 213.646 132.36 213.722 132.894 213.494C133.428 213.265 135.717 208 135.183 207.084C134.649 206.169 135.183 202.506 136.709 202.354C138.235 202.201 137.93 204.566 137.93 204.566L139.151 204.261L140.143 201.896C148.917 202.43 151.206 192.435 151.206 192.435C149.07 191.137 137.93 185.033 131.292 186.483Z" fill="#0C0042"></path><path d="M57.5084 313.524L64.2229 314.516L61.9339 322.299L54.6853 320.467C54.6853 320.467 51.7096 316.423 56.2113 313.448C56.4402 313.371 57.1269 313.448 57.5084 313.524Z" fill="#FFBD9D"></path><path d="M107.638 293.304L97.7189 263.318C97.7189 263.318 94.7432 262.25 93.1408 263.318C93.1408 263.318 82.8402 268.888 83.9085 284.682C84.7478 296.585 87.2657 309.556 88.2576 314.745L61.7812 313.753C61.7812 313.753 58.5003 317.644 60.6367 322.68C60.6367 322.68 93.8276 331.607 98.5582 332.446C102.373 333.133 106.493 333.667 108.554 331.912C112.216 328.937 107.638 293.304 107.638 293.304Z" fill="#0C0042"></path><path d="M88.7915 313.524L95.506 314.516L93.2932 322.375L86.0447 320.544C86.0447 320.544 83.0689 316.5 87.5707 313.524C87.7233 313.371 88.41 313.448 88.7915 313.524Z" fill="#FFBD9D"></path><path d="M86.35 317.644C86.1974 319.17 87.5708 320.62 87.3419 321.001C87.113 321.383 82.6112 328.937 82.6112 328.937C82.6112 328.937 86.0448 330.386 85.5107 332.599H76.7361C76.7361 332.599 74.447 330.539 74.5234 327.639C74.5234 327.639 75.1338 324.282 76.6598 321.307C78.1858 318.331 81.6956 311.616 81.6956 311.616C81.6956 311.616 82.7638 311.159 84.5951 311.693C86.7315 312.227 88.7916 313.6 88.7916 313.6C88.7916 313.6 86.7315 313.829 86.35 317.644Z" fill="#D68029"></path><path d="M155.556 325.656C153.419 317.72 133.352 283.69 126.561 274.534C112.598 268.506 97.7197 263.318 97.7197 263.318C91.5393 264.768 88.5636 277.205 91.9971 285.445C94.3625 291.091 109.546 305.36 118.855 313.753H93.0653C93.0653 313.753 90.0133 318.331 92.7601 322.604C92.7601 322.604 135.641 332.37 139.456 332.904C143.271 333.438 151.664 332.904 151.664 332.904C151.664 332.904 157.387 332.37 155.556 325.656Z" fill="#0C0042"></path><path d="M55.0668 317.644C54.9142 319.17 56.2876 320.62 56.0587 321.001C55.8298 321.383 51.328 328.937 51.328 328.937C51.328 328.937 54.7616 330.386 54.2275 332.599H45.4529C45.4529 332.599 43.1638 330.539 43.2401 327.639C43.2401 327.639 43.8506 324.282 45.3766 321.307C46.9026 318.331 50.4124 311.616 50.4124 311.616C50.4124 311.616 51.4806 311.159 53.3119 311.693C55.4483 312.227 57.5084 313.6 57.5084 313.6C57.5084 313.6 55.372 313.829 55.0668 317.644Z" fill="#D68029"></path><path d="M187.829 220.895L174.019 245.235L164.1 235.392L155.936 247.6L158.301 248.745L157.462 249.431C157.462 249.431 176.613 258.74 178.902 256.68C181.191 254.62 191.873 223.642 191.873 223.642L187.829 220.895Z" fill="#FFBD9D"></path><path d="M165.856 236.918C165.856 236.918 163.262 247.905 157.997 253.17L144.644 248.058C144.644 248.058 138.464 258.511 132.36 266.523C129.994 269.575 129.231 273.924 126.485 274.534C126.332 274.458 126.179 274.458 125.95 274.382C118.549 272.169 107.562 274.534 98.5585 271.177C88.5631 267.438 90.5469 265.378 90.5469 265.378C90.5469 265.378 96.5747 254.467 100.008 242.869C101.534 237.757 102.602 233.027 103.289 229.288C104.586 222.726 109.775 217.614 116.413 216.698C116.489 216.698 116.565 216.698 116.642 216.698C124.196 215.706 144.034 218.072 147.925 219.75C151.816 221.353 165.856 236.918 165.856 236.918Z" fill="#D68029"></path><path d="M144.72 248.058C144.72 248.058 138.54 258.511 132.436 266.523C130.07 269.575 129.307 273.924 126.561 274.534C127.781 274.076 129.765 267.82 130.452 266.37C131.139 264.92 132.283 263.547 134.725 258.587C137.166 253.628 140.447 246.303 140.447 246.303L144.72 248.058Z" fill="#5996EF"></path><path d="M118.93 313.753C123.431 313.066 128.162 313.677 132.282 315.66C127.781 314.897 123.431 314.363 118.93 313.753Z" fill="black"></path><path d="M198.206 211.968C197.977 211.968 196.528 213.112 195.917 213.646L196.68 212.12C196.68 212.12 197.748 211.128 198.13 210.594C198.511 210.06 198.282 209.526 197.977 209.45C197.748 209.45 196.528 210.442 195.765 210.976L195.917 210.67C195.917 210.67 196.985 209.679 197.367 209.144C197.748 208.61 197.519 208.076 197.214 208C196.909 208 194.544 209.984 194.544 209.984L193.399 211.586L194.315 209.907C194.315 209.907 194.773 209.373 195.078 208.687C195.383 208 195.154 207.847 195.002 207.695C194.849 207.466 193.247 208.687 192.789 209.144C192.407 209.602 191.034 211.586 190.958 211.815L189.584 214.638C189.508 213.799 189.355 212.425 189.279 211.586C189.126 210.289 187.982 209.984 187.982 210.594C187.906 211.205 187.295 214.257 187.448 215.935C187.6 217.614 187.906 218.682 187.982 219.598C188.058 220.513 187.143 222.344 187.143 222.344C187.143 222.344 190.958 224.71 191.644 224.023C192.255 223.336 193.628 221.734 194.315 220.666C195.23 219.216 195.841 217.232 195.841 217.232L197.062 214.638C197.062 214.638 198.13 213.646 198.511 213.112C198.664 212.578 198.511 211.968 198.206 211.968Z" fill="#FFBD9D"></path><path d="M335.09 109.877H252.838C248.336 109.877 244.598 106.215 244.598 101.637C244.598 97.1349 248.26 93.3961 252.838 93.3961H335.09C339.592 93.3961 343.331 97.0586 343.331 101.637C343.331 106.215 339.668 109.877 335.09 109.877Z" fill="white" stroke="#495AD6" stroke-width="0.9986" stroke-miterlimit="10"></path><path d="M333.87 101.102C333.87 103.544 331.886 105.452 329.521 105.452C327.156 105.452 325.172 103.468 325.172 101.102C325.172 98.7371 327.156 96.7533 329.521 96.7533C331.886 96.7533 333.87 98.6608 333.87 101.102Z" stroke="#495AD6" stroke-width="1.8639" stroke-miterlimit="10"></path><path d="M332.65 104.155L335.016 106.596" stroke="#495AD6" stroke-width="1.8639" stroke-miterlimit="10" stroke-linecap="round"></path><path d="M423.524 333.362H397.124C392.469 333.362 388.73 329.623 388.73 324.969V298.569C388.73 293.915 392.469 290.176 397.124 290.176H423.524C428.178 290.176 431.917 293.915 431.917 298.569V324.969C431.917 329.623 428.178 333.362 423.524 333.362Z" fill="#D68029"></path><path d="M415.664 333.362H389.264C384.61 333.362 380.871 329.623 380.871 324.969V298.569C380.871 293.915 384.61 290.176 389.264 290.176H415.664C420.319 290.176 424.057 293.915 424.057 298.569V324.969C424.057 329.623 420.319 333.362 415.664 333.362Z" fill="#D68029"></path><path d="M407.652 300.782C407.652 303.681 405.363 305.97 402.464 305.97C399.564 305.97 397.275 303.681 397.275 300.782C397.275 297.882 399.564 295.593 402.464 295.593C405.363 295.593 407.652 297.959 407.652 300.782Z" fill="white"></path><path d="M413.3 318.331V325.961C413.3 326.648 412.766 327.182 412.079 327.182H392.928C392.241 327.182 391.707 326.648 391.707 325.961V318.331C391.707 312.379 396.514 307.496 402.542 307.496C408.417 307.572 413.3 312.379 413.3 318.331Z" fill="white"></path><path d="M398.571 136.888H381.174C380.487 136.888 379.877 136.277 379.877 135.591C379.877 134.904 380.487 134.293 381.174 134.293H398.571C399.257 134.293 399.868 134.904 399.868 135.591C399.868 136.277 399.257 136.888 398.571 136.888Z" fill="#D68029"></path><path d="M415.967 136.888H403.377C402.69 136.888 402.08 136.277 402.08 135.591C402.08 134.904 402.69 134.293 403.377 134.293H415.967C416.653 134.293 417.264 134.904 417.264 135.591C417.264 136.277 416.653 136.888 415.967 136.888Z" fill="#D68029"></path><path d="M388.575 142.61H381.174C380.487 142.61 379.877 142 379.877 141.313C379.877 140.626 380.487 140.016 381.174 140.016H388.575C389.262 140.016 389.872 140.626 389.872 141.313C389.872 142.076 389.262 142.61 388.575 142.61Z" fill="#D68029"></path><path d="M415.967 142.61H393C392.314 142.61 391.703 142 391.703 141.313C391.703 140.626 392.314 140.016 393 140.016H415.967C416.653 140.016 417.264 140.626 417.264 141.313C417.264 142.076 416.653 142.61 415.967 142.61Z" fill="#D68029"></path><path d="M404.064 148.409H381.174C380.487 148.409 379.877 147.799 379.877 147.112C379.877 146.425 380.487 145.815 381.174 145.815H404.064C404.751 145.815 405.361 146.425 405.361 147.112C405.438 147.799 404.827 148.409 404.064 148.409Z" fill="#D68029"></path><path d="M415.968 148.409H408.567C407.88 148.409 407.27 147.799 407.27 147.112C407.27 146.425 407.88 145.815 408.567 145.815H415.968C416.654 145.815 417.265 146.425 417.265 147.112C417.265 147.799 416.654 148.409 415.968 148.409Z" fill="#D68029"></path><path d="M90.3951 189.535H29.736C27.9048 189.535 26.4551 188.085 26.4551 186.254V155.658C26.4551 153.826 27.9048 152.377 29.736 152.377H90.3951C92.2263 152.377 93.6761 153.826 93.6761 155.658V186.254C93.6761 188.009 92.15 189.535 90.3951 189.535Z" fill="#D68029"></path><path d="M29.3555 157.412H90.7776" stroke="white" stroke-width="0.9986" stroke-miterlimit="10" stroke-linecap="round"></path><path d="M89.1732 155.581C89.5946 155.581 89.9362 155.24 89.9362 154.818C89.9362 154.397 89.5946 154.055 89.1732 154.055C88.7518 154.055 88.4102 154.397 88.4102 154.818C88.4102 155.24 88.7518 155.581 89.1732 155.581Z" fill="white"></path><path d="M85.2845 155.581C85.7059 155.581 86.0475 155.24 86.0475 154.818C86.0475 154.397 85.7059 154.055 85.2845 154.055C84.8631 154.055 84.5215 154.397 84.5215 154.818C84.5215 155.24 84.8631 155.581 85.2845 155.581Z" fill="white"></path><path d="M81.3919 155.581C81.8133 155.581 82.1549 155.24 82.1549 154.818C82.1549 154.397 81.8133 154.055 81.3919 154.055C80.9705 154.055 80.6289 154.397 80.6289 154.818C80.6289 155.24 80.9705 155.581 81.3919 155.581Z" fill="white"></path><path d="M40.7986 162.372H30.3454C29.8113 162.372 29.3535 161.914 29.3535 161.38C29.3535 160.846 29.8113 160.388 30.3454 160.388H40.7986C41.3327 160.388 41.7905 160.846 41.7905 161.38C41.7905 161.914 41.3327 162.372 40.7986 162.372Z" fill="#EDF7FC"></path><path d="M40.7986 167.103H30.3454C29.8113 167.103 29.3535 166.645 29.3535 166.111C29.3535 165.577 29.8113 165.119 30.3454 165.119H40.7986C41.3327 165.119 41.7905 165.577 41.7905 166.111C41.7905 166.645 41.3327 167.103 40.7986 167.103Z" fill="#EDF7FC"></path><path d="M40.7986 171.91H30.3454C29.8113 171.91 29.3535 171.452 29.3535 170.918C29.3535 170.384 29.8113 169.926 30.3454 169.926H40.7986C41.3327 169.926 41.7905 170.384 41.7905 170.918C41.7905 171.452 41.3327 171.91 40.7986 171.91Z" fill="#EDF7FC"></path><path d="M40.7986 176.64H30.3454C29.8113 176.64 29.3535 176.183 29.3535 175.649C29.3535 175.114 29.8113 174.657 30.3454 174.657H40.7986C41.3327 174.657 41.7905 175.114 41.7905 175.649C41.7905 176.183 41.3327 176.64 40.7986 176.64Z" fill="#EDF7FC"></path><path d="M40.7986 181.371H30.3454C29.8113 181.371 29.3535 180.913 29.3535 180.379C29.3535 179.845 29.8113 179.387 30.3454 179.387H40.7986C41.3327 179.387 41.7905 179.845 41.7905 180.379C41.7905 180.913 41.3327 181.371 40.7986 181.371Z" fill="#EDF7FC"></path><path d="M40.7986 186.102H30.3454C29.8113 186.102 29.3535 185.644 29.3535 185.11C29.3535 184.576 29.8113 184.118 30.3454 184.118H40.7986C41.3327 184.118 41.7905 184.576 41.7905 185.11C41.7905 185.644 41.3327 186.102 40.7986 186.102Z" fill="#EDF7FC"></path><path d="M89.7846 162.372H44.8435C44.3094 162.372 43.8516 161.914 43.8516 161.38C43.8516 160.846 44.3094 160.388 44.8435 160.388H89.7846C90.3187 160.388 90.7765 160.846 90.7765 161.38C90.7765 161.914 90.3187 162.372 89.7846 162.372Z" fill="#EDF7FC"></path><path d="M89.7846 167.103H44.8435C44.3094 167.103 43.8516 166.645 43.8516 166.111C43.8516 165.577 44.3094 165.119 44.8435 165.119H89.7846C90.3187 165.119 90.7765 165.577 90.7765 166.111C90.7765 166.645 90.3187 167.103 89.7846 167.103Z" fill="#EDF7FC"></path><path d="M89.7846 171.91H44.8435C44.3094 171.91 43.8516 171.452 43.8516 170.918C43.8516 170.384 44.3094 169.926 44.8435 169.926H89.7846C90.3187 169.926 90.7765 170.384 90.7765 170.918C90.7765 171.452 90.3187 171.91 89.7846 171.91Z" fill="#EDF7FC"></path><path d="M89.7846 176.64H44.8435C44.3094 176.64 43.8516 176.183 43.8516 175.649C43.8516 175.114 44.3094 174.657 44.8435 174.657H89.7846C90.3187 174.657 90.7765 175.114 90.7765 175.649C90.7765 176.183 90.3187 176.64 89.7846 176.64Z" fill="#EDF7FC"></path><path d="M89.7846 181.371H44.8435C44.3094 181.371 43.8516 180.913 43.8516 180.379C43.8516 179.845 44.3094 179.387 44.8435 179.387H89.7846C90.3187 179.387 90.7765 179.845 90.7765 180.379C90.7765 180.913 90.3187 181.371 89.7846 181.371Z" fill="#EDF7FC"></path><path d="M89.7846 186.102H44.8435C44.3094 186.102 43.8516 185.644 43.8516 185.11C43.8516 184.576 44.3094 184.118 44.8435 184.118H89.7846C90.3187 184.118 90.7765 184.576 90.7765 185.11C90.7765 185.644 90.3187 186.102 89.7846 186.102Z" fill="#EDF7FC"></path><path d="M411.011 246.303H393.157C390.486 246.303 388.35 244.166 388.35 241.496V223.642C388.35 220.971 390.486 218.835 393.157 218.835H411.011C413.681 218.835 415.818 220.971 415.818 223.642V241.496C415.818 244.166 413.681 246.303 411.011 246.303Z" fill="#D68029"></path><path d="M409.866 243.937H390.104C387.968 243.937 386.289 242.183 386.289 240.122V220.361C386.289 218.224 388.044 216.546 390.104 216.546H409.866C412.002 216.546 413.681 218.3 413.681 220.361V240.122C413.681 242.259 411.926 243.937 409.866 243.937Z" fill="#D68029"></path><path d="M394.375 238.444C394.299 238.444 394.223 238.444 394.146 238.444C393.689 238.291 393.46 237.834 393.536 237.376L397.656 222.65C397.809 222.192 398.267 221.963 398.724 222.039C399.182 222.192 399.411 222.65 399.335 223.107L395.215 237.833C395.138 238.139 394.757 238.444 394.375 238.444Z" fill="white"></path><path d="M401.319 238.444C401.242 238.444 401.166 238.444 401.09 238.444C400.632 238.291 400.403 237.834 400.479 237.376L404.6 222.65C404.752 222.192 405.21 221.963 405.668 222.039C406.126 222.192 406.354 222.65 406.278 223.107L402.158 237.833C402.082 238.139 401.7 238.444 401.319 238.444Z" fill="white"></path><path d="M407.27 227.762H392.621C392.163 227.762 391.781 227.38 391.781 226.923C391.781 226.465 392.163 226.083 392.621 226.083H407.347C407.804 226.083 408.186 226.465 408.186 226.923C408.11 227.38 407.728 227.762 407.27 227.762Z" fill="white"></path><path d="M407.27 234.476H392.621C392.163 234.476 391.781 234.095 391.781 233.637C391.781 233.179 392.163 232.798 392.621 232.798H407.347C407.804 232.798 408.186 233.179 408.186 233.637C408.11 234.095 407.728 234.476 407.27 234.476Z" fill="white"></path><path d="M14.3218 245.006H2.11365C1.35064 245.006 0.740234 244.395 0.740234 243.709C0.740234 242.946 1.35064 242.412 2.11365 242.412H14.3218C15.0848 242.412 15.6952 243.022 15.6952 243.709C15.6952 244.472 15.0848 245.006 14.3218 245.006Z" fill="#D68029"></path><path d="M26.6825 250.881H2.11365C1.35064 250.881 0.740234 250.271 0.740234 249.584C0.740234 248.821 1.35064 248.287 2.11365 248.287H26.6825C27.4455 248.287 28.0559 248.897 28.0559 249.584C27.9796 250.271 27.3692 250.881 26.6825 250.881Z" fill="#D68029"></path><path d="M5.01308 256.68H2.11365C1.35064 256.68 0.740234 256.069 0.740234 255.383C0.740234 254.62 1.35064 254.086 2.11365 254.086H5.01308C5.77608 254.086 6.38649 254.696 6.38649 255.383C6.38649 256.146 5.77608 256.68 5.01308 256.68Z" fill="#D68029"></path><path d="M26.6835 256.68H9.59216C8.82916 256.68 8.21875 256.069 8.21875 255.383C8.21875 254.62 8.82916 254.086 9.59216 254.086H26.6835C27.4465 254.086 28.0569 254.696 28.0569 255.383C27.9806 256.146 27.3702 256.68 26.6835 256.68Z" fill="#D68029"></path><path d="M26.6828 245.006H19.2816C18.5186 245.006 17.9082 244.395 17.9082 243.709C17.9082 242.946 18.5186 242.412 19.2816 242.412H26.6828C27.4458 242.412 28.0562 243.022 28.0562 243.709C27.9799 244.472 27.3695 245.006 26.6828 245.006Z" fill="#D68029"></path><path d="M30.1918 318.102C28.8184 318.102 27.5213 318.483 26.3768 319.17C25.919 315.203 22.5618 312.151 18.4415 312.151C14.0161 312.151 10.5063 315.737 10.5063 320.086C10.5063 320.391 10.5063 320.696 10.5826 320.925C10.2011 320.849 9.81955 320.849 9.43804 320.849C6.08081 320.849 3.33398 323.596 3.33398 326.953C3.33398 330.31 6.08081 333.057 9.43804 333.057H30.1918C34.3121 333.057 37.593 329.7 37.593 325.656C37.6693 321.459 34.3121 318.102 30.1918 318.102Z" fill="#F6FBFE"></path><path d="M206.371 67.7592H224.225L194.239 97.7453L186.456 105.528L177.529 96.6008L206.371 67.7592ZM206.142 94.5407C206.371 94.2355 206.829 94.3881 207.134 94.3118H224.225L208.66 109.801L199.733 100.874L206.142 94.5407Z" fill="#D68029"></path><path d="M190.807 109.877L199.734 100.95L208.661 109.877V109.953L199.658 118.881L190.807 109.877Z" fill="#D68029"></path><path d="M199.732 118.804L208.736 109.877L224.225 125.366C218.35 125.366 212.551 125.366 206.676 125.366C206.371 125.442 206.142 125.137 205.913 124.985L199.732 118.804Z" fill="#D68029"></path><path opacity="0.54" d="M177.529 137.193H185.922V138.871C183.71 138.871 181.497 138.871 179.361 138.871C179.208 138.948 179.284 139.1 179.284 139.253V143.678C179.361 143.831 179.513 143.755 179.666 143.755H185.312V145.433C183.557 145.433 181.802 145.433 180.047 145.433C179.818 145.433 179.513 145.433 179.284 145.433V151.69C178.75 151.69 178.14 151.69 177.606 151.69V137.422C177.529 137.422 177.529 137.193 177.529 137.193ZM187.906 137.193H189.661V147.036V151.69C189.127 151.69 188.517 151.69 187.982 151.69C187.906 151.461 187.982 151.232 187.982 151.003C187.906 151.003 187.906 137.193 187.906 137.193ZM204.769 138.414H206.524V141.313C207.363 141.313 208.202 141.313 209.042 141.313C209.042 141.847 209.042 142.381 209.042 142.915C208.202 142.915 207.363 142.915 206.524 142.915V148.714C206.524 149.248 206.676 149.935 207.21 150.164C207.821 150.469 208.507 150.316 209.118 150.011V151.69C208.507 151.995 207.821 151.995 207.134 151.919C206.218 151.766 205.303 151.156 204.998 150.164C204.845 149.63 204.845 149.096 204.845 148.562V142.915L204.769 142.839C204.158 142.839 203.548 142.839 203.014 142.839C203.014 142.305 203.014 141.771 203.014 141.237C203.624 141.237 204.235 141.237 204.845 141.237L204.769 138.414ZM212.094 138.414C212.704 138.414 213.238 138.414 213.848 138.414L213.925 138.49C213.925 139.482 213.925 140.397 213.925 141.389C214.764 141.389 215.527 141.389 216.366 141.389V142.992C215.527 142.992 214.688 142.992 213.925 142.992V148.943C213.925 149.477 214.077 150.088 214.535 150.316C215.146 150.622 215.909 150.469 216.443 150.164V151.843C215.832 152.148 215.146 152.148 214.535 152.071C213.696 151.995 212.857 151.461 212.475 150.698C212.246 150.316 212.17 149.859 212.17 149.401V142.992C211.559 142.992 210.949 142.992 210.415 142.992V141.389C211.025 141.389 211.559 141.389 212.17 141.389C212.17 140.397 212.094 139.405 212.094 138.414ZM220.487 141.389C221.707 140.931 223.081 140.855 224.302 141.313C225.675 141.771 226.743 142.992 227.201 144.441C227.43 145.204 227.43 146.044 227.43 146.883H219.266C219.342 147.722 219.571 148.638 220.181 149.325C221.021 150.316 222.547 150.698 223.768 150.316C224.683 150.088 225.37 149.401 225.751 148.638C226.285 148.867 226.743 149.096 227.201 149.325C226.514 150.622 225.294 151.614 223.844 151.919C222.623 152.148 221.326 152.148 220.258 151.537C218.808 150.851 217.892 149.401 217.587 147.875C217.358 146.654 217.435 145.433 217.892 144.289C218.35 142.992 219.266 141.923 220.487 141.389ZM221.173 142.839C220.181 143.297 219.495 144.365 219.342 145.433H225.599C225.522 144.747 225.217 144.06 224.759 143.526C223.844 142.534 222.318 142.381 221.173 142.839ZM231.092 142.992C231.779 141.389 233.763 140.55 235.365 141.237V143.068C234.679 142.839 233.916 142.61 233.229 142.839C232.237 143.144 231.55 143.984 231.245 144.975C231.092 145.586 231.092 146.273 231.169 146.959C231.092 147.799 231.169 148.638 231.169 149.477C231.245 150.24 231.092 150.927 231.169 151.69C230.558 151.69 230.024 151.69 229.414 151.69C229.414 149.477 229.414 147.264 229.414 145.052V141.313C229.948 141.313 230.482 141.313 231.092 141.313C231.092 141.923 231.016 142.458 231.092 142.992ZM192.103 141.313C192.713 141.313 193.247 141.313 193.858 141.313V147.493C193.858 148.256 193.934 149.096 194.468 149.63C195.155 150.393 196.299 150.545 197.215 150.24C198.436 149.782 199.275 148.485 199.275 147.188V141.313H201.03V151.69C200.496 151.69 199.885 151.69 199.351 151.69V150.24C198.97 150.698 198.588 151.156 198.131 151.461C197.062 152.148 195.765 152.224 194.544 151.843C193.781 151.614 193.095 151.079 192.713 150.393C192.255 149.63 192.179 148.714 192.103 147.799V141.313Z" fill="black"></path><path d="M307.926 231.806C309.401 231.806 310.597 230.61 310.597 229.135C310.597 227.66 309.401 226.465 307.926 226.465C306.451 226.465 305.256 227.66 305.256 229.135C305.256 230.61 306.451 231.806 307.926 231.806Z" fill="white"></path></svg>