<svg xmlns="http://www.w3.org/2000/svg" width="447" height="333" viewBox="0 0 447 333" fill="none"><path d="M446.908 292.635H0V292.859H446.908V292.635Z" fill="#EBEBEB"></path><path d="M396.756 301.144H367.152V301.368H396.756V301.144Z" fill="#EBEBEB"></path><path d="M162.075 304.174H117.51V304.398H162.075V304.174Z" fill="#EBEBEB"></path><path d="M366.26 309.448H339.865V309.671H366.26V309.448Z" fill="#EBEBEB"></path><path d="M66.197 307.946H46.8906V308.17H66.197V307.946Z" fill="#EBEBEB"></path><path d="M108.448 307.946H74.1523V308.17H108.448V307.946Z" fill="#EBEBEB"></path><path d="M296.049 298.722H212.316V298.946H296.049V298.722Z" fill="#EBEBEB"></path><path d="M211.836 252.771H39.249C37.897 252.769 36.6012 252.23 35.646 251.273C34.6908 250.316 34.1543 249.019 34.1543 247.667V5.059C34.1661 3.71472 34.7077 2.42937 35.6617 1.48214C36.6156 0.534911 37.9047 0.00230282 39.249 0H211.836C213.19 0 214.488 0.537709 215.445 1.49484C216.402 2.45196 216.94 3.7501 216.94 5.10369V247.667C216.94 249.021 216.402 250.319 215.445 251.276C214.488 252.233 213.19 252.771 211.836 252.771ZM39.249 0.178764C37.9563 0.181132 36.7173 0.696341 35.804 1.61131C34.8907 2.52627 34.3777 3.76623 34.3778 5.059V247.667C34.3777 248.96 34.8907 250.2 35.804 251.115C36.7173 252.03 37.9563 252.545 39.249 252.548H211.836C213.13 252.545 214.369 252.03 215.284 251.116C216.199 250.201 216.714 248.961 216.716 247.667V5.059C216.714 3.7654 216.199 2.52547 215.284 1.61076C214.369 0.69605 213.13 0.181127 211.836 0.178764H39.249Z" fill="#EBEBEB"></path><path d="M405.176 252.771H232.58C231.227 252.769 229.931 252.23 228.974 251.274C228.017 250.317 227.479 249.02 227.477 247.667V5.059C227.491 3.71391 228.034 2.42857 228.99 1.48158C229.945 0.534599 231.235 0.0022777 232.58 0H405.176C406.519 0.00465186 407.806 0.5383 408.758 1.48528C409.71 2.43226 410.25 3.71626 410.262 5.059V247.667C410.262 249.018 409.727 250.313 408.773 251.27C407.82 252.227 406.527 252.766 405.176 252.771ZM232.58 0.178764C231.287 0.181127 230.047 0.69605 229.132 1.61076C228.217 2.52547 227.702 3.7654 227.7 5.059V247.667C227.702 248.961 228.217 250.201 229.132 251.116C230.047 252.03 231.287 252.545 232.58 252.548H405.176C406.47 252.545 407.71 252.03 408.624 251.116C409.539 250.201 410.054 248.961 410.056 247.667V5.059C410.054 3.7654 409.539 2.52547 408.624 1.61076C407.71 0.69605 406.47 0.181127 405.176 0.178764H232.58Z" fill="#EBEBEB"></path><path d="M195.111 17.5813H64.9629V292.635H195.111V17.5813Z" fill="#E6E6E6"></path><path d="M198.008 17.5813H67.8594V292.635H198.008V17.5813Z" fill="#F5F5F5"></path><path d="M192.814 286.799L192.814 23.409L73.0521 23.409L73.0521 286.799H192.814Z" fill="#FAFAFA"></path><path d="M100.635 286.799L130.971 23.409H165.231L134.895 286.799H100.635Z" fill="white"></path><path d="M192.814 286.808L192.814 23.418H190.625L190.625 286.808H192.814Z" fill="#E6E6E6"></path><path d="M195.853 46.2281H70.0039V54.058H195.853V46.2281Z" fill="#F5F5F5"></path><path d="M394.682 292.626V165.561H344.592V292.626H394.682Z" fill="#F0F0F0"></path><path d="M391.938 197.301V169.28H347.345V197.301H391.938Z" fill="#F5F5F5"></path><path d="M359.77 168.931H379.514C379.514 169.702 379.208 170.44 378.663 170.985C378.118 171.53 377.379 171.836 376.609 171.836H362.674C361.904 171.836 361.165 171.53 360.62 170.985C360.076 170.44 359.77 169.702 359.77 168.931Z" fill="#E6E6E6"></path><path d="M391.938 227.843V199.821H347.345V227.843H391.938Z" fill="#F5F5F5"></path><path d="M391.938 258.375V230.354H347.345V258.375H391.938Z" fill="#F5F5F5"></path><path d="M391.938 288.917V260.896H347.345V288.917H391.938Z" fill="#F5F5F5"></path><path d="M359.77 199.446H379.514C379.512 200.216 379.205 200.953 378.66 201.498C378.116 202.042 377.379 202.349 376.609 202.351H362.674C361.905 202.349 361.167 202.042 360.623 201.498C360.079 200.953 359.772 200.216 359.77 199.446Z" fill="#E6E6E6"></path><path d="M359.77 229.988H379.514C379.512 230.757 379.205 231.495 378.66 232.039C378.116 232.583 377.379 232.89 376.609 232.893H362.674C361.905 232.89 361.167 232.583 360.623 232.039C360.079 231.495 359.772 230.757 359.77 229.988Z" fill="#E6E6E6"></path><path d="M359.77 260.529H379.514C379.512 261.299 379.205 262.037 378.66 262.581C378.116 263.125 377.379 263.432 376.609 263.434H362.674C361.905 263.432 361.167 263.125 360.623 262.581C360.079 262.037 359.772 261.299 359.77 260.529Z" fill="#E6E6E6"></path><path d="M344.602 292.635V165.57H319.584V292.635H344.602Z" fill="#F5F5F5"></path><path d="M340.07 292.626V165.561H289.981V292.626H340.07Z" fill="#F0F0F0"></path><path d="M337.326 197.301V169.28H292.734V197.301H337.326Z" fill="#F5F5F5"></path><path d="M305.158 168.931H324.903C324.903 169.702 324.597 170.44 324.052 170.985C323.507 171.53 322.768 171.836 321.998 171.836H308.063C307.293 171.836 306.554 171.53 306.009 170.985C305.464 170.44 305.158 169.702 305.158 168.931Z" fill="#E6E6E6"></path><path d="M337.326 227.843V199.821H292.734V227.843H337.326Z" fill="#F5F5F5"></path><path d="M337.326 258.384V230.363H292.734V258.384H337.326Z" fill="#F5F5F5"></path><path d="M337.318 288.926V260.905H292.726V288.926H337.318Z" fill="#F5F5F5"></path><path d="M305.158 199.446H324.903C324.9 200.216 324.593 200.953 324.049 201.498C323.505 202.042 322.767 202.349 321.998 202.351H308.063C307.293 202.349 306.556 202.042 306.012 201.498C305.467 200.953 305.161 200.216 305.158 199.446Z" fill="#E6E6E6"></path><path d="M305.158 229.988H324.903C324.9 230.757 324.593 231.495 324.049 232.039C323.505 232.583 322.767 232.89 321.998 232.893H308.063C307.293 232.89 306.556 232.583 306.012 232.039C305.467 231.495 305.161 230.757 305.158 229.988Z" fill="#E6E6E6"></path><path d="M305.158 260.529H324.903C324.9 261.299 324.593 262.037 324.049 262.581C323.505 263.125 322.767 263.432 321.998 263.434H308.063C307.293 263.432 306.556 263.125 306.012 262.581C305.467 262.037 305.161 261.299 305.158 260.529Z" fill="#E6E6E6"></path><path d="M289.988 292.635V165.57H264.97V292.635H289.988Z" fill="#F5F5F5"></path><path d="M293.189 165.562H311.816V133.25H293.189V165.562Z" fill="#E0E0E0"></path><path d="M370.308 165.561H299.259L288.676 113.273H359.725L370.308 165.561Z" fill="#E6E6E6"></path><path d="M378.415 165.561H301.064L290.49 113.273H367.841L378.415 165.561Z" fill="#F0F0F0"></path><path d="M306.712 161.441L297.801 117.394H362.191L371.103 161.441H306.712Z" fill="white"></path><path d="M324.785 161.441L335.86 117.394H344.118L333.044 161.441H324.785Z" fill="#F5F5F5"></path><path d="M336.281 161.441L347.365 117.394H355.623L344.549 161.441H336.281Z" fill="#F5F5F5"></path><path d="M262.844 84.4745H267.125L281.775 77.5117H264.274L262.844 84.4745Z" fill="#E6E6E6"></path><path d="M265.328 84.4745H269.601L284.25 77.5117H279.969L265.328 84.4745Z" fill="#F5F5F5"></path><path d="M366.582 84.4745H370.863L385.513 77.5117H368.012L366.582 84.4745Z" fill="#E6E6E6"></path><path d="M369.066 84.4745H373.339L387.988 77.5117H383.716L369.066 84.4745Z" fill="#F5F5F5"></path><path d="M252.28 77.5117H280.793V72.9801H252.28V77.5117Z" fill="#E6E6E6"></path><path d="M398.794 72.98H280.783V77.5117H398.794V72.98Z" fill="#F5F5F5"></path><path d="M346.808 72.98H384.295V55.1574H346.808V72.98Z" fill="#F0F0F0"></path><path d="M346.801 55.1573L385.512 55.1573V50.3844L346.801 50.3844V55.1573Z" fill="#F0F0F0"></path><path d="M346.801 50.3844H335.307V55.1574H346.801V50.3844Z" fill="#EBEBEB"></path><path d="M346.8 55.1573H336.307V72.98H346.8V55.1573Z" fill="#EBEBEB"></path><path opacity="0.7" d="M336.315 56.6321L384.295 56.6321V55.1573L336.315 55.1573V56.6321Z" fill="#E0E0E0"></path><path d="M282.713 72.98L341.893 72.98V44.3958L282.713 44.3958V72.98Z" fill="#F0F0F0"></path><path d="M282.714 44.4048L343.824 44.4048V41.4552L282.714 41.4552V44.4048Z" fill="#F0F0F0"></path><path d="M282.723 41.4552H264.578V44.4048H282.723V41.4552Z" fill="#EBEBEB"></path><path d="M282.723 44.4048H266.16V72.989H282.723V44.4048Z" fill="#EBEBEB"></path><path opacity="0.7" d="M266.151 46.1209L341.893 46.1209V44.3958L266.151 44.3958V46.1209Z" fill="#E0E0E0"></path><path d="M223.452 333C319.164 333 396.754 328.47 396.754 322.882C396.754 317.294 319.164 312.764 223.452 312.764C127.74 312.764 50.1504 317.294 50.1504 322.882C50.1504 328.47 127.74 333 223.452 333Z" fill="#F5F5F5"></path><path d="M125.886 35.0733H228.961C231.212 35.0977 233.372 35.9711 235.008 37.5188C236.643 39.0666 237.634 41.1747 237.783 43.4216L249.376 248.213C249.448 249.288 249.298 250.366 248.934 251.381C248.571 252.395 248.001 253.323 247.262 254.107C246.522 254.891 245.629 255.513 244.638 255.936C243.646 256.358 242.579 256.571 241.501 256.561H138.444C136.189 256.541 134.025 255.67 132.386 254.121C130.747 252.573 129.753 250.463 129.604 248.213L117.985 43.4216C117.912 42.3442 118.063 41.2635 118.428 40.2473C118.793 39.2312 119.365 38.3018 120.108 37.5175C120.85 36.7333 121.746 36.1113 122.741 35.6906C123.735 35.2699 124.806 35.0598 125.886 35.0733Z" fill="white"></path><path d="M117.912 109.376L117.367 99.7588L118.35 99.7051L118.895 109.323L117.912 109.376ZM116.786 89.5067L115.168 61.0387L116.151 60.985L117.769 89.4531L116.786 89.5067Z" fill="#D68029"></path><path d="M241.555 256.954H138.471C136.115 256.922 133.857 256.005 132.145 254.386C130.433 252.767 129.392 250.563 129.229 248.213L117.609 43.4216C117.532 42.2959 117.688 41.1663 118.068 40.1038C118.448 39.0413 119.043 38.069 119.817 37.2479C120.591 36.4269 121.527 35.7749 122.565 35.333C123.603 34.891 124.722 34.6688 125.85 34.6801H228.943C231.299 34.7106 233.557 35.6269 235.268 37.2467C236.978 38.8665 238.017 41.071 238.176 43.4216L249.796 248.213C249.873 249.338 249.717 250.468 249.337 251.53C248.957 252.593 248.362 253.565 247.588 254.386C246.814 255.207 245.878 255.859 244.84 256.301C243.801 256.743 242.683 256.965 241.555 256.954ZM125.904 35.4666C124.877 35.4555 123.859 35.6572 122.913 36.0591C121.968 36.461 121.117 37.0543 120.412 37.8016C119.707 38.549 119.165 39.4342 118.82 40.4014C118.474 41.3687 118.333 42.397 118.405 43.4216L130.024 248.213C130.17 250.353 131.117 252.36 132.675 253.834C134.234 255.308 136.29 256.141 138.435 256.168H241.51C242.537 256.177 243.554 255.975 244.499 255.572C245.443 255.17 246.295 254.577 246.999 253.83C247.703 253.083 248.245 252.198 248.591 251.231C248.937 250.265 249.079 249.237 249.009 248.213L237.39 43.4216C237.248 41.2814 236.304 39.2734 234.746 37.7987C233.189 36.324 231.132 35.4912 228.988 35.4666H125.904Z" fill="#D68029"></path><path opacity="0.2" d="M132.937 251.252C133.343 251.258 133.746 251.179 134.12 251.021C134.494 250.864 134.831 250.63 135.11 250.335C135.389 250.04 135.604 249.69 135.74 249.308C135.877 248.926 135.933 248.519 135.904 248.114L124.285 43.5199C124.229 42.6747 123.856 41.8816 123.242 41.2985C122.627 40.7155 121.816 40.3853 120.969 40.3737C120.562 40.369 120.16 40.4485 119.786 40.6074C119.411 40.7662 119.074 41.0008 118.796 41.2964C118.517 41.5921 118.302 41.9423 118.166 42.325C118.029 42.7077 117.973 43.1145 118.001 43.5199L129.621 248.114C129.677 248.959 130.05 249.751 130.665 250.332C131.279 250.914 132.091 251.242 132.937 251.252Z" fill="#D68029"></path><path opacity="0.5" d="M187.129 49.9375H223.534C224.77 49.9527 225.955 50.433 226.853 51.2828C227.751 52.1326 228.295 53.2894 228.378 54.5228L230.443 90.9279C230.484 91.5186 230.402 92.1114 230.202 92.6689C230.003 93.2264 229.69 93.7366 229.284 94.1673C228.877 94.598 228.386 94.94 227.841 95.1716C227.296 95.4032 226.709 95.5195 226.117 95.5132H189.712C188.477 95.4978 187.293 95.0172 186.396 94.1672C185.5 93.3173 184.957 92.1605 184.876 90.9279L182.812 54.5228C182.77 53.9325 182.85 53.3399 183.049 52.7824C183.247 52.2249 183.559 51.7146 183.965 51.2838C184.371 50.8529 184.861 50.5108 185.406 50.2791C185.95 50.0474 186.537 49.9311 187.129 49.9375Z" fill="#D68029"></path><path opacity="0.4" d="M163.282 51.2067H172.971C174.207 51.2219 175.392 51.7022 176.289 52.552C177.187 53.4018 177.732 54.5586 177.815 55.792L178.36 65.481C178.402 66.0712 178.321 66.6639 178.123 67.2213C177.924 67.7788 177.612 68.2891 177.207 68.72C176.801 69.1509 176.311 69.4929 175.766 69.7246C175.222 69.9564 174.635 70.0727 174.043 70.0662H164.345C163.11 70.0509 161.926 69.5703 161.03 68.7203C160.133 67.8703 159.591 66.7136 159.51 65.481L158.955 55.792C158.915 55.2013 158.997 54.6085 159.196 54.051C159.396 53.4934 159.709 52.9833 160.115 52.5526C160.521 52.1219 161.012 51.7799 161.557 51.5483C162.102 51.3167 162.689 51.2004 163.282 51.2067Z" fill="#D68029"></path><path opacity="0.2" d="M139.355 51.2067H149.044C150.281 51.2198 151.467 51.6995 152.365 52.5497C153.264 53.3999 153.808 54.5579 153.889 55.792L154.443 65.481C154.484 66.0717 154.402 66.6645 154.202 67.222C154.003 67.7795 153.69 68.2897 153.283 68.7204C152.877 69.1511 152.386 69.493 151.841 69.7247C151.296 69.9563 150.709 70.0726 150.117 70.0662H140.428C139.192 70.0511 138.007 69.5707 137.109 68.721C136.211 67.8712 135.666 66.7144 135.583 65.481L135.038 55.792C134.996 55.2017 135.077 54.6091 135.275 54.0516C135.474 53.4941 135.786 52.9838 136.192 52.553C136.597 52.1221 137.088 51.78 137.632 51.5483C138.177 51.3166 138.764 51.2003 139.355 51.2067Z" fill="#D68029"></path><path opacity="0.4" d="M164.648 75.3844H174.337C175.574 75.3976 176.76 75.8772 177.658 76.7274C178.557 77.5776 179.101 78.7356 179.182 79.9697L179.736 89.6587C179.777 90.2494 179.695 90.8422 179.495 91.3997C179.296 91.9572 178.983 92.4674 178.576 92.8981C178.17 93.3288 177.679 93.6707 177.134 93.9024C176.589 94.134 176.002 94.2503 175.41 94.244H165.721C164.485 94.2288 163.3 93.7484 162.402 92.8987C161.504 92.0489 160.959 90.8921 160.876 89.6587L160.331 79.9697C160.289 79.3794 160.37 78.7868 160.568 78.2293C160.767 77.6718 161.079 77.1616 161.485 76.7307C161.89 76.2998 162.381 75.9577 162.925 75.726C163.47 75.4943 164.057 75.378 164.648 75.3844Z" fill="#D68029"></path><path opacity="0.4" d="M140.731 75.3844H150.42C151.656 75.3996 152.841 75.88 153.739 76.7297C154.636 77.5795 155.181 78.7363 155.264 79.9697L155.809 89.6587C155.851 90.249 155.771 90.8416 155.572 91.3991C155.374 91.9566 155.062 92.4668 154.656 92.8977C154.25 93.3286 153.76 93.6706 153.215 93.9024C152.671 94.1341 152.084 94.2504 151.492 94.2439H141.794C140.559 94.2286 139.375 93.748 138.479 92.898C137.583 92.048 137.04 90.8913 136.959 89.6587L136.405 79.9697C136.364 79.379 136.446 78.7862 136.645 78.2287C136.845 77.6712 137.158 77.161 137.564 76.7303C137.971 76.2996 138.462 75.9576 139.007 75.726C139.552 75.4944 140.139 75.3781 140.731 75.3844Z" fill="#D68029"></path><path d="M149.446 91.0173H143.476C142.609 91.0058 141.778 90.6683 141.149 90.0721C140.519 89.4758 140.137 88.6645 140.079 87.7995L139.739 81.8289C139.711 81.4145 139.769 80.9987 139.909 80.6078C140.05 80.2169 140.27 79.8594 140.555 79.5579C140.841 79.2563 141.186 79.0172 141.568 78.8558C141.951 78.6944 142.363 78.6141 142.778 78.6201H148.74C149.606 78.6314 150.435 78.9676 151.064 79.562C151.693 80.1563 152.076 80.9655 152.137 81.8289L152.476 87.7995C152.505 88.2136 152.447 88.629 152.307 89.0197C152.168 89.4104 151.949 89.7681 151.664 90.0702C151.38 90.3723 151.036 90.6124 150.654 90.7754C150.273 90.9384 149.861 91.0207 149.446 91.0173ZM142.823 79.3977C142.509 79.3945 142.198 79.4563 141.909 79.5791C141.62 79.7019 141.359 79.8832 141.144 80.1115C140.928 80.3397 140.762 80.6101 140.655 80.9057C140.549 81.2012 140.505 81.5155 140.526 81.8289L140.866 87.7995C140.91 88.4526 141.199 89.0651 141.674 89.5154C142.149 89.9657 142.776 90.221 143.431 90.2307H149.402C149.715 90.234 150.026 90.1722 150.315 90.0493C150.603 89.9264 150.863 89.745 151.078 89.5165C151.293 89.2881 151.459 89.0176 151.564 88.7221C151.669 88.4266 151.712 88.1124 151.69 87.7995L151.35 81.8289C151.307 81.175 151.019 80.5614 150.544 80.1106C150.068 79.6599 149.44 79.4053 148.785 79.3977H142.823Z" fill="white"></path><path opacity="0.5" d="M181.989 160.985H145.584C144.992 160.979 144.405 161.095 143.86 161.327C143.315 161.558 142.824 161.9 142.418 162.331C142.011 162.762 141.699 163.272 141.499 163.829C141.299 164.387 141.217 164.98 141.258 165.57L143.323 202.002C143.404 203.237 143.948 204.395 144.846 205.245C145.745 206.095 146.931 206.575 148.167 206.588H184.573C185.165 206.595 185.752 206.48 186.297 206.249C186.842 206.018 187.333 205.675 187.739 205.244C188.145 204.813 188.457 204.302 188.655 203.744C188.853 203.186 188.933 202.593 188.89 202.002L186.807 165.57C186.726 164.341 186.186 163.187 185.294 162.337C184.401 161.488 183.221 161.005 181.989 160.985Z" fill="#D68029"></path><path opacity="0.4" d="M205.978 162.254H196.289C195.698 162.247 195.111 162.362 194.566 162.593C194.021 162.823 193.53 163.164 193.123 163.594C192.717 164.024 192.404 164.534 192.204 165.091C192.004 165.648 191.923 166.24 191.963 166.831L192.517 176.529C192.601 177.761 193.146 178.917 194.044 179.765C194.942 180.614 196.127 181.092 197.362 181.105H207.051C207.642 181.113 208.229 180.997 208.773 180.767C209.318 180.536 209.808 180.195 210.214 179.765C210.62 179.334 210.932 178.825 211.131 178.268C211.329 177.711 211.41 177.118 211.368 176.529L210.823 166.831C210.74 165.598 210.195 164.442 209.297 163.594C208.399 162.746 207.214 162.267 205.978 162.254Z" fill="#D68029"></path><path opacity="0.4" d="M229.907 162.254H220.209C219.618 162.247 219.031 162.362 218.487 162.593C217.942 162.823 217.451 163.165 217.046 163.595C216.64 164.025 216.328 164.535 216.129 165.092C215.93 165.649 215.85 166.241 215.892 166.831L216.437 176.529C216.52 177.761 217.065 178.917 217.963 179.765C218.861 180.614 220.046 181.092 221.281 181.105H230.97C231.562 181.113 232.149 180.997 232.694 180.767C233.239 180.536 233.73 180.195 234.137 179.765C234.543 179.335 234.856 178.825 235.056 178.268C235.255 177.711 235.337 177.119 235.296 176.529L234.742 166.831C234.661 165.599 234.118 164.443 233.222 163.595C232.325 162.746 231.141 162.267 229.907 162.254Z" fill="#D68029"></path><path opacity="0.4" d="M207.365 186.432H197.658C197.066 186.426 196.48 186.542 195.935 186.774C195.391 187.005 194.9 187.348 194.494 187.778C194.089 188.209 193.777 188.72 193.578 189.277C193.38 189.835 193.299 190.427 193.341 191.017L193.886 200.706C193.969 201.939 194.514 203.095 195.412 203.943C196.31 204.791 197.495 205.27 198.731 205.283H208.42C209.011 205.29 209.598 205.175 210.143 204.944C210.688 204.714 211.179 204.373 211.586 203.943C211.992 203.513 212.305 203.003 212.505 202.446C212.704 201.889 212.786 201.297 212.746 200.706L212.191 191.017C212.113 189.786 211.572 188.629 210.677 187.779C209.782 186.929 208.599 186.448 207.365 186.432Z" fill="#D68029"></path><path opacity="0.4" d="M231.274 186.432H221.585C220.992 186.424 220.405 186.54 219.859 186.771C219.314 187.002 218.822 187.344 218.415 187.775C218.009 188.206 217.696 188.717 217.497 189.275C217.298 189.833 217.217 190.426 217.259 191.017L217.813 200.706C217.896 201.939 218.441 203.095 219.339 203.943C220.237 204.791 221.422 205.27 222.658 205.283H232.391C232.982 205.29 233.569 205.175 234.113 204.945C234.658 204.714 235.149 204.373 235.555 203.942C235.96 203.512 236.272 203.002 236.471 202.445C236.67 201.888 236.75 201.296 236.708 200.706L236.163 191.017C236.081 189.776 235.531 188.611 234.623 187.76C233.716 186.909 232.518 186.434 231.274 186.432Z" fill="#D68029"></path><path opacity="0.4" d="M208.455 222.265H198.766C198.174 222.259 197.587 222.375 197.042 222.607C196.497 222.838 196.006 223.18 195.599 223.611C195.193 224.042 194.88 224.552 194.681 225.109C194.481 225.667 194.399 226.26 194.44 226.85L194.994 236.539C195.075 237.774 195.619 238.932 196.517 239.782C197.416 240.632 198.602 241.112 199.839 241.125H209.527C210.119 241.131 210.706 241.015 211.25 240.783C211.795 240.551 212.286 240.209 212.691 239.778C213.097 239.348 213.409 238.837 213.607 238.28C213.806 237.722 213.887 237.13 213.845 236.539L213.299 226.85C213.216 225.617 212.672 224.46 211.774 223.61C210.876 222.761 209.691 222.28 208.455 222.265Z" fill="#D68029"></path><path opacity="0.4" d="M233.286 222.265H223.615C223.023 222.259 222.437 222.375 221.892 222.607C221.348 222.838 220.857 223.181 220.451 223.611C220.046 224.042 219.734 224.553 219.535 225.11C219.337 225.668 219.256 226.26 219.298 226.85L219.843 236.539C219.926 237.773 220.471 238.93 221.369 239.779C222.267 240.629 223.452 241.11 224.688 241.125H234.377C234.969 241.131 235.556 241.015 236.101 240.783C236.646 240.552 237.137 240.21 237.543 239.779C237.949 239.348 238.262 238.838 238.462 238.28C238.661 237.723 238.743 237.13 238.703 236.539L238.148 226.85C238.067 225.613 237.521 224.453 236.619 223.602C235.717 222.751 234.526 222.274 233.286 222.265Z" fill="#D68029"></path><path opacity="0.4" d="M158.75 222.265H149.061C148.469 222.259 147.882 222.375 147.337 222.607C146.792 222.838 146.301 223.18 145.894 223.611C145.488 224.042 145.175 224.552 144.976 225.109C144.776 225.667 144.694 226.26 144.735 226.85L145.289 236.539C145.37 237.774 145.914 238.932 146.812 239.782C147.711 240.632 148.897 241.112 150.133 241.125H159.822C160.415 241.131 161.002 241.015 161.546 240.783C162.091 240.552 162.583 240.21 162.989 239.779C163.395 239.348 163.708 238.838 163.908 238.28C164.107 237.723 164.189 237.13 164.148 236.539L163.567 226.85C163.485 225.622 162.944 224.469 162.052 223.619C161.16 222.77 159.981 222.287 158.75 222.265Z" fill="#D68029"></path><path opacity="0.4" d="M183.606 222.265H173.908C173.316 222.259 172.73 222.375 172.185 222.607C171.641 222.838 171.15 223.181 170.744 223.611C170.339 224.042 170.027 224.553 169.828 225.11C169.63 225.668 169.549 226.26 169.591 226.85L170.136 236.539C170.219 237.773 170.764 238.93 171.662 239.779C172.559 240.629 173.745 241.11 174.981 241.125H184.67C185.262 241.131 185.849 241.015 186.394 240.783C186.939 240.552 187.43 240.21 187.836 239.779C188.242 239.348 188.555 238.838 188.755 238.28C188.954 237.723 189.036 237.13 188.996 236.539L188.441 226.85C188.361 225.618 187.818 224.461 186.921 223.611C186.025 222.761 184.841 222.281 183.606 222.265Z" fill="#D68029"></path><path opacity="0.2" d="M194.664 212.728C194.501 212.727 194.34 212.759 194.19 212.822C194.041 212.886 193.906 212.98 193.794 213.098C193.683 213.217 193.597 213.357 193.542 213.51C193.487 213.663 193.464 213.826 193.475 213.988C193.498 214.328 193.648 214.646 193.894 214.879C194.141 215.113 194.467 215.245 194.807 215.249C194.97 215.252 195.132 215.221 195.283 215.157C195.433 215.094 195.568 215 195.68 214.881C195.792 214.763 195.878 214.622 195.932 214.468C195.987 214.315 196.008 214.151 195.996 213.988C195.973 213.649 195.824 213.331 195.577 213.097C195.33 212.864 195.004 212.732 194.664 212.728Z" fill="#D68029"></path><path opacity="0.2" d="M202.708 212.728C202.545 212.727 202.383 212.759 202.233 212.822C202.083 212.886 201.947 212.98 201.835 213.098C201.723 213.216 201.636 213.356 201.58 213.509C201.524 213.663 201.5 213.826 201.51 213.988C201.535 214.328 201.686 214.647 201.934 214.88C202.183 215.114 202.51 215.245 202.851 215.249C203.013 215.25 203.175 215.218 203.324 215.155C203.474 215.091 203.609 214.997 203.721 214.879C203.832 214.76 203.918 214.62 203.973 214.467C204.028 214.314 204.051 214.151 204.039 213.988C204.017 213.649 203.867 213.331 203.62 213.097C203.374 212.864 203.048 212.732 202.708 212.728Z" fill="#D68029"></path><path opacity="0.2" d="M178.584 212.728C178.421 212.727 178.26 212.759 178.11 212.822C177.961 212.886 177.826 212.98 177.714 213.098C177.603 213.217 177.517 213.357 177.462 213.51C177.407 213.663 177.384 213.826 177.395 213.988C177.418 214.328 177.567 214.646 177.814 214.879C178.061 215.113 178.387 215.245 178.727 215.249C178.89 215.252 179.052 215.221 179.202 215.157C179.353 215.094 179.488 215 179.6 214.881C179.712 214.763 179.798 214.622 179.852 214.468C179.907 214.315 179.928 214.151 179.916 213.988C179.893 213.649 179.744 213.331 179.497 213.097C179.25 212.864 178.924 212.732 178.584 212.728Z" fill="#D68029"></path><path opacity="0.4" d="M186.628 212.728C186.465 212.727 186.303 212.759 186.153 212.822C186.003 212.886 185.867 212.98 185.755 213.098C185.642 213.216 185.556 213.356 185.5 213.509C185.444 213.663 185.42 213.826 185.43 213.988C185.455 214.328 185.606 214.647 185.854 214.88C186.103 215.114 186.43 215.245 186.771 215.249C186.933 215.25 187.095 215.218 187.244 215.155C187.394 215.091 187.529 214.997 187.641 214.879C187.752 214.76 187.838 214.62 187.893 214.467C187.948 214.314 187.97 214.151 187.959 213.988C187.937 213.649 187.787 213.331 187.54 213.097C187.293 212.864 186.967 212.732 186.628 212.728Z" fill="#D68029"></path><path d="M143.296 84.8142C143.347 85.5716 143.682 86.2819 144.234 86.8036C144.785 87.3253 145.513 87.6202 146.272 87.6297C146.638 87.6381 147.002 87.57 147.34 87.4297C147.678 87.2894 147.983 87.0799 148.236 86.8149C148.488 86.5498 148.682 86.2349 148.806 85.8904C148.93 85.5459 148.98 85.1793 148.954 84.8142C148.902 84.0568 148.567 83.3465 148.016 82.8248C147.464 82.3031 146.736 82.0082 145.977 81.9987C145.611 81.9903 145.248 82.0584 144.91 82.1987C144.571 82.339 144.266 82.5484 144.014 82.8135C143.762 83.0786 143.567 83.3935 143.444 83.738C143.32 84.0825 143.27 84.4491 143.296 84.8142Z" fill="white"></path><path d="M207.552 89.033C203.157 88.9759 198.945 87.2673 195.752 84.2467C192.559 81.2261 190.62 77.1147 190.319 72.7298C190.175 70.629 190.467 68.521 191.176 66.5384C191.886 64.5558 192.998 62.7415 194.443 61.2094C195.888 59.6774 197.634 58.4608 199.571 57.6362C201.509 56.8115 203.596 56.3967 205.702 56.4177C210.096 56.4771 214.308 58.188 217.499 61.2102C220.69 64.2325 222.627 68.3448 222.926 72.7298C223.07 74.8294 222.778 76.9363 222.069 78.9178C221.36 80.8993 220.248 82.7126 218.804 84.2438C217.361 85.775 215.616 86.991 213.679 87.8152C211.742 88.6393 209.656 89.054 207.552 89.033ZM205.764 57.2042C203.76 57.1834 201.773 57.5777 199.928 58.3623C198.084 59.1469 196.422 60.3048 195.046 61.7631C193.671 63.2214 192.613 64.9487 191.938 66.836C191.262 68.7234 190.985 70.7301 191.124 72.7298C191.408 76.9036 193.254 80.8173 196.293 83.6924C199.332 86.5675 203.342 88.1933 207.525 88.2464C209.528 88.2672 211.514 87.8732 213.358 87.089C215.201 86.3049 216.862 85.1477 218.237 83.6902C219.611 82.2327 220.669 80.5064 221.344 78.6201C222.018 76.7339 222.295 74.7283 222.157 72.7298C221.876 68.5521 220.031 64.6338 216.989 61.7562C213.948 58.8786 209.933 57.2533 205.746 57.2042H205.764Z" fill="white"></path><path d="M206.649 73.1141C206.593 73.1274 206.535 73.1274 206.479 73.1141L200.651 70.4327C200.554 70.3893 200.477 70.3108 200.436 70.213C200.394 70.1151 200.391 70.0052 200.428 69.9053C200.448 69.8588 200.477 69.8168 200.514 69.7819C200.551 69.7471 200.595 69.72 200.642 69.7025C200.69 69.685 200.741 69.6773 200.791 69.6798C200.842 69.6824 200.892 69.6953 200.937 69.7176L206.541 72.2739L213.102 66.6697C213.183 66.5998 213.288 66.5647 213.394 66.5723C213.501 66.5798 213.6 66.6293 213.67 66.7099C213.74 66.7905 213.775 66.8956 213.767 67.002C213.759 67.1085 213.71 67.2076 213.629 67.2775L206.89 73.0426C206.82 73.0922 206.735 73.1174 206.649 73.1141Z" fill="white"></path><path d="M171.612 65.7402C171.394 65.7368 171.183 65.6683 171.004 65.5435L169.002 64.1492C168.964 64.1187 168.917 64.1021 168.868 64.1021C168.819 64.1021 168.772 64.1187 168.734 64.1492L166.893 65.5435C166.719 65.67 166.509 65.7381 166.294 65.7381C166.079 65.7381 165.869 65.67 165.695 65.5435C165.515 65.4195 165.377 65.2437 165.298 65.0395C165.22 64.8352 165.206 64.6121 165.257 64.3994L165.865 62.147C165.876 62.0989 165.872 62.0487 165.855 62.0026C165.837 61.9564 165.807 61.9165 165.766 61.8878L163.773 60.4935C163.59 60.3745 163.449 60.2007 163.37 59.9969C163.292 59.793 163.279 59.5695 163.335 59.3583C163.386 59.1589 163.501 58.9817 163.663 58.8541C163.824 58.7266 164.023 58.6556 164.229 58.6522H166.598C166.646 58.6522 166.693 58.6365 166.732 58.6075C166.77 58.5785 166.799 58.5377 166.812 58.4913L167.411 56.2389C167.462 56.0395 167.577 55.8623 167.739 55.7347C167.9 55.6071 168.099 55.5362 168.305 55.5328C168.525 55.5324 168.741 55.5999 168.921 55.7263C169.102 55.8527 169.24 56.0316 169.315 56.2389L170.209 58.4913C170.228 58.5377 170.26 58.5777 170.301 58.6062C170.342 58.6348 170.391 58.6508 170.441 58.6522H172.81C173.03 58.6518 173.246 58.7194 173.426 58.8457C173.607 58.9721 173.744 59.1511 173.82 59.3583C173.903 59.5544 173.918 59.7725 173.863 59.9781C173.808 60.1837 173.686 60.365 173.516 60.4935L171.675 61.8878C171.636 61.9176 171.61 61.9595 171.598 62.0065C171.587 62.0536 171.592 62.1031 171.612 62.147L172.506 64.3994C172.588 64.597 172.603 64.8161 172.548 65.0229C172.493 65.2297 172.371 65.4126 172.202 65.5435C172.03 65.6679 171.824 65.7365 171.612 65.7402ZM164.31 59.4388C164.261 59.4372 164.213 59.4523 164.174 59.4816C164.135 59.5108 164.107 59.5524 164.095 59.5996C164.083 59.6477 164.086 59.6984 164.103 59.7448C164.121 59.7912 164.152 59.831 164.193 59.8588L166.187 61.2532C166.368 61.374 166.507 61.548 166.586 61.7513C166.664 61.9545 166.678 62.1771 166.625 62.3883L166.026 64.6408C166.01 64.69 166.011 64.7431 166.029 64.7917C166.047 64.8403 166.08 64.8815 166.124 64.9089C166.163 64.9379 166.21 64.9536 166.258 64.9536C166.306 64.9536 166.353 64.9379 166.392 64.9089L168.233 63.5146C168.407 63.3881 168.617 63.32 168.832 63.32C169.047 63.32 169.257 63.3881 169.431 63.5146L171.424 64.9089C171.464 64.9387 171.513 64.9547 171.563 64.9547C171.613 64.9547 171.661 64.9387 171.701 64.9089C171.741 64.8779 171.769 64.835 171.782 64.7867C171.794 64.7384 171.791 64.6872 171.773 64.6408L170.879 62.3883C170.798 62.1921 170.783 61.9744 170.838 61.7692C170.893 61.564 171.014 61.3826 171.183 61.2532L172.971 59.8588C173.012 59.8314 173.042 59.7901 173.055 59.7426C173.068 59.695 173.063 59.6442 173.042 59.5996C173.026 59.551 172.995 59.5089 172.953 59.4798C172.911 59.4507 172.861 59.4363 172.81 59.4388H170.441C170.222 59.4354 170.008 59.3664 169.828 59.2405C169.648 59.1147 169.51 58.9378 169.431 58.7326L168.537 56.4802C168.52 56.4324 168.489 56.3911 168.447 56.3622C168.405 56.3333 168.356 56.3183 168.305 56.3193C168.257 56.3182 168.211 56.3336 168.173 56.363C168.136 56.3923 168.11 56.4338 168.099 56.4802L167.492 58.7326C167.439 58.9313 167.324 59.1077 167.163 59.235C167.001 59.3624 166.803 59.4339 166.598 59.4388H164.31Z" fill="white"></path><path d="M147.596 66.3301H142.064C141.692 66.3264 141.336 66.1826 141.065 65.9274C140.795 65.6722 140.632 65.3244 140.607 64.9536L140.294 59.4119C140.29 59.3616 140.297 59.3111 140.314 59.2635C140.331 59.2158 140.357 59.1722 140.391 59.1353C140.426 59.0984 140.467 59.069 140.514 59.0489C140.56 59.0288 140.61 59.0185 140.66 59.0187H142.216C142.393 59.0203 142.569 58.9852 142.733 58.9156C142.896 58.8459 143.043 58.7432 143.165 58.6139C143.287 58.4847 143.38 58.3316 143.44 58.1643C143.5 57.9971 143.524 57.8193 143.512 57.6422L143.431 56.0869C143.428 56.0366 143.434 55.9861 143.451 55.9385C143.468 55.8909 143.494 55.8472 143.529 55.8103C143.563 55.7734 143.605 55.744 143.651 55.7239C143.697 55.7038 143.747 55.6935 143.798 55.6937H146.998C147.368 55.6975 147.724 55.8416 147.992 56.097C148.261 56.3524 148.423 56.7001 148.446 57.0701L148.892 64.9536C148.905 65.1307 148.88 65.3085 148.821 65.4758C148.761 65.643 148.667 65.7961 148.546 65.9254C148.424 66.0546 148.277 66.1573 148.113 66.227C147.95 66.2966 147.774 66.3317 147.596 66.3301ZM141.098 59.8052L141.393 64.9536C141.407 65.1118 141.478 65.2595 141.593 65.3684C141.709 65.4773 141.86 65.5397 142.019 65.5435H147.552C147.628 65.545 147.704 65.5305 147.774 65.5009C147.844 65.4713 147.908 65.4273 147.96 65.3717C148.012 65.3161 148.052 65.2502 148.077 65.1781C148.102 65.1061 148.112 65.0296 148.106 64.9536L147.659 57.0701C147.648 56.9127 147.579 56.7651 147.465 56.656C147.351 56.547 147.2 56.4843 147.042 56.4802H144.236L144.298 57.6422C144.319 57.9211 144.282 58.2013 144.189 58.4649C144.096 58.7286 143.948 58.9699 143.757 59.1735C143.565 59.377 143.333 59.5384 143.075 59.6471C142.817 59.7559 142.54 59.8098 142.26 59.8052H141.098Z" fill="white"></path><path d="M174.08 88.7559H166.438C166.229 88.752 166.029 88.6702 165.877 88.5263C165.724 88.3825 165.631 88.1871 165.616 87.9783C165.612 87.8803 165.627 87.7825 165.661 87.6905C165.694 87.5984 165.746 87.514 165.813 87.442L166.304 86.9147L166.188 84.8768C166.153 84.3889 166.216 83.8989 166.373 83.4357C166.53 82.9725 166.779 82.5454 167.104 82.1798C167.428 81.8141 167.823 81.5171 168.265 81.3064C168.706 81.0957 169.185 80.9755 169.674 80.9529C170.201 80.9325 170.726 81.0168 171.22 81.2009C171.714 81.385 172.167 81.6653 172.552 82.0255C173.34 82.7404 173.818 83.7345 173.884 84.7963L174 86.9236L174.554 87.4331C174.704 87.5763 174.793 87.7713 174.804 87.9783C174.812 88.0778 174.799 88.1777 174.765 88.2718C174.732 88.366 174.68 88.4522 174.612 88.5253C174.544 88.5983 174.462 88.6565 174.37 88.6962C174.279 88.7358 174.18 88.7562 174.08 88.7559ZM169.826 81.7305H169.71C169.319 81.7497 168.937 81.8469 168.584 82.0166C168.232 82.1862 167.918 82.4247 167.659 82.7181C167.401 83.0114 167.204 83.3536 167.08 83.7244C166.957 84.0952 166.908 84.487 166.939 84.8768L167.055 86.9236C167.06 87.023 167.045 87.1224 167.011 87.216C166.978 87.3096 166.926 87.3955 166.858 87.4688L166.367 87.9872H174L173.437 87.4867C173.29 87.3405 173.198 87.1478 173.178 86.9415L173.061 84.8142C173.006 83.9683 172.625 83.1768 171.998 82.6065C171.41 82.052 170.634 81.7393 169.826 81.7305Z" fill="white"></path><path d="M169.146 79.5943C169.155 79.754 169.225 79.9041 169.341 80.0138C169.457 80.1235 169.611 80.1845 169.771 80.1842C169.848 80.1857 169.923 80.1712 169.994 80.1416C170.064 80.112 170.127 80.068 170.18 80.0124C170.232 79.9568 170.272 79.8909 170.297 79.8188C170.322 79.7468 170.332 79.6703 170.326 79.5943C170.314 79.4362 170.243 79.2883 170.127 79.1805C170.011 79.0727 169.858 79.0129 169.7 79.0133C169.624 79.0119 169.549 79.0262 169.48 79.0552C169.41 79.0843 169.347 79.1275 169.295 79.1821C169.243 79.2367 169.203 79.3016 169.177 79.3725C169.151 79.4435 169.141 79.519 169.146 79.5943Z" fill="white"></path><path d="M171.077 89.4799C171.127 89.4793 171.177 89.4905 171.222 89.5125C171.267 89.5345 171.306 89.5668 171.337 89.6068C171.367 89.6468 171.388 89.6933 171.397 89.7426C171.406 89.792 171.404 89.8428 171.39 89.8911C171.318 90.1062 171.18 90.2931 170.995 90.4248C170.81 90.5564 170.589 90.6262 170.362 90.624C170.126 90.6214 169.896 90.5509 169.7 90.4209C169.503 90.2909 169.348 90.1069 169.254 89.8911C169.232 89.8466 169.222 89.7973 169.225 89.7479C169.228 89.6986 169.244 89.6509 169.271 89.6095C169.298 89.568 169.335 89.5343 169.379 89.5116C169.423 89.4889 169.472 89.478 169.522 89.4799H171.077Z" fill="white"></path><path d="M197.041 176.976C196.977 176.974 196.915 176.959 196.858 176.931C196.801 176.904 196.75 176.864 196.71 176.815C196.667 176.748 196.644 176.67 196.644 176.591C196.644 176.512 196.667 176.434 196.71 176.368C197.021 175.834 197.293 175.279 197.523 174.705C196.844 173.828 196.445 172.765 196.379 171.657C196.327 170.968 196.419 170.276 196.649 169.625C196.878 168.973 197.24 168.376 197.713 167.872C198.185 167.368 198.757 166.967 199.392 166.696C200.027 166.424 200.712 166.288 201.403 166.294C202.844 166.312 204.225 166.875 205.268 167.87C206.311 168.865 206.939 170.218 207.025 171.657C207.073 172.343 206.978 173.032 206.747 173.679C206.516 174.327 206.152 174.919 205.68 175.419C205.208 175.919 204.637 176.315 204.004 176.583C203.371 176.851 202.689 176.985 202.001 176.976C200.982 176.971 199.983 176.687 199.114 176.153C198.501 176.503 197.846 176.776 197.166 176.967L197.041 176.976ZM199.052 175.304C199.135 175.301 199.217 175.327 199.284 175.376C200.075 175.912 201.01 176.196 201.966 176.189C202.551 176.195 203.131 176.08 203.669 175.852C204.208 175.623 204.693 175.285 205.094 174.859C205.496 174.433 205.805 173.929 206.002 173.378C206.198 172.827 206.279 172.241 206.238 171.657C206.157 170.437 205.619 169.291 204.731 168.45C203.843 167.608 202.671 167.132 201.447 167.117C200.861 167.11 200.28 167.226 199.74 167.455C199.201 167.684 198.715 168.023 198.312 168.449C197.91 168.876 197.601 169.381 197.403 169.933C197.206 170.485 197.125 171.072 197.166 171.657C197.231 172.671 197.616 173.638 198.265 174.419C198.313 174.471 198.345 174.536 198.358 174.606C198.37 174.675 198.363 174.747 198.337 174.813C198.185 175.206 198.033 175.563 197.89 175.867C198.234 175.719 198.568 175.549 198.891 175.358C198.942 175.338 198.997 175.329 199.052 175.331V175.304Z" fill="white"></path><path d="M167.457 194.432H163.328C162.338 194.417 161.371 194.139 160.524 193.627C159.678 193.115 158.982 192.387 158.51 191.518C158.171 190.91 157.708 190.38 157.151 189.963C155.571 188.779 154.267 187.265 153.328 185.528C152.39 183.79 151.84 181.869 151.717 179.898C151.596 178.172 151.849 176.441 152.458 174.821C153.067 173.202 154.018 171.733 155.247 170.515C156.475 169.296 157.952 168.357 159.576 167.762C161.201 167.166 162.935 166.928 164.659 167.063C167.916 167.314 170.98 168.707 173.311 170.996C175.641 173.286 177.088 176.324 177.396 179.577C177.583 181.52 177.294 183.479 176.554 185.285C175.814 187.091 174.646 188.691 173.151 189.945C172.631 190.368 172.218 190.907 171.944 191.518C171.564 192.39 170.936 193.131 170.138 193.649C169.341 194.167 168.408 194.439 167.457 194.432ZM163.882 167.787C162.318 167.768 160.767 168.074 159.327 168.685C157.887 169.297 156.59 170.2 155.517 171.338C154.445 172.477 153.62 173.825 153.095 175.298C152.57 176.772 152.356 178.338 152.468 179.898C152.583 181.756 153.101 183.566 153.985 185.204C154.869 186.841 156.099 188.267 157.589 189.382C158.235 189.858 158.772 190.468 159.162 191.169C159.569 191.912 160.166 192.535 160.891 192.973C161.616 193.411 162.445 193.649 163.292 193.663H167.421C168.236 193.669 169.034 193.435 169.717 192.992C170.4 192.549 170.938 191.915 171.265 191.169C171.58 190.458 172.058 189.831 172.659 189.337C174.07 188.156 175.172 186.65 175.869 184.948C176.567 183.245 176.84 181.399 176.663 179.568C176.372 176.505 175.009 173.643 172.815 171.487C170.62 169.33 167.736 168.017 164.668 167.778L163.882 167.787Z" fill="white"></path><path d="M168.654 200.617H162.835C162.354 200.611 161.893 200.424 161.545 200.092C161.197 199.76 160.987 199.309 160.958 198.829L160.886 197.578C160.868 197.348 160.897 197.117 160.973 196.9C161.049 196.682 161.169 196.483 161.327 196.314C161.484 196.146 161.675 196.013 161.887 195.922C162.099 195.832 162.327 195.787 162.558 195.79H168.385C168.866 195.798 169.325 195.987 169.673 196.318C170.021 196.649 170.231 197.099 170.262 197.578L170.334 198.829C170.351 199.059 170.321 199.291 170.244 199.508C170.167 199.726 170.046 199.925 169.888 200.093C169.729 200.261 169.538 200.395 169.326 200.485C169.113 200.575 168.884 200.62 168.654 200.617ZM162.602 196.559C162.469 196.558 162.338 196.584 162.215 196.635C162.093 196.687 161.982 196.764 161.891 196.86C161.799 196.957 161.729 197.071 161.684 197.196C161.638 197.321 161.62 197.454 161.628 197.587L161.7 198.838C161.716 199.117 161.837 199.38 162.04 199.572C162.242 199.765 162.511 199.873 162.79 199.875H168.609C168.743 199.877 168.875 199.85 168.998 199.798C169.121 199.746 169.232 199.668 169.324 199.571C169.416 199.473 169.486 199.358 169.531 199.232C169.575 199.106 169.593 198.972 169.583 198.838L169.512 197.587C169.494 197.309 169.371 197.049 169.169 196.858C168.966 196.668 168.699 196.561 168.421 196.559H162.602Z" fill="white"></path><path d="M208.474 201.109H198.204C197.841 201.103 197.494 200.961 197.231 200.711C196.967 200.461 196.808 200.121 196.783 199.759L196.345 191.956C196.333 191.783 196.356 191.609 196.415 191.445C196.473 191.282 196.565 191.132 196.684 191.006C196.804 190.88 196.948 190.78 197.108 190.713C197.268 190.645 197.441 190.612 197.614 190.615H207.875C208.237 190.619 208.585 190.759 208.848 191.007C209.112 191.256 209.272 191.595 209.296 191.956L209.743 199.759C209.754 199.932 209.73 200.106 209.671 200.269C209.612 200.433 209.52 200.582 209.401 200.709C209.282 200.835 209.139 200.936 208.979 201.005C208.82 201.074 208.648 201.109 208.474 201.109ZM197.659 191.402C197.587 191.399 197.514 191.412 197.447 191.439C197.38 191.466 197.32 191.507 197.27 191.56C197.22 191.612 197.182 191.674 197.158 191.743C197.134 191.811 197.125 191.884 197.132 191.956L197.57 199.759C197.579 199.91 197.644 200.052 197.754 200.156C197.863 200.261 198.008 200.32 198.159 200.322H208.429C208.502 200.322 208.573 200.307 208.64 200.279C208.706 200.25 208.766 200.208 208.816 200.155C208.865 200.102 208.903 200.04 208.927 199.972C208.952 199.904 208.962 199.831 208.957 199.759L208.51 191.956C208.501 191.806 208.435 191.665 208.325 191.562C208.215 191.459 208.07 191.401 207.92 191.402H197.659Z" fill="white"></path><path d="M209.001 193.726H196.836C196.73 193.726 196.628 193.685 196.551 193.612C196.475 193.538 196.429 193.438 196.425 193.332C196.421 193.282 196.428 193.231 196.445 193.184C196.461 193.136 196.488 193.093 196.522 193.056C196.557 193.019 196.598 192.989 196.645 192.969C196.691 192.949 196.741 192.939 196.791 192.939H208.956C209.063 192.939 209.166 192.979 209.244 193.052C209.322 193.126 209.369 193.226 209.376 193.332C209.38 193.383 209.373 193.435 209.356 193.483C209.338 193.531 209.311 193.575 209.276 193.612C209.24 193.649 209.198 193.679 209.15 193.698C209.103 193.718 209.052 193.727 209.001 193.726Z" fill="white"></path><path d="M198.83 196.452H200.082C200.127 196.453 200.172 196.445 200.213 196.428C200.255 196.411 200.292 196.384 200.323 196.351C200.353 196.318 200.376 196.279 200.39 196.236C200.404 196.193 200.409 196.148 200.404 196.103V195.549C200.397 195.456 200.356 195.368 200.288 195.304C200.22 195.239 200.131 195.202 200.037 195.2H198.786C198.741 195.2 198.697 195.209 198.656 195.227C198.615 195.245 198.578 195.271 198.548 195.304C198.518 195.337 198.495 195.375 198.48 195.418C198.466 195.46 198.46 195.505 198.464 195.549V196.103C198.469 196.197 198.509 196.286 198.577 196.351C198.646 196.416 198.736 196.452 198.83 196.452Z" fill="white"></path><path d="M202.448 196.452H203.699C203.744 196.453 203.789 196.445 203.83 196.428C203.872 196.411 203.909 196.384 203.94 196.351C203.97 196.318 203.993 196.279 204.007 196.236C204.021 196.193 204.026 196.148 204.021 196.103V195.549C204.014 195.456 203.973 195.368 203.905 195.304C203.837 195.239 203.748 195.202 203.654 195.2H202.403C202.358 195.2 202.314 195.209 202.273 195.227C202.232 195.245 202.196 195.271 202.165 195.304C202.135 195.337 202.112 195.375 202.098 195.418C202.083 195.46 202.077 195.505 202.081 195.549V196.103C202.086 196.197 202.126 196.286 202.195 196.351C202.263 196.416 202.353 196.452 202.448 196.452Z" fill="white"></path><path d="M206.069 196.452H207.365C207.411 196.453 207.456 196.445 207.498 196.428C207.54 196.41 207.577 196.385 207.609 196.352C207.64 196.319 207.664 196.28 207.679 196.237C207.694 196.194 207.7 196.148 207.696 196.103V195.549C207.689 195.456 207.648 195.368 207.58 195.304C207.512 195.239 207.423 195.202 207.329 195.2H206.078C206.034 195.202 205.99 195.212 205.95 195.23C205.91 195.248 205.874 195.274 205.844 195.307C205.814 195.339 205.79 195.377 205.775 195.419C205.76 195.461 205.754 195.505 205.756 195.549V196.103C205.761 196.188 205.795 196.269 205.852 196.332C205.909 196.396 205.985 196.438 206.069 196.452Z" fill="white"></path><path d="M198.972 199.017H200.215C200.259 199.018 200.304 199.01 200.345 198.994C200.386 198.977 200.424 198.952 200.455 198.92C200.486 198.888 200.51 198.85 200.526 198.808C200.541 198.766 200.548 198.722 200.546 198.677V198.114C200.541 198.023 200.501 197.936 200.435 197.873C200.368 197.81 200.28 197.774 200.188 197.775H198.928C198.884 197.775 198.841 197.783 198.8 197.801C198.76 197.818 198.724 197.843 198.694 197.875C198.664 197.907 198.64 197.945 198.625 197.986C198.61 198.027 198.604 198.071 198.606 198.114V198.677C198.615 198.769 198.657 198.854 198.724 198.917C198.792 198.98 198.88 199.015 198.972 199.017Z" fill="white"></path><path d="M202.592 199.017H203.853C203.896 199.017 203.94 199.008 203.98 198.991C204.02 198.974 204.057 198.948 204.087 198.917C204.117 198.885 204.14 198.847 204.155 198.806C204.17 198.765 204.177 198.721 204.174 198.677V198.114C204.17 198.023 204.13 197.936 204.064 197.873C203.997 197.81 203.909 197.774 203.817 197.775H202.557C202.513 197.775 202.469 197.783 202.429 197.801C202.389 197.818 202.353 197.843 202.323 197.875C202.292 197.907 202.269 197.945 202.254 197.986C202.239 198.027 202.232 198.071 202.235 198.114V198.677C202.239 198.769 202.279 198.855 202.346 198.919C202.412 198.982 202.501 199.017 202.592 199.017Z" fill="white"></path><path d="M206.212 199.017H207.472C207.516 199.017 207.559 199.008 207.599 198.991C207.639 198.974 207.676 198.948 207.706 198.917C207.736 198.885 207.759 198.847 207.774 198.806C207.79 198.765 207.796 198.721 207.794 198.677V198.114C207.789 198.023 207.749 197.936 207.683 197.873C207.616 197.81 207.528 197.774 207.436 197.775H206.176C206.132 197.775 206.089 197.783 206.048 197.801C206.008 197.818 205.972 197.843 205.942 197.875C205.912 197.907 205.888 197.945 205.873 197.986C205.858 198.027 205.852 198.071 205.854 198.114V198.677C205.859 198.769 205.898 198.855 205.965 198.919C206.031 198.982 206.12 199.017 206.212 199.017Z" fill="white"></path><path d="M226.618 178.289H224.884C224.612 178.288 224.351 178.184 224.152 177.999C223.954 177.813 223.832 177.56 223.812 177.288L223.74 175.894C223.724 175.763 223.737 175.631 223.778 175.506C223.819 175.38 223.888 175.266 223.978 175.17C224.069 175.075 224.179 175 224.302 174.952C224.425 174.904 224.556 174.884 224.688 174.893H226.422C226.693 174.892 226.955 174.996 227.152 175.182C227.35 175.368 227.469 175.623 227.485 175.894L227.566 177.288C227.582 177.419 227.569 177.552 227.528 177.677C227.487 177.802 227.418 177.916 227.328 178.012C227.237 178.108 227.127 178.182 227.004 178.23C226.881 178.278 226.75 178.298 226.618 178.289ZM224.732 175.68C224.704 175.678 224.676 175.683 224.65 175.693C224.624 175.704 224.6 175.72 224.581 175.74C224.561 175.76 224.546 175.784 224.537 175.811C224.528 175.838 224.524 175.866 224.527 175.894L224.598 177.288C224.605 177.348 224.633 177.402 224.678 177.442C224.722 177.482 224.78 177.503 224.84 177.503H226.574C226.602 177.504 226.63 177.5 226.656 177.489C226.682 177.479 226.706 177.463 226.725 177.443C226.745 177.422 226.76 177.398 226.769 177.371C226.778 177.345 226.782 177.316 226.779 177.288L226.708 175.894C226.701 175.835 226.673 175.78 226.628 175.74C226.584 175.701 226.526 175.679 226.466 175.68H224.732ZM226.886 173.892H224.116C224.009 173.89 223.907 173.849 223.83 173.776C223.752 173.703 223.704 173.605 223.696 173.499V173.222C223.652 172.792 223.688 172.359 223.803 171.943C223.911 171.616 224.081 171.313 224.303 171.05C224.733 170.57 225.199 170.125 225.698 169.718C226.091 169.378 226.118 169.19 226.109 169.137C226.114 169.075 226.105 169.013 226.081 168.955C226.058 168.898 226.022 168.847 225.975 168.806C225.843 168.718 225.686 168.677 225.528 168.69C225.422 168.683 225.316 168.699 225.217 168.738C225.118 168.777 225.029 168.836 224.956 168.913C224.768 169.199 224.674 169.537 224.688 169.879C224.688 169.929 224.677 169.978 224.656 170.023C224.634 170.068 224.602 170.107 224.563 170.138C224.524 170.172 224.478 170.198 224.429 170.213C224.38 170.229 224.328 170.233 224.276 170.227L221.425 169.87C221.323 169.859 221.228 169.809 221.16 169.731C221.092 169.653 221.056 169.553 221.059 169.45C221.055 168.423 221.445 167.435 222.149 166.688C223.049 165.921 224.215 165.542 225.394 165.633C226.386 165.594 227.367 165.846 228.218 166.357C228.692 166.635 229.09 167.025 229.379 167.492C229.667 167.959 229.836 168.49 229.872 169.038C229.896 169.523 229.787 170.005 229.559 170.433C229.186 171.022 228.707 171.537 228.147 171.952C227.838 172.171 227.574 172.447 227.369 172.766C227.271 172.997 227.234 173.249 227.262 173.499C227.271 173.552 227.268 173.608 227.254 173.66C227.239 173.713 227.213 173.762 227.177 173.803C227.141 173.844 227.096 173.876 227.046 173.898C226.995 173.92 226.941 173.93 226.886 173.928V173.892ZM224.464 173.105H226.466C226.479 172.858 226.54 172.615 226.645 172.39C226.895 171.976 227.227 171.618 227.619 171.336C228.103 170.976 228.521 170.534 228.853 170.031C229.022 169.728 229.099 169.384 229.076 169.038C229.054 168.616 228.927 168.205 228.705 167.844C228.483 167.483 228.175 167.184 227.807 166.974C227.089 166.548 226.263 166.339 225.43 166.375C224.949 166.333 224.464 166.386 224.004 166.532C223.544 166.678 223.117 166.913 222.748 167.224C222.241 167.73 221.925 168.397 221.854 169.11L223.928 169.36C223.959 168.98 224.106 168.618 224.348 168.323C224.491 168.172 224.665 168.054 224.858 167.975C225.05 167.897 225.257 167.86 225.465 167.868C225.829 167.847 226.186 167.965 226.466 168.198C226.591 168.313 226.691 168.451 226.761 168.604C226.832 168.757 226.871 168.923 226.877 169.092C226.869 169.329 226.804 169.561 226.687 169.768C226.57 169.975 226.406 170.151 226.207 170.281C225.746 170.666 225.31 171.081 224.902 171.523C224.739 171.725 224.614 171.955 224.536 172.203C224.46 172.509 224.436 172.826 224.464 173.141V173.105Z" fill="white"></path><path d="M227.029 196.479C226.155 196.465 225.317 196.125 224.682 195.524C224.046 194.923 223.659 194.106 223.597 193.234C223.568 192.816 223.627 192.396 223.769 192.001C223.91 191.607 224.132 191.246 224.42 190.941C224.708 190.636 225.056 190.395 225.442 190.231C225.828 190.067 226.243 189.985 226.663 189.989C227.536 190.003 228.372 190.344 229.006 190.945C229.64 191.546 230.026 192.363 230.086 193.234C230.114 193.652 230.056 194.07 229.915 194.464C229.774 194.858 229.553 195.219 229.266 195.524C228.979 195.828 228.632 196.07 228.247 196.235C227.862 196.399 227.448 196.482 227.029 196.479ZM226.698 190.776C226.382 190.774 226.068 190.838 225.777 190.962C225.485 191.087 225.223 191.27 225.006 191.501C224.788 191.732 224.621 192.005 224.514 192.303C224.407 192.601 224.362 192.918 224.383 193.234C224.438 193.892 224.734 194.507 225.214 194.96C225.694 195.414 226.324 195.675 226.984 195.692C227.301 195.694 227.615 195.631 227.906 195.506C228.197 195.381 228.46 195.198 228.677 194.967C228.894 194.736 229.062 194.464 229.169 194.165C229.276 193.867 229.32 193.55 229.299 193.234C229.244 192.571 228.945 191.953 228.459 191.499C227.973 191.045 227.336 190.787 226.672 190.776H226.698Z" fill="white"></path><path d="M231.685 201.725C231.579 201.722 231.478 201.68 231.401 201.607C231.324 201.535 231.275 201.437 231.265 201.332C231.104 198.373 228.029 198.141 227.09 198.141C226.152 198.141 223.113 198.373 223.283 201.332C223.285 201.383 223.277 201.434 223.26 201.481C223.242 201.529 223.215 201.572 223.179 201.609C223.144 201.646 223.102 201.675 223.055 201.695C223.009 201.715 222.958 201.725 222.907 201.725C222.802 201.723 222.701 201.682 222.625 201.609C222.549 201.536 222.503 201.437 222.496 201.332C222.353 198.919 224.141 197.363 227.046 197.363C229.951 197.363 231.917 198.919 232.051 201.332C232.055 201.382 232.048 201.433 232.031 201.481C232.015 201.528 231.988 201.572 231.954 201.609C231.919 201.646 231.878 201.675 231.831 201.695C231.785 201.715 231.735 201.725 231.685 201.725Z" fill="white"></path><path opacity="0.5" d="M221.226 98.3197L141.069 118.565C140.461 118.732 139.894 119.023 139.403 119.42C138.912 119.816 138.508 120.309 138.216 120.869C137.925 121.428 137.751 122.041 137.707 122.671C137.662 123.3 137.748 123.932 137.958 124.526L149.784 162.603C150.152 163.866 150.984 164.942 152.113 165.617C153.242 166.292 154.584 166.514 155.871 166.241L236.028 145.987C236.636 145.821 237.203 145.53 237.693 145.135C238.184 144.739 238.587 144.246 238.878 143.688C239.169 143.129 239.342 142.516 239.385 141.887C239.428 141.258 239.341 140.628 239.13 140.034L227.304 101.949C226.936 100.688 226.105 99.614 224.978 98.9409C223.851 98.2679 222.51 98.046 221.226 98.3197Z" fill="#D68029"></path><path d="M343.071 85.5382L343.733 88.0677C343.938 88.89 344.117 89.7123 344.296 90.5346C344.671 92.1703 344.975 93.8149 345.279 95.4684C345.86 98.7845 346.369 102.127 346.673 105.56C346.834 107.276 346.956 109.019 347.04 110.788C347.123 112.558 347.123 114.376 347.04 116.241C346.988 118.224 346.797 120.201 346.468 122.158C346.072 124.644 345.301 127.055 344.18 129.308L344.117 129.603C343.978 129.879 343.82 130.145 343.643 130.399C342.015 132.645 339.784 134.383 337.208 135.413C335.193 136.187 333.056 136.592 330.897 136.611C329.193 136.634 327.49 136.472 325.821 136.128C324.347 135.827 322.893 135.436 321.468 134.957C318.857 134.045 316.328 132.914 313.906 131.579C312.726 130.935 311.591 130.238 310.465 129.523L308.82 128.397L307.149 127.163C306.283 126.527 305.663 125.613 305.391 124.574C305.119 123.536 305.212 122.435 305.655 121.457C306.098 120.478 306.864 119.682 307.824 119.201C308.785 118.72 309.881 118.584 310.93 118.815L311.385 118.913L314.728 119.637C315.854 119.888 316.99 120.111 318.098 120.325C320.237 120.742 322.397 121.04 324.569 121.219C325.527 121.295 326.487 121.319 327.447 121.291C328.203 121.257 328.954 121.152 329.691 120.978C330.263 120.826 330.585 120.594 330.495 120.504C330.406 120.415 329.923 120.638 329.655 120.906L329.056 121.934C329.011 121.836 329.208 120.942 329.244 119.896C329.306 118.682 329.306 117.464 329.244 116.25C329.172 114.918 329.056 113.568 328.886 112.12C328.716 110.672 328.556 109.26 328.323 107.803C327.867 104.889 327.367 101.922 326.777 98.9543L325.883 94.4853L324.989 90.1324L324.927 89.8106C324.463 87.4322 324.939 84.9666 326.256 82.9325C327.573 80.8984 329.628 79.4544 331.988 78.9043C334.347 78.3543 336.829 78.7411 338.909 79.9834C340.99 81.2256 342.507 83.2265 343.143 85.565L343.071 85.5382Z" fill="#263238"></path><path opacity="0.2" d="M343.071 85.5382L343.733 88.0677C343.938 88.89 344.117 89.7123 344.296 90.5346C344.671 92.1703 344.975 93.8149 345.279 95.4684C345.86 98.7845 346.369 102.127 346.673 105.56C346.834 107.276 346.956 109.019 347.04 110.788C347.123 112.558 347.123 114.376 347.04 116.241C346.988 118.224 346.797 120.201 346.468 122.158C346.072 124.644 345.301 127.055 344.18 129.308L344.117 129.603C343.978 129.879 343.82 130.145 343.643 130.399C342.015 132.645 339.784 134.383 337.208 135.413C335.193 136.187 333.056 136.592 330.897 136.611C329.193 136.634 327.49 136.472 325.821 136.128C324.347 135.827 322.893 135.436 321.468 134.957C318.857 134.045 316.328 132.914 313.906 131.579C312.726 130.935 311.591 130.238 310.465 129.523L308.82 128.397L307.149 127.163C306.283 126.527 305.663 125.613 305.391 124.574C305.119 123.536 305.212 122.435 305.655 121.457C306.098 120.478 306.864 119.682 307.824 119.201C308.785 118.72 309.881 118.584 310.93 118.815L311.385 118.913L314.728 119.637C315.854 119.888 316.99 120.111 318.098 120.325C320.237 120.742 322.397 121.04 324.569 121.219C325.527 121.295 326.487 121.319 327.447 121.291C328.203 121.257 328.954 121.152 329.691 120.978C330.263 120.826 330.585 120.594 330.495 120.504C330.406 120.415 329.923 120.638 329.655 120.906L329.056 121.934C329.011 121.836 329.208 120.942 329.244 119.896C329.306 118.682 329.306 117.464 329.244 116.25C329.172 114.918 329.056 113.568 328.886 112.12C328.716 110.672 328.556 109.26 328.323 107.803C327.867 104.889 327.367 101.922 326.777 98.9543L325.883 94.4853L324.989 90.1324L324.927 89.8106C324.463 87.4322 324.939 84.9666 326.256 82.9325C327.573 80.8984 329.628 79.4544 331.988 78.9043C334.347 78.3543 336.829 78.7411 338.909 79.9834C340.99 81.2256 342.507 83.2265 343.143 85.565L343.071 85.5382Z" fill="black"></path><path d="M353.547 318.717C353.547 318.717 360.813 311.414 360.527 308.992L367.392 305.095L371.861 312.129L368.071 314.471L367.007 314.194L366.346 315.445C362.923 317.394 356.282 320.478 353.609 320.496C353.437 320.233 353.34 319.929 353.329 319.615C353.318 319.301 353.393 318.991 353.547 318.717Z" fill="#263238"></path><path d="M346.934 228.477C341.821 191.831 343.493 169.602 338.121 151.555L304.871 148.874C304.871 148.874 319.61 206.972 326.367 231.159C333.125 255.345 359.063 310.637 359.063 310.637L368.1 305.497C368.1 305.497 355.935 256.802 346.934 228.477Z" fill="#D68029"></path><path opacity="0.2" d="M319.815 175.965C322.076 181.194 326.492 214.775 326.474 231.543L326.367 231.168C323.989 222.667 320.628 209.966 317.268 197.086L319.815 175.965Z" fill="black"></path><path d="M294.116 319.915C294.116 319.915 307.908 316.786 308.542 314.552H317.302L318.026 322.891H313.163L312.27 322.122L311.188 322.891C307.255 322.891 295.886 322.891 293.437 321.461C293.401 320.192 294.116 319.915 294.116 319.915Z" fill="#263238"></path><path d="M317.474 229.505C324.776 179.889 324.776 149.169 324.776 149.169L292.277 148.642C292.277 148.642 296.192 207.812 297.551 232.598C298.954 258.366 306.998 315.088 306.998 315.088H318.341C318.341 315.088 320.879 261.37 317.474 229.505Z" fill="#D68029"></path><path d="M321.002 56.0154C322.512 62.5671 323.683 70.969 325.533 75.8045C322.244 78.8614 316.926 82.6422 309.838 82.5439C302.75 82.4456 304.037 77.6458 305.941 75.1699C311.027 72.6047 311.224 70.0126 309.981 67.7423L321.002 56.0154Z" fill="#FFC3BD"></path><path d="M333.159 77.181C333.159 77.181 328.636 71.8628 326.849 70.9689C325.061 70.0751 311.538 71.8628 308.347 72.5063C305.156 73.1499 301.268 77.8692 301.268 77.8692L333.159 77.181Z" fill="#D68029"></path><path d="M298.603 55.2021C298.746 55.8456 298.522 56.4356 298.102 56.5249C297.682 56.6143 297.208 56.1674 297.083 55.5239C296.958 54.8803 297.164 54.2904 297.584 54.201C298.004 54.1116 298.46 54.5228 298.603 55.2021Z" fill="#263238"></path><path d="M297.468 58.9918C295.815 58.9918 294.161 57.2936 293.634 54.925C293.263 53.5139 293.455 52.0139 294.17 50.7419C294.353 50.4329 294.596 50.1637 294.884 49.9503C295.173 49.7369 295.501 49.5836 295.85 49.4995C297.638 49.1062 299.605 50.9028 300.185 53.5038C300.556 54.9179 300.364 56.4205 299.649 57.6958C299.467 58.0048 299.224 58.274 298.935 58.4874C298.646 58.7009 298.318 58.8541 297.969 58.9382C297.804 58.9737 297.637 58.9917 297.468 58.9918ZM296.36 49.9196C295.993 49.9218 295.634 50.0226 295.319 50.2113C295.005 50.3999 294.747 50.6697 294.572 50.9922C293.928 52.1588 293.758 53.5291 294.099 54.8177C294.626 57.1685 296.315 58.8041 297.862 58.4734C298.151 58.4043 298.423 58.2766 298.662 58.0983C298.9 57.92 299.099 57.6948 299.247 57.4366C299.892 56.27 300.061 54.8997 299.721 53.6111C299.238 51.5017 297.79 49.9554 296.36 49.9554V49.9196Z" fill="#263238"></path><path d="M298.845 56.0869C298.517 58.2088 297.898 60.2752 297.004 62.2275C298.38 63.0408 300.204 62.1381 300.204 62.1381L298.845 56.0869Z" fill="#ED847E"></path><path d="M296.388 51.5106C296.442 51.5411 296.504 51.5572 296.566 51.5572C296.629 51.5572 296.691 51.5411 296.745 51.5106C297.182 51.3025 297.662 51.202 298.146 51.2175C298.63 51.2331 299.102 51.3642 299.525 51.6C299.566 51.6282 299.613 51.6479 299.662 51.6578C299.711 51.6677 299.762 51.6677 299.811 51.6577C299.86 51.6477 299.907 51.628 299.948 51.5996C299.99 51.5713 300.025 51.5349 300.052 51.4927C300.081 51.4506 300.101 51.4032 300.111 51.3533C300.121 51.3034 300.121 51.2521 300.111 51.2022C300.101 51.1523 300.081 51.1049 300.053 51.0627C300.024 51.0205 299.988 50.9844 299.945 50.9564C299.417 50.6486 298.823 50.4731 298.213 50.4451C297.603 50.4171 296.995 50.5373 296.441 50.7955C296.395 50.8159 296.353 50.8453 296.318 50.8819C296.282 50.9186 296.255 50.9619 296.237 51.0093C296.218 51.0567 296.21 51.1072 296.211 51.1579C296.212 51.2087 296.224 51.2587 296.245 51.305C296.264 51.3893 296.316 51.4628 296.388 51.5106Z" fill="#263238"></path><path d="M319.876 48.6772C321.154 56.65 322.316 61.2532 319.233 66.1513C314.603 73.5163 304.038 72.0147 300.4 64.5603C297.111 57.8567 295.564 45.9421 302.59 41.1513C304.146 40.0899 305.945 39.4405 307.82 39.2637C309.695 39.0869 311.585 39.3885 313.311 40.1403C315.038 40.8921 316.546 42.0695 317.694 43.5625C318.842 45.0555 319.593 46.8152 319.876 48.6772Z" fill="#FFC3BD"></path><path d="M306.353 56.8467C304.001 56.8068 301.693 56.1932 299.632 55.0591C299.371 52.4134 299.458 49.7449 299.891 47.122C298.461 47.6761 293 49.1241 292.74 43.5914C295.046 45.531 298.818 42.5546 297.335 41.5892C295.851 40.6239 292.159 39.6497 292.624 37.719C294.51 39.6497 298.443 39.5067 299.31 38.3626C297.924 36.0118 296.074 36.8878 296.074 36.8878C296.074 36.8878 298.943 33.1963 304.61 36.1459C302.581 33.1069 306.872 31.4891 306.872 31.4891C306.872 31.4891 305.352 34.0276 307.837 34.3046C310.322 34.5817 319.787 33.1248 318.402 37.4688C322.093 36.1906 326.392 40.4899 324.864 46.4069C323.336 52.324 324.086 64.2832 322.433 64.6139C313.629 66.196 307.971 61.7805 306.353 56.8467Z" fill="#263238"></path><path d="M305.281 55.6043L293.867 55.1484C293.804 55.1439 293.745 55.1156 293.702 55.0691C293.659 55.0227 293.635 54.9616 293.635 54.8982C293.639 54.8373 293.667 54.7804 293.711 54.739C293.756 54.6975 293.815 54.6745 293.876 54.6747L305.29 55.1306C305.345 55.1413 305.395 55.1708 305.43 55.214C305.466 55.2572 305.485 55.3114 305.485 55.3674C305.485 55.4234 305.466 55.4776 305.43 55.5209C305.395 55.5641 305.345 55.5936 305.29 55.6043H305.281Z" fill="#263238"></path><path d="M316.311 37.9157C319.376 37.3794 319.886 32.8477 317.785 32.1684C322.952 32.5349 321.629 39.1134 316.311 37.9157Z" fill="#263238"></path><path d="M309.061 55.497C309.338 57.1958 308.961 58.9365 308.006 60.3683C306.746 62.156 304.797 61.0387 304.038 58.8846C303.358 56.954 303.197 53.7005 304.994 52.7262C306.79 51.752 308.721 53.3161 309.061 55.497Z" fill="#FFC3BD"></path><path d="M332.703 76.2872C321.709 74.9375 306.112 75.0537 295.761 76.8592C293.201 77.3191 290.866 78.614 289.119 80.5415C287.373 82.469 286.314 84.9207 286.108 87.5135C284.821 103.307 288.316 130.908 291.337 158.697C315.694 166.866 340.417 158.581 340.417 158.581C340.962 152.977 337.941 134.609 336.055 124.804C337.44 114.686 340.953 103.093 342.928 89.6408C343.153 88.0899 343.065 86.5098 342.67 84.9933C342.275 83.4769 341.581 82.0547 340.628 80.8105C339.675 79.5663 338.483 78.5252 337.122 77.7484C335.761 76.9716 334.259 76.4748 332.703 76.2872Z" fill="#263238"></path><path opacity="0.2" d="M299.623 98.4002C297.961 107.91 292.696 119.244 287.879 126.743C287.217 120.174 286.663 113.917 286.314 108.143L299.623 98.4002Z" fill="black"></path><path d="M155.388 150.778L241.641 138.452C242.25 138.367 242.834 138.158 243.358 137.838C243.882 137.517 244.334 137.092 244.687 136.588C245.039 136.085 245.284 135.515 245.406 134.913C245.528 134.311 245.524 133.69 245.395 133.089L237.101 91.8574C236.833 90.6078 236.106 89.5044 235.063 88.766C234.02 88.0276 232.737 87.7082 231.47 87.871L145.217 100.197C144.608 100.281 144.024 100.491 143.5 100.811C142.976 101.132 142.523 101.557 142.171 102.06C141.819 102.564 141.574 103.134 141.452 103.736C141.33 104.338 141.334 104.959 141.462 105.56L149.757 146.782C150.021 148.035 150.747 149.142 151.791 149.882C152.834 150.623 154.119 150.942 155.388 150.778Z" fill="white"></path><path opacity="0.2" d="M155.388 150.778L241.641 138.452C242.25 138.367 242.834 138.158 243.358 137.838C243.882 137.517 244.334 137.092 244.687 136.588C245.039 136.085 245.284 135.515 245.406 134.913C245.528 134.311 245.524 133.69 245.395 133.089L237.101 91.8574C236.833 90.6078 236.106 89.5044 235.063 88.766C234.02 88.0276 232.737 87.7082 231.47 87.871L145.217 100.197C144.608 100.281 144.024 100.491 143.5 100.811C142.976 101.132 142.523 101.557 142.171 102.06C141.819 102.564 141.574 103.134 141.452 103.736C141.33 104.338 141.334 104.959 141.462 105.56L149.757 146.782C150.021 148.035 150.747 149.142 151.791 149.882C152.834 150.623 154.119 150.942 155.388 150.778Z" fill="#D68029"></path><path d="M226.286 105.685L157.06 115.57C155.999 115.708 154.926 115.442 154.053 114.824C153.18 114.206 152.572 113.282 152.349 112.236C152.24 111.735 152.235 111.216 152.336 110.713C152.438 110.21 152.642 109.733 152.937 109.313C153.232 108.893 153.611 108.539 154.05 108.273C154.488 108.007 154.978 107.835 155.486 107.767L224.721 97.8818C225.781 97.7413 226.854 98.0057 227.728 98.622C228.601 99.2384 229.209 100.161 229.432 101.207C229.543 101.709 229.548 102.23 229.447 102.734C229.346 103.239 229.141 103.717 228.845 104.139C228.549 104.56 228.168 104.915 227.728 105.181C227.287 105.447 226.796 105.619 226.286 105.685ZM155.674 108.527C155.266 108.581 154.874 108.719 154.522 108.931C154.169 109.144 153.865 109.426 153.626 109.762C153.388 110.097 153.222 110.478 153.137 110.881C153.053 111.284 153.052 111.699 153.136 112.102C153.317 112.946 153.81 113.691 154.515 114.188C155.221 114.685 156.088 114.897 156.943 114.784L226.134 104.943C226.541 104.888 226.933 104.749 227.284 104.536C227.636 104.324 227.94 104.041 228.178 103.706C228.416 103.371 228.583 102.99 228.668 102.588C228.753 102.186 228.754 101.77 228.672 101.368C228.489 100.525 227.996 99.7816 227.291 99.285C226.586 98.7884 225.72 98.5747 224.864 98.6862L155.674 108.527Z" fill="white"></path><path d="M228.815 118.297L159.589 128.182C158.529 128.323 157.456 128.058 156.583 127.442C155.71 126.825 155.101 125.902 154.878 124.857C154.769 124.356 154.765 123.837 154.866 123.334C154.967 122.831 155.171 122.354 155.466 121.934C155.761 121.514 156.14 121.16 156.579 120.894C157.018 120.628 157.507 120.455 158.016 120.388L227.251 110.494C228.311 110.356 229.385 110.622 230.258 111.24C231.13 111.858 231.739 112.781 231.961 113.827C232.071 114.329 232.075 114.849 231.973 115.352C231.871 115.856 231.666 116.333 231.37 116.753C231.074 117.174 230.694 117.528 230.255 117.793C229.815 118.059 229.324 118.23 228.815 118.297ZM158.203 121.139C157.796 121.193 157.403 121.331 157.051 121.543C156.699 121.755 156.394 122.038 156.156 122.374C155.917 122.709 155.751 123.09 155.667 123.493C155.582 123.895 155.582 124.311 155.665 124.714C155.848 125.557 156.341 126.3 157.046 126.797C157.752 127.293 158.617 127.507 159.473 127.396L228.708 117.501C229.115 117.446 229.507 117.307 229.858 117.094C230.21 116.882 230.514 116.599 230.752 116.264C230.99 115.929 231.157 115.548 231.242 115.146C231.327 114.744 231.328 114.329 231.246 113.926C231.065 113.082 230.572 112.337 229.867 111.84C229.161 111.344 228.294 111.131 227.438 111.244L158.203 121.139Z" fill="white"></path><path d="M231.353 130.846L187.217 137.147C186.175 137.283 185.121 137.021 184.263 136.415C183.405 135.809 182.807 134.903 182.587 133.876C182.483 133.383 182.481 132.875 182.583 132.382C182.685 131.889 182.887 131.422 183.177 131.011C183.468 130.6 183.84 130.253 184.27 129.992C184.701 129.732 185.181 129.563 185.679 129.496L229.816 123.239C230.857 123.102 231.911 123.363 232.768 123.969C233.625 124.576 234.221 125.483 234.437 126.511C234.536 126.999 234.533 127.503 234.429 127.991C234.326 128.478 234.123 128.94 233.834 129.346C233.545 129.752 233.176 130.095 232.749 130.353C232.323 130.611 231.847 130.779 231.353 130.846ZM185.769 130.104C185.35 130.16 184.946 130.302 184.585 130.521C184.223 130.74 183.911 131.032 183.667 131.378C183.424 131.724 183.255 132.116 183.17 132.531C183.086 132.945 183.088 133.373 183.177 133.786C183.358 134.651 183.86 135.415 184.581 135.925C185.302 136.436 186.189 136.655 187.065 136.539L231.202 130.283C231.621 130.227 232.024 130.084 232.386 129.865C232.748 129.646 233.061 129.355 233.306 129.009C233.55 128.663 233.72 128.271 233.805 127.856C233.891 127.442 233.89 127.014 233.803 126.6C233.619 125.735 233.116 124.971 232.393 124.46C231.671 123.95 230.782 123.731 229.905 123.847L185.769 130.104Z" fill="white"></path><path d="M237.672 108.277L240.085 107.383C240.533 107.209 241.016 107.144 241.493 107.196C241.971 107.247 242.429 107.412 242.829 107.678L246.619 110.181C247.365 110.671 247.982 111.332 248.421 112.11C248.859 112.887 249.106 113.758 249.14 114.65V115.776C245.243 117.564 239.692 116.67 239.692 116.67L238.083 116.589C237.752 116.581 237.425 116.508 237.122 116.373C236.82 116.238 236.546 116.044 236.319 115.803C236.091 115.562 235.913 115.279 235.796 114.969C235.678 114.659 235.623 114.329 235.634 113.997L235.759 110.806C235.795 110.244 235.996 109.704 236.336 109.254C236.676 108.805 237.14 108.465 237.672 108.277Z" fill="#FFC3BD"></path><path d="M304.719 91.053L303.691 93.4574C303.351 94.235 302.993 94.9948 302.636 95.7545C301.93 97.274 301.17 98.7667 300.401 100.268C298.828 103.245 297.193 106.203 295.333 109.108C294.41 110.562 293.445 112.016 292.437 113.47C291.401 114.909 290.301 116.348 289.104 117.787C287.855 119.326 286.499 120.775 285.046 122.122C283.207 123.858 281.116 125.305 278.843 126.412L278.476 126.591C278.24 126.704 277.995 126.797 277.743 126.868C274.314 127.758 270.73 127.874 267.25 127.208C264.442 126.701 261.693 125.91 259.045 124.848C256.585 123.857 254.196 122.698 251.894 121.38C250.759 120.737 249.659 120.048 248.578 119.342C247.496 118.636 246.477 117.894 245.351 117.027C244.506 116.376 243.906 115.456 243.652 114.419C243.397 113.382 243.502 112.29 243.95 111.32C244.398 110.351 245.161 109.563 246.116 109.085C247.07 108.606 248.159 108.466 249.204 108.688L249.561 108.76L252.868 109.475C253.986 109.734 255.112 109.957 256.22 110.181C258.446 110.619 260.627 111.003 262.745 111.253C263.8 111.378 264.836 111.495 265.838 111.557C266.839 111.62 267.795 111.611 268.68 111.557C269.986 111.584 271.282 111.315 272.47 110.771L271.361 111.226C271.361 111.119 272.094 110.529 272.756 109.725C273.547 108.795 274.289 107.826 274.981 106.82C275.732 105.729 276.483 104.568 277.216 103.334C277.949 102.101 278.7 100.867 279.406 99.58C280.827 96.988 282.239 94.3333 283.589 91.6251L285.609 87.5403L287.557 83.536L287.7 83.25C288.83 81.1626 290.71 79.5823 292.961 78.8291C295.212 78.076 297.665 78.2062 299.823 79.1934C301.982 80.1805 303.684 81.951 304.586 84.1462C305.489 86.3415 305.523 88.7976 304.683 91.0173L304.719 91.053Z" fill="#263238"></path><path d="M93.6107 232.66L92.6096 232.267C97.7133 219.289 92.7526 197.408 87.4881 174.285C81.6872 148.722 75.6808 122.292 83.5553 106.793L84.5027 107.276C76.807 122.471 82.7687 148.668 88.5338 174.053C93.852 197.355 98.8306 219.369 93.6107 232.66Z" fill="#D68029"></path><path d="M86.3802 104.416C86.3802 108.608 85.0574 110.011 83.4128 110.011C81.7682 110.011 80.4453 108.608 80.4453 104.416C80.4453 100.224 83.4128 94.8339 83.4128 94.8339C83.4128 94.8339 86.3802 100.224 86.3802 104.416Z" fill="#D68029"></path><path d="M87.8107 127.816C84.9416 131.391 82.85 131.668 81.4557 130.551C80.0613 129.433 79.8915 127.315 82.7607 123.758C85.6298 120.2 91.8508 117.635 91.8508 117.635C91.8508 117.635 90.6799 124.24 87.8107 127.816Z" fill="#D68029"></path><path d="M94.4961 162.925C91.1175 167.126 88.6506 167.465 87.0059 166.142C85.3613 164.82 85.1647 162.335 88.5523 158.098C91.9398 153.861 99.278 150.885 99.278 150.885C99.278 150.885 97.8837 158.724 94.4961 162.925Z" fill="#D68029"></path><path d="M103.031 208.134C99.3931 212.12 96.9083 212.299 95.353 210.878C93.7978 209.457 93.7442 206.963 97.382 202.986C101.02 199.008 108.519 196.443 108.519 196.443C108.519 196.443 106.66 204.148 103.031 208.134Z" fill="#D68029"></path><path d="M78.3803 140.812C82.0986 143.493 82.5008 145.549 81.455 147.006C80.4092 148.463 78.3177 148.74 74.5994 146.112C70.8812 143.484 67.9941 137.379 67.9941 137.379C67.9941 137.379 74.662 138.139 78.3803 140.812Z" fill="#D68029"></path><path d="M86.7031 182.919C91.7353 186.495 92.2716 189.337 90.8594 191.303C89.4471 193.27 86.6227 193.654 81.5905 190.043C76.5583 186.432 72.6523 178.227 72.6523 178.227C72.6523 178.227 81.6441 179.308 86.7031 182.919Z" fill="#D68029"></path><path d="M82.7071 227.074L90.0185 321.506C90.0477 321.879 90.2165 322.229 90.4915 322.484C90.7664 322.739 91.1272 322.881 91.5023 322.882H97.8841C98.2591 322.881 98.6199 322.739 98.8949 322.484C99.1698 322.229 99.3386 321.879 99.3678 321.506L106.679 227.074C106.703 226.774 106.664 226.472 106.565 226.187C106.466 225.903 106.309 225.642 106.104 225.421C105.899 225.2 105.65 225.024 105.374 224.904C105.098 224.784 104.8 224.722 104.498 224.723H84.9148C84.6117 224.72 84.3112 224.78 84.0323 224.898C83.7534 225.017 83.5023 225.193 83.2948 225.414C83.0872 225.635 82.9279 225.896 82.8267 226.182C82.7255 226.468 82.6848 226.772 82.7071 227.074Z" fill="#263238"></path></svg>