<svg xmlns="http://www.w3.org/2000/svg" width="503" height="334" viewBox="0 0 503 334" fill="none"><path d="M482.653 178.322C482.653 178.322 489.773 51.599 382.272 16.7147C274.771 -18.1697 220.665 7.45965 186.492 40.2082C152.32 72.9568 140.929 94.3146 101.773 98.5861C62.6172 102.858 26.309 109.977 7.79889 157.676C-10.7112 205.375 12.7824 243.107 48.3787 266.601C83.9749 290.094 125.267 265.177 158.015 280.127C190.764 295.078 211.41 319.995 278.331 322.843C345.252 325.69 347.387 306.468 381.56 276.568C415.732 246.667 476.246 277.991 482.653 178.322Z" fill="#D68029"></path><path opacity="0.7" d="M482.653 178.322C482.653 178.322 489.773 51.599 382.272 16.7147C274.771 -18.1697 220.665 7.45965 186.492 40.2082C152.32 72.9568 140.929 94.3146 101.773 98.5861C62.6172 102.858 26.309 109.977 7.79889 157.676C-10.7112 205.375 12.7824 243.107 48.3787 266.601C83.9749 290.094 125.267 265.177 158.015 280.127C190.764 295.078 211.41 319.995 278.331 322.843C345.252 325.69 347.387 306.468 381.56 276.568C415.732 246.667 476.246 277.991 482.653 178.322Z" fill="white"></path><path d="M405.439 151.717C408.337 152.984 415.406 152.828 415.406 152.828C415.406 152.828 413.882 148.186 413.747 147.901C412.195 144.648 407.269 139.273 403.268 139.814C402.605 139.922 401.973 140.169 401.412 140.538C400.851 140.907 400.375 141.39 400.013 141.955C399.651 142.521 399.412 143.156 399.312 143.82C399.211 144.484 399.252 145.161 399.43 145.808C400.114 148.577 402.962 150.642 405.439 151.717Z" fill="#263238"></path><path d="M407.881 172.292C410.886 172.726 417.215 170.868 417.72 170.747C418.762 174.369 420.044 177.917 421.557 181.369C422.426 183.384 423.366 185.384 424.334 187.378C423.757 186.537 423.238 185.783 423.152 185.683C420.788 182.956 414.609 179.076 410.907 180.65C410.295 180.927 409.748 181.33 409.303 181.833C408.857 182.336 408.522 182.927 408.321 183.568C408.119 184.209 408.055 184.886 408.133 185.553C408.21 186.22 408.428 186.864 408.771 187.442C410.145 189.948 413.434 191.179 416.104 191.571C418.774 191.962 424.234 190.51 425.665 190.104C426.042 190.866 426.413 191.628 426.797 192.389C428.634 196.042 430.478 199.672 432.172 203.289C432.777 204.571 433.318 205.845 433.867 207.119C433.354 206.372 432.913 205.745 432.841 205.653C430.478 202.926 424.298 199.039 420.596 200.619C419.984 200.897 419.437 201.3 418.992 201.803C418.546 202.306 418.212 202.897 418.01 203.538C417.809 204.179 417.745 204.855 417.822 205.522C417.9 206.19 418.117 206.833 418.46 207.411C419.834 209.91 423.124 211.149 425.793 211.54C428.463 211.932 433.397 210.615 435.098 210.116C435.618 211.441 436.145 212.765 436.593 214.068C436.878 214.972 437.213 215.819 437.448 216.737C437.683 217.656 437.953 218.539 438.159 219.421C438.58 221.151 439.014 222.931 439.377 224.618C439.64 225.8 439.861 226.925 440.089 228.057C439.505 226.783 438.316 224.305 438.188 224.113C436.273 221.059 430.763 216.282 426.847 217.278C426.2 217.462 425.599 217.78 425.083 218.212C424.567 218.643 424.148 219.179 423.854 219.784C423.559 220.389 423.396 221.049 423.375 221.722C423.353 222.394 423.474 223.063 423.729 223.686C424.704 226.37 427.772 228.085 430.35 228.876C433.197 229.744 439.462 228.947 440.253 228.876C440.623 230.748 440.964 232.578 441.278 234.315C441.947 238.131 442.459 241.555 442.844 244.453H445.492C445.03 241.455 444.424 237.882 443.627 233.873C443.257 231.965 442.815 229.936 442.346 227.85C444.238 227.097 446.083 226.229 447.87 225.252C449.942 227.495 455.239 230.114 455.922 230.449C455.21 232.222 454.498 233.937 453.786 235.546C452.32 238.921 450.939 241.911 449.7 244.453H452.547C453.608 242.11 454.769 239.469 455.979 236.479C456.691 234.685 457.474 232.749 458.229 230.784C458.99 230.94 465.206 232.207 468.103 231.545C470.73 230.954 473.92 229.467 475.094 226.868C475.392 226.266 475.56 225.609 475.587 224.938C475.613 224.267 475.498 223.598 475.249 222.975C475 222.351 474.622 221.788 474.14 221.32C473.658 220.853 473.083 220.492 472.453 220.261C468.623 218.973 462.778 223.323 460.635 226.227C460.514 226.398 459.346 228.413 458.634 229.694C458.941 228.876 459.247 228.085 459.546 227.238C460.158 225.572 460.72 223.892 461.326 222.091C461.596 221.208 461.859 220.311 462.13 219.414C462.401 218.517 462.607 217.556 462.842 216.616C463.362 214.431 463.782 212.188 464.159 209.917C465.583 210.451 470.83 212.266 473.528 212.053C476.226 211.839 479.594 210.878 481.146 208.493C481.531 207.944 481.796 207.319 481.925 206.66C482.053 206.002 482.041 205.323 481.89 204.669C481.739 204.015 481.452 203.4 481.048 202.864C480.644 202.329 480.131 201.884 479.544 201.559C475.949 199.708 469.513 203.125 466.957 205.667C466.793 205.831 465.17 207.86 464.294 208.992C464.508 207.632 464.729 206.265 464.899 204.877C465.398 200.876 465.775 196.803 466.174 192.774C466.295 191.528 466.43 190.289 466.558 189.051C467.078 189.25 473.222 191.535 476.248 191.322C478.939 191.136 482.306 190.147 483.865 187.762C484.25 187.213 484.515 186.588 484.643 185.93C484.771 185.271 484.758 184.593 484.606 183.939C484.455 183.286 484.167 182.672 483.762 182.137C483.357 181.602 482.844 181.158 482.256 180.835C478.697 178.984 472.232 182.394 469.676 184.943C469.484 185.135 467.142 188.061 466.58 188.837C466.871 186.103 467.185 183.391 467.598 180.721C468.145 177.115 468.922 173.548 469.926 170.042C470.168 170.135 476.575 172.555 479.672 172.335C482.363 172.149 485.73 171.16 487.289 168.775C487.675 168.226 487.94 167.601 488.067 166.943C488.195 166.284 488.183 165.606 488.031 164.952C487.879 164.299 487.591 163.685 487.186 163.15C486.781 162.615 486.268 162.171 485.681 161.848C482.121 159.997 475.657 163.407 473.101 165.956C472.894 166.155 470.381 169.302 469.968 169.907C470.025 169.708 470.061 169.487 470.125 169.287C471.232 165.804 472.648 162.425 474.354 159.192C475.272 157.391 476.255 155.725 477.237 154.123C478.39 154.7 483.644 157.256 486.492 157.37C489.183 157.477 492.643 156.864 494.451 154.665C494.895 154.161 495.228 153.569 495.427 152.928C495.627 152.287 495.69 151.611 495.611 150.944C495.533 150.277 495.315 149.634 494.971 149.057C494.628 148.481 494.167 147.982 493.618 147.595C490.251 145.36 483.474 148.044 480.654 150.293C480.505 150.414 479.081 151.831 478.056 152.878C478.519 152.166 478.974 151.454 479.43 150.742C481.117 148.193 482.819 145.965 484.349 144.007C485.225 142.904 486.036 141.914 486.812 141.003C488.236 141.003 493.932 140.803 496.445 139.629C498.958 138.454 501.67 136.347 502.261 133.563C502.423 132.912 502.446 132.233 502.329 131.573C502.211 130.912 501.956 130.283 501.579 129.727C501.202 129.172 500.712 128.702 500.142 128.349C499.571 127.995 498.933 127.766 498.267 127.675C494.245 127.241 489.475 132.744 488.009 136.041C487.88 136.325 486.407 141.024 486.485 141.024H486.57C485.809 141.885 485.004 142.818 484.143 143.872C482.569 145.801 480.811 148.001 479.06 150.514C477.169 153.163 475.432 155.918 473.855 158.765C472.059 162.003 470.554 165.393 469.356 168.896C469.356 168.939 469.356 168.981 469.356 169.024C469.356 167.842 469.356 164.532 469.292 164.276C468.829 160.716 465.832 154.059 461.859 153.326C461.196 153.221 460.519 153.257 459.87 153.432C459.222 153.607 458.618 153.916 458.098 154.34C457.577 154.764 457.152 155.293 456.849 155.892C456.547 156.491 456.374 157.148 456.342 157.818C456.107 160.666 458.172 163.514 460.179 165.301C462.443 167.33 468.722 169.287 469.242 169.444C468.109 173.039 467.219 176.707 466.58 180.422C466.195 182.558 465.868 184.772 465.583 186.972C465.583 185.947 465.583 185.028 465.526 184.9C465.063 181.34 462.066 174.684 458.093 173.951C457.43 173.846 456.753 173.882 456.104 174.057C455.456 174.231 454.852 174.541 454.332 174.965C453.811 175.388 453.386 175.917 453.083 176.517C452.781 177.116 452.608 177.772 452.576 178.443C452.341 181.291 454.406 184.138 456.413 185.925C458.421 187.712 463.782 189.528 465.198 189.983C465.099 190.823 464.985 191.67 464.885 192.51C464.401 196.568 463.931 200.619 463.355 204.571C463.148 205.994 462.899 207.333 462.643 208.7C462.643 207.788 462.643 207.027 462.593 206.913C462.13 203.353 459.133 196.689 455.16 195.956C454.497 195.853 453.819 195.89 453.171 196.065C452.522 196.241 451.919 196.551 451.398 196.975C450.878 197.4 450.452 197.929 450.15 198.529C449.848 199.128 449.675 199.785 449.643 200.456C449.415 203.303 451.472 206.151 453.487 207.938C455.502 209.725 460.336 211.362 462.03 211.903C461.738 213.327 461.439 214.694 461.091 216.033C460.834 216.937 460.649 217.827 460.336 218.724C460.023 219.621 459.766 220.503 459.482 221.379C458.876 223.052 458.257 224.775 457.624 226.363C457.196 227.487 456.762 228.548 456.328 229.623C456.549 228.199 456.919 225.515 456.926 225.28C456.883 222.108 456.025 218.999 454.434 216.253C454.449 215.898 454.427 215.543 454.37 215.192C454.286 214.527 454.063 213.886 453.715 213.312C453.368 212.738 452.903 212.244 452.352 211.861C451.801 211.478 451.175 211.216 450.516 211.091C449.856 210.965 449.178 210.98 448.525 211.134C444.617 212.174 442.118 219.03 441.961 222.632C441.961 222.846 442.082 225.167 442.196 226.626C442.004 225.779 441.819 224.953 441.605 224.077C441.199 222.354 440.737 220.639 440.253 218.795C439.982 217.922 439.711 217.032 439.441 216.125C439.192 215.228 438.814 214.31 438.501 213.398C437.725 211.263 436.842 209.184 435.903 207.084C437.412 206.721 442.759 205.361 444.909 203.709C447.059 202.057 449.315 199.388 449.294 196.533C449.312 195.862 449.189 195.195 448.932 194.576C448.676 193.956 448.291 193.397 447.805 192.936C447.318 192.474 446.739 192.121 446.106 191.898C445.474 191.675 444.801 191.588 444.133 191.642C440.117 192.076 436.629 198.476 435.896 202.008C435.853 202.228 435.618 204.82 435.511 206.279C434.942 205.019 434.372 203.766 433.746 202.513C431.951 198.896 430.022 195.294 428.114 191.692C427.53 190.588 426.961 189.478 426.384 188.374C426.925 188.253 433.318 186.765 435.725 184.921C437.86 183.284 440.124 180.6 440.11 177.745C440.128 177.074 440.005 176.406 439.748 175.786C439.491 175.166 439.106 174.607 438.618 174.145C438.131 173.684 437.551 173.33 436.918 173.108C436.284 172.885 435.611 172.799 434.942 172.854C430.926 173.289 427.438 179.689 426.712 183.22C426.655 183.483 426.32 187.221 426.277 188.203C425.017 185.769 423.779 183.327 422.654 180.871C421.121 177.565 419.804 174.165 418.71 170.69C418.959 170.633 425.637 169.117 428.1 167.223C430.236 165.585 432.507 162.902 432.485 160.047C432.505 159.376 432.382 158.708 432.126 158.088C431.87 157.468 431.486 156.909 430.998 156.447C430.511 155.985 429.932 155.632 429.299 155.409C428.666 155.187 427.993 155.1 427.324 155.156C423.309 155.59 419.82 161.99 419.094 165.521C419.037 165.799 418.674 169.793 418.66 170.548C418.603 170.348 418.51 170.142 418.453 169.942C417.453 166.425 416.769 162.825 416.41 159.185C416.182 157.185 416.083 155.248 416.026 153.369C417.293 153.219 423.102 152.443 425.509 150.984C427.915 149.524 430.364 147.175 430.656 144.334C430.747 143.67 430.697 142.994 430.51 142.35C430.323 141.706 430.003 141.108 429.57 140.596C429.137 140.084 428.601 139.668 427.997 139.376C427.393 139.085 426.734 138.923 426.064 138.902C422.02 138.902 417.855 144.876 416.738 148.307C416.681 148.492 416.275 150.443 416.026 151.867C416.026 151.012 415.983 150.137 416.026 149.325C416.026 146.271 416.225 143.473 416.417 140.996C416.531 139.572 416.674 138.319 416.809 137.13C417.983 136.325 422.654 133.029 424.092 130.673C425.53 128.316 426.641 125.048 425.594 122.4C425.369 121.767 425.013 121.189 424.55 120.703C424.086 120.217 423.526 119.834 422.905 119.579C422.283 119.324 421.616 119.202 420.944 119.222C420.273 119.242 419.614 119.403 419.009 119.695C415.449 121.546 414.481 128.772 415.072 132.331C415.122 132.638 416.496 137.358 416.538 137.315L416.609 137.265C416.453 138.404 416.296 139.629 416.154 140.967C415.905 143.445 415.656 146.25 415.584 149.318C415.465 152.621 415.543 155.928 415.819 159.221C416.068 162.91 416.644 166.569 417.542 170.156C417.542 170.199 417.542 170.241 417.542 170.284C416.908 169.28 415.036 166.554 414.872 166.354C412.509 163.628 406.329 159.741 402.627 161.321C402.016 161.599 401.47 162.003 401.025 162.506C400.58 163.009 400.246 163.6 400.045 164.241C399.843 164.881 399.779 165.557 399.856 166.224C399.933 166.891 400.149 167.535 400.491 168.113C401.922 170.64 405.212 171.872 407.881 172.292Z" fill="#263238"></path><path d="M477.158 153.276C477.223 153.319 478.454 148.563 478.497 148.293C478.988 144.733 477.849 137.521 474.225 135.763C473.613 135.488 472.95 135.345 472.28 135.344C471.609 135.343 470.945 135.482 470.332 135.754C469.719 136.026 469.17 136.424 468.721 136.923C468.272 137.421 467.933 138.008 467.725 138.646C466.75 141.33 467.982 144.612 469.448 146.876C471.157 149.51 477.158 153.276 477.158 153.276Z" fill="#263238"></path><path d="M467.975 282.754H429.21L424.369 239.704H472.823L467.975 282.754Z" fill="white" stroke="#263238" stroke-linecap="round" stroke-linejoin="round"></path><path d="M425.258 247.585L425.728 251.757H471.462L471.932 247.585H425.258Z" fill="#263238"></path><path d="M470.43 260.934L470.9 256.762H426.291L426.761 260.934H470.43Z" fill="#263238"></path><g opacity="0.3"><path d="M104.925 64.4209V51.9764L92.5019 50.5953C91.8293 48.0007 90.8066 45.5099 89.462 43.1912L97.2932 33.388L88.508 24.61L78.7475 32.4412C76.4371 31.0814 73.9538 30.0397 71.3648 29.3443L69.9837 16.8713H57.5463L56.1652 29.266C53.5714 29.9441 51.081 30.9691 48.7612 32.313L38.958 24.4818L30.1657 33.2599L37.9969 43.0275C36.6353 45.3335 35.5957 47.8151 34.9071 50.403L22.4199 51.7913V64.2286L34.843 65.6098C35.5157 68.202 36.5384 70.6906 37.8829 73.0067L30.0518 82.817L38.7942 91.6093L48.5547 83.7781C50.8747 85.1354 53.3677 86.1724 55.9659 86.8608L57.347 99.3337H69.7843L71.1655 86.9177C73.7603 86.2426 76.2511 85.2175 78.5695 83.8707L88.3727 91.7018L97.1721 82.9523L89.3409 73.1918C90.7013 70.8826 91.7408 68.3989 92.4307 65.8091L104.925 64.4209ZM63.6689 72.964C60.7328 72.9654 57.8622 72.096 55.4203 70.4658C52.9783 68.8356 51.0747 66.5179 49.9501 63.8057C48.8255 61.0935 48.5305 58.1087 49.1025 55.2288C49.6744 52.349 51.0876 49.7034 53.1632 47.6268C55.2389 45.5502 57.8837 44.1357 60.7633 43.5624C63.6429 42.9891 66.6278 43.2826 69.3406 44.4059C72.0533 45.5292 74.372 47.4317 76.0033 49.8729C77.6347 52.3141 78.5054 55.1842 78.5054 58.1203C78.5017 62.0534 76.9371 65.8242 74.1553 68.6046C71.3735 71.3851 67.602 72.9478 63.6689 72.9497V72.964Z" stroke="black" stroke-miterlimit="10"></path><path d="M153.784 39.4608L152.41 31.2309L144.031 31.6937C143.293 30.0504 142.335 28.5151 141.183 27.1302L145.291 19.7689L138.506 14.9563L132.911 21.207C131.232 20.5493 129.472 20.123 127.678 19.9398L125.379 11.8309L117.149 13.2121L117.611 21.5843C115.968 22.3222 114.433 23.2802 113.048 24.432L105.715 20.3242L100.867 27.116L107.089 32.7544C106.446 34.4327 106.034 36.1907 105.865 37.98L97.7559 40.2795L99.137 48.5093L107.509 48.0537C108.247 49.6947 109.205 51.2276 110.357 52.61L106.256 59.9713L113.048 64.8196L118.651 58.5689C120.33 59.2109 122.087 59.6251 123.876 59.8005L126.176 67.9022L134.406 66.5282L133.95 58.1488C135.591 57.4109 137.124 56.4528 138.506 55.3011L145.868 59.4089L150.716 52.61L144.451 46.9929C145.092 45.3137 145.507 43.5563 145.683 41.7674L153.784 39.4608ZM127.443 49.6769C125.499 50.0049 123.5 49.7488 121.702 48.9408C119.903 48.1329 118.384 46.8095 117.337 45.138C116.291 43.4666 115.764 41.5223 115.823 39.5512C115.882 37.58 116.524 35.6707 117.668 34.0647C118.813 32.4587 120.408 31.2283 122.252 30.5292C124.096 29.8301 126.105 29.6937 128.027 30.1373C129.948 30.5808 131.695 31.5844 133.046 33.021C134.397 34.4576 135.291 36.2627 135.616 38.2078C135.831 39.4994 135.789 40.8207 135.494 42.0963C135.198 43.3718 134.653 44.5765 133.892 45.6416C133.13 46.7067 132.166 47.6113 131.055 48.3037C129.943 48.9961 128.706 49.4627 127.415 49.6769H127.443Z" stroke="black" stroke-miterlimit="10"></path></g><path d="M95.4023 46.8149H419.094C421.066 46.8168 422.957 47.6012 424.352 48.996C425.747 50.3908 426.531 52.282 426.533 54.2545V266.579H87.9199V54.2545C87.9208 53.2742 88.1153 52.3037 88.4922 51.3987C88.8691 50.4937 89.4209 49.6721 90.1161 48.9809C90.8113 48.2897 91.6361 47.7425 92.5432 47.3708C93.4504 46.9991 94.4219 46.8102 95.4023 46.8149Z" fill="#D68029" stroke="#263238" stroke-linecap="round" stroke-linejoin="round"></path><path d="M374.371 256H141.678V267.462H374.371V256Z" fill="#263238" stroke="#263238" stroke-linecap="round" stroke-linejoin="round"></path><path d="M374.371 261.518H141.678V267.462H374.371V261.518Z" fill="white" stroke="#263238" stroke-linecap="round" stroke-linejoin="round"></path><path d="M60.5742 274.261C60.5742 274.261 64.3973 278.931 75.8593 282.754H440.18C440.18 282.754 448.673 280.618 452.496 274.681L60.5742 274.261Z" fill="#263238" stroke="#263238" stroke-linecap="round" stroke-linejoin="round"></path><path d="M451.977 265.896H61.1444C60.4012 265.896 59.7988 266.498 59.7988 267.241V273.478C59.7988 274.221 60.4012 274.823 61.1444 274.823H451.977C452.72 274.823 453.323 274.221 453.323 273.478V267.241C453.323 266.498 452.72 265.896 451.977 265.896Z" fill="#D68029" stroke="#263238" stroke-linecap="round" stroke-linejoin="round"></path><path d="M257.174 56.426C258.813 56.426 260.143 55.0968 260.143 53.4573C260.143 51.8177 258.813 50.4885 257.174 50.4885C255.534 50.4885 254.205 51.8177 254.205 53.4573C254.205 55.0968 255.534 56.426 257.174 56.426Z" fill="#263238"></path><path d="M412.799 63.9794H101.688V239.797H412.799V63.9794Z" fill="white" stroke="#263238" stroke-linecap="round" stroke-linejoin="round"></path><g clip-path="url(#clip0_2972_5362)"><path fill-rule="evenodd" clip-rule="evenodd" d="M136.685 104.193C132.299 104.193 128.737 107.753 128.737 112.141C128.737 116.533 132.296 120.092 136.685 120.092C141.076 120.092 144.636 116.533 144.636 112.141C144.633 107.753 141.073 104.196 136.685 104.193ZM152.562 104.914L152.408 104.582L152.17 104.86C151.577 105.533 150.824 106.052 149.984 106.364L149.746 106.45L149.839 106.688C150.56 108.423 150.932 110.288 150.932 112.161C150.932 120.033 144.548 126.422 136.674 126.422C128.799 126.422 122.418 120.033 122.418 112.158C122.418 104.284 128.802 97.8996 136.676 97.8996C138.794 97.8996 140.88 98.3708 142.794 99.2792L143.015 99.3842L143.109 99.1458C143.464 98.3254 144.02 97.5987 144.721 97.0395L145.002 96.801L144.681 96.6335C142.229 95.359 139.495 94.6919 136.725 94.6919C136.716 94.6919 136.696 94.6919 136.679 94.6919C127.053 94.6919 119.244 102.501 119.244 112.133C119.244 121.764 127.059 129.573 136.685 129.573C146.319 129.573 154.126 121.764 154.126 112.133C154.126 109.635 153.592 107.162 152.553 104.894L152.562 104.914ZM151.718 101.275C151.718 99.2763 150.1 97.6555 148.099 97.6555C146.101 97.6555 144.48 99.2763 144.48 101.275C144.48 103.279 146.101 104.9 148.099 104.9C150.103 104.9 151.718 103.276 151.718 101.275Z" fill="#D68029"></path></g><path d="M412.799 63.9794H101.688V74.6227H412.799V63.9794Z" fill="#C9C9C9" stroke="#263238" stroke-linecap="round" stroke-linejoin="round"></path><path d="M1.2207 282.754H496.792" stroke="#263238" stroke-linecap="round" stroke-linejoin="round"></path><path d="M387.888 155.376H259.393V227.979H387.888V155.376Z" stroke="#263238" stroke-linecap="round" stroke-linejoin="round"></path><path d="M387.888 219.25H259.393V227.979H387.888V219.25Z" stroke="#263238" stroke-linecap="round" stroke-linejoin="round"></path><path d="M387.888 222.447H259.393V224.782H387.888V222.447Z" stroke="#263238" stroke-linecap="round" stroke-linejoin="round"></path><path d="M324.328 201.516C331.83 201.516 337.911 195.435 337.911 187.933C337.911 180.431 331.83 174.349 324.328 174.349C316.826 174.349 310.744 180.431 310.744 187.933C310.744 195.435 316.826 201.516 324.328 201.516Z" stroke="#263238" stroke-linecap="round" stroke-linejoin="round"></path><path d="M334.765 187.99L317.287 177.902V198.085L334.765 187.99Z" stroke="#263238" stroke-linecap="round" stroke-linejoin="round"></path><path d="M387.773 87.3875H259.605V148.044H387.773V87.3875Z" stroke="#263238" stroke-linecap="round" stroke-linejoin="round"></path><path d="M259.605 148.043L305.866 111.97L330.905 125.974L360.613 99.661L387.773 117.06" stroke="#263238" stroke-linecap="round" stroke-linejoin="round"></path><path d="M276.585 113.665C281.74 113.665 285.919 109.486 285.919 104.331C285.919 99.1766 281.74 94.9979 276.585 94.9979C271.431 94.9979 267.252 99.1766 267.252 104.331C267.252 109.486 271.431 113.665 276.585 113.665Z" stroke="#263238" stroke-linecap="round" stroke-linejoin="round"></path><path d="M136.954 158.224H127.621V226.128H136.954V158.224Z" stroke="#263238" stroke-linecap="round" stroke-linejoin="round"></path><path d="M150.538 188.787H141.205V226.135H150.538V188.787Z" stroke="#263238" stroke-linecap="round" stroke-linejoin="round"></path><path d="M164.115 199.395H154.781V226.135H164.115V199.395Z" stroke="#263238" stroke-linecap="round" stroke-linejoin="round"></path><path d="M177.699 178.172H168.365V226.128H177.699V178.172Z" stroke="#263238" stroke-linecap="round" stroke-linejoin="round"></path><path d="M191.275 182.843H181.941V226.128H191.275V182.843Z" stroke="#263238" stroke-linecap="round" stroke-linejoin="round"></path><path d="M204.859 216.794H195.525V226.128H204.859V216.794Z" stroke="#263238" stroke-linecap="round" stroke-linejoin="round"></path><path d="M210.803 163.321H237.543" stroke="#263238" stroke-linecap="round" stroke-linejoin="round"></path><path d="M210.803 172.235H237.543" stroke="#263238" stroke-linecap="round" stroke-linejoin="round"></path><path d="M210.803 181.141H237.543" stroke="#263238" stroke-linecap="round" stroke-linejoin="round"></path><path d="M210.803 190.054H237.543" stroke="#263238" stroke-linecap="round" stroke-linejoin="round"></path><path d="M210.803 198.968H237.543" stroke="#263238" stroke-linecap="round" stroke-linejoin="round"></path><path d="M210.803 207.881H237.543" stroke="#263238" stroke-linecap="round" stroke-linejoin="round"></path><path d="M210.803 216.794H237.543" stroke="#263238" stroke-linecap="round" stroke-linejoin="round"></path><path d="M210.803 225.708H237.543" stroke="#263238" stroke-linecap="round" stroke-linejoin="round"></path><path d="M165.391 93.325H239.431" stroke="#263238" stroke-linecap="round" stroke-linejoin="round"></path><path d="M165.391 101.177H239.431" stroke="#263238" stroke-linecap="round" stroke-linejoin="round"></path><path d="M165.391 109.03H239.431" stroke="#263238" stroke-linecap="round" stroke-linejoin="round"></path><path d="M165.391 116.883H239.431" stroke="#263238" stroke-linecap="round" stroke-linejoin="round"></path><path d="M165.391 124.735H239.431" stroke="#263238" stroke-linecap="round" stroke-linejoin="round"></path><path d="M397.833 139.543H354.804C352.398 139.543 350.426 141.964 350.426 144.925V173.644C350.426 176.599 352.398 179.02 354.804 179.02H365.113L358.371 193.877L376.347 179.02H397.833C400.239 179.02 402.204 176.599 402.204 173.644V144.932C402.204 141.971 400.239 139.543 397.833 139.543Z" fill="#263238" stroke="#263238" stroke-linecap="round" stroke-linejoin="round"></path><path d="M368.857 168.39L359.809 161.983V158.594L368.857 152.137V155.561L362.372 160.274L368.857 164.987V168.39Z" fill="#D68029"></path><path d="M371.613 169.53L378.512 143.9H381.452L374.525 169.53H371.613Z" fill="#D68029"></path><path d="M384.207 168.39V165.002L390.728 160.26L384.207 155.576V152.151L393.291 158.559V161.947L384.207 168.39Z" fill="#D68029"></path><path d="M395.028 43.3264H352.042C349.636 43.3264 347.664 45.747 347.664 48.7015V77.4134C347.664 80.375 349.636 82.7956 352.042 82.7956H362.344L355.602 97.6463L373.585 82.7956H395.064C397.47 82.7956 399.442 80.375 399.442 77.4134V48.7015C399.407 45.747 397.435 43.3264 395.028 43.3264Z" fill="#263238" stroke="#263238" stroke-linecap="round" stroke-linejoin="round"></path><path d="M366.06 72.1595L357.004 65.7521V62.3705L366.06 55.9133V59.3306L359.574 64.0791L366.06 68.7992V72.1595Z" fill="#D68029"></path><path d="M368.816 73.3342L375.715 47.7048H378.655L371.728 73.3342H368.816Z" fill="#D68029"></path><path d="M381.41 72.1594V68.7777L387.931 64.0292L381.41 59.3447V55.9275L390.494 62.3348V65.7236L381.41 72.1594Z" fill="#D68029"></path><path d="M225.954 117.474H182.925C180.519 117.474 178.547 119.894 178.547 122.849V151.575C178.547 154.536 180.519 156.957 182.925 156.957H193.234L186.492 171.808L204.468 156.957H225.954C228.36 156.957 230.325 154.536 230.325 151.575V122.863C230.304 119.908 228.36 117.474 225.954 117.474Z" fill="#263238" stroke="#263238" stroke-linecap="round" stroke-linejoin="round"></path><path d="M196.978 146.321L187.93 139.913V136.532L196.978 130.075V133.492L190.493 138.205L196.978 142.925V146.321Z" fill="#D68029"></path><path d="M199.734 147.46L206.633 121.83H209.58L202.646 147.46H199.734Z" fill="#D68029"></path><path d="M212.328 146.321V142.939L218.849 138.191L212.328 133.506V130.089L221.412 136.496V139.885L212.328 146.321Z" fill="#D68029"></path><path d="M119.913 263.475H119.813C119.4 263.44 115.755 263.041 114.95 260.627C114.331 258.755 114.317 253.508 115.769 251.849C117.1 250.333 119.151 251.066 120.041 251.664C120.277 251.821 120.441 252.065 120.497 252.343C120.553 252.62 120.496 252.909 120.34 253.145C120.183 253.381 119.939 253.545 119.661 253.601C119.383 253.657 119.095 253.601 118.859 253.444C118.859 253.444 117.784 252.782 117.371 253.252C116.659 254.049 116.424 258.307 116.972 259.951C117.236 260.734 118.937 261.247 120.005 261.375C120.288 261.388 120.555 261.513 120.746 261.723C120.936 261.933 121.036 262.209 121.023 262.493C121.01 262.776 120.885 263.042 120.675 263.233C120.465 263.424 120.189 263.524 119.905 263.511L119.913 263.475Z" fill="#263238"></path><path d="M132.121 249.927H119.307V265.668H132.121V249.927Z" fill="#263238" stroke="#263238" stroke-linecap="round" stroke-linejoin="round"></path><path d="M122.475 247.756C122.059 246.048 122.332 244.244 123.237 242.737C124.754 240.302 127.794 239.846 127.644 235.617" stroke="#263238" stroke-linecap="round" stroke-linejoin="round"></path><path d="M130.385 241.213C129.799 242.223 129.137 243.186 128.406 244.096C127.654 245.161 127.278 246.446 127.338 247.749" stroke="#263238" stroke-linecap="round" stroke-linejoin="round"></path><path d="M131.752 238.501C132.343 237.005 132.551 235.385 132.357 233.788" stroke="#263238" stroke-linecap="round" stroke-linejoin="round"></path><path d="M88.4318 153.696C88.4318 153.696 87.8053 150.97 86.2034 151.162C84.6016 151.354 85.1142 151.874 83.5907 151.475C82.0672 151.076 81.761 149.781 81.0135 150.906C80.266 152.03 81.6756 152.742 80.3016 152.607C78.9276 152.472 78.415 151.653 77.8882 152.159C77.5818 152.441 77.3222 152.77 77.1193 153.134L76.8986 153.753C76.9866 153.561 77.1163 153.391 77.2782 153.256C77.4401 153.12 77.6302 153.022 77.8346 152.969C78.0391 152.915 78.2528 152.908 78.4603 152.948C78.6678 152.988 78.8639 153.073 79.0344 153.198C80.4582 154.059 81.519 154.23 81.7254 153.469C81.9319 152.707 83.7046 152.757 83.7544 153.219C83.8584 153.584 84.0517 153.917 84.3168 154.188C84.3168 154.188 80.3728 154.515 79.2123 154.65C78.0519 154.786 77.1976 153.86 75.5246 154.65C73.8515 155.441 72.4633 156.195 71.8439 157.156C71.2245 158.117 72.6911 159.292 72.4846 160.004C72.2782 160.716 69.2952 161.72 69.4234 162.731C69.5515 163.742 70.8899 163.884 69.523 164.788C68.1561 165.692 66.953 166.718 67.3445 167.558C67.7361 168.398 68.7684 169.302 68.5477 170.213C68.327 171.124 66.7963 172.783 67.6293 173.566C68.4623 174.349 68.9677 173.701 68.8182 174.898C68.6687 176.094 67.9283 178.543 68.8182 178.877C69.7081 179.212 70.833 179.667 70.8258 180.849C70.8187 182.031 70.6336 182.935 71.4523 183.576C72.2711 184.217 74.1719 184.131 74.3784 185.875C74.5848 187.62 74.8055 188.182 75.5886 188.531C76.3718 188.88 77.5891 187.997 78.1943 189.399C78.7994 190.802 80.5721 190.738 81.4051 190.339C82.238 189.941 82.9001 189.278 83.6761 190.802C84.4521 192.325 85.3562 192.518 86.4811 192.091C87.6059 191.663 89.2647 191.898 89.9482 192.703C90.6316 193.507 92.2335 193.315 93.0379 192.624C93.8424 191.934 94.412 190.546 95.131 191.635C95.85 192.724 97.5943 193.699 98.2136 192.738C98.833 191.777 99.2388 190.261 100.221 191.023C100.443 191.181 100.694 191.294 100.959 191.356C101.225 191.417 101.5 191.425 101.769 191.379C102.038 191.334 102.295 191.235 102.525 191.09C102.755 190.944 102.955 190.754 103.112 190.531C103.39 190.051 103.795 189.656 104.282 189.388C104.768 189.121 105.319 188.992 105.874 189.015C107.077 189.172 108.544 189.136 108.515 187.669C108.487 186.203 108.366 185.178 109.562 185.327C110.758 185.477 112.573 185.854 112.545 184.38C112.516 182.907 112.409 182.038 113.257 181.931C114.104 181.825 115.456 180.636 115.207 179.796C114.958 178.956 114.296 175.923 114.737 175.873C115.179 175.823 115.755 174.57 115.143 173.168C114.531 171.765 114.431 170.605 114.816 170.405C115.2 170.206 115.62 168.54 114.609 167.479C113.598 166.418 113.185 165.586 114.004 164.895C114.212 164.708 114.377 164.479 114.488 164.224C114.599 163.968 114.654 163.691 114.648 163.412C114.643 163.133 114.577 162.858 114.456 162.607C114.335 162.355 114.162 162.133 113.947 161.955C112.95 161.043 112.424 160.367 112.338 159.641C112.253 158.915 110.295 157.377 109.661 157.014C109.204 156.675 108.828 156.237 108.563 155.733C108.298 155.229 108.151 154.671 108.131 154.102C107.939 152.5 107.632 152.394 104.877 151.546C103.228 151.098 101.683 150.331 100.328 149.29C99.2032 148.542 96.4409 148.87 95.3446 149.596C94.2482 150.322 90.055 150.108 88.4318 153.696Z" fill="#263238" stroke="#263238" stroke-linecap="round" stroke-linejoin="round"></path><path d="M59.0795 228.178C63.7854 224.533 73.7381 208.009 73.7381 208.009C73.7381 208.009 74.9341 216.445 76.3295 220.475C77.7249 224.504 79.6257 227.146 79.1772 231.773L79.1345 231.061L104.657 231.809C103.874 230.385 103.376 230.143 103.233 229.524C102.813 227.352 105.041 222.532 105.07 220.333C105.098 218.133 106.764 213.925 106.764 213.925C106.764 213.925 114.126 230.235 115.813 231.61C117.5 232.984 122.22 233.745 121.957 228.634C121.693 223.522 113.093 203.752 111.584 200.313C110.075 196.875 108.181 194.49 104.536 194.839C100.891 195.187 100.044 195.821 97.5591 195.956C95.0745 196.092 96.1709 184.16 96.1709 184.16C94.9225 185.164 93.4307 185.821 91.8467 186.064C90.2626 186.306 88.6426 186.126 87.1508 185.541C87.1508 185.541 87.7915 191.806 86.7307 193.771C85.67 195.736 85.1147 196.355 82.5731 195.472C80.0315 194.589 76.0518 191.578 73.6242 192.738C71.1965 193.899 54.1459 222.269 52.8146 224.69C51.9318 226.291 49.554 230.385 50.2659 231.488L59.0795 228.178Z" fill="white" stroke="#263238" stroke-linecap="round" stroke-linejoin="round"></path><path d="M79.1482 231.773C79.1482 231.531 79.1909 231.303 79.198 231.061H79.1055C79.1055 231.061 79.1482 231.787 79.1482 231.773Z" fill="#D68029" stroke="#263238" stroke-linecap="round" stroke-linejoin="round"></path><path d="M73.6242 192.76C71.1965 193.92 54.1459 222.29 52.8146 224.711C51.9318 226.313 49.554 230.406 50.2659 231.51L59.0795 228.178C63.7854 224.533 73.7381 208.009 73.7381 208.009C73.7381 208.009 74.9341 216.446 76.3295 220.475C77.6537 224.291 79.4264 226.882 79.1772 231.076L104.607 231.823C103.824 230.399 103.326 230.157 103.183 229.538C102.763 227.366 104.992 222.547 105.02 220.347C105.049 218.147 106.714 213.94 106.714 213.94C106.714 213.94 114.076 230.25 115.763 231.624C117.45 232.998 122.17 233.76 121.907 228.648C121.644 223.536 113.044 203.766 111.534 200.328C110.025 196.889 108.131 194.504 104.486 194.853C103.182 194.973 101.889 195.183 100.613 195.479L90.0483 208.344L82.5233 195.486C80.0315 194.604 76.0518 191.599 73.6242 192.76Z" fill="#263238" stroke="#263238" stroke-linecap="round" stroke-linejoin="round"></path><path d="M79.4322 229.808C79.4322 229.808 65.9697 241.448 65.6635 252.405C65.5567 256.207 66.2829 264.7 72.7828 265.597C79.2827 266.494 108.073 265.597 108.073 265.597C108.073 265.597 110.316 264.921 111.633 257.317C112.95 249.714 103.132 230.264 103.132 230.264L79.4322 229.808Z" fill="#263238" stroke="#263238" stroke-linecap="round" stroke-linejoin="round"></path><path d="M89.343 234.443C89.343 234.443 86.8869 237.49 86.4953 237.639C86.1038 237.789 85.6766 238.978 84.8579 240.758C84.0392 242.537 84.267 242.694 85.2352 242.246C86.2034 241.797 87.1645 239.797 87.1645 239.797L89.0227 238.608C89.0227 238.608 90.8808 233.923 89.343 234.443Z" fill="white" stroke="#263238" stroke-linecap="round" stroke-linejoin="round"></path><path d="M114.53 226.277C114.53 226.277 112.231 229.388 106.884 231.766C101.538 234.144 96.3479 233.432 93.4219 233.567C90.4959 233.703 90.0545 233.04 88.8086 235.383C87.5627 237.725 88.6733 244.154 89.2785 244.567C89.8836 244.979 89.9904 242.011 89.9904 242.011C89.9904 242.011 90.5243 244.858 91.3786 244.915C92.233 244.972 92.5035 242.488 92.5035 242.488C92.5035 242.488 93.2581 244.239 93.9273 244.004C94.5965 243.769 94.4755 241.868 94.4755 241.868C94.4755 241.868 95.3156 242.972 95.7285 242.367C96.1414 241.762 95.1519 238.095 95.1519 238.095C95.1519 238.095 98.9393 238.715 100.328 238.245C101.177 237.942 101.919 237.397 102.463 236.678C106.168 236.697 109.871 236.478 113.548 236.023C117.741 235.312 123.551 230.976 122.205 228.278C120.859 225.58 116.396 224.974 116.396 224.974" fill="white"></path><path d="M114.53 226.277C114.53 226.277 112.231 229.388 106.884 231.766C101.538 234.144 96.3479 233.432 93.4219 233.567C90.4959 233.703 90.0545 233.04 88.8086 235.383C87.5627 237.725 88.6733 244.154 89.2785 244.567C89.8836 244.979 89.9904 242.011 89.9904 242.011C89.9904 242.011 90.5243 244.858 91.3786 244.915C92.233 244.972 92.5035 242.488 92.5035 242.488C92.5035 242.488 93.2581 244.239 93.9273 244.004C94.5965 243.769 94.4755 241.868 94.4755 241.868C94.4755 241.868 95.3156 242.972 95.7285 242.367C96.1414 241.762 95.1519 238.095 95.1519 238.095C95.1519 238.095 98.9393 238.715 100.328 238.245C101.177 237.942 101.919 237.397 102.463 236.678C106.168 236.697 109.871 236.478 113.548 236.023C117.741 235.312 123.551 230.976 122.205 228.278C120.859 225.58 116.396 224.974 116.396 224.974" stroke="#263238" stroke-linecap="round" stroke-linejoin="round"></path><path d="M94.4611 241.904C94.4611 241.904 93.0871 237.946 93.6281 236.365" stroke="#263238" stroke-linecap="round" stroke-linejoin="round"></path><path d="M92.4684 242.488C92.4684 242.488 91.5357 238.657 91.7564 236.308" stroke="#263238" stroke-linecap="round" stroke-linejoin="round"></path><path d="M89.9551 242.011C89.9551 242.011 89.2432 237.825 89.7273 236.892" stroke="#263238" stroke-linecap="round" stroke-linejoin="round"></path><path d="M114.53 226.277C113.412 227.616 112.093 228.773 110.621 229.709C112.045 230.784 113.526 232.663 114.024 235.952C118.16 235.027 123.478 230.898 122.183 228.306C120.887 225.715 116.395 224.974 116.395 224.974" fill="#263238"></path><path d="M114.53 226.277C113.412 227.616 112.093 228.773 110.621 229.709C112.045 230.784 113.526 232.663 114.024 235.952C118.16 235.027 123.478 230.898 122.183 228.306C120.887 225.715 116.395 224.974 116.395 224.974" stroke="#263238" stroke-linecap="round" stroke-linejoin="round"></path><path d="M72.513 217.556C73.5711 217.296 74.6031 216.938 75.5956 216.488C77.1832 215.776 78.2796 214.168 78.7637 214.78C79.2478 215.392 78.8989 216.503 77.9806 217.286C76.8376 218.091 75.6331 218.805 74.3782 219.422C74.3782 219.422 71.4878 218.852 72.513 217.556Z" fill="white" stroke="#263238" stroke-linecap="round" stroke-linejoin="round"></path><path d="M65.8497 223.821C65.8497 223.821 69.4805 214.189 71.1322 214.16C72.7838 214.132 80.615 215.52 80.2448 216.296C79.8746 217.072 78.9349 217.314 77.9951 217.278C76.4956 217.027 75.0122 216.687 73.5527 216.26L72.5276 217.549C72.5276 217.549 76.1441 218.588 76.6994 218.852C77.2547 219.115 79.3976 221.23 78.8352 222.07C78.2728 222.91 78.0663 222.525 78.0663 222.525C78.2409 223.008 78.2409 223.537 78.0663 224.02C77.746 224.689 77.4114 224.533 77.4114 224.533C77.3958 224.706 77.3402 224.873 77.2488 225.021C77.1574 225.169 77.0328 225.293 76.8849 225.384C76.737 225.475 76.5699 225.531 76.3968 225.546C76.2238 225.562 76.0495 225.536 75.8878 225.473C75.0763 225.159 75.062 223.614 74.0653 223.743C72.9334 223.878 72.7483 223.679 72.7483 223.679C71.669 224.713 70.5253 225.679 69.3239 226.569C68.3668 227.169 67.264 227.497 66.1345 227.516C66.1345 227.516 59.4708 233.133 53.8253 233.838C47.539 234.621 49.6747 227.858 52.8215 224.704C55.9682 221.55 65.8497 223.821 65.8497 223.821Z" fill="white" stroke="#263238" stroke-linecap="round" stroke-linejoin="round"></path><path d="M78.0785 222.532C78.0785 222.532 76.8825 220.56 76.0994 220.19C75.0125 219.843 73.8978 219.591 72.7676 219.436" stroke="#263238" stroke-linecap="round" stroke-linejoin="round"></path><path d="M77.4033 224.54C77.4033 224.54 75.5595 221.842 74.9828 221.806C74.4061 221.771 72.5195 221.465 72.5195 221.465" stroke="#263238" stroke-linecap="round" stroke-linejoin="round"></path><path d="M55.3481 228.285C55.6906 226.298 56.6466 224.468 58.0819 223.052C55.9461 223.138 53.9456 223.565 52.8136 224.711C49.6669 227.865 47.5311 234.628 53.8175 233.845C55.1142 233.656 56.3804 233.297 57.5835 232.777C56.3306 231.745 55.1274 230.221 55.3481 228.285Z" fill="#263238" stroke="#263238" stroke-linecap="round" stroke-linejoin="round"></path><path d="M103.296 183.953C103.787 186.089 103.417 187.99 102.477 188.225C101.537 188.46 100.341 186.879 99.8785 184.743C99.4157 182.608 99.7575 180.707 100.704 180.472C101.651 180.237 102.804 181.817 103.296 183.953Z" stroke="white" stroke-linecap="round" stroke-linejoin="round"></path><path d="M83.8186 185.313C83.8186 187.378 83.0355 189.043 82.11 189.036C81.1845 189.029 80.4654 187.342 80.4868 185.277C80.5081 183.213 81.2699 181.547 82.2239 181.547C83.1779 181.547 83.84 183.248 83.8186 185.313Z" stroke="white" stroke-linecap="round" stroke-linejoin="round"></path><path d="M90.3886 166.447C90.3886 166.447 88.2529 166.952 88.2529 168.583C88.2529 170.213 88.4736 170.776 87.2206 171.281C85.9676 171.786 85.2984 172.199 85.4906 173.36C85.6828 174.52 86.2025 174.869 84.6078 175.14C83.0131 175.41 83.1341 174.349 82.7995 175.887C82.4649 177.425 82.4008 177.888 81.8171 177.987C81.2333 178.087 81.9523 183.163 83.3548 186.189C84.7573 189.214 88.0393 193.714 90.0113 193.977C91.9834 194.241 94.5178 191.841 96.2834 189.798C97.871 187.954 100.22 182.309 100.22 182.309L100.726 181.775C100.726 181.775 101.616 181.775 101.851 180.543C101.851 180.543 101.68 178.642 100.719 178.215C99.8007 177.685 99.0864 176.863 98.6897 175.88C98.6185 175.446 99.0955 174.777 98.4476 174.456C97.7998 174.136 96.7106 173.851 96.3973 172.869C96.0841 171.886 97.1591 170.363 95.8847 169.836C94.6104 169.309 93.934 169.722 93.7489 168.711C93.5638 167.7 94.1334 166.575 93.1652 166.134C92.1969 165.692 90.3886 166.447 90.3886 166.447Z" fill="white" stroke="#263238" stroke-linecap="round" stroke-linejoin="round"></path><path d="M87.5626 179.831C87.7121 180.728 87.5626 181.511 87.1639 181.576C86.7652 181.64 86.3665 180.956 86.217 180.059C86.0675 179.162 86.217 178.372 86.6157 178.315C87.0144 178.258 87.4059 178.927 87.5626 179.831Z" fill="#263238"></path><path d="M94.1773 179.924C94.1773 180.835 93.8569 181.575 93.4653 181.568C93.0738 181.561 92.789 180.856 92.8032 179.909C92.8175 178.963 93.1236 178.258 93.5152 178.258C93.9067 178.258 94.1915 179.005 94.1773 179.924Z" fill="#263238"></path><path d="M87.9199 186.772C87.9199 186.772 89.3438 188.652 93.359 186.772" stroke="#263238" stroke-linecap="round" stroke-linejoin="round"></path><path d="M83.7969 177.404C83.7969 177.404 85.8116 175.268 88.2108 176.692" stroke="#263238" stroke-linecap="round" stroke-linejoin="round"></path><path d="M91.3418 176.564C91.3418 176.564 93.9973 174.734 96.8806 177.802" stroke="#263238" stroke-linecap="round" stroke-linejoin="round"></path><path d="M88.6876 182.294C88.5561 182.618 88.4884 182.963 88.4883 183.313C88.5757 183.715 88.8104 184.07 89.1463 184.309C89.4821 184.547 89.8949 184.651 90.3037 184.601C90.5483 184.58 90.784 184.499 90.9906 184.366C91.1971 184.233 91.3683 184.052 91.4895 183.839C91.6106 183.625 91.6781 183.385 91.6861 183.14C91.6941 182.894 91.6423 182.651 91.5353 182.43" stroke="#263238" stroke-linecap="round" stroke-linejoin="round"></path><path d="M93.7202 246.759C92.5996 246.926 91.5365 247.363 90.6234 248.034C86.4515 251.088 87.5265 258.001 87.3841 262.543C87.2085 268.29 87.0234 274.031 86.8288 279.764C86.5511 288.208 86.423 296.672 85.8819 305.102C85.469 311.566 83.6465 321.633 85.0347 328.51C86.423 335.387 90.0182 333.871 91.9618 327.527C93.9053 321.184 91.2499 308.832 91.0078 306.041C90.8227 303.863 100.811 270.915 103.495 255.993C104.485 250.476 98.7678 245.983 93.7202 246.759Z" fill="white" stroke="#263238" stroke-linecap="round" stroke-linejoin="round"></path><path d="M88.6306 320.593C86.7938 320.173 85.5836 317.909 84.8289 315.781C84.4445 320.244 84.2665 324.829 85.0069 328.51C86.4308 335.38 89.9904 333.871 91.9339 327.527C92.6459 325.135 92.7384 321.889 92.5391 318.621C91.5993 319.938 90.2965 320.963 88.6306 320.593Z" fill="#263238" stroke="#263238" stroke-linecap="round" stroke-linejoin="round"></path><path d="M76.8342 246.247C77.9645 246.203 79.0885 246.435 80.1091 246.923C84.765 249.159 84.9857 256.128 85.9682 260.592C87.207 266.202 88.4481 271.81 89.6916 277.415C91.5212 285.659 93.2085 293.96 95.3015 302.14C96.9034 308.412 100.548 317.973 100.449 324.986C100.349 331.998 96.5261 331.18 93.4577 325.299C90.3893 319.419 90.731 306.789 90.4391 304.005C90.2113 301.87 74.314 271.292 68.9247 257.125C66.9313 251.885 71.7297 246.418 76.8342 246.247Z" fill="white" stroke="#263238" stroke-linecap="round" stroke-linejoin="round"></path><path d="M95.4306 317.881C97.1606 317.126 97.9294 314.677 98.2783 312.449C99.4814 316.763 100.499 321.241 100.414 324.986C100.322 331.998 96.4913 331.18 93.4229 325.299C92.2696 323.085 91.5933 319.91 91.1875 316.663C92.4191 317.774 93.8857 318.55 95.4306 317.881Z" fill="#263238" stroke="#263238" stroke-linecap="round" stroke-linejoin="round"></path><path d="M107.668 219.051H63.8418V246.275H107.668V219.051Z" fill="#C9C9C9" stroke="#263238" stroke-linecap="round" stroke-linejoin="round"></path><path d="M107.668 245.656H63.8418V247.229H107.668V245.656Z" fill="#C9C9C9" stroke="#263238" stroke-linecap="round" stroke-linejoin="round"></path><defs><clipPath id="clip0_2972_5362"><rect width="34.8844" height="34.8844" fill="white" transform="translate(119.244 94.6919)"></rect></clipPath></defs></svg>