<svg xmlns="http://www.w3.org/2000/svg" width="351" height="334" viewBox="0 0 351 334" fill="none"><path d="M175.565 333.643C272.433 333.643 350.96 290.475 350.96 237.225C350.96 183.975 272.433 140.807 175.565 140.807C78.6969 140.807 0.169922 183.975 0.169922 237.225C0.169922 290.475 78.6969 333.643 175.565 333.643Z" fill="#F5F5F5"></path><path d="M208.453 318.796C239.306 318.796 264.317 304.357 264.317 286.547C264.317 268.736 239.306 254.297 208.453 254.297C177.601 254.297 152.59 268.736 152.59 286.547C152.59 304.357 177.601 318.796 208.453 318.796Z" fill="#E0E0E0"></path><path d="M163.31 247.462L264.039 189.29C265.232 188.605 265.232 187.489 264.039 186.804L219.859 161.296C219.192 160.955 218.453 160.776 217.704 160.776C216.954 160.776 216.216 160.955 215.549 161.296L114.821 219.507C113.628 220.192 113.628 221.308 114.821 221.993L159.008 247.501C159.677 247.836 160.416 248.008 161.164 248.001C161.912 247.995 162.648 247.81 163.31 247.462Z" fill="#E0E0E0"></path><path d="M78.4309 259.131L14.0394 221.955C12.8541 221.27 12.8541 220.154 14.0394 219.469L118.839 158.957C119.507 158.619 120.246 158.443 120.994 158.443C121.743 158.443 122.481 158.619 123.149 158.957L187.541 196.132C188.734 196.825 188.734 197.933 187.541 198.626L82.7411 259.131C82.0729 259.468 81.3347 259.644 80.586 259.644C79.8373 259.644 79.0991 259.468 78.4309 259.131Z" fill="#E0E0E0"></path><path d="M112.351 153.261L15.6099 209.125C15.2425 209.362 14.9365 209.683 14.7171 210.062C14.4977 210.441 14.3711 210.866 14.3477 211.303V213.85C14.3711 214.287 14.4977 214.712 14.7171 215.091C14.9365 215.47 15.2425 215.791 15.6099 216.029L79.2164 252.758C79.6065 252.955 80.0376 253.058 80.4748 253.058C80.912 253.058 81.3431 252.955 81.7332 252.758L178.498 196.887C178.863 196.647 179.167 196.325 179.384 195.947C179.602 195.569 179.728 195.144 179.752 194.708V192.161C179.729 191.724 179.602 191.299 179.383 190.92C179.163 190.541 178.857 190.22 178.49 189.983L114.868 153.261C114.478 153.064 114.047 152.961 113.61 152.961C113.172 152.961 112.741 153.064 112.351 153.261Z" fill="#37474F"></path><path d="M79.2162 247.301L15.6097 210.579C15.4585 210.527 15.3273 210.429 15.2345 210.298C15.1417 210.168 15.0918 210.012 15.0918 209.852C15.0918 209.692 15.1417 209.536 15.2345 209.405C15.3273 209.275 15.4585 209.177 15.6097 209.125L112.351 153.261C112.741 153.064 113.172 152.961 113.609 152.961C114.047 152.961 114.478 153.064 114.868 153.261L178.49 189.983C178.638 190.037 178.767 190.135 178.857 190.264C178.948 190.394 178.997 190.548 178.997 190.706C178.997 190.864 178.948 191.018 178.857 191.148C178.767 191.277 178.638 191.376 178.49 191.43L81.733 247.301C81.3429 247.498 80.9118 247.601 80.4746 247.601C80.0374 247.601 79.6063 247.498 79.2162 247.301Z" fill="#455A64"></path><path d="M80.5556 247.601V253.05C80.0944 253.075 79.6349 252.977 79.2241 252.765L15.6022 216.029C15.2377 215.79 14.9342 215.47 14.7162 215.093C14.4983 214.716 14.3721 214.293 14.3477 213.858V211.31C14.3691 210.921 14.4712 210.539 14.6474 210.191C14.8236 209.843 15.0701 209.534 15.3713 209.286C14.9249 209.694 15.0019 210.225 15.6022 210.572L79.2241 247.301C79.6336 247.517 80.093 247.62 80.5556 247.601Z" fill="#263238"></path><path d="M163.296 195.263L160.648 196.802L170.046 125.899L172.702 124.367L163.296 195.263Z" fill="#E0E0E0"></path><path d="M160.65 196.802L103.947 164.075L113.345 93.1797L170.047 125.899L160.65 196.802Z" fill="#FAFAFA"></path><path d="M172.702 124.367L170.046 125.899L113.344 93.1797L116.038 91.625L172.702 124.367Z" fill="#EBEBEB"></path><path d="M167.083 126.969L115.114 96.9744L106.586 161.758L158.555 191.707L167.083 126.969Z" fill="#D68029"></path><path opacity="0.8" d="M167.083 126.969L115.114 96.9744L106.586 161.758L158.555 191.707L167.083 126.969Z" fill="white"></path><path d="M112.159 136.805L125.497 124.167C126.89 122.851 128.538 123.259 129.153 125.075L138.713 153.23C138.759 153.38 138.859 153.507 138.993 153.587C139.127 153.667 139.286 153.694 139.44 153.664C139.593 153.633 139.73 153.547 139.823 153.421C139.916 153.295 139.959 153.14 139.944 152.984L139.529 147.05L148.034 141.062C148.382 140.799 148.785 140.617 149.213 140.531C149.641 140.444 150.083 140.455 150.506 140.562C150.93 140.669 151.323 140.87 151.659 141.15C151.994 141.429 152.262 141.781 152.444 142.178L162.45 162.189L158.894 189.128L108.949 160.342L112.159 136.805Z" fill="#D68029"></path><path d="M157.377 127.146C155.068 125.791 152.836 126.715 152.474 129.201C152.112 131.687 153.752 134.812 156.122 136.182C158.493 137.552 160.686 136.636 161.025 134.135C161.364 131.633 159.724 128.485 157.377 127.146Z" fill="#D68029"></path><path d="M117.469 98.3444L108.949 160.342L106.594 161.712L115.114 96.9744L117.469 98.3444Z" fill="#E0E0E0"></path><path d="M108.949 160.342L158.894 189.159L158.555 191.707L106.594 161.712L108.949 160.342Z" fill="#EBEBEB"></path><path d="M149.196 203.437L146.541 204.968L155.947 134.073L158.602 132.541L149.196 203.437Z" fill="#E0E0E0"></path><path d="M146.54 204.968L89.8379 172.241L99.2357 101.346L155.946 134.073L146.54 204.968Z" fill="#FAFAFA"></path><path d="M158.6 132.541L155.944 134.073L99.2344 101.346L101.928 99.7915L158.6 132.541Z" fill="#EBEBEB"></path><path d="M152.981 135.135L101.012 105.148L92.4844 169.925L144.453 199.881L152.981 135.135Z" fill="#D68029"></path><path opacity="0.8" d="M152.981 135.135L101.012 105.148L92.4844 169.925L144.453 199.881L152.981 135.135Z" fill="white"></path><path d="M98.0514 144.972L111.382 132.341C112.775 131.017 114.461 131.425 115.038 133.242L124.598 161.397C124.644 161.546 124.743 161.673 124.878 161.753C125.012 161.833 125.171 161.861 125.325 161.83C125.478 161.799 125.615 161.713 125.708 161.587C125.801 161.462 125.844 161.306 125.829 161.15L125.414 155.216L133.919 149.236C134.268 148.973 134.671 148.791 135.1 148.705C135.528 148.618 135.971 148.629 136.395 148.736C136.818 148.843 137.213 149.044 137.549 149.323C137.885 149.603 138.154 149.954 138.336 150.352L148.342 170.363L144.794 197.302L94.8418 168.493L98.0514 144.972Z" fill="#D68029"></path><path d="M143.27 135.304C140.922 133.95 138.736 134.866 138.374 137.352C138.013 139.838 139.644 142.97 142.023 144.34C144.401 145.71 146.587 144.787 146.918 142.285C147.249 139.784 145.617 136.659 143.27 135.304Z" fill="#D68029"></path><path d="M103.368 106.511L94.8397 168.516L92.4922 169.879L101.013 105.148L103.368 106.511Z" fill="#E0E0E0"></path><path d="M94.8397 168.516L144.784 197.325L144.453 199.881L92.4922 169.878L94.8397 168.516Z" fill="#EBEBEB"></path><path d="M135.087 211.611L132.439 213.142L141.837 142.247L144.493 140.708L135.087 211.611Z" fill="#E0E0E0"></path><path d="M132.441 213.142L75.7305 180.415L85.136 109.52L141.838 142.247L132.441 213.142Z" fill="#FAFAFA"></path><path d="M144.495 140.708L141.839 142.247L85.1367 109.52L87.8306 107.965L144.495 140.708Z" fill="#EBEBEB"></path><path d="M138.874 143.309L86.905 113.314L78.377 178.099L130.346 208.047L138.874 143.309Z" fill="#D68029"></path><path opacity="0.8" d="M138.874 143.309L86.905 113.314L78.377 178.099L130.346 208.047L138.874 143.309Z" fill="white"></path><path d="M83.9342 153.146L97.2651 140.507C98.6582 139.191 100.298 139.599 100.921 141.416L110.473 169.571C110.519 169.72 110.619 169.847 110.753 169.927C110.887 170.007 111.046 170.035 111.2 170.004C111.353 169.973 111.49 169.887 111.583 169.761C111.676 169.636 111.719 169.48 111.704 169.324L111.289 163.39L119.801 157.402C120.15 157.139 120.553 156.958 120.981 156.871C121.409 156.785 121.851 156.795 122.274 156.903C122.697 157.01 123.091 157.21 123.426 157.49C123.762 157.77 124.03 158.121 124.212 158.518L134.217 178.53L130.669 205.469L80.7246 176.659L83.9342 153.146Z" fill="#D68029"></path><path d="M129.168 143.471C126.82 142.116 124.627 143.04 124.265 145.526C123.903 148.012 125.543 151.137 127.913 152.507C130.284 153.877 132.477 152.961 132.808 150.459C133.139 147.958 131.508 144.849 129.168 143.471Z" fill="#D68029"></path><path d="M89.2604 114.684L80.74 176.69L78.3848 178.052L86.9051 113.314L89.2604 114.684Z" fill="#E0E0E0"></path><path d="M80.74 176.69L130.685 205.499L130.346 208.047L78.3848 178.053L80.74 176.69Z" fill="#EBEBEB"></path><path d="M120.98 219.777L118.332 221.309L127.738 150.413L130.385 148.882L120.98 219.777Z" fill="#E0E0E0"></path><path d="M118.331 221.309L61.6289 188.582L71.0267 117.687L127.737 150.413L118.331 221.309Z" fill="#FAFAFA"></path><path d="M130.385 148.882L127.737 150.413L71.0273 117.687L73.7212 116.132L130.385 148.882Z" fill="#EBEBEB"></path><path d="M124.772 151.476L72.8035 121.489L64.2754 186.265L116.244 216.221L124.772 151.476Z" fill="#D68029"></path><path opacity="0.8" d="M124.772 151.476L72.8035 121.489L64.2754 186.265L116.244 216.221L124.772 151.476Z" fill="white"></path><path d="M69.8424 161.312L83.1656 148.697C84.5587 147.381 86.2443 147.781 86.8216 149.597L96.381 177.752C96.4269 177.902 96.5267 178.029 96.6611 178.109C96.7954 178.189 96.9547 178.217 97.1081 178.186C97.2614 178.155 97.3979 178.069 97.4911 177.943C97.5843 177.817 97.6276 177.662 97.6125 177.506L97.1968 171.572L105.663 165.591C106.013 165.328 106.416 165.147 106.845 165.06C107.273 164.974 107.716 164.985 108.139 165.092C108.563 165.199 108.958 165.4 109.294 165.679C109.63 165.959 109.899 166.31 110.081 166.707L120.087 186.719L116.531 213.658L66.6328 184.872L69.8424 161.312Z" fill="#D68029"></path><path d="M115.061 151.645C112.713 150.29 110.52 151.206 110.166 153.692C109.812 156.178 111.436 159.311 113.806 160.681C116.177 162.051 118.378 161.135 118.709 158.626C119.04 156.117 117.408 152.999 115.061 151.645Z" fill="#D68029"></path><path d="M75.151 122.859L66.6306 184.857L64.2754 186.219L72.8035 121.489L75.151 122.859Z" fill="#E0E0E0"></path><path d="M66.6306 184.856L116.575 213.666L116.244 216.221L64.2754 186.219L66.6306 184.856Z" fill="#EBEBEB"></path><path d="M106.878 227.943L104.23 229.483L113.628 158.58L116.284 157.048L106.878 227.943Z" fill="#E0E0E0"></path><path d="M104.232 229.483L47.5215 196.756L56.927 125.86L113.629 158.579L104.232 229.483Z" fill="#FAFAFA"></path><path d="M116.284 157.048L113.628 158.58L56.9258 125.86L59.612 124.306L116.284 157.048Z" fill="#EBEBEB"></path><path d="M110.665 159.649L58.696 129.655L50.168 194.439L102.137 224.387L110.665 159.649Z" fill="#D68029"></path><path opacity="0.8" d="M110.665 159.649L58.696 129.655L50.168 194.439L102.137 224.387L110.665 159.649Z" fill="white"></path><path d="M55.7408 169.478L69.0717 156.84C70.4648 155.524 72.1042 155.932 72.72 157.748L82.2794 185.903C82.3254 186.053 82.4252 186.18 82.5595 186.26C82.6938 186.34 82.8531 186.367 83.0065 186.337C83.1599 186.306 83.2964 186.219 83.3896 186.094C83.4828 185.968 83.526 185.812 83.5109 185.657L83.0953 179.723L91.6311 173.742C91.9801 173.485 92.3818 173.309 92.8072 173.226C93.2327 173.144 93.6712 173.156 94.091 173.264C94.5109 173.372 94.9016 173.571 95.2349 173.848C95.5682 174.125 95.8358 174.473 96.0182 174.866L106.024 194.878L102.476 221.816L52.5312 193.03L55.7408 169.478Z" fill="#D68029"></path><path d="M100.953 159.811C98.644 158.464 96.4196 159.38 96.0578 161.866C95.6961 164.352 97.3355 167.477 99.7061 168.847C102.077 170.217 104.27 169.301 104.601 166.8C104.932 164.298 103.301 161.166 100.953 159.811Z" fill="#D68029"></path><path d="M61.0533 131.025L52.533 193.03L50.1777 194.393L58.6981 129.655L61.0533 131.025Z" fill="#E0E0E0"></path><path d="M52.533 193.031L102.478 221.84L102.139 224.387L50.1777 194.393L52.533 193.031Z" fill="#EBEBEB"></path><path d="M92.7708 236.117L90.123 237.649L99.5209 166.754L102.176 165.222L92.7708 236.117Z" fill="#E0E0E0"></path><path d="M90.1223 237.649L33.4199 204.922L42.8177 134.027L99.5201 166.754L90.1223 237.649Z" fill="#FAFAFA"></path><path d="M102.176 165.222L99.5208 166.754L42.8184 134.027L45.5122 132.472L102.176 165.222Z" fill="#EBEBEB"></path><path d="M96.5575 167.816L44.5963 137.829L36.0605 202.605L88.0294 232.561L96.5575 167.816Z" fill="#D68029"></path><path opacity="0.8" d="M96.5575 167.816L44.5963 137.829L36.0605 202.605L88.0294 232.561L96.5575 167.816Z" fill="white"></path><path d="M41.6007 177.652L54.9315 165.022C56.3247 163.706 58.0103 164.106 58.5875 165.922L68.1777 194.108C68.2237 194.258 68.3235 194.385 68.4578 194.465C68.5922 194.545 68.7515 194.572 68.9048 194.542C69.0582 194.511 69.1947 194.424 69.2879 194.299C69.3811 194.173 69.4243 194.017 69.4092 193.862L68.9936 187.928L77.4601 181.947C77.8086 181.684 78.2117 181.503 78.6397 181.416C79.0677 181.33 79.5096 181.341 79.9328 181.448C80.3561 181.555 80.7499 181.756 81.0853 182.035C81.4206 182.315 81.6889 182.666 81.8704 183.063L91.8762 203.075L88.3203 230.014L38.4219 201.197L41.6007 177.652Z" fill="#D68029"></path><path d="M86.8518 167.985C84.5428 166.63 82.3107 167.546 81.9567 170.04C81.6026 172.534 83.2266 175.651 85.5973 177.021C87.9679 178.391 90.1615 177.475 90.5001 174.966C90.8388 172.457 89.1994 169.34 86.8518 167.985Z" fill="#D68029"></path><path d="M46.944 139.199L38.4236 201.197L36.0684 202.567L44.5964 137.829L46.944 139.199Z" fill="#E0E0E0"></path><path d="M38.4236 201.197L88.3682 230.006L88.0295 232.561L36.0684 202.567L38.4236 201.197Z" fill="#EBEBEB"></path><path d="M112.351 63.7087L15.6099 119.572C15.2415 119.81 14.9349 120.133 14.7154 120.513C14.496 120.893 14.3699 121.32 14.3477 121.758V124.306C14.3712 124.744 14.4977 125.17 14.7171 125.55C14.9364 125.93 15.2423 126.252 15.6099 126.492L79.2164 163.213C79.6065 163.411 80.0376 163.513 80.4748 163.513C80.912 163.513 81.3431 163.411 81.7332 163.213L178.498 107.342C178.863 107.103 179.167 106.781 179.384 106.402C179.602 106.024 179.728 105.6 179.752 105.164V102.616C179.729 102.179 179.602 101.754 179.383 101.375C179.163 100.997 178.857 100.675 178.49 100.438L114.868 63.7163C114.479 63.5177 114.048 63.4135 113.611 63.4121C113.173 63.4108 112.742 63.5124 112.351 63.7087Z" fill="#37474F"></path><path d="M79.2162 157.748L15.6097 121.027C15.4585 120.974 15.3273 120.876 15.2345 120.746C15.1417 120.615 15.0918 120.459 15.0918 120.299C15.0918 120.139 15.1417 119.983 15.2345 119.853C15.3273 119.723 15.4585 119.624 15.6097 119.572L112.351 63.7086C112.741 63.5111 113.172 63.4082 113.609 63.4082C114.047 63.4082 114.478 63.5111 114.868 63.7086L178.49 100.43C179.19 100.83 179.19 101.477 178.49 101.885L81.733 157.748C81.3441 157.949 80.9125 158.054 80.4746 158.054C80.0367 158.054 79.6052 157.949 79.2162 157.748Z" fill="#455A64"></path><path d="M80.5556 158.048V163.505C80.094 163.524 79.6355 163.423 79.2241 163.213L15.6022 126.476C15.2377 126.238 14.9342 125.917 14.7162 125.54C14.4983 125.163 14.3721 124.74 14.3477 124.306V121.758C14.3691 121.368 14.4712 120.987 14.6474 120.639C14.8236 120.29 15.0701 119.982 15.3713 119.734C14.9249 120.142 15.0019 120.673 15.6022 121.027L79.2241 157.748C79.6322 157.968 80.0927 158.072 80.5556 158.048Z" fill="#263238"></path><path d="M163.296 105.133L160.648 106.665L170.046 35.7692L172.702 34.2375L163.296 105.133Z" fill="#E0E0E0"></path><path d="M160.65 106.664L103.947 73.9376L113.345 3.04224L170.047 35.7691L160.65 106.664Z" fill="#FAFAFA"></path><path d="M172.702 34.2375L170.046 35.7691L113.344 3.0423L116.038 1.48755L172.702 34.2375Z" fill="#EBEBEB"></path><path d="M167.083 36.8313L115.114 6.84448L106.586 71.6208L158.555 101.577L167.083 36.8313Z" fill="#D68029"></path><path opacity="0.8" d="M167.083 36.8313L115.114 6.84448L106.586 71.6208L158.555 101.577L167.083 36.8313Z" fill="white"></path><path d="M112.159 46.6677L125.497 34.0142C126.89 32.6903 128.538 33.0983 129.153 34.9147L138.713 63.0696C138.759 63.2192 138.859 63.3463 138.993 63.4264C139.127 63.5065 139.286 63.5338 139.44 63.5031C139.593 63.4725 139.73 63.3859 139.823 63.2603C139.916 63.1347 139.959 62.979 139.944 62.8234L139.529 56.8891L148.026 50.9472C148.373 50.6825 148.776 50.4995 149.204 50.4117C149.632 50.3239 150.074 50.3337 150.498 50.4401C150.921 50.5466 151.316 50.7471 151.651 51.0267C151.987 51.3064 152.255 51.658 152.436 52.0555L162.442 72.0672L158.886 99.0061L108.949 70.1892L112.159 46.6677Z" fill="#D68029"></path><path d="M157.377 37.0007C155.068 35.646 152.836 36.5619 152.474 39.048C152.112 41.5341 153.752 44.6667 156.122 46.0367C158.493 47.4068 160.686 46.4831 161.025 43.9817C161.364 41.4802 159.724 38.3553 157.377 37.0007Z" fill="#D68029"></path><path d="M117.469 8.20682L108.949 70.2123L106.594 71.5747L115.114 6.84448L117.469 8.20682Z" fill="#E0E0E0"></path><path d="M108.949 70.2124L158.894 99.0216L158.555 101.577L106.594 71.5747L108.949 70.2124Z" fill="#EBEBEB"></path><path d="M149.196 113.299L146.541 114.831L155.947 43.9355L158.602 42.4038L149.196 113.299Z" fill="#E0E0E0"></path><path d="M146.54 114.831L89.8379 82.1116L99.2357 11.2163L155.946 43.9355L146.54 114.831Z" fill="#FAFAFA"></path><path d="M158.6 42.4039L155.944 43.9355L99.2344 11.2164L101.928 9.66162L158.6 42.4039Z" fill="#EBEBEB"></path><path d="M152.981 45.0055L101.012 15.011L92.4844 79.7874L144.453 109.743L152.981 45.0055Z" fill="#D68029"></path><path opacity="0.8" d="M152.981 45.0055L101.012 15.011L92.4844 79.7874L144.453 109.743L152.981 45.0055Z" fill="white"></path><path d="M98.0514 54.8342L111.382 42.2037C112.775 40.8876 114.461 41.2955 115.038 43.112L124.598 71.2669C124.643 71.418 124.743 71.5467 124.879 71.6276C125.014 71.7085 125.175 71.7357 125.33 71.7038C125.484 71.6719 125.621 71.5833 125.714 71.4554C125.806 71.3275 125.847 71.1697 125.829 71.0129L125.414 65.0864L133.919 59.0982C134.268 58.8352 134.671 58.6538 135.1 58.5673C135.528 58.4809 135.971 58.4916 136.395 58.5986C136.818 58.7057 137.213 58.9064 137.549 59.186C137.885 59.4656 138.154 59.817 138.336 60.2143L148.342 80.226L144.794 107.165L94.8418 78.3557L98.0514 54.8342Z" fill="#D68029"></path><path d="M143.27 45.1668C140.922 43.8122 138.736 44.7358 138.374 47.2219C138.013 49.708 139.644 52.8329 142.023 54.2029C144.401 55.5729 146.587 54.657 146.918 52.1555C147.249 49.6541 145.617 46.5215 143.27 45.1668Z" fill="#D68029"></path><path d="M103.368 16.381L94.8397 78.3788L92.4922 79.7489L101.013 15.011L103.368 16.381Z" fill="#E0E0E0"></path><path d="M94.8397 78.3787L144.784 107.188L144.453 109.743L92.4922 79.7487L94.8397 78.3787Z" fill="#EBEBEB"></path><path d="M135.087 121.473L132.439 123.005L141.837 52.1096L144.493 50.5779L135.087 121.473Z" fill="#E0E0E0"></path><path d="M132.441 123.005L75.7305 90.2779L85.136 19.3826L141.838 52.1094L132.441 123.005Z" fill="#FAFAFA"></path><path d="M144.495 50.5778L141.839 52.1095L85.1367 19.3826L87.8306 17.8279L144.495 50.5778Z" fill="#EBEBEB"></path><path d="M138.874 53.1715L86.905 23.177L78.377 87.9611L130.346 117.909L138.874 53.1715Z" fill="#D68029"></path><path opacity="0.8" d="M138.874 53.1715L86.905 23.177L78.377 87.9611L130.346 117.909L138.874 53.1715Z" fill="white"></path><path d="M83.9344 63.0082L97.2653 50.3777C98.6584 49.0539 100.298 49.4618 100.921 51.2782L110.488 79.4255C110.534 79.575 110.634 79.7021 110.769 79.7822C110.903 79.8623 111.062 79.8896 111.215 79.859C111.369 79.8283 111.505 79.7418 111.599 79.6162C111.692 79.4906 111.735 79.3348 111.72 79.1792L111.304 73.2449L119.817 67.2645C120.164 66.9999 120.567 66.8168 120.995 66.7291C121.423 66.6413 121.865 66.651 122.289 66.7575C122.712 66.8639 123.107 67.0644 123.442 67.3441C123.778 67.6237 124.046 67.9753 124.227 68.3729L134.233 88.3846L130.685 115.323L80.7402 86.5142L83.9344 63.0082Z" fill="#D68029"></path><path d="M129.168 53.341C126.82 51.9864 124.627 52.9023 124.265 55.3883C123.903 57.8744 125.543 61.007 127.913 62.3771C130.284 63.7471 132.477 62.8235 132.808 60.322C133.139 57.8205 131.508 54.6956 129.168 53.341Z" fill="#D68029"></path><path d="M89.2604 24.547L80.74 86.5525L78.3848 87.9149L86.9051 23.177L89.2604 24.547Z" fill="#E0E0E0"></path><path d="M80.74 86.5527L130.685 115.362L130.346 117.91L78.3848 87.9151L80.74 86.5527Z" fill="#EBEBEB"></path><path d="M120.98 129.639L118.332 131.171L127.738 60.2758L130.385 58.7441L120.98 129.639Z" fill="#E0E0E0"></path><path d="M118.331 131.171L61.6289 98.452L71.0267 27.5566L127.737 60.2758L118.331 131.171Z" fill="#FAFAFA"></path><path d="M130.385 58.7442L127.737 60.2759L71.0273 27.5567L73.7212 26.002L130.385 58.7442Z" fill="#EBEBEB"></path><path d="M124.772 61.3381L72.8035 31.3513L64.2754 96.1277L116.244 126.084L124.772 61.3381Z" fill="#D68029"></path><path opacity="0.8" d="M124.772 61.3381L72.8035 31.3513L64.2754 96.1277L116.244 126.084L124.772 61.3381Z" fill="white"></path><path d="M69.8417 71.1745L83.1649 58.5441C84.558 57.2279 86.2436 57.6358 86.8209 59.4523L96.3803 87.6072C96.4262 87.7567 96.5261 87.8838 96.6604 87.9639C96.7947 88.044 96.954 88.0714 97.1074 88.0407C97.2607 88.0101 97.3972 87.9235 97.4904 87.7979C97.5836 87.6723 97.6269 87.5166 97.6118 87.3609L97.1962 81.4267L105.663 75.4386C106.012 75.1755 106.415 74.9941 106.844 74.9077C107.273 74.8212 107.715 74.8319 108.139 74.939C108.563 75.046 108.957 75.2468 109.293 75.5264C109.629 75.8059 109.898 76.1573 110.081 76.5546L120.086 96.5663L116.531 123.505L66.5859 94.6883L69.8417 71.1745Z" fill="#D68029"></path><path d="M115.061 61.5072C112.713 60.1525 110.52 61.0762 110.166 63.5622C109.812 66.0483 111.436 69.1732 113.806 70.5432C116.177 71.9133 118.378 70.9973 118.709 68.4959C119.04 65.9944 117.408 62.8618 115.061 61.5072Z" fill="#D68029"></path><path d="M75.151 32.7213L66.6306 94.7192L64.2754 96.0892L72.8035 31.3513L75.151 32.7213Z" fill="#E0E0E0"></path><path d="M66.6306 94.719L116.575 123.536L116.244 126.083L64.2754 96.089L66.6306 94.719Z" fill="#EBEBEB"></path><path d="M106.878 137.814L104.23 139.345L113.628 68.4499L116.284 66.9182L106.878 137.814Z" fill="#E0E0E0"></path><path d="M104.232 139.345L47.5215 106.618L56.927 35.7229L113.629 68.4497L104.232 139.345Z" fill="#FAFAFA"></path><path d="M116.284 66.9181L113.628 68.4498L56.9258 35.723L59.612 34.1682L116.284 66.9181Z" fill="#EBEBEB"></path><path d="M110.665 69.5119L58.696 39.5251L50.168 104.302L102.137 134.257L110.665 69.5119Z" fill="#D68029"></path><path opacity="0.8" d="M110.665 69.5119L58.696 39.5251L50.168 104.302L102.137 134.257L110.665 69.5119Z" fill="white"></path><path d="M55.7408 79.3485L69.0717 66.718C70.4648 65.3942 72.1042 65.8021 72.72 67.6186L82.2794 95.7735C82.3254 95.923 82.4252 96.0501 82.5595 96.1302C82.6938 96.2103 82.8531 96.2377 83.0065 96.207C83.1599 96.1763 83.2964 96.0898 83.3896 95.9642C83.4828 95.8386 83.526 95.6829 83.5109 95.5272L83.0953 89.593L91.6311 83.6125C91.9792 83.3479 92.3825 83.1648 92.8109 83.077C93.2394 82.9892 93.6821 82.9989 94.1063 83.1053C94.5305 83.2118 94.9254 83.4122 95.2617 83.6919C95.5979 83.9715 95.867 84.3232 96.049 84.7209L106.055 104.733L102.507 131.671L52.5312 102.893L55.7408 79.3485Z" fill="#D68029"></path><path d="M100.953 69.6813C98.644 68.3267 96.4196 69.2426 96.0578 71.7287C95.6961 74.2148 97.3355 77.3474 99.7061 78.7174C102.077 80.0874 104.27 79.1638 104.601 76.6623C104.932 74.1609 103.301 71.036 100.953 69.6813Z" fill="#D68029"></path><path d="M61.0533 40.8875L52.533 102.893L50.1777 104.255L58.6981 39.5251L61.0533 40.8875Z" fill="#E0E0E0"></path><path d="M52.533 102.893L102.478 131.702L102.139 134.258L50.1777 104.255L52.533 102.893Z" fill="#EBEBEB"></path><path d="M92.7708 145.98L90.123 147.511L99.5209 76.6161L102.176 75.0845L92.7708 145.98Z" fill="#E0E0E0"></path><path d="M90.1223 147.511L33.4199 114.792L42.8177 43.897L99.5201 76.6161L90.1223 147.511Z" fill="#FAFAFA"></path><path d="M102.176 75.0845L99.5208 76.6162L42.8184 43.897L45.5122 42.3423L102.176 75.0845Z" fill="#EBEBEB"></path><path d="M96.5575 77.6859L44.5963 47.6914L36.0605 112.468L88.0294 142.424L96.5575 77.6859Z" fill="#D68029"></path><path opacity="0.8" d="M96.5575 77.6859L44.5963 47.6914L36.0605 112.468L88.0294 142.424L96.5575 77.6859Z" fill="white"></path><path d="M41.6007 87.5226L54.9623 74.8844C56.3554 73.5682 58.041 73.9762 58.6183 75.7926L68.1777 103.948C68.2237 104.097 68.3235 104.224 68.4578 104.304C68.5922 104.384 68.7515 104.412 68.9048 104.381C69.0582 104.35 69.1947 104.264 69.2879 104.138C69.3811 104.013 69.4243 103.857 69.4092 103.701L68.9936 97.767L77.4601 91.7789C77.8086 91.5159 78.2117 91.3345 78.6397 91.2481C79.0677 91.1616 79.5096 91.1724 79.9328 91.2795C80.3561 91.3866 80.7499 91.5873 81.0853 91.8669C81.4206 92.1465 81.6889 92.4978 81.8704 92.8949L91.8762 112.907L88.3203 139.845L38.4219 111.059L41.6007 87.5226Z" fill="#D68029"></path><path d="M86.8518 77.8861C84.5428 76.5314 82.3107 77.4551 81.9567 79.9411C81.6026 82.4272 83.2266 85.5521 85.5973 86.9221C87.9679 88.2922 90.1615 87.3762 90.5001 84.8748C90.8388 82.3733 89.1994 79.2022 86.8518 77.8861Z" fill="#D68029"></path><path d="M46.944 49.0614L38.4236 111.059L36.0684 112.429L44.5964 47.6914L46.944 49.0614Z" fill="#E0E0E0"></path><path d="M38.4236 111.059L88.3682 139.868L88.0295 142.424L36.0684 112.429L38.4236 111.059Z" fill="#EBEBEB"></path><path d="M264.966 5.78215V178.414C264.899 179.658 264.539 180.87 263.916 181.949C263.293 183.028 262.424 183.945 261.379 184.625L162.206 241.828C161.851 242.05 161.44 242.168 161.021 242.167C160.865 242.164 160.711 242.146 160.559 242.113C160.452 242.088 160.349 242.052 160.251 242.005L160.066 241.897L159.851 241.759C159.78 241.704 159.714 241.645 159.651 241.582C159.372 241.315 159.15 240.996 158.996 240.643C158.745 240.07 158.616 239.451 158.619 238.826V67.1103C158.687 65.866 159.047 64.6551 159.67 63.5759C160.293 62.4967 161.162 61.5796 162.206 60.899L261.379 3.71171C261.726 3.46957 262.127 3.31568 262.547 3.26337C262.967 3.21106 263.393 3.26192 263.788 3.41153C263.899 3.45536 264.003 3.51499 264.096 3.58856C264.187 3.65337 264.267 3.73118 264.335 3.81946C264.375 3.85953 264.411 3.90335 264.443 3.95031C264.491 4.00517 264.53 4.06757 264.558 4.13503C264.649 4.27821 264.719 4.43374 264.766 4.59684C264.811 4.69668 264.84 4.80329 264.851 4.91241C264.856 4.92315 264.859 4.93502 264.859 4.94705C264.859 4.95908 264.856 4.97094 264.851 4.98168C264.881 5.08971 264.899 5.20069 264.904 5.31264C264.934 5.46791 264.954 5.62464 264.966 5.78215Z" fill="#455A64"></path><path d="M263.788 3.41158C263.392 3.26197 262.966 3.21111 262.546 3.26342C262.126 3.31573 261.725 3.46962 261.378 3.71176L162.205 60.876C161.154 61.5562 160.279 62.4758 159.651 63.5595C159.024 64.6431 158.662 65.86 158.595 67.1104V78.8095L154.016 76.1234V64.4858C154.089 63.251 154.451 62.0506 155.072 60.9811C155.694 59.9117 156.558 59.0031 157.595 58.3283L256.799 1.12563C257.174 0.852065 257.619 0.687844 258.082 0.651164C258.545 0.614484 259.009 0.706777 259.423 0.917815C260.047 1.30266 263.026 3.01135 263.788 3.41158Z" fill="#D68029"></path><path d="M264.956 5.75899C264.956 3.49613 263.347 2.58021 261.377 3.71933L162.204 60.8759C161.153 61.557 160.279 62.4768 159.651 63.5603C159.024 64.6437 158.662 65.8601 158.594 67.1103V78.8094L264.956 17.5274V5.75899Z" fill="#D68029"></path><g opacity="0.4"><path d="M261.378 3.71945L162.204 60.876C161.154 61.5396 160.286 62.455 159.68 63.5391L155.131 60.8991C155.725 59.8282 156.584 58.9273 157.625 58.2821L256.798 1.12563C257.174 0.852065 257.618 0.687844 258.081 0.651164C258.544 0.614484 259.009 0.706777 259.423 0.917815C260.069 1.31035 263.048 3.00365 263.802 3.41158C263.404 3.25836 262.974 3.20629 262.551 3.26002C262.128 3.31375 261.725 3.47161 261.378 3.71945Z" fill="white"></path></g><path opacity="0.15" d="M154.031 76.1386V64.4856C154.079 63.2157 154.456 61.9799 155.124 60.8989L159.688 63.5235C159.014 64.6018 158.637 65.8392 158.595 67.1103V78.8094L154.031 76.1386Z" fill="black"></path><path d="M243.368 19.1053C242.252 19.7519 241.344 21.6761 241.344 23.3925C241.344 25.1089 242.252 25.994 243.368 25.3475C244.484 24.7009 245.392 22.7767 245.392 21.0603C245.392 19.3439 244.484 18.4588 243.368 19.1053Z" fill="#455A64"></path><path d="M250.657 14.8876C249.541 15.5341 248.633 17.4583 248.633 19.1747C248.633 20.8911 249.541 21.7762 250.657 21.1297C251.773 20.4832 252.681 18.559 252.681 16.8426C252.681 15.1262 251.781 14.241 250.657 14.8876Z" fill="#455A64"></path><path d="M257.954 10.6699C256.83 11.3164 255.93 13.2406 255.93 14.957C255.93 16.6734 256.83 17.5585 257.954 16.912C259.078 16.2655 259.978 14.3413 259.978 12.6249C259.978 10.9085 259.07 10.031 257.954 10.6699Z" fill="#455A64"></path><path d="M159.935 241.828C159.804 241.743 159.65 241.659 159.489 241.566C159.158 241.366 158.781 241.151 158.381 240.943L157.78 240.604H157.734C157.403 240.42 157.087 240.227 156.787 240.066L156.018 239.619C155.873 239.529 155.724 239.447 155.571 239.373C155.336 239.247 155.127 239.077 154.955 238.873C154.758 238.659 154.597 238.414 154.478 238.149C154.2 237.554 154.058 236.905 154.063 236.248V76.1543L158.596 78.8097V238.842C158.612 239.465 158.739 240.08 158.973 240.658C159.127 241.012 159.349 241.331 159.627 241.597C159.681 241.67 159.749 241.73 159.828 241.774C159.859 241.8 159.896 241.818 159.935 241.828Z" fill="#37474F"></path><path d="M167.423 88.546C167.428 88.3109 167.492 88.0809 167.608 87.8763L170.186 82.5424C170.211 82.482 170.25 82.429 170.302 82.3885C170.302 82.3885 170.355 82.3423 170.371 82.3423C170.398 82.3169 170.434 82.3027 170.471 82.3027C170.508 82.3027 170.544 82.3169 170.571 82.3423C170.602 82.3781 170.625 82.4197 170.64 82.4646C170.654 82.5096 170.66 82.557 170.656 82.604V84.3897C170.662 84.5759 170.644 84.7622 170.602 84.9438C170.561 85.1152 170.499 85.2807 170.417 85.4364L169.062 88.2535L170.417 89.5004C170.502 89.5745 170.566 89.6702 170.602 89.7774C170.646 89.9376 170.664 90.104 170.656 90.27V92.0634C170.653 92.1886 170.624 92.3119 170.571 92.4251C170.529 92.5248 170.46 92.6103 170.371 92.6714H170.302C170.284 92.6803 170.264 92.6849 170.244 92.6849C170.224 92.6849 170.204 92.6803 170.186 92.6714L167.608 90.3085C167.542 90.2541 167.49 90.1841 167.458 90.1048C167.426 90.0255 167.414 89.9395 167.423 89.8544V88.546Z" fill="#D68029"></path><path d="M176.853 75.1691C176.901 74.9879 176.968 74.8124 177.053 74.6457C177.132 74.4727 177.264 74.3297 177.43 74.2377L178.4 73.6759C178.428 73.652 178.463 73.6389 178.5 73.6389C178.537 73.6389 178.572 73.652 178.6 73.6759C178.661 73.749 178.691 73.8427 178.685 73.9376C178.691 74.0041 178.691 74.0711 178.685 74.1377L174.259 92.9718C174.221 93.1476 174.161 93.3182 174.082 93.4798C173.996 93.6587 173.86 93.8086 173.69 93.9108L172.758 94.4496C172.73 94.4734 172.695 94.4865 172.658 94.4865C172.622 94.4865 172.586 94.4734 172.558 94.4496C172.527 94.4143 172.503 94.3728 172.488 94.3277C172.473 94.2826 172.468 94.235 172.473 94.1879C172.467 94.1213 172.467 94.0543 172.473 93.9878L176.853 75.1691Z" fill="#D68029"></path><path d="M183.695 80.4874C183.69 80.7224 183.627 80.9524 183.511 81.157L180.917 86.4909C180.89 86.5497 180.85 86.6022 180.801 86.6448C180.763 86.6448 180.748 86.691 180.732 86.691C180.704 86.7148 180.669 86.7279 180.632 86.7279C180.595 86.7279 180.56 86.7148 180.532 86.691C180.471 86.6148 180.441 86.5188 180.447 86.4216V84.6359C180.441 84.4497 180.46 84.2634 180.501 84.0818C180.542 83.9104 180.604 83.7449 180.686 83.5892L182.041 80.7721L180.686 79.5253C180.601 79.4511 180.537 79.3554 180.501 79.2482C180.457 79.088 180.439 78.9216 180.447 78.7556V76.9622C180.45 76.837 180.479 76.7137 180.532 76.6005C180.574 76.5008 180.643 76.4153 180.732 76.3542H180.801C180.839 76.34 180.88 76.34 180.917 76.3542L183.495 78.7171C183.561 78.7715 183.613 78.8415 183.645 78.9208C183.677 79.0001 183.689 79.0861 183.68 79.1712L183.695 80.4874Z" fill="#D68029"></path><path d="M190.86 79.2484C190.894 79.2196 190.938 79.2039 190.983 79.2039C191.028 79.2039 191.071 79.2196 191.106 79.2484C191.145 79.2924 191.174 79.3436 191.193 79.3992C191.211 79.4547 191.218 79.5133 191.214 79.5717V81.5421C191.212 81.6971 191.175 81.8497 191.106 81.9885C191.056 82.1109 190.97 82.2155 190.86 82.2887L189.644 82.9968C189.609 83.0276 189.563 83.0446 189.517 83.0446C189.47 83.0446 189.425 83.0276 189.39 82.9968C189.352 82.9541 189.323 82.9039 189.306 82.8496C189.289 82.7952 189.283 82.7379 189.29 82.6812V80.7031C189.289 80.5512 189.324 80.4012 189.39 80.2644C189.44 80.1378 189.529 80.0302 189.644 79.9565L190.86 79.2484Z" fill="#D68029"></path><path d="M194.924 76.9008C194.958 76.8705 195.002 76.8538 195.047 76.8538C195.092 76.8538 195.136 76.8705 195.17 76.9008C195.21 76.9437 195.241 76.9948 195.259 77.0506C195.278 77.1064 195.284 77.1656 195.278 77.2241V79.1944C195.28 79.3499 195.243 79.5034 195.17 79.6409C195.122 79.7646 195.036 79.8697 194.924 79.941L193.708 80.6491C193.674 80.6794 193.63 80.6962 193.585 80.6962C193.539 80.6962 193.495 80.6794 193.461 80.6491C193.422 80.6059 193.391 80.5548 193.373 80.4991C193.354 80.4433 193.348 80.3843 193.354 80.3259V78.3478C193.356 78.1954 193.393 78.0455 193.461 77.9091C193.509 77.7833 193.596 77.6757 193.708 77.6012L194.924 76.9008Z" fill="#D68029"></path><path d="M198.989 74.5532C199.024 74.5224 199.069 74.5054 199.116 74.5054C199.163 74.5054 199.208 74.5224 199.243 74.5532C199.28 74.5978 199.308 74.6493 199.326 74.7048C199.343 74.7603 199.349 74.8187 199.343 74.8765V76.8469C199.344 77.0013 199.31 77.1539 199.243 77.2933C199.193 77.4178 199.104 77.523 198.989 77.5935L197.773 78.3016C197.739 78.3319 197.695 78.3486 197.65 78.3486C197.605 78.3486 197.561 78.3319 197.527 78.3016C197.488 78.2577 197.46 78.2063 197.442 78.1506C197.425 78.0949 197.42 78.0362 197.427 77.9783V76.0079C197.427 75.856 197.461 75.706 197.527 75.5692C197.575 75.4434 197.661 75.3358 197.773 75.2613L198.989 74.5532Z" fill="#D68029"></path><path d="M168.508 102.931L228.097 68.5342C228.797 68.1263 229.375 68.4111 229.375 69.1731C229.342 69.6012 229.209 70.0156 228.987 70.3832C228.765 70.7508 228.46 71.0612 228.097 71.2897L168.508 105.694C167.808 106.102 167.238 105.81 167.238 105.048C167.27 104.62 167.401 104.206 167.621 103.838C167.842 103.471 168.146 103.16 168.508 102.931Z" fill="#D68029"></path><path d="M187.627 125.014L247.216 90.6089C247.917 90.201 248.494 90.4935 248.494 91.2554C248.462 91.6827 248.329 92.0963 248.107 92.4627C247.885 92.8291 247.58 93.138 247.216 93.3644L187.627 127.769C186.927 128.177 186.357 127.885 186.357 127.123C186.388 126.696 186.519 126.283 186.74 125.916C186.961 125.55 187.265 125.24 187.627 125.014Z" fill="white"></path><path d="M187.627 147.088L216.152 130.632C216.852 130.224 217.422 130.517 217.422 131.279C217.39 131.706 217.259 132.121 217.039 132.488C216.818 132.856 216.514 133.167 216.152 133.395L187.627 149.844C186.927 150.252 186.357 149.967 186.357 149.205C186.389 148.777 186.52 148.363 186.741 147.995C186.961 147.628 187.265 147.317 187.627 147.088Z" fill="#E0E0E0"></path><path d="M233.039 65.6788L256.776 51.9246C257.477 51.5166 258.046 51.8091 258.046 52.5711C258.016 52.9978 257.885 53.4112 257.664 53.7777C257.443 54.1441 257.139 54.4533 256.776 54.68L233.039 68.4419C232.331 68.8499 231.762 68.5574 231.762 67.7954C231.793 67.367 231.925 66.9521 232.147 66.5843C232.369 66.2166 232.675 65.9063 233.039 65.6788Z" fill="#D68029"></path><path d="M168.508 224.341L228.097 189.936C228.797 189.536 229.375 189.821 229.375 190.583C229.342 191.011 229.209 191.425 228.987 191.793C228.765 192.161 228.46 192.471 228.097 192.699L168.508 227.104C167.808 227.504 167.238 227.22 167.238 226.458C167.27 226.03 167.401 225.616 167.621 225.248C167.842 224.881 168.146 224.57 168.508 224.341Z" fill="#D68029"></path><path d="M233.039 187.088L256.776 173.326C257.477 172.918 258.046 173.203 258.046 173.965C258.015 174.393 257.884 174.807 257.663 175.174C257.443 175.542 257.139 175.853 256.776 176.082L233.039 189.836C232.331 190.244 231.762 189.959 231.762 189.197C231.794 188.77 231.927 188.357 232.149 187.99C232.371 187.624 232.676 187.315 233.039 187.088Z" fill="#D68029"></path><path d="M233.039 154.03L256.776 140.276C257.477 139.868 258.046 140.161 258.046 140.923C258.015 141.35 257.884 141.764 257.663 142.132C257.443 142.5 257.139 142.81 256.776 143.039L233.039 156.794C232.331 157.201 231.762 156.909 231.762 156.147C231.793 155.719 231.925 155.304 232.147 154.936C232.369 154.568 232.675 154.258 233.039 154.03Z" fill="#D68029"></path><path d="M233.039 165.068L256.776 151.314C257.477 150.906 258.046 151.19 258.046 151.952C258.015 152.38 257.884 152.794 257.663 153.162C257.443 153.529 257.139 153.84 256.776 154.069L233.039 167.831C232.331 168.231 231.762 167.946 231.762 167.184C231.793 166.756 231.925 166.341 232.147 165.973C232.369 165.606 232.675 165.295 233.039 165.068Z" fill="#D68029"></path><path d="M212.797 165.684L226.128 157.987C226.836 157.579 227.406 157.871 227.406 158.633C227.374 159.062 227.242 159.477 227.02 159.844C226.798 160.212 226.492 160.522 226.128 160.75L212.797 168.447C212.089 168.855 211.52 168.562 211.52 167.8C211.551 167.372 211.683 166.957 211.905 166.589C212.127 166.221 212.433 165.911 212.797 165.684Z" fill="#D68029"></path><path d="M168.508 113.999L203.236 93.9185C203.937 93.5105 204.506 93.803 204.506 94.5573C204.475 94.985 204.345 95.3995 204.124 95.7672C203.903 96.1349 203.599 96.4455 203.236 96.6739L168.508 116.755C167.808 117.163 167.238 116.878 167.238 116.116C167.27 115.688 167.401 115.274 167.621 114.907C167.842 114.539 168.146 114.228 168.508 113.999Z" fill="#D68029"></path><path opacity="0.6" d="M168.508 113.999L203.236 93.9185C203.937 93.5105 204.506 93.803 204.506 94.5573C204.475 94.985 204.345 95.3995 204.124 95.7672C203.903 96.1349 203.599 96.4455 203.236 96.6739L168.508 116.755C167.808 117.163 167.238 116.878 167.238 116.116C167.27 115.688 167.401 115.274 167.621 114.907C167.842 114.539 168.146 114.228 168.508 113.999Z" fill="white"></path><path d="M168.508 125.013L180.3 118.202C181.008 117.794 181.577 118.079 181.577 118.841C181.551 119.274 181.421 119.695 181.198 120.069C180.976 120.442 180.668 120.757 180.3 120.988L168.508 127.807C167.808 128.208 167.238 127.923 167.238 127.161C167.265 126.728 167.394 126.307 167.615 125.934C167.835 125.561 168.142 125.245 168.508 125.013Z" fill="#D68029"></path><path opacity="0.6" d="M168.508 125.013L180.3 118.202C181.008 117.794 181.577 118.079 181.577 118.841C181.551 119.274 181.421 119.695 181.198 120.069C180.976 120.442 180.668 120.757 180.3 120.988L168.508 127.807C167.808 128.208 167.238 127.923 167.238 127.161C167.265 126.728 167.394 126.307 167.615 125.934C167.835 125.561 168.142 125.245 168.508 125.013Z" fill="white"></path><path d="M168.508 136.051L180.3 129.239C181.008 128.831 181.577 129.116 181.577 129.878C181.546 130.306 181.414 130.721 181.192 131.089C180.97 131.457 180.664 131.767 180.3 131.995L168.508 138.814C167.808 139.222 167.238 138.929 167.238 138.167C167.27 137.74 167.401 137.326 167.621 136.958C167.842 136.59 168.146 136.28 168.508 136.051Z" fill="#D68029"></path><path opacity="0.6" d="M168.508 136.051L180.3 129.239C181.008 128.831 181.577 129.116 181.577 129.878C181.546 130.306 181.414 130.721 181.192 131.089C180.97 131.457 180.664 131.767 180.3 131.995L168.508 138.814C167.808 139.222 167.238 138.929 167.238 138.167C167.27 137.74 167.401 137.326 167.621 136.958C167.842 136.59 168.146 136.28 168.508 136.051Z" fill="white"></path><path d="M168.508 147.088L180.3 140.276C181.008 139.868 181.577 140.153 181.577 140.915C181.546 141.343 181.414 141.758 181.192 142.126C180.97 142.494 180.664 142.804 180.3 143.032L168.508 149.851C167.808 150.259 167.238 149.966 167.238 149.204C167.27 148.777 167.401 148.363 167.621 147.995C167.842 147.627 168.146 147.317 168.508 147.088Z" fill="#D68029"></path><path opacity="0.6" d="M168.508 147.088L180.3 140.269C181.008 139.861 181.577 140.153 181.577 140.915C181.546 141.344 181.414 141.758 181.192 142.126C180.97 142.494 180.664 142.804 180.3 143.032L168.508 149.843C167.808 150.251 167.238 149.967 167.238 149.205C167.27 148.777 167.401 148.363 167.621 147.995C167.842 147.628 168.146 147.317 168.508 147.088Z" fill="white"></path><path d="M187.627 136.051L222.386 115.97C223.087 115.562 223.656 115.847 223.656 116.609C223.625 117.036 223.494 117.45 223.273 117.818C223.052 118.186 222.749 118.496 222.386 118.725L187.627 138.806C186.927 139.214 186.357 138.929 186.357 138.167C186.388 137.74 186.519 137.325 186.74 136.957C186.96 136.59 187.264 136.279 187.627 136.051Z" fill="#D68029"></path><path d="M227.321 113.114L242.437 104.417C243.138 104.009 243.707 104.301 243.707 105.063C243.676 105.491 243.545 105.905 243.324 106.273C243.104 106.64 242.8 106.951 242.437 107.18L227.321 115.877C226.62 116.285 226.051 115.993 226.051 115.231C226.082 114.803 226.213 114.389 226.434 114.021C226.654 113.654 226.958 113.343 227.321 113.114Z" fill="#D68029"></path><path d="M168.508 158.125L180.3 151.314C181.008 150.906 181.577 151.19 181.577 151.952C181.548 152.383 181.417 152.801 181.195 153.172C180.973 153.543 180.666 153.855 180.3 154.084L168.508 160.904C167.808 161.312 167.238 161.019 167.238 160.257C167.267 159.827 167.397 159.41 167.618 159.039C167.839 158.669 168.144 158.356 168.508 158.125Z" fill="#D68029"></path><path opacity="0.6" d="M168.508 158.125L180.3 151.314C181.008 150.906 181.577 151.19 181.577 151.952C181.548 152.383 181.417 152.801 181.195 153.172C180.973 153.543 180.666 153.855 180.3 154.084L168.508 160.904C167.808 161.312 167.238 161.019 167.238 160.257C167.267 159.827 167.397 159.41 167.618 159.039C167.839 158.669 168.144 158.356 168.508 158.125Z" fill="white"></path><path d="M208.202 91.0629L223.318 82.3655C224.019 81.9653 224.596 82.2501 224.596 83.012C224.563 83.4401 224.43 83.8546 224.209 84.2222C223.987 84.5897 223.682 84.9002 223.318 85.1287L208.202 93.8261C207.501 94.234 206.932 93.9415 206.932 93.1795C206.963 92.752 207.094 92.3377 207.315 91.9701C207.535 91.6025 207.839 91.2918 208.202 91.0629Z" fill="#D68029"></path><path opacity="0.6" d="M208.202 91.0629L223.318 82.3655C224.019 81.9653 224.596 82.2501 224.596 83.012C224.563 83.4401 224.43 83.8546 224.209 84.2222C223.987 84.5897 223.682 84.9002 223.318 85.1287L208.202 93.8261C207.501 94.234 206.932 93.9415 206.932 93.1795C206.963 92.752 207.094 92.3377 207.315 91.9701C207.535 91.6025 207.839 91.2918 208.202 91.0629Z" fill="white"></path><path d="M201.967 149.828L236.726 129.747C237.426 129.339 237.996 129.632 237.996 130.394C237.965 130.821 237.833 131.235 237.613 131.603C237.392 131.971 237.089 132.281 236.726 132.51L201.967 152.591C201.267 152.991 200.697 152.707 200.697 151.945C200.729 151.517 200.86 151.103 201.08 150.735C201.301 150.368 201.605 150.057 201.967 149.828Z" fill="#E0E0E0"></path><path d="M222.016 149.335L256.775 129.254C257.475 128.846 258.053 129.139 258.053 129.901C258.02 130.328 257.888 130.742 257.666 131.108C257.444 131.475 257.139 131.784 256.775 132.01L222.016 152.091C221.316 152.499 220.746 152.214 220.746 151.452C220.777 151.024 220.909 150.61 221.129 150.243C221.35 149.875 221.654 149.564 222.016 149.335Z" fill="white"></path><path d="M241.661 126.899L256.777 118.202C257.478 117.794 258.047 118.079 258.047 118.841C258.016 119.268 257.885 119.682 257.664 120.05C257.443 120.418 257.14 120.728 256.777 120.957L241.661 129.655C240.96 130.062 240.391 129.778 240.391 129.016C240.421 128.588 240.552 128.174 240.773 127.806C240.994 127.438 241.298 127.128 241.661 126.899Z" fill="#E0E0E0"></path><path d="M241.661 170.617L256.777 161.92C257.478 161.512 258.047 161.797 258.047 162.559C258.016 162.986 257.885 163.4 257.664 163.768C257.443 164.136 257.14 164.446 256.777 164.675L241.661 173.373C240.96 173.781 240.391 173.488 240.391 172.726C240.421 172.299 240.552 171.886 240.773 171.52C240.994 171.153 241.298 170.844 241.661 170.617Z" fill="#E0E0E0"></path><path d="M187.627 113.976L222.386 93.8953C223.087 93.4874 223.656 93.7798 223.656 94.5418C223.625 94.9694 223.494 95.3836 223.273 95.7512C223.052 96.1188 222.749 96.4296 222.386 96.6584L187.627 116.739C186.927 117.14 186.357 116.855 186.357 116.093C186.389 115.665 186.52 115.251 186.741 114.883C186.961 114.516 187.265 114.205 187.627 113.976Z" fill="#D68029"></path><path opacity="0.6" d="M187.627 113.976L222.386 93.8953C223.087 93.4874 223.656 93.7798 223.656 94.5418C223.625 94.9694 223.494 95.3836 223.273 95.7512C223.052 96.1188 222.749 96.4296 222.386 96.6584L187.627 116.739C186.927 117.14 186.357 116.855 186.357 116.093C186.389 115.665 186.52 115.251 186.741 114.883C186.961 114.516 187.265 114.205 187.627 113.976Z" fill="white"></path><path d="M227.321 91.0473L242.437 82.3499C243.138 81.942 243.707 82.2268 243.707 82.9887C243.676 83.4163 243.545 83.8305 243.324 84.1982C243.104 84.5658 242.8 84.8765 242.437 85.1054L227.321 93.8028C226.62 94.2107 226.051 93.9259 226.051 93.1639C226.08 92.7359 226.211 92.321 226.432 91.9531C226.652 91.5852 226.957 91.2748 227.321 91.0473Z" fill="#D68029"></path><path opacity="0.6" d="M227.321 91.0473L242.437 82.3499C243.138 81.942 243.707 82.2268 243.707 82.9887C243.676 83.4163 243.545 83.8305 243.324 84.1982C243.104 84.5658 242.8 84.8765 242.437 85.1054L227.321 93.8028C226.62 94.2107 226.051 93.9259 226.051 93.1639C226.08 92.7359 226.211 92.321 226.432 91.9531C226.652 91.5852 226.957 91.2748 227.321 91.0473Z" fill="white"></path><path opacity="0.6" d="M187.627 136.051L222.386 115.97C223.087 115.562 223.656 115.847 223.656 116.609C223.625 117.036 223.494 117.45 223.273 117.818C223.052 118.186 222.749 118.496 222.386 118.725L187.627 138.806C186.927 139.214 186.357 138.929 186.357 138.167C186.388 137.74 186.519 137.325 186.74 136.957C186.96 136.59 187.264 136.279 187.627 136.051Z" fill="white"></path><path opacity="0.6" d="M227.321 113.114L242.437 104.417C243.138 104.009 243.707 104.301 243.707 105.063C243.676 105.491 243.545 105.905 243.324 106.273C243.104 106.64 242.8 106.951 242.437 107.18L227.321 115.877C226.62 116.285 226.051 115.993 226.051 115.231C226.082 114.803 226.213 114.389 226.434 114.021C226.654 113.654 226.958 113.343 227.321 113.114Z" fill="white"></path><path d="M306.289 20.1598L297.999 24.9088L289.664 24.1391C289.566 24.1304 289.468 24.1463 289.379 24.1853C290.049 23.7927 297.314 19.6364 297.614 19.4748C297.718 19.4123 297.841 19.3878 297.961 19.4055L306.289 20.1598Z" fill="#D68029"></path><path opacity="0.5" d="M306.289 20.1598L297.999 24.9088L289.664 24.1391C289.566 24.1304 289.468 24.1463 289.379 24.1853C290.049 23.7927 297.314 19.6364 297.614 19.4748C297.718 19.4123 297.841 19.3878 297.961 19.4055L306.289 20.1598Z" fill="white"></path><path d="M332.05 21.8223L302.078 4.51221L296.121 7.97577L298.315 52.4479L311.107 67.5953L323.899 67.2181L329.856 63.7546L332.05 21.8223Z" fill="#D68029"></path><path opacity="0.5" d="M332.05 21.8223L326.1 25.2859L296.121 7.97577L302.078 4.51221L332.05 21.8223Z" fill="white"></path><path opacity="0.15" d="M332.049 21.8223L326.1 25.2858L323.898 67.2181L329.856 63.7545L332.049 21.8223Z" fill="black"></path><path d="M296.122 7.97583L296.953 24.8165L289.672 24.1776C289.549 24.1679 289.427 24.1952 289.32 24.2558C289.213 24.3164 289.127 24.4076 289.072 24.5177C289.017 24.6279 288.997 24.7518 289.013 24.8736C289.03 24.9954 289.082 25.1096 289.164 25.2013L297.415 34.1373L298.316 52.4865L311.108 67.6338L323.9 67.2567L326.101 25.3244L296.122 7.97583Z" fill="#D68029"></path><path opacity="0.5" d="M311.107 20.968L323.022 27.8413L321.267 62.3384L311.107 63.0927V20.968Z" fill="white"></path><path d="M320.19 29.5961L318.935 57.8511L311.108 58.2975L303.288 48.815L302.888 40.8334L305.72 42.4652L305.951 47.2295L311.108 53.6871L316.265 53.1791L317.142 32.1745L302.256 23.5772L302.033 19.113L320.19 29.5961Z" fill="white"></path><path d="M306.289 91.1705L297.999 95.9194L289.664 95.1497C289.567 95.1425 289.47 95.1556 289.379 95.1882C290.049 94.7957 297.314 90.6394 297.614 90.4778C297.72 90.4191 297.841 90.3948 297.961 90.4085L306.289 91.1705Z" fill="#D68029"></path><path d="M332.05 92.8331L302.078 75.5229L296.121 78.9865L298.315 123.459L311.107 138.606L323.899 138.229L329.856 134.765L332.05 92.8331Z" fill="#D68029"></path><path opacity="0.35" d="M332.049 92.833L326.1 96.2889L323.898 138.229L329.856 134.765L332.049 92.833Z" fill="black"></path><path d="M296.122 78.9866L296.953 95.8195L289.672 95.1884C289.549 95.1787 289.427 95.2059 289.32 95.2665C289.213 95.3272 289.127 95.4184 289.072 95.5285C289.017 95.6386 288.997 95.7625 289.013 95.8844C289.03 96.0062 289.082 96.1203 289.164 96.212L297.415 105.148L298.316 123.459L311.108 138.606L323.9 138.229L326.101 96.289L296.122 78.9866Z" fill="#D68029"></path><path opacity="0.25" d="M296.122 78.9866L296.953 95.8195L289.672 95.1884C289.549 95.1787 289.427 95.2059 289.32 95.2665C289.213 95.3272 289.127 95.4184 289.072 95.5285C289.017 95.6386 288.997 95.7625 289.013 95.8844C289.03 96.0062 289.082 96.1203 289.164 96.212L297.415 105.148L298.316 123.459L311.108 138.606L323.9 138.229L326.101 96.289L296.122 78.9866Z" fill="black"></path><path opacity="0.7" d="M311.107 91.9712L323.022 98.8521L321.267 133.342L311.107 134.104V91.9712Z" fill="#D68029"></path><path d="M302.033 90.1238L302.218 94.5648L317.142 103.178L316.78 111.937L302.61 103.755L302.795 108.196L316.603 116.17L316.265 124.19L311.108 124.698L305.951 118.233L305.72 113.476L302.888 111.844L303.288 119.826L311.108 129.308L318.935 128.862L320.19 100.599L302.033 90.1238Z" fill="white"></path><path d="M332.05 163.829L302.078 146.526L296.121 149.982L298.315 194.454L311.107 209.602L323.899 209.224L329.856 205.761L332.05 163.829Z" fill="#D68029"></path><path opacity="0.25" d="M332.05 163.829L326.1 167.292L296.121 149.982L302.078 146.526L332.05 163.829Z" fill="black"></path><path opacity="0.55" d="M332.049 163.829L326.1 167.292L323.898 209.224L329.856 205.761L332.049 163.829Z" fill="black"></path><path d="M306.289 162.166L297.999 166.915L289.664 166.184C289.566 166.175 289.468 166.191 289.379 166.23C290.049 165.837 297.314 161.674 297.614 161.512C297.721 161.457 297.841 161.433 297.961 161.443L306.289 162.166Z" fill="#D68029"></path><path opacity="0.25" d="M306.289 162.166L297.999 166.915L289.664 166.184C289.566 166.175 289.468 166.191 289.379 166.23C290.049 165.837 297.314 161.674 297.614 161.512C297.721 161.457 297.841 161.433 297.961 161.443L306.289 162.166Z" fill="black"></path><path d="M296.122 149.982L296.953 166.823L289.672 166.184C289.549 166.174 289.427 166.201 289.32 166.262C289.213 166.323 289.127 166.414 289.072 166.524C289.017 166.634 288.997 166.758 289.013 166.88C289.03 167.002 289.082 167.116 289.164 167.207L297.415 176.143L298.316 194.454L311.108 209.601L323.9 209.224L326.101 167.292L296.122 149.982Z" fill="#D68029"></path><path opacity="0.4" d="M296.122 149.982L296.953 166.823L289.672 166.184C289.549 166.174 289.427 166.201 289.32 166.262C289.213 166.323 289.127 166.414 289.072 166.524C289.017 166.634 288.997 166.758 289.013 166.88C289.03 167.002 289.082 167.116 289.164 167.207L297.415 176.143L298.316 194.454L311.108 209.601L323.9 209.224L326.101 167.292L296.122 149.982Z" fill="black"></path><path opacity="0.5" d="M311.107 162.974L323.022 169.848L321.267 204.345L311.107 205.099V162.974Z" fill="#D68029"></path><path d="M320.19 171.602L302.033 161.119L302.795 179.199L316.603 187.165L316.265 195.193L311.108 195.693L305.951 189.236L305.72 184.471L302.888 182.84L303.288 190.829L311.108 200.304L318.935 199.857L319.605 184.564L305.443 176.39L305.073 167.215L319.967 175.812L320.19 171.602Z" fill="white"></path><path d="M175.763 253.512C173.608 259.946 171.761 268.259 168.836 280.782C166.104 292.512 166.088 300.793 169.883 303.641C173.677 306.489 184.553 304.75 191.434 290.095C193.589 285.477 201.694 271.353 201.694 271.353C201.694 271.353 207.697 269.19 209.768 267.566C209.768 267.566 229.779 268.151 239.508 266.158C249.237 264.164 259.581 252.303 255.594 251.118C248.436 249.009 229.364 248.209 213.208 247.17L175.763 253.512Z" fill="#37474F"></path><path d="M229.981 263.648C225.601 264.664 219.113 263.31 215.457 262.248C215.675 260.97 215.633 259.661 215.334 258.399C215.13 260.115 214.577 261.77 213.71 263.264C213.109 263.602 212.601 263.887 212.232 264.079C209.8 265.319 203.119 268.736 201.88 267.658C200.015 265.249 197.365 263.569 194.391 262.91C196.484 264.318 202.549 268.667 200.394 273.685L201.71 271.376C201.71 271.376 207.714 269.213 209.784 267.589C209.784 267.589 220.983 267.912 230.689 267.251L242.234 259.269C242.234 259.269 236.692 258.923 229.981 263.648Z" fill="#263238"></path><path d="M218.759 277.302C217.299 278.735 215.513 279.791 213.556 280.381C212.912 280.524 212.244 280.524 211.601 280.381C209.353 279.912 205.751 279.919 204.489 284.407C203.065 289.494 197.377 291.911 195.861 295.398C195.091 297.137 194.706 302.179 195.445 305.28C196.061 307.82 200.979 305.935 202.803 302.833C204.627 299.731 208.537 295.644 211.116 293.289C215.31 290.926 219.967 287.462 221.953 286.069L218.759 277.302Z" fill="#F28F8F"></path><path d="M248.345 249.386C261.252 250.248 261.691 257.083 258.466 262.286C254.995 267.866 242.303 275.371 235.376 279.342C229.057 282.983 218.273 289.433 218.273 289.433C218.273 289.433 212.816 285.169 213.524 280.374C220.667 275.394 230.288 261.216 242.195 259.246L248.345 249.386Z" fill="#263238"></path><path d="M197.391 306.843C196.649 306.954 195.892 306.778 195.275 306.35C194.698 305.942 193.42 302.348 194.505 297.992C195.299 294.758 196.947 291.796 199.277 289.417C200.686 287.924 201.194 286.208 201.702 284.029C202.21 281.851 203.795 279.181 204.896 278.88C205.996 278.58 207.667 279.434 207.667 279.434L197.391 306.843Z" fill="#263238"></path><path d="M214.409 291.449C214.14 292.835 213 293.189 211.777 293.674C210.106 294.336 208.521 296.06 207.012 297.984C205.989 299.292 205.142 300.601 204.211 301.971C203.279 303.341 202.494 305.319 201.494 306.366C200.024 307.905 197.053 307.613 196.237 305.434C195.529 303.556 195.228 298.892 197.368 294.428C198.538 291.988 201.771 289.625 202.617 286.308C203.179 284.091 203.957 281.451 205.588 279.766C206.558 278.765 207.443 278.996 208.667 279.35C210.276 279.794 211.911 280.136 213.562 280.374C213.526 281.742 213.114 283.073 212.369 284.222C212.075 284.588 211.865 285.013 211.754 285.469C211.724 285.784 211.753 286.103 211.838 286.408C211.931 286.839 212.084 287.339 212.508 287.462C212.684 287.487 212.861 287.5 213.039 287.501C213.701 287.586 214.024 288.348 214.193 288.994C214.409 289.688 214.5 290.415 214.463 291.141C214.451 291.245 214.433 291.348 214.409 291.449Z" fill="#D68029"></path><path opacity="0.4" d="M214.409 291.449C214.14 292.835 213 293.189 211.777 293.674C210.106 294.336 208.521 296.06 207.012 297.984C205.989 299.292 205.142 300.601 204.211 301.971C203.279 303.341 202.494 305.319 201.494 306.366C200.024 307.905 197.053 307.613 196.237 305.434C195.529 303.556 195.228 298.892 197.368 294.428C198.538 291.988 201.771 289.625 202.617 286.308C203.179 284.091 203.957 281.451 205.588 279.766C206.558 278.765 207.443 278.996 208.667 279.35C210.276 279.794 211.911 280.136 213.562 280.374C213.526 281.742 213.114 283.073 212.369 284.222C212.075 284.588 211.865 285.013 211.754 285.469C211.724 285.784 211.753 286.103 211.838 286.408C211.931 286.839 212.084 287.339 212.508 287.462C212.684 287.487 212.861 287.5 213.039 287.501C213.701 287.586 214.024 288.348 214.193 288.994C214.409 289.688 214.5 290.415 214.463 291.141C214.451 291.245 214.433 291.348 214.409 291.449Z" fill="black"></path><path d="M208.521 296.19C208.842 296.088 209.132 295.907 209.365 295.664C209.597 295.42 209.765 295.122 209.852 294.797C210.199 293.858 209.783 292.011 209.083 290.795C209.026 290.672 208.937 290.566 208.826 290.488C208.715 290.41 208.586 290.362 208.45 290.351C208.315 290.339 208.179 290.363 208.057 290.421C207.934 290.479 207.828 290.568 207.751 290.679C207.647 290.81 207.585 290.969 207.574 291.135C207.563 291.302 207.603 291.468 207.69 291.611C208.555 292.97 208.854 294.614 208.521 296.19Z" fill="#F5F5F5"></path><path d="M206.313 298.908C206.648 298.748 206.94 298.51 207.164 298.214C207.388 297.918 207.537 297.573 207.599 297.207C207.793 295.699 207.505 294.168 206.775 292.835C206.715 292.72 206.628 292.622 206.52 292.55C206.413 292.478 206.289 292.434 206.16 292.422C206.031 292.411 205.901 292.432 205.783 292.484C205.664 292.536 205.561 292.617 205.482 292.719C205.381 292.844 205.322 292.997 205.312 293.157C205.302 293.317 205.343 293.476 205.428 293.612C205.966 294.371 206.325 295.241 206.478 296.158C206.631 297.076 206.575 298.015 206.313 298.908Z" fill="#F5F5F5"></path><path d="M204.211 301.971C204.528 301.777 204.8 301.517 205.008 301.209C205.217 300.901 205.357 300.552 205.419 300.185C205.583 298.725 205.278 297.251 204.549 295.975C204.49 295.86 204.402 295.762 204.295 295.69C204.187 295.618 204.063 295.574 203.934 295.563C203.805 295.551 203.676 295.572 203.557 295.624C203.439 295.676 203.335 295.757 203.256 295.86C203.154 295.985 203.093 296.139 203.083 296.301C203.074 296.463 203.115 296.623 203.202 296.76C203.768 297.488 204.153 298.34 204.329 299.245C204.504 300.15 204.463 301.084 204.211 301.971Z" fill="#F5F5F5"></path><path d="M213.609 279.211C215.918 278.634 219.259 277.818 220.644 275.986C222.03 274.155 224.916 272.384 228.811 274.947C231.274 276.571 234.198 277.102 237.123 277.295C238.424 277.264 239.726 277.325 241.018 277.48C242.555 277.9 244.012 278.574 245.328 279.473C246.161 279.941 246.891 280.572 247.475 281.328C247.951 282.036 248.21 282.867 248.223 283.719C248.235 284.572 247.999 285.41 247.545 286.131C247.386 286.391 247.18 286.618 246.937 286.8C246.633 287.014 246.286 287.159 245.921 287.224C244.574 287.524 243.45 287.101 242.18 286.747C241.125 286.454 240.048 286.231 238.978 286.038C236.543 285.582 234.079 285.294 231.604 285.176C230.55 285.138 228.356 284.969 227.302 285.046C222.899 285.346 216.673 287.824 216.673 287.824L213.609 279.211Z" fill="#FFA8A7"></path><path d="M167.828 300.324C168.552 304.772 173.547 306.92 184.253 304.78C194.959 302.64 220.428 286.592 220.428 286.592C220.428 286.592 219.435 280.435 213.578 278.788C213.578 278.788 208.252 279.758 199.554 281.651C195.633 282.513 191.762 283.584 187.955 284.861C182.075 292.75 175.964 289.563 173.762 292.334C170.137 296.945 167.828 300.324 167.828 300.324Z" fill="#37474F"></path><path d="M248.646 286.377C249.279 285.97 249.733 285.337 249.916 284.607C250.077 283.922 248.676 280.381 244.997 277.795C242.269 275.889 239.08 274.749 235.761 274.493C233.722 274.301 232.205 273.346 230.373 272.053C228.542 270.76 225.609 269.79 224.578 270.291C223.546 270.791 222.861 272.531 222.861 272.531L248.646 286.377Z" fill="#263238"></path><path d="M225.716 286.008C226.832 286.87 227.925 286.385 229.165 285.946C230.858 285.346 233.19 285.592 235.591 286.046C237.223 286.354 238.724 286.816 240.325 287.201C241.926 287.586 243.819 288.586 245.266 288.74C247.375 288.917 249.423 286.747 248.607 284.576C247.899 282.698 245.051 278.988 240.494 277.041C238.016 275.979 234.029 276.325 231.204 274.393C229.319 273.1 226.994 271.615 224.654 271.43C223.269 271.314 222.761 272.084 222.068 273.139C221.152 274.534 220.15 275.871 219.066 277.141C219.999 278.152 221.192 278.887 222.515 279.265C222.975 279.349 223.412 279.527 223.8 279.789C224.028 280.011 224.215 280.272 224.354 280.558C224.57 280.935 224.777 281.42 224.539 281.79C224.424 281.923 224.3 282.049 224.169 282.167C223.731 282.675 223.992 283.452 224.285 284.053C224.583 284.717 224.994 285.324 225.501 285.846C225.57 285.904 225.642 285.958 225.716 286.008Z" fill="#D68029"></path><path opacity="0.4" d="M225.716 286.008C226.832 286.87 227.925 286.385 229.165 285.946C230.858 285.346 233.19 285.592 235.591 286.046C237.223 286.354 238.724 286.816 240.325 287.201C241.926 287.586 243.819 288.586 245.266 288.74C247.375 288.917 249.423 286.747 248.607 284.576C247.899 282.698 245.051 278.988 240.494 277.041C238.016 275.979 234.029 276.325 231.204 274.393C229.319 273.1 226.994 271.615 224.654 271.43C223.269 271.314 222.761 272.084 222.068 273.139C221.152 274.534 220.15 275.871 219.066 277.141C219.999 278.152 221.192 278.887 222.515 279.265C222.975 279.349 223.412 279.527 223.8 279.789C224.028 280.011 224.215 280.272 224.354 280.558C224.57 280.935 224.777 281.42 224.539 281.79C224.424 281.923 224.3 282.049 224.169 282.167C223.731 282.675 223.992 283.452 224.285 284.053C224.583 284.717 224.994 285.324 225.501 285.846C225.57 285.904 225.642 285.958 225.716 286.008Z" fill="black"></path><path d="M233.251 285.7C232.943 285.835 232.606 285.89 232.271 285.861C231.936 285.831 231.614 285.717 231.334 285.53C230.449 285.053 229.549 283.391 229.271 282.013C229.233 281.882 229.23 281.744 229.263 281.612C229.295 281.48 229.362 281.359 229.457 281.261C229.552 281.163 229.67 281.092 229.802 281.055C229.933 281.018 230.071 281.017 230.203 281.051C230.366 281.08 230.516 281.158 230.633 281.275C230.75 281.392 230.828 281.542 230.857 281.705C231.101 283.299 231.961 284.733 233.251 285.7Z" fill="#F5F5F5"></path><path d="M236.73 286.285C236.371 286.386 235.994 286.399 235.629 286.322C235.265 286.246 234.924 286.082 234.636 285.846C233.493 284.835 232.701 283.488 232.373 281.997C232.348 281.875 232.353 281.749 232.387 281.629C232.422 281.509 232.485 281.399 232.571 281.309C232.658 281.219 232.765 281.151 232.883 281.111C233.001 281.072 233.128 281.061 233.251 281.082C233.408 281.11 233.553 281.187 233.665 281.301C233.776 281.416 233.85 281.562 233.874 281.72C233.977 282.647 234.288 283.538 234.782 284.328C235.276 285.118 235.942 285.787 236.73 286.285Z" fill="#F5F5F5"></path><path d="M240.324 287.239C239.958 287.302 239.582 287.286 239.222 287.192C238.862 287.098 238.527 286.927 238.238 286.693C237.154 285.702 236.413 284.392 236.122 282.952C236.091 282.827 236.092 282.696 236.125 282.571C236.159 282.446 236.223 282.332 236.311 282.238C236.4 282.145 236.511 282.075 236.634 282.036C236.757 281.996 236.888 281.989 237.015 282.013C237.173 282.04 237.32 282.116 237.433 282.231C237.546 282.345 237.621 282.493 237.646 282.652C237.703 283.572 237.975 284.467 238.44 285.264C238.905 286.06 239.55 286.737 240.324 287.239Z" fill="#F5F5F5"></path><path d="M195.374 282.621C195.374 282.621 188.185 284.03 182.852 287.616C182.852 287.616 188.332 281.197 196.798 280.05L195.374 282.621Z" fill="#263238"></path><path d="M222.299 227.804L213.339 202.497L210.977 203.344L212.393 231.299L213.932 235.455C217.942 233.362 221.213 231.822 222.299 227.804Z" fill="#FFA8A7"></path><path d="M201.225 195.847C206.774 195.909 211.839 197.925 213.94 202.274C216.041 206.623 222.475 226.38 222.475 226.38C222.475 226.38 217.195 232.592 209.391 232.091L201.225 195.847Z" fill="#D68029"></path><path opacity="0.1" d="M201.225 195.847C206.774 195.909 211.839 197.925 213.94 202.274C216.041 206.623 222.475 226.38 222.475 226.38C222.475 226.38 217.195 232.592 209.391 232.091L201.225 195.847Z" fill="black"></path><path d="M189.841 196.186C182.059 197.625 176.872 199.265 175.402 200.719C172.092 207.5 176.395 230.229 176.395 230.229L177.164 241.043L175.794 253.512C184.207 260.624 209.953 257.129 214.54 247.169C214.54 247.169 213.255 214.751 213.255 209.001C213.255 203.251 210.068 196.363 201.255 195.847L189.841 196.186Z" fill="#FAFAFA"></path><path d="M184.175 248.624C181.92 245.168 182.012 236.379 182.012 236.379C182.012 236.379 185.953 213.442 185.045 207.977L174.646 217.968C175.308 224.533 176.394 230.283 176.394 230.283L177.163 241.097L175.793 253.566C182.52 259.253 200.331 258.184 209.544 252.388C196.021 257.753 186.423 252.08 184.175 248.624Z" fill="#EBEBEB"></path><path d="M185.531 177.944C185.531 177.944 186.701 186.572 187.325 188.019C187.743 188.915 188.49 189.615 189.41 189.974L189.734 183.994L185.531 177.944Z" fill="#263238"></path><path d="M188.724 165.914C188.098 165.791 187.452 165.813 186.835 165.979C186.219 166.144 185.649 166.449 185.168 166.869C183.567 168.277 184.044 173.103 185.545 177.906L188.924 178.552L188.724 165.914Z" fill="#263238"></path><path d="M189.94 178.629C189.232 178.984 188.355 177.606 187.578 176.659C186.8 175.712 184.145 174.304 182.559 177.09C180.974 179.876 183.252 184.017 185.369 184.856C189.009 186.303 189.748 183.956 189.748 183.956L188.978 197.687C192.357 205.045 205.842 202.42 201.239 197.363L201.486 193.877C203.349 194.151 205.229 194.293 207.112 194.3C209.891 194.077 211.153 192.268 212.207 189.359C213.901 184.695 214.701 180.892 214.262 171.418C213.793 161.05 201.847 160.049 195.09 163.628C188.332 167.207 189.94 178.629 189.94 178.629Z" fill="#FFA8A7"></path><path d="M189.702 160.334C192.039 159.536 194.458 159.002 196.914 158.741C202.209 157.971 207.597 157.355 212.538 155.3C213.121 154.981 213.786 154.844 214.447 154.908C215.694 155.162 216.125 156.724 216.079 157.987C216.04 159.165 215.801 160.329 215.371 161.427C215.776 161.09 216.299 160.928 216.824 160.976C217.349 161.023 217.834 161.277 218.172 161.681C218.492 162.101 218.712 162.588 218.814 163.106C218.917 163.623 218.9 164.157 218.765 164.667C218.456 165.811 217.874 166.863 217.07 167.733C216.266 168.603 215.263 169.265 214.147 169.663C211.91 170.443 209.532 170.735 207.174 170.517C203.878 170.365 200.607 169.869 197.414 169.039C196.652 168.788 195.853 168.671 195.051 168.693C194.648 168.707 194.258 168.834 193.924 169.06C193.59 169.286 193.328 169.602 193.165 169.97C192.727 171.24 191.703 180.038 189.887 179.976C189.548 179.976 188.432 177.667 187.647 176.79C186.669 175.712 186.177 168.069 186.107 166.661C186.089 166.55 186.047 166.445 185.984 166.353C184.922 164.598 186.523 161.904 188.055 161.104C188.589 160.817 189.139 160.56 189.702 160.334Z" fill="#263238"></path><path d="M186.631 166.491C186.165 166.962 185.532 167.228 184.87 167.232C184.209 167.236 183.572 166.976 183.102 166.511C182.631 166.045 182.365 165.412 182.361 164.75C182.358 164.088 182.617 163.452 183.083 162.982L186.631 166.491Z" fill="#263238"></path><path d="M201.479 193.877C201.479 193.877 195.406 192.83 193.351 191.568C192.143 190.817 191.188 189.72 190.611 188.42C190.839 189.697 191.323 190.914 192.035 191.999C193.451 194.115 201.31 196.186 201.31 196.186L201.479 193.877Z" fill="#F28F8F"></path><path d="M202.093 177.944C202.066 178.184 201.968 178.41 201.812 178.595C201.657 178.78 201.451 178.915 201.219 178.983C200.988 179.052 200.741 179.051 200.51 178.98C200.279 178.909 200.074 178.773 199.921 178.586C199.767 178.4 199.671 178.173 199.646 177.933C199.62 177.693 199.665 177.451 199.776 177.236C199.887 177.022 200.059 176.845 200.27 176.727C200.481 176.609 200.721 176.556 200.962 176.574C201.126 176.59 201.286 176.637 201.432 176.715C201.578 176.792 201.707 176.897 201.812 177.024C201.917 177.152 201.996 177.298 202.044 177.456C202.093 177.614 202.109 177.78 202.093 177.944Z" fill="#263238"></path><path d="M201.14 173.203L198.408 174.458C198.247 174.083 198.237 173.661 198.38 173.279C198.524 172.897 198.809 172.586 199.177 172.41C199.358 172.33 199.553 172.287 199.75 172.283C199.948 172.279 200.144 172.316 200.327 172.39C200.51 172.464 200.677 172.574 200.816 172.714C200.956 172.853 201.066 173.02 201.14 173.203Z" fill="#263238"></path><path d="M201.478 186.472L204.203 187.735C204.126 187.917 204.014 188.082 203.872 188.22C203.73 188.358 203.562 188.467 203.377 188.538C203.193 188.61 202.996 188.644 202.798 188.638C202.6 188.632 202.405 188.587 202.225 188.504C201.858 188.332 201.574 188.022 201.434 187.642C201.295 187.261 201.31 186.841 201.478 186.472Z" fill="#F28F8F"></path><path d="M212.962 175.143L210.707 173.118C210.831 172.965 210.985 172.838 211.16 172.746C211.334 172.654 211.526 172.599 211.723 172.584C211.92 172.568 212.117 172.594 212.304 172.658C212.491 172.722 212.662 172.824 212.808 172.957C213.109 173.232 213.292 173.612 213.321 174.019C213.349 174.426 213.221 174.828 212.962 175.143Z" fill="#263238"></path><path d="M211.984 178.345C211.956 178.584 211.859 178.811 211.703 178.996C211.548 179.18 211.341 179.315 211.11 179.384C210.878 179.452 210.632 179.451 210.401 179.38C210.17 179.31 209.965 179.173 209.811 178.987C209.658 178.801 209.562 178.573 209.536 178.333C209.511 178.093 209.556 177.851 209.667 177.637C209.778 177.422 209.95 177.245 210.16 177.127C210.371 177.01 210.612 176.957 210.853 176.975C211.184 177.008 211.488 177.17 211.7 177.427C211.912 177.683 212.014 178.013 211.984 178.345Z" fill="#263238"></path><path d="M205.726 177.082L205.572 184.487L209.528 183.463L205.726 177.082Z" fill="#F28F8F"></path><path d="M166.412 252.534C161.424 247.516 160.624 245.876 161.301 242.744C162.641 236.586 168.113 216.875 170.191 211.018C172.8 203.659 173.963 200.719 178.304 199.772C181.806 202.543 185.231 212.919 180.52 222.263L174.84 242.659" fill="#FFA8A7"></path><path d="M182.029 197.956C175.325 198.726 172.485 201.435 170.068 208.678C167.651 215.92 163.402 232.592 163.402 232.592C163.402 232.592 169.029 238.688 176.918 238.049L183.491 216.267C183.491 216.267 188.117 200.427 182.029 197.956Z" fill="#D68029"></path><path opacity="0.1" d="M182.029 197.956C175.325 198.726 172.485 201.435 170.068 208.678C167.651 215.92 163.402 232.592 163.402 232.592C163.402 232.592 169.029 238.688 176.918 238.049L183.491 216.267C183.491 216.267 188.117 200.427 182.029 197.956Z" fill="black"></path><path d="M180.475 272.985V273.754C180.476 274.141 180.579 274.52 180.772 274.854C180.965 275.189 181.242 275.468 181.575 275.663L202.557 287.732C202.89 287.923 203.269 288.024 203.654 288.024C204.038 288.024 204.417 287.923 204.75 287.732L243.234 265.511C243.569 265.319 243.848 265.043 244.041 264.709C244.234 264.375 244.336 263.996 244.335 263.61V263.071L203.657 286.562L180.475 272.985Z" fill="#EBEBEB"></path><path d="M244.334 263.079L221.521 249.909C221.321 249.792 221.094 249.731 220.863 249.731C220.632 249.731 220.404 249.792 220.205 249.909L180.62 272.761C180.575 272.787 180.538 272.824 180.512 272.868C180.486 272.913 180.473 272.964 180.473 273.015C180.473 273.067 180.486 273.118 180.512 273.162C180.538 273.207 180.575 273.244 180.62 273.269L203.657 286.569L244.334 263.079Z" fill="#FAFAFA"></path><path d="M234.19 249.732C231.057 244.175 222.298 227.804 222.298 227.804L213.939 235.501C217.349 241.951 226.608 254.928 226.608 254.928C230.865 257.706 235.991 252.934 234.19 249.732Z" fill="#FFA8A7"></path><path d="M203.442 284.63L191.135 277.533L227.125 256.76L239.494 263.818L203.442 284.63Z" fill="#E0E0E0"></path><path d="M197.4 264.887L197.624 265.018L203.658 268.497L214.387 262.309L214.603 262.178L208.345 258.568L197.4 264.887Z" fill="#E0E0E0"></path><path d="M197.621 265.018L203.655 268.497L214.385 262.309L208.343 258.823L197.621 265.018Z" fill="#E6E6E6"></path><path d="M203.656 286.569V288.009C204.04 288.011 204.418 287.91 204.749 287.716L243.233 265.496C243.568 265.304 243.846 265.027 244.04 264.693C244.233 264.359 244.335 263.98 244.334 263.594V263.056L203.656 286.569Z" fill="#EBEBEB"></path><path d="M203.656 286.569V288.009C204.04 288.011 204.418 287.91 204.749 287.716L243.233 265.496C243.568 265.304 243.846 265.027 244.04 264.693C244.233 264.359 244.335 263.98 244.334 263.594V263.056L203.656 286.569Z" fill="#E0E0E0"></path><path d="M204.273 286.893C204.637 287.035 205.027 287.094 205.417 287.065C205.806 287.035 206.183 286.919 206.521 286.723L244.836 264.595C245.168 264.405 245.455 264.143 245.674 263.829C245.894 263.515 246.041 263.156 246.106 262.778L250.3 237.764C250.312 237.62 250.312 237.476 250.3 237.333C250.301 236.989 250.233 236.649 250.101 236.332C249.969 236.015 249.775 235.727 249.531 235.486L209.715 258.476C209.469 258.617 209.257 258.811 209.095 259.044C208.932 259.277 208.824 259.543 208.776 259.823L204.273 286.893Z" fill="#D68029"></path><g opacity="0.7"><path d="M204.273 286.893C204.637 287.035 205.027 287.094 205.417 287.065C205.806 287.035 206.183 286.919 206.521 286.723L244.836 264.595C245.168 264.405 245.455 264.143 245.674 263.829C245.894 263.515 246.041 263.156 246.106 262.778L250.3 237.764C250.312 237.62 250.312 237.476 250.3 237.333C250.301 236.989 250.233 236.649 250.101 236.332C249.969 236.015 249.775 235.727 249.531 235.486L209.715 258.476C209.469 258.617 209.257 258.811 209.095 259.044C208.932 259.277 208.824 259.543 208.776 259.823L204.273 286.893Z" fill="white"></path></g><path d="M203.656 286.569L203.918 286.723C204.032 286.787 204.15 286.844 204.272 286.893L208.805 259.823C208.853 259.543 208.962 259.277 209.124 259.044C209.286 258.811 209.498 258.617 209.744 258.476L249.56 235.486C249.402 235.327 249.223 235.19 249.029 235.078L209.129 258.114C208.883 258.256 208.672 258.45 208.511 258.683C208.35 258.916 208.243 259.182 208.197 259.461L203.656 286.569Z" fill="#FAFAFA"></path><path d="M225.856 263.802C226.133 262.124 227.864 259.9 229.704 258.83C231.544 257.76 232.829 258.253 232.544 259.931C232.259 261.609 230.535 263.825 228.696 264.895C226.856 265.965 225.555 265.48 225.856 263.802Z" fill="#D68029"></path><path d="M174.84 242.659C174.84 242.659 177.719 247.439 181.044 251.895C184.369 256.352 187.971 261.047 190.665 261.84C193.197 262.609 196.168 263.479 197.03 264.272C199.101 266.373 201.029 268.61 202.803 270.968C203.572 272.284 205.504 274.963 202.803 275.817C200.332 276.587 198.315 275.54 196.314 274.162C195.371 273.487 194.473 272.749 193.628 271.953C191.623 272.173 189.6 271.77 187.832 270.799C186.293 269.937 183.753 268.428 183.753 268.428C181.644 266.981 171.169 257.283 166.412 252.511" fill="#FFA8A7"></path></svg>