<svg xmlns="http://www.w3.org/2000/svg" width="447" height="333" viewBox="0 0 447 333" fill="none"><path d="M446.908 292.635H0V292.859H446.908V292.635Z" fill="#EBEBEB"></path><path d="M402.127 307.017H372.523V307.24H402.127V307.017Z" fill="#EBEBEB"></path><path d="M296.049 309.448H288.281V309.671H296.049V309.448Z" fill="#EBEBEB"></path><path d="M371.631 298.722H354.479V298.946H371.631V298.722Z" fill="#EBEBEB"></path><path d="M85.4945 300.224H46.8906V300.447H85.4945V300.224Z" fill="#EBEBEB"></path><path d="M99.1149 300.224H93.457V300.447H99.1149V300.224Z" fill="#EBEBEB"></path><path d="M201.242 303.996H117.51V304.219H201.242V303.996Z" fill="#EBEBEB"></path><path d="M211.836 252.771H39.249C37.897 252.769 36.6012 252.23 35.646 251.273C34.6908 250.316 34.1543 249.02 34.1543 247.667V5.059C34.1661 3.71472 34.7077 2.42937 35.6617 1.48214C36.6156 0.534911 37.9047 0.00230282 39.249 0H211.836C213.19 0 214.488 0.537709 215.445 1.49484C216.402 2.45196 216.94 3.75011 216.94 5.10369V247.667C216.94 249.021 216.402 250.319 215.445 251.276C214.488 252.233 213.19 252.771 211.836 252.771ZM39.249 0.178764C37.9563 0.181132 36.7173 0.696341 35.804 1.61131C34.8907 2.52627 34.3777 3.76623 34.3778 5.059V247.667C34.3777 248.96 34.8907 250.2 35.804 251.115C36.7173 252.03 37.9563 252.545 39.249 252.548H211.836C213.13 252.545 214.37 252.03 215.284 251.116C216.199 250.201 216.714 248.961 216.716 247.667V5.059C216.714 3.76541 216.199 2.52547 215.284 1.61076C214.37 0.696051 213.13 0.181127 211.836 0.178764H39.249Z" fill="#EBEBEB"></path><path d="M405.176 252.771H232.58C231.227 252.769 229.931 252.23 228.974 251.274C228.017 250.317 227.479 249.02 227.477 247.667V5.059C227.491 3.71391 228.034 2.42857 228.99 1.48158C229.945 0.534599 231.235 0.0022777 232.58 0H405.176C406.519 0.00465186 407.806 0.5383 408.758 1.48528C409.71 2.43226 410.25 3.71627 410.262 5.059V247.667C410.262 249.018 409.727 250.313 408.773 251.27C407.82 252.227 406.527 252.766 405.176 252.771ZM232.58 0.178764C231.287 0.181127 230.047 0.696051 229.132 1.61076C228.217 2.52547 227.702 3.76541 227.7 5.059V247.667C227.702 248.961 228.217 250.201 229.132 251.116C230.047 252.03 231.287 252.545 232.58 252.548H405.176C406.47 252.545 407.71 252.03 408.624 251.116C409.539 250.201 410.054 248.961 410.056 247.667V5.059C410.054 3.76541 409.539 2.52547 408.624 1.61076C407.71 0.696051 406.47 0.181127 405.176 0.178764H232.58Z" fill="#EBEBEB"></path><path d="M250.285 182.607H56.7832V285.199H250.285V182.607Z" fill="#F0F0F0"></path><path d="M245.594 280.515V187.308H61.4766V280.515H245.594Z" fill="#E6E6E6"></path><path d="M82.0703 280.506V187.299H61.4768L61.4768 280.506H82.0703Z" fill="#E0E0E0"></path><path d="M261.969 285.208V182.616H250.296V285.208H261.969Z" fill="#E6E6E6"></path><path d="M245.594 236.414V231.409H61.4766V236.414H245.594Z" fill="#F0F0F0"></path><path d="M69.4688 292.636H65.4288L63.4355 285.199H69.4688V292.636Z" fill="#F0F0F0"></path><path d="M237.604 292.636H241.644L243.637 285.199H237.604V292.636Z" fill="#F0F0F0"></path><path d="M85.2071 292.636H81.176L79.1738 285.199H85.2071V292.636Z" fill="#E6E6E6"></path><path d="M253.352 292.636H257.383L259.385 285.199H253.352V292.636Z" fill="#E6E6E6"></path><path d="M87.9251 190.714H78.1289V231.409H87.9251V190.714Z" fill="#F0F0F0"></path><path d="M87.9331 231.4H114.131V190.705H87.9331V231.4Z" fill="#E0E0E0"></path><path d="M96.6293 195.37H91.1055V231.409H96.6293V195.37Z" fill="#FAFAFA"></path><path d="M96.6298 231.4H111.387V195.361H96.6298V231.4Z" fill="#EBEBEB"></path><path d="M113.426 231.4H105.248L100.537 197.444H108.716L113.426 231.4Z" fill="#FAFAFA"></path><path d="M113.425 231.4H135.288L130.578 197.444H108.715L113.425 231.4Z" fill="#EBEBEB"></path><path d="M151.161 250.787H141.365V280.506H151.161V250.787Z" fill="#F0F0F0"></path><path d="M151.171 280.506H165.713V250.787H151.171V280.506Z" fill="#E0E0E0"></path><path d="M161.924 244.477H156.4V280.515H161.924V244.477Z" fill="#FAFAFA"></path><path d="M161.923 280.506H176.68V244.468H161.923V280.506Z" fill="#EBEBEB"></path><path d="M80.5509 280.506H72.3725L67.6621 246.55H75.8405L80.5509 280.506Z" fill="#F0F0F0"></path><path d="M80.5503 280.506H102.413L97.7026 246.55H75.8398L80.5503 280.506Z" fill="#E0E0E0"></path><path d="M161.654 231.4V221.604H120.959V231.4H161.654Z" fill="#E6E6E6"></path><path d="M176.68 231.4V221.604H161.655V231.4H176.68Z" fill="#E0E0E0"></path><path d="M176.68 230.292V222.721H162.969V230.292H176.68Z" fill="#F0F0F0"></path><path d="M164.158 221.604V213.962H123.463V221.604H164.158Z" fill="#F0F0F0"></path><path d="M179.184 221.604V213.962H164.159V221.604H179.184Z" fill="#E6E6E6"></path><path d="M179.184 220.728V214.829H165.472V220.728H179.184Z" fill="#F0F0F0"></path><path d="M216.857 280.506V269.95H173.034V280.506H216.857Z" fill="#F5F5F5"></path><path d="M233.055 280.506V269.95H216.868V280.506H233.055Z" fill="#E0E0E0"></path><path d="M233.045 279.309V271.157H218.279V279.309H233.045Z" fill="#F0F0F0"></path><path d="M214.561 261.727V253.191H179.13V261.727H214.561Z" fill="#FAFAFA"></path><path d="M227.645 261.727V253.191H214.559V261.727H227.645Z" fill="#E0E0E0"></path><path d="M227.654 260.753V254.166H215.713V260.753H227.654Z" fill="#F5F5F5"></path><path d="M122.57 280.48V271.944H87.1395V280.48H122.57Z" fill="#FAFAFA"></path><path d="M135.645 280.471V271.935H122.559V280.471H135.645Z" fill="#E0E0E0"></path><path d="M135.645 279.496V272.909H123.703V279.496H135.645Z" fill="#F5F5F5"></path><path d="M219.557 269.959V261.727H175.733V269.959H219.557Z" fill="#F0F0F0"></path><path d="M235.734 269.959V261.727H219.547V269.959H235.734Z" fill="#E6E6E6"></path><path d="M235.744 269.021V262.666H220.978V269.021H235.744Z" fill="#F0F0F0"></path><path d="M189.203 200.018H181.266V232.982H189.203V200.018Z" fill="#F0F0F0"></path><path d="M189.204 232.982H210.432V200.018H189.204V232.982Z" fill="#E0E0E0"></path><path d="M206.767 203.79H199.143V232.991H206.767V203.79Z" fill="#FAFAFA"></path><path d="M206.767 232.982H219.799V203.781H206.767V232.982Z" fill="#EBEBEB"></path><path d="M292.027 233.17H317.894C320.857 233.169 323.726 232.123 325.994 230.215C328.262 228.307 329.784 225.659 330.291 222.739L337.137 183.411C337.908 178.993 340.213 174.989 343.647 172.105C347.081 169.22 351.423 167.641 355.908 167.644H381.9C383.657 167.643 385.394 168.026 386.987 168.767C388.581 169.508 389.993 170.59 391.124 171.935C392.255 173.28 393.078 174.856 393.535 176.553C393.992 178.25 394.072 180.026 393.77 181.758L386.619 222.936C385.85 227.354 383.545 231.358 380.11 234.241C376.676 237.124 372.333 238.701 367.849 238.694H285.457C285.728 237.148 286.535 235.746 287.737 234.736C288.938 233.726 290.457 233.172 292.027 233.17Z" fill="#E0E0E0"></path><path d="M363.783 238.694H366.76L372.149 292.635H369.173L363.783 238.694Z" fill="#EBEBEB"></path><path d="M339.945 238.694H342.922L348.302 292.635H345.326L339.945 238.694Z" fill="#EBEBEB"></path><path d="M342.027 241.473H365.338V238.684H342.027V241.473Z" fill="#EBEBEB"></path><path d="M296.086 238.694H293.109L287.729 292.635H290.705L296.086 238.694Z" fill="#EBEBEB"></path><path d="M319.933 238.694H316.956L311.566 292.635H314.552L319.933 238.694Z" fill="#EBEBEB"></path><path d="M294.558 241.473H317.869V238.684H294.558V241.473Z" fill="#EBEBEB"></path><path d="M102.084 168.171C102.084 172.002 103.606 175.676 106.315 178.385C109.023 181.094 112.697 182.615 116.528 182.615C120.359 182.615 124.033 181.094 126.742 178.385C129.45 175.676 130.972 172.002 130.972 168.171H102.084Z" fill="#E0E0E0"></path><path d="M124.447 171.479C124.529 174.377 125.738 177.128 127.817 179.149C129.896 181.17 132.681 182.3 135.58 182.3C138.479 182.3 141.264 181.17 143.342 179.149C145.421 177.128 146.63 174.377 146.712 171.479H124.447Z" fill="#EBEBEB"></path><path d="M330.409 38.5146H120.961V139.418H330.409V38.5146Z" fill="#F5F5F5"></path><path d="M178.165 130.613C198.666 130.613 215.285 113.994 215.285 93.4932C215.285 72.9923 198.666 56.373 178.165 56.373C157.664 56.373 141.045 72.9923 141.045 93.4932C141.045 113.994 157.664 130.613 178.165 130.613Z" fill="#FAFAFA"></path><path d="M331.748 136.834H119.619V143.636H331.748V136.834Z" fill="#EBEBEB"></path><path d="M262.407 46.2639H188.971C188.649 46.2639 188.34 46.392 188.112 46.62C187.884 46.8479 187.756 47.1571 187.756 47.4795C187.756 47.8019 187.884 48.1111 188.112 48.3391C188.34 48.567 188.649 48.6951 188.971 48.6951H262.407C262.73 48.6951 263.039 48.567 263.267 48.3391C263.495 48.1111 263.623 47.8019 263.623 47.4795C263.623 47.1571 263.495 46.8479 263.267 46.62C263.039 46.392 262.73 46.2639 262.407 46.2639Z" fill="#EBEBEB"></path><path d="M143.904 63.1926C143.904 63.1926 144.154 72.2291 143.01 74.9195C147.282 76.1172 155.425 76.0993 155.425 76.0993C155.425 76.0993 156.81 67.4204 156.319 63.9792C153.941 63.4608 143.904 63.1926 143.904 63.1926Z" fill="#E6E6E6"></path><path d="M143.905 63.1926C143.905 63.1926 143.297 72.2112 142.117 74.9016C145.943 75.7988 149.825 76.4349 153.737 76.8054C153.737 76.8054 156.901 67.4293 156.329 63.9792C153.942 63.4608 143.905 63.1926 143.905 63.1926Z" fill="white"></path><path d="M168.753 83.6165C168.753 83.6165 170.058 97.0774 168.619 101.198C175.117 102.557 186.558 101.403 186.558 101.403C186.558 101.403 188.435 88.5772 187.398 83.5272C183.698 82.9551 168.753 83.6165 168.753 83.6165Z" fill="#E6E6E6"></path><path d="M167.485 82.2311C167.485 82.2311 167.101 98.8292 165.697 102.959C172.204 104.308 185.737 103.361 185.737 103.361C185.737 103.361 188.463 87.156 187.256 82.0702C183.511 81.5249 167.485 82.2311 167.485 82.2311Z" fill="white"></path><path d="M236.486 111.334C236.486 111.334 238.623 120.12 238.051 122.953C242.52 123.239 250.287 121.532 250.287 121.532C250.287 121.532 249.983 112.728 248.821 109.466C246.318 109.492 236.486 111.334 236.486 111.334Z" fill="#E6E6E6"></path><path d="M236.486 111.334C236.486 111.334 237.773 120.272 237.21 123.15C241.679 123.436 249.822 122.399 249.822 122.399C249.822 122.399 250.099 112.746 248.821 109.501C246.318 109.493 236.486 111.334 236.486 111.334Z" fill="white"></path><path d="M278.227 78.486C278.227 78.486 283.679 90.8653 283.589 95.2361C290.186 94.4853 301.555 90.6776 301.555 90.6776C301.555 90.6776 298.471 77.0559 295.906 72.551C292.224 73.1946 278.227 78.486 278.227 78.486Z" fill="#E6E6E6"></path><path d="M276.59 77.5564C276.59 77.5564 281.408 93.4485 281.327 97.8192C287.932 97.0774 300.49 91.9469 300.49 91.9469C300.49 91.9469 298.015 75.6973 295.28 71.2461C291.597 71.8896 276.59 77.5564 276.59 77.5564Z" fill="white"></path><path d="M294.066 76.8504C294.851 76.8504 295.487 76.2141 295.487 75.4292C295.487 74.6443 294.851 74.0081 294.066 74.0081C293.281 74.0081 292.645 74.6443 292.645 75.4292C292.645 76.2141 293.281 76.8504 294.066 76.8504Z" fill="#E6E6E6"></path><path d="M191.991 75.8493C191.919 75.8497 191.848 75.8312 191.785 75.7956C191.68 75.7421 191.6 75.649 191.563 75.5368C191.526 75.4246 191.536 75.3023 191.589 75.1968C192.652 73.1589 194.69 71.9075 196.549 70.9601C206.229 65.9994 217.554 65.0252 226.34 64.7034C232.612 64.3878 238.901 64.7022 245.11 65.6419C251.383 66.6026 257.383 68.8745 262.718 72.3097C262.818 72.3761 262.887 72.4793 262.911 72.5967C262.934 72.714 262.91 72.8359 262.844 72.9354C262.777 73.035 262.674 73.1041 262.557 73.1276C262.439 73.151 262.317 73.1269 262.218 73.0606C256.99 69.6885 251.108 67.4618 244.958 66.5268C238.792 65.6069 232.549 65.3074 226.322 65.6329C217.634 65.9279 206.435 66.8932 196.907 71.7735C195.182 72.6673 193.278 73.8114 192.339 75.6258C192.304 75.6884 192.253 75.7414 192.193 75.7803C192.132 75.8193 192.063 75.8429 191.991 75.8493Z" fill="#E6E6E6"></path><path d="M252.573 76.5555C252.497 76.5553 252.423 76.5354 252.357 76.4978C252.291 76.4602 252.236 76.4062 252.198 76.341C252.134 76.2414 252.112 76.1206 252.137 76.005C252.162 75.8893 252.232 75.7884 252.332 75.7243C253.348 75.1575 254.478 74.8218 255.639 74.7411C259.179 74.3 262.762 74.333 266.293 74.8394C265.296 73.6617 264.399 72.403 263.612 71.0765C263.162 70.3979 262.838 69.644 262.655 68.8509C262.562 68.4114 262.57 67.9566 262.676 67.5203C262.783 67.084 262.987 66.6773 263.272 66.3303C263.312 66.2869 263.36 66.2517 263.413 66.2269C263.467 66.202 263.525 66.1879 263.584 66.1855C263.643 66.183 263.702 66.1921 263.757 66.2124C263.812 66.2326 263.863 66.2636 263.907 66.3035C263.95 66.3434 263.985 66.3915 264.01 66.4449C264.035 66.4984 264.049 66.5563 264.051 66.6152C264.054 66.6742 264.045 66.733 264.025 66.7884C264.004 66.8438 263.973 66.8947 263.933 66.9381C263.734 67.1851 263.594 67.4752 263.526 67.7855C263.458 68.0958 263.462 68.4177 263.54 68.7257C263.702 69.4146 263.986 70.0687 264.38 70.6564C265.36 72.2909 266.507 73.8186 267.804 75.2148C267.866 75.2844 267.905 75.3715 267.916 75.4642C267.928 75.5569 267.91 75.6508 267.866 75.7332C267.821 75.8156 267.751 75.8815 267.665 75.9216C267.58 75.9618 267.485 75.974 267.392 75.9567C263.556 75.2772 259.638 75.1808 255.773 75.6707C254.745 75.7363 253.745 76.0261 252.841 76.5198C252.757 76.5561 252.664 76.5685 252.573 76.5555Z" fill="#E6E6E6"></path><path d="M265.24 109.823C265.122 109.83 265.005 109.79 264.916 109.711C264.827 109.632 264.774 109.522 264.766 109.403C264.759 109.285 264.8 109.168 264.878 109.079C264.957 108.99 265.068 108.937 265.187 108.929C267.645 108.638 270.007 107.796 272.095 106.467C274.184 105.137 275.947 103.355 277.253 101.252C277.283 101.201 277.323 101.157 277.371 101.122C277.418 101.086 277.472 101.061 277.53 101.047C277.587 101.033 277.647 101.03 277.705 101.039C277.763 101.048 277.819 101.069 277.87 101.1C277.97 101.162 278.042 101.262 278.071 101.377C278.099 101.492 278.082 101.614 278.022 101.716C276.642 103.935 274.781 105.815 272.576 107.216C270.371 108.618 267.879 109.506 265.285 109.814L265.24 109.823Z" fill="#E6E6E6"></path><path d="M269.296 113.685C265.635 113.38 262.054 112.443 258.714 110.914C258.647 110.88 258.589 110.831 258.546 110.77C258.502 110.709 258.474 110.639 258.463 110.565C258.451 110.493 258.457 110.418 258.482 110.349C258.507 110.28 258.55 110.219 258.606 110.172C260.054 108.876 261.493 107.535 262.879 106.185C262.92 106.144 262.97 106.11 263.024 106.088C263.079 106.065 263.137 106.053 263.196 106.053C263.255 106.053 263.313 106.065 263.368 106.088C263.422 106.11 263.472 106.144 263.513 106.185C263.596 106.27 263.642 106.384 263.642 106.503C263.642 106.621 263.596 106.735 263.513 106.82C262.28 108.018 261.011 109.207 259.724 110.395C262.789 111.719 266.049 112.534 269.377 112.809C269.494 112.822 269.601 112.879 269.677 112.969C269.754 113.059 269.793 113.174 269.788 113.291C269.772 113.407 269.712 113.513 269.621 113.586C269.529 113.66 269.413 113.695 269.296 113.685Z" fill="#E6E6E6"></path><path d="M218.984 121.05C207.409 121.05 196.058 115.883 190.731 110.681C190.657 110.596 190.618 110.487 190.621 110.374C190.625 110.262 190.671 110.154 190.75 110.074C190.829 109.994 190.935 109.947 191.048 109.942C191.16 109.937 191.27 109.974 191.356 110.047C198.051 116.589 215.579 123.347 229.79 118.431C229.847 118.405 229.908 118.392 229.97 118.391C230.032 118.39 230.093 118.403 230.15 118.427C230.207 118.451 230.259 118.487 230.301 118.533C230.343 118.578 230.376 118.631 230.396 118.69C230.417 118.748 230.425 118.81 230.42 118.872C230.415 118.934 230.398 118.994 230.369 119.049C230.339 119.103 230.299 119.151 230.25 119.19C230.202 119.228 230.145 119.255 230.085 119.271C226.511 120.48 222.758 121.081 218.984 121.05Z" fill="#E6E6E6"></path><path d="M192.528 117.787C192.455 117.786 192.382 117.768 192.317 117.734C192.252 117.7 192.195 117.651 192.153 117.59C190.098 114.552 188.586 111.18 187.684 107.624C187.667 107.551 187.668 107.474 187.687 107.401C187.705 107.328 187.741 107.261 187.791 107.204C187.842 107.15 187.905 107.11 187.975 107.086C188.046 107.063 188.12 107.057 188.193 107.07C190.106 107.383 192.055 107.66 193.976 107.892C194.034 107.899 194.09 107.917 194.14 107.945C194.191 107.974 194.236 108.012 194.271 108.058C194.307 108.104 194.333 108.156 194.349 108.212C194.364 108.268 194.368 108.326 194.361 108.384C194.347 108.501 194.288 108.608 194.196 108.682C194.104 108.756 193.986 108.79 193.869 108.777C192.162 108.572 190.437 108.33 188.73 108.062C189.625 111.279 191.038 114.328 192.913 117.09C192.946 117.138 192.97 117.192 192.982 117.249C192.995 117.306 192.996 117.365 192.985 117.423C192.974 117.48 192.952 117.535 192.919 117.584C192.887 117.632 192.845 117.674 192.796 117.707C192.718 117.761 192.624 117.789 192.528 117.787Z" fill="#E6E6E6"></path><path d="M223.452 333C319.164 333 396.754 328.47 396.754 322.882C396.754 317.294 319.164 312.764 223.452 312.764C127.74 312.764 50.1504 317.294 50.1504 322.882C50.1504 328.47 127.74 333 223.452 333Z" fill="#F5F5F5"></path><path d="M193.313 113.836C198.867 113.836 203.369 109.334 203.369 103.781C203.369 98.2276 198.867 93.7256 193.313 93.7256C187.76 93.7256 183.258 98.2276 183.258 103.781C183.258 109.334 187.76 113.836 193.313 113.836Z" fill="#263238"></path><path d="M194.367 105.023C191.685 107.481 187.815 107.633 185.733 105.354C183.65 103.075 184.124 99.2134 186.805 96.7912C189.487 94.3689 193.357 94.1812 195.439 96.4605C197.522 98.7397 197.048 102.565 194.367 105.023Z" fill="#D68029"></path><path d="M184.207 108.129C187.854 104.481 187.854 98.5669 184.207 94.9193C180.559 91.2716 174.645 91.2716 170.997 94.9193C167.35 98.5669 167.35 104.481 170.997 108.129C174.645 111.776 180.559 111.776 184.207 108.129Z" fill="#263238"></path><path d="M167.455 124.151C166.454 126.833 165.328 129.165 164.13 131.606C162.932 134.046 161.574 136.37 160.135 138.676C158.693 141.016 157.099 143.258 155.362 145.388C154.486 146.461 153.559 147.506 152.582 148.525C152.099 149.044 151.59 149.535 151.072 150.027C150.821 150.277 150.544 150.51 150.285 150.751L149.883 151.118C149.617 151.344 149.336 151.553 149.043 151.743C148.376 152.171 147.627 152.454 146.844 152.574C146.145 152.679 145.433 152.655 144.743 152.503C143.736 152.281 142.782 151.862 141.937 151.269C140.695 150.379 139.571 149.334 138.594 148.159C136.867 146.097 135.312 143.897 133.946 141.58C131.304 137.108 129.001 132.444 127.055 127.628L130.335 125.957C131.631 128.075 132.963 130.229 134.339 132.312C135.716 134.394 137.092 136.477 138.558 138.443C139.941 140.39 141.468 142.23 143.126 143.949C143.823 144.683 144.614 145.323 145.476 145.853C145.68 145.99 145.912 146.079 146.156 146.112C146.156 146.112 146.111 146.112 145.968 146.112C145.83 146.127 145.696 146.169 145.575 146.237H145.512L145.825 145.924C146.03 145.719 146.245 145.522 146.442 145.299C146.853 144.876 147.255 144.438 147.648 143.985C148.435 143.091 149.195 142.144 149.91 141.16C151.358 139.203 152.698 137.129 153.976 135.002C155.255 132.875 156.408 130.649 157.552 128.415C158.696 126.18 159.724 123.838 160.626 121.666L167.455 124.151Z" fill="#FF8B7B"></path><path d="M172.425 126.52C171.37 128.62 168.26 132.249 165.819 134.93C164.032 136.852 162.664 138.291 162.664 138.291L161.583 137.397L152.645 129.693C155.219 124.24 158.445 118.439 165.515 117.483C169.931 116.848 174.293 122.783 172.425 126.52Z" fill="#263238"></path><path opacity="0.3" d="M165.819 134.966C164.031 136.888 162.664 138.327 162.664 138.327L161.582 137.433C162.476 135.234 164.004 131.829 165.711 130.586C166.061 132.022 166.097 133.515 165.819 134.966Z" fill="black"></path><path d="M130.79 127.592L131.908 121.434L124.391 121.72C124.391 121.72 125.856 126.681 127.805 128.87L130.79 127.592Z" fill="#FF8B7B"></path><path d="M129.851 118.609L124.273 119.86L124.39 121.72L131.907 121.434L129.851 118.609Z" fill="#FF8B7B"></path><path d="M177.348 315.937L170.1 316.616L170.225 300.081L177.474 299.401L177.348 315.937Z" fill="#FF8B7B"></path><path d="M215.731 312.487L208.59 313.577L204.219 297.471L211.36 296.371L215.731 312.487Z" fill="#FF8B7B"></path><path d="M207.363 310.932L215.327 309.305C215.461 309.272 215.603 309.291 215.723 309.359C215.842 309.428 215.931 309.539 215.971 309.671L217.991 315.749C218.035 315.906 218.046 316.069 218.025 316.23C218.003 316.391 217.949 316.546 217.865 316.685C217.781 316.824 217.67 316.944 217.538 317.038C217.406 317.133 217.256 317.199 217.097 317.233C214.308 317.752 212.95 317.859 209.446 318.574C207.292 319.021 202.582 320.308 199.614 320.916C196.647 321.523 195.967 318.628 197.156 318.109C202.519 315.785 204.691 313.551 206.282 311.602C206.555 311.261 206.937 311.025 207.363 310.932Z" fill="#263238"></path><path d="M169.313 314.471H177.867C178.019 314.471 178.167 314.522 178.287 314.616C178.407 314.71 178.492 314.842 178.528 314.99L180.191 321.738C180.232 321.9 180.235 322.069 180.201 322.232C180.166 322.395 180.094 322.548 179.99 322.679C179.886 322.81 179.753 322.915 179.602 322.986C179.451 323.057 179.285 323.091 179.118 323.088C176.106 323.088 174.649 322.882 170.931 322.882C168.625 322.882 162.645 323.105 159.463 323.105C156.281 323.105 155.78 319.95 157.077 319.664C162.895 318.386 166.283 316.625 168.115 314.936C168.443 314.638 168.87 314.472 169.313 314.471Z" fill="#263238"></path><path opacity="0.2" d="M170.226 300.081L170.154 308.608H177.403L177.475 299.401L170.226 300.081Z" fill="black"></path><path opacity="0.2" d="M211.369 296.38L204.219 297.471L206.471 305.774L213.622 304.684L211.369 296.38Z" fill="black"></path><path d="M196.352 160.279L167.133 161.092C160.268 119.083 163.504 117.903 163.504 117.903C163.504 117.903 168.518 116.687 173.568 115.928C174.337 115.812 175.106 115.704 175.857 115.615C180.266 115.173 184.702 115.048 189.13 115.239C189.782 115.239 190.435 115.24 191.087 115.302C194.594 115.503 198.086 115.912 201.545 116.527C200.347 121.72 199.391 126.135 198.649 129.996C197.684 135.029 197.058 139.095 196.683 142.662C196.099 148.516 195.989 154.407 196.352 160.279Z" fill="#263238"></path><path opacity="0.3" d="M196.682 142.662C195.27 138.273 195.484 129.13 197.111 126.135L198.648 129.997C197.683 135.029 197.057 139.096 196.682 142.662Z" fill="black"></path><path d="M187.083 106.203C186.895 109.778 187.27 113.515 189.138 115.24C189.138 115.24 187.261 124.097 176.625 129.308C169.787 120.817 175.883 115.606 175.883 115.606C180.647 114.337 180.736 111.137 179.458 105.953L183.23 104.398C183.566 104.088 183.986 103.885 184.437 103.815C184.888 103.746 185.35 103.812 185.763 104.005C186.177 104.199 186.523 104.512 186.758 104.903C186.993 105.295 187.106 105.747 187.083 106.203Z" fill="#FF8B7B"></path><path opacity="0.2" d="M183.231 104.398C183.545 104.104 183.935 103.905 184.356 103.823C184.777 103.74 185.214 103.778 185.615 103.932C186.015 104.086 186.365 104.349 186.623 104.693C186.881 105.036 187.038 105.445 187.075 105.872C185.385 108.467 182.934 110.474 180.058 111.62C180.206 109.709 179.997 107.787 179.441 105.953L183.231 104.398Z" fill="black"></path><path d="M194.028 95.5845C191.347 102.288 190.408 105.175 185.85 107.651C178.985 111.378 171.415 106.9 172.023 99.6067C172.568 93.0371 176.796 83.1783 184.313 82.4454C185.955 82.2709 187.614 82.5286 189.126 83.1931C190.638 83.8576 191.95 84.9058 192.932 86.2337C193.914 87.5615 194.531 89.123 194.724 90.7632C194.916 92.4034 194.676 94.0655 194.028 95.5845Z" fill="#FF8B7B"></path><path d="M190.246 89.596C183.355 90.7133 173.353 86.1906 175.284 81.0422C176.616 77.4669 181.246 80.0053 181.246 80.0053C181.246 80.0053 188.655 77.9406 193.902 82.0075C199.149 86.0744 200.525 95.4147 190.774 101.52C187.699 98.0694 187.422 92.2059 190.246 89.596Z" fill="#263238"></path><path d="M193.493 102.395C192.761 103.582 191.598 104.441 190.248 104.791C188.461 105.238 187.665 103.638 188.246 101.993C188.765 100.509 190.329 98.4894 192.081 98.7754C193.833 99.0614 194.378 100.929 193.493 102.395Z" fill="#FF8B7B"></path><path d="M167.141 161.092C167.141 161.092 163.977 204.63 163.977 232.776C163.977 255.122 168.821 305.265 168.821 305.265L179.288 304.228C179.288 304.228 181.013 250.438 178.984 234.51C185.446 203.03 197.262 173.087 190.603 160.324L167.141 161.092Z" fill="#263238"></path><path d="M180.986 301.681L167.186 302.101L167.936 306.811L180.843 306.615L180.986 301.681Z" fill="#D68029"></path><path opacity="0.3" d="M183.67 177.217L180.238 181.042C176.957 190.803 179.129 204.353 183.044 216.929C187.04 201.082 191.258 186.459 192.322 175.286C192.322 174.634 192.322 174.294 192.322 174.294L183.67 177.217Z" fill="black"></path><path d="M173.514 161.003C173.514 161.003 184.105 209.01 188.431 236.709C195.385 259.055 204.091 302.137 204.091 302.137L213.753 299.831C213.753 299.831 209.284 248.731 203.841 232.794C203.528 201.305 205.718 173.07 196.351 160.297L173.514 161.003Z" fill="#263238"></path><path d="M203.26 304.416L215.523 301.958L215.362 296.979L201.678 300.134L203.26 304.416Z" fill="#D68029"></path><path d="M196.789 158.554L198.112 161.128C198.21 161.334 197.969 161.548 197.638 161.557L166.98 162.406C166.721 162.406 166.498 162.29 166.489 162.129L166.221 159.519C166.221 159.341 166.435 159.18 166.721 159.171L196.315 158.348C196.406 158.336 196.497 158.349 196.581 158.385C196.664 158.422 196.736 158.48 196.789 158.554Z" fill="#D68029"></path><path d="M192.82 161.968H193.607C193.768 161.968 193.884 161.879 193.875 161.78L193.509 158.393C193.509 158.295 193.357 158.214 193.196 158.223H192.409C192.248 158.223 192.132 158.312 192.141 158.411L192.508 161.798C192.525 161.897 192.66 161.977 192.82 161.968Z" fill="#263238"></path><path d="M169.215 162.674H170.001C170.162 162.674 170.279 162.585 170.27 162.487L169.903 159.099C169.903 159.001 169.751 158.929 169.59 158.929H168.804C168.643 158.929 168.527 159.019 168.536 159.117L168.902 162.504C168.929 162.558 169.054 162.674 169.215 162.674Z" fill="#263238"></path><path d="M181.014 162.299H181.809C181.961 162.299 182.086 162.21 182.077 162.102L181.702 158.724C181.702 158.625 181.559 158.545 181.398 158.545H180.603C180.451 158.545 180.325 158.634 180.334 158.733L180.71 162.12C180.719 162.227 180.853 162.308 181.014 162.299Z" fill="#263238"></path><path d="M183.427 94.5299C183.248 95.0841 182.81 95.4237 182.443 95.3433C182.077 95.2628 181.943 94.6908 182.122 94.1366C182.3 93.5825 182.738 93.2428 183.105 93.3233C183.471 93.4037 183.605 93.9757 183.427 94.5299Z" fill="#263238"></path><path d="M177.198 92.6529C177.011 93.216 176.573 93.5467 176.215 93.4663C175.858 93.3858 175.706 92.8227 175.893 92.2596C176.081 91.6965 176.51 91.3658 176.868 91.4552C177.225 91.5446 177.377 92.063 177.198 92.6529Z" fill="#263238"></path><path d="M177.018 91.5356L175.82 90.749C175.82 90.749 176.16 92.0004 177.018 91.5356Z" fill="#263238"></path><path d="M177.609 93.6807C176.702 94.8018 175.65 95.7967 174.48 96.6392C174.698 96.9262 174.977 97.1609 175.298 97.3264C175.618 97.4918 175.971 97.5838 176.331 97.5956L177.609 93.6807Z" fill="#FF5652"></path><path d="M178.125 100.644C178.1 100.622 178.081 100.594 178.072 100.562C178.062 100.53 178.062 100.497 178.072 100.465C178.088 100.421 178.12 100.385 178.161 100.364C178.202 100.342 178.25 100.337 178.295 100.349C178.985 100.567 179.717 100.622 180.432 100.509C181.147 100.395 181.826 100.117 182.416 99.6961C182.432 99.6783 182.452 99.6641 182.474 99.6546C182.497 99.6451 182.521 99.6406 182.545 99.6412C182.569 99.6418 182.593 99.6476 182.615 99.6582C182.637 99.6688 182.656 99.684 182.671 99.7027C182.687 99.7214 182.698 99.7431 182.705 99.7666C182.711 99.79 182.712 99.8145 182.708 99.8384C182.704 99.8624 182.695 99.8852 182.682 99.9054C182.668 99.9255 182.651 99.9426 182.63 99.9553C181.996 100.423 181.26 100.732 180.483 100.858C179.706 100.984 178.91 100.923 178.161 100.679L178.125 100.644Z" fill="#263238"></path><path d="M184.733 92.5813C184.688 92.543 184.654 92.4937 184.634 92.4383C184.509 92.0356 184.287 91.6696 183.988 91.3721C183.689 91.0746 183.322 90.8546 182.918 90.7311C182.875 90.7207 182.834 90.7017 182.798 90.6753C182.762 90.649 182.731 90.6157 182.708 90.5775C182.684 90.5393 182.669 90.4969 182.662 90.4527C182.655 90.4085 182.657 90.3634 182.668 90.32C182.691 90.2311 182.748 90.1545 182.826 90.1062C182.904 90.058 182.998 90.0417 183.088 90.0608C183.602 90.2117 184.071 90.4861 184.454 90.8601C184.837 91.234 185.123 91.6961 185.287 92.2059C185.313 92.2925 185.306 92.3859 185.266 92.4672C185.226 92.5484 185.157 92.6116 185.072 92.6439C185.015 92.6658 184.954 92.6715 184.894 92.6605C184.834 92.6494 184.778 92.622 184.733 92.5813Z" fill="#263238"></path><path d="M174.292 88.6753C174.292 88.6753 174.292 88.6306 174.292 88.6127C174.277 88.5227 174.297 88.4302 174.349 88.355C174.4 88.2797 174.48 88.2279 174.569 88.2105C175.096 88.0939 175.642 88.1071 176.162 88.2488C176.683 88.3905 177.16 88.6565 177.555 89.0239C177.587 89.0555 177.612 89.093 177.629 89.1345C177.646 89.1759 177.655 89.2203 177.655 89.2652C177.655 89.3101 177.646 89.3545 177.629 89.3959C177.612 89.4374 177.587 89.475 177.555 89.5065C177.49 89.5688 177.403 89.6036 177.313 89.6036C177.223 89.6036 177.137 89.5688 177.072 89.5065C176.757 89.2186 176.377 89.0119 175.964 88.9044C175.551 88.797 175.119 88.7919 174.703 88.8898C174.621 88.9107 174.533 88.9004 174.457 88.8608C174.381 88.8213 174.323 88.7553 174.292 88.6753Z" fill="#263238"></path><path d="M203.877 312.621L203.779 312.567C203.636 312.483 203.519 312.361 203.442 312.214C203.365 312.067 203.33 311.902 203.341 311.736C203.33 311.632 203.347 311.527 203.392 311.433C203.436 311.338 203.505 311.258 203.591 311.2C204.351 310.654 206.747 311.602 207.015 311.709C207.046 311.72 207.073 311.741 207.093 311.768C207.112 311.795 207.122 311.828 207.122 311.861C207.121 311.895 207.111 311.929 207.092 311.957C207.073 311.986 207.046 312.008 207.015 312.022C206.175 312.406 204.682 312.978 203.877 312.621ZM206.496 311.879C205.531 311.53 204.181 311.191 203.815 311.468C203.779 311.496 203.75 311.533 203.733 311.575C203.716 311.618 203.71 311.664 203.717 311.709C203.709 311.819 203.731 311.929 203.779 312.028C203.828 312.127 203.902 312.211 203.994 312.272C204.369 312.523 205.308 312.38 206.47 311.879H206.496Z" fill="#D68029"></path><path d="M206.721 311.942C205.934 311.584 204.594 310.449 204.612 309.68C204.616 309.544 204.666 309.412 204.753 309.307C204.841 309.202 204.961 309.129 205.094 309.099C205.218 309.057 205.349 309.042 205.478 309.056C205.608 309.07 205.733 309.112 205.845 309.18C206.739 309.698 207.105 311.727 207.123 311.816C207.126 311.846 207.121 311.876 207.11 311.904C207.1 311.932 207.083 311.957 207.061 311.977C207.034 311.991 207.005 311.998 206.976 311.998C206.946 311.998 206.917 311.991 206.891 311.977L206.721 311.942ZM205.604 309.439C205.471 309.39 205.325 309.39 205.192 309.439C204.987 309.51 204.951 309.618 204.951 309.698C204.951 310.199 205.943 311.182 206.739 311.575C206.619 310.788 206.253 310.059 205.693 309.493L205.604 309.439Z" fill="#D68029"></path><path d="M165.498 315.883C164.916 315.925 164.335 315.784 163.836 315.481C163.71 315.384 163.609 315.259 163.539 315.117C163.469 314.974 163.433 314.818 163.433 314.659C163.426 314.569 163.443 314.478 163.482 314.396C163.521 314.314 163.582 314.245 163.657 314.194C164.443 313.676 167.313 314.99 167.885 315.267C167.914 315.284 167.938 315.309 167.953 315.34C167.968 315.37 167.974 315.405 167.969 315.438C167.964 315.472 167.949 315.504 167.926 315.529C167.903 315.554 167.873 315.572 167.84 315.58C167.072 315.764 166.287 315.866 165.498 315.883ZM164.175 314.409C164.058 314.399 163.94 314.424 163.836 314.48C163.81 314.497 163.79 314.522 163.779 314.551C163.768 314.58 163.766 314.611 163.773 314.641C163.773 314.751 163.797 314.86 163.845 314.959C163.893 315.058 163.963 315.145 164.05 315.213C164.542 315.588 165.722 315.633 167.259 315.356C166.287 314.881 165.246 314.561 164.175 314.409Z" fill="#D68029"></path><path d="M167.805 315.588H167.733C166.786 315.195 164.882 313.64 165.052 312.835C165.052 312.657 165.213 312.442 165.651 312.388C167.349 312.183 167.983 315.267 168.01 315.401C168.015 315.431 168.012 315.461 168.001 315.49C167.99 315.518 167.971 315.543 167.948 315.562C167.927 315.575 167.903 315.585 167.879 315.589C167.854 315.594 167.829 315.594 167.805 315.588ZM165.758 312.701H165.642C165.463 312.701 165.364 312.773 165.356 312.853C165.275 313.318 166.589 314.552 167.554 315.088C167.349 314.355 166.777 312.701 165.758 312.701Z" fill="#D68029"></path><path d="M183.231 93.4036L182.033 92.626C182.033 92.626 182.391 93.8505 183.231 93.4036Z" fill="#263238"></path><path d="M202.636 121.192C203.404 122.354 204.021 123.4 204.647 124.517C205.272 125.635 205.862 126.743 206.434 127.878C207.552 130.148 208.57 132.472 209.473 134.859C210.392 137.261 211.159 139.717 211.77 142.215C211.94 142.832 212.047 143.484 212.19 144.119C212.333 144.753 212.459 145.388 212.557 146.04C212.655 146.693 212.771 147.292 212.861 148.016L212.968 149.169V150.304C212.849 153.135 212.26 155.926 211.225 158.563C210.266 161.041 209.096 163.434 207.73 165.713C206.404 167.93 204.966 170.078 203.422 172.149C201.87 174.204 200.211 176.176 198.452 178.057L195.682 175.769C197.013 173.802 198.363 171.729 199.57 169.637C200.776 167.546 201.956 165.427 202.957 163.273C203.961 161.176 204.807 159.007 205.487 156.784C205.797 155.73 206.048 154.658 206.238 153.575C206.394 152.57 206.46 151.553 206.434 150.536V149.83L206.327 149.16C206.247 148.668 206.095 148.06 205.987 147.524C205.88 146.988 205.728 146.416 205.576 145.862C205.424 145.308 205.29 144.762 205.111 144.208C204.459 142.009 203.61 139.855 202.752 137.701C201.894 135.547 200.875 133.447 199.802 131.373C199.284 130.336 198.738 129.308 198.175 128.289C197.612 127.27 197.004 126.242 196.468 125.358L202.636 121.192Z" fill="#FF8B7B"></path><path d="M201.543 116.527C205.047 117.367 209.141 127.878 209.141 127.878L198.942 135.923C198.942 135.923 193.025 127.297 193.803 122.676C194.464 118.726 197.083 115.463 201.543 116.527Z" fill="#263238"></path><path d="M122.077 141.508L121.861 154.52L122.755 154.535L122.971 141.523L122.077 141.508Z" fill="#D68029"></path><path d="M121.804 158.195L121.73 162.619L122.624 162.633L122.698 158.21L121.804 158.195Z" fill="#D68029"></path><path d="M125.526 121.72L124.203 203.164L155.558 216.58L188.871 209.206L202.662 128.933L125.526 121.72Z" fill="#D68029"></path><path opacity="0.2" d="M163.423 132.446L156.264 209.099L182.631 203.263L194.304 135.333L163.423 132.446Z" fill="white"></path><path d="M186.942 145.558L137.898 140.972L136.933 171.586L174.053 175.054L172.238 186.673L158.223 188.13L144.727 184.099H144.718L144.977 176.09L136.816 175.331L136.289 192.009L157.276 198.275L179.058 196.005L183.786 165.731L145.415 162.147L145.737 151.94L185.369 155.649L186.942 145.558Z" fill="white"></path><path d="M187.619 181.15L192.133 184.475L196.307 181.328L191.275 175.885L187.619 181.15Z" fill="#FF8B7B"></path><path d="M197.452 173.937L191.275 175.885L196.317 181.328C196.317 181.328 199.373 178.647 199.785 175.662L197.452 173.937Z" fill="#FF8B7B"></path><path d="M299.446 313.443L305.748 311.397L301.833 296.532L295.531 298.579L299.446 313.443Z" fill="#FFB573"></path><path d="M305.845 310.556L298.757 312.836C298.638 312.871 298.537 312.952 298.477 313.06C298.417 313.169 298.402 313.297 298.435 313.417L299.91 319.137C300.004 319.432 300.212 319.677 300.486 319.819C300.761 319.962 301.081 319.99 301.376 319.897C303.825 319.057 304.951 318.529 308.071 317.519C309.983 316.894 314.613 315.49 317.259 314.632C319.905 313.774 318.984 311.182 317.786 311.307C312.423 311.879 309.286 311.397 307.061 310.574C306.668 310.438 306.242 310.431 305.845 310.556Z" fill="#263238"></path><path opacity="0.2" d="M295.531 298.588L301.833 296.532L303.853 304.201L297.542 306.248L295.531 298.588Z" fill="black"></path><path d="M280.165 148.123C280.165 148.123 289.104 202.065 291.785 220.88C294.69 241.482 306.086 301.743 306.086 301.743L294.386 304.979C294.386 304.979 277.672 246.586 272.934 226.555C267.795 204.809 256.488 148.123 256.488 148.123H280.165Z" fill="#263238"></path><path opacity="0.3" d="M265.802 170.245C270.378 181.677 270.896 201.109 269.037 209.072C266.231 195.996 263.013 180.354 260.537 168.189C261.422 165.07 263.022 163.291 265.802 170.245Z" fill="black"></path><path d="M294.091 305.211L306.622 301.761L306.372 296.657L292.268 301.529L294.091 305.211Z" fill="#D68029"></path><path d="M308.438 310.932C307.855 311.101 307.256 311.209 306.65 311.254C306.621 311.254 306.593 311.247 306.568 311.233C306.542 311.219 306.522 311.198 306.507 311.173C306.492 311.147 306.484 311.118 306.484 311.088C306.484 311.059 306.492 311.029 306.507 311.003C306.668 310.798 308.053 309.001 308.92 309.055C309.019 309.059 309.115 309.089 309.199 309.142C309.282 309.196 309.35 309.27 309.394 309.359C309.491 309.485 309.549 309.636 309.564 309.794C309.578 309.952 309.547 310.111 309.475 310.253C309.221 310.595 308.853 310.836 308.438 310.932ZM307.017 310.932C308.214 310.789 309.037 310.485 309.233 310.101C309.273 310.009 309.288 309.91 309.277 309.811C309.266 309.712 309.229 309.618 309.171 309.538C309.148 309.495 309.115 309.458 309.074 309.432C309.034 309.405 308.987 309.389 308.938 309.386C308.474 309.332 307.598 310.208 307.017 310.905V310.932Z" fill="#D68029"></path><path d="M306.712 311.245H306.64C306.614 311.241 306.589 311.23 306.568 311.212C306.548 311.195 306.532 311.172 306.524 311.146C306.524 311.075 305.764 309.305 306.202 308.465C306.257 308.359 306.335 308.268 306.432 308.198C306.528 308.128 306.639 308.082 306.757 308.063C306.884 308.025 307.02 308.03 307.143 308.079C307.266 308.128 307.369 308.216 307.436 308.331C307.802 308.974 307.293 310.592 306.783 311.173L306.712 311.245ZM306.712 308.411C306.652 308.429 306.597 308.458 306.549 308.498C306.501 308.538 306.462 308.588 306.435 308.644C306.285 309.363 306.37 310.112 306.676 310.78C307.109 310.111 307.272 309.303 307.132 308.519C307.087 308.438 307.007 308.349 306.783 308.393L306.712 308.411Z" fill="#D68029"></path><path d="M278.782 93.7881C278.987 94.2261 279.3 94.8517 279.577 95.397L280.471 97.0863C281.061 98.2214 281.678 99.3387 282.312 100.438C283.582 102.655 284.922 104.809 286.326 106.865C287.702 108.875 289.21 110.792 290.839 112.603C292.322 114.266 294.006 115.737 295.854 116.983L294.495 116.455C294.907 116.606 295.351 116.643 295.782 116.563C296.549 116.435 297.291 116.187 297.981 115.83C299.841 114.864 301.568 113.662 303.12 112.254C304.873 110.716 306.538 109.081 308.108 107.356C309.717 105.622 311.317 103.727 312.791 101.931L312.881 101.823C313.325 101.287 313.949 100.929 314.636 100.815C315.323 100.7 316.029 100.838 316.623 101.202C317.217 101.566 317.66 102.132 317.871 102.796C318.082 103.46 318.046 104.178 317.77 104.818C316.7 107.239 315.463 109.583 314.07 111.834C312.668 114.127 311.097 116.311 309.368 118.368C307.5 120.62 305.322 122.594 302.897 124.231C301.447 125.183 299.866 125.918 298.204 126.412C296.208 126.995 294.1 127.077 292.064 126.654C291.674 126.574 291.298 126.438 290.947 126.251L290.705 126.126C287.862 124.587 285.251 122.656 282.947 120.388C280.78 118.297 278.791 116.027 277.003 113.604C275.248 111.265 273.633 108.823 272.168 106.293C271.444 105.032 270.755 103.772 270.085 102.476C269.754 101.832 269.423 101.189 269.111 100.527C268.798 99.866 268.512 99.2404 268.172 98.4359C267.598 97.0425 267.588 95.4807 268.144 94.08C268.7 92.6793 269.779 91.5495 271.152 90.929C272.525 90.3085 274.086 90.2458 275.504 90.7542C276.923 91.2627 278.088 92.3024 278.755 93.654L278.782 93.7881Z" fill="#D68029"></path><path opacity="0.3" d="M282.74 110.574C279.934 103.12 273.972 102.994 271.389 104.97C271.576 105.318 271.773 105.667 271.97 106.015C273.372 108.456 274.909 110.816 276.573 113.086C278.275 115.42 280.148 117.625 282.177 119.682C282.821 120.317 283.482 120.942 284.17 121.55C284.413 117.833 283.927 114.105 282.74 110.574Z" fill="black"></path><path d="M317.813 105.953L323.552 106.847L322.863 100.51C322.863 100.51 314.703 99.8392 314.256 102.065L315.203 104.004C315.453 104.513 315.82 104.954 316.274 105.293C316.727 105.632 317.255 105.858 317.813 105.953Z" fill="#FFB573"></path><path d="M328.307 103.164L327.216 98.6238L322.863 100.537L323.552 106.865L328.307 103.164Z" fill="#FFB573"></path><path d="M249.83 316.339H256.453L257.311 300.992H250.688L249.83 316.339Z" fill="#FFB573"></path><path d="M256.802 315.571H249.375C249.312 315.568 249.25 315.578 249.192 315.6C249.133 315.621 249.08 315.654 249.034 315.697C248.989 315.739 248.952 315.79 248.926 315.847C248.9 315.903 248.885 315.964 248.883 316.027L248.525 321.917C248.523 322.226 248.643 322.523 248.859 322.744C249.075 322.965 249.369 323.092 249.678 323.097C252.271 323.052 253.513 322.9 256.784 322.9C258.795 322.9 265.535 323.106 268.315 323.106C271.094 323.106 270.996 320.353 269.834 320.102C264.552 318.994 259.832 317.421 257.955 315.982C257.631 315.713 257.223 315.568 256.802 315.571Z" fill="#263238"></path><path opacity="0.2" d="M250.687 301.001H257.31L256.863 308.912H250.24L250.687 301.001Z" fill="black"></path><path d="M267.251 147.783C267.251 147.783 266.679 205.694 265.606 224.652C264.426 245.424 259.734 306.981 259.734 306.981H247.587C247.587 306.981 246.756 247.095 246.023 226.538C245.227 204.192 244.369 147.766 244.369 147.766L267.251 147.783Z" fill="#263238"></path><path d="M247.086 306.999H260.198L260.931 302.396L246.451 303.111L247.086 306.999Z" fill="#D68029"></path><path d="M259.151 316.724C258.549 316.71 257.949 316.632 257.363 316.491C257.334 316.485 257.307 316.469 257.286 316.447C257.265 316.424 257.252 316.396 257.247 316.366C257.244 316.338 257.248 316.309 257.259 316.282C257.27 316.256 257.287 316.232 257.31 316.214C257.524 316.062 259.401 314.784 260.206 315.106C260.297 315.141 260.378 315.199 260.44 315.274C260.503 315.349 260.545 315.439 260.563 315.535C260.605 315.679 260.61 315.832 260.577 315.979C260.544 316.126 260.475 316.262 260.376 316.375C260.024 316.638 259.588 316.762 259.151 316.724ZM257.81 316.268C258.99 316.5 259.866 316.465 260.17 316.161C260.237 316.087 260.284 315.997 260.304 315.9C260.325 315.802 260.318 315.701 260.286 315.606C260.28 315.559 260.261 315.514 260.231 315.476C260.201 315.438 260.161 315.409 260.116 315.392C259.678 315.222 258.579 315.776 257.81 316.268Z" fill="#D68029"></path><path d="M257.417 316.491C257.394 316.5 257.369 316.5 257.345 316.491C257.322 316.48 257.302 316.462 257.288 316.44C257.273 316.418 257.266 316.393 257.265 316.366C257.265 316.286 257.104 314.382 257.774 313.738C257.86 313.656 257.963 313.594 258.076 313.557C258.189 313.52 258.309 313.509 258.427 313.524C258.559 313.527 258.687 313.574 258.789 313.659C258.891 313.743 258.962 313.859 258.99 313.989C259.142 314.713 258.159 316.098 257.497 316.491C257.471 316.5 257.443 316.5 257.417 316.491ZM258.311 313.81C258.187 313.81 258.069 313.858 257.98 313.944C257.612 314.579 257.459 315.315 257.542 316.044C258.123 315.562 258.776 314.507 258.677 314.033C258.677 313.944 258.606 313.837 258.382 313.81H258.311Z" fill="#D68029"></path><path d="M241.401 94.6909C241.303 94.1323 241.319 93.5597 241.447 93.0071C241.575 92.4546 241.813 91.9335 242.147 91.4748C242.48 91.0161 242.903 90.6293 243.389 90.3372C243.875 90.0452 244.415 89.854 244.977 89.775H245.057C247.193 89.4621 249.875 89.1403 252.503 89.0152C257.519 88.729 262.547 88.729 267.563 89.0152C269.878 89.2297 272.14 89.6141 273.945 89.9627H274.017C275.145 90.1925 276.189 90.7248 277.038 91.5026C277.886 92.2804 278.507 93.2744 278.834 94.3781C280.997 101.663 283.572 116.536 280.202 148.114H244.726C244.476 144.95 245.182 134.653 244.664 121.541C244.16 112.53 243.07 103.561 241.401 94.6909Z" fill="#D68029"></path><path opacity="0.3" d="M241.74 96.6393C242.482 100.876 243.385 106.641 244.011 112.728C244.011 112.728 247.246 106.382 247.836 100.956C248.426 95.531 243.796 95.1199 241.74 96.6393Z" fill="black"></path><path d="M251.885 89.0419C251.885 89.0419 254.7 94.0025 262.092 96.112C268.617 92.5367 266.812 88.9614 266.812 88.9614" fill="#F5F5F5"></path><path d="M266.812 88.9525C262.433 87.9157 261.664 85.2074 261.959 82.231C262.028 81.4856 262.145 80.7452 262.307 80.0144L256.819 75.4559L252.788 72.113C253.906 76.9665 255.166 85.8063 251.895 89.0419C251.895 89.0419 254.576 93.511 262.102 93.1177C268.43 92.7691 266.812 88.9525 266.812 88.9525Z" fill="#FFB573"></path><path d="M261.762 93.1444L260.51 91.5444L257.605 93.8326L261.762 93.1444Z" fill="#F5F5F5"></path><path d="M259.207 96.6485C259.28 94.8778 259.715 93.1407 260.485 91.5448C258.269 90.9191 252.638 87.6746 252.638 87.6746L250.537 88.9527C251.365 90.7696 252.564 92.3931 254.057 93.7185C255.551 95.0439 257.305 96.042 259.207 96.6485Z" fill="white"></path><path d="M261.762 93.1444L263.21 91.5444L265.909 93.8326L261.762 93.1444Z" fill="#F5F5F5"></path><path d="M265.222 96.1121C264.689 94.5328 264.016 93.0043 263.211 91.5447C265.428 90.919 264.686 87.7996 264.686 87.7996L267.045 88.7917C267.045 88.7917 270.764 94.3244 265.222 96.1121Z" fill="white"></path><path d="M262.343 94.6194C262.442 95.0037 262.343 95.3523 262.12 95.406C261.896 95.4596 261.646 95.2004 261.548 94.816C261.449 94.4317 261.548 94.0831 261.78 94.0295C262.012 93.9759 262.254 94.2351 262.343 94.6194Z" fill="#D68029"></path><path opacity="0.2" d="M262.306 80.0143C262.144 80.7451 262.027 81.4855 261.958 82.2309C259.911 81.8198 257.176 79.6389 256.89 77.5473C256.789 76.8549 256.765 76.1535 256.818 75.4558L262.306 80.0143Z" fill="black"></path><path d="M267.662 68.0283C270.388 68.6718 270.871 62.1916 269.19 58.9828C267.841 56.3997 264.105 57.3382 263.13 58.4197C262.156 59.5012 265.267 66.8037 265.267 66.8037L267.662 68.0283Z" fill="#263238"></path><path d="M251.163 65.1323C252.566 71.5767 253.058 75.4112 256.865 78.3518C258.092 79.3197 259.56 79.9338 261.111 80.1278C262.661 80.3217 264.236 80.0881 265.663 79.4521C267.09 78.8162 268.317 77.8022 269.21 76.5196C270.102 75.2371 270.628 73.735 270.728 72.1755C271.229 66.178 268.851 56.65 262.076 54.8266C260.619 54.3922 259.073 54.3487 257.593 54.7007C256.114 55.0526 254.753 55.7876 253.647 56.8317C252.541 57.8758 251.73 59.1925 251.294 60.6494C250.858 62.1063 250.813 63.6524 251.163 65.1323Z" fill="#FFB573"></path><path d="M253.307 70.7633C255.336 70.5935 257.776 66.3389 254.835 61.7179C253.262 59.2599 249.758 60.0822 248.775 61.1548C246.094 64.0686 250.911 69.5298 250.911 69.5298L253.307 70.7633Z" fill="#263238"></path><path d="M252.601 62.8621C256.614 62.6655 264.998 59.7695 266.205 55.8635C268.556 48.284 260.181 48.0695 255.604 52.1453C252.592 54.8267 249.777 58.7059 244.307 59.6891C245.04 61.0655 248.141 63.0856 252.601 62.8621Z" fill="#263238"></path><path d="M251.161 63.9346C253.985 63.4519 257.14 60.8152 257.659 57.946C258.687 52.3954 254.879 53.7719 251.536 57.0522C249.463 59.0543 248.855 61.271 245.029 62.4151C245.628 63.291 247.988 64.4619 251.161 63.9346Z" fill="#263238"></path><path d="M262.442 56.3106C264.98 58.992 269.011 61.5305 270.236 59.8859C271.46 58.2412 269.101 52.2259 265.981 51.9667C262.862 51.7074 260.6 54.3531 262.442 56.3106Z" fill="#263238"></path><path d="M249.641 71.863C250.685 73.1155 252.127 73.9733 253.726 74.2941C255.764 74.6338 256.219 72.7568 255.183 70.9334C254.289 69.2977 252.081 67.1436 250.267 67.6263C248.452 68.1089 248.327 70.272 249.641 71.863Z" fill="#FFB573"></path><path d="M262.093 66.6445C262.438 66.5822 262.64 66.1064 262.546 65.5817C262.451 65.0571 262.094 64.6823 261.75 64.7446C261.405 64.8069 261.202 65.2827 261.297 65.8074C261.391 66.332 261.748 66.7068 262.093 66.6445Z" fill="#263238"></path><path d="M267.296 65.061C267.377 65.5884 267.725 65.9548 268.065 65.9548C268.404 65.9548 268.628 65.4453 268.547 64.918C268.467 64.3906 268.118 64.0242 267.77 64.0242C267.421 64.0242 267.251 64.5336 267.296 65.061Z" fill="#263238"></path><path d="M265.463 65.5525C266.345 67.0965 267.43 68.5154 268.69 69.7713C268.362 70.0726 267.972 70.2978 267.547 70.4307C267.122 70.5636 266.673 70.6009 266.232 70.54L265.463 65.5525Z" fill="#ED893E"></path><path d="M264.248 72.2294C263.628 72.2377 263.013 72.1201 262.44 71.8834C261.866 71.6468 261.347 71.2962 260.914 70.8529C260.887 70.8221 260.873 70.7817 260.875 70.7406C260.878 70.6996 260.897 70.6612 260.927 70.6339C260.958 70.6066 260.999 70.5927 261.04 70.5953C261.081 70.5978 261.119 70.6165 261.146 70.6473C261.628 71.1167 262.209 71.4714 262.847 71.685C263.484 71.8985 264.162 71.9655 264.829 71.8808C264.85 71.877 264.871 71.8775 264.891 71.8823C264.912 71.8871 264.931 71.896 264.948 71.9086C264.964 71.9212 264.978 71.9372 264.989 71.9555C264.999 71.9737 265.005 71.994 265.008 72.0149C265.01 72.0355 265.008 72.0565 265.002 72.0764C264.996 72.0964 264.986 72.1149 264.973 72.1308C264.96 72.1467 264.943 72.1597 264.924 72.169C264.906 72.1783 264.885 72.1836 264.865 72.1847C264.66 72.2123 264.454 72.2272 264.248 72.2294Z" fill="#263238"></path><path d="M259.143 64.0688C259.09 64.0676 259.037 64.0521 258.991 64.0241C258.955 64.0044 258.922 63.9777 258.896 63.9453C258.87 63.913 258.85 63.8758 258.839 63.8358C258.827 63.7959 258.823 63.754 258.828 63.7127C258.833 63.6713 258.846 63.6313 258.866 63.595C259.098 63.1588 259.434 62.7862 259.844 62.5103C260.254 62.2344 260.725 62.0636 261.217 62.013C261.258 62.0106 261.298 62.0164 261.337 62.03C261.375 62.0436 261.41 62.0648 261.44 62.0923C261.47 62.1198 261.495 62.1531 261.511 62.1901C261.528 62.2272 261.538 62.2672 261.539 62.3079C261.541 62.349 261.535 62.3902 261.522 62.4291C261.508 62.468 261.487 62.5038 261.46 62.5345C261.433 62.5653 261.399 62.5903 261.362 62.6081C261.325 62.626 261.285 62.6364 261.244 62.6387C260.866 62.6912 260.506 62.834 260.195 63.0549C259.884 63.2758 259.63 63.5684 259.456 63.9079C259.426 63.963 259.38 64.0078 259.325 64.0365C259.269 64.0652 259.206 64.0764 259.143 64.0688Z" fill="#263238"></path><path d="M269.781 62.701C269.729 62.6997 269.679 62.686 269.634 62.6611C269.589 62.6362 269.55 62.6009 269.522 62.558C269.305 62.22 269.013 61.9362 268.669 61.7286C268.325 61.5209 267.938 61.3949 267.537 61.3603C267.454 61.3603 267.375 61.3273 267.316 61.2687C267.258 61.21 267.225 61.1304 267.225 61.0475C267.225 60.9645 267.258 60.8849 267.316 60.8262C267.375 60.7676 267.454 60.7346 267.537 60.7346C268.04 60.7697 268.528 60.9213 268.963 61.1772C269.397 61.4331 269.766 61.7865 270.04 62.2094C270.064 62.2434 270.081 62.2817 270.089 62.3222C270.098 62.3626 270.099 62.4045 270.091 62.4452C270.084 62.486 270.068 62.5248 270.046 62.5595C270.023 62.5942 269.994 62.6241 269.96 62.6474C269.906 62.6812 269.844 62.6997 269.781 62.701Z" fill="#263238"></path><path d="M249.213 100.25L249.123 100.331L248.909 100.527L248.48 101.001C248.167 101.323 247.836 101.672 247.524 102.02C246.889 102.735 246.254 103.486 245.664 104.281C244.464 105.885 243.393 107.583 242.465 109.358C240.566 113.018 239.202 116.931 238.416 120.978C238.218 121.824 238.096 122.685 238.049 123.552C238.004 124.433 238.046 125.316 238.174 126.189C238.472 128.178 238.975 130.131 239.676 132.017C241.21 136.14 243.109 140.119 245.352 143.904L245.432 144.047C245.776 144.647 245.894 145.349 245.765 146.028C245.636 146.707 245.268 147.317 244.729 147.749C244.189 148.181 243.513 148.405 242.822 148.382C242.132 148.359 241.472 148.089 240.963 147.623C239.116 145.912 237.41 144.055 235.859 142.072C234.282 140.073 232.863 137.954 231.614 135.735C230.279 133.378 229.241 130.865 228.521 128.254C228.125 126.831 227.868 125.373 227.752 123.901C227.663 122.41 227.711 120.914 227.895 119.432C228.154 116.818 228.636 114.232 229.334 111.7C230.028 109.129 230.949 106.626 232.087 104.219C233.238 101.774 234.621 99.4453 236.217 97.265C237.03 96.1538 237.907 95.0913 238.845 94.083C239.318 93.5735 239.801 93.0641 240.328 92.5725L241.16 91.8217L241.606 91.4463L242.205 90.9725C242.811 90.4805 243.509 90.1153 244.258 89.8989C245.007 89.6824 245.793 89.6191 246.567 89.7126C247.341 89.8061 248.089 90.0545 248.765 90.4432C249.441 90.8318 250.032 91.3526 250.503 91.9746C250.974 92.5965 251.314 93.3069 251.505 94.0633C251.695 94.8197 251.731 95.6067 251.611 96.3774C251.49 97.148 251.216 97.8865 250.804 98.5488C250.392 99.2111 249.851 99.7837 249.213 100.232V100.25Z" fill="#D68029"></path><path d="M246.3 142.251L249.938 141.616L246.55 149.267C246.55 149.267 240.535 149.267 240.812 146.13L241.527 145.174C242.691 143.63 244.396 142.586 246.3 142.251Z" fill="#FFB573"></path><path d="M254.861 145.451L251.76 151.618L246.549 149.249L249.936 141.616L254.861 145.451Z" fill="#FFB573"></path><path d="M292.5 28.3697L305.004 87.3795L329.861 91.8843L352.681 81.0602L349.374 20.8259L292.5 28.3697Z" fill="#D68029"></path><path opacity="0.3" d="M292.5 28.3697L305.004 87.3795L329.861 91.8843L352.681 81.0602L349.374 20.8259L292.5 28.3697Z" fill="white"></path><path opacity="0.2" d="M321.629 29.8534L329.128 86.3694L347.201 77.7977L344.394 26.8323L321.629 29.8534Z" fill="white"></path><path d="M340.767 35.4309L304.604 40.2307L306.06 47.6404L335.288 43.7702L336.951 67.5368L327.074 70.9065L316.661 70.2272L315.526 64.4084L309.502 65.2039L311.879 77.333L328.066 78.3877L343.422 73.1499L340.767 35.4309Z" fill="white"></path></svg>