<svg xmlns="http://www.w3.org/2000/svg" width="331" height="335" viewBox="0 0 331 335" fill="none"><path d="M283.768 84.9642C262.16 60.4314 228.392 47.3716 196.444 44.1615C187.082 43.2417 177.676 42.8437 168.27 42.9696C75.5131 43.9567 48.3478 83.9185 54.2927 103.165C60.2376 122.411 76.9609 134.249 52.8303 160.888C28.6996 187.527 1.49782 227.474 15.3181 267.443C29.1384 307.412 86.3645 338.489 169.257 333.554C252.149 328.618 305.924 328.128 323.196 291.142C340.467 254.157 302.721 228.754 297.405 197.04C294.122 177.377 302.56 157.554 303.175 137.949C303.84 116.744 296.191 99.0696 283.768 84.9642Z" fill="#D68029"></path><path opacity="0.7" d="M283.768 84.9642C262.16 60.4314 228.392 47.3716 196.444 44.1615C187.082 43.2417 177.676 42.8437 168.27 42.9696C75.5131 43.9567 48.3478 83.9185 54.2927 103.165C60.2376 122.411 76.9609 134.249 52.8303 160.888C28.6996 187.527 1.49782 227.474 15.3181 267.443C29.1384 307.412 86.3645 338.489 169.257 333.554C252.149 328.618 305.924 328.128 323.196 291.142C340.467 254.157 302.721 228.754 297.405 197.04C294.122 177.377 302.56 157.554 303.175 137.949C303.84 116.744 296.191 99.0696 283.768 84.9642Z" fill="white"></path><path d="M0.509766 322.87H328.621" stroke="#263238" stroke-miterlimit="10"></path><path d="M221.978 1.07001H117.675C107.297 1.07001 98.8828 9.48376 98.8828 19.8627V283.479C98.8828 293.858 107.297 302.271 117.675 302.271H221.978C232.357 302.271 240.771 293.858 240.771 283.479V19.8627C240.771 9.48376 232.357 1.07001 221.978 1.07001Z" fill="#263238" stroke="#263238" stroke-miterlimit="10"></path><path d="M235.828 22.0271V281.314C235.828 285.629 234.114 289.768 231.063 292.819C228.012 295.87 223.873 297.584 219.558 297.584H120.111C119.377 297.584 118.644 297.533 117.917 297.431C114.026 296.898 110.46 294.976 107.875 292.019C105.291 289.062 103.863 285.271 103.855 281.344V22.0271C103.857 17.7114 105.573 13.5731 108.626 10.5221C111.678 7.47111 115.817 5.7572 120.133 5.7572H122.984C131.927 5.7572 140.892 5.92539 149.828 5.7572C149.828 5.8157 149.769 5.92539 149.791 6.01313C152.234 5.63289 156.036 6.68587 157.835 8.44813C160.643 11.2561 163.926 15.095 168.211 15.5411C172.694 16.0018 176.255 12.3748 179.18 9.49379C182.456 6.25444 186.828 5.76451 191.26 5.76451H219.602C223.908 5.77613 228.034 7.49439 231.076 10.5428C234.117 13.5911 235.826 17.7209 235.828 22.0271Z" fill="#D68029"></path><path opacity="0.3" d="M235.828 22.0271V55.0861C221.606 72.2188 186.974 94.2801 147.598 114.879C126.282 126.037 112.55 136.553 103.826 144.903V65.0089C105.055 63.2686 106.385 61.4917 107.819 59.6782C125.046 37.9387 166.829 23.9941 196.298 5.75721H219.544C221.681 5.75529 223.799 6.1747 225.774 6.99148C227.75 7.80826 229.545 9.00639 231.058 10.5174C232.57 12.0284 233.77 13.8226 234.588 15.7975C235.407 17.7724 235.828 19.8893 235.828 22.0271Z" fill="white"></path><path opacity="0.3" d="M235.828 118.323V219.335C221.606 236.468 186.974 258.529 147.598 279.128C137.242 284.454 127.31 290.565 117.888 297.409C113.997 296.876 110.431 294.954 107.846 291.997C105.262 289.04 103.834 285.249 103.826 281.322V229.258C105.055 227.518 106.385 225.741 107.819 223.927C131.949 193.457 204.341 178.291 223.492 145.166C228.633 136.297 232.874 126.184 235.828 118.323Z" fill="white"></path><path d="M168.986 12.1628C170.569 12.1628 171.852 10.8794 171.852 9.29636C171.852 7.71327 170.569 6.42993 168.986 6.42993C167.402 6.42993 166.119 7.71327 166.119 9.29636C166.119 10.8794 167.402 12.1628 168.986 12.1628Z" fill="#7D7D7D" stroke="white" stroke-miterlimit="10"></path><path d="M240.713 87.7209V50.2307C241.394 50.2307 242.046 50.5011 242.528 50.9824C243.009 51.4638 243.28 52.1166 243.28 52.7973V85.147C243.28 85.8284 243.009 86.4819 242.528 86.9644C242.047 87.4469 241.394 87.719 240.713 87.7209Z" fill="#263238" stroke="#263238" stroke-miterlimit="10"></path><path d="M240.713 120.027V101.322C241.394 101.322 242.046 101.592 242.528 102.074C243.009 102.555 243.28 103.208 243.28 103.888V117.46C243.28 117.797 243.213 118.131 243.084 118.442C242.955 118.754 242.766 119.037 242.528 119.275C242.289 119.513 242.007 119.702 241.695 119.831C241.384 119.96 241.05 120.027 240.713 120.027Z" fill="#263238" stroke="#263238" stroke-miterlimit="10"></path><path d="M219.888 165.239H122.291C117.699 165.239 113.977 168.961 113.977 173.553C113.977 178.145 117.699 181.867 122.291 181.867H219.888C224.48 181.867 228.202 178.145 228.202 173.553C228.202 168.961 224.48 165.239 219.888 165.239Z" fill="white" stroke="#263238" stroke-miterlimit="10"></path><path d="M126.085 219.744C131.165 218.588 134.346 213.533 133.19 208.453C132.034 203.373 126.979 200.193 121.899 201.349C116.819 202.504 113.638 207.56 114.794 212.639C115.95 217.719 121.005 220.9 126.085 219.744Z" fill="white" stroke="#263238" stroke-miterlimit="10"></path><path d="M161.407 217.231C165.09 213.547 165.09 207.575 161.407 203.891C157.723 200.207 151.75 200.207 148.067 203.891C144.383 207.575 144.383 213.547 148.067 217.231C151.75 220.915 157.723 220.915 161.407 217.231Z" fill="white" stroke="#263238" stroke-miterlimit="10"></path><path d="M187.687 219.728C192.756 218.524 195.889 213.439 194.685 208.371C193.481 203.302 188.397 200.169 183.328 201.373C178.259 202.577 175.126 207.661 176.33 212.73C177.534 217.799 182.619 220.932 187.687 219.728Z" fill="white" stroke="#263238" stroke-miterlimit="10"></path><path d="M224.98 214.121C226.957 209.301 224.654 203.791 219.834 201.813C215.014 199.836 209.504 202.14 207.526 206.959C205.549 211.779 207.852 217.289 212.672 219.267C217.492 221.245 223.002 218.941 224.98 214.121Z" fill="white" stroke="#263238" stroke-miterlimit="10"></path><path d="M126.091 261.324C131.171 260.168 134.352 255.113 133.196 250.033C132.04 244.953 126.985 241.772 121.905 242.928C116.825 244.084 113.644 249.139 114.8 254.219C115.956 259.299 121.011 262.48 126.091 261.324Z" fill="white" stroke="#263238" stroke-miterlimit="10"></path><path d="M161.413 258.806C165.096 255.122 165.096 249.15 161.413 245.466C157.729 241.782 151.756 241.782 148.072 245.466C144.389 249.15 144.389 255.122 148.072 258.806C151.756 262.49 157.729 262.49 161.413 258.806Z" fill="white" stroke="#263238" stroke-miterlimit="10"></path><path d="M187.693 261.307C192.762 260.103 195.895 255.018 194.691 249.949C193.487 244.881 188.403 241.748 183.334 242.951C178.265 244.155 175.132 249.24 176.336 254.309C177.54 259.377 182.624 262.51 187.693 261.307Z" fill="white" stroke="#263238" stroke-miterlimit="10"></path><path d="M224.984 255.695C226.961 250.876 224.657 245.365 219.838 243.388C215.018 241.41 209.508 243.714 207.53 248.533C205.552 253.353 207.856 258.863 212.676 260.841C217.496 262.819 223.006 260.515 224.984 255.695Z" fill="white" stroke="#263238" stroke-miterlimit="10"></path><path d="M171.092 121.921C190.913 121.921 206.981 105.853 206.981 86.0318C206.981 66.2109 190.913 50.1429 171.092 50.1429C151.271 50.1429 135.203 66.2109 135.203 86.0318C135.203 105.853 151.271 121.921 171.092 121.921Z" stroke="white" stroke-miterlimit="10"></path><path d="M155.714 92.7591V79.8529C155.598 79.9953 155.45 80.1081 155.282 80.1819C155.046 80.2965 154.802 80.3919 154.551 80.4671L153.82 80.6938C153.686 80.7411 153.549 80.7802 153.41 80.8108V79.7432C153.614 79.6858 153.814 79.6175 154.01 79.5385C154.249 79.4395 154.479 79.3196 154.697 79.1801C154.932 79.0325 155.157 78.8688 155.37 78.6902C155.588 78.5111 155.782 78.3047 155.948 78.076H157.022V92.7591H155.714Z" fill="#263238"></path><path d="M162.369 92.7591V79.8529C162.252 79.9968 162.102 80.1098 161.931 80.1819C161.696 80.2982 161.451 80.3936 161.199 80.4671L160.468 80.6938C160.334 80.7401 160.197 80.7792 160.059 80.8108V79.7432C160.227 79.6993 160.424 79.6262 160.658 79.5385C160.897 79.4395 161.127 79.3196 161.346 79.1801C161.581 79.0325 161.806 78.8688 162.018 78.6902C162.236 78.5111 162.431 78.3047 162.596 78.076H163.664V92.7591H162.369Z" fill="#263238"></path><path d="M167.225 85.1104V83.1653H168.643V85.1104H167.225ZM167.225 91.2674V89.3296H168.643V91.2674H167.225Z" fill="#263238"></path><path d="M173.791 92.9419C173.139 92.9682 172.492 92.8165 171.919 92.5031C171.44 92.2185 171.067 91.7843 170.859 91.2674C170.628 90.6632 170.516 90.0201 170.53 89.3735V89.0079H171.795V89.315C171.797 89.774 171.869 90.2301 172.007 90.6678C172.113 91.0199 172.332 91.3279 172.628 91.5452C172.975 91.7651 173.381 91.8724 173.791 91.8523C174.202 91.8675 174.608 91.7634 174.961 91.5525C175.313 91.3195 175.572 90.9701 175.692 90.5654C175.871 89.9855 175.952 89.3802 175.934 88.7739C175.961 88.0127 175.792 87.2574 175.444 86.5802C175.268 86.2899 175.016 86.0529 174.716 85.8944C174.416 85.736 174.079 85.6622 173.74 85.6808H173.382V84.3792H173.74C174.054 84.4109 174.371 84.367 174.665 84.2513C174.959 84.1355 175.221 83.9512 175.429 83.7137C175.818 83.0757 175.995 82.3307 175.934 81.5859C175.96 80.9377 175.814 80.2941 175.509 79.7212C175.341 79.4675 175.106 79.265 174.83 79.136C174.554 79.0071 174.247 78.9565 173.945 78.99C173.647 78.9629 173.347 79.0049 173.068 79.1127C172.789 79.2205 172.538 79.3912 172.336 79.6115C171.958 80.1823 171.771 80.8582 171.802 81.542V81.7979H170.515V81.4542C170.499 80.8122 170.611 80.1735 170.844 79.575C171.062 79.0564 171.449 78.6263 171.941 78.3538C172.545 78.0392 173.22 77.888 173.901 77.9151C174.567 77.8877 175.227 78.0527 175.802 78.3904C176.293 78.6977 176.676 79.15 176.899 79.6847C177.148 80.2843 177.27 80.9292 177.257 81.5785C177.305 82.4128 177.104 83.2425 176.679 83.9624C176.332 84.4956 175.792 84.8751 175.173 85.0227C175.553 85.1312 175.902 85.3292 176.189 85.6003C176.534 85.9388 176.796 86.3515 176.957 86.8069C177.172 87.4271 177.274 88.081 177.257 88.7373C177.27 89.4829 177.153 90.225 176.913 90.931C176.708 91.5262 176.315 92.0391 175.795 92.3935C175.198 92.7747 174.499 92.9659 173.791 92.9419Z" fill="#263238"></path><path d="M182.58 92.9273C181.918 92.957 181.262 92.7999 180.686 92.4739C180.198 92.1551 179.832 91.681 179.647 91.1285C179.411 90.4344 179.3 89.7041 179.318 88.9713H180.642C180.635 89.4906 180.691 90.0087 180.81 90.5142C180.895 90.9259 181.128 91.292 181.465 91.5428C181.802 91.7937 182.22 91.9116 182.638 91.8743C182.868 91.8908 183.098 91.8605 183.316 91.785C183.533 91.7096 183.733 91.5907 183.903 91.4356C184.226 91.0842 184.435 90.6431 184.503 90.1706C184.621 89.4947 184.675 88.8091 184.664 88.1231C184.683 87.404 184.619 86.685 184.474 85.9806C184.399 85.5381 184.177 85.1337 183.845 84.8326C183.501 84.578 183.08 84.4512 182.653 84.4743C182.28 84.4743 181.914 84.5809 181.6 84.7814C181.253 85.0171 180.964 85.3268 180.752 85.6881H179.647V78.076H185.351V79.3264H180.825L180.752 84.445C180.993 84.1578 181.292 83.9237 181.629 83.7577C182.054 83.5488 182.523 83.4483 182.996 83.4652C183.624 83.4353 184.243 83.6268 184.744 84.0063C185.215 84.4124 185.549 84.9536 185.702 85.5565C185.907 86.3466 186.003 87.1609 185.987 87.9769C185.995 88.6876 185.936 89.3976 185.812 90.0974C185.714 90.6493 185.513 91.1778 185.219 91.655C184.963 92.0664 184.599 92.4001 184.166 92.6202C183.669 92.8462 183.125 92.9514 182.58 92.9273Z" fill="#263238"></path><path d="M222.46 11.8191H210.029V18.6342H222.46V11.8191Z" stroke="#263238" stroke-width="0.821067" stroke-linecap="round" stroke-linejoin="round"></path><path d="M219.725 11.8191H210.029V18.6342H219.725V11.8191Z" fill="#263238" stroke="#263238" stroke-width="0.725073" stroke-linecap="round" stroke-linejoin="round"></path><path d="M224.179 13.7203H222.432V16.7257H224.179V13.7203Z" fill="#263238" stroke="#263238" stroke-width="0.725073" stroke-linecap="round" stroke-linejoin="round"></path><path d="M114.744 13.9324H112.463V17.8371H114.744V13.9324Z" fill="#263238" stroke="#263238" stroke-width="0.883086" stroke-linecap="round" stroke-linejoin="round"></path><path d="M118.326 12.5576H116.045V17.8371H118.326V12.5576Z" fill="#263238" stroke="#263238" stroke-width="0.883086" stroke-linecap="round" stroke-linejoin="round"></path><path d="M121.908 10.9343H119.627V17.8371H121.908V10.9343Z" fill="#263238" stroke="#263238" stroke-width="0.883086" stroke-linecap="round" stroke-linejoin="round"></path><path d="M215.404 175.388C214.964 175.388 214.542 175.213 214.23 174.902C213.919 174.591 213.744 174.169 213.744 173.728V168.471C213.744 168.031 213.919 167.608 214.23 167.297C214.542 166.986 214.964 166.811 215.404 166.811C215.844 166.811 216.266 166.986 216.578 167.297C216.889 167.608 217.064 168.031 217.064 168.471V173.736C217.062 174.175 216.886 174.595 216.575 174.905C216.264 175.214 215.843 175.388 215.404 175.388Z" fill="#263238"></path><path d="M215.411 176.58C214.636 176.58 213.892 176.272 213.343 175.723C212.794 175.175 212.486 174.431 212.486 173.655V171.176C212.486 171.136 212.494 171.097 212.51 171.06C212.525 171.023 212.548 170.99 212.577 170.962C212.605 170.934 212.639 170.912 212.676 170.897C212.714 170.883 212.753 170.876 212.793 170.877C212.833 170.877 212.872 170.884 212.908 170.899C212.945 170.914 212.978 170.937 213.005 170.964C213.033 170.992 213.055 171.025 213.07 171.062C213.086 171.098 213.093 171.137 213.093 171.176V173.648C213.127 174.243 213.387 174.803 213.82 175.212C214.253 175.622 214.826 175.85 215.422 175.85C216.018 175.85 216.592 175.622 217.025 175.212C217.458 174.803 217.718 174.243 217.751 173.648V171.176C217.751 171.097 217.783 171.021 217.839 170.964C217.895 170.908 217.971 170.877 218.051 170.877C218.091 170.876 218.131 170.883 218.168 170.897C218.205 170.912 218.239 170.934 218.268 170.962C218.296 170.99 218.319 171.023 218.335 171.06C218.35 171.097 218.358 171.136 218.358 171.176V173.648C218.359 174.034 218.283 174.417 218.135 174.775C217.988 175.132 217.77 175.456 217.496 175.729C217.222 176.001 216.897 176.217 216.539 176.363C216.181 176.509 215.798 176.583 215.411 176.58Z" fill="#263238"></path><path d="M215.411 179.739C215.333 179.737 215.259 179.705 215.204 179.649C215.149 179.593 215.119 179.518 215.119 179.439V176.28C215.112 176.237 215.115 176.192 215.127 176.149C215.139 176.107 215.16 176.067 215.189 176.033C215.218 176 215.254 175.973 215.294 175.954C215.334 175.936 215.378 175.926 215.422 175.926C215.467 175.926 215.51 175.936 215.551 175.954C215.591 175.973 215.627 176 215.656 176.033C215.684 176.067 215.706 176.107 215.718 176.149C215.73 176.192 215.733 176.237 215.726 176.28V179.439C215.726 179.48 215.718 179.52 215.702 179.557C215.686 179.595 215.662 179.629 215.633 179.657C215.603 179.685 215.569 179.706 215.531 179.721C215.493 179.735 215.452 179.741 215.411 179.739Z" fill="#263238"></path><path d="M217.437 179.9H213.393C213.353 179.901 213.313 179.894 213.276 179.879C213.239 179.865 213.205 179.843 213.176 179.815C213.148 179.787 213.125 179.753 213.109 179.717C213.094 179.68 213.086 179.64 213.086 179.6C213.086 179.519 213.118 179.441 213.176 179.383C213.233 179.325 213.312 179.293 213.393 179.293H217.437C217.518 179.293 217.596 179.325 217.654 179.383C217.712 179.441 217.744 179.519 217.744 179.6C217.744 179.64 217.736 179.68 217.72 179.717C217.705 179.753 217.682 179.787 217.654 179.815C217.625 179.843 217.591 179.865 217.554 179.879C217.517 179.894 217.477 179.901 217.437 179.9Z" fill="#263238"></path><path d="M100.066 215.95C100.066 215.95 100.388 217.602 100.703 217.683C101.017 217.763 104.103 217.602 104.176 216.813C104.249 216.023 102.596 215.547 102.596 215.547L100.066 215.95Z" fill="white" stroke="#263238" stroke-linejoin="round"></path><path d="M264.996 217.207L266.042 216.754C266.247 216.666 266.476 216.649 266.692 216.706C266.908 216.763 267.098 216.891 267.234 217.068L269.552 220.183C269.954 219.664 270.444 219.116 270.824 218.721L270.912 218.662C271.095 218.593 271.293 218.575 271.486 218.608C271.679 218.641 271.859 218.726 272.009 218.853C272.144 218.976 272.247 219.13 272.31 219.302C272.372 219.474 272.392 219.658 272.367 219.84C273.141 221.024 273.823 222.266 274.407 223.554C274.751 224.103 280.118 228.9 283.642 231.993L283.818 232.103C283.399 231.324 283.149 230.465 283.085 229.583C283.021 228.701 283.143 227.815 283.445 226.984C284.286 224.79 285.639 217.529 285.726 216.842C285.653 216.608 285.58 216.403 285.514 216.22C285.182 216.676 284.709 217.01 284.169 217.171C282.765 217.427 281.975 216.666 281.368 216.279C280.761 215.891 279.46 216.535 278.188 216.279C276.915 216.023 277.171 214.882 276.659 214.246C276.147 213.61 275.263 215.262 274.239 214.246C273.215 213.229 269.786 209.537 270.583 205.215C271.38 200.894 275.416 196.44 275.416 196.44C276.28 195.503 277.37 194.803 278.582 194.408C281.888 193.267 286.472 193.143 290.158 196.192C293.843 199.241 294.487 205.478 295.759 208.791C297.031 212.103 297.792 214.26 297.543 215.409C297.353 216.235 295.43 215.46 294.143 215.021C295.822 218.001 297.147 221.167 298.092 224.454C298.662 226.34 299.364 229.258 300.183 233.082C301.161 236.287 301.832 239.578 302.187 242.91C303.079 245.557 303.949 248.19 304.658 250.325C305.514 252.891 306.121 254.749 306.274 255.151C306.742 256.431 307.737 259.538 307.912 260.057C309.623 261.344 310.486 262.156 310.486 262.485C310.39 263.063 310.157 263.61 309.806 264.079L310.457 265.542L320.921 277.241L323.729 276.993C323.779 276.99 323.829 277.003 323.871 277.031C323.913 277.058 323.945 277.099 323.963 277.146L330.697 297.899C330.722 297.96 330.722 298.028 330.697 298.089C330.679 298.118 330.654 298.142 330.625 298.16C330.596 298.178 330.563 298.188 330.529 298.191L324.869 298.762L325.549 301.401L303.122 303.398L303.569 305.036L304.834 309.598L307.254 317.232C307.605 317.591 308.885 318.944 308.804 319.733C308.798 319.822 308.772 319.909 308.728 319.986C308.683 320.063 308.622 320.129 308.548 320.179C308.198 320.45 307.881 320.762 307.605 321.108C307.071 321.715 306.574 322.285 306.047 322.373C305.831 322.388 305.613 322.388 305.397 322.373C304.175 322.373 301.843 322.183 301.353 321.773C301.309 321.738 301.273 321.694 301.247 321.643C301.222 321.593 301.208 321.537 301.207 321.481C301.207 321.035 301.887 320.647 302.932 320.099C303.254 319.923 303.561 319.763 303.715 319.653C304.103 319.3 304.444 318.9 304.731 318.461C303.868 316.706 294.143 296.071 292.629 292.78C292.61 292.728 292.588 292.677 292.564 292.627L292.527 292.539L292.447 292.363C292.176 291.705 291.715 287.859 291.313 283.589L285.807 319.053C285.631 322.79 285.112 322.856 284.944 322.878C284.805 322.878 277.105 321.927 276.813 321.028C276.792 320.985 276.781 320.939 276.781 320.892C276.781 320.845 276.792 320.799 276.813 320.757C277.178 320.077 281.42 318.922 282.962 318.512C282.962 317.781 282.962 315.514 282.904 312.282C282.904 309.233 282.758 296.626 282.802 286.433V285.702C282.802 280.949 282.889 276.927 283.006 274.616C283.006 274.507 283.006 274.404 283.006 274.309V274.207C283.006 274.126 283.006 274.046 283.006 273.973C283.01 273.929 283.01 273.885 283.006 273.841C283.01 273.783 283.01 273.724 283.006 273.666C283.01 273.612 283.01 273.558 283.006 273.505C283.006 273.468 283.006 273.424 283.006 273.388C283.002 273.31 283.002 273.232 283.006 273.154C283.423 269.958 284.908 261.652 285.873 256.379C285.538 256.597 285.158 256.737 284.761 256.789C284.703 256.801 284.644 256.801 284.586 256.789C284.518 256.772 284.456 256.738 284.405 256.691C284.354 256.644 284.316 256.584 284.293 256.518C284.059 255.933 284.374 254.471 284.893 252.314L285.046 251.67C285.544 249.542 286.428 243.232 286.436 243.203C286.352 242.108 286.19 241.021 285.953 239.949C285.93 239.998 285.896 240.042 285.855 240.077C285.813 240.113 285.764 240.139 285.712 240.153H285.668C285.302 240.153 284.323 239.108 278.107 231.803C275.643 228.878 272.842 225.616 272.52 225.419C272.199 225.222 271.219 224.936 270.539 224.688L270.407 224.805C270.312 224.89 270.199 224.954 270.078 224.994C269.956 225.034 269.828 225.049 269.7 225.037C269.573 225.026 269.449 224.988 269.337 224.927C269.224 224.865 269.126 224.781 269.047 224.681L268.177 223.569C268.213 223.653 268.238 223.742 268.25 223.832C268.257 223.861 268.255 223.891 268.244 223.918C268.234 223.945 268.216 223.969 268.192 223.986C268.162 224.009 268.126 224.021 268.089 224.022H268.031C267.833 223.957 266.042 223.342 265.764 222.655C265.559 221.939 265.429 221.204 265.376 220.461C265.372 220.427 265.379 220.392 265.396 220.361C265.413 220.331 265.439 220.307 265.471 220.293C265.507 220.282 265.545 220.282 265.581 220.293L264.433 218.831C264.32 218.699 264.243 218.539 264.211 218.369C264.178 218.198 264.191 218.022 264.248 217.857C264.305 217.693 264.404 217.547 264.535 217.433C264.667 217.318 264.826 217.241 264.996 217.207ZM266.254 222.45C266.4 222.809 267.292 223.247 267.994 223.511C267.408 222.549 266.719 221.654 265.939 220.842C265.988 221.387 266.093 221.926 266.254 222.45ZM302.998 280.532L304.461 280.371L304.702 278.843C304.712 278.794 304.737 278.749 304.774 278.715C304.811 278.681 304.857 278.659 304.907 278.653L305.506 278.602L307.985 265.381C307.795 265.14 307.62 264.927 307.546 264.825C307 264.616 306.536 264.237 306.223 263.743C305.723 262.81 305.408 261.79 305.294 260.738C305.185 260.46 303.89 257.081 302.369 253.637C302.369 255.217 302.325 255.977 302.325 255.985C302.322 256.026 302.309 256.066 302.286 256.101C302.263 256.135 302.231 256.163 302.194 256.182C302.159 256.203 302.118 256.214 302.077 256.214C302.036 256.214 301.995 256.203 301.96 256.182C301.658 257.821 300.965 259.364 299.942 260.679L298.684 287.398L301.609 297.965V297.796L302.998 280.532ZM308.387 265.834L305.945 278.565L306.881 278.485L308.629 266.112L308.387 265.834ZM309.799 265.491C309.805 265.578 309.805 265.666 309.799 265.754C309.806 265.785 309.806 265.818 309.799 265.849C309.799 265.937 309.601 266.397 309.258 266.478H309.162C309.111 266.485 309.06 266.485 309.009 266.478L307.312 278.455L315.319 277.724L310.033 265.768L309.799 265.491ZM311.034 266.873L315.824 277.695L320.343 277.3L311.034 266.873Z" fill="#263238"></path><path d="M105.493 303.054C105.136 302.609 104.709 302.226 104.228 301.92C103.525 301.531 102.978 300.911 102.678 300.166C102.522 299.689 102.322 299.229 102.078 298.791C102.905 297.899 103.716 296.487 103.687 295.647C103.699 295.517 103.679 295.386 103.628 295.266C103.577 295.146 103.497 295.04 103.394 294.959C103.109 294.791 102.736 294.959 102.232 295.259C101.957 295.416 101.674 295.558 101.384 295.683C101.055 295.817 100.715 295.92 100.367 295.99C100.199 295.734 100.075 295.566 100.06 295.537C100.037 295.503 100.004 295.477 99.965 295.464C99.9211 295.464 99.5043 295.259 98.8535 295.04C99.4495 294.606 99.9108 294.013 100.184 293.329C100.375 292.678 100.294 292.188 99.9723 292.034C99.8188 291.954 99.4166 291.866 98.8535 292.619C98.0957 293.342 97.2203 293.931 96.265 294.36C95.2817 294.175 94.2815 294.097 93.2816 294.126C92.6966 293.789 90.5979 292.663 89.3841 292.663C88.5139 291.844 86.3275 289.855 85.5744 289.855C85.3677 289.851 85.1627 289.893 84.9748 289.979L54.6798 268.913C55.1843 268.543 55.5704 268.035 55.7913 267.45C56.1716 265.944 55.0601 262.96 54.1753 262.514L53.4441 262.142C53.4129 262.124 53.3776 262.114 53.3417 262.114C53.3058 262.114 53.2705 262.124 53.2393 262.142L53.0273 262.266C52.9213 261.919 52.7766 261.586 52.5958 261.271C52.3326 260.876 51.3893 259.809 50.8043 259.151C50.9125 259.046 50.9971 258.92 51.0526 258.78C51.1081 258.64 51.1331 258.489 51.1261 258.339C51.0164 257.915 50.0365 256.635 48.4351 254.581C47.4187 253.272 46.3657 251.919 46.0367 251.341C45.5687 250.53 43.843 246.742 42.6218 244.029C42.461 243.298 42.2928 242.471 42.1246 241.645L45.7808 239.32L48.2085 237.762L53.9486 236.475C53.9725 236.482 53.9979 236.482 54.0217 236.475C54.1899 236.366 54.6579 235.803 53.7366 233.221C53.6123 232.87 53.4806 232.534 53.3563 232.198C55.0308 231.466 59.0087 229.572 59.484 229.097C59.9593 228.622 61.0489 225.982 61.2024 225.587C61.3414 225.382 61.8386 224.622 61.7216 224.161C61.7026 224.094 61.6692 224.032 61.6237 223.979C61.5783 223.926 61.5219 223.883 61.4584 223.854C61.3368 223.809 61.2075 223.79 61.0781 223.796L63.2718 220.973C63.3687 220.851 63.4362 220.708 63.4689 220.555C63.5017 220.403 63.4989 220.245 63.4607 220.093C63.4225 219.942 63.35 219.801 63.2488 219.683C63.1475 219.564 63.0203 219.47 62.877 219.408L61.802 218.94C61.5902 218.849 61.3535 218.831 61.1305 218.891C60.9075 218.951 60.7112 219.084 60.5736 219.269L58.1898 222.465C58.0518 222.325 57.8808 222.222 57.6925 222.165C57.0564 221.953 56.369 222.845 56.1643 223.138C55.1287 223.625 54.222 224.349 53.5172 225.251C53.047 225.821 52.7886 226.537 52.786 227.276C52.7909 227.434 52.7712 227.592 52.7275 227.744C52.3792 228.274 51.9263 228.727 51.3966 229.075C51.2606 228.987 51.1068 228.93 50.9462 228.909C50.7857 228.887 50.6223 228.902 50.468 228.951C49.6636 229.061 44.428 231.759 40.4501 233.857L38.1833 223.079L38.5635 222.955C38.6184 222.936 38.6689 222.907 38.7117 222.868C38.7545 222.829 38.7887 222.781 38.8121 222.728C39.0827 222.121 38.293 220.22 38.1321 219.847C38.1227 219.822 38.1077 219.8 38.0882 219.781L35.5947 217.149L36.2309 216.732C37.3076 216.089 38.5456 215.767 39.7993 215.803C41.2618 216.63 43.1922 217.039 43.8211 216.176C44.3183 215.489 45.0422 213.251 45.5906 210.751C45.8795 210.788 46.1731 210.739 46.4336 210.608C46.6942 210.478 46.9099 210.273 47.0531 210.019C47.4699 209.252 46.6948 207.475 46.3219 206.685C46.4096 205.954 46.4827 205.222 46.5339 204.557C46.6574 203.244 46.546 201.919 46.2049 200.645L46.3511 200.681C48.5448 201.259 50.8628 201.259 50.2852 198.247C49.7075 195.234 47.3602 195.819 46.2341 195.819C45.108 195.819 47.3968 193.625 44.9618 192.806C42.5268 191.987 42.0369 193.384 41.8394 194.195C41.642 195.007 40.4501 195.007 39.4044 195.007C38.3588 195.007 37.3277 193.735 33.3864 195.241C29.4451 196.747 28.7577 201.954 29.6864 205.076C30.5712 208.074 31.0903 209.595 32.6917 210.37C32.6917 210.37 32.6917 210.37 32.6917 210.414C32.2028 211.544 31.5472 212.594 30.7467 213.529C30.5145 213.283 30.2486 213.072 29.9569 212.9C28.9186 212.484 27.712 214.597 27.478 215.028C27.4705 215.062 27.4705 215.097 27.478 215.131C25.4087 217.324 22.5788 221.068 21.7818 225.368C20.5021 232.293 18.8568 257.315 18.8568 257.542C18.8533 257.593 18.8675 257.643 18.8968 257.684C18.9261 257.725 18.9688 257.755 19.0177 257.769C19.0177 257.769 19.9829 258.032 21.4893 258.368C21.4551 259.892 21.6323 261.413 22.0157 262.887C22.9371 266.193 24.4069 269.139 24.4069 269.688C24.4069 270.236 23.3027 286.236 23.1199 286.784C22.9371 287.332 11.4202 313.233 10.689 315.814C10.6527 315.805 10.6147 315.805 10.5787 315.816C10.5428 315.826 10.5102 315.845 10.4842 315.872C9.86269 316.604 7.8518 318.965 8.04192 319.748C8.2686 320.655 11.4129 322.124 12.8242 322.3C13.5523 322.384 14.2849 322.423 15.0179 322.417C16.4803 322.417 18.0232 322.285 18.674 321.905C18.7579 321.867 18.8288 321.805 18.8782 321.727C18.9275 321.649 18.9531 321.558 18.9519 321.466C18.9519 321.071 18.3815 320.794 17.4017 320.348C16.8799 320.147 16.3879 319.876 15.9392 319.543C15.208 318.812 13.8698 317.642 13.7016 317.496C15.3177 315.258 31.9824 292.056 32.8818 290.835C33.2109 290.367 33.8617 287.033 34.5783 282.916L35.8214 287.34C35.8214 287.34 36.5526 295.61 38.2125 300.392C39.7408 304.823 42.8558 316.348 43.3311 318.015C43.2903 318.026 43.2534 318.048 43.2248 318.079C43.1963 318.11 43.1773 318.149 43.1703 318.19C43.1118 318.534 42.6218 321.605 43.1703 322.578C43.2288 322.68 43.3238 322.841 43.9015 322.841C45.0975 322.756 46.2787 322.525 47.4187 322.154C49.3382 321.605 51.2275 320.956 53.0785 320.209C53.3736 321.006 53.751 321.771 54.2046 322.49C54.3208 322.59 54.468 322.647 54.6214 322.651H54.731C55.55 322.483 55.4623 319.156 55.0747 313.518C55.0747 313.262 55.0747 313.079 55.0747 313.021C55.6288 312.756 56.2211 312.581 56.8297 312.501L57.7656 312.297C57.3201 312.916 57.0844 313.662 57.0929 314.425C57.3196 315.536 58.9576 320.157 59.7546 321.079C60.0941 321.485 60.521 321.809 61.0035 322.027C61.486 322.245 62.0114 322.35 62.5406 322.336H62.7307C63.8422 322.3 63.9884 322.095 64.1932 321.481V321.4C64.3394 320.889 63.6959 320.669 63.0671 320.464C62.709 320.385 62.3738 320.225 62.0872 319.997C61.3552 318.467 60.822 316.85 60.5005 315.185C60.5005 314.893 61.0123 314.286 61.6192 313.584C62.9788 312.151 64.0665 310.484 64.8293 308.662C65.2174 307.754 65.3925 306.768 65.3412 305.781C66.3203 306.208 67.2538 306.732 68.1272 307.346C70.5549 308.984 75.4395 310.154 79.666 310.271C79.8287 311.081 80.0411 311.879 80.3022 312.662C80.7244 313.754 81.2279 314.812 81.8085 315.828C81.3068 316.144 80.7723 316.404 80.2144 316.604C79.7437 316.436 79.2511 316.337 78.752 316.311C78.7006 316.313 78.6501 316.325 78.6038 316.347C78.5575 316.37 78.5165 316.402 78.4833 316.441C78.4502 316.48 78.4257 316.526 78.4116 316.576C78.3974 316.625 78.3938 316.677 78.401 316.728C78.401 317.328 79.4174 318.71 80.2803 318.71H80.3168C81.2468 318.545 82.1482 318.247 82.9931 317.825C84.1338 319.682 85.4574 322 86.0716 322.278C86.903 322.67 87.8012 322.901 88.7187 322.958C88.9869 322.966 89.2538 322.916 89.5011 322.812C89.634 322.755 89.7524 322.669 89.8474 322.56C89.9423 322.451 90.0115 322.322 90.0495 322.183C90.1403 321.981 90.1872 321.761 90.1872 321.539C90.1872 321.318 90.1403 321.098 90.0495 320.896C89.8667 320.618 89.5157 320.479 88.8942 320.296L87.8631 319.997C87.673 319.675 86.759 317.649 85.9985 316.114C87.1173 315.156 86.7736 314.315 86.2471 313.072L86.1521 312.852C85.8376 312.121 85.4208 310.71 85.0479 309.547C86.6086 308.994 87.8934 307.856 88.6309 306.374L90.0203 305.525C90.6564 306.198 92.214 306.162 99.0437 305.467C99.526 305.498 99.9955 305.635 100.418 305.869C100.88 306.071 101.377 306.178 101.881 306.184C102.069 306.184 102.258 306.169 102.444 306.14L104.447 305.825C104.481 305.835 104.516 305.835 104.55 305.825C104.521 305.723 106.385 304.29 105.493 303.054ZM56.9174 293.299C56.838 293.074 56.8233 292.832 56.875 292.599C56.9267 292.367 57.0428 292.153 57.2099 291.983C57.4456 291.65 57.785 291.404 58.1752 291.283C58.5654 291.163 58.9845 291.175 59.367 291.318C59.8257 291.502 60.22 291.817 60.5005 292.224C60.0909 292.25 59.6832 292.298 59.2793 292.371C58.4408 292.53 57.6396 292.845 56.9174 293.299ZM39.0461 260.006C40.611 259.94 41.5981 259.838 41.6201 259.838C41.675 259.834 41.7264 259.809 41.7632 259.768C41.8 259.727 41.8195 259.674 41.8175 259.619C41.8175 259.619 41.8175 259.356 41.8175 258.807L42.4171 258.975H42.5487C42.6627 259.267 42.7413 259.571 42.7827 259.882C42.7827 260.876 45.1958 262.858 45.7076 263.246C45.7483 263.274 45.7968 263.29 45.8466 263.29C45.8963 263.29 45.9448 263.274 45.9855 263.246L46.1171 263.136C46.3511 263.721 46.6582 264.503 46.7606 264.825C46.8768 265.155 47.0288 265.472 47.214 265.768C46.6948 266.156 45.8978 266.916 46.1976 267.83C46.6071 269.052 48.7276 270.58 49.9049 270.967C50.023 271.005 50.1466 271.022 50.2705 271.019C51.2124 270.91 52.1201 270.601 52.9322 270.112C53.4179 269.848 53.8824 269.548 54.3215 269.212L84.6384 290.257C84.6167 290.28 84.5971 290.304 84.5799 290.33C84.5124 290.477 84.4882 290.639 84.5102 290.798C84.5323 290.958 84.5996 291.108 84.7042 291.23C85.33 291.796 86.0195 292.286 86.759 292.692C86.2895 292.717 85.8238 292.79 85.3696 292.912C84.7627 293.087 81.3552 293.979 73.5164 294.279C70.945 294.329 68.3843 293.933 65.9481 293.109H65.875C66.0866 292.124 66.0691 291.103 65.8238 290.126C65.2023 287.698 62.2773 283.435 58.9064 283.969C57.9125 284.098 56.9573 284.437 56.104 284.962C55.2506 285.488 54.5185 286.189 53.9559 287.018C53.5883 287.656 53.3715 288.37 53.3221 289.106C53.2727 289.841 53.3919 290.577 53.6708 291.259C55.0382 295.062 53.7512 296.729 53.7366 296.743C53.7011 296.795 53.6855 296.857 53.6927 296.919C52.6628 298.852 52.1727 301.027 52.2741 303.215C52.4286 304.626 52.8217 306.001 53.4368 307.28C53.8462 308.202 54.1168 308.809 53.8316 309.277C53.6561 309.562 53.3636 309.569 52.903 309.547C52.678 309.508 52.4472 309.518 52.2264 309.576C52.0056 309.634 51.7998 309.739 51.6233 309.884C51.2504 310.264 51.0968 310.959 51.1407 312.077C51.268 314.117 51.6237 316.135 52.201 318.095C50.8482 317.737 49.0932 317.415 47.4992 317.152H47.4407C47.1994 314.615 44.8887 289.994 44.8887 287.033C44.8887 283.903 38.8194 262.946 38.8194 261.842C38.8559 261.226 38.9316 260.613 39.0461 260.006Z" fill="#263238"></path><path d="M228.099 266.726C228.099 266.726 226.461 281.658 225.949 282.579C225.438 283.501 222.476 287.179 221.562 290.455C220.648 293.731 214.506 312.443 214.506 312.443L212.97 315.821L212.561 321.342L213.38 321.649L214.71 318.79C215.13 318.841 215.529 318.999 215.869 319.249C216.21 319.498 216.481 319.831 216.655 320.216C217.474 321.678 217.474 322.161 219.624 322.366C221.774 322.57 225.247 322.775 225.759 322.161C226.271 321.547 226.066 321.137 225.759 320.933C225.452 320.728 222.995 319.397 222.995 319.397L219.727 313.671L220.026 311.112C220.026 311.112 232.304 289.124 233.73 287.281C235.156 285.439 239.155 276.854 239.155 276.854L228.099 266.726Z" fill="white" stroke="#263238" stroke-linejoin="round"></path><path d="M239.148 276.854L228.099 266.726C228.099 266.726 226.461 281.658 225.949 282.579C225.437 283.501 222.476 287.179 221.562 290.455C221.284 291.435 220.545 293.797 219.639 296.619C221.916 297.742 224.334 298.556 226.827 299.039C229.92 293.584 233.049 288.159 233.73 287.281C235.155 285.468 239.148 276.854 239.148 276.854Z" fill="#757575" stroke="#263238" stroke-linejoin="round"></path><path d="M225.75 322.161C226.261 321.547 226.057 321.137 225.75 320.932C225.442 320.728 222.985 319.397 222.985 319.397L221.45 320.318C220.487 320.291 219.543 320.041 218.693 319.587C217.465 318.856 216.646 317.854 215.52 316.216C214.989 315.449 214.411 314.716 213.787 314.022L212.96 315.828L212.551 321.349L213.37 321.656L214.701 318.797C215.12 318.848 215.519 319.006 215.86 319.256C216.2 319.506 216.471 319.839 216.646 320.223C217.465 321.686 217.465 322.168 219.614 322.373C221.764 322.578 225.238 322.761 225.75 322.161Z" fill="#263238" stroke="#263238" stroke-linejoin="round"></path><path d="M225.948 247.802C225.948 247.802 222.475 255.166 223.491 260.079C224.507 264.993 232.266 272.861 232.8 273.783C233.333 274.704 241.194 284.217 241.194 284.217C241.194 284.217 240.989 292.992 243.951 297.921C246.912 302.849 253.259 313.057 253.259 313.057C253.259 313.057 252.85 316.223 253.055 316.53C253.259 316.838 254.517 321.956 254.517 321.956H255.336L255.541 319.09C255.541 319.09 257.793 321.137 258.407 321.649C259.022 322.161 264.645 321.751 265.771 321.547C266.897 321.342 268.696 320.625 268.023 320.318C266.55 319.572 265.115 318.752 263.723 317.861C262.802 317.247 259.833 313.474 258.714 312.136C257.596 310.798 254.62 301.394 252.674 296.59C250.729 291.786 248.287 284.422 248.287 282.579C248.287 280.737 243.476 264.065 243.476 264.065C243.476 264.065 245.216 256.599 245.011 252.716C244.806 248.833 229.363 246.866 228.924 246.778C228.485 246.691 225.948 247.802 225.948 247.802Z" fill="white" stroke="#263238" stroke-linejoin="round"></path><path d="M243.827 297.701C244.953 297.796 247.687 297.657 252.177 295.398C250.327 290.645 248.25 284.276 248.25 282.579C248.25 280.737 243.439 264.065 243.439 264.065C243.439 264.065 245.179 256.599 244.975 252.716C244.77 248.833 229.326 246.866 228.887 246.778C228.449 246.691 225.919 247.802 225.919 247.802C225.919 247.802 222.445 255.166 223.462 260.079C224.478 264.993 232.236 272.861 232.77 273.783C233.304 274.704 241.165 284.217 241.165 284.217C241.165 284.217 240.997 292.78 243.827 297.701Z" fill="#757575" stroke="#263238" stroke-linejoin="round"></path><path d="M243.439 264.065L240.543 257.081" stroke="#263238" stroke-linejoin="round"></path><path d="M267.994 320.318C267.387 320.062 265.42 318.936 264.258 318.22L262.649 319.836C261.054 319.783 259.488 319.4 258.049 318.71C256.244 317.627 254.566 316.344 253.048 314.885C252.963 315.44 252.963 316.005 253.048 316.56C253.252 316.867 254.51 321.985 254.51 321.985H255.336L255.541 319.119C255.541 319.119 257.793 321.166 258.408 321.678C259.022 322.19 264.645 321.781 265.771 321.576C266.897 321.371 268.703 320.625 267.994 320.318Z" fill="#263238" stroke="#263238" stroke-linejoin="round"></path><path d="M226.152 249.031C226.152 249.031 236.587 253.125 239.241 253.125C241.158 253.092 243.072 252.956 244.974 252.716L245.793 249.542C245.793 249.542 245.888 240.95 245.581 238.084C245.274 235.218 243.439 225.507 243.132 224.044C242.824 222.582 239.98 213.741 239.98 213.741L229.238 213.851L229.143 240.541L226.152 249.031Z" fill="white" stroke="#263238" stroke-linejoin="round"></path><path d="M240.324 207.738C241.281 208.792 242.181 209.895 243.022 211.043C243.827 212.257 246.32 213.2 246.32 213.2C246.32 213.2 246.861 215.284 247.607 218.589C248.353 221.895 247.337 227.013 247.878 228.9C248.419 230.786 252.185 234.625 252.792 234.018C253.399 233.411 255.49 225.324 254.744 223.372C253.998 221.419 249.421 212.864 249.421 212.403C249.421 211.942 248.814 207.146 248.543 206.809C248.352 206.539 248.195 206.247 248.075 205.939L241.743 206.473L240.324 207.738Z" fill="white" stroke="#263238" stroke-linejoin="round"></path><path d="M241.604 207.738L246.057 210.1L248.075 205.924L243.154 203.701L241.604 207.738Z" fill="#263238" stroke="#263238" stroke-linejoin="round"></path><path d="M245.786 203.497C245.786 203.497 245.179 202.151 244.638 202.488C244.097 202.824 243.022 205.113 243.219 205.413L243.424 205.683L245.786 203.497Z" fill="white" stroke="#263238" stroke-linejoin="round"></path><path d="M246.992 204.235C246.992 204.235 246.392 203.16 245.785 203.504C245.178 203.848 244.03 205.456 244.235 205.698C244.487 205.933 244.783 206.116 245.105 206.239L246.992 204.235Z" fill="white" stroke="#263238" stroke-linejoin="round"></path><path d="M248.074 205.924L246.992 204.235C246.992 204.235 244.908 205.786 245.105 206.261C245.302 206.736 247.13 205.654 247.13 205.654L248.074 205.924Z" fill="white" stroke="#263238" stroke-linejoin="round"></path><path d="M238.02 211.862C238.02 211.862 239.957 217.017 240.776 219.174C242.498 223.708 243.767 228.401 244.564 233.185C245.683 239.934 245.793 249.55 245.793 249.55C245.793 249.55 249.449 248.628 249.449 247.809C249.449 246.99 246.173 232.366 246.173 232.366L252.754 234.026L250.458 224.9L245.339 221.419C245.339 221.419 243.701 214.977 243.094 213.953C242.487 212.93 238.02 211.862 238.02 211.862Z" fill="#263238" stroke="#263238" stroke-linejoin="round"></path><path d="M247.886 222.114C247.886 224.805 247.506 227.605 247.886 228.9C248.42 230.786 252.193 234.625 252.8 234.018C253.407 233.411 256.697 233.74 254.752 223.372C254.564 222.798 254.319 222.244 254.021 221.719L250.928 222.948L247.886 222.114Z" fill="#263238" stroke="#263238" stroke-linejoin="round"></path><path d="M246.912 220.388C246.912 220.388 250.802 221.119 251.109 221.119C252.238 220.542 253.329 219.894 254.378 219.182L255.606 223.167L250.905 225.829L247.014 224.191L246.912 220.388Z" fill="white" stroke="#263238" stroke-linejoin="round"></path><path d="M230.109 204.009L231.644 205.193C231.757 206.177 231.66 207.174 231.359 208.118C230.876 209.178 229.041 212.652 229.041 212.652C229.041 212.652 232.807 217.288 234.445 218.158C236.083 219.028 239.563 220.183 239.666 219.898C239.853 219.041 239.949 218.166 239.951 217.288C239.951 216.227 238.021 211.884 238.021 211.884L239.658 208.118C239.658 208.118 242.174 208.696 242.583 208.016C242.993 207.336 244.514 203.482 244.514 203.482C244.514 203.482 245.574 203.19 245.092 202.319C244.609 201.449 243.446 200.484 243.446 200.199C243.446 199.914 243.929 197.493 243.929 196.623C243.929 195.753 242.298 192.674 242.298 192.674L229.743 202.107L230.109 204.009Z" fill="white" stroke="#263238" stroke-linejoin="round"></path><path d="M241.048 190.817L226.424 198.488L230.109 204.009L242.277 192.653L241.048 190.817Z" fill="white" stroke="#263238" stroke-miterlimit="10"></path><path d="M241.054 190.817C241.239 189.059 241.06 187.282 240.528 185.596C239.658 183.403 236.089 182.503 236.184 183.081C236.279 183.658 236.47 184.339 236.47 184.339C236.47 184.339 228.558 183.373 226.817 184.726C225.077 186.079 220.543 191.87 221.026 193.706C221.509 195.541 222.956 194.868 222.956 194.868C222.956 194.868 222.276 195.541 223.242 196.894C224.207 198.247 227.007 198.049 227.007 198.049L241.054 190.817Z" fill="#263238" stroke="#263238" stroke-miterlimit="10"></path><path d="M240.047 203.168C240.047 203.168 240.244 204.323 241.882 204.52" stroke="#263238" stroke-linejoin="round"></path><path d="M242.429 199.592C242.429 200.075 242.18 200.462 241.866 200.462C241.551 200.462 241.303 200.075 241.303 199.592C241.303 199.109 241.551 198.722 241.866 198.722C242.18 198.722 242.429 199.109 242.429 199.592Z" fill="#263238"></path><path d="M240.82 197.859C240.82 197.859 241.786 196.894 242.751 197.567" stroke="#263238" stroke-linejoin="round"></path><path d="M232.031 202.495C232.248 202.763 232.51 202.991 232.806 203.168C233.219 203.272 233.651 203.272 234.064 203.168L235.41 205.098" stroke="#263238" stroke-linejoin="round"></path><path d="M230.394 210.027L227.689 211.087L220.83 212.63C220.83 212.63 215.909 240.826 216.494 241.148C217.079 241.47 227.309 239.122 227.309 239.122L224.12 248.175C224.12 248.175 231.945 251.458 233.392 251.648C234.84 251.838 240.441 251.846 240.441 251.846C240.441 251.846 239.374 233.112 237.831 226.735C236.816 222.32 235.359 218.018 233.48 213.895C232.581 212.507 231.547 211.212 230.394 210.027Z" fill="#263238" stroke="#263238" stroke-linejoin="round"></path><path d="M224.793 234.165L225.663 241.506L230.007 240.636L229.136 233.199L224.793 234.165Z" fill="white" stroke="#263238" stroke-linejoin="round"></path><path d="M229.137 234.165L232.903 232.424L236.091 227.116L242.562 226.34L242.365 227.306L238.409 227.891L238.504 228.856L242.95 228.271V229.163L238.599 230.516L242.175 230.713L241.692 231.773L238.701 231.869L241.626 233.126L241.048 233.799L237.18 233.316C237.18 233.316 236.508 234.859 235.447 235.152C234.387 235.444 233.129 235.729 233.129 235.729L229.554 238.245L229.137 234.165Z" fill="white" stroke="#263238" stroke-linejoin="round"></path><path d="M222.958 234.07L221.225 244.694L222.38 244.592L223.894 234.567C223.967 234.04 223.894 234.084 223.404 233.916L222.958 234.07Z" fill="white" stroke="#263238" stroke-linejoin="round"></path><path d="M214.847 242.376L221.991 243.722L233.581 243.824L234.357 257.63L221.706 257.725C221.319 257.725 212.244 255.699 212.244 255.699L214.847 242.376Z" fill="white" stroke="#263238" stroke-linejoin="round"></path><path d="M221.699 257.725L234.35 257.63L233.575 243.824L232.617 253.294C232.617 253.294 226.723 254.061 222.767 253.389C218.811 252.716 215.118 251.743 215.118 251.743L214.826 242.376L212.223 255.699C212.223 255.699 221.319 257.725 221.699 257.725Z" fill="#787878" stroke="#263238" stroke-linejoin="round"></path><path d="M127.758 315.448C127.758 315.448 125.916 318.439 125.455 318.9C124.994 319.36 122.581 320.742 122.238 321.313C121.894 321.883 122.004 322.468 123.042 322.585C125.933 322.567 128.818 322.322 131.671 321.854C132.709 321.51 137.652 316.443 137.769 316.099C137.886 315.755 135.312 312.041 135.312 312.041L127.758 315.448Z" fill="white" stroke="#263238" stroke-linejoin="round"></path><path d="M94.1952 235.868C94.1952 235.868 86.9487 235.174 86.5319 235.035C86.1151 234.896 84.7184 231.971 84.3382 231.759C83.4837 231.431 82.6466 231.06 81.8301 230.647C81.1952 230.132 80.6726 229.493 80.2945 228.768C80.0166 228.351 79.1172 228.49 79.2561 229.112C79.4886 229.718 79.817 230.284 80.2287 230.786L78.832 231.759C78.832 231.759 81.3402 238.164 82.2469 238.238C83.1536 238.311 86.4953 238.303 86.4953 238.303L95.4456 242.325L94.1952 235.868Z" fill="white" stroke="#263238" stroke-linejoin="round"></path><path d="M75.088 226.443L81.3034 237.053L82.9706 236.775L76.8502 226.106C76.8277 226.069 76.7954 226.038 76.7568 226.017C76.7181 225.997 76.6746 225.987 76.6309 225.989L75.2708 226.092C75.2322 226.097 75.1955 226.111 75.1636 226.133C75.1318 226.156 75.1058 226.185 75.0878 226.22C75.0699 226.254 75.0605 226.292 75.0605 226.331C75.0606 226.37 75.07 226.408 75.088 226.443Z" fill="white" stroke="#263238" stroke-linejoin="round"></path><path d="M79.3594 234.896C79.3594 234.896 79.6372 236.146 79.8493 236.285C80.0614 236.424 82.3574 235.664 82.4232 235.035C82.489 234.406 81.7944 233.989 81.7944 233.989C81.7944 233.989 79.9882 235.013 79.3594 234.896Z" fill="white" stroke="#263238" stroke-linejoin="round"></path><path d="M79.8418 236.285C79.8418 236.285 80.3975 237.404 80.8875 237.404C81.3774 237.404 83.1835 236.987 83.0446 236.219C82.9667 235.767 82.7463 235.352 82.4157 235.035L79.8418 236.285Z" fill="white" stroke="#263238" stroke-linejoin="round"></path><path d="M87.2484 188.163C87.2484 188.163 84.4844 189.428 84.4844 189.998V190.576C84.4844 190.576 84.945 195.066 85.1717 195.87C85.3984 196.674 86.4441 198.861 86.4441 199.438C86.4441 200.016 85.5227 201.734 85.6324 202.085C85.7421 202.436 87.8261 202.89 87.8261 202.89C87.8261 202.89 89.5591 207.372 90.2465 207.372C90.9338 207.372 93.9026 205.91 93.9026 205.91L96.6667 211.431L97.0104 213.5L104.03 207.753L99.906 201.376C99.906 201.376 102.78 197.72 101.975 193.435C101.171 189.15 100.937 186.532 96.2206 186.189C93.1111 186.078 90.0242 186.757 87.2484 188.163Z" fill="white" stroke="#263238" stroke-linejoin="round"></path><path d="M96.2206 186.203C93.1123 186.088 90.0255 186.762 87.2484 188.163C87.2484 188.163 84.4844 189.428 84.4844 189.998V190.576C84.4844 190.576 84.5356 191.088 84.616 191.797L84.7111 191.841L90.1222 189.194C90.1222 189.194 88.6231 191.614 89.6615 192.185C90.814 192.704 92.0076 193.127 93.2299 193.45C93.2299 193.45 93.9173 196.674 94.3779 196.214C94.8386 195.753 94.1513 195.292 95.4163 194.715C96.6813 194.137 98.29 195.753 98.29 197.252C98.29 198.751 96.3376 199.321 96.3376 199.321L99.906 201.391C99.906 201.391 102.78 197.735 101.975 193.45C101.171 189.165 100.937 186.547 96.2206 186.203Z" fill="#263238" stroke="#263238" stroke-linejoin="round"></path><path d="M88.0527 198.634C88.7127 198.642 89.3581 198.44 89.8954 198.056" stroke="#263238" stroke-linejoin="round"></path><path d="M87.3574 196.557C87.6952 196.332 88.0881 196.202 88.4939 196.183C88.8997 196.164 89.3031 196.255 89.6608 196.448" stroke="#263238" stroke-linejoin="round"></path><path d="M103.584 206.912C103.584 206.912 97.3907 210.941 95.197 214.626C93.0033 218.311 92.0893 220.725 92.3159 222.911C92.5426 225.097 94.1513 243.056 94.1513 243.056C94.1513 243.056 93.0033 251.451 92.7766 251.912C92.5499 252.372 91.7383 255.019 91.7383 255.019C91.7383 255.019 93.932 256.628 101.288 257.432C108.644 258.237 116.249 256.284 116.249 256.284L113.946 244.087C113.946 244.087 114.055 220.959 113.134 218.194C112.213 215.43 110.721 211.986 108.652 210.151C107.103 208.865 105.401 207.777 103.584 206.912Z" fill="#263238" stroke="#263238" stroke-linejoin="round"></path><path d="M105.199 207.796C105.199 207.796 100.812 211.599 100.124 216.096C99.4371 220.593 100.124 223.927 101.857 226.582C103.101 228.379 104.576 230.004 106.245 231.415L111.283 237.206L110.135 246.654C110.135 246.654 115.663 251.612 118.31 251.144C120.957 250.676 123.495 250.339 124.767 248.95C126.398 247.243 127.305 244.971 127.297 242.61C127.171 240.742 126.862 238.89 126.376 237.082C126.376 237.082 128.679 236.855 127.641 233.857C126.602 230.859 121.652 223.145 121.191 222.45C120.731 221.756 115.085 217.726 115.085 217.726L109.821 211.372C109.821 211.372 107.963 207.336 105.199 207.796Z" fill="white" stroke="#263238" stroke-linejoin="round"></path><path d="M91.7385 255.012C91.7385 255.012 85.64 269.512 85.0697 277.103C84.4993 284.693 81.6183 304.604 81.6183 304.604L78.3789 312.202L86.2031 316.589L87.7021 317.276C87.7021 317.276 91.0365 304.158 91.6142 302.432C92.1919 300.707 97.252 280.92 97.252 280.92L100.009 272.744C100.009 272.744 110.136 290.813 111.284 292.188C112.432 293.563 127.284 312.662 127.51 313.247C127.677 313.966 127.756 314.703 127.744 315.441L132.132 313.598L135.313 312.07L132.819 303.588C132.819 303.588 120.622 287.822 120.505 287.252C120.388 286.682 114.75 270.112 114.75 270.112C114.75 270.112 114.984 266.317 115.094 265.052C115.204 263.787 116.82 257.008 116.249 256.277L115.672 255.582L93.6909 254.668L91.7385 255.012Z" fill="white" stroke="#263238" stroke-linejoin="round"></path><path d="M100.022 272.73L97.7188 266.865" stroke="#263238" stroke-linejoin="round"></path><path d="M78.3782 312.202L75.9652 313.81C75.9652 313.81 68.9453 313.006 68.3677 313.693C67.79 314.381 68.258 315.653 70.6711 317.152C73.0841 318.651 77.0035 320.369 78.2686 320.603C79.5336 320.837 84.9374 322.439 85.9757 322.212C87.0141 321.985 87.7014 317.262 87.7014 317.262L78.3782 312.202Z" fill="white" stroke="#263238" stroke-linejoin="round"></path><path d="M113.711 224.863C113.711 224.863 115.451 233.719 115.451 235.561C115.451 237.404 123.495 238.099 125.25 237.982" stroke="#263238" stroke-linejoin="round"></path><path d="M107.73 210.151C109.236 211.613 112.563 213.719 113.134 218.194C113.452 220.407 113.645 222.636 113.711 224.871L103.971 225.902C103.971 225.902 102.355 220.147 101.895 217.734C101.434 215.321 105.002 210.941 105.002 210.941C105.002 210.941 106.896 209.361 107.73 210.151Z" fill="#263238" stroke="#263238" stroke-linejoin="round"></path><path d="M103.971 225.902L107.079 235.678C107.079 235.678 105.353 240.395 104.775 242.698C104.198 245.001 103.05 253.63 103.05 253.63L101.777 256.511L107.071 261.798C107.356 260.513 107.51 259.202 107.532 257.886C107.415 256.738 107.188 254.434 107.188 254.434C107.188 254.434 114.318 238.786 114.662 237.748C115.005 236.709 113.74 224.863 113.74 224.863L103.971 225.902Z" fill="white" stroke="#263238" stroke-linejoin="round"></path><path d="M80.5388 131.518C86.3657 130.151 89.9814 124.319 88.6147 118.492C87.248 112.666 81.4165 109.05 75.5896 110.416C69.7627 111.783 66.147 117.615 67.5137 123.442C68.8804 129.268 74.7119 132.884 80.5388 131.518Z" stroke="#263238" stroke-linecap="round" stroke-linejoin="round"></path><path d="M74.6406 125.409L78.0555 120.97V113.029" stroke="#263238" stroke-linecap="round" stroke-linejoin="round"></path><path d="M291.986 64.5555H253.633V89.1688H291.986V64.5555Z" stroke="#263238" stroke-miterlimit="10"></path><path d="M253.633 64.5555L272.491 80.5402L291.715 64.7822" stroke="#263238" stroke-miterlimit="10"></path><path d="M253.633 89.1688L267.373 76.7013" stroke="#263238" stroke-miterlimit="10"></path><path d="M291.985 89.1688L277.602 76.7013" stroke="#263238" stroke-miterlimit="10"></path><path d="M300.409 17.5227C292.505 17.5227 286.092 22.6413 286.092 28.9811C286.092 33.076 288.775 36.6517 292.812 38.6772L290.384 44.7391L298.04 40.2713C298.825 40.3793 299.617 40.4355 300.409 40.4395C308.321 40.4395 314.734 35.3209 314.734 28.9811C314.734 22.6413 308.321 17.5227 300.409 17.5227Z" stroke="#263238" stroke-linecap="round" stroke-linejoin="round"></path><path d="M295.43 29.9902C296.217 29.9902 296.856 29.3518 296.856 28.5643C296.856 27.7768 296.217 27.1384 295.43 27.1384C294.642 27.1384 294.004 27.7768 294.004 28.5643C294.004 29.3518 294.642 29.9902 295.43 29.9902Z" stroke="#263238" stroke-linecap="round" stroke-linejoin="round"></path><path d="M301.836 28.5643C301.836 28.2823 301.753 28.0066 301.596 27.7721C301.439 27.5377 301.216 27.3549 300.956 27.247C300.695 27.139 300.409 27.1108 300.132 27.1658C299.855 27.2208 299.601 27.3566 299.402 27.5561C299.203 27.7555 299.067 28.0096 299.012 28.2861C298.957 28.5627 298.985 28.8494 299.093 29.11C299.201 29.3705 299.384 29.5932 299.618 29.7499C299.853 29.9066 300.128 29.9902 300.41 29.9902C300.598 29.9912 300.784 29.955 300.957 29.8837C301.131 29.8123 301.288 29.7074 301.421 29.5748C301.553 29.4422 301.658 29.2846 301.73 29.1111C301.801 28.9377 301.837 28.7519 301.836 28.5643Z" stroke="#263238" stroke-linecap="round" stroke-linejoin="round"></path><path d="M305.389 29.9902C306.176 29.9902 306.815 29.3518 306.815 28.5643C306.815 27.7768 306.176 27.1384 305.389 27.1384C304.601 27.1384 303.963 27.7768 303.963 28.5643C303.963 29.3518 304.601 29.9902 305.389 29.9902Z" stroke="#263238" stroke-linecap="round" stroke-linejoin="round"></path><path d="M272.967 13.7349C279.168 13.7349 284.191 17.7567 284.191 22.7144C284.191 25.9172 282.086 28.7179 278.927 30.3119L280.821 35.0576L274.824 31.555C274.209 31.6399 273.588 31.6839 272.967 31.6867C266.774 31.6867 261.75 27.6722 261.75 22.7144C261.75 17.7567 266.774 13.7349 272.967 13.7349Z" stroke="#263238" stroke-linecap="round" stroke-linejoin="round"></path><path d="M269.917 22.7145C269.917 22.4643 269.843 22.2197 269.704 22.0116C269.565 21.8036 269.367 21.6415 269.136 21.5457C268.905 21.45 268.65 21.4249 268.405 21.4737C268.16 21.5226 267.934 21.643 267.757 21.82C267.58 21.9969 267.46 22.2223 267.411 22.4677C267.362 22.7131 267.387 22.9674 267.483 23.1986C267.579 23.4297 267.741 23.6273 267.949 23.7663C268.157 23.9053 268.402 23.9795 268.652 23.9795C268.987 23.9776 269.307 23.8437 269.544 23.6069C269.781 23.37 269.915 23.0494 269.917 22.7145Z" stroke="#263238" stroke-linecap="round" stroke-linejoin="round"></path><path d="M273.076 23.9795C273.774 23.9795 274.341 23.4131 274.341 22.7145C274.341 22.0158 273.774 21.4494 273.076 21.4494C272.377 21.4494 271.811 22.0158 271.811 22.7145C271.811 23.4131 272.377 23.9795 273.076 23.9795Z" stroke="#263238" stroke-linecap="round" stroke-linejoin="round"></path><path d="M277.507 23.9795C278.206 23.9795 278.772 23.4131 278.772 22.7145C278.772 22.0158 278.206 21.4494 277.507 21.4494C276.809 21.4494 276.242 22.0158 276.242 22.7145C276.242 23.4131 276.809 23.9795 277.507 23.9795Z" stroke="#263238" stroke-linecap="round" stroke-linejoin="round"></path><path d="M78.3184 61.0529H21.6406V96.2763H78.3184V61.0529Z" stroke="#263238" stroke-linecap="round" stroke-linejoin="round"></path><path d="M78.3184 91.5233H21.6406V96.2763H78.3184V91.5233Z" stroke="#263238" stroke-linecap="round" stroke-linejoin="round"></path><path d="M57.8311 78.0614L44.9688 70.632V85.4907L57.8311 78.0614Z" stroke="#263238" stroke-linecap="round" stroke-linejoin="round"></path><path d="M89.3463 153.846H68.2429C67.791 153.845 67.3433 153.933 66.9255 154.106C66.5077 154.278 66.1279 154.531 65.808 154.85C65.4881 155.169 65.2343 155.549 65.0611 155.966C64.888 156.384 64.7988 156.831 64.7988 157.283V169.48C64.7988 169.932 64.888 170.379 65.0611 170.797C65.2343 171.214 65.4881 171.593 65.808 171.913C66.1279 172.232 66.5077 172.485 66.9255 172.657C67.3433 172.829 67.791 172.918 68.2429 172.917H76.9153L78.8458 176.258L80.7689 172.917H89.3463C89.7979 172.918 90.2452 172.829 90.6626 172.657C91.08 172.485 91.4593 172.232 91.7786 171.912C92.0979 171.593 92.351 171.214 92.5234 170.796C92.6958 170.379 92.784 169.932 92.783 169.48V157.312C92.7879 156.858 92.7025 156.408 92.5319 155.987C92.3612 155.566 92.1087 155.183 91.789 154.861C91.4693 154.539 91.0888 154.283 90.6694 154.109C90.2501 153.934 89.8003 153.845 89.3463 153.846Z" stroke="#263238" stroke-miterlimit="10"></path><path d="M86.6334 161.509C86.6344 162.559 86.2189 163.566 85.4781 164.31L84.4324 165.356L78.8312 170.95L73.2592 165.356L72.2135 164.31C71.8369 163.945 71.5368 163.508 71.3305 163.026C71.1242 162.544 71.0158 162.025 71.0118 161.501C71.0078 160.976 71.1082 160.456 71.3071 159.97C71.506 159.485 71.7994 159.044 72.1704 158.673C72.5413 158.302 72.9824 158.009 73.4678 157.81C73.9532 157.611 74.4734 157.51 74.9979 157.514C75.5225 157.518 76.0411 157.627 76.5234 157.833C77.0057 158.039 77.4422 158.34 77.8074 158.716L78.8531 159.762L79.8988 158.716C80.4516 158.162 81.1564 157.784 81.924 157.631C82.6916 157.477 83.4874 157.555 84.2108 157.854C84.9342 158.153 85.5526 158.66 85.9877 159.311C86.4229 159.962 86.6552 160.727 86.6553 161.509H86.6334Z" stroke="#263238" stroke-miterlimit="10"></path><path d="M31.0523 152.844C32.914 152.844 34.6996 152.105 36.016 150.788C37.3325 149.472 38.0721 147.686 38.0721 145.825V123.559C38.1025 122.617 37.9433 121.679 37.604 120.801C37.2647 119.922 36.7522 119.12 36.0971 118.444C35.4419 117.767 34.6573 117.229 33.7901 116.862C32.9228 116.494 31.9905 116.305 31.0486 116.305C30.1067 116.305 29.1744 116.494 28.3072 116.862C27.4399 117.229 26.6554 117.767 26.0002 118.444C25.345 119.12 24.8325 119.922 24.4932 120.801C24.1539 121.679 23.9948 122.617 24.0251 123.559V145.803C24.0223 146.727 24.2019 147.643 24.5539 148.497C24.9058 149.352 25.4231 150.129 26.076 150.783C26.7289 151.437 27.5046 151.956 28.3586 152.31C29.2125 152.664 30.128 152.845 31.0523 152.844Z" stroke="#263238" stroke-linecap="round" stroke-linejoin="round"></path><path d="M43.5201 145.481V135.032C43.5335 134.855 43.5102 134.677 43.4517 134.51C43.3933 134.343 43.3009 134.19 43.1805 134.06C43.06 133.93 42.914 133.826 42.7516 133.755C42.5892 133.684 42.414 133.648 42.2368 133.648C42.0596 133.648 41.8844 133.684 41.722 133.755C41.5596 133.826 41.4136 133.93 41.2931 134.06C41.1727 134.19 41.0803 134.343 41.0219 134.51C40.9634 134.677 40.9401 134.855 40.9535 135.032V145.481C40.8836 148.046 39.8156 150.482 37.9767 152.272C36.1378 154.061 33.6733 155.062 31.1075 155.062C28.5416 155.062 26.0771 154.061 24.2382 152.272C22.3994 150.482 21.3313 148.046 21.2614 145.481V135.032C21.2614 134.69 21.1258 134.363 20.8845 134.122C20.6431 133.88 20.3158 133.745 19.9745 133.745C19.6331 133.745 19.3058 133.88 19.0644 134.122C18.8231 134.363 18.6875 134.69 18.6875 135.032V145.481C18.6907 148.551 19.8302 151.512 21.8865 153.793C23.9427 156.073 26.7703 157.512 29.8242 157.831V169.37H22.5118C22.1882 169.395 21.8858 169.54 21.6651 169.778C21.4444 170.016 21.3218 170.329 21.3218 170.654C21.3218 170.978 21.4444 171.291 21.6651 171.529C21.8858 171.767 22.1882 171.912 22.5118 171.937H39.6665C39.8432 171.95 40.0207 171.927 40.188 171.868C40.3552 171.81 40.5086 171.718 40.6385 171.597C40.7685 171.477 40.8721 171.331 40.943 171.168C41.0139 171.006 41.0504 170.831 41.0504 170.654C41.0504 170.476 41.0139 170.301 40.943 170.139C40.8721 169.976 40.7685 169.83 40.6385 169.71C40.5086 169.589 40.3552 169.497 40.188 169.439C40.0207 169.38 39.8432 169.357 39.6665 169.37H32.3542V157.831C35.4134 157.518 38.248 156.083 40.3103 153.802C42.3726 151.521 43.5162 148.556 43.5201 145.481Z" stroke="#263238" stroke-linecap="round" stroke-linejoin="round"></path><path d="M317.996 93.6073C319.142 94.5934 320.063 95.8153 320.693 97.1896C321.324 98.5639 321.651 100.058 321.652 101.57C321.652 106.594 313.777 117.058 311.649 119.8C312.621 121.109 313.272 121.913 313.272 121.913C313.272 121.913 323.802 108.817 323.802 103.011C323.803 101.059 323.26 99.1451 322.235 97.4842C321.209 95.8232 319.741 94.4808 317.996 93.6073ZM313.257 99.3548C313.535 99.3575 313.812 99.3869 314.084 99.4425C313.74 98.9611 313.284 98.5705 312.755 98.304C312.227 98.0376 311.642 97.9034 311.05 97.913C310.459 97.9225 309.878 98.0755 309.359 98.3589C308.839 98.6422 308.396 99.0474 308.068 99.5397C307.739 100.032 307.535 100.597 307.473 101.185C307.411 101.773 307.493 102.368 307.711 102.918C307.93 103.468 308.278 103.957 308.727 104.342C309.176 104.728 309.712 104.999 310.289 105.132C309.9 104.585 309.669 103.943 309.62 103.274C309.572 102.605 309.709 101.936 310.015 101.34C310.322 100.743 310.786 100.243 311.358 99.8927C311.93 99.5426 312.587 99.3565 313.257 99.3548Z" stroke="#263238" stroke-linecap="round" stroke-linejoin="round"></path><path d="M314.084 99.4426C314.474 99.9898 314.705 100.634 314.753 101.304C314.8 101.974 314.662 102.644 314.354 103.241C314.046 103.838 313.579 104.338 313.005 104.687C312.431 105.036 311.772 105.22 311.101 105.219C310.828 105.22 310.555 105.19 310.289 105.132M311.642 119.8C311.305 120.239 311.108 120.473 311.108 120.473C311.108 120.473 300.578 107.391 300.578 101.57C300.58 99.5527 301.162 97.578 302.253 95.881C303.345 94.184 304.9 92.8361 306.736 91.9974C308.571 91.1588 310.608 90.8647 312.606 91.1501C314.603 91.4355 316.476 92.2883 318.003 93.6073" stroke="#263238" stroke-linecap="round" stroke-linejoin="round"></path><path d="M295.553 180.558C294.463 180.405 293.359 180.288 292.269 180.09C278.018 177.531 267.993 169.714 262.735 156.106C261.107 151.836 260.286 147.301 260.315 142.731C260.297 142.234 260.396 141.74 260.606 141.289C260.816 140.837 261.129 140.442 261.521 140.136C263.13 138.805 264.702 137.423 266.289 136.063C267.751 134.795 269.138 134.883 270.449 136.326L279.327 146.088C280.592 147.484 280.548 148.859 279.195 150.168C277.308 151.996 275.436 153.824 273.543 155.66C273.419 155.755 273.328 155.887 273.285 156.037C273.241 156.187 273.247 156.347 273.301 156.493C274.129 159.509 275.849 162.203 278.237 164.222C279.96 165.801 282.032 166.949 284.284 167.571C284.458 167.637 284.648 167.647 284.827 167.6C285.007 167.553 285.167 167.451 285.286 167.308C287.085 165.422 288.942 163.564 290.726 161.692C292.028 160.354 293.417 160.31 294.814 161.575L304.62 170.496C306.017 171.761 306.082 173.121 304.861 174.562C303.64 176.002 302.309 177.487 301.059 179.015C300.567 179.689 299.906 180.221 299.143 180.558H295.553Z" stroke="#263238" stroke-linecap="round" stroke-linejoin="round"></path><path d="M285.812 137.145V132.231C288.835 132.146 291.843 132.679 294.652 133.796C297.462 134.913 300.014 136.591 302.154 138.727C304.293 140.864 305.974 143.414 307.095 146.222C308.215 149.03 308.751 152.038 308.671 155.06H303.772C302.901 143.931 296.905 138 285.812 137.145Z" stroke="#263238" stroke-linecap="round" stroke-linejoin="round"></path><path d="M285.85 147.47V142.417C293.718 142.124 298.77 147.031 298.493 155.06H293.447C293.608 149.897 291.071 147.331 285.85 147.47Z" stroke="#263238" stroke-linecap="round" stroke-linejoin="round"></path><path d="M41.6562 22.4951C41.6562 22.283 41.7074 22.0929 41.7513 21.9101C41.8919 21.3352 42.2211 20.824 42.6864 20.4581C43.1516 20.0923 43.726 19.8929 44.3179 19.8919H52.7124C53.3549 19.8982 53.973 20.1386 54.4508 20.568C54.9287 20.9975 55.2336 21.5864 55.3083 22.2245C55.3083 22.2977 55.3083 22.3781 55.3083 22.4878H59.7761C60.2252 22.4828 60.6707 22.5681 61.0862 22.7388C61.5016 22.9095 61.8784 23.162 62.1943 23.4812C62.5102 23.8005 62.7586 24.1801 62.9248 24.5973C63.091 25.0145 63.1716 25.4609 63.1617 25.9099C63.1617 30.4826 63.1617 35.0552 63.1617 39.6278C63.1656 40.078 63.0797 40.5244 62.9091 40.941C62.7384 41.3575 62.4863 41.7358 62.1677 42.0538C61.849 42.3718 61.4701 42.623 61.0532 42.7928C60.6363 42.9626 60.1897 43.0476 59.7396 43.0427H37.2542C36.8059 43.0475 36.3611 42.9633 35.9457 42.7949C35.5302 42.6264 35.1523 42.3772 34.8339 42.0615C34.5156 41.7459 34.2631 41.3702 34.0911 40.9561C33.9191 40.5421 33.831 40.0981 33.832 39.6498C33.832 35.0625 33.832 30.4753 33.832 25.888C33.8309 25.0919 34.1092 24.3207 34.6183 23.7087C35.1274 23.0967 35.8351 22.6828 36.618 22.539C36.8405 22.5035 37.0655 22.4864 37.2908 22.4878H41.6781L41.6562 22.4951Z" stroke="black" stroke-miterlimit="10"></path><path d="M55.4316 32.7982C55.433 34.1693 55.0273 35.51 54.266 36.6504C53.5047 37.7907 52.422 38.6794 51.1551 39.2038C49.8881 39.7281 48.4941 39.8646 47.1495 39.5959C45.805 39.3271 44.5705 38.6652 43.6025 37.6942C42.6345 36.7231 41.9765 35.4865 41.7121 34.1411C41.4476 32.7957 41.5885 31.4021 42.1169 30.1368C42.6453 28.8716 43.5374 27.7917 44.6802 27.034C45.8229 26.2763 47.1649 25.8749 48.536 25.8807C50.3675 25.8846 52.1224 26.6153 53.4154 27.9124C54.7083 29.2095 55.4335 30.9667 55.4316 32.7982Z" stroke="black" stroke-miterlimit="10"></path><path d="M58.3804 25.8295C58.7683 25.8295 59.1403 25.9836 59.4146 26.2578C59.6888 26.5321 59.8429 26.9041 59.8429 27.292C59.8429 27.5812 59.7571 27.864 59.5964 28.1045C59.4357 28.345 59.2073 28.5324 58.9401 28.6431C58.6729 28.7538 58.3788 28.7828 58.0951 28.7263C57.8114 28.6699 57.5508 28.5306 57.3463 28.3261C57.1418 28.1216 57.0025 27.861 56.9461 27.5773C56.8896 27.2936 56.9186 26.9995 57.0293 26.7323C57.14 26.4651 57.3274 26.2367 57.5679 26.076C57.8084 25.9153 58.0912 25.8295 58.3804 25.8295Z" stroke="black" stroke-miterlimit="10"></path></svg>