<svg width="75" height="75" viewBox="0 0 75 75" fill="none" xmlns="http://www.w3.org/2000/svg">
<g clip-path="url(#clip0_4442_800)">
<path d="M32.8125 60.9375H5.85938C4.30594 60.9356 2.81667 60.3177 1.71823 59.2193C0.619784 58.1208 0.00186077 56.6316 0 55.0781L0 5.85938C0.00186077 4.30594 0.619784 2.81667 1.71823 1.71823C2.81667 0.619784 4.30594 0.00186077 5.85938 0L8.20312 0V2.34375H5.85938C4.92697 2.34375 4.03276 2.71415 3.37345 3.37345C2.71415 4.03276 2.34375 4.92697 2.34375 5.85938V55.0781C2.34375 56.0105 2.71415 56.9047 3.37345 57.564C4.03276 58.2234 4.92697 58.5938 5.85938 58.5938H32.8125V60.9375ZM10.5469 0H12.8918V2.34375H10.5469V0ZM69.1406 60.9375V58.5938C70.073 58.5938 70.9672 58.2234 71.6265 57.564C72.2859 56.9047 72.6562 56.0105 72.6562 55.0781V5.85938C72.6562 4.92697 72.2859 4.03276 71.6265 3.37345C70.9672 2.71415 70.073 2.34375 69.1406 2.34375H15.2344V0H69.1406C70.6941 0.00186077 72.1833 0.619784 73.2818 1.71823C74.3802 2.81667 74.9981 4.30594 75 5.85938V55.0781C74.9981 56.6316 74.3802 58.1208 73.2818 59.2193C72.1833 60.3177 70.6941 60.9356 69.1406 60.9375Z" fill="black"/>
<path d="M22.3008 64.193L23.475 59.5055L25.7484 60.0762L24.5742 64.7637L22.3008 64.193Z" fill="black"/>
<path d="M32.8125 70.3125H21.0938C20.7829 70.3125 20.4849 70.189 20.2651 69.9693C20.0453 69.7495 19.9219 69.4514 19.9219 69.1406V66.7969C19.9219 65.8645 20.2923 64.9703 20.9516 64.311C21.6109 63.6516 22.5051 63.2812 23.4375 63.2812H32.8125V65.625H23.4375C23.1267 65.625 22.8286 65.7485 22.6089 65.9682C22.3891 66.188 22.2656 66.4861 22.2656 66.7969V67.9688H32.8125V70.3125ZM1.17188 49.2188H32.8125V51.5625H1.17188V49.2188ZM4.6875 53.9062H7.03125V56.25H4.6875V53.9062ZM9.375 53.9062H16.4062V56.25H9.375V53.9062ZM64.4531 75H41.0156C39.4622 74.9981 37.9729 74.3802 36.8745 73.2818C35.776 72.1833 35.1581 70.6941 35.1562 69.1406V22.2656C35.1581 20.7122 35.776 19.2229 36.8745 18.1245C37.9729 17.026 39.4622 16.4081 41.0156 16.4062H64.4531C66.0066 16.4081 67.4958 17.026 68.5943 18.1245C69.6927 19.2229 70.3106 20.7122 70.3125 22.2656V69.1406C70.3106 70.6941 69.6927 72.1833 68.5943 73.2818C67.4958 74.3802 66.0066 74.9981 64.4531 75ZM41.0156 18.75C40.0832 18.75 39.189 19.1204 38.5297 19.7797C37.8704 20.439 37.5 21.3332 37.5 22.2656V69.1406C37.5 70.073 37.8704 70.9672 38.5297 71.6265C39.189 72.2859 40.0832 72.6562 41.0156 72.6562H64.4531C65.3855 72.6562 66.2797 72.2859 66.939 71.6265C67.5984 70.9672 67.9688 70.073 67.9688 69.1406V22.2656C67.9688 21.3332 67.5984 20.439 66.939 19.7797C66.2797 19.1204 65.3855 18.75 64.4531 18.75H41.0156Z" fill="black"/>
<path d="M58.5938 28.125H46.875C44.6789 28.125 43.759 26.2125 43.4684 24.6094H36.3281V22.2656H44.5312C44.8421 22.2656 45.1401 22.3891 45.3599 22.6089C45.5797 22.8286 45.7031 23.1267 45.7031 23.4375C45.7031 23.4574 45.7688 25.7812 46.875 25.7812H58.5938C59.7 25.7812 59.7656 23.4574 59.7656 23.4375C59.7656 23.1267 59.8891 22.8286 60.1089 22.6089C60.3286 22.3891 60.6267 22.2656 60.9375 22.2656H69.1406V24.6094H62.0004C61.7098 26.2125 60.7898 28.125 58.5938 28.125Z" fill="black"/>
<path d="M48.0469 21.0938H57.4219V23.4375H48.0469V21.0938ZM48.0469 69.1406H57.4219V71.4844H48.0469V69.1406ZM36.3281 65.625H69.1406V67.9688H36.3281V65.625ZM21.0938 32.8125H16.4062C16.0954 32.8125 15.7974 32.689 15.5776 32.4693C15.3578 32.2495 15.2344 31.9514 15.2344 31.6406V29.9227C14.58 29.7165 13.9451 29.453 13.3371 29.1352L12.1207 30.3516C11.9009 30.5713 11.6029 30.6947 11.2922 30.6947C10.9814 30.6947 10.6834 30.5713 10.4637 30.3516L7.14844 27.0363C6.92874 26.8166 6.80533 26.5186 6.80533 26.2078C6.80533 25.8971 6.92874 25.5991 7.14844 25.3793L8.36367 24.1629C8.04622 23.5549 7.78309 22.92 7.57734 22.2656H5.85938C5.54857 22.2656 5.2505 22.1422 5.03073 21.9224C4.81097 21.7026 4.6875 21.4046 4.6875 21.0938V16.4062C4.6875 16.0954 4.81097 15.7974 5.03073 15.5776C5.2505 15.3578 5.54857 15.2344 5.85938 15.2344H7.57734C7.78346 14.58 8.04699 13.9451 8.36484 13.3371L7.14844 12.1207C6.92874 11.9009 6.80533 11.6029 6.80533 11.2922C6.80533 10.9814 6.92874 10.6834 7.14844 10.4637L10.4637 7.14844C10.6834 6.92874 10.9814 6.80533 11.2922 6.80533C11.6029 6.80533 11.9009 6.92874 12.1207 7.14844L13.3371 8.36367C13.9451 8.04622 14.58 7.78309 15.2344 7.57734V5.85938C15.2344 5.54857 15.3578 5.2505 15.5776 5.03073C15.7974 4.81097 16.0954 4.6875 16.4062 4.6875H21.0938C21.4046 4.6875 21.7026 4.81097 21.9224 5.03073C22.1422 5.2505 22.2656 5.54857 22.2656 5.85938V7.57734C22.92 7.78346 23.5549 8.04699 24.1629 8.36484L25.3793 7.14844C25.5991 6.92874 25.8971 6.80533 26.2078 6.80533C26.5186 6.80533 26.8166 6.92874 27.0363 7.14844L30.3516 10.4637C30.5713 10.6834 30.6947 10.9814 30.6947 11.2922C30.6947 11.6029 30.5713 11.9009 30.3516 12.1207L29.1363 13.3371C29.4538 13.9451 29.7169 14.58 29.9227 15.2344H31.6406C31.9514 15.2344 32.2495 15.3578 32.4693 15.5776C32.689 15.7974 32.8125 16.0954 32.8125 16.4062V21.0938C32.8125 21.4046 32.689 21.7026 32.4693 21.9224C32.2495 22.1422 31.9514 22.2656 31.6406 22.2656H29.9227C29.7165 22.92 29.453 23.5549 29.1352 24.1629L30.3516 25.3793C30.5713 25.5991 30.6947 25.8971 30.6947 26.2078C30.6947 26.5186 30.5713 26.8166 30.3516 27.0363L27.0363 30.3516C26.8166 30.5713 26.5186 30.6947 26.2078 30.6947C25.8971 30.6947 25.5991 30.5713 25.3793 30.3516L24.1629 29.1363C23.5549 29.4538 22.92 29.7169 22.2656 29.9227V31.6406C22.2656 31.9514 22.1422 32.2495 21.9224 32.4693C21.7026 32.689 21.4046 32.8125 21.0938 32.8125ZM17.5781 30.4688H19.9219V29.0273C19.9216 28.7616 20.0117 28.5036 20.1774 28.2958C20.3431 28.0879 20.5744 27.9426 20.8336 27.8836C21.8609 27.6499 22.841 27.2429 23.7316 26.6801C23.9566 26.5382 24.2231 26.477 24.4873 26.5066C24.7516 26.5362 24.998 26.6548 25.1859 26.843L26.2078 27.8648L27.8648 26.2078L26.843 25.1859C26.6548 24.998 26.5362 24.7516 26.5066 24.4873C26.477 24.2231 26.5382 23.9566 26.6801 23.7316C27.2429 22.841 27.6499 21.8609 27.8836 20.8336C27.9426 20.5744 28.0879 20.3431 28.2958 20.1774C28.5036 20.0117 28.7616 19.9216 29.0273 19.9219H30.4688V17.5781H29.0273C28.7616 17.5784 28.5036 17.4883 28.2958 17.3226C28.0879 17.1569 27.9426 16.9256 27.8836 16.6664C27.6499 15.6391 27.2429 14.659 26.6801 13.7684C26.5382 13.5434 26.477 13.2769 26.5066 13.0127C26.5362 12.7484 26.6548 12.502 26.843 12.3141L27.8648 11.2922L26.2078 9.63516L25.1859 10.657C24.998 10.8452 24.7516 10.9638 24.4873 10.9934C24.2231 11.023 23.9566 10.9618 23.7316 10.8199C22.841 10.2571 21.8609 9.85012 20.8336 9.61641C20.5744 9.5574 20.3431 9.41206 20.1774 9.20423C20.0117 8.99641 19.9216 8.73843 19.9219 8.47266V7.03125H17.5781V8.47266C17.5784 8.73843 17.4883 8.99641 17.3226 9.20423C17.1569 9.41206 16.9256 9.5574 16.6664 9.61641C15.6391 9.85012 14.659 10.2571 13.7684 10.8199C13.5434 10.9618 13.2769 11.023 13.0127 10.9934C12.7484 10.9638 12.502 10.8452 12.3141 10.657L11.2922 9.63516L9.63516 11.2922L10.657 12.3141C10.8452 12.502 10.9638 12.7484 10.9934 13.0127C11.023 13.2769 10.9618 13.5434 10.8199 13.7684C10.2571 14.659 9.85012 15.6391 9.61641 16.6664C9.5574 16.9256 9.41206 17.1569 9.20423 17.3226C8.99641 17.4883 8.73843 17.5784 8.47266 17.5781H7.03125V19.9219H8.47266C8.73843 19.9216 8.99641 20.0117 9.20423 20.1774C9.41206 20.3431 9.5574 20.5744 9.61641 20.8336C9.85012 21.8609 10.2571 22.841 10.8199 23.7316C10.9618 23.9566 11.023 24.2231 10.9934 24.4873C10.9638 24.7516 10.8452 24.998 10.657 25.1859L9.63516 26.2078L11.2922 27.8648L12.3141 26.843C12.502 26.6548 12.7484 26.5362 13.0127 26.5066C13.2769 26.477 13.5434 26.5382 13.7684 26.6801C14.659 27.2429 15.6391 27.6499 16.6664 27.8836C16.9256 27.9426 17.1569 28.0879 17.3226 28.2958C17.4883 28.5036 17.5784 28.7616 17.5781 29.0273V30.4688Z" fill="black"/>
<path d="M18.75 24.6094C17.5911 24.6094 16.4583 24.2657 15.4947 23.6219C14.5311 22.9781 13.7801 22.063 13.3366 20.9923C12.8932 19.9216 12.7771 18.7435 13.0032 17.6069C13.2293 16.4703 13.7874 15.4262 14.6068 14.6068C15.4262 13.7874 16.4703 13.2293 17.6069 13.0032C18.7435 12.7771 19.9216 12.8932 20.9923 13.3366C22.063 13.7801 22.9781 14.5311 23.6219 15.4947C24.2657 16.4583 24.6094 17.5911 24.6094 18.75C24.6075 20.3034 23.9896 21.7927 22.8912 22.8912C21.7927 23.9896 20.3034 24.6075 18.75 24.6094ZM18.75 15.2344C18.0547 15.2344 17.375 15.4406 16.7968 15.8269C16.2187 16.2132 15.7681 16.7622 15.502 17.4046C15.2359 18.047 15.1663 18.7539 15.3019 19.4359C15.4376 20.1178 15.7724 20.7443 16.2641 21.2359C16.7557 21.7276 17.3822 22.0624 18.0641 22.1981C18.7461 22.3337 19.453 22.2641 20.0954 21.998C20.7378 21.7319 21.2868 21.2813 21.6731 20.7032C22.0594 20.125 22.2656 19.4453 22.2656 18.75C22.2656 17.8176 21.8952 16.9234 21.2359 16.2641C20.5766 15.6048 19.6824 15.2344 18.75 15.2344ZM19.9219 48.0469H17.5781V43.3594C17.5781 43.0486 17.7016 42.7505 17.9214 42.5307C18.1411 42.311 18.4392 42.1875 18.75 42.1875H20.468C20.6741 41.5331 20.9376 40.8982 21.2555 40.2902L20.0391 39.0738C19.8194 38.8541 19.696 38.5561 19.696 38.2453C19.696 37.9346 19.8194 37.6366 20.0391 37.4168L23.3543 34.1016C23.5741 33.8819 23.8721 33.7585 24.1828 33.7585C24.4936 33.7585 24.7916 33.8819 25.0113 34.1016L26.2277 35.3168C26.8358 34.9993 27.4707 34.7362 28.125 34.5305V32.8125C28.125 32.5017 28.2485 32.2036 28.4682 31.9839C28.688 31.7641 28.9861 31.6406 29.2969 31.6406H33.9844V33.9844H30.4688V35.4258C30.469 35.6916 30.3789 35.9495 30.2132 36.1574C30.0476 36.3652 29.8162 36.5105 29.557 36.5695C28.5297 36.8032 27.5497 37.2102 26.659 37.7731C26.4341 37.9149 26.1676 37.9761 25.9033 37.9465C25.639 37.9169 25.3926 37.7983 25.2047 37.6102L24.1828 36.5883L22.5258 38.2453L23.5477 39.2672C23.7358 39.4551 23.8544 39.7015 23.884 39.9658C23.9136 40.2301 23.8524 40.4966 23.7106 40.7215C23.1477 41.6122 22.7407 42.5922 22.507 43.6195C22.448 43.8787 22.3027 44.1101 22.0949 44.2757C21.887 44.4414 21.6291 44.5315 21.3633 44.5313H19.9219V48.0469ZM28.125 45.7031H25.7813C25.7831 44.1497 26.401 42.6604 27.4995 41.562C28.5979 40.4635 30.0872 39.8456 31.6406 39.8438V42.1875C30.7082 42.1875 29.814 42.5579 29.1547 43.2172C28.4954 43.8765 28.125 44.7707 28.125 45.7031ZM52.7344 58.5938C50.1849 58.5938 47.6926 57.8377 45.5727 56.4213C43.4529 55.0048 41.8007 52.9916 40.825 50.6362C39.8493 48.2807 39.5941 45.6888 40.0914 43.1883C40.5888 40.6878 41.8165 38.3909 43.6193 36.5881C45.4221 34.7853 47.719 33.5576 50.2195 33.0602C52.7201 32.5628 55.312 32.8181 57.6674 33.7937C60.0229 34.7694 62.0361 36.4216 63.4525 38.5415C64.869 40.6613 65.625 43.1536 65.625 45.7031C65.621 49.1207 64.2616 52.3971 61.845 54.8137C59.4284 57.2303 56.1519 58.5897 52.7344 58.5938ZM52.7344 35.1563C50.6484 35.1563 48.6093 35.7748 46.8748 36.9337C45.1404 38.0926 43.7886 39.7398 42.9903 41.667C42.1921 43.5942 41.9832 45.7148 42.3902 47.7607C42.7971 49.8066 43.8016 51.6859 45.2766 53.1609C46.7516 54.6359 48.6309 55.6404 50.6768 56.0474C52.7227 56.4543 54.8433 56.2454 56.7705 55.4472C58.6977 54.6489 60.3449 53.2971 61.5038 51.5627C62.6627 49.8282 63.2813 47.7891 63.2813 45.7031C63.2778 42.907 62.1656 40.2263 60.1884 38.2491C58.2112 36.2719 55.5305 35.1597 52.7344 35.1563Z" fill="black"/>
<path d="M50.3904 53.9062C50.0796 53.9062 49.7816 53.7827 49.5619 53.5629L43.7025 47.7035C43.4828 47.4838 43.3594 47.1857 43.3594 46.875C43.3594 46.5643 43.4828 46.2662 43.7025 46.0465L47.2181 42.5309C47.4379 42.3112 47.7359 42.1878 48.0466 42.1878C48.3574 42.1878 48.6554 42.3112 48.8751 42.5309L50.3904 44.0461L56.5931 37.8434C56.8129 37.6237 57.1109 37.5003 57.4216 37.5003C57.7324 37.5003 58.0304 37.6237 58.2501 37.8434L61.7658 41.359C61.9855 41.5787 62.1089 41.8768 62.1089 42.1875C62.1089 42.4982 61.9855 42.7963 61.7658 43.016L51.2189 53.5629C50.9992 53.7827 50.7011 53.9062 50.3904 53.9062ZM46.188 46.875L50.3904 51.0773L59.2802 42.1875L57.4216 40.3289L51.2189 46.5316C50.9991 46.7513 50.7011 46.8747 50.3904 46.8747C50.0796 46.8747 49.7816 46.7513 49.5619 46.5316L48.0466 45.0164L46.188 46.875ZM66.7966 4.6875H69.1404V7.03125H66.7966V4.6875ZM49.2185 4.6875H64.4529V7.03125H49.2185V4.6875Z" fill="black"/>
</g>
<defs>
<clipPath id="clip0_4442_800">
<rect width="75" height="75" fill="white"/>
</clipPath>
</defs>
</svg>
