<svg width="512" height="512" viewBox="0 0 512 512" fill="none" xmlns="http://www.w3.org/2000/svg">
<path fill-rule="evenodd" clip-rule="evenodd" d="M346.27 359.459C335.263 370.52 321.607 377.853 306.739 381.048C319.372 362.654 327.048 337.636 328.171 310.251L369.212 310.25C367.638 328.229 359.992 345.737 346.27 359.459ZM210.78 310.254L251.855 310.253C252.98 337.637 260.658 362.655 273.297 381.049C239.334 373.757 213.791 345.015 210.78 310.254ZM233.756 246.968C244.763 235.967 258.419 228.632 273.294 225.438C260.656 243.773 252.979 268.792 251.855 296.235L210.78 296.236C212.388 277.606 220.401 260.335 233.756 246.968ZM265.915 296.235L314.112 296.233C312.815 268.317 303.943 242.767 290.009 226.739C276.08 242.768 267.209 268.318 265.915 296.235ZM265.915 310.252C267.211 338.109 276.083 363.719 290.012 379.747C303.946 363.718 312.817 338.108 314.112 310.251L265.915 310.252ZM369.211 296.232L328.17 296.233C327.046 268.79 319.368 243.772 306.735 225.438C341.063 232.81 366.183 261.643 369.211 296.232ZM356.204 237.029C319.675 200.502 260.351 200.487 223.826 237.032C187.238 273.64 187.265 332.817 223.829 369.398C260.426 406.012 319.608 406.001 356.207 369.395C392.686 332.902 392.685 273.52 356.204 237.029ZM452.721 454.206L440.792 466.035C440.655 466.035 440.591 465.976 440.573 465.916L399.419 424.753C399.319 424.693 399.319 424.457 399.419 424.339L411.147 412.629H411.567L452.72 453.792C452.772 453.849 452.801 453.922 452.801 453.999C452.801 454.075 452.773 454.149 452.721 454.206ZM213.083 380.163C255.665 422.682 324.375 422.698 366.948 380.158C409.365 337.751 409.364 268.729 366.944 226.323C324.434 183.79 255.59 183.789 213.079 226.327C170.66 268.735 170.663 337.757 213.083 380.163ZM216.721 176.763L238.309 191.726C256.68 183.234 277.185 179.252 297.82 180.665L355.566 90.645C358.2 86.5951 364.159 86.3053 367.1 90.2303L380.614 108.328L386.344 48.8289L323.769 68.2296L344.287 75.5635C349.029 77.291 350.5 83.2988 347.043 86.9781L266.455 172.917C265.391 174.059 263.977 174.813 262.436 175.06C260.895 175.307 259.316 175.031 257.949 174.278L209.656 147.724L121.102 265.838L207.712 177.651C208.862 176.454 210.401 175.708 212.053 175.545C213.704 175.382 215.36 175.814 216.721 176.763ZM462.658 443.856L421.486 402.693C415.865 397.104 406.902 397.088 401.217 402.693L400.318 403.579L381.687 385.008C424.696 336.804 423.098 262.577 376.868 216.386C359.249 198.761 337.211 187.169 313.258 182.556L361.926 106.79L380.245 131.276C384.036 136.326 392.243 134.161 392.848 127.727L401.339 39.66C401.811 34.7295 397.119 30.743 392.266 32.2668L299.521 61.0739C293.129 63.0472 292.887 72.1219 299.243 74.3818L329.484 85.2045L259.943 159.374L211.083 132.524C209.608 131.698 207.884 131.435 206.23 131.783C204.576 132.131 203.104 133.066 202.087 134.416L46.5537 341.841C43.0639 346.496 46.5486 353.079 52.1673 353.079C53.1028 353.081 54.0291 352.894 54.8901 352.528C55.7511 352.162 56.529 351.625 57.1767 350.95L213.587 191.669L224.517 199.239C158.073 241.377 147.433 334.391 203.152 390.101C249.291 436.232 323.385 438.204 371.768 394.887L390.387 413.517L389.488 414.404V414.464C383.899 420.024 383.899 429.131 389.488 434.692L430.654 475.855C436.226 481.458 445.322 481.469 450.923 475.855L462.657 464.145C468.242 458.523 468.241 449.474 462.658 443.856Z" fill="#D68029"/>
</svg>
