<?xml version="1.0" encoding="UTF-8"?>
<svg xmlns="http://www.w3.org/2000/svg" width="281" height="249" viewBox="0 0 281 249" fill="none">
  <path d="M271.543 225.674H237.644V225.84H271.543V225.674Z" fill="#EBEBEB"></path>
  <path d="M41.3803 223.703H9.93848V223.87H41.3803V223.703Z" fill="#EBEBEB"></path>
  <path d="M240.068 222.584H227.287V222.75H240.068V222.584Z" fill="#EBEBEB"></path>
  <path d="M195.593 226.999H186.215V227.166H195.593V226.999Z" fill="#EBEBEB"></path>
  <path d="M180.281 226.999H156.678V227.166H180.281V226.999Z" fill="#EBEBEB"></path>
  <path d="M142.972 224.188H105.017V224.355H142.972V224.188Z" fill="#EBEBEB"></path>
  <path d="M132.842 188.345H4.24395C3.23653 188.343 2.27097 187.942 1.55923 187.229C0.847496 186.516 0.447752 185.549 0.447754 184.542V3.76956C0.456524 2.76791 0.860137 1.81017 1.57093 1.10437C2.28171 0.398573 3.24227 0.00171587 4.24395 0H132.842C133.85 0 134.818 0.400657 135.531 1.11383C136.244 1.82701 136.645 2.79428 136.645 3.80286V184.542C136.645 185.551 136.244 186.518 135.531 187.231C134.818 187.944 133.85 188.345 132.842 188.345ZM4.24395 0.133201C3.28069 0.134965 2.35747 0.518857 1.67696 1.20062C0.996454 1.88237 0.614252 2.80629 0.614254 3.76956V184.542C0.614252 185.505 0.996454 186.429 1.67696 187.111C2.35747 187.793 3.28069 188.177 4.24395 188.178H132.842C133.806 188.177 134.73 187.793 135.411 187.111C136.093 186.43 136.477 185.506 136.478 184.542V3.76956C136.477 2.80568 136.093 1.88178 135.411 1.20021C134.73 0.518641 133.806 0.134961 132.842 0.133201H4.24395Z" fill="#EBEBEB"></path>
  <path d="M276.905 188.345H148.3C147.292 188.343 146.326 187.942 145.613 187.229C144.9 186.516 144.499 185.55 144.497 184.542V3.76956C144.508 2.76731 144.913 1.80957 145.625 1.10396C146.336 0.39834 147.298 0.00169716 148.3 0H276.905C277.905 0.00346619 278.864 0.401098 279.573 1.10671C280.283 1.81232 280.685 2.76906 280.694 3.76956V184.542C280.694 185.548 280.295 186.513 279.585 187.226C278.875 187.939 277.911 188.341 276.905 188.345ZM148.3 0.133201C147.336 0.134961 146.412 0.518641 145.731 1.20021C145.049 1.88178 144.665 2.80568 144.664 3.76956V184.542C144.665 185.506 145.049 186.43 145.731 187.111C146.412 187.793 147.336 188.177 148.3 188.178H276.905C277.868 188.177 278.792 187.793 279.474 187.111C280.155 186.43 280.539 185.506 280.541 184.542V3.76956C280.539 2.80568 280.155 1.88178 279.474 1.20021C278.792 0.518641 277.868 0.134961 276.905 0.133201H148.3Z" fill="#EBEBEB"></path>
  <path d="M194.214 160.113H214.181V101.898H194.214V160.113Z" fill="#E6E6E6"></path>
  <path d="M255.586 101.904H214.181V160.119H255.586V101.904Z" fill="#F5F5F5"></path>
  <path d="M243.598 145.714H255.586V137.802H243.598V145.714Z" fill="#F0F0F0"></path>
  <path d="M243.598 155.817H255.586V147.905H243.598V155.817Z" fill="#F0F0F0"></path>
  <path d="M193.328 101.904H213.874V98.9539H193.328V101.904Z" fill="#E0E0E0"></path>
  <path d="M256.465 98.9541H213.874V101.904H256.465V98.9541Z" fill="#F0F0F0"></path>
  <path d="M179.169 218.049H206.935V164.223H179.169V218.049Z" fill="#E6E6E6"></path>
  <path d="M264.504 164.223H206.935V218.049H264.504V164.223Z" fill="#F5F5F5"></path>
  <path d="M211.616 187.912H231.51V170.383H211.616V187.912Z" fill="#F0F0F0"></path>
  <path d="M211.616 210.303H231.51V192.774H211.616V210.303Z" fill="#F0F0F0"></path>
  <path d="M177.937 164.216H206.501V160.113H177.937V164.216Z" fill="#E0E0E0"></path>
  <path d="M265.722 160.12H206.501V164.223H265.722V160.12Z" fill="#F0F0F0"></path>
  <path d="M148.133 16.1436H94.7334V218.048H148.133V16.1436Z" fill="#EBEBEB"></path>
  <path d="M144.53 213.966V20.2266L98.3432 20.2266L98.3432 213.966H144.53Z" fill="#FAFAFA"></path>
  <path d="M93.1348 16.1436H39.7349V218.048H93.1348V16.1436Z" fill="#EBEBEB"></path>
  <path d="M93.1283 217.256H94.7334L94.7334 16.943H93.1283L93.1283 217.256Z" fill="#E0E0E0"></path>
  <path d="M89.5254 213.966L89.5254 20.2266L43.3383 20.2266L43.3383 213.966H89.5254Z" fill="#FAFAFA"></path>
  <path d="M172.416 12.8203H15.4393C14.998 12.8203 14.6401 13.1781 14.6401 13.6195V13.8326C14.6401 14.274 14.998 14.6318 15.4393 14.6318H172.416C172.857 14.6318 173.215 14.274 173.215 13.8326V13.6195C173.215 13.1781 172.857 12.8203 172.416 12.8203Z" fill="#E0E0E0"></path>
  <path d="M144.523 24.0827V20.2266L98.3363 20.2266V24.0827L144.523 24.0827Z" fill="#E0E0E0"></path>
  <path d="M144.523 59.0277V20.2266L98.3363 20.2266V59.0277H144.523Z" fill="#E0E0E0"></path>
  <path d="M89.5254 105.055V20.2266L43.3383 20.2266L43.3383 105.055H89.5254Z" fill="#E0E0E0"></path>
  <g opacity="0.5">
    <path d="M154.5 8.58496H139.235V215.564H154.5V8.58496Z" fill="#F5F5F5"></path>
    <path d="M150.471 8.58496H143.265V215.564H150.471V8.58496Z" fill="#F0F0F0"></path>
    <path d="M162.685 8.58496H147.42V215.564H162.685V8.58496Z" fill="#F5F5F5"></path>
    <path d="M158.656 8.58496H151.45V215.564H158.656V8.58496Z" fill="#F0F0F0"></path>
    <path d="M170.317 8.58496H155.053V215.564H170.317V8.58496Z" fill="#F5F5F5"></path>
  </g>
  <g opacity="0.5">
    <path d="M62.692 8.58496H17.0776V215.564H62.692V8.58496Z" fill="#F5F5F5"></path>
    <path d="M50.6509 8.58496H29.1191V215.564H50.6509V8.58496Z" fill="#F0F0F0"></path>
    <path d="M87.1607 8.58496H41.5464V215.564H87.1607V8.58496Z" fill="#F5F5F5"></path>
    <path d="M75.1197 8.58496H53.5879V215.564H75.1197V8.58496Z" fill="#F0F0F0"></path>
    <path d="M109.971 8.58496H64.3569V215.564H109.971V8.58496Z" fill="#F5F5F5"></path>
  </g>
  <path d="M198.816 76.124L257.371 76.124V16.9566L198.816 16.9566V76.124Z" fill="#FAFAFA"></path>
  <path d="M216.958 61.2725H239.216C241.121 61.2725 242.666 59.7279 242.666 57.8226V35.2585C242.666 33.3532 241.121 31.8086 239.216 31.8086L216.958 31.8086C215.053 31.8086 213.508 33.3532 213.508 35.2585V57.8226C213.508 59.7279 215.053 61.2725 216.958 61.2725Z" fill="#F0F0F0"></path>
  <path d="M230.258 46.8994H245.816C247.147 46.8994 248.227 45.82 248.227 44.4885V28.7176C248.227 27.3861 247.147 26.3067 245.816 26.3067L230.258 26.3067C228.926 26.3067 227.847 27.3861 227.847 28.7176V44.4885C227.847 45.82 228.926 46.8994 230.258 46.8994Z" fill="white"></path>
  <path d="M217.344 69.0107H228.14C229.063 69.0107 229.812 68.2623 229.812 67.3391V56.3967C229.812 55.4735 229.063 54.725 228.14 54.725H217.344C216.421 54.725 215.672 55.4735 215.672 56.3967V67.3391C215.672 68.2623 216.421 69.0107 217.344 69.0107Z" fill="#F0F0F0"></path>
  <path d="M198.809 16.9561H195.539V76.1235H198.809V16.9561Z" fill="#F0F0F0"></path>
  <path d="M141.5 248.125C212.817 248.125 270.631 244.75 270.631 240.586C270.631 236.422 212.817 233.047 141.5 233.047C70.1829 233.047 12.3691 236.422 12.3691 240.586C12.3691 244.75 70.1829 248.125 141.5 248.125Z" fill="#F5F5F5"></path>
  <path d="M230.591 40.0465L229.925 40.0066C230.011 38.7219 229.831 37.4332 229.397 36.2212C228.962 35.0091 228.282 33.8996 227.4 32.9621C226.517 32.0245 225.451 31.2791 224.267 30.7723C223.084 30.2655 221.808 30.0082 220.521 30.0166H208.459V29.304H220.507C221.891 29.2941 223.262 29.5704 224.533 30.1155C225.805 30.6606 226.95 31.4627 227.897 32.4715C228.844 33.4803 229.572 34.6739 230.035 35.9775C230.499 37.2811 230.688 38.6664 230.591 40.0465Z" fill="#D68029"></path>
  <path d="M229.591 44.7445L229.208 51.0732L229.892 51.1148L230.276 44.7861L229.591 44.7445Z" fill="#D68029"></path>
  <path d="M209.938 202.977H129.718C128.66 202.988 127.612 202.779 126.639 202.364C125.666 201.949 124.79 201.336 124.066 200.565C123.343 199.794 122.787 198.88 122.435 197.883C122.082 196.886 121.941 195.826 122.019 194.771L131.576 39.8998C131.745 37.6927 132.732 35.6282 134.343 34.1105C135.954 32.5929 138.074 31.7313 140.287 31.6946H220.507C221.564 31.6854 222.611 31.8953 223.583 32.3111C224.554 32.727 225.429 33.3398 226.152 34.1108C226.875 34.8818 227.43 35.7943 227.782 36.7907C228.135 37.7871 228.277 38.8457 228.199 39.8998L218.642 194.771C218.478 196.979 217.494 199.045 215.883 200.564C214.272 202.082 212.151 202.943 209.938 202.977Z" fill="#D68029"></path>
  <path opacity="0.2" d="M161.993 66.9732H144.49C143.883 66.9795 143.282 66.8597 142.724 66.6214C142.166 66.3831 141.663 66.0315 141.248 65.5889C140.833 65.1462 140.514 64.6222 140.312 64.0499C140.11 63.4777 140.029 62.8698 140.075 62.2646L140.974 47.7059C141.068 46.4392 141.633 45.2537 142.558 44.3824C143.482 43.5111 144.699 43.017 145.969 42.9972H163.478C164.084 42.9919 164.685 43.1124 165.243 43.3511C165.801 43.5897 166.303 43.9413 166.718 44.3838C167.133 44.8262 167.451 45.3498 167.654 45.9216C167.856 46.4934 167.938 47.1009 167.894 47.7059L166.994 62.2646C166.898 63.5319 166.332 64.7175 165.406 65.5886C164.481 66.4598 163.264 66.9536 161.993 66.9732Z" fill="black"></path>
  <path opacity="0.2" d="M167.074 189.337C167.79 189.328 168.476 189.048 168.994 188.554C169.511 188.06 169.823 187.387 169.865 186.673L171.723 156.656C171.748 156.318 171.702 155.978 171.589 155.658C171.476 155.338 171.297 155.046 171.065 154.798C170.833 154.551 170.552 154.355 170.24 154.222C169.927 154.089 169.591 154.022 169.252 154.026H124.53L122.359 189.324L167.074 189.337Z" fill="black"></path>
  <path d="M120.288 140.526H106.608C106.117 140.538 105.648 140.732 105.291 141.068C104.933 141.405 104.712 141.861 104.67 142.35L103.718 157.788C103.7 158.023 103.731 158.259 103.81 158.48C103.888 158.702 104.012 158.905 104.172 159.077C104.333 159.248 104.528 159.385 104.745 159.477C104.961 159.569 105.194 159.616 105.429 159.613H119.109C119.602 159.609 120.076 159.419 120.436 159.081C120.795 158.742 121.013 158.281 121.047 157.788L121.999 142.35C122.018 142.116 121.987 141.88 121.909 141.657C121.831 141.435 121.708 141.232 121.547 141.06C121.386 140.888 121.19 140.752 120.974 140.66C120.757 140.568 120.523 140.522 120.288 140.526Z" fill="#D68029"></path>
  <path opacity="0.4" d="M120.288 140.526H106.608C106.117 140.538 105.648 140.732 105.291 141.068C104.933 141.405 104.712 141.861 104.67 142.35L103.718 157.788C103.7 158.023 103.731 158.259 103.81 158.48C103.888 158.702 104.012 158.905 104.172 159.077C104.333 159.248 104.528 159.385 104.745 159.477C104.961 159.569 105.194 159.616 105.429 159.613H119.109C119.602 159.609 120.076 159.419 120.436 159.081C120.795 158.742 121.013 158.281 121.047 157.788L121.999 142.35C122.018 142.116 121.987 141.88 121.909 141.657C121.831 141.435 121.708 141.232 121.547 141.06C121.386 140.888 121.19 140.752 120.974 140.66C120.757 140.568 120.523 140.522 120.288 140.526Z" fill="white"></path>
  <path d="M220.334 35.1182C220.947 35.1078 221.554 35.2257 222.118 35.4643C222.682 35.7029 223.19 36.0569 223.609 36.5035C224.028 36.9501 224.349 37.4795 224.551 38.0576C224.754 38.6357 224.832 39.2496 224.783 39.8601L221.267 96.8563C221.232 97.3919 220.996 97.8947 220.608 98.2649C220.219 98.635 219.705 98.8455 219.169 98.8544H133.255C133.01 98.8579 132.767 98.8103 132.542 98.7146C132.316 98.6188 132.113 98.4771 131.946 98.2984C131.779 98.1197 131.65 97.908 131.57 97.6769C131.489 97.4458 131.457 97.2003 131.477 96.9563L134.993 39.96C135.091 38.6609 135.672 37.4457 136.621 36.5533C137.57 35.6609 138.819 35.1561 140.121 35.1381H220.334M220.334 34.4721H140.121C138.645 34.4915 137.229 35.0639 136.154 36.0762C135.078 37.0885 134.422 38.4672 134.314 39.94L130.797 96.9363C130.771 97.2731 130.816 97.6116 130.928 97.9303C131.04 98.2489 131.218 98.5407 131.449 98.7869C131.68 99.0332 131.96 99.2286 132.271 99.3606C132.582 99.4926 132.917 99.5584 133.255 99.5536H219.169C219.876 99.544 220.554 99.27 221.069 98.7856C221.584 98.3012 221.899 97.6415 221.953 96.9363L225.469 39.94C225.523 39.2364 225.429 38.5293 225.195 37.8638C224.96 37.1983 224.59 36.589 224.107 36.0746C223.623 35.5602 223.039 35.1521 222.389 34.8762C221.74 34.6003 221.04 34.4627 220.334 34.4721Z" fill="white"></path>
  <path d="M177.357 106.214H133.674C132.741 106.226 131.847 106.588 131.167 107.228C130.488 107.868 130.073 108.74 130.005 109.67L128.18 138.888C128.146 139.332 128.204 139.778 128.352 140.197C128.5 140.617 128.733 141.002 129.038 141.326C129.342 141.651 129.711 141.909 130.121 142.083C130.53 142.257 130.972 142.344 131.417 142.338H175.1C176.032 142.327 176.927 141.966 177.606 141.328C178.286 140.689 178.701 139.818 178.769 138.888L180.574 109.67C180.607 109.228 180.548 108.784 180.402 108.366C180.255 107.947 180.023 107.564 179.721 107.239C179.419 106.915 179.053 106.656 178.646 106.48C178.24 106.303 177.801 106.213 177.357 106.214Z" fill="white"></path>
  <path d="M164.264 148.598H120.574C119.642 148.609 118.748 148.969 118.07 149.608C117.391 150.247 116.978 151.118 116.911 152.048L115.106 181.265C115.072 181.709 115.131 182.155 115.278 182.576C115.426 182.996 115.659 183.381 115.964 183.706C116.268 184.031 116.637 184.289 117.046 184.464C117.456 184.639 117.898 184.727 118.343 184.722H162.033C162.965 184.709 163.859 184.347 164.537 183.707C165.216 183.067 165.629 182.195 165.696 181.265L167.474 152.048C167.508 151.606 167.45 151.162 167.304 150.744C167.158 150.326 166.927 149.943 166.625 149.619C166.323 149.295 165.958 149.037 165.551 148.861C165.145 148.685 164.706 148.595 164.264 148.598Z" fill="white"></path>
  <path opacity="0.2" d="M199.109 127.872C198.299 127.882 197.523 128.195 196.933 128.75C196.343 129.305 195.984 130.061 195.925 130.869L194.36 156.217C194.332 156.602 194.383 156.988 194.512 157.352C194.641 157.716 194.844 158.049 195.108 158.33C195.372 158.611 195.692 158.835 196.047 158.986C196.402 159.137 196.785 159.212 197.171 159.207H220.84L222.752 127.872H199.109Z" fill="black"></path>
  <path d="M231.77 122.318H193.388C192.569 122.329 191.784 122.647 191.188 123.21C190.593 123.772 190.23 124.537 190.171 125.355L188.586 151.022C188.556 151.412 188.607 151.805 188.736 152.174C188.866 152.544 189.071 152.882 189.338 153.168C189.606 153.454 189.93 153.68 190.29 153.834C190.65 153.987 191.039 154.064 191.43 154.059H229.812C230.631 154.048 231.417 153.73 232.014 153.168C232.611 152.605 232.975 151.84 233.035 151.022L234.62 125.355C234.65 124.964 234.598 124.571 234.467 124.202C234.337 123.833 234.131 123.494 233.863 123.209C233.595 122.923 233.271 122.696 232.91 122.543C232.55 122.39 232.161 122.313 231.77 122.318Z" fill="#D68029"></path>
  <path opacity="0.7" d="M231.77 122.318H193.388C192.569 122.329 191.784 122.647 191.188 123.21C190.593 123.772 190.23 124.537 190.171 125.355L188.586 151.022C188.556 151.412 188.607 151.805 188.736 152.174C188.866 152.544 189.071 152.882 189.338 153.168C189.606 153.454 189.93 153.68 190.29 153.834C190.65 153.987 191.039 154.064 191.43 154.059H229.812C230.631 154.048 231.417 153.73 232.014 153.168C232.611 152.605 232.975 151.84 233.035 151.022L234.62 125.355C234.65 124.964 234.598 124.571 234.467 124.202C234.337 123.833 234.131 123.494 233.863 123.209C233.595 122.923 233.271 122.696 232.91 122.543C232.55 122.39 232.161 122.313 231.77 122.318Z" fill="white"></path>
  <path d="M260.447 80.8459H237.703C236.885 80.8569 236.1 81.1741 235.503 81.7349C234.906 82.2958 234.541 83.0597 234.48 83.8762L232.895 109.551C232.866 109.941 232.919 110.332 233.05 110.701C233.18 111.07 233.386 111.407 233.654 111.692C233.922 111.977 234.246 112.203 234.606 112.356C234.966 112.509 235.354 112.586 235.745 112.581H258.489C259.307 112.57 260.091 112.252 260.687 111.691C261.282 111.13 261.646 110.366 261.706 109.551L263.291 83.8762C263.321 83.4865 263.269 83.0948 263.139 82.7262C263.009 82.3576 262.804 82.0201 262.536 81.7351C262.269 81.45 261.945 81.2238 261.585 81.0707C261.226 80.9177 260.838 80.8411 260.447 80.8459Z" fill="#D68029"></path>
  <path opacity="0.7" d="M260.447 80.8459H237.703C236.885 80.8569 236.1 81.1741 235.503 81.7349C234.906 82.2958 234.541 83.0597 234.48 83.8762L232.895 109.551C232.866 109.941 232.919 110.332 233.05 110.701C233.18 111.07 233.386 111.407 233.654 111.692C233.922 111.977 234.246 112.203 234.606 112.356C234.966 112.509 235.354 112.586 235.745 112.581H258.489C259.307 112.57 260.091 112.252 260.687 111.691C261.282 111.13 261.646 110.366 261.706 109.551L263.291 83.8762C263.321 83.4865 263.269 83.0948 263.139 82.7262C263.009 82.3576 262.804 82.0201 262.536 81.7351C262.269 81.45 261.945 81.2238 261.585 81.0707C261.226 80.9177 260.838 80.8411 260.447 80.8459Z" fill="white"></path>
  <path d="M239.761 160.053H230.298C229.958 160.06 229.633 160.194 229.387 160.428C229.141 160.662 228.99 160.979 228.966 161.318L228.3 171.974C228.288 172.136 228.309 172.299 228.364 172.453C228.418 172.606 228.504 172.746 228.615 172.865C228.727 172.983 228.862 173.077 229.011 173.14C229.161 173.204 229.322 173.235 229.485 173.233H238.949C239.29 173.234 239.618 173.103 239.866 172.869C240.114 172.635 240.262 172.315 240.281 171.974L240.947 161.318C240.96 161.156 240.939 160.992 240.885 160.838C240.831 160.684 240.746 160.543 240.634 160.423C240.522 160.304 240.387 160.21 240.237 160.146C240.087 160.082 239.925 160.05 239.761 160.053Z" fill="#D68029"></path>
  <path opacity="0.4" d="M239.761 160.053H230.298C229.958 160.06 229.633 160.194 229.387 160.428C229.141 160.662 228.99 160.979 228.966 161.318L228.3 171.974C228.288 172.136 228.309 172.299 228.364 172.453C228.418 172.606 228.504 172.746 228.615 172.865C228.727 172.983 228.862 173.077 229.011 173.14C229.161 173.204 229.322 173.235 229.485 173.233H238.949C239.29 173.234 239.618 173.103 239.866 172.869C240.114 172.635 240.262 172.315 240.281 171.974L240.947 161.318C240.96 161.156 240.939 160.992 240.885 160.838C240.831 160.684 240.746 160.543 240.634 160.423C240.522 160.304 240.387 160.21 240.237 160.146C240.087 160.082 239.925 160.05 239.761 160.053Z" fill="white"></path>
  <path d="M193.076 113.419C203.17 103.629 203.893 88.0004 194.69 78.5103C185.487 69.0203 169.844 69.2629 159.749 79.0522C149.654 88.8415 148.931 104.471 158.134 113.961C167.337 123.451 182.981 123.208 193.076 113.419Z" fill="#D68029"></path>
  <path d="M191.564 111.861C200.743 102.96 201.399 88.7489 193.031 80.1196C184.663 71.4904 170.439 71.7105 161.26 80.6112C152.082 89.512 151.425 103.723 159.793 112.352C168.161 120.981 182.386 120.761 191.564 111.861Z" fill="white"></path>
  <path d="M182.362 95.9601C185.742 92.6825 185.983 87.4482 182.9 84.269C179.817 81.0898 174.577 81.1696 171.197 84.4472C167.818 87.7248 167.577 92.9591 170.66 96.1383C173.743 99.3175 178.982 99.2377 182.362 95.9601Z" fill="#D68029"></path>
  <path d="M176.065 101.898C169.618 101.898 163.844 104.409 160.674 108.126C162.194 110.6 164.331 112.637 166.875 114.038C169.418 115.439 172.282 116.155 175.186 116.118C178.214 116.091 181.195 115.355 183.886 113.966C186.578 112.578 188.906 110.578 190.684 108.126C187.98 104.396 182.505 101.898 176.065 101.898Z" fill="#D68029"></path>
  <path d="M158.816 63.7692H141.28C140.673 63.7745 140.072 63.654 139.515 63.4154C138.957 63.1767 138.455 62.8251 138.04 62.3827C137.625 61.9402 137.306 61.4166 137.104 60.8448C136.902 60.273 136.82 59.6655 136.864 59.0606L137.763 44.5018C137.86 43.2345 138.426 42.049 139.351 41.1778C140.277 40.3067 141.494 39.8128 142.765 39.7932H160.261C160.868 39.7869 161.469 39.9067 162.027 40.145C162.585 40.3833 163.088 40.7349 163.503 41.1776C163.918 41.6202 164.237 42.1443 164.439 42.7165C164.641 43.2887 164.722 43.8967 164.676 44.5018L163.784 59.0606C163.688 60.3222 163.127 61.5032 162.208 62.3735C161.29 63.2439 160.081 63.7414 158.816 63.7692Z" fill="white"></path>
  <path d="M155.646 51.781L146.828 45.8936L146.102 57.6684L155.646 51.781Z" fill="#D68029"></path>
  <path d="M215.533 52.7609H173.761C173.504 52.7635 173.249 52.7126 173.012 52.6114C172.775 52.5102 172.562 52.361 172.386 52.1731C172.21 51.9853 172.075 51.7629 171.99 51.5202C171.904 51.2774 171.87 51.0196 171.89 50.7629L172.043 48.2188C172.084 47.6809 172.325 47.1779 172.718 46.8083C173.111 46.4387 173.628 46.2292 174.167 46.2208H215.939C216.196 46.2183 216.452 46.2692 216.689 46.3703C216.926 46.4714 217.139 46.6206 217.316 46.8083C217.492 46.996 217.628 47.2183 217.714 47.461C217.8 47.7038 217.835 47.9618 217.817 48.2188L217.657 50.7629C217.616 51.3008 217.375 51.8038 216.982 52.1734C216.589 52.543 216.072 52.7525 215.533 52.7609Z" fill="white"></path>
  <path d="M214.853 63.756H173.081C172.824 63.7576 172.57 63.706 172.333 63.6045C172.097 63.503 171.885 63.3537 171.709 63.1661C171.533 62.9784 171.398 62.7565 171.312 62.5142C171.226 62.2719 171.191 62.0144 171.21 61.758L171.363 59.2139C171.406 58.6766 171.647 58.1744 172.04 57.8051C172.433 57.4358 172.949 57.2258 173.488 57.2159H215.259C215.517 57.2134 215.772 57.2643 216.009 57.3654C216.246 57.4666 216.459 57.6157 216.636 57.8034C216.812 57.9911 216.948 58.2134 217.034 58.4561C217.121 58.6989 217.156 58.9569 217.137 59.2139L216.977 61.758C216.937 62.2965 216.697 62.8004 216.304 63.1703C215.91 63.5402 215.393 63.7492 214.853 63.756Z" fill="white"></path>
  <path d="M228.692 132.367H195.226C195.054 132.37 194.884 132.337 194.727 132.269C194.569 132.202 194.427 132.102 194.311 131.977C194.194 131.851 194.105 131.703 194.049 131.54C193.993 131.378 193.972 131.206 193.987 131.035L194.047 130.083C194.07 129.725 194.228 129.389 194.489 129.142C194.749 128.895 195.093 128.755 195.452 128.751H228.919C229.09 128.749 229.26 128.782 229.418 128.849C229.576 128.917 229.717 129.016 229.834 129.142C229.951 129.267 230.04 129.416 230.096 129.578C230.151 129.74 230.172 129.912 230.158 130.083L230.098 131.035C230.074 131.394 229.916 131.73 229.656 131.977C229.395 132.224 229.051 132.363 228.692 132.367Z" fill="white"></path>
  <path d="M228.226 139.987H194.78C194.608 139.989 194.438 139.956 194.28 139.889C194.122 139.821 193.98 139.722 193.862 139.596C193.745 139.471 193.655 139.322 193.599 139.16C193.542 138.998 193.52 138.826 193.534 138.655L193.594 137.709C193.618 137.351 193.775 137.015 194.036 136.768C194.297 136.521 194.641 136.381 195 136.377H228.466C228.637 136.375 228.807 136.408 228.965 136.475C229.123 136.543 229.265 136.642 229.381 136.768C229.498 136.893 229.587 137.042 229.643 137.204C229.699 137.366 229.72 137.538 229.705 137.709L229.652 138.655C229.626 139.016 229.465 139.354 229.201 139.601C228.936 139.848 228.588 139.986 228.226 139.987Z" fill="white"></path>
  <path d="M227.753 147.606H194.287C194.115 147.608 193.945 147.575 193.788 147.507C193.63 147.44 193.488 147.341 193.372 147.215C193.255 147.089 193.166 146.941 193.11 146.779C193.054 146.617 193.033 146.445 193.048 146.274L193.108 145.321C193.13 144.964 193.286 144.628 193.546 144.381C193.805 144.134 194.148 143.994 194.507 143.989H227.973C228.145 143.987 228.315 144.02 228.473 144.088C228.631 144.155 228.773 144.254 228.891 144.38C229.008 144.505 229.098 144.654 229.154 144.816C229.211 144.978 229.233 145.15 229.219 145.321L229.159 146.274C229.135 146.632 228.977 146.968 228.717 147.215C228.456 147.462 228.112 147.601 227.753 147.606Z" fill="white"></path>
  <path d="M208.432 195.954C209.745 194.682 209.839 192.65 208.643 191.417C207.447 190.184 205.414 190.216 204.102 191.489C202.789 192.761 202.695 194.793 203.891 196.026C205.087 197.259 207.12 197.227 208.432 195.954Z" fill="white"></path>
  <path d="M210.184 182.364C210.119 183.228 209.734 184.037 209.103 184.631C208.471 185.225 207.641 185.561 206.774 185.574C206.36 185.579 205.95 185.497 205.569 185.335C205.189 185.173 204.846 184.933 204.563 184.631C204.28 184.329 204.062 183.972 203.925 183.582C203.787 183.191 203.733 182.776 203.764 182.364C203.826 181.499 204.21 180.69 204.84 180.095C205.47 179.501 206.301 179.165 207.167 179.154C207.582 179.148 207.993 179.228 208.374 179.39C208.756 179.552 209.1 179.792 209.383 180.094C209.667 180.396 209.885 180.753 210.023 181.144C210.161 181.535 210.216 181.95 210.184 182.364Z" fill="white"></path>
  <path d="M210.883 170.995C210.82 171.86 210.435 172.67 209.803 173.264C209.172 173.859 208.341 174.195 207.474 174.206C207.06 174.211 206.649 174.129 206.269 173.967C205.888 173.805 205.545 173.565 205.262 173.263C204.979 172.961 204.762 172.604 204.624 172.213C204.487 171.823 204.432 171.408 204.463 170.995C204.527 170.131 204.912 169.321 205.543 168.727C206.175 168.132 207.006 167.796 207.873 167.785C208.287 167.78 208.697 167.862 209.078 168.024C209.459 168.186 209.802 168.426 210.085 168.728C210.368 169.03 210.585 169.387 210.723 169.778C210.86 170.168 210.915 170.583 210.883 170.995Z" fill="white"></path>
  <path d="M198.745 195.953C200.058 194.681 200.152 192.649 198.956 191.416C197.76 190.183 195.727 190.215 194.415 191.488C193.102 192.76 193.008 194.792 194.204 196.025C195.4 197.258 197.433 197.226 198.745 195.953Z" fill="white"></path>
  <path d="M200.494 182.364C200.429 183.228 200.044 184.037 199.413 184.631C198.782 185.225 197.951 185.561 197.084 185.574C196.671 185.579 196.26 185.497 195.879 185.335C195.499 185.173 195.156 184.933 194.873 184.631C194.59 184.329 194.372 183.972 194.235 183.582C194.097 183.191 194.043 182.776 194.074 182.364C194.136 181.499 194.52 180.69 195.15 180.095C195.78 179.501 196.611 179.165 197.477 179.154C197.892 179.148 198.303 179.228 198.684 179.39C199.066 179.552 199.41 179.792 199.693 180.094C199.977 180.396 200.195 180.753 200.333 181.144C200.471 181.535 200.526 181.95 200.494 182.364Z" fill="white"></path>
  <path d="M201.194 170.995C201.13 171.86 200.745 172.67 200.113 173.264C199.482 173.859 198.651 174.195 197.784 174.206C197.37 174.211 196.959 174.129 196.579 173.967C196.198 173.805 195.855 173.565 195.572 173.263C195.289 172.961 195.072 172.604 194.934 172.213C194.797 171.823 194.742 171.408 194.773 170.995C194.837 170.131 195.222 169.321 195.853 168.727C196.485 168.132 197.316 167.796 198.183 167.785C198.597 167.78 199.007 167.862 199.388 168.024C199.769 168.186 200.112 168.426 200.395 168.728C200.678 169.03 200.895 169.387 201.033 169.778C201.17 170.168 201.225 170.583 201.194 170.995Z" fill="white"></path>
  <path d="M66.3686 97.8018L70.1315 100.732L65.1632 103.343C65.1632 103.343 62.8388 100.845 64.0177 98.7208L66.3686 97.8018Z" fill="#7F3E3B"></path>
  <path d="M70.2979 105.814L68.0136 106.48C67.6628 106.587 67.2853 106.562 66.9518 106.41C66.6182 106.258 66.3517 105.989 66.202 105.654L65.1631 103.317L70.1314 100.706L71.277 103.83C71.3527 104.024 71.3873 104.231 71.3783 104.439C71.3694 104.647 71.3172 104.851 71.2251 105.038C71.133 105.225 71.003 105.39 70.8433 105.524C70.6837 105.657 70.4979 105.756 70.2979 105.814Z" fill="#7F3E3B"></path>
  <path d="M82.1662 70.9618L80.1682 72.2072C79.5022 72.6401 78.8029 73.0797 78.1235 73.5392C76.7915 74.4383 75.4595 75.3441 74.1275 76.2898C71.5546 78.0948 69.1274 80.0989 66.8681 82.2838L66.4685 82.6834L66.3686 82.7833C66.3709 82.7701 66.3709 82.7566 66.3686 82.7433C66.3686 82.71 66.2954 82.7966 66.2288 82.9498C66.0381 83.4401 65.9235 83.9566 65.8891 84.4816C65.7866 85.9537 65.8246 87.4322 66.0023 88.8972C66.3087 92.0274 66.9614 95.3307 67.6007 98.5342L63.8045 99.9727C62.1296 96.8207 60.8095 93.4925 59.8685 90.0493C59.3477 88.1919 59.0372 86.2818 58.9427 84.355C58.8919 83.179 59.0085 82.0017 59.2891 80.8585C59.4826 80.1152 59.7832 79.4041 60.1815 78.7473C60.2966 78.5555 60.4234 78.3709 60.5611 78.1945L60.7476 77.9481L60.8608 77.8149L61.3137 77.2688C61.9131 76.5295 62.5458 75.8635 63.1718 75.1776C63.7979 74.4916 64.4639 73.8456 65.1299 73.2661C66.4619 72.0074 67.8338 70.8752 69.2324 69.763C70.631 68.6508 72.0763 67.6251 73.5548 66.6394C74.2874 66.1466 75.0333 65.6737 75.7859 65.2009C76.5385 64.728 77.2777 64.2951 78.1369 63.8223L82.1662 70.9618Z" fill="#D68029"></path>
  <path d="M67.2876 97.7419C65.9752 98.3024 64.6242 98.7676 63.2449 99.1338C63.1356 99.1699 63.0421 99.2426 62.9802 99.3397C62.9183 99.4368 62.8918 99.5523 62.9053 99.6666C62.9919 100.333 63.1251 100.785 63.4847 100.825C63.8443 100.865 67.827 99.4934 68.1067 98.9873C68.2666 98.7009 68.1067 98.2747 67.9269 97.9483C67.8674 97.8382 67.7677 97.7553 67.6486 97.7169C67.5296 97.6784 67.4002 97.6874 67.2876 97.7419Z" fill="#263238"></path>
  <path d="M86.1021 94.8779L78.1101 75.2442C77.8137 74.5404 77.264 73.9734 76.5698 73.6552C75.8755 73.3371 75.0872 73.2909 74.3605 73.5259L51.6433 81.1516C51.2992 81.2676 50.9825 81.4528 50.7126 81.6956C50.4427 81.9385 50.2253 82.234 50.0738 82.5639C49.9222 82.8938 49.8397 83.2513 49.8313 83.6143C49.8229 83.9773 49.8888 84.3381 50.0249 84.6747L58.0169 104.308C58.3133 105.012 58.863 105.579 59.5572 105.897C60.2515 106.216 61.0398 106.262 61.7665 106.027L84.4837 98.401C84.8278 98.285 85.1445 98.0998 85.4144 97.857C85.6843 97.6141 85.9017 97.3186 86.0533 96.9887C86.2048 96.6587 86.2873 96.3013 86.2957 95.9383C86.3041 95.5753 86.2383 95.2145 86.1021 94.8779Z" fill="#D68029"></path>
  <path opacity="0.7" d="M86.1021 94.8779L78.1101 75.2442C77.8137 74.5404 77.264 73.9734 76.5698 73.6552C75.8755 73.3371 75.0872 73.2909 74.3605 73.5259L51.6433 81.1516C51.2992 81.2676 50.9825 81.4528 50.7126 81.6956C50.4427 81.9385 50.2253 82.234 50.0738 82.5639C49.9222 82.8938 49.8397 83.2513 49.8313 83.6143C49.8229 83.9773 49.8888 84.3381 50.0249 84.6747L58.0169 104.308C58.3133 105.012 58.863 105.579 59.5572 105.897C60.2515 106.216 61.0398 106.262 61.7665 106.027L84.4837 98.401C84.8278 98.285 85.1445 98.0998 85.4144 97.857C85.6843 97.6141 85.9017 97.3186 86.0533 96.9887C86.2048 96.6587 86.2873 96.3013 86.2957 95.9383C86.3041 95.5753 86.2383 95.2145 86.1021 94.8779Z" fill="white"></path>
  <path d="M103.325 49.8096C103.232 50.2025 103.325 50.5755 103.618 50.6354C103.911 50.6954 104.157 50.4356 104.284 50.0427C104.41 49.6498 104.251 49.2768 103.991 49.2102C103.731 49.1436 103.425 49.4167 103.325 49.8096Z" fill="#263238"></path>
  <path d="M103.325 50.5625C103.497 51.8808 103.848 53.1693 104.37 54.392C104.055 54.5184 103.715 54.5738 103.375 54.5543C103.036 54.5347 102.705 54.4407 102.406 54.2788L103.325 50.5625Z" fill="#630F0F"></path>
  <path d="M102.472 47.2863C102.517 47.3032 102.567 47.3032 102.612 47.2863C102.886 47.1653 103.185 47.1113 103.483 47.1287C103.782 47.1461 104.072 47.2343 104.33 47.3862C104.356 47.405 104.385 47.4183 104.416 47.4255C104.447 47.4327 104.479 47.4335 104.51 47.4278C104.541 47.4222 104.571 47.4103 104.597 47.3929C104.623 47.3754 104.646 47.3528 104.663 47.3263C104.681 47.301 104.694 47.2724 104.7 47.2423C104.707 47.2121 104.707 47.1809 104.702 47.1506C104.696 47.1202 104.685 47.0913 104.668 47.0654C104.651 47.0396 104.629 47.0173 104.603 46.9999C104.281 46.8029 103.917 46.6856 103.541 46.6578C103.164 46.63 102.786 46.6925 102.439 46.8401C102.41 46.8518 102.383 46.8692 102.36 46.8913C102.338 46.9134 102.32 46.9398 102.307 46.9689C102.295 46.998 102.288 47.0292 102.288 47.0609C102.288 47.0925 102.294 47.1238 102.306 47.1531C102.32 47.1876 102.343 47.218 102.372 47.2413C102.401 47.2646 102.435 47.2801 102.472 47.2863Z" fill="#263238"></path>
  <path d="M89.5118 51.2148C89.3319 54.9511 88.4129 61.6577 85.3359 63.4226C85.3359 63.4226 85.4159 67.2854 92.0426 68.9171C99.3286 70.722 96.4182 66.1599 96.4182 66.1599C92.6753 64.2285 93.5078 61.3047 94.8864 58.7007L89.5118 51.2148Z" fill="#7F3E3B"></path>
  <path d="M84.0708 64.4285C83.8311 63.1564 83.578 61.7046 84.87 61.5847C86.2886 61.4581 93.568 62.7635 95.8324 64.2487C96.1363 64.4188 96.4033 64.6478 96.6177 64.9222C96.8322 65.1966 96.9899 65.511 97.0817 65.847C97.1734 66.183 97.1974 66.5338 97.1521 66.8792C97.1069 67.2245 96.9933 67.5574 96.8181 67.8584L84.0708 64.4285Z" fill="#263238"></path>
  <path d="M49.5118 226.081C49.6561 226.239 49.8305 226.367 50.0249 226.458C50.2193 226.548 50.4298 226.599 50.644 226.607C50.7772 226.607 50.9437 226.48 51.0037 226.174C51.0204 226.096 51.0201 226.015 51.0029 225.937C50.9856 225.858 50.9519 225.785 50.9038 225.721C50.4509 225.115 48.7792 224.942 48.7126 224.935C48.6891 224.933 48.6653 224.937 48.6441 224.948C48.6229 224.959 48.6051 224.975 48.5928 224.995C48.581 225.014 48.5747 225.036 48.5747 225.058C48.5747 225.081 48.581 225.103 48.5928 225.122C48.8664 225.471 49.1743 225.792 49.5118 226.081ZM50.6107 225.754C50.6475 225.786 50.681 225.822 50.7106 225.861C50.7393 225.898 50.7595 225.942 50.7698 225.988C50.7802 226.033 50.7804 226.081 50.7706 226.127C50.7306 226.347 50.6307 226.367 50.5908 226.374C50.2444 226.454 49.4652 225.794 48.9724 225.208C49.553 225.276 50.112 225.469 50.6107 225.774V225.754Z" fill="#D68029"></path>
  <path d="M48.6195 225.142C48.6195 225.142 48.6195 225.142 48.6728 225.142C49.2522 225.261 50.7308 225.075 51.0105 224.582C51.0538 224.503 51.0689 224.412 51.0531 224.324C51.0374 224.235 50.9918 224.155 50.9239 224.096C50.8618 224.029 50.7866 223.976 50.703 223.939C50.6193 223.902 50.529 223.883 50.4377 223.883C49.6851 223.883 48.6595 224.902 48.6129 224.942C48.6035 224.96 48.5986 224.981 48.5986 225.002C48.5986 225.023 48.6035 225.043 48.6129 225.062C48.6076 225.088 48.6099 225.116 48.6195 225.142ZM50.7108 224.249L50.7507 224.282C50.8573 224.402 50.824 224.462 50.804 224.489C50.6375 224.782 49.6119 225.002 48.9659 224.968C49.3635 224.554 49.8762 224.269 50.4377 224.149C50.5376 224.149 50.6343 224.185 50.7108 224.249Z" fill="#D68029"></path>
  <path d="M87.1344 235.717C87.8004 235.717 88.3865 235.624 88.5663 235.337C88.6122 235.256 88.6312 235.161 88.6204 235.068C88.6096 234.975 88.5697 234.887 88.5064 234.818C88.4117 234.676 88.2663 234.576 88.1001 234.538C87.241 234.312 85.5893 235.311 85.516 235.351C85.4957 235.364 85.4802 235.384 85.4718 235.406C85.4634 235.429 85.4626 235.454 85.4694 235.477C85.4773 235.501 85.4913 235.522 85.51 235.538C85.5287 235.555 85.5515 235.566 85.576 235.571C86.09 235.666 86.6116 235.715 87.1344 235.717ZM87.8004 234.738C87.8779 234.731 87.956 234.731 88.0335 234.738C88.1332 234.762 88.2209 234.821 88.2799 234.905C88.3798 235.058 88.3598 235.124 88.3332 235.171C88.1334 235.497 86.8613 235.504 85.9156 235.371C86.502 235.029 87.1529 234.814 87.8271 234.738H87.8004Z" fill="#D68029"></path>
  <path d="M85.6027 235.577H85.6494C86.2221 235.304 87.3144 234.245 87.1612 233.653C87.1612 233.519 87.0147 233.353 86.6883 233.32C86.5689 233.301 86.447 233.311 86.3316 233.346C86.2163 233.382 86.1105 233.444 86.0223 233.526C85.4362 234.046 85.4429 235.404 85.4429 235.457C85.4424 235.479 85.4477 235.5 85.4583 235.519C85.4688 235.538 85.4842 235.553 85.5028 235.564C85.5168 235.575 85.5334 235.582 85.551 235.584C85.5685 235.587 85.5864 235.584 85.6027 235.577ZM86.6151 233.539H86.6883C86.9014 233.539 86.9281 233.639 86.9347 233.673C87.0213 234.012 86.2687 234.865 85.716 235.238C85.7073 234.68 85.8828 234.134 86.2155 233.686C86.3263 233.59 86.4684 233.538 86.6151 233.539Z" fill="#D68029"></path>
  <path d="M80.1279 235.457H85.1496L85.6557 223.822H80.6274L80.1279 235.457Z" fill="#7F3E3B"></path>
  <path d="M43.5513 223.676L48.4131 224.948L53.7943 214.332L48.9326 213.06L43.5513 223.676Z" fill="#7F3E3B"></path>
  <path d="M48.7861 224.369L44.4904 220.719C44.4112 220.658 44.314 220.625 44.214 220.625C44.114 220.625 44.0168 220.658 43.9376 220.719L40.2679 223.463C40.1806 223.532 40.11 223.62 40.0615 223.721C40.013 223.821 39.9878 223.931 39.9878 224.042C39.9878 224.154 40.013 224.264 40.0615 224.364C40.11 224.465 40.1806 224.553 40.2679 224.622C41.7931 225.867 42.5989 226.4 44.4904 228.005C45.6559 228.991 48.1401 231.821 49.6386 233.3C51.1371 234.778 52.8021 233.48 52.3026 232.74C50.7166 230.458 49.6608 227.851 49.2123 225.108C49.1651 224.818 49.0136 224.555 48.7861 224.369Z" fill="#263238"></path>
  <path d="M84.9963 234.871H79.5085C79.4119 234.87 79.3184 234.905 79.2459 234.969C79.1734 235.033 79.127 235.121 79.1155 235.217L78.5894 239.68C78.5782 239.793 78.5909 239.907 78.6267 240.015C78.6625 240.123 78.7206 240.222 78.7972 240.307C78.8738 240.391 78.9672 240.458 79.0713 240.504C79.1755 240.549 79.2881 240.573 79.4019 240.572C81.3999 240.539 84.2238 240.426 86.7279 240.426C89.6383 240.426 90.1312 240.585 93.5411 240.585C95.599 240.585 95.9587 238.501 95.0729 238.308C91.0769 237.449 89.8781 237.362 86.2617 235.264C85.8822 235.023 85.4455 234.888 84.9963 234.871Z" fill="#263238"></path>
  <path d="M103.757 72.6602C103.371 77.7285 101.466 88.4977 94.2137 110.369L67.8135 105.401C68.313 101.871 73.0616 86.9925 74.1405 70.2227C74.2113 69.1176 74.5083 68.0388 75.0132 67.0533C75.518 66.0677 76.2199 65.1964 77.0754 64.4933C77.9309 63.7902 78.9216 63.2703 79.9863 62.9659C81.051 62.6614 82.1668 62.5789 83.2647 62.7235H83.3979C87.1766 63.2108 90.9236 63.9179 94.62 64.8414C96.5665 65.4306 98.473 66.1447 100.328 66.9792C101.419 67.4513 102.337 68.2524 102.952 69.2708C103.567 70.2892 103.848 71.4741 103.757 72.6602Z" fill="#D68029"></path>
  <path opacity="0.2" d="M98.7428 75.7305C98.5696 78.5809 99.6352 84.6349 100.568 89.2369C101.42 85.9069 102.059 83.1497 102.566 80.7921L98.7428 75.7305Z" fill="black"></path>
  <path d="M103.665 71.1152C104.297 72.687 104.997 74.3986 105.663 76.0237C106.329 77.6487 107.094 79.2937 107.867 80.8921C109.297 84.0371 110.973 87.0636 112.882 89.9431C113.355 90.6091 113.828 91.2751 114.321 91.8345L114.414 91.9411H114.381H114.334C114.334 91.9411 114.334 91.9411 114.334 91.9877C114.479 92.0939 114.641 92.175 114.813 92.2274C115.44 92.4243 116.089 92.5407 116.745 92.5738C117.547 92.63 118.352 92.6456 119.156 92.6204C122.679 92.4233 126.187 92.0074 129.659 91.375L130.991 95.2244C129.252 96.0749 127.462 96.8135 125.629 97.4356C123.763 98.0911 121.851 98.6075 119.908 98.9807C118.874 99.1767 117.829 99.308 116.778 99.3736C115.584 99.4507 114.386 99.3836 113.208 99.1738C112.471 99.0483 111.755 98.8243 111.077 98.5078C110.671 98.3222 110.283 98.0992 109.918 97.8418C109.716 97.6979 109.523 97.5422 109.339 97.3756L109.059 97.1092L108.913 96.9627C108.168 96.2102 107.463 95.4188 106.801 94.5917C104.391 91.4624 102.292 88.1054 100.534 84.5684C99.6686 82.8502 98.8361 81.1252 98.0835 79.367C97.3309 77.6087 96.605 75.8838 95.939 73.9924L103.665 71.1152Z" fill="#D68029"></path>
  <path opacity="0.2" d="M151.237 87.759L141.76 85.8676C141.417 85.8033 141.062 85.8703 140.766 86.0553C140.47 86.2404 140.254 86.5299 140.161 86.8666L137.364 97.4493C137.319 97.6096 137.307 97.7776 137.33 97.9425C137.354 98.1075 137.411 98.2659 137.499 98.4075C137.586 98.5491 137.703 98.6709 137.84 98.7651C137.977 98.8593 138.133 98.9238 138.297 98.9545L147.774 100.846C148.117 100.909 148.471 100.841 148.767 100.656C149.062 100.471 149.278 100.183 149.372 99.8469L152.156 89.2442C152.199 89.0861 152.208 88.9211 152.184 88.7592C152.16 88.5973 152.104 88.4421 152.018 88.3029C151.932 88.1638 151.818 88.0438 151.684 87.9502C151.549 87.8567 151.397 87.7916 151.237 87.759Z" fill="black"></path>
  <path d="M147.94 82.8966L138.503 80.7987C138.161 80.729 137.806 80.7894 137.507 80.9681C137.207 81.1467 136.986 81.4307 136.885 81.7644L133.854 92.2806C133.807 92.4403 133.792 92.6082 133.813 92.7736C133.833 92.9391 133.888 93.0985 133.973 93.2418C134.058 93.3851 134.172 93.5093 134.307 93.6063C134.443 93.7034 134.597 93.7713 134.76 93.8057L144.164 95.9036C144.506 95.9749 144.862 95.9152 145.162 95.7363C145.461 95.5575 145.683 95.2725 145.782 94.9379L148.826 84.4218C148.875 84.2635 148.891 84.0967 148.872 83.932C148.853 83.7673 148.801 83.6083 148.718 83.465C148.634 83.3217 148.522 83.1972 148.388 83.0993C148.255 83.0015 148.102 82.9325 147.94 82.8966Z" fill="white"></path>
  <path d="M128.846 92.0807L131.829 87.7051L136.565 92.0341C136.565 92.0341 134.1 95.3641 130.451 95.1843L128.846 92.0807Z" fill="#7F3E3B"></path>
  <path d="M127.874 91.9076C128.463 93.2033 128.962 94.5385 129.365 95.9036C129.402 96.0132 129.476 96.1063 129.575 96.1661C129.674 96.2259 129.791 96.2485 129.905 96.23C130.571 96.1234 131.017 95.9835 131.05 95.6239C131.084 95.2643 129.612 91.3149 129.099 91.0485C128.923 91.0011 128.738 90.995 128.559 91.0308C128.38 91.0666 128.211 91.1433 128.067 91.2549C128.01 91.2843 127.96 91.3246 127.92 91.3737C127.88 91.4227 127.849 91.4793 127.831 91.5403C127.813 91.6012 127.808 91.6651 127.815 91.7282C127.822 91.7913 127.842 91.8524 127.874 91.9076Z" fill="#263238"></path>
  <path d="M137.624 87.0323L138.21 88.1712C138.442 88.6222 138.521 89.1369 138.435 89.6369C138.348 90.1369 138.101 90.5951 137.73 90.9417L136.558 92.034L131.823 87.705L134.314 86.1332C134.586 85.9606 134.892 85.8466 135.211 85.7985C135.53 85.7503 135.855 85.7692 136.167 85.8537C136.478 85.9383 136.768 86.0868 137.019 86.2897C137.27 86.4926 137.476 86.7455 137.624 87.0323Z" fill="#7F3E3B"></path>
  <path opacity="0.2" d="M85.649 223.829L85.3693 230.369H80.3477L80.6274 223.829H85.649Z" fill="black"></path>
  <path opacity="0.2" d="M48.9325 213.066L53.7943 214.332L50.8106 220.213L46.1553 218.534L48.9325 213.066Z" fill="black"></path>
  <path d="M90.4111 45.7409C89.5186 50.6426 88.7461 53.4665 90.5709 56.55C93.3215 61.212 99.8283 60.4461 102.173 55.884C104.277 51.8015 105.389 44.4688 101.14 41.3786C100.203 40.6935 99.107 40.2594 97.9552 40.1175C96.8033 39.9756 95.6343 40.1305 94.5592 40.5676C93.4841 41.0048 92.5386 41.7095 91.8126 42.615C91.0865 43.5204 90.6041 44.5965 90.4111 45.7409Z" fill="#7F3E3B"></path>
  <path d="M98.8159 50.5426C101.313 51.5083 102.812 47.9186 102.146 46.6266C102.972 46.1271 106.268 45.3611 105.889 42.8303C105.509 40.2995 103.012 39.567 101.187 36.2303C100.568 36.5566 100.734 38.5879 100.734 38.5879C100.734 38.5879 99.2355 35.9239 95.3527 35.9706C91.47 36.0172 90.0247 34.4121 90.0247 34.4121C90.0247 34.4121 90.3178 36.9429 91.7563 37.5623C89.5785 38.175 89.5785 41.5583 86.4883 41.9712C87.1942 43.3032 88.9192 43.3032 88.9192 43.3032C88.9192 43.3032 87.1343 44.8483 87.4873 46.7797C87.8403 48.7111 89.9049 53.3665 87.434 54.9848C92.782 56.8963 99.8749 54.7384 98.8159 50.5426Z" fill="#263238"></path>
  <path d="M97.6505 49.7432C97.3773 50.9527 97.5083 52.2184 98.0234 53.3463C98.6894 54.8182 100.021 54.4385 100.647 53.0866C101.2 51.8744 101.507 49.65 100.428 48.6177C99.3488 47.5854 98.0035 48.2914 97.6505 49.7432Z" fill="#7F3E3B"></path>
  <path d="M84.85 108.605C84.85 108.605 78.0234 146.087 74.8999 160.466C71.4767 176.21 54.0408 218.341 54.0408 218.341L45.2896 215.518C45.2896 215.518 56.2386 175.398 61.1736 159.574C62.2059 142.697 64.3039 115.991 67.8337 105.395L84.85 108.605Z" fill="#D68029"></path>
  <path opacity="0.5" d="M84.85 108.605C84.85 108.605 78.0234 146.087 74.8999 160.466C71.4767 176.21 54.0408 218.341 54.0408 218.341L45.2896 215.518C45.2896 215.518 56.2386 175.398 61.1736 159.574C62.2059 142.697 64.3039 115.991 67.8337 105.395L84.85 108.605Z" fill="black"></path>
  <path d="M55.8921 216.49C55.9254 216.49 53.8941 219.547 53.8941 219.547L44.064 216.31L45.2295 213.373L55.8921 216.49Z" fill="#D68029"></path>
  <path opacity="0.3" d="M81.753 121.711C75.3594 122.737 75.8256 141.691 76.5715 152.308C78.4363 143.05 80.734 130.856 82.4257 121.711C82.2018 121.694 81.9769 121.694 81.753 121.711Z" fill="black"></path>
  <path d="M94.2139 110.37C94.2139 110.37 95.6324 145.255 95.0863 160.566C94.5202 176.503 87.2675 228.665 87.2675 228.665H78.756C78.756 228.665 78.5762 178.521 80.5342 161.871C80.1213 144.815 76.8579 107.1 76.8579 107.1L94.2139 110.37Z" fill="#D68029"></path>
  <path opacity="0.5" d="M94.2139 110.37C94.2139 110.37 95.6324 145.255 95.0863 160.566C94.5202 176.503 87.2675 228.665 87.2675 228.665H78.756C78.756 228.665 78.5762 178.521 80.5342 161.871C80.1213 144.815 76.8579 107.1 76.8579 107.1L94.2139 110.37Z" fill="black"></path>
  <path d="M88.8858 225.274C88.9257 225.274 88.4062 228.804 88.4062 228.804H78.0766L77.7969 225.654L88.8858 225.274Z" fill="#D68029"></path>
  <path d="M67.8135 104.435C66.941 104.395 66.8811 106.486 67.1475 107.099C67.4139 107.712 71.25 108.085 81.4265 110.369C91.603 112.654 94.1205 112.773 94.4401 112.634C94.7598 112.494 95.4058 109.67 94.7798 109.583C94.1538 109.497 83.6976 107.818 79.2687 106.793C74.8398 105.767 69.0522 104.495 67.8135 104.435Z" fill="#263238"></path>
</svg>
