<svg width="512" height="512" viewBox="0 0 512 512" fill="none" xmlns="http://www.w3.org/2000/svg">
<g clip-path="url(#clip0_3353_1464)">
<path d="M477.867 0H34.1333C25.0806 0 16.3987 3.59618 9.99742 9.99742C3.59618 16.3987 0 25.0806 0 34.1333L0 290.133C0 299.186 3.59618 307.868 9.99742 314.269C16.3987 320.671 25.0806 324.267 34.1333 324.267H42.6667V486.4C42.6667 493.19 45.3638 499.701 50.1647 504.502C54.9657 509.303 61.4771 512 68.2667 512H443.733C450.523 512 457.034 509.303 461.835 504.502C466.636 499.701 469.333 493.19 469.333 486.4V324.267H477.867C486.919 324.267 495.601 320.671 502.003 314.269C508.404 307.868 512 299.186 512 290.133V34.1333C512 25.0806 508.404 16.3987 502.003 9.99742C495.601 3.59618 486.919 0 477.867 0ZM452.267 486.4C452.267 488.663 451.368 490.834 449.767 492.434C448.167 494.034 445.997 494.933 443.733 494.933H68.2667C66.0035 494.933 63.833 494.034 62.2327 492.434C60.6324 490.834 59.7333 488.663 59.7333 486.4V298.667C59.7333 296.404 60.6324 294.233 62.2327 292.633C63.833 291.032 66.0035 290.133 68.2667 290.133H443.733C445.997 290.133 448.167 291.032 449.767 292.633C451.368 294.233 452.267 296.404 452.267 298.667V486.4ZM85.3333 264.533V59.7333C85.3333 57.4702 86.2324 55.2997 87.8327 53.6994C89.433 52.099 91.6035 51.2 93.8667 51.2H418.133C420.397 51.2 422.567 52.099 424.167 53.6994C425.768 55.2997 426.667 57.4702 426.667 59.7333V264.533C426.667 266.797 425.768 268.967 424.167 270.567C422.567 272.168 420.397 273.067 418.133 273.067H93.8667C91.6035 273.067 89.433 272.168 87.8327 270.567C86.2324 268.967 85.3333 266.797 85.3333 264.533ZM494.933 290.133C494.933 294.66 493.135 299.001 489.935 302.201C486.734 305.402 482.393 307.2 477.867 307.2H469.333V298.667C469.333 291.877 466.636 285.366 461.835 280.565C457.034 275.764 450.523 273.067 443.733 273.067H442.163C443.17 270.336 443.699 267.443 443.733 264.533V59.7333C443.733 52.9438 441.036 46.4323 436.235 41.6314C431.434 36.8305 424.923 34.1333 418.133 34.1333H93.8667C87.0771 34.1333 80.5657 36.8305 75.7647 41.6314C70.9638 46.4323 68.2667 52.9438 68.2667 59.7333V264.533C68.2923 267.443 68.8299 270.336 69.8368 273.067H68.2667C61.4771 273.067 54.9657 275.764 50.1647 280.565C45.3638 285.366 42.6667 291.877 42.6667 298.667V307.2H34.1333C29.607 307.2 25.266 305.402 22.0654 302.201C18.8648 299.001 17.0667 294.66 17.0667 290.133V34.1333C17.0667 29.607 18.8648 25.266 22.0654 22.0654C25.266 18.8648 29.607 17.0667 34.1333 17.0667H477.867C482.393 17.0667 486.734 18.8648 489.935 22.0654C493.135 25.266 494.933 29.607 494.933 34.1333V290.133Z" fill="#D68029"/>
<path d="M426.667 342.11C419.778 341.998 413.214 339.158 408.415 334.214C403.616 329.269 400.974 322.623 401.067 315.734C401.067 313.47 400.168 311.3 398.568 309.7C396.968 308.099 394.797 307.2 392.534 307.2H119.467C117.204 307.2 115.034 308.099 113.433 309.7C111.833 311.3 110.934 313.47 110.934 315.734C111.028 322.623 108.385 329.269 103.586 334.214C98.7874 339.158 92.2236 341.998 85.3341 342.11C83.0709 342.11 80.9004 343.009 79.3001 344.609C77.6998 346.21 76.8008 348.38 76.8008 350.643V434.424C76.8008 436.687 77.6998 438.857 79.3001 440.458C80.9004 442.058 83.0709 442.957 85.3341 442.957C92.2236 443.069 98.7874 445.909 103.586 450.854C108.385 455.798 111.028 462.444 110.934 469.334C110.934 471.597 111.833 473.767 113.433 475.368C115.034 476.968 117.204 477.867 119.467 477.867H392.534C394.797 477.867 396.968 476.968 398.568 475.368C400.168 473.767 401.067 471.597 401.067 469.334C400.974 462.444 403.616 455.798 408.415 450.854C413.214 445.909 419.778 443.069 426.667 442.957C428.931 442.957 431.101 442.058 432.701 440.458C434.302 438.857 435.201 436.687 435.201 434.424V350.643C435.201 348.38 434.302 346.21 432.701 344.609C431.101 343.009 428.931 342.11 426.667 342.11ZM324.267 392.534C324.267 406.035 320.264 419.234 312.762 430.46C305.261 441.687 294.599 450.437 282.125 455.604C269.651 460.771 255.925 462.123 242.683 459.488C229.44 456.854 217.276 450.353 207.729 440.805C198.182 431.258 191.68 419.094 189.046 405.852C186.412 392.609 187.764 378.883 192.931 366.409C198.098 353.935 206.847 343.273 218.074 335.772C229.3 328.271 242.499 324.267 256.001 324.267C274.1 324.287 291.452 331.486 304.25 344.284C317.048 357.082 324.247 374.434 324.267 392.534ZM127.147 460.8C125.545 452.49 121.536 444.834 115.62 438.782C109.703 432.731 102.139 428.55 93.8674 426.761V358.306C102.139 356.517 109.703 352.336 115.62 346.285C121.536 340.233 125.545 332.577 127.147 324.267H204.997C194.339 332.174 185.68 342.467 179.713 354.321C173.747 366.176 170.64 379.262 170.64 392.534C170.64 405.805 173.747 418.891 179.713 430.746C185.68 442.6 194.339 452.893 204.997 460.8H127.147ZM418.134 426.761C409.862 428.55 402.298 432.731 396.382 438.782C390.465 444.834 386.457 452.49 384.854 460.8H306.979C317.637 452.893 326.296 442.6 332.262 430.746C338.229 418.891 341.336 405.805 341.336 392.534C341.336 379.262 338.229 366.176 332.262 354.321C326.296 342.467 317.637 332.174 306.979 324.267H384.854C386.457 332.577 390.465 340.233 396.382 346.285C402.298 352.336 409.862 356.517 418.134 358.306V426.761Z" fill="#D68029"/>
<path d="M255.999 401.067C257.497 401.068 258.968 401.464 260.264 402.214C261.56 402.963 262.637 404.041 263.384 405.339C264.132 406.636 264.525 408.108 264.525 409.605C264.524 411.103 264.129 412.574 263.379 413.87C262.63 415.167 261.552 416.243 260.255 416.992C258.958 417.74 257.487 418.134 255.989 418.133C254.492 418.133 253.02 417.738 251.724 416.99C250.427 416.241 249.35 415.164 248.601 413.867C247.434 411.98 245.578 410.622 243.426 410.081C241.275 409.539 238.997 409.857 237.076 410.967C235.155 412.077 233.741 413.891 233.135 416.026C232.529 418.16 232.779 420.446 233.83 422.4C236.927 427.605 241.766 431.531 247.483 433.493V435.2C247.483 437.463 248.382 439.634 249.983 441.234C251.583 442.834 253.753 443.733 256.017 443.733C258.28 443.733 260.45 442.834 262.051 441.234C263.651 439.634 264.55 437.463 264.55 435.2V433.63C270.24 431.626 275.038 427.672 278.091 422.469C281.145 417.266 282.259 411.149 281.235 405.204C280.21 399.258 277.114 393.867 272.495 389.986C267.876 386.105 262.033 383.985 255.999 384C254.502 383.999 253.031 383.603 251.735 382.853C250.439 382.103 249.362 381.025 248.615 379.728C247.867 378.43 247.474 376.959 247.474 375.461C247.475 373.964 247.87 372.493 248.62 371.196C249.369 369.9 250.447 368.823 251.744 368.075C253.041 367.327 254.512 366.933 256.01 366.933C257.507 366.934 258.979 367.328 260.275 368.077C261.572 368.826 262.649 369.903 263.398 371.2C264.565 373.087 266.421 374.445 268.573 374.986C270.724 375.527 273.002 375.209 274.923 374.099C276.844 372.99 278.258 371.175 278.864 369.041C279.47 366.907 279.22 364.62 278.169 362.667C275.079 357.472 270.248 353.541 264.533 351.573V349.867C264.533 347.604 263.634 345.433 262.033 343.833C260.433 342.232 258.263 341.333 255.999 341.333C253.736 341.333 251.566 342.232 249.965 343.833C248.365 345.433 247.466 347.604 247.466 349.867V351.437C241.777 353.441 236.981 357.393 233.927 362.594C230.873 367.796 229.758 373.91 230.78 379.854C231.802 385.799 234.895 391.19 239.511 395.072C244.127 398.954 249.968 401.078 255.999 401.067ZM469.333 128C467.07 128 464.899 128.899 463.299 130.499C461.699 132.1 460.799 134.27 460.799 136.533V187.733C460.799 189.997 461.699 192.167 463.299 193.767C464.899 195.368 467.07 196.267 469.333 196.267C471.596 196.267 473.767 195.368 475.367 193.767C476.967 192.167 477.866 189.997 477.866 187.733V136.533C477.866 134.27 476.967 132.1 475.367 130.499C473.767 128.899 471.596 128 469.333 128ZM42.6661 162.133C40.403 162.133 38.2325 163.032 36.6322 164.633C35.0319 166.233 34.1328 168.403 34.1328 170.667V196.267C34.1328 198.53 35.0319 200.7 36.6322 202.301C38.2325 203.901 40.403 204.8 42.6661 204.8C44.9293 204.8 47.0998 203.901 48.7001 202.301C50.3004 200.7 51.1995 198.53 51.1995 196.267V170.667C51.1995 168.403 50.3004 166.233 48.7001 164.633C47.0998 163.032 44.9293 162.133 42.6661 162.133Z" fill="#D68029"/>
<path d="M42.6661 145.067C47.379 145.067 51.1995 141.246 51.1995 136.533C51.1995 131.821 47.379 128 42.6661 128C37.9533 128 34.1328 131.821 34.1328 136.533C34.1328 141.246 37.9533 145.067 42.6661 145.067Z" fill="#D68029"/>
<path d="M390.331 120.567L262.212 69.4612C258.224 67.8658 253.775 67.8658 249.787 69.4612L121.659 120.567C118.488 121.862 115.774 124.073 113.864 126.916C111.954 129.76 110.934 133.108 110.934 136.533C110.934 139.959 111.954 143.307 113.864 146.15C115.774 148.994 118.488 151.204 121.659 152.499L179.2 175.445V221.184C179.192 225.979 180.536 230.679 183.076 234.746C185.615 238.814 189.249 242.083 193.561 244.181C213.187 252.875 234.555 256.92 256 256C277.432 256.92 298.788 252.881 318.404 244.198C322.724 242.102 326.365 238.832 328.911 234.761C331.457 230.691 332.805 225.985 332.8 221.184V175.445L384 155.025V187.733C384 189.996 384.899 192.167 386.499 193.767C388.099 195.367 390.27 196.266 392.533 196.266C394.796 196.266 396.967 195.367 398.567 193.767C400.167 192.167 401.066 189.996 401.066 187.733V136.533C401.09 133.101 400.078 129.742 398.163 126.893C396.248 124.045 393.519 121.841 390.331 120.567ZM315.733 221.184C315.707 224.495 313.796 227.499 310.809 228.915C293.548 236.407 274.796 239.835 256 238.933C237.188 239.832 218.422 236.398 201.147 228.898C199.698 228.201 198.473 227.112 197.611 225.755C196.748 224.397 196.282 222.826 196.266 221.218V182.255L249.787 203.588C253.772 205.184 258.227 205.184 262.212 203.588L315.733 182.255V221.184ZM321.288 161.706L320.691 161.945L256.111 187.733L191.146 161.843L190.916 161.749L128 136.644L124.842 144.572L128 136.422L255.889 85.3332L384 136.636L321.288 161.706Z" fill="#D68029"/>
<path d="M282.394 123.443L252.673 106.974C250.395 105.7 247.823 105.044 245.213 105.071C242.604 105.098 240.046 105.807 237.795 107.128C235.544 108.448 233.677 110.334 232.38 112.599C231.083 114.864 230.4 117.428 230.401 120.038V153.028C230.375 158.344 233.2 163.268 237.799 165.939C240.041 167.27 242.593 167.987 245.2 168.016C247.807 168.046 250.375 167.389 252.647 166.11L282.394 149.623C284.737 148.334 286.691 146.439 288.052 144.136C289.413 141.834 290.131 139.208 290.131 136.533C290.131 133.859 289.413 131.233 288.052 128.93C286.691 126.628 284.737 124.733 282.394 123.443ZM247.467 149.47V123.597L270.797 136.533L247.467 149.47Z" fill="#D68029"/>
</g>
<defs>
<clipPath id="clip0_3353_1464">
<rect width="512" height="512" fill="white"/>
</clipPath>
</defs>
</svg>
