<svg xmlns="http://www.w3.org/2000/svg" width="333" height="333" viewBox="0 0 333 333" fill="none"><path d="M154.113 24.4156C139.881 30.2231 126.021 36.9763 111.116 40.7992C94.5729 45.0416 78.1094 41.292 61.446 43.7562C11.3229 51.1022 1.67921 113.846 12.6549 154.512C23.9769 196.47 41.2929 201.132 32.6349 213.12C19.548 231.242 9.91763 254.199 18.3758 276.39C24.4231 292.287 38.8287 304.029 54.8193 309.836C78.2759 318.355 103.977 316.237 127.413 309.104C150.31 302.138 172.875 291.748 197.303 292.394C228.226 293.206 258.842 308.784 289.817 299.9C320.92 291.002 328.805 259.347 328.339 230.436C327.673 189.144 297.703 172.494 297.703 149.85C297.703 136.53 304.063 125.161 307.846 112.807C311.902 99.587 313.514 85.3745 310.304 71.7948C304.543 47.3859 283.823 28.4182 260.354 19.6204C233.667 9.63036 202.278 9.83682 174.999 17.1562C167.893 19.1392 160.917 21.5637 154.113 24.4156Z" fill="#D68029"></path><path opacity="0.7" d="M154.113 24.4156C139.881 30.2231 126.021 36.9763 111.116 40.7992C94.5729 45.0416 78.1094 41.292 61.446 43.7562C11.3229 51.1022 1.67921 113.846 12.6549 154.512C23.9769 196.47 41.2929 201.132 32.6349 213.12C19.548 231.242 9.91763 254.199 18.3758 276.39C24.4231 292.287 38.8287 304.029 54.8193 309.836C78.2759 318.355 103.977 316.237 127.413 309.104C150.31 302.138 172.875 291.748 197.303 292.394C228.226 293.206 258.842 308.784 289.817 299.9C320.92 291.002 328.805 259.347 328.339 230.436C327.673 189.144 297.703 172.494 297.703 149.85C297.703 136.53 304.063 125.161 307.846 112.807C311.902 99.587 313.514 85.3745 310.304 71.7948C304.543 47.3859 283.823 28.4182 260.354 19.6204C233.667 9.63036 202.278 9.83682 174.999 17.1562C167.893 19.1392 160.917 21.5637 154.113 24.4156Z" fill="white"></path><path d="M239.634 51.9081H158.356C152.235 51.9081 147.273 56.8697 147.273 62.9903V273.473C147.273 279.593 152.235 284.555 158.356 284.555H239.634C245.755 284.555 250.717 279.593 250.717 273.473V62.9903C250.717 56.8697 245.755 51.9081 239.634 51.9081Z" stroke="#263238" stroke-miterlimit="10"></path><path d="M241.18 253.406H156.818C152.908 253.406 149.738 256.576 149.738 260.486V273.42C149.738 277.33 152.908 280.499 156.818 280.499H241.18C245.09 280.499 248.26 277.33 248.26 273.42V260.486C248.26 256.576 245.09 253.406 241.18 253.406Z" fill="#12203D" stroke="#D4D4D4" stroke-miterlimit="10"></path><path d="M240.233 127.339H157.763C154.412 127.339 151.695 130.056 151.695 133.406V170.676C151.695 174.027 154.412 176.743 157.763 176.743H240.233C243.584 176.743 246.301 174.027 246.301 170.676V133.406C246.301 130.056 243.584 127.339 240.233 127.339Z" stroke="#D4D4D4" stroke-miterlimit="10"></path><path d="M192.915 130.616H181.373C179.534 130.616 178.043 132.107 178.043 133.946V145.488C178.043 147.327 179.534 148.818 181.373 148.818H192.915C194.754 148.818 196.245 147.327 196.245 145.488V133.946C196.245 132.107 194.754 130.616 192.915 130.616Z" fill="#12203D"></path><path d="M192.915 155.038H181.373C179.534 155.038 178.043 156.529 178.043 158.368V169.91C178.043 171.749 179.534 173.24 181.373 173.24H192.915C194.754 173.24 196.245 171.749 196.245 169.91V158.368C196.245 156.529 194.754 155.038 192.915 155.038Z" fill="#12203D"></path><path d="M168.932 155.038H157.391C155.551 155.038 154.061 156.529 154.061 158.368V169.91C154.061 171.749 155.551 173.24 157.391 173.24H168.932C170.771 173.24 172.262 171.749 172.262 169.91V158.368C172.262 156.529 170.771 155.038 168.932 155.038Z" fill="#12203D"></path><path d="M168.932 130.616H157.391C155.551 130.616 154.061 132.107 154.061 133.946V145.488C154.061 147.327 155.551 148.818 157.391 148.818H168.932C170.771 148.818 172.262 147.327 172.262 145.488V133.946C172.262 132.107 170.771 130.616 168.932 130.616Z" fill="#12203D"></path><path d="M192.915 183.363H181.373C179.534 183.363 178.043 184.854 178.043 186.693V198.235C178.043 200.074 179.534 201.565 181.373 201.565H192.915C194.754 201.565 196.245 200.074 196.245 198.235V186.693C196.245 184.854 194.754 183.363 192.915 183.363Z" fill="#12203D"></path><path d="M192.915 207.785H181.373C179.534 207.785 178.043 209.276 178.043 211.115V222.657C178.043 224.496 179.534 225.987 181.373 225.987H192.915C194.754 225.987 196.245 224.496 196.245 222.657V211.115C196.245 209.276 194.754 207.785 192.915 207.785Z" fill="#12203D"></path><path d="M168.932 207.785H157.391C155.551 207.785 154.061 209.276 154.061 211.115V222.657C154.061 224.496 155.551 225.987 157.391 225.987H168.932C170.771 225.987 172.262 224.496 172.262 222.657V211.115C172.262 209.276 170.771 207.785 168.932 207.785Z" fill="#12203D"></path><path d="M168.932 183.363H157.391C155.551 183.363 154.061 184.854 154.061 186.693V198.235C154.061 200.074 155.551 201.565 157.391 201.565H168.932C170.771 201.565 172.262 200.074 172.262 198.235V186.693C172.262 184.854 170.771 183.363 168.932 183.363Z" fill="#12203D"></path><path d="M240.44 130.616H228.898C227.059 130.616 225.568 132.107 225.568 133.946V145.488C225.568 147.327 227.059 148.818 228.898 148.818H240.44C242.279 148.818 243.77 147.327 243.77 145.488V133.946C243.77 132.107 242.279 130.616 240.44 130.616Z" fill="#12203D"></path><path d="M240.44 155.038H228.898C227.059 155.038 225.568 156.529 225.568 158.368V169.91C225.568 171.749 227.059 173.24 228.898 173.24H240.44C242.279 173.24 243.77 171.749 243.77 169.91V158.368C243.77 156.529 242.279 155.038 240.44 155.038Z" fill="#12203D"></path><path d="M216.458 155.038H204.916C203.077 155.038 201.586 156.529 201.586 158.368V169.91C201.586 171.749 203.077 173.24 204.916 173.24H216.458C218.297 173.24 219.788 171.749 219.788 169.91V158.368C219.788 156.529 218.297 155.038 216.458 155.038Z" fill="#12203D"></path><path d="M216.458 130.616H204.916C203.077 130.616 201.586 132.107 201.586 133.946V145.488C201.586 147.327 203.077 148.818 204.916 148.818H216.458C218.297 148.818 219.788 147.327 219.788 145.488V133.946C219.788 132.107 218.297 130.616 216.458 130.616Z" fill="#12203D"></path><path d="M191.823 72.594H158.922C156.237 72.594 154.061 74.7707 154.061 77.4558V110.356C154.061 113.041 156.237 115.218 158.922 115.218H191.823C194.508 115.218 196.685 113.041 196.685 110.356V77.4558C196.685 74.7707 194.508 72.594 191.823 72.594Z" fill="#12203D"></path><path d="M188.478 83.25L179.38 101.778L166.24 96.0505L154.592 112.554C154.997 113.355 155.616 114.028 156.38 114.498C157.144 114.968 158.024 115.217 158.921 115.218H191.808C193.097 115.218 194.334 114.706 195.246 113.794C196.157 112.882 196.67 111.646 196.67 110.356V87.6256L188.478 83.25Z" fill="#C4C4C4"></path><path d="M165.596 90.3163C169.13 90.3163 171.996 87.4508 171.996 83.916C171.996 80.3812 169.13 77.5157 165.596 77.5157C162.061 77.5157 159.195 80.3812 159.195 83.916C159.195 87.4508 162.061 90.3163 165.596 90.3163Z" fill="#C4C4C4"></path><path d="M239.434 183.363H206.534C203.849 183.363 201.672 185.54 201.672 188.225V221.125C201.672 223.81 203.849 225.987 206.534 225.987H239.434C242.119 225.987 244.296 223.81 244.296 221.125V188.225C244.296 185.54 242.119 183.363 239.434 183.363Z" fill="#12203D"></path><path d="M236.118 194.012L227.02 212.547L213.88 206.82L202.205 223.33C202.611 224.131 203.231 224.804 203.997 225.274C204.762 225.745 205.642 225.994 206.541 225.994H239.434C240.073 225.994 240.705 225.868 241.295 225.624C241.885 225.379 242.421 225.021 242.872 224.57C243.324 224.118 243.682 223.582 243.926 222.992C244.171 222.403 244.296 221.77 244.296 221.132V198.395L236.118 194.012Z" fill="#C4C4C4"></path><path d="M218.059 198.87C220.363 196.189 220.058 192.149 217.377 189.844C214.697 187.54 210.656 187.846 208.352 190.526C206.048 193.207 206.353 197.248 209.033 199.552C211.714 201.856 215.755 201.551 218.059 198.87Z" fill="#C4C4C4"></path><path d="M191.383 257.775H179.842C178.003 257.775 176.512 259.266 176.512 261.105V272.647C176.512 274.486 178.003 275.977 179.842 275.977H191.383C193.223 275.977 194.713 274.486 194.713 272.647V261.105C194.713 259.266 193.223 257.775 191.383 257.775Z" fill="#12203D" stroke="#D4D4D4" stroke-miterlimit="10"></path><path d="M215.366 257.775H203.824C201.985 257.775 200.494 259.266 200.494 261.105V272.647C200.494 274.486 201.985 275.977 203.824 275.977H215.366C217.205 275.977 218.696 274.486 218.696 272.647V261.105C218.696 259.266 217.205 257.775 215.366 257.775Z" fill="#12203D" stroke="#D4D4D4" stroke-miterlimit="10"></path><path d="M239.354 257.775H227.812C225.973 257.775 224.482 259.266 224.482 261.105V272.647C224.482 274.486 225.973 275.977 227.812 275.977H239.354C241.193 275.977 242.684 274.486 242.684 272.647V261.105C242.684 259.266 241.193 257.775 239.354 257.775Z" fill="#12203D" stroke="#D4D4D4" stroke-miterlimit="10"></path><path d="M167.399 257.775H155.857C154.018 257.775 152.527 259.266 152.527 261.105V272.647C152.527 274.486 154.018 275.977 155.857 275.977H167.399C169.238 275.977 170.729 274.486 170.729 272.647V261.105C170.729 259.266 169.238 257.775 167.399 257.775Z" fill="#12203D" stroke="#D4D4D4" stroke-miterlimit="10"></path><path d="M240.966 72.594H229.424C227.585 72.594 226.094 74.0849 226.094 75.924V87.4658C226.094 89.3049 227.585 90.7958 229.424 90.7958H240.966C242.805 90.7958 244.296 89.3049 244.296 87.4658V75.924C244.296 74.0849 242.805 72.594 240.966 72.594Z" fill="#12203D"></path><path d="M240.966 97.0162H229.424C227.585 97.0162 226.094 98.5071 226.094 100.346V111.888C226.094 113.727 227.585 115.218 229.424 115.218H240.966C242.805 115.218 244.296 113.727 244.296 111.888V100.346C244.296 98.5071 242.805 97.0162 240.966 97.0162Z" fill="#12203D"></path><path d="M216.983 97.0162H205.441C203.602 97.0162 202.111 98.5071 202.111 100.346V111.888C202.111 113.727 203.602 115.218 205.441 115.218H216.983C218.822 115.218 220.313 113.727 220.313 111.888V100.346C220.313 98.5071 218.822 97.0162 216.983 97.0162Z" fill="#12203D"></path><path d="M216.983 72.594H205.441C203.602 72.594 202.111 74.0849 202.111 75.924V87.4658C202.111 89.3049 203.602 90.7958 205.441 90.7958H216.983C218.822 90.7958 220.313 89.3049 220.313 87.4658V75.924C220.313 74.0849 218.822 72.594 216.983 72.594Z" fill="#D4D4D4"></path><path d="M214.872 75.924H207.553C206.387 75.924 205.441 76.8692 205.441 78.0352V85.3546C205.441 86.5206 206.387 87.4658 207.553 87.4658H214.872C216.038 87.4658 216.983 86.5206 216.983 85.3546V78.0352C216.983 76.8692 216.038 75.924 214.872 75.924Z" stroke="white" stroke-miterlimit="10"></path><path d="M211.209 85.0282C213.048 85.0282 214.539 83.5373 214.539 81.6982C214.539 79.8591 213.048 78.3682 211.209 78.3682C209.37 78.3682 207.879 79.8591 207.879 81.6982C207.879 83.5373 209.37 85.0282 211.209 85.0282Z" stroke="white" stroke-miterlimit="10"></path><path d="M212.514 236.224H182.425C179.478 236.224 177.09 238.61 177.09 241.555C177.09 244.499 179.478 246.886 182.425 246.886H212.514C215.461 246.886 217.849 244.499 217.849 241.555C217.849 238.61 215.461 236.224 212.514 236.224Z" fill="#12203D" stroke="#D4D4D4" stroke-miterlimit="10"></path><path d="M184.709 241.558C184.71 241.331 184.644 241.109 184.519 240.92C184.394 240.731 184.216 240.583 184.006 240.495C183.797 240.407 183.567 240.384 183.344 240.427C183.121 240.471 182.917 240.579 182.756 240.739C182.595 240.899 182.485 241.103 182.44 241.326C182.396 241.548 182.418 241.779 182.505 241.988C182.591 242.198 182.738 242.377 182.926 242.504C183.115 242.63 183.337 242.697 183.563 242.697C183.866 242.697 184.156 242.577 184.371 242.364C184.586 242.151 184.707 241.861 184.709 241.558Z" fill="#12203D"></path><path d="M191.949 241.558C191.951 241.331 191.884 241.109 191.759 240.92C191.634 240.731 191.456 240.583 191.247 240.495C191.038 240.407 190.807 240.384 190.584 240.427C190.362 240.471 190.157 240.579 189.996 240.739C189.835 240.899 189.725 241.103 189.681 241.326C189.636 241.548 189.658 241.779 189.745 241.988C189.831 242.198 189.978 242.377 190.167 242.504C190.355 242.63 190.577 242.697 190.804 242.697C191.106 242.697 191.397 242.577 191.611 242.364C191.826 242.151 191.947 241.861 191.949 241.558Z" fill="#12203D"></path><path d="M199.182 241.558C199.183 241.331 199.117 241.109 198.991 240.919C198.866 240.73 198.687 240.582 198.478 240.495C198.268 240.407 198.037 240.384 197.814 240.428C197.591 240.472 197.387 240.581 197.226 240.742C197.066 240.902 196.956 241.107 196.912 241.33C196.868 241.553 196.892 241.783 196.979 241.993C197.067 242.203 197.214 242.381 197.404 242.507C197.593 242.632 197.816 242.698 198.043 242.697C198.344 242.695 198.633 242.575 198.846 242.362C199.059 242.148 199.18 241.86 199.182 241.558Z" fill="#12203D"></path><path d="M206.42 241.558C206.421 241.331 206.355 241.109 206.23 240.92C206.105 240.731 205.927 240.583 205.717 240.495C205.508 240.407 205.278 240.384 205.055 240.427C204.832 240.471 204.628 240.579 204.467 240.739C204.306 240.899 204.196 241.103 204.151 241.326C204.107 241.548 204.129 241.779 204.215 241.988C204.302 242.198 204.449 242.377 204.637 242.504C204.826 242.63 205.048 242.697 205.274 242.697C205.577 242.697 205.867 242.577 206.082 242.364C206.297 242.151 206.418 241.861 206.42 241.558Z" fill="#12203D"></path><path d="M213.66 241.558C213.661 241.331 213.595 241.109 213.47 240.92C213.345 240.731 213.167 240.583 212.958 240.495C212.748 240.407 212.518 240.384 212.295 240.427C212.073 240.471 211.868 240.579 211.707 240.739C211.546 240.899 211.436 241.103 211.392 241.326C211.347 241.548 211.369 241.779 211.456 241.988C211.542 242.198 211.689 242.377 211.878 242.504C212.066 242.63 212.288 242.697 212.515 242.697C212.817 242.697 213.108 242.577 213.322 242.364C213.537 242.151 213.658 241.861 213.66 241.558Z" fill="#12203D"></path><path d="M122.404 51.9081H41.1252C35.0047 51.9081 30.043 56.8697 30.043 62.9903V273.473C30.043 279.593 35.0047 284.555 41.1252 284.555H122.404C128.524 284.555 133.486 279.593 133.486 273.473V62.9903C133.486 56.8697 128.524 51.9081 122.404 51.9081Z" fill="#D68029"></path><path opacity="0.8" d="M123.95 253.406H39.5874C35.6774 253.406 32.5078 256.576 32.5078 260.486V273.42C32.5078 277.33 35.6774 280.499 39.5874 280.499H123.95C127.86 280.499 131.029 277.33 131.029 273.42V260.486C131.029 256.576 127.86 253.406 123.95 253.406Z" fill="white"></path><path d="M121.012 72.594H88.1118C85.4267 72.594 83.25 74.7707 83.25 77.4558V110.356C83.25 113.041 85.4267 115.218 88.1118 115.218H121.012C123.697 115.218 125.874 113.041 125.874 110.356V77.4558C125.874 74.7707 123.697 72.594 121.012 72.594Z" fill="#263238"></path><path d="M104.562 111.222C114.125 111.222 121.878 103.469 121.878 93.906C121.878 84.3426 114.125 76.59 104.562 76.59C94.9987 76.59 87.2461 84.3426 87.2461 93.906C87.2461 103.469 94.9987 111.222 104.562 111.222Z" fill="#666666"></path><path d="M104.562 95.8641C105.643 95.8641 106.52 94.9874 106.52 93.906C106.52 92.8246 105.643 91.948 104.562 91.948C103.48 91.948 102.604 92.8246 102.604 93.906C102.604 94.9874 103.48 95.8641 104.562 95.8641Z" fill="white"></path><path d="M103.675 94.7585L99.166 100.959" stroke="white" stroke-miterlimit="10"></path><path d="M104.8 94.7585L98.3203 82.3709" stroke="white" stroke-miterlimit="10"></path><path d="M74.1511 72.594H62.6093C60.7702 72.594 59.2793 74.0849 59.2793 75.924V87.4658C59.2793 89.3049 60.7702 90.7958 62.6093 90.7958H74.1511C75.9902 90.7958 77.4811 89.3049 77.4811 87.4658V75.924C77.4811 74.0849 75.9902 72.594 74.1511 72.594Z" fill="#263238"></path><path d="M74.1511 97.0162H62.6093C60.7702 97.0162 59.2793 98.5071 59.2793 100.346V111.888C59.2793 113.727 60.7702 115.218 62.6093 115.218H74.1511C75.9902 115.218 77.4811 113.727 77.4811 111.888V100.346C77.4811 98.5071 75.9902 97.0162 74.1511 97.0162Z" fill="#263238"></path><path d="M50.1687 97.0162H38.6269C36.7878 97.0162 35.2969 98.5071 35.2969 100.346V111.888C35.2969 113.727 36.7878 115.218 38.6269 115.218H50.1687C52.0078 115.218 53.4987 113.727 53.4987 111.888V100.346C53.4987 98.5071 52.0078 97.0162 50.1687 97.0162Z" fill="#263238"></path><path d="M74.1511 178.168H62.6093C60.7702 178.168 59.2793 179.659 59.2793 181.498V193.04C59.2793 194.879 60.7702 196.37 62.6093 196.37H74.1511C75.9902 196.37 77.4811 194.879 77.4811 193.04V181.498C77.4811 179.659 75.9902 178.168 74.1511 178.168Z" fill="#263238"></path><path d="M98.1413 178.168H86.5995C84.7604 178.168 83.2695 179.659 83.2695 181.498V193.04C83.2695 194.879 84.7604 196.37 86.5995 196.37H98.1413C99.9804 196.37 101.471 194.879 101.471 193.04V181.498C101.471 179.659 99.9804 178.168 98.1413 178.168Z" fill="#263238"></path><path d="M122.124 178.168H110.582C108.743 178.168 107.252 179.659 107.252 181.498V193.04C107.252 194.879 108.743 196.37 110.582 196.37H122.124C123.963 196.37 125.454 194.879 125.454 193.04V181.498C125.454 179.659 123.963 178.168 122.124 178.168Z" fill="#263238"></path><path d="M50.1687 178.168H38.6269C36.7878 178.168 35.2969 179.659 35.2969 181.498V193.04C35.2969 194.879 36.7878 196.37 38.6269 196.37H50.1687C52.0078 196.37 53.4987 194.879 53.4987 193.04V181.498C53.4987 179.659 52.0078 178.168 50.1687 178.168Z" fill="#263238"></path><path d="M38.9745 178.921C38.9745 178.526 38.8573 178.139 38.6378 177.811C38.4182 177.482 38.1062 177.226 37.7411 177.075C37.376 176.924 36.9743 176.884 36.5867 176.961C36.1992 177.038 35.8431 177.229 35.5637 177.508C35.2843 177.788 35.094 178.144 35.0169 178.531C34.9398 178.919 34.9794 179.32 35.1306 179.686C35.2818 180.051 35.5379 180.363 35.8665 180.582C36.1951 180.802 36.5813 180.919 36.9765 180.919C37.5064 180.919 38.0146 180.708 38.3893 180.334C38.764 179.959 38.9745 179.451 38.9745 178.921Z" fill="white" stroke="#263238" stroke-miterlimit="10"></path><path d="M63.5761 178.921C63.5761 178.526 63.4589 178.139 63.2394 177.811C63.0198 177.482 62.7078 177.226 62.3427 177.075C61.9776 176.924 61.5759 176.884 61.1883 176.961C60.8007 177.038 60.4447 177.229 60.1653 177.508C59.8859 177.788 59.6956 178.144 59.6185 178.531C59.5414 178.919 59.5809 179.32 59.7322 179.686C59.8834 180.051 60.1395 180.363 60.468 180.582C60.7966 180.802 61.1829 180.919 61.5781 180.919C62.108 180.919 62.6162 180.708 62.9909 180.334C63.3656 179.959 63.5761 179.451 63.5761 178.921Z" fill="white" stroke="#263238" stroke-miterlimit="10"></path><path d="M87.5058 178.921C87.5058 178.526 87.3886 178.139 87.169 177.811C86.9495 177.482 86.6375 177.226 86.2724 177.075C85.9073 176.924 85.5055 176.884 85.118 176.961C84.7304 177.038 84.3744 177.229 84.095 177.508C83.8155 177.788 83.6253 178.144 83.5482 178.531C83.4711 178.919 83.5106 179.32 83.6619 179.686C83.8131 180.051 84.0692 180.363 84.3977 180.582C84.7263 180.802 85.1126 180.919 85.5078 180.919C86.0377 180.919 86.5459 180.708 86.9206 180.334C87.2953 179.959 87.5058 179.451 87.5058 178.921Z" fill="white" stroke="#263238" stroke-miterlimit="10"></path><path d="M111.961 178.921C111.961 178.526 111.844 178.139 111.624 177.811C111.405 177.482 111.093 177.226 110.727 177.075C110.362 176.924 109.961 176.884 109.573 176.961C109.185 177.038 108.829 177.229 108.55 177.508C108.271 177.788 108.08 178.144 108.003 178.531C107.926 178.919 107.966 179.32 108.117 179.686C108.268 180.051 108.524 180.363 108.853 180.582C109.181 180.802 109.568 180.919 109.963 180.919C110.493 180.919 111.001 180.708 111.376 180.334C111.75 179.959 111.961 179.451 111.961 178.921Z" fill="white" stroke="#263238" stroke-miterlimit="10"></path><path d="M74.1511 257.775H62.6093C60.7702 257.775 59.2793 259.266 59.2793 261.105V272.647C59.2793 274.486 60.7702 275.977 62.6093 275.977H74.1511C75.9902 275.977 77.4811 274.486 77.4811 272.647V261.105C77.4811 259.266 75.9902 257.775 74.1511 257.775Z" stroke="#263238" stroke-miterlimit="10"></path><path d="M98.1413 257.775H86.5995C84.7604 257.775 83.2695 259.266 83.2695 261.105V272.647C83.2695 274.486 84.7604 275.977 86.5995 275.977H98.1413C99.9804 275.977 101.471 274.486 101.471 272.647V261.105C101.471 259.266 99.9804 257.775 98.1413 257.775Z" stroke="#263238" stroke-miterlimit="10"></path><path d="M122.124 257.775H110.582C108.743 257.775 107.252 259.266 107.252 261.105V272.647C107.252 274.486 108.743 275.977 110.582 275.977H122.124C123.963 275.977 125.454 274.486 125.454 272.647V261.105C125.454 259.266 123.963 257.775 122.124 257.775Z" stroke="#263238" stroke-miterlimit="10"></path><path d="M50.1687 257.775H38.6269C36.7878 257.775 35.2969 259.266 35.2969 261.105V272.647C35.2969 274.486 36.7878 275.977 38.6269 275.977H50.1687C52.0078 275.977 53.4987 274.486 53.4987 272.647V261.105C53.4987 259.266 52.0078 257.775 50.1687 257.775Z" stroke="#263238" stroke-miterlimit="10"></path><path d="M38.9745 258.075C38.9745 257.68 38.8573 257.294 38.6378 256.965C38.4182 256.636 38.1062 256.38 37.7411 256.229C37.376 256.078 36.9743 256.038 36.5867 256.115C36.1992 256.193 35.8431 256.383 35.5637 256.662C35.2843 256.942 35.094 257.298 35.0169 257.685C34.9398 258.073 34.9794 258.475 35.1306 258.84C35.2818 259.205 35.5379 259.517 35.8665 259.736C36.1951 259.956 36.5813 260.073 36.9765 260.073C37.5064 260.073 38.0146 259.863 38.3893 259.488C38.764 259.113 38.9745 258.605 38.9745 258.075Z" fill="white" stroke="#263238" stroke-miterlimit="10"></path><path d="M63.5761 258.075C63.5761 257.68 63.4589 257.294 63.2394 256.965C63.0198 256.636 62.7078 256.38 62.3427 256.229C61.9776 256.078 61.5759 256.038 61.1883 256.115C60.8007 256.193 60.4447 256.383 60.1653 256.662C59.8859 256.942 59.6956 257.298 59.6185 257.685C59.5414 258.073 59.5809 258.475 59.7322 258.84C59.8834 259.205 60.1395 259.517 60.468 259.736C60.7966 259.956 61.1829 260.073 61.5781 260.073C62.108 260.073 62.6162 259.863 62.9909 259.488C63.3656 259.113 63.5761 258.605 63.5761 258.075Z" fill="white" stroke="#263238" stroke-miterlimit="10"></path><path d="M87.5058 258.075C87.5058 257.68 87.3886 257.294 87.169 256.965C86.9495 256.636 86.6375 256.38 86.2724 256.229C85.9073 256.078 85.5055 256.038 85.118 256.115C84.7304 256.193 84.3744 256.383 84.095 256.662C83.8155 256.942 83.6253 257.298 83.5482 257.685C83.4711 258.073 83.5106 258.475 83.6619 258.84C83.8131 259.205 84.0692 259.517 84.3977 259.736C84.7263 259.956 85.1126 260.073 85.5078 260.073C86.0377 260.073 86.5459 259.863 86.9206 259.488C87.2953 259.113 87.5058 258.605 87.5058 258.075Z" fill="white" stroke="#263238" stroke-miterlimit="10"></path><path d="M111.961 258.075C111.961 257.68 111.844 257.294 111.624 256.965C111.405 256.636 111.093 256.38 110.727 256.229C110.362 256.078 109.961 256.038 109.573 256.115C109.185 256.193 108.829 256.383 108.55 256.662C108.271 256.942 108.08 257.298 108.003 257.685C107.926 258.073 107.966 258.475 108.117 258.84C108.268 259.205 108.524 259.517 108.853 259.736C109.181 259.956 109.568 260.073 109.963 260.073C110.493 260.073 111.001 259.863 111.376 259.488C111.75 259.113 111.961 258.605 111.961 258.075Z" fill="white" stroke="#263238" stroke-miterlimit="10"></path><path d="M74.1511 208.225H62.6093C60.7702 208.225 59.2793 209.716 59.2793 211.555V223.097C59.2793 224.936 60.7702 226.427 62.6093 226.427H74.1511C75.9902 226.427 77.4811 224.936 77.4811 223.097V211.555C77.4811 209.716 75.9902 208.225 74.1511 208.225Z" fill="#263238"></path><path d="M98.1413 208.225H86.5995C84.7604 208.225 83.2695 209.716 83.2695 211.555V223.097C83.2695 224.936 84.7604 226.427 86.5995 226.427H98.1413C99.9804 226.427 101.471 224.936 101.471 223.097V211.555C101.471 209.716 99.9804 208.225 98.1413 208.225Z" fill="#263238"></path><path d="M122.124 208.225H110.582C108.743 208.225 107.252 209.716 107.252 211.555V223.097C107.252 224.936 108.743 226.427 110.582 226.427H122.124C123.963 226.427 125.454 224.936 125.454 223.097V211.555C125.454 209.716 123.963 208.225 122.124 208.225Z" fill="#263238"></path><path d="M50.1687 208.225H38.6269C36.7878 208.225 35.2969 209.716 35.2969 211.555V223.097C35.2969 224.936 36.7878 226.427 38.6269 226.427H50.1687C52.0078 226.427 53.4987 224.936 53.4987 223.097V211.555C53.4987 209.716 52.0078 208.225 50.1687 208.225Z" fill="#263238"></path><path d="M38.9745 209.79C38.9745 209.395 38.8573 209.009 38.6378 208.68C38.4182 208.351 38.1062 208.095 37.7411 207.944C37.376 207.793 36.9743 207.753 36.5867 207.83C36.1992 207.907 35.8431 208.098 35.5637 208.377C35.2843 208.657 35.094 209.013 35.0169 209.4C34.9398 209.788 34.9794 210.189 35.1306 210.555C35.2818 210.92 35.5379 211.232 35.8665 211.451C36.1951 211.671 36.5813 211.788 36.9765 211.788C37.5064 211.788 38.0146 211.577 38.3893 211.203C38.764 210.828 38.9745 210.32 38.9745 209.79Z" fill="white" stroke="#263238" stroke-miterlimit="10"></path><path d="M63.5761 209.79C63.5761 209.395 63.4589 209.009 63.2394 208.68C63.0198 208.351 62.7078 208.095 62.3427 207.944C61.9776 207.793 61.5759 207.753 61.1883 207.83C60.8007 207.907 60.4447 208.098 60.1653 208.377C59.8859 208.657 59.6956 209.013 59.6185 209.4C59.5414 209.788 59.5809 210.189 59.7322 210.555C59.8834 210.92 60.1395 211.232 60.468 211.451C60.7966 211.671 61.1829 211.788 61.5781 211.788C62.108 211.788 62.6162 211.577 62.9909 211.203C63.3656 210.828 63.5761 210.32 63.5761 209.79Z" fill="white" stroke="#263238" stroke-miterlimit="10"></path><path d="M87.5058 209.79C87.5058 209.395 87.3886 209.009 87.169 208.68C86.9495 208.351 86.6375 208.095 86.2724 207.944C85.9073 207.793 85.5055 207.753 85.118 207.83C84.7304 207.907 84.3744 208.098 84.095 208.377C83.8155 208.657 83.6253 209.013 83.5482 209.4C83.4711 209.788 83.5106 210.189 83.6619 210.555C83.8131 210.92 84.0692 211.232 84.3977 211.451C84.7263 211.671 85.1126 211.788 85.5078 211.788C86.0377 211.788 86.5459 211.577 86.9206 211.203C87.2953 210.828 87.5058 210.32 87.5058 209.79Z" fill="white" stroke="#263238" stroke-miterlimit="10"></path><path d="M111.961 209.79C111.961 209.395 111.844 209.009 111.624 208.68C111.405 208.351 111.093 208.095 110.727 207.944C110.362 207.793 109.961 207.753 109.573 207.83C109.185 207.907 108.829 208.098 108.55 208.377C108.271 208.657 108.08 209.013 108.003 209.4C107.926 209.788 107.966 210.189 108.117 210.555C108.268 210.92 108.524 211.232 108.853 211.451C109.181 211.671 109.568 211.788 109.963 211.788C110.493 211.788 111.001 211.577 111.376 211.203C111.75 210.828 111.961 210.32 111.961 209.79Z" fill="white" stroke="#263238" stroke-miterlimit="10"></path><path d="M50.1687 72.594H38.6269C36.7878 72.594 35.2969 74.0849 35.2969 75.924V87.4658C35.2969 89.3049 36.7878 90.7958 38.6269 90.7958H50.1687C52.0078 90.7958 53.4987 89.3049 53.4987 87.4658V75.924C53.4987 74.0849 52.0078 72.594 50.1687 72.594Z" fill="#263238"></path><path d="M38.9745 97.9819C38.9745 97.5867 38.8573 97.2005 38.6378 96.8719C38.4182 96.5433 38.1062 96.2872 37.7411 96.136C37.376 95.9848 36.9743 95.9452 36.5867 96.0223C36.1992 96.0994 35.8431 96.2897 35.5637 96.5691C35.2843 96.8485 35.094 97.2046 35.0169 97.5921C34.9398 97.9797 34.9794 98.3814 35.1306 98.7465C35.2818 99.1116 35.5379 99.4237 35.8665 99.6432C36.1951 99.8627 36.5813 99.9799 36.9765 99.9799C37.5064 99.9799 38.0146 99.7694 38.3893 99.3947C38.764 99.02 38.9745 98.5118 38.9745 97.9819Z" fill="white" stroke="#263238" stroke-miterlimit="10"></path><path d="M61.5921 99.9666C62.6882 99.9666 63.5768 99.078 63.5768 97.9819C63.5768 96.8858 62.6882 95.9972 61.5921 95.9972C60.496 95.9972 59.6074 96.8858 59.6074 97.9819C59.6074 99.078 60.496 99.9666 61.5921 99.9666Z" fill="white" stroke="#263238" stroke-miterlimit="10"></path><path d="M38.9745 73.4465C38.9745 73.0513 38.8573 72.665 38.6378 72.3365C38.4182 72.0079 38.1062 71.7518 37.7411 71.6006C37.376 71.4494 36.9743 71.4098 36.5867 71.4869C36.1992 71.564 35.8431 71.7543 35.5637 72.0337C35.2843 72.3131 35.094 72.6691 35.0169 73.0567C34.9398 73.4443 34.9794 73.846 35.1306 74.2111C35.2818 74.5762 35.5379 74.8882 35.8665 75.1078C36.1951 75.3273 36.5813 75.4445 36.9765 75.4445C37.5064 75.4445 38.0146 75.234 38.3893 74.8593C38.764 74.4846 38.9745 73.9764 38.9745 73.4465Z" fill="white" stroke="#263238" stroke-miterlimit="10"></path><path d="M61.5921 75.4312C62.6882 75.4312 63.5768 74.5426 63.5768 73.4465C63.5768 72.3504 62.6882 71.4618 61.5921 71.4618C60.496 71.4618 59.6074 72.3504 59.6074 73.4465C59.6074 74.5426 60.496 75.4312 61.5921 75.4312Z" fill="white" stroke="#263238" stroke-miterlimit="10"></path><path d="M48.0575 75.924H40.7382C39.5722 75.924 38.627 76.8692 38.627 78.0352V85.3546C38.627 86.5206 39.5722 87.4658 40.7382 87.4658H48.0575C49.2235 87.4658 50.1687 86.5206 50.1687 85.3546V78.0352C50.1687 76.8692 49.2235 75.924 48.0575 75.924Z" stroke="white" stroke-miterlimit="10"></path><path d="M44.4023 85.0282C46.2414 85.0282 47.7323 83.5373 47.7323 81.6982C47.7323 79.8591 46.2414 78.3682 44.4023 78.3682C42.5632 78.3682 41.0723 79.8591 41.0723 81.6982C41.0723 83.5373 42.5632 85.0282 44.4023 85.0282Z" stroke="white" stroke-miterlimit="10"></path><path d="M119.694 123.383H41.0461C37.8644 123.383 35.2852 125.962 35.2852 129.144V163.21C35.2852 166.392 37.8644 168.971 41.0461 168.971H119.694C122.876 168.971 125.455 166.392 125.455 163.21V129.144C125.455 125.962 122.876 123.383 119.694 123.383Z" fill="#263238"></path><path d="M46.0261 133.739V134.119H44.5476V133.66C44.5476 132.407 44.0681 131.662 42.9559 131.662C41.8436 131.662 41.3575 132.401 41.3575 133.66C41.3575 136.796 46.0195 137.096 46.0195 141.025C46.0195 143.137 45.0005 144.515 42.8693 144.515C40.7381 144.515 39.7324 143.137 39.7324 141.025V140.226H41.191V141.105C41.191 142.357 41.7104 143.103 42.8293 143.103C43.9482 143.103 44.461 142.364 44.461 141.105C44.461 137.989 39.799 137.695 39.799 133.779C39.799 131.628 40.798 130.29 42.8959 130.29C44.9938 130.29 46.0261 131.628 46.0261 133.739Z" fill="white"></path><path d="M48.9772 141.545L48.4378 144.356H47.0059L49.6699 130.37H51.9476L54.6116 144.356H53.0465L52.507 141.545H48.9772ZM49.177 140.213H52.2872L50.7155 132.154L49.177 140.213Z" fill="white"></path><path d="M57.0766 144.355V131.808H54.5059V130.389H61.1659V131.808H58.6084V144.355H57.0766Z" fill="white"></path><path d="M49.6308 152.594C49.6308 156.803 44.9022 158.315 44.8822 161.532V161.751H49.4709V163.17H43.3438V161.971C43.3438 157.469 48.0723 156.59 48.0723 152.647C48.0723 151.209 47.5928 150.449 46.434 150.449C45.2751 150.449 44.8023 151.269 44.8023 152.507V153.739H43.3438V152.607C43.3438 150.469 44.3228 149.057 46.4739 149.057C48.6251 149.057 49.6308 150.456 49.6308 152.594Z" fill="white"></path><path d="M57.4697 152.514V152.954C57.4697 154.365 56.9701 155.404 55.8713 155.824C57.0301 156.284 57.4697 157.382 57.4697 158.774V159.84C57.4697 161.991 56.3508 163.33 54.1397 163.33C51.9285 163.33 50.8496 161.998 50.8496 159.84V158.774C50.8496 157.362 51.2892 156.304 52.468 155.824C51.3291 155.384 50.8496 154.365 50.8496 152.954V152.514C50.8496 150.356 51.9885 149.064 54.1397 149.064C56.2908 149.064 57.4697 150.356 57.4697 152.514ZM52.4214 152.554V153.22C52.4214 154.552 53.0874 155.171 54.1729 155.171C55.2585 155.171 55.9312 154.572 55.9312 153.22V152.554C55.9312 151.115 55.2652 150.456 54.1729 150.456C53.0807 150.456 52.4214 151.115 52.4214 152.554ZM52.4214 158.595V159.773C52.4214 161.212 53.0874 161.891 54.1729 161.891C55.2585 161.891 55.9112 161.225 55.9312 159.773V158.595C55.9312 157.263 55.3318 156.597 54.1729 156.597C53.0141 156.597 52.4214 157.243 52.4214 158.595Z" fill="white"></path><path d="M91.3887 132.907H118.941" stroke="#858585" stroke-miterlimit="10"></path><path d="M74.9438 140.459H71.8535V143.55H74.9438V140.459Z" fill="#858585"></path><path d="M82.2777 140.459H79.1875V143.55H82.2777V140.459Z" fill="#858585"></path><path d="M89.6098 140.459H86.5195V143.55H89.6098V140.459Z" fill="#858585"></path><path d="M96.9418 140.459H93.8516V143.55H96.9418V140.459Z" fill="#858585"></path><path d="M104.282 140.459H101.191V143.55H104.282V140.459Z" fill="#858585"></path><path d="M111.614 140.459H108.523V143.55H111.614V140.459Z" fill="#858585"></path><path d="M118.948 140.459H115.857V143.55H118.948V140.459Z" fill="#858585"></path><path d="M74.9438 148.891H71.8535V151.981H74.9438V148.891Z" fill="#858585"></path><path d="M82.2777 148.891H79.1875V151.981H82.2777V148.891Z" fill="white"></path><path d="M89.6098 148.891H86.5195V151.981H89.6098V148.891Z" fill="#858585"></path><path d="M96.9418 148.891H93.8516V151.981H96.9418V148.891Z" fill="#858585"></path><path d="M104.282 148.891H101.191V151.981H104.282V148.891Z" fill="#858585"></path><path d="M111.614 148.891H108.523V151.981H111.614V148.891Z" fill="#858585"></path><path d="M118.948 148.891H115.857V151.981H118.948V148.891Z" fill="#858585"></path><path d="M74.9438 157.329H71.8535V160.419H74.9438V157.329Z" fill="#858585"></path><path d="M82.2777 157.329H79.1875V160.419H82.2777V157.329Z" fill="#858585"></path><path d="M89.6098 157.329H86.5195V160.419H89.6098V157.329Z" fill="#858585"></path><path d="M96.9418 157.329H93.8516V160.419H96.9418V157.329Z" fill="#858585"></path><path d="M104.282 157.329H101.191V160.419H104.282V157.329Z" fill="#858585"></path><path d="M111.614 157.329H108.523V160.419H111.614V157.329Z" fill="#858585"></path><path d="M118.948 157.329H115.857V160.419H118.948V157.329Z" fill="#858585"></path><path opacity="0.8" d="M95.2839 236.224H65.194C62.2478 236.224 59.8594 238.61 59.8594 241.555C59.8594 244.499 62.2478 246.886 65.194 246.886H95.2839C98.2302 246.886 100.619 244.499 100.619 241.555C100.619 238.61 98.2302 236.224 95.2839 236.224Z" fill="white"></path><path d="M67.4785 241.558C67.4798 241.331 67.4136 241.109 67.2882 240.919C67.1629 240.73 66.984 240.582 66.7745 240.494C66.5649 240.407 66.334 240.384 66.1112 240.428C65.8883 240.472 65.6836 240.581 65.523 240.742C65.3624 240.902 65.2532 241.107 65.2092 241.33C65.1652 241.553 65.1884 241.783 65.276 241.993C65.3635 242.203 65.5114 242.381 65.7008 242.507C65.8901 242.632 66.1125 242.698 66.3397 242.697C66.6412 242.695 66.9298 242.575 67.143 242.362C67.3562 242.148 67.4768 241.86 67.4785 241.558Z" fill="#D68029"></path><path d="M74.7188 241.558C74.7201 241.331 74.654 241.109 74.5289 240.92C74.4039 240.731 74.2254 240.583 74.0162 240.495C73.807 240.407 73.5765 240.384 73.3539 240.427C73.1312 240.471 72.9265 240.579 72.7656 240.739C72.6047 240.899 72.495 241.103 72.4502 241.326C72.4055 241.548 72.4278 241.779 72.5143 241.988C72.6008 242.198 72.7476 242.377 72.9361 242.504C73.1247 242.63 73.3464 242.697 73.5732 242.697C73.8759 242.697 74.1663 242.577 74.3809 242.364C74.5955 242.151 74.717 241.861 74.7188 241.558Z" fill="#666666"></path><path d="M81.9512 241.558C81.9525 241.331 81.8863 241.109 81.7609 240.919C81.6355 240.73 81.4567 240.582 81.2471 240.494C81.0375 240.407 80.8067 240.384 80.5838 240.428C80.361 240.472 80.1563 240.581 79.9957 240.742C79.8351 240.902 79.7258 241.107 79.6818 241.33C79.6379 241.553 79.6611 241.783 79.7486 241.993C79.8362 242.203 79.984 242.381 80.1734 242.507C80.3628 242.632 80.5852 242.698 80.8123 242.697C81.1144 242.697 81.404 242.577 81.6176 242.363C81.8312 242.15 81.9512 241.86 81.9512 241.558Z" fill="#666666"></path><path d="M89.1895 241.558C89.1908 241.331 89.1245 241.109 88.9992 240.919C88.8738 240.73 88.695 240.582 88.4854 240.494C88.2758 240.407 88.0449 240.384 87.8221 240.428C87.5993 240.472 87.3946 240.581 87.234 240.742C87.0734 240.902 86.9641 241.107 86.9201 241.33C86.8761 241.553 86.8994 241.783 86.9869 241.993C87.0744 242.203 87.2223 242.381 87.4117 242.507C87.6011 242.632 87.8235 242.698 88.0506 242.697C88.3521 242.695 88.6408 242.575 88.854 242.362C89.0672 242.148 89.1877 241.86 89.1895 241.558Z" fill="#666666"></path><path d="M96.4297 241.558C96.431 241.331 96.365 241.109 96.2399 240.92C96.1148 240.731 95.9364 240.583 95.7272 240.495C95.518 240.407 95.2874 240.384 95.0648 240.427C94.8422 240.471 94.6374 240.579 94.4766 240.739C94.3157 240.899 94.2059 241.103 94.1612 241.326C94.1164 241.548 94.1387 241.779 94.2252 241.988C94.3117 242.198 94.4585 242.377 94.6471 242.504C94.8356 242.63 95.0573 242.697 95.2842 242.697C95.5868 242.697 95.8772 242.577 96.0918 242.364C96.3065 242.151 96.4279 241.861 96.4297 241.558Z" fill="#666666"></path><path d="M127.332 46.62H36.2033C33.2641 46.62 30.4453 47.7876 28.367 49.8659C26.2887 51.9442 25.1211 54.763 25.1211 57.7022V278.761C25.1211 281.7 26.2887 284.519 28.367 286.597C30.4453 288.676 33.2641 289.843 36.2033 289.843H127.332C130.271 289.843 133.09 288.676 135.168 286.597C137.247 284.519 138.414 281.7 138.414 278.761V57.7022C138.414 54.763 137.247 51.9442 135.168 49.8659C133.09 47.7876 130.271 46.62 127.332 46.62ZM133.493 273.473C133.493 276.412 132.325 279.231 130.247 281.309C128.168 283.388 125.35 284.555 122.41 284.555H41.1584C39.7025 284.556 38.2607 284.27 36.9153 283.713C35.57 283.157 34.3475 282.341 33.3177 281.312C32.288 280.282 31.471 279.06 30.9137 277.715C30.3563 276.37 30.0695 274.929 30.0695 273.473V63.0169C30.066 61.561 30.3494 60.1187 30.9035 58.7724C31.4576 57.426 32.2716 56.2021 33.2989 55.1704C34.3262 54.1388 35.5467 53.3197 36.8907 52.7599C38.2347 52.2001 39.6758 51.9107 41.1317 51.908H56.2499L57.189 56.277C57.4634 57.5529 58.1673 58.696 59.1831 59.5154C60.1988 60.3348 61.465 60.7809 62.7701 60.7792H103.23C104.535 60.7809 105.801 60.3348 106.817 59.5154C107.832 58.696 108.536 57.5529 108.811 56.277L109.75 51.908H122.404C125.343 51.908 128.162 53.0756 130.24 55.1539C132.318 57.2323 133.486 60.0511 133.486 62.9903L133.493 273.473Z" fill="#263238" stroke="#263238" stroke-width="1.6935" stroke-miterlimit="10"></path><path d="M243.257 115.218L239.428 114.052C239.428 114.052 237.43 118.548 237.263 119.547C237.097 120.546 243.257 115.218 243.257 115.218Z" fill="white" stroke="#263238" stroke-miterlimit="10"></path><path d="M237.097 115.218C237.097 115.218 234.1 116.383 234.1 117.049C234.1 117.715 235.265 121.545 235.765 121.545C236.264 121.545 237.097 115.218 237.097 115.218Z" fill="white" stroke="#263238" stroke-miterlimit="10"></path><path d="M240.092 115.071C240.092 115.071 236.596 114.072 236.263 114.738C235.93 115.404 235.93 120.732 235.93 120.732C236.688 120.657 237.424 120.43 238.094 120.066C238.76 119.567 240.092 115.071 240.092 115.071Z" fill="white" stroke="#263238" stroke-miterlimit="10"></path><path d="M256.077 130.889L248.917 124.542C248.917 124.542 246.919 118.714 246.087 116.716C245.254 114.718 244.422 114.385 243.922 114.552C243.423 114.718 239.427 118.215 237.928 119.047C236.43 119.88 234.099 121.545 234.099 121.545C234.099 121.545 233.433 122.211 235.264 122.211C237.096 122.211 240.259 120.213 240.259 120.213C240.259 120.213 241.591 123.709 242.757 124.875C243.595 125.616 244.641 126.081 245.754 126.207L253.746 137.196L256.077 130.889Z" fill="white" stroke="#263238" stroke-miterlimit="10"></path><path d="M248.918 124.542C248.918 124.542 248.085 120.546 247.419 119.38C246.753 118.215 243.59 118.215 241.259 117.715C238.928 117.216 238.428 118.048 238.928 118.714C239.427 119.38 243.923 120.712 243.923 120.712C243.923 120.712 244.089 125.208 244.922 126.04C245.754 126.873 247.586 127.039 247.586 127.039" fill="white"></path><path d="M248.918 124.542C248.918 124.542 248.085 120.546 247.419 119.38C246.753 118.215 243.59 118.215 241.259 117.715C238.928 117.216 238.428 118.048 238.928 118.714C239.427 119.38 243.923 120.712 243.923 120.712C243.923 120.712 244.089 125.208 244.922 126.04C245.754 126.873 247.586 127.039 247.586 127.039" stroke="#263238" stroke-miterlimit="10"></path><path d="M287.712 194.325C287.712 194.325 290.875 224.295 292.041 228.125C293.206 231.954 298.534 243.609 299.7 251.268C300.865 258.927 303.696 291.448 304.195 292.947C304.449 293.588 304.617 294.26 304.695 294.945L303.862 296.11C303.862 296.11 281.551 296.61 281.052 296.11C280.552 295.611 281.385 293.113 281.385 293.113C281.385 293.113 287.545 289.284 289.71 288.118C291.874 286.953 294.039 285.288 294.205 282.624C294.372 279.96 292.54 270.582 290.209 263.423C287.878 256.263 282.384 245.607 279.886 236.43C277.389 227.253 268.564 195.138 268.564 195.138L287.712 194.325Z" fill="white" stroke="#263238" stroke-miterlimit="10"></path><path d="M304.695 294.945C304.617 294.26 304.449 293.588 304.196 292.947C304.076 292.594 303.829 290.542 303.496 287.525C300.574 287.798 297.638 287.884 294.705 287.785L294.039 284.622H293.64C292.827 286.167 291.269 287.286 289.71 288.105C287.546 289.27 281.385 293.1 281.385 293.1C281.385 293.1 280.553 295.597 281.052 296.097C281.552 296.596 303.863 296.097 303.863 296.097L304.695 294.945Z" fill="#D68029" stroke="#263238" stroke-miterlimit="10"></path><path d="M281.052 296.11C281.552 296.61 303.863 296.11 303.863 296.11L304.695 294.945C304.686 294.792 304.664 294.641 304.629 294.492L280.966 294.772C280.866 295.351 280.846 295.904 281.052 296.11Z" fill="white" stroke="#263238" stroke-miterlimit="10"></path><path d="M258.74 197.136C258.74 197.136 260.571 208.125 262.07 213.952C263.568 219.78 266.732 232.6 266.732 232.6C266.732 232.6 267.065 246.919 267.398 252.414C267.731 257.908 269.396 272.893 269.729 274.725C270.062 276.556 269.895 282.717 269.895 282.717C267.664 285.004 265.077 286.915 262.236 288.378C256.242 291.575 252.08 293.206 251.247 293.706C250.415 294.205 251.58 295.87 252.413 296.203C253.245 296.536 277.388 296.203 277.388 296.203C277.388 296.203 279.053 296.037 278.72 292.041C278.387 288.045 279.386 269.896 279.386 267.232C279.386 264.568 283.382 247.752 282.216 238.594C281.051 229.437 280.551 227.605 280.551 227.605L280.052 196.803L258.24 195.804L258.74 197.136Z" fill="white" stroke="#263238" stroke-miterlimit="10"></path><path d="M270.562 287.399C270.519 286.529 270.292 285.678 269.896 284.901C269.23 283.569 268.731 283.902 268.731 283.902C266.763 285.655 264.592 287.164 262.264 288.398C256.27 291.595 252.107 293.226 251.275 293.726C250.442 294.225 251.608 295.89 252.44 296.223C253.273 296.556 277.415 296.223 277.415 296.223C277.415 296.223 279.08 296.057 278.747 292.061C278.667 291.122 278.667 289.397 278.701 287.286C275.995 287.532 273.274 287.57 270.562 287.399Z" fill="#D68029" stroke="#263238" stroke-miterlimit="10"></path><path d="M277.388 296.223C277.388 296.223 278.327 296.13 278.654 294.392H250.975C251.071 294.782 251.249 295.147 251.497 295.463C251.745 295.778 252.057 296.038 252.413 296.223C253.246 296.556 277.388 296.223 277.388 296.223Z" fill="white" stroke="#263238" stroke-miterlimit="10"></path><path d="M289.21 182.67L291.042 195.158L284.049 195.491L289.21 182.67Z" fill="#8C8C8C" stroke="#263238" stroke-miterlimit="10"></path><path d="M262.404 154.865C262.404 154.865 258.242 162.357 256.077 176.01C253.913 189.663 254.912 193.992 254.912 193.992C259.654 195.589 264.575 196.595 269.564 196.989C275.078 197.336 280.615 197.001 286.047 195.99C286.047 195.99 288.711 188.165 290.21 184.835C291.708 181.505 294.372 174.845 293.04 167.186C291.708 159.527 289.71 155.198 289.71 155.198L262.404 154.865Z" fill="#8C8C8C" stroke="#263238" stroke-miterlimit="10"></path><path d="M255.079 192.66H252.914V194.658L253.081 195.804L253.913 196.303V198.301C253.913 198.301 255.245 198.135 255.911 198.135C256.416 198.205 256.884 198.439 257.243 198.801L258.076 198.301L259.241 199.633L260.074 199.3C260.074 199.3 260.407 201.964 261.406 200.799C262.405 199.633 262.738 198.967 263.404 198.967C263.962 198.987 264.518 199.042 265.069 199.134C265.069 199.134 265.568 197.469 267.233 198.967L268.898 200.466L270.23 199.8L271.895 200.466L272.894 200.133H274.393C274.393 200.133 277.723 201.631 277.889 201.132C278.056 200.632 278.389 199.8 278.389 199.8L279.388 199.966C279.667 199.735 280.024 199.616 280.387 199.633C281.053 199.633 281.719 200.466 282.718 199.633C282.952 199.396 283.244 199.225 283.566 199.137C283.888 199.05 284.227 199.048 284.549 199.134L285.548 198.801L287.047 198.634L286.88 196.803L289.045 197.968L290.377 196.636L291.043 195.138L288.332 194.472H286.048L284.716 194.971L284.05 195.471L281.719 194.971H279.887L275.891 196.47H274.726C272.395 195.304 272.228 195.471 271.063 195.471C270.275 195.487 269.492 195.599 268.732 195.804L266.9 195.97L265.568 195.804C265.165 195.509 264.714 195.283 264.236 195.138C263.52 195.022 262.796 194.966 262.072 194.971C262.072 194.971 263.237 195.97 260.906 194.472C258.575 192.973 258.076 192.973 257.243 192.973C256.777 192.961 256.317 193.076 255.911 193.306L255.079 192.66Z" fill="white" stroke="#263238" stroke-miterlimit="10"></path><path d="M267.186 163.263C267.359 164.558 267.711 165.822 268.231 167.019C268.846 168.42 269.762 169.668 270.912 170.675C272.063 171.682 273.422 172.423 274.891 172.847" stroke="#263238" stroke-miterlimit="10"></path><path d="M267.398 156.03C267.064 157.786 266.935 159.574 267.012 161.358" stroke="#263238" stroke-miterlimit="10"></path><path d="M271.728 192.84C271.602 193.839 271.535 194.325 271.535 194.325" stroke="#263238" stroke-miterlimit="10"></path><path d="M277.722 156.363C277.722 156.363 274.059 174.179 273.06 182.337C272.587 186.2 272.228 189.097 271.975 191.069" stroke="#263238" stroke-miterlimit="10"></path><path d="M260.946 169.031C259.894 174.359 259.028 179.893 259.407 182.171C260.24 187.166 271.395 187.499 271.895 187.332" stroke="#263238" stroke-miterlimit="10"></path><path d="M263.737 156.51C263.737 156.51 262.611 161.012 261.492 166.32" stroke="#263238" stroke-miterlimit="10"></path><path d="M290.875 161.525L280.719 162.857L280.885 163.856L290.542 163.023" stroke="#263238" stroke-miterlimit="10"></path><path d="M263.568 132.534L250.415 125.727L246.752 134.885C246.752 134.885 261.071 146.04 262.07 146.54C263.069 147.039 263.568 132.534 263.568 132.534Z" fill="#D68029" stroke="#263238" stroke-miterlimit="10"></path><path d="M271.062 109.224C271.062 109.224 262.237 130.369 261.405 140.026C260.572 149.683 260.572 156.343 260.572 156.343L291.208 156.177C291.208 156.177 295.038 133.866 296.203 120.546C297.369 107.226 290.376 103.563 283.383 103.563C276.39 103.563 272.56 105.747 271.062 109.224Z" fill="#D68029" stroke="#263238" stroke-miterlimit="10"></path><path d="M248.417 78.3149C248.417 78.3149 242.37 76.0838 240.618 80.0665C238.867 84.0492 246.666 91.2087 251.94 91.2087C257.215 91.2087 257.029 81.9779 254.964 79.587C252.899 77.1961 248.417 78.3149 248.417 78.3149Z" fill="#263238" stroke="#263238" stroke-linecap="round" stroke-linejoin="round"></path><path d="M251.92 81.9779C251.92 81.9779 250.961 86.9063 251.601 89.617C252.24 92.3276 253.985 92.947 253.985 94.3855C253.985 95.8241 252.393 96.9363 253.033 98.3815C253.972 100.499 255.577 100.293 255.577 100.293C255.577 100.293 260.032 106.18 262.103 106.34C264.175 106.5 267.358 103.949 267.358 103.949L270.855 109.837C270.855 109.837 275.79 101.565 272.446 94.5587C269.103 87.5524 264.648 85.6476 260.352 84.3755C256.056 83.1035 251.92 81.9779 251.92 81.9779Z" fill="white" stroke="#263238" stroke-linecap="round" stroke-linejoin="round"></path><path d="M256.343 92.9003C255.95 92.1944 255.897 91.4684 256.223 91.2886C256.55 91.1088 257.129 91.5417 257.522 92.2543C257.915 92.9669 257.962 93.6796 257.635 93.8594C257.309 94.0392 256.73 93.613 256.343 92.9003Z" fill="#263238"></path><path d="M258.488 100.053C259.479 100.08 260.454 99.7933 261.272 99.234C261.655 98.9472 261.953 98.5628 262.136 98.121C262.319 97.6792 262.379 97.1964 262.311 96.7232" stroke="#263238" stroke-linecap="round" stroke-linejoin="round"></path><path d="M253.746 90.3296C253.689 89.8671 253.817 89.401 254.103 89.0329C254.389 88.6649 254.809 88.4247 255.271 88.3649C257.022 88.0385 257.788 88.6912 257.788 88.6912" stroke="#263238" stroke-linecap="round" stroke-linejoin="round"></path><path d="M249.37 79.92C249.37 79.92 254.625 85.0149 258.921 86.1271C260.914 86.6028 262.879 87.1875 264.808 87.8787C264.808 87.8787 272.927 97.4225 271.335 102.531C269.743 107.639 268.631 109.537 268.791 111.761C268.951 113.986 271.335 114.945 269.457 116.697C267.579 118.448 266.753 117.489 266.753 117.489C266.753 117.489 268.984 119.241 271.368 119.241C273.753 119.241 274.871 115.424 276.936 111.602C279.001 107.779 279.167 106.354 282.983 106.826C286.799 107.299 292.061 114.945 292.853 119.56C293.646 124.176 294.252 133.2 294.252 133.2C296.826 132.005 299.279 130.567 301.578 128.904C306.193 125.721 306.353 118.561 305.081 112.674C303.809 106.786 298.082 101.532 293.939 96.1171C289.796 90.7025 285.98 82.4308 281.212 73.3599C276.443 64.289 271.182 62.5374 264.022 64.9283C256.863 67.3193 250.483 72.594 250.483 72.594C250.483 72.594 247.153 70.0432 244.435 73.26C241.718 76.4768 249.37 79.92 249.37 79.92Z" fill="#263238" stroke="#263238" stroke-linecap="round" stroke-linejoin="round"></path><path d="M281.331 101.572C281.526 102.452 281.505 103.365 281.271 104.236" stroke="#8C8C8C" stroke-miterlimit="10"></path><path d="M267.012 88.2184C270.624 89.3879 273.96 91.2825 276.815 93.7861C278.754 95.4178 280.19 97.5653 280.958 99.9799" stroke="#8C8C8C" stroke-miterlimit="10"></path><path d="M299.388 124.395C299.119 125.131 298.796 125.846 298.422 126.533" stroke="#8C8C8C" stroke-miterlimit="10"></path><path d="M261.398 81.1787C262.559 81.768 263.766 82.2603 265.008 82.6506C272.807 85.0948 284.389 89.3106 292.854 102.031C299.067 111.355 300.719 117.303 300.013 121.931" stroke="#8C8C8C" stroke-miterlimit="10"></path><path d="M254.758 75.2979C254.758 75.2979 255.97 77.7222 259.42 80.0132" stroke="#8C8C8C" stroke-miterlimit="10"></path><path d="M227.131 110.859L226.646 111.151C226.407 111.295 226.33 111.606 226.474 111.846L237.858 130.739C238.002 130.979 238.313 131.056 238.553 130.911L239.038 130.619C239.277 130.475 239.354 130.164 239.21 129.924L227.826 111.031C227.682 110.792 227.371 110.714 227.131 110.859Z" fill="#D68029" stroke="#263238" stroke-miterlimit="10"></path><path d="M242.923 135.051L240.425 132.221C240.425 132.221 240.259 131.055 238.427 128.225C236.596 125.394 234.764 124.895 233.932 123.396C233.099 121.898 232.267 119.9 231.434 119.9H230.602C230.394 119.832 230.174 119.808 229.957 119.831C229.739 119.854 229.529 119.923 229.34 120.033C229.152 120.143 228.988 120.292 228.861 120.47C228.734 120.648 228.646 120.851 228.604 121.065C228.104 122.73 226.939 124.895 227.605 125.894C228.271 126.893 228.77 130.722 229.27 132.554C229.769 134.385 237.595 137.049 237.595 137.049L242.423 139.547L242.923 135.051Z" fill="white" stroke="#263238" stroke-miterlimit="10"></path><path d="M230.602 119.88C230.602 119.88 229.603 120.713 230.768 122.544C231.934 124.376 232.6 126.707 233.432 128.205" fill="white"></path><path d="M230.602 119.88C230.602 119.88 229.603 120.713 230.768 122.544C231.934 124.376 232.6 126.707 233.432 128.205" stroke="#263238" stroke-miterlimit="10"></path><path d="M280.72 110.243C280.72 110.243 275.891 110.409 272.395 116.403C268.898 122.397 264.736 145.707 264.736 145.707L241.592 133.386L240.094 146.52C240.094 146.52 248.419 151.682 253.414 153.68C258.409 155.678 269.351 157.303 271.516 157.303C273.68 157.303 277.789 153.233 278.622 151.402C279.454 149.57 286.381 123.396 286.381 123.396" fill="#D68029"></path><path d="M280.72 110.243C280.72 110.243 275.891 110.409 272.395 116.403C268.898 122.397 264.736 145.707 264.736 145.707L241.592 133.386L240.094 146.52C240.094 146.52 248.419 151.682 253.414 153.68C258.409 155.678 269.351 157.303 271.516 157.303C273.68 157.303 277.789 153.233 278.622 151.402C279.454 149.57 286.381 123.396 286.381 123.396" stroke="#263238" stroke-miterlimit="10"></path><path d="M185.521 296.37H322.345" stroke="#263238" stroke-miterlimit="10"></path><path d="M19.4336 296.37H179.633" stroke="#263238" stroke-miterlimit="10"></path><path d="M11.3223 296.37H15.2783" stroke="#263238" stroke-miterlimit="10"></path></svg>