<svg width="512" height="512" viewBox="0 0 512 512" fill="none" xmlns="http://www.w3.org/2000/svg">
<path d="M16 440H154.96C164.078 459.066 178.404 475.163 196.284 486.432C214.163 497.7 234.866 503.679 256 503.679C277.134 503.679 297.837 497.7 315.716 486.432C333.596 475.163 347.922 459.066 357.04 440H496C498.122 440 500.157 439.158 501.657 437.657C503.157 436.157 504 434.122 504 432V392C504 389.879 503.157 387.844 501.657 386.344C500.157 384.843 498.122 384 496 384H476V360C476 357.879 475.157 355.844 473.657 354.344C472.157 352.843 470.122 352 468 352H448V328C448 325.879 447.157 323.844 445.657 322.344C444.157 320.843 442.122 320 440 320H430V224H444C445.507 224.008 446.985 223.591 448.264 222.796C449.544 222.001 450.574 220.861 451.234 219.507C451.894 218.153 452.159 216.64 451.997 215.142C451.835 213.644 451.254 212.222 450.32 211.04L416.48 168H480C481.725 167.996 483.403 167.434 484.782 166.398C486.162 165.362 487.17 163.909 487.656 162.253C488.141 160.598 488.079 158.83 487.478 157.213C486.877 155.596 485.769 154.216 484.32 153.28L260.32 9.28035C259.031 8.45331 257.532 8.01367 256 8.01367C254.468 8.01367 252.969 8.45331 251.68 9.28035L27.68 153.28C26.2309 154.216 25.1231 155.596 24.522 157.213C23.9209 158.83 23.8586 160.598 24.3444 162.253C24.8302 163.909 25.8381 165.362 27.2177 166.398C28.5974 167.434 30.2749 167.996 32 168H95.52L61.68 211.04C60.7459 212.222 60.1646 213.644 60.0029 215.142C59.8412 216.64 60.1058 218.153 60.7661 219.507C61.4265 220.861 62.4558 222.001 63.7355 222.796C65.0153 223.591 66.4935 224.008 68 224H82V320H72C69.8783 320 67.8434 320.843 66.3431 322.344C64.8429 323.844 64 325.879 64 328V352H48C45.8783 352 43.8434 352.843 42.3431 354.344C40.8429 355.844 40 357.879 40 360V384H16C13.8783 384 11.8434 384.843 10.3431 386.344C8.84285 387.844 8 389.879 8 392V432C8 434.122 8.84285 436.157 10.3431 437.657C11.8434 439.158 13.8783 440 16 440ZM152 320H142V224H156C157.507 224.008 158.985 223.591 160.264 222.796C161.544 222.001 162.574 220.861 163.234 219.507C163.894 218.153 164.159 216.64 163.997 215.142C163.835 213.644 163.254 212.222 162.32 211.04L128.48 168H239.52L205.68 211.04C204.746 212.222 204.165 213.644 204.003 215.142C203.841 216.64 204.106 218.153 204.766 219.507C205.426 220.861 206.456 222.001 207.736 222.796C209.015 223.591 210.493 224.008 212 224H226V284.24C198.354 291.962 174.729 310.004 160 334.64V328C160 325.879 159.157 323.844 157.657 322.344C156.157 320.843 154.122 320 152 320ZM234 208H228.48L256 172.96L283.52 208H278C275.878 208 273.843 208.843 272.343 210.343C270.843 211.844 270 213.879 270 216V280.96C260.711 279.68 251.289 279.68 242 280.96V216C242 213.879 241.157 211.844 239.657 210.343C238.157 208.843 236.122 208 234 208ZM256 488C237.013 488 218.452 482.37 202.665 471.821C186.878 461.273 174.574 446.28 167.308 428.738C160.042 411.196 158.14 391.894 161.845 373.272C165.549 354.65 174.692 337.544 188.118 324.118C201.544 310.692 218.649 301.549 237.271 297.845C255.894 294.141 275.196 296.042 292.738 303.308C310.279 310.574 325.272 322.879 335.821 338.666C346.37 354.453 352 373.013 352 392C352 417.461 341.886 441.879 323.882 459.883C305.879 477.886 281.461 488 256 488ZM352 328V334.64C337.271 310.004 313.646 291.962 286 284.24V224H300C301.507 224.008 302.985 223.591 304.264 222.796C305.544 222.001 306.574 220.861 307.234 219.507C307.894 218.153 308.159 216.64 307.997 215.142C307.835 213.644 307.254 212.222 306.32 211.04L272.48 168H383.52L349.68 211.04C348.746 212.222 348.165 213.644 348.003 215.142C347.841 216.64 348.106 218.153 348.766 219.507C349.426 220.861 350.456 222.001 351.736 222.796C353.015 223.591 354.493 224.008 356 224H370V320H360C357.878 320 355.843 320.843 354.343 322.344C352.843 323.844 352 325.879 352 328ZM488 400V424H363.28C365.752 416.204 367.336 408.153 368 400H488ZM460 368V384H368C367.624 378.622 366.875 373.276 365.76 368H460ZM432 336V352H368V336H432ZM427.52 208H422C419.878 208 417.843 208.843 416.343 210.343C414.843 211.844 414 213.879 414 216V320H386V216C386 213.879 385.157 211.844 383.657 210.343C382.157 208.843 380.122 208 378 208H372.48L400 172.96L427.52 208ZM59.52 152L256 25.5204L452.72 152H59.52ZM112 172.96L139.52 208H134C131.878 208 129.843 208.843 128.343 210.343C126.843 211.844 126 213.879 126 216V320H98V216C98 213.879 97.1571 211.844 95.6569 210.343C94.1566 208.843 92.1217 208 90 208H84.48L112 172.96ZM80 336H144V352H80V336ZM56 368H146.64C145.525 373.276 144.776 378.622 144.4 384H56V368ZM24 400H144.4C144.934 408.137 146.383 416.188 148.72 424H24V400Z" fill="#D68029"/>
<path d="M288 102.561L272 103.201V104.001C272 107.165 271.062 110.259 269.304 112.89C267.546 115.521 265.047 117.572 262.123 118.783C259.2 119.994 255.983 120.311 252.879 119.693C249.775 119.076 246.924 117.552 244.687 115.314C242.449 113.077 240.925 110.226 240.308 107.122C239.69 104.018 240.007 100.801 241.218 97.8777C242.429 94.9541 244.48 92.4552 247.111 90.6971C249.742 88.939 252.836 88.0006 256 88.0006C257.01 87.8783 258.031 87.8783 259.04 88.0006L262.08 72.0006C260.058 71.8032 258.022 71.8032 256 72.0006C249.671 72.0006 243.484 73.8774 238.222 77.3936C232.96 80.9098 228.858 85.9075 226.436 91.7547C224.014 97.602 223.38 104.036 224.615 110.244C225.85 116.451 228.898 122.153 233.373 126.628C237.848 131.103 243.55 134.151 249.757 135.386C255.965 136.62 262.399 135.987 268.246 133.565C274.093 131.143 279.091 127.041 282.607 121.779C286.124 116.516 288 110.33 288 104.001V102.561ZM198.32 438.337L302.296 334.361L313.6 345.681L209.632 449.649L198.32 438.337ZM225.36 384.001C238.08 384.001 248 371.681 248 356.001C248 340.321 238.08 328.001 225.36 328.001C212.64 328.001 202.64 340.321 202.64 356.001C202.64 371.681 212.64 384.001 225.36 384.001ZM225.36 344.001C228.4 344.001 232 349.281 232 356.001C232 362.721 228.4 368.001 225.36 368.001C222.32 368.001 218.64 362.721 218.64 356.001C218.64 349.281 222.24 344.001 225.36 344.001ZM286.64 400.001C273.92 400.001 264 412.321 264 428.001C264 443.681 273.92 456.001 286.64 456.001C299.36 456.001 309.36 443.681 309.36 428.001C309.36 412.321 299.36 400.001 286.64 400.001ZM286.64 440.001C283.6 440.001 280 434.721 280 428.001C280 421.281 283.6 416.001 286.64 416.001C289.68 416.001 293.36 421.281 293.36 428.001C293.36 434.721 289.76 440.001 286.64 440.001Z" fill="#D68029"/>
</svg>
