<svg width="512" height="512" viewBox="0 0 512 512" fill="none" xmlns="http://www.w3.org/2000/svg">
<path d="M363.518 348.16H187.518C185.396 348.16 183.362 347.317 181.861 345.817C180.361 344.316 179.518 342.281 179.518 340.16C179.518 338.038 180.361 336.003 181.861 334.503C183.362 333.003 185.396 332.16 187.518 332.16H363.518C365.64 332.16 367.675 333.003 369.175 334.503C370.675 336.003 371.518 338.038 371.518 340.16C371.518 342.281 370.675 344.316 369.175 345.817C367.675 347.317 365.64 348.16 363.518 348.16ZM422.258 205.73C420.136 205.73 418.102 204.887 416.601 203.387C415.101 201.886 414.258 199.851 414.258 197.73V125.89C414.253 121.802 412.626 117.883 409.736 114.992C406.845 112.101 402.926 110.475 398.838 110.47H150.998C146.91 110.475 142.991 112.101 140.1 114.992C137.21 117.883 135.583 121.802 135.578 125.89V197.73C135.578 199.851 134.735 201.886 133.235 203.387C131.735 204.887 129.7 205.73 127.578 205.73C125.456 205.73 123.422 204.887 121.921 203.387C120.421 201.886 119.578 199.851 119.578 197.73V125.89C119.589 117.56 122.902 109.574 128.793 103.684C134.683 97.794 142.668 94.4803 150.998 94.4697H398.838C407.168 94.4803 415.154 97.794 421.044 103.684C426.934 109.574 430.248 117.56 430.258 125.89V197.73C430.258 199.851 429.415 201.886 427.915 203.387C426.415 204.887 424.38 205.73 422.258 205.73Z" fill="#D68029"/>
<path d="M336.081 417.53H213.741C212.177 417.53 210.648 417.072 209.342 416.212C208.036 415.353 207.01 414.129 206.392 412.693C205.774 411.256 205.59 409.67 205.864 408.131C206.137 406.591 206.856 405.166 207.931 404.03C223.811 387.23 227.091 363.67 216.301 344.03C215.409 342.185 215.26 340.069 215.883 338.117C216.505 336.165 217.853 334.527 219.649 333.54C221.444 332.552 223.549 332.291 225.531 332.81C227.513 333.33 229.22 334.589 230.301 336.33C235.869 346.32 238.734 357.59 238.613 369.027C238.492 380.463 235.389 391.67 229.611 401.54H320.151C314.373 391.67 311.27 380.463 311.149 369.027C311.028 357.59 313.893 346.32 319.461 336.33C320.541 334.589 322.249 333.33 324.231 332.81C326.212 332.291 328.318 332.552 330.113 333.54C331.908 334.527 333.256 336.165 333.879 338.117C334.502 340.069 334.352 342.185 333.461 344.03C322.671 363.68 325.951 387.24 341.831 404.03C342.906 405.166 343.625 406.591 343.898 408.131C344.172 409.67 343.988 411.256 343.37 412.693C342.752 414.129 341.726 415.353 340.42 416.212C339.114 417.072 337.585 417.53 336.021 417.53H336.081ZM363.521 316H187.521C185.399 316 183.364 315.157 181.864 313.657C180.364 312.157 179.521 310.122 179.521 308C179.521 305.878 180.364 303.844 181.864 302.343C183.364 300.843 185.399 300 187.521 300H363.521C365.643 300 367.677 300.843 369.178 302.343C370.678 303.844 371.521 305.878 371.521 308C371.521 310.122 370.678 312.157 369.178 313.657C367.677 315.157 365.643 316 363.521 316ZM390.111 205.73C387.989 205.73 385.954 204.887 384.454 203.387C382.954 201.887 382.111 199.852 382.111 197.73V142.62H167.711V197.73C167.711 199.852 166.868 201.887 165.368 203.387C163.867 204.887 161.833 205.73 159.711 205.73C157.589 205.73 155.554 204.887 154.054 203.387C152.554 201.887 151.711 199.852 151.711 197.73V138.4C151.714 135.278 152.954 132.285 155.161 130.077C157.367 127.869 160.359 126.625 163.481 126.62H386.341C389.463 126.625 392.455 127.869 394.661 130.077C396.868 132.285 398.108 135.278 398.111 138.4V197.73C398.111 199.852 397.268 201.887 395.768 203.387C394.267 204.887 392.233 205.73 390.111 205.73Z" fill="#D68029"/>
<path d="M468 417.53H376.55C370.98 417.53 365.639 415.318 361.701 411.379C357.762 407.441 355.55 402.1 355.55 396.53V210.75C355.55 205.18 357.762 199.839 361.701 195.901C365.639 191.962 370.98 189.75 376.55 189.75H468C473.57 189.75 478.911 191.962 482.849 195.901C486.788 199.839 489 205.18 489 210.75V396.5C489.004 399.26 488.464 401.994 487.41 404.546C486.357 407.097 484.81 409.415 482.86 411.369C480.909 413.322 478.593 414.871 476.043 415.929C473.493 416.986 470.76 417.53 468 417.53ZM376.57 205.73C375.244 205.73 373.972 206.257 373.034 207.194C372.097 208.132 371.57 209.404 371.57 210.73V396.5C371.57 397.826 372.097 399.098 373.034 400.036C373.972 400.973 375.244 401.5 376.57 401.5H468C469.326 401.5 470.598 400.973 471.536 400.036C472.473 399.098 473 397.826 473 396.5V210.75C473 209.424 472.473 208.152 471.536 207.214C470.598 206.277 469.326 205.75 468 205.75L376.57 205.73ZM172.51 417.53H46C39.9049 417.514 34.0639 415.086 29.754 410.776C25.4441 406.466 23.0158 400.625 23 394.53V212.76C23.0132 206.664 25.4407 200.822 29.7511 196.511C34.0616 192.201 39.9041 189.773 46 189.76H172.51C178.605 189.776 184.446 192.204 188.756 196.514C193.066 200.824 195.494 206.665 195.51 212.76V394.49C195.502 400.591 193.078 406.441 188.767 410.759C184.457 415.077 178.611 417.511 172.51 417.53ZM46 205.73C44.1435 205.73 42.363 206.468 41.0503 207.78C39.7375 209.093 39 210.873 39 212.73V394.49C39 396.347 39.7375 398.127 41.0503 399.44C42.363 400.753 44.1435 401.49 46 401.49H172.51C174.362 401.477 176.135 400.735 177.445 399.425C178.755 398.115 179.497 396.342 179.51 394.49V212.76C179.51 210.903 178.773 209.123 177.46 207.81C176.147 206.498 174.367 205.76 172.51 205.76L46 205.73Z" fill="#D68029"/>
<path d="M129.579 236.39H88.9991C86.8773 236.39 84.8425 235.547 83.3422 234.047C81.8419 232.546 80.9991 230.511 80.9991 228.39C80.9991 226.268 81.8419 224.233 83.3422 222.733C84.8425 221.232 86.8773 220.39 88.9991 220.39H129.609C131.731 220.39 133.766 221.232 135.266 222.733C136.766 224.233 137.609 226.268 137.609 228.39C137.609 230.511 136.766 232.546 135.266 234.047C133.766 235.547 131.731 236.39 129.609 236.39H129.579ZM147.789 386.87H70.7891C68.6673 386.87 66.6325 386.027 65.1322 384.527C63.6319 383.026 62.7891 380.991 62.7891 378.87C62.7891 376.748 63.6319 374.713 65.1322 373.213C66.6325 371.712 68.6673 370.87 70.7891 370.87H147.789C149.911 370.87 151.946 371.712 153.446 373.213C154.946 374.713 155.789 376.748 155.789 378.87C155.789 380.991 154.946 383.026 153.446 384.527C151.946 386.027 149.911 386.87 147.789 386.87ZM442.559 236.39H401.999C399.877 236.39 397.842 235.547 396.342 234.047C394.842 232.546 393.999 230.511 393.999 228.39C393.999 226.268 394.842 224.233 396.342 222.733C397.842 221.232 399.877 220.39 401.999 220.39H442.599C444.721 220.39 446.756 221.232 448.256 222.733C449.756 224.233 450.599 226.268 450.599 228.39C450.599 230.511 449.756 232.546 448.256 234.047C446.756 235.547 444.721 236.39 442.599 236.39H442.559ZM450.779 386.87H393.779C391.657 386.87 389.622 386.027 388.122 384.527C386.622 383.026 385.779 380.991 385.779 378.87C385.779 376.748 386.622 374.713 388.122 373.213C389.622 371.712 391.657 370.87 393.779 370.87H450.779C452.901 370.87 454.936 371.712 456.436 373.213C457.936 374.713 458.779 376.748 458.779 378.87C458.779 380.991 457.936 383.026 456.436 384.527C454.936 386.027 452.901 386.87 450.779 386.87Z" fill="#D68029"/>
</svg>
