<svg width="512" height="512" viewBox="0 0 512 512" fill="none" xmlns="http://www.w3.org/2000/svg">
<path d="M274.552 259.199C282.478 255.05 288.785 248.363 292.463 240.207C296.141 232.051 296.979 222.897 294.843 214.209C292.706 205.521 287.718 197.8 280.677 192.281C273.636 186.761 264.947 183.762 256 183.762C247.053 183.762 238.364 186.761 231.323 192.281C224.282 197.8 219.294 205.521 217.157 214.209C215.021 222.897 215.859 232.051 219.537 240.207C223.215 248.363 229.522 255.05 237.448 259.199C226.512 263.048 217.039 270.192 210.332 279.648C203.626 289.104 200.016 300.406 200 311.999C200 314.121 200.843 316.156 202.343 317.656C203.843 319.156 205.878 319.999 208 319.999H304C306.122 319.999 308.157 319.156 309.657 317.656C311.157 316.156 312 314.121 312 311.999C311.984 300.406 308.374 289.104 301.668 279.648C294.961 270.192 285.488 263.048 274.552 259.199ZM256 199.999C260.747 199.999 265.387 201.407 269.334 204.044C273.28 206.681 276.357 210.429 278.173 214.815C279.99 219.2 280.465 224.026 279.539 228.681C278.613 233.337 276.327 237.613 272.971 240.97C269.614 244.326 265.338 246.612 260.682 247.538C256.027 248.464 251.201 247.989 246.816 246.172C242.43 244.356 238.682 241.28 236.045 237.333C233.408 233.386 232 228.746 232 223.999C232 217.634 234.529 211.53 239.029 207.029C243.53 202.528 249.635 199.999 256 199.999ZM216.8 303.999C218.636 294.957 223.542 286.828 230.686 280.988C237.83 275.149 246.773 271.959 256 271.959C265.227 271.959 274.17 275.149 281.314 280.988C288.458 286.828 293.364 294.957 295.2 303.999H216.8Z" fill="#D68029"/>
<path d="M423.998 344C405.548 343.985 387.665 350.379 373.406 362.088L334.894 323.576C350.114 305.854 358.889 283.503 359.79 260.16L441.486 257.136C443.764 264.521 448.656 270.822 455.245 274.861C461.834 278.899 469.669 280.398 477.284 279.077C484.898 277.755 491.77 273.704 496.613 267.681C501.456 261.658 503.938 254.077 503.595 246.356C503.251 238.635 500.106 231.304 494.747 225.735C489.388 220.167 482.183 216.742 474.482 216.102C466.78 215.462 459.109 217.651 452.904 222.258C446.7 226.866 442.387 233.577 440.774 241.136L359.27 244.152C357.524 229.003 352.469 214.423 344.461 201.446C336.454 188.468 325.691 177.41 312.934 169.056L328.222 141.264C339.601 145.235 352.058 144.787 363.122 140.007C374.186 135.228 383.051 126.466 387.959 115.458C392.868 104.45 393.461 91.9994 389.622 80.5746C385.783 69.1498 377.791 59.5843 367.232 53.7741C356.672 47.9638 344.315 46.333 332.609 49.2047C320.904 52.0764 310.704 59.2411 304.033 69.2788C297.361 79.3164 294.704 91.4943 296.588 103.399C298.473 115.303 304.761 126.065 314.206 133.552L298.91 161.36C280.922 153.122 260.946 150.225 241.359 153.014C221.771 155.802 203.397 164.158 188.422 177.088L149.91 138.576C162.923 122.66 169.321 102.352 167.781 81.8521C166.241 61.3518 156.88 42.2279 141.635 28.4358C126.39 14.6437 106.427 7.23875 85.8752 7.7526C65.3236 8.26645 45.7557 16.6598 31.219 31.1965C16.6823 45.7332 8.28892 65.3011 7.77506 85.8527C7.26121 106.404 14.6662 126.367 28.4582 141.612C42.2503 156.857 61.3743 166.218 81.8746 167.758C102.375 169.299 122.683 162.901 138.598 149.888L177.11 188.4C166.919 200.165 159.531 214.09 155.502 229.126C151.474 244.161 150.91 259.915 153.854 275.2L83.5901 294.112C79.1361 285.469 71.6646 278.762 62.5931 275.263C53.5216 271.764 43.4813 271.717 34.3774 275.131C25.2735 278.544 17.7393 285.181 13.2044 293.781C8.66958 302.382 7.44957 312.348 9.77591 321.788C12.1022 331.229 17.8131 339.487 25.8247 344.995C33.8364 350.504 43.5916 352.88 53.2392 351.673C62.8868 350.466 71.7556 345.759 78.1628 338.446C84.57 331.133 88.0698 321.722 87.9981 312C87.9981 311.2 87.8061 310.4 87.7501 309.6L158.062 290.672C166.156 313.398 181.871 332.62 202.534 345.072L185.598 378.88C172.143 374.374 157.481 375.131 144.563 381C131.645 386.87 121.429 397.414 115.972 410.512C110.515 423.61 110.223 438.289 115.153 451.594C120.083 464.899 129.87 475.843 142.544 482.222C155.218 488.602 169.838 489.944 183.462 485.978C197.086 482.012 208.701 473.033 215.971 460.847C223.241 448.662 225.625 434.175 222.643 420.303C219.662 406.43 211.536 394.202 199.902 386.08L216.798 352.272C234.466 359.515 253.794 361.725 272.641 358.656C291.487 355.588 309.116 347.361 323.574 334.888L362.086 373.4C350.607 387.464 344.255 405.017 344.076 423.17C343.897 441.324 349.901 458.999 361.1 473.287C372.3 487.575 388.028 497.627 405.699 501.79C423.371 505.952 441.932 503.977 458.332 496.189C474.731 488.402 487.992 475.265 495.934 458.94C503.877 442.615 506.027 424.073 502.032 406.363C498.036 388.654 488.134 372.831 473.952 361.497C459.77 350.162 442.153 343.992 423.998 344ZM471.998 232C475.163 232 478.256 232.938 480.887 234.696C483.518 236.454 485.569 238.953 486.78 241.877C487.991 244.8 488.308 248.017 487.691 251.121C487.073 254.225 485.549 257.076 483.312 259.313C481.074 261.551 478.223 263.075 475.12 263.692C472.016 264.31 468.799 263.993 465.875 262.782C462.952 261.571 460.453 259.52 458.695 256.889C456.936 254.258 455.998 251.164 455.998 248C455.998 243.756 457.684 239.686 460.684 236.686C463.685 233.685 467.755 232 471.998 232ZM343.998 63.9996C350.327 63.9996 356.514 65.8764 361.776 69.3926C367.039 72.9088 371.14 77.9065 373.562 83.7537C375.984 89.601 376.618 96.0351 375.383 102.242C374.148 108.45 371.101 114.152 366.625 118.627C362.15 123.102 356.448 126.15 350.241 127.385C344.034 128.619 337.599 127.986 331.752 125.564C325.905 123.142 320.907 119.04 317.391 113.778C313.875 108.515 311.998 102.329 311.998 95.9996C311.998 87.5127 315.37 79.3734 321.371 73.3722C327.372 67.371 335.511 63.9996 343.998 63.9996ZM47.9981 336C43.2513 336 38.6112 334.592 34.6644 331.955C30.7176 329.318 27.6415 325.569 25.825 321.184C24.0085 316.799 23.5332 311.973 24.4592 307.317C25.3853 302.662 27.671 298.385 31.0275 295.029C34.384 291.673 38.6604 289.387 43.3159 288.461C47.9714 287.535 52.797 288.01 57.1825 289.827C61.5679 291.643 65.3162 294.719 67.9533 298.666C70.5905 302.613 71.9981 307.253 71.9981 312C71.9981 318.365 69.4695 324.469 64.9686 328.97C60.4678 333.471 54.3633 336 47.9981 336ZM207.998 432C207.998 439.911 205.652 447.644 201.257 454.222C196.862 460.8 190.614 465.927 183.305 468.955C175.996 471.982 167.954 472.774 160.194 471.231C152.435 469.688 145.308 465.878 139.714 460.284C134.12 454.69 130.31 447.562 128.767 439.803C127.223 432.044 128.015 424.001 131.043 416.692C134.07 409.383 139.197 403.136 145.775 398.741C152.353 394.346 160.087 392 167.998 392C178.603 392.012 188.77 396.231 196.268 403.729C203.767 411.228 207.985 421.395 207.998 432ZM23.9981 87.9996C23.9732 77.6009 26.4826 67.3527 31.309 58.1419C36.1355 48.931 43.1336 41.035 51.698 35.1369C60.2623 29.2389 70.1348 25.5165 80.4612 24.292C90.7876 23.0674 101.257 24.3775 110.963 28.1089C120.669 31.8403 129.32 37.8806 136.167 45.7071C143.014 53.5337 147.85 62.9107 150.258 73.0268C152.666 83.143 152.573 93.6935 149.987 103.765C147.4 113.837 142.398 123.127 135.414 130.832C135.783 129.932 135.981 128.972 135.998 128C136.018 121.694 134.787 115.446 132.376 109.62C129.964 103.793 126.421 98.503 121.95 94.0556C118.762 90.8678 115.143 88.1427 111.198 85.9596C115.522 81.4264 118.42 75.7238 119.533 69.5589C120.646 63.3939 119.925 57.0379 117.459 51.2789C114.994 45.52 110.892 40.6113 105.663 37.1618C100.433 33.7122 94.3067 31.8734 88.0421 31.8734C81.7775 31.8734 75.6507 33.7122 70.4214 37.1618C65.1921 40.6113 61.0903 45.52 58.6247 51.2789C56.1591 57.0379 55.4382 63.3939 56.5512 69.5589C57.6642 75.7238 60.5623 81.4264 64.8861 85.9596C57.3542 90.0974 51.0713 96.1815 46.6935 103.576C42.3156 110.971 40.0033 119.406 39.9981 128C40.0143 128.962 40.2041 129.913 40.5581 130.808C29.9093 119.092 24.0056 103.831 23.9981 87.9996ZM87.9981 79.9996C84.8336 79.9996 81.7401 79.0612 79.1089 77.3031C76.4778 75.545 74.427 73.0462 73.216 70.1225C72.005 67.1989 71.6881 63.9819 72.3055 60.8782C72.9229 57.7745 74.4467 54.9235 76.6844 52.6859C78.922 50.4483 81.7729 48.9244 84.8766 48.307C87.9803 47.6897 91.1974 48.0065 94.121 49.2175C97.0446 50.4285 99.5435 52.4793 101.302 55.1105C103.06 57.7417 103.998 60.8351 103.998 63.9996C103.998 68.2431 102.312 72.3127 99.3118 75.3133C96.3112 78.3139 92.2415 79.9996 87.9981 79.9996ZM87.9981 95.9996C95.0924 95.9996 101.986 98.357 107.594 102.701C113.203 107.046 117.208 113.131 118.982 120H57.0061C58.7887 113.134 62.7981 107.054 68.4063 102.711C74.0145 98.3676 80.9049 96.0074 87.9981 95.9996ZM45.1981 135.44C46.0897 135.795 47.0385 135.984 47.9981 136H127.998C128.972 135.986 129.936 135.791 130.838 135.424C119.129 146.076 103.868 151.98 88.0381 151.98C72.2082 151.98 56.9472 146.076 45.2381 135.424L45.1981 135.44ZM167.998 256C167.998 238.595 173.159 221.581 182.829 207.109C192.498 192.638 206.242 181.359 222.322 174.698C238.402 168.038 256.096 166.295 273.166 169.691C290.236 173.086 305.916 181.467 318.223 193.774C330.53 206.081 338.912 221.761 342.307 238.832C345.703 255.902 343.96 273.596 337.299 289.676C330.639 305.756 319.36 319.499 304.888 329.169C290.417 338.838 273.403 344 255.998 344C232.667 343.972 210.3 334.692 193.803 318.195C177.306 301.697 168.026 279.33 167.998 256ZM381.198 471.44C382.09 471.795 383.038 471.984 383.998 472H463.998C464.972 471.986 465.936 471.791 466.838 471.424C455.129 482.076 439.868 487.98 424.038 487.98C408.208 487.98 392.947 482.076 381.238 471.424L381.198 471.44ZM423.998 416C420.834 416 417.74 415.061 415.109 413.303C412.478 411.545 410.427 409.046 409.216 406.123C408.005 403.199 407.688 399.982 408.306 396.878C408.923 393.774 410.447 390.924 412.684 388.686C414.922 386.448 417.773 384.924 420.877 384.307C423.98 383.69 427.197 384.007 430.121 385.218C433.045 386.429 435.543 388.479 437.302 391.11C439.06 393.742 439.998 396.835 439.998 400C439.998 404.243 438.312 408.313 435.312 411.313C432.311 414.314 428.242 416 423.998 416ZM423.998 432C431.092 432 437.986 434.357 443.594 438.701C449.203 443.046 453.209 449.131 454.982 456H393.006C394.789 449.134 398.798 443.054 404.406 438.711C410.015 434.368 416.905 432.007 423.998 432ZM471.406 466.832C471.778 465.933 471.979 464.972 471.998 464C472.018 457.694 470.787 451.447 468.376 445.62C465.964 439.793 462.421 434.503 457.95 430.056C454.762 426.868 451.143 424.143 447.198 421.96C451.522 417.426 454.42 411.724 455.533 405.559C456.646 399.394 455.925 393.038 453.459 387.279C450.994 381.52 446.892 376.611 441.663 373.162C436.433 369.712 430.307 367.873 424.042 367.873C417.777 367.873 411.651 369.712 406.421 373.162C401.192 376.611 397.09 381.52 394.625 387.279C392.159 393.038 391.438 399.394 392.551 405.559C393.664 411.724 396.562 417.426 400.886 421.96C393.354 426.097 387.071 432.181 382.693 439.576C378.316 446.971 376.003 455.406 375.998 464C376.014 464.962 376.204 465.913 376.558 466.808C368.239 457.626 362.764 446.227 360.798 433.995C358.831 421.762 360.457 409.222 365.479 397.895C370.501 386.569 378.702 376.944 389.087 370.188C399.473 363.432 411.596 359.836 423.986 359.836C436.376 359.836 448.499 363.432 458.885 370.188C469.27 376.944 477.472 386.569 482.493 397.895C487.515 409.222 489.141 421.762 487.175 433.995C485.208 446.227 479.733 457.626 471.414 466.808L471.406 466.832Z" fill="#D68029"/>
</svg>
