<svg width="512" height="512" viewBox="0 0 512 512" fill="none" xmlns="http://www.w3.org/2000/svg">
<path d="M503.52 415.2C504.013 413.388 504.131 411.496 503.867 409.637C503.603 407.779 502.963 405.994 501.985 404.392L491.68 387.344C489.702 384.156 486.578 381.848 482.951 380.893C479.323 379.938 475.468 380.408 472.177 382.208L469.177 383.872C465.304 381.097 461.131 378.767 456.737 376.928V374.152C456.696 370.363 455.155 366.746 452.451 364.093C449.747 361.44 446.101 359.968 442.313 360H421.688C417.904 359.974 414.264 361.449 411.565 364.101C408.867 366.754 407.329 370.368 407.289 374.152V376.928C402.895 378.769 398.722 381.098 394.848 383.872L391.856 382.216C388.568 380.412 384.714 379.937 381.087 380.888C377.459 381.838 374.333 384.143 372.352 387.328L362.017 404.4C361.038 406 360.397 407.784 360.133 409.641C359.869 411.498 359.987 413.39 360.481 415.2C360.981 417.042 361.847 418.766 363.028 420.267C364.209 421.767 365.679 423.015 367.352 423.936L369.993 425.392C369.47 429.781 369.47 434.218 369.993 438.608L367.352 440.064C365.679 440.984 364.209 442.232 363.028 443.733C361.847 445.233 360.981 446.957 360.481 448.8C359.988 450.611 359.87 452.504 360.134 454.362C360.398 456.22 361.038 458.005 362.017 459.608L372.321 476.656C374.299 479.843 377.423 482.151 381.05 483.106C384.678 484.061 388.533 483.591 391.825 481.792L394.825 480.128C398.697 482.902 402.87 485.232 407.265 487.072V489.848C407.305 493.636 408.846 497.253 411.55 499.906C414.254 502.559 417.9 504.032 421.688 504H442.313C446.097 504.025 449.737 502.55 452.436 499.898C455.134 497.245 456.672 493.631 456.713 489.848V487.072C461.106 485.23 465.279 482.901 469.153 480.128L472.145 481.784C475.432 483.591 479.287 484.068 482.916 483.117C486.545 482.166 489.67 479.859 491.649 476.672L501.96 459.6C502.939 457.999 503.58 456.215 503.844 454.358C504.108 452.501 503.99 450.609 503.497 448.8C502.996 446.957 502.13 445.233 500.949 443.733C499.768 442.232 498.298 440.984 496.624 440.064L493.985 438.608C494.507 434.218 494.507 429.781 493.985 425.392L496.624 423.936C498.302 423.018 499.778 421.771 500.962 420.27C502.147 418.769 503.017 417.044 503.52 415.2ZM478.401 432C478.397 433.972 478.256 435.943 477.977 437.896C477.614 440.702 478.108 443.552 479.393 446.073C480.677 448.593 482.693 450.668 485.177 452.024L487.185 453.128L478.729 467.136L476.121 465.696C473.633 464.362 470.817 463.762 468.001 463.966C465.186 464.17 462.486 465.169 460.217 466.848C457.046 469.173 453.594 471.089 449.945 472.552C447.261 473.569 444.947 475.371 443.302 477.723C441.656 480.074 440.757 482.866 440.721 485.736V488H423.265V485.736C423.228 482.868 422.33 480.078 420.686 477.728C419.042 475.378 416.73 473.577 414.049 472.56C410.395 471.093 406.941 469.171 403.769 466.84C401.493 465.167 398.791 464.172 395.974 463.97C393.157 463.768 390.34 464.366 387.849 465.696L385.257 467.136L376.8 453.128L378.817 452.016C381.299 450.661 383.315 448.588 384.6 446.069C385.884 443.549 386.378 440.7 386.017 437.896C385.451 433.985 385.451 430.014 386.017 426.104C386.379 423.297 385.885 420.447 384.6 417.927C383.316 415.406 381.3 413.331 378.817 411.976L376.809 410.872L385.265 396.864L387.873 398.304C390.359 399.641 393.176 400.243 395.992 400.039C398.808 399.835 401.508 398.834 403.777 397.152C406.947 394.826 410.399 392.91 414.049 391.448C416.732 390.43 419.046 388.628 420.691 386.276C422.337 383.925 423.236 381.133 423.273 378.264V376H440.744V378.264C440.781 381.131 441.68 383.921 443.323 386.271C444.967 388.621 447.28 390.422 449.961 391.44C453.614 392.906 457.068 394.828 460.241 397.16C462.514 398.837 465.217 399.835 468.035 400.038C470.853 400.24 473.671 399.639 476.161 398.304L478.753 396.864L487.201 410.872L485.185 411.984C482.702 413.338 480.686 415.411 479.402 417.93C478.117 420.45 477.623 423.299 477.985 426.104C478.261 428.057 478.4 430.027 478.401 432Z" fill="#D68029"/>
<path d="M432 400C425.671 400 419.484 401.877 414.222 405.393C408.959 408.909 404.858 413.907 402.436 419.754C400.014 425.601 399.38 432.035 400.615 438.243C401.85 444.45 404.897 450.152 409.373 454.627C413.848 459.103 419.55 462.15 425.757 463.385C431.965 464.62 438.399 463.986 444.246 461.564C450.093 459.142 455.091 455.041 458.607 449.778C462.123 444.516 464 438.329 464 432C464 423.513 460.629 415.374 454.627 409.373C448.626 403.371 440.487 400 432 400ZM432 448C428.836 448 425.742 447.062 423.111 445.304C420.48 443.545 418.429 441.047 417.218 438.123C416.007 435.199 415.69 431.982 416.307 428.879C416.925 425.775 418.449 422.924 420.686 420.686C422.924 418.449 425.775 416.925 428.879 416.307C431.982 415.69 435.199 416.007 438.123 417.218C441.047 418.429 443.545 420.48 445.304 423.111C447.062 425.742 448 428.836 448 432C448 436.243 446.314 440.313 443.314 443.314C440.313 446.314 436.243 448 432 448ZM496 8H192C189.878 8 187.843 8.84285 186.343 10.3431C184.843 11.8434 184 13.8783 184 16V128H104C101.878 128 99.8434 128.843 98.3431 130.343C96.8429 131.843 96 133.878 96 136V224H16C13.8783 224 11.8434 224.843 10.3431 226.343C8.84285 227.843 8 229.878 8 232V392C8 394.122 8.84285 396.157 10.3431 397.657C11.8434 399.157 13.8783 400 16 400H240C242.122 400 244.157 399.157 245.657 397.657C247.157 396.157 248 394.122 248 392V320H360C362.122 320 364.157 319.157 365.657 317.657C367.157 316.157 368 314.122 368 312V232H496C498.122 232 500.157 231.157 501.657 229.657C503.157 228.157 504 226.122 504 224V16C504 13.8783 503.157 11.8434 501.657 10.3431C500.157 8.84285 498.122 8 496 8ZM232 384H24V240H232V384ZM352 304H248V232C248 229.878 247.157 227.843 245.657 226.343C244.157 224.843 242.122 224 240 224H112V144H352V304ZM488 216H368V136C368 133.878 367.157 131.843 365.657 130.343C364.157 128.843 362.122 128 360 128H200V24H488V216ZM144 424H128V472C128 474.122 128.843 476.157 130.343 477.657C131.843 479.157 133.878 480 136 480H336V464H144V424Z" fill="#D68029"/>
<path d="M304 344H288V408C288 410.122 288.843 412.157 290.343 413.657C291.843 415.157 293.878 416 296 416H336V400H304V344ZM432 256H448V336H432V256ZM456 40H472V56H456V40ZM424 40H440V56H424V40ZM320 160H336V176H320V160ZM288 160H304V176H288V160ZM200 256H216V272H200V256ZM168 256H184V272H168V256Z" fill="#D68029"/>
</svg>
