<svg width="512" height="512" viewBox="0 0 512 512" fill="none" xmlns="http://www.w3.org/2000/svg">
<path d="M205.799 225.43H149.947C147.826 225.43 145.791 226.273 144.29 227.773C142.79 229.273 141.947 231.308 141.947 233.43V396.718C141.947 398.839 142.79 400.874 144.29 402.374C145.791 403.875 147.826 404.718 149.947 404.718H205.799C207.921 404.718 209.956 403.875 211.456 402.374C212.956 400.874 213.799 398.839 213.799 396.718V233.43C213.799 231.308 212.956 229.273 211.456 227.773C209.956 226.273 207.921 225.43 205.799 225.43ZM197.799 388.718H157.947V241.43H197.799V388.718ZM102.091 281.568H46.2393C44.1175 281.568 42.0827 282.41 40.5824 283.911C39.0821 285.411 38.2393 287.446 38.2393 289.568V396.716C38.2393 398.837 39.0821 400.872 40.5824 402.372C42.0827 403.873 44.1175 404.716 46.2393 404.716H102.091C104.213 404.716 106.248 403.873 107.748 402.372C109.248 400.872 110.091 398.837 110.091 396.716V289.568C110.091 287.446 109.248 285.411 107.748 283.911C106.248 282.41 104.213 281.568 102.091 281.568ZM94.0913 388.717H54.2393V297.569H94.0913V388.717ZM402.086 36.8946C350.075 83.0907 292.662 124.219 231.158 159.275C173.02 192.412 109.713 220.994 42.9923 244.229C42.1466 244.525 41.2572 244.676 40.3613 244.676C38.4698 244.677 36.6391 244.008 35.194 242.788C33.7489 241.568 32.7829 239.875 32.4675 238.01C32.1521 236.145 32.5077 234.228 33.4711 232.601C34.4346 230.973 35.9436 229.739 37.7303 229.119C172.866 182.057 291.661 113.49 391.147 25.2086L368.98 26.4126C364.557 26.6626 360.798 23.2686 360.558 18.8576C360.501 17.8086 360.652 16.7586 361 15.7675C361.349 14.7765 361.89 13.8639 362.591 13.0819C363.293 12.2998 364.142 11.6636 365.089 11.2096C366.037 10.7555 367.064 10.4925 368.113 10.4356L412.779 8.01065C413.962 7.94683 415.144 8.14637 416.24 8.59487C417.337 9.04337 418.32 9.72964 419.119 10.6042C419.917 11.4787 420.512 12.5196 420.86 13.6519C421.208 14.7842 421.3 15.9795 421.129 17.1516L414.684 61.4176C414.378 63.5168 413.251 65.4085 411.551 66.6768C409.85 67.9452 407.716 68.4865 405.616 68.1816C403.517 67.876 401.625 66.7489 400.356 65.0484C399.088 63.3478 398.547 61.2131 398.852 59.1136L402.086 36.8946ZM421.213 281.032V122.075C421.213 119.953 420.37 117.918 418.87 116.418C417.37 114.918 415.335 114.075 413.213 114.075H357.36C355.239 114.075 353.204 114.918 351.703 116.418C350.203 117.918 349.36 119.953 349.36 122.075V264.435C338.462 265.359 327.744 267.781 317.506 271.63V174.808C317.506 172.686 316.663 170.651 315.163 169.151C313.663 167.65 311.628 166.808 309.506 166.808H253.654C251.533 166.808 249.498 167.65 247.997 169.151C246.497 170.651 245.654 172.686 245.654 174.808V346.439C241.654 358.555 239.62 371.235 239.629 383.995C239.63 450.166 293.464 504 359.635 504C425.806 504 479.64 450.166 479.64 383.995C479.64 340.321 456.185 302.026 421.213 281.032ZM405.213 130.075V272.99C392.538 267.766 379.055 264.768 365.36 264.13V130.075H405.213ZM261.655 182.809H301.507V279.041C285.72 287.827 272.102 300.039 261.655 314.781V182.809ZM359.635 488C302.286 488 255.63 441.344 255.63 383.995C255.63 326.646 302.286 279.99 359.635 279.99C416.984 279.99 463.64 326.646 463.64 383.995C463.64 441.344 416.983 488 359.635 488ZM359.636 288.652C307.064 288.652 264.292 331.423 264.292 383.995C264.292 436.567 307.063 479.338 359.636 479.338C412.209 479.338 454.979 436.567 454.979 383.995C454.979 331.423 412.208 288.652 359.636 288.652ZM359.636 463.338C315.886 463.338 280.292 427.745 280.292 383.995C280.292 340.245 315.886 304.652 359.636 304.652C403.386 304.652 438.979 340.245 438.979 383.995C438.979 427.745 403.386 463.338 359.636 463.338ZM388.626 400.733C388.101 401.643 387.402 402.44 386.569 403.08C385.735 403.72 384.784 404.189 383.769 404.461C382.754 404.733 381.696 404.802 380.654 404.665C379.612 404.528 378.608 404.186 377.698 403.661L355.636 390.923C354.42 390.221 353.41 389.211 352.708 387.995C352.006 386.779 351.636 385.399 351.636 383.995V350.949C351.636 348.827 352.479 346.792 353.979 345.292C355.48 343.791 357.515 342.949 359.636 342.949C361.758 342.949 363.793 343.791 365.293 345.292C366.793 346.792 367.636 348.827 367.636 350.949V379.376L385.698 389.806C386.608 390.331 387.406 391.03 388.045 391.863C388.685 392.697 389.154 393.648 389.426 394.663C389.698 395.677 389.767 396.736 389.63 397.777C389.493 398.819 389.152 399.823 388.626 400.733ZM351.636 321.992V314.454C351.636 312.332 352.479 310.297 353.979 308.797C355.48 307.296 357.515 306.454 359.636 306.454C361.758 306.454 363.793 307.296 365.293 308.797C366.793 310.297 367.636 312.332 367.636 314.454V321.992C367.636 324.113 366.793 326.148 365.293 327.648C363.793 329.149 361.758 329.992 359.636 329.992C357.515 329.992 355.48 329.149 353.979 327.648C352.479 326.148 351.636 324.113 351.636 321.992ZM397.821 345.81C397.078 345.067 396.489 344.185 396.087 343.214C395.685 342.244 395.478 341.203 395.478 340.153C395.478 339.102 395.685 338.062 396.087 337.091C396.489 336.12 397.078 335.238 397.821 334.496L403.151 329.166C404.652 327.665 406.686 326.822 408.808 326.822C410.93 326.822 412.965 327.665 414.465 329.166C415.966 330.666 416.808 332.701 416.808 334.823C416.808 336.944 415.966 338.979 414.465 340.48L409.135 345.81C407.573 347.372 405.526 348.153 403.478 348.153C401.43 348.153 399.384 347.371 397.821 345.81ZM414.466 427.513C415.585 428.632 416.346 430.057 416.655 431.609C416.964 433.16 416.805 434.769 416.199 436.23C415.594 437.692 414.569 438.941 413.253 439.82C411.938 440.699 410.391 441.168 408.809 441.169C407.758 441.17 406.718 440.964 405.747 440.562C404.776 440.159 403.894 439.569 403.152 438.825L397.822 433.494C397.066 432.754 396.464 431.871 396.051 430.897C395.638 429.923 395.422 428.876 395.416 427.818C395.41 426.76 395.614 425.712 396.017 424.733C396.419 423.754 397.011 422.865 397.76 422.117C398.508 421.369 399.397 420.777 400.376 420.374C401.355 419.972 402.403 419.768 403.461 419.774C404.52 419.78 405.566 419.996 406.54 420.41C407.514 420.823 408.397 421.425 409.136 422.182L414.466 427.513ZM321.448 422.181C322.948 423.681 323.791 425.715 323.792 427.837C323.792 429.958 322.949 431.993 321.449 433.494L316.119 438.825C315.377 439.569 314.495 440.159 313.525 440.561C312.554 440.963 311.513 441.17 310.462 441.169C309.412 441.17 308.371 440.964 307.4 440.562C306.43 440.16 305.548 439.57 304.806 438.826C303.306 437.326 302.463 435.291 302.463 433.169C302.463 431.048 303.305 429.013 304.805 427.513L310.135 422.182C310.878 421.439 311.76 420.849 312.73 420.447C313.701 420.045 314.741 419.838 315.792 419.838C316.842 419.837 317.882 420.044 318.853 420.446C319.824 420.848 320.705 421.438 321.448 422.181ZM321.449 334.495C322.95 335.995 323.792 338.03 323.792 340.152C323.792 342.273 322.95 344.308 321.449 345.809C319.949 347.309 317.914 348.152 315.792 348.152C313.67 348.152 311.636 347.309 310.135 345.809L304.805 340.479C303.305 338.978 302.462 336.943 302.462 334.822C302.462 332.7 303.305 330.665 304.805 329.165C306.306 327.664 308.34 326.821 310.462 326.821C312.584 326.821 314.619 327.664 316.119 329.165L321.449 334.495ZM437.177 383.995C437.177 386.116 436.334 388.151 434.834 389.651C433.334 391.152 431.299 391.995 429.177 391.995H421.639C419.518 391.995 417.483 391.152 415.982 389.651C414.482 388.151 413.639 386.116 413.639 383.995C413.639 381.873 414.482 379.838 415.982 378.338C417.483 376.837 419.518 375.995 421.639 375.995H429.177C431.299 375.995 433.334 376.837 434.834 378.338C436.334 379.838 437.177 381.873 437.177 383.995ZM367.636 445.998V453.536C367.636 455.657 366.793 457.692 365.293 459.192C363.793 460.693 361.758 461.536 359.636 461.536C357.515 461.536 355.48 460.693 353.979 459.192C352.479 457.692 351.636 455.657 351.636 453.536V445.998C351.636 443.876 352.479 441.841 353.979 440.341C355.48 438.84 357.515 437.998 359.636 437.998C361.758 437.998 363.793 438.84 365.293 440.341C366.793 441.841 367.636 443.876 367.636 445.998ZM297.632 391.995H290.094C287.973 391.995 285.938 391.152 284.437 389.651C282.937 388.151 282.094 386.116 282.094 383.995C282.094 381.873 282.937 379.838 284.437 378.338C285.938 376.837 287.973 375.995 290.094 375.995H297.632C299.754 375.995 301.789 376.837 303.289 378.338C304.789 379.838 305.632 381.873 305.632 383.995C305.632 386.116 304.789 388.151 303.289 389.651C301.789 391.152 299.754 391.995 297.632 391.995Z" fill="#D68029"/>
</svg>
