<svg width="512" height="512" viewBox="0 0 512 512" fill="none" xmlns="http://www.w3.org/2000/svg">
<path d="M426.128 221.963C429.554 233.092 439.931 241.204 452.169 241.204C467.19 241.204 479.411 228.984 479.411 213.963C479.411 198.942 467.19 186.721 452.169 186.721C439.932 186.721 429.554 194.834 426.128 205.963H371.447V176.729H417.136C419.229 176.729 421.24 175.908 422.735 174.443L439.171 158.34C443.158 160.515 447.628 161.652 452.17 161.647C467.191 161.647 479.411 149.427 479.411 134.406C479.411 119.385 467.19 107.164 452.17 107.164C437.149 107.164 424.928 119.385 424.928 134.406C424.928 138.911 426.034 143.16 427.978 146.907L413.871 160.728H371.447V144.619C371.447 144.23 371.432 143.844 371.418 143.458L403.489 131.592C405.27 130.933 406.759 129.662 407.689 128.006L429.927 88.4C431.788 88.803 433.719 89.021 435.699 89.021C450.72 89.021 462.94 76.8 462.94 61.779C462.94 46.758 450.719 34.537 435.699 34.537C420.678 34.537 408.457 46.758 408.457 61.779C408.457 69.05 411.326 75.66 415.985 80.55L395.178 117.607L366.679 128.151C361.196 119.472 351.522 113.691 340.519 113.691H337.138V82.836C337.139 37.712 300.427 1 255.302 1C210.176 1 173.464 37.712 173.464 82.836V113.691H170.083C159.257 113.691 149.719 119.287 144.191 127.733L116.821 117.607L96.0149 80.551C100.674 75.661 103.543 69.051 103.543 61.78C103.543 46.759 91.3219 34.538 76.3009 34.538C61.2799 34.538 49.0599 46.759 49.0599 61.78C49.0599 76.801 61.2799 89.021 76.3009 89.021C78.2809 89.021 80.2109 88.803 82.0729 88.4L104.311 128.006C105.241 129.662 106.73 130.933 108.511 131.592L139.202 142.947C139.172 143.501 139.155 144.058 139.155 144.619V160.728H98.1289L84.0219 146.907C86.0287 143.046 87.0749 138.758 87.0719 134.406C87.0719 119.385 74.8509 107.164 59.8299 107.164C44.8089 107.164 32.5889 119.385 32.5889 134.406C32.5889 149.427 44.8099 161.647 59.8299 161.647C64.5339 161.647 68.9629 160.448 72.8289 158.34L89.2649 174.443C90.7602 175.908 92.7703 176.729 94.8639 176.729H139.156V205.963H85.8719C82.4459 194.834 72.0689 186.721 59.8299 186.721C44.8089 186.721 32.5889 198.942 32.5889 213.963C32.5889 228.984 44.8099 241.204 59.8299 241.204C72.0679 241.204 82.4449 233.092 85.8719 221.963H139.156V251.197H94.8629C92.7693 251.197 90.7592 252.018 89.2639 253.483L72.8279 269.585C68.8409 267.41 64.3707 266.272 59.8289 266.278C44.8079 266.278 32.5879 278.499 32.5879 293.52C32.5879 308.541 44.8089 320.762 59.8289 320.762C74.8499 320.762 87.0709 308.541 87.0709 293.52C87.0709 289.015 85.9649 284.766 84.0209 281.019L98.1279 267.198H139.154V283.308C139.154 284.351 139.208 285.382 139.309 286.399L108.831 296.222C106.912 296.841 105.297 298.162 104.31 299.92L82.0719 339.526C80.1755 339.114 78.2405 338.906 76.2999 338.905C61.2789 338.905 49.0589 351.125 49.0589 366.146C49.0589 381.167 61.2799 393.388 76.2999 393.388C91.3209 393.388 103.542 381.167 103.542 366.146C103.542 358.875 100.673 352.265 96.0139 347.375L116.725 310.488L145.004 301.374C150.626 309.156 159.77 314.235 170.083 314.235H229.211V354.56L211.203 331.581C199.399 316.519 183.845 315.799 174.391 321.501C164.864 327.246 158.679 340.709 166.338 357.834C179.665 387.633 192.164 408.23 202.208 424.78C215.304 446.361 223.986 460.67 226.346 480.917V503C226.346 505.122 227.189 507.157 228.689 508.657C230.189 510.157 232.224 511 234.346 511H360.913C363.035 511 365.069 510.157 366.57 508.657C368.07 507.157 368.913 505.122 368.913 503V482.912C386.886 455.383 389.62 414.039 389.621 391.485L389.622 366.976C389.622 352.611 377.935 340.924 363.571 340.924C359.585 340.924 355.803 341.824 352.422 343.432C349.196 332.707 339.23 324.872 327.468 324.872C323.532 324.872 319.797 325.749 316.448 327.319C314.984 322.113 311.926 317.577 307.853 314.234H340.519C350.993 314.234 360.261 308.996 365.858 301.007L395.274 310.487L415.984 347.374C411.325 352.264 408.456 358.874 408.456 366.145C408.456 381.166 420.677 393.387 435.698 393.387C450.719 393.387 462.939 381.166 462.939 366.145C462.939 351.124 450.718 338.904 435.698 338.904C433.718 338.904 431.788 339.122 429.926 339.525L407.688 299.918C406.7 298.16 405.086 296.839 403.167 296.22L371.325 285.958C371.403 285.076 371.444 284.191 371.447 283.306V267.196H413.871L427.978 281.017C425.971 284.878 424.925 289.166 424.928 293.518C424.928 308.539 437.149 320.76 452.17 320.76C467.191 320.76 479.411 308.539 479.411 293.518C479.411 278.497 467.19 266.276 452.17 266.276C447.628 266.27 443.158 267.408 439.171 269.583L422.735 253.481C421.24 252.016 419.229 251.195 417.136 251.195H371.447V221.961H426.128V221.963ZM452.169 202.721C458.368 202.721 463.411 207.764 463.411 213.963C463.411 220.161 458.368 225.204 452.169 225.204C445.971 225.204 440.928 220.161 440.928 213.963C440.928 207.764 445.971 202.721 452.169 202.721ZM452.17 123.164C458.368 123.164 463.411 128.207 463.411 134.406C463.411 140.604 458.368 145.647 452.17 145.647C445.971 145.647 440.928 140.604 440.928 134.406C440.928 128.207 445.971 123.164 452.17 123.164ZM435.699 50.538C441.897 50.538 446.94 55.581 446.94 61.78C446.94 67.979 441.897 73.022 435.699 73.022C429.5 73.022 424.457 67.979 424.457 61.78C424.457 55.581 429.5 50.538 435.699 50.538ZM65.0599 61.78C65.0599 55.581 70.1029 50.538 76.3009 50.538C82.4999 50.538 87.5429 55.581 87.5429 61.78C87.5429 67.979 82.4999 73.021 76.3009 73.021C70.1029 73.021 65.0599 67.979 65.0599 61.78ZM59.8299 145.647C53.6319 145.647 48.5889 140.604 48.5889 134.406C48.5889 128.207 53.6319 123.164 59.8299 123.164C66.0289 123.164 71.0719 128.207 71.0719 134.406C71.0719 140.604 66.0289 145.647 59.8299 145.647ZM59.8299 225.204C53.6319 225.204 48.5889 220.161 48.5889 213.963C48.5889 207.764 53.6319 202.721 59.8299 202.721C66.0289 202.721 71.0719 207.764 71.0719 213.963C71.0719 220.161 66.0289 225.204 59.8299 225.204ZM59.8299 304.762C53.6319 304.762 48.5889 299.719 48.5889 293.52C48.5889 287.321 53.6319 282.278 59.8299 282.278C66.0289 282.278 71.0719 287.321 71.0719 293.52C71.0719 299.719 66.0289 304.762 59.8299 304.762ZM76.3009 377.387C70.1029 377.387 65.0599 372.344 65.0599 366.145C65.0599 359.947 70.1029 354.904 76.3009 354.904C82.4999 354.904 87.5429 359.947 87.5429 366.145C87.5429 372.344 82.4999 377.387 76.3009 377.387ZM446.94 366.146C446.94 372.345 441.897 377.388 435.699 377.388C429.5 377.388 424.457 372.345 424.457 366.146C424.457 359.948 429.5 354.905 435.699 354.905C441.897 354.904 446.94 359.947 446.94 366.146ZM452.17 282.278C458.368 282.278 463.411 287.321 463.411 293.52C463.411 299.719 458.368 304.762 452.17 304.762C445.971 304.762 440.928 299.719 440.928 293.52C440.928 287.321 445.971 282.278 452.17 282.278ZM189.464 82.836C189.464 46.534 218.999 17 255.302 17C291.605 17 321.139 46.534 321.139 82.836V113.691H302.044V82.836C302.044 57.063 281.075 36.094 255.302 36.094C229.528 36.094 208.559 57.062 208.559 82.836V113.691H189.464V82.836ZM286.044 113.692H224.559V82.836C224.559 65.885 238.35 52.094 255.302 52.094C272.253 52.094 286.044 65.885 286.044 82.836V113.692ZM266.282 214.986C262.834 213.368 259.071 212.53 255.262 212.533C251.343 212.533 247.626 213.408 244.288 214.965C241.571 213.158 239.344 210.706 237.804 207.83C236.264 204.953 235.46 201.74 235.463 198.477C235.463 187.539 244.362 178.64 255.301 178.64C266.24 178.64 275.138 187.539 275.138 198.477C275.141 201.746 274.334 204.965 272.788 207.846C271.243 210.727 269.007 213.18 266.282 214.986ZM242.346 495V488.462H352.913V495H242.346ZM327.468 340.873C333.011 340.873 337.52 345.382 337.52 350.924V375.764C337.52 377.886 338.363 379.921 339.863 381.421C341.363 382.921 343.398 383.764 345.52 383.764C347.642 383.764 349.676 382.921 351.177 381.421C352.677 379.921 353.52 377.886 353.52 375.764V366.976C353.52 361.434 358.029 356.924 363.572 356.924C369.114 356.924 373.623 361.433 373.623 366.975L373.622 391.483C373.621 407.842 371.895 447.361 356.574 472.461H241.232C237.526 452.188 228.256 436.864 215.885 416.478C206.073 400.309 193.862 380.186 180.943 351.3C177.718 344.091 178.389 337.772 182.652 335.201C186.39 332.948 192.774 334.003 198.609 341.449L230.914 382.67C231.941 383.98 233.351 384.938 234.947 385.409C236.544 385.88 238.248 385.841 239.821 385.298C241.395 384.755 242.76 383.734 243.726 382.379C244.692 381.023 245.211 379.4 245.211 377.735V238.585C245.211 233.043 249.72 228.533 255.263 228.533C260.805 228.533 265.314 233.042 265.314 238.585L265.313 369.293C265.313 371.415 266.156 373.45 267.656 374.95C269.156 376.45 271.191 377.293 273.313 377.293C275.435 377.293 277.469 376.45 278.97 374.95C280.47 373.45 281.313 371.415 281.313 369.293V334.364C281.313 328.822 285.822 324.312 291.365 324.312C296.908 324.312 301.417 328.821 301.417 334.364V375.764C301.417 377.886 302.26 379.921 303.76 381.421C305.26 382.921 307.295 383.764 309.417 383.764C311.539 383.764 313.573 382.921 315.074 381.421C316.574 379.921 317.417 377.886 317.417 375.764V350.924C317.416 345.381 321.925 340.873 327.468 340.873ZM355.447 283.307C355.447 291.538 348.751 298.234 340.519 298.234H281.312L281.313 238.585C281.318 234.225 280.222 229.935 278.126 226.112C282.202 222.753 285.483 218.533 287.733 213.755C289.983 208.976 291.146 203.759 291.138 198.477C291.138 178.716 275.062 162.64 255.301 162.64C235.54 162.64 219.463 178.717 219.463 198.477C219.455 203.747 220.613 208.953 222.854 213.723C225.094 218.493 228.362 222.708 232.423 226.067C230.311 229.901 229.205 234.208 229.21 238.585V298.234H170.082C161.851 298.234 155.154 291.538 155.154 283.307V144.619C155.154 136.388 161.85 129.692 170.082 129.692H340.52C348.751 129.692 355.448 136.388 355.448 144.619V283.307H355.447Z" fill="#D68029"/>
</svg>
