<svg width="512" height="512" viewBox="0 0 512 512" fill="none" xmlns="http://www.w3.org/2000/svg">
<path d="M491.67 344.847C484.894 326.023 463.811 316.988 445.741 324.517L337.317 370.447C338.07 367.435 338.07 364.423 338.07 361.412C338.07 338.823 320 321.506 298.164 321.506H242.447L229.647 307.953C215.341 292.894 194.259 283.859 173.176 283.859H125.741C121.976 275.576 113.694 269.553 104.659 269.553H24.8468C21.0821 269.553 18.0703 272.565 18.0703 276.329V471.341C18.0703 475.106 21.0821 478.117 24.8468 478.117H103.906C115.953 478.117 125.741 469.082 126.494 457.035L216.094 491.67C234.164 498.447 253.741 497.694 271.059 490.164L468.329 398.306C488.659 389.27 498.447 365.929 491.67 344.847ZM72.2821 439.717C63.9997 439.717 57.2233 432.941 57.2233 424.659C57.2233 416.376 63.9997 409.6 72.2821 409.6C80.5644 409.6 87.3409 416.376 87.3409 424.659C87.3409 432.941 80.5644 439.717 72.2821 439.717ZM221.364 478.87L127.247 441.976V298.164H172.423C189.741 298.164 206.306 304.941 218.353 317.741L233.411 333.553C234.917 335.059 236.423 335.812 238.682 335.812H298.164C312.47 335.812 323.764 347.106 323.764 361.412C323.764 375.717 312.47 387.012 298.164 387.012H225.882C222.117 387.012 218.353 390.023 218.353 394.541C218.353 398.306 221.364 402.07 225.882 402.07H298.164C307.953 402.07 316.988 398.306 324.517 392.282L451.764 338.07C462.306 333.553 474.353 338.823 478.117 349.365C483.388 363.67 476.611 378.729 463.059 385.506L265.035 477.365C251.482 483.388 235.67 484.141 221.364 478.87Z" fill="#D68029"/>
<path d="M198.023 250.729C196.517 252.988 196.517 256.753 198.776 259.012C200.281 261.27 203.293 262.776 206.305 262.023L242.446 252.988L252.234 288.376C252.987 291.388 255.246 293.647 258.258 293.647H259.011C261.27 293.647 264.281 292.141 265.034 289.882L292.893 241.694C298.917 242.447 304.94 242.447 311.717 241.694L339.576 289.882C341.081 292.141 343.34 293.647 345.599 293.647H346.352C349.364 293.647 351.623 291.388 352.376 288.376L362.164 252.988L398.305 262.023C401.317 262.776 404.328 262.023 405.834 259.012C407.34 256.753 408.093 253.741 406.587 250.729L381.74 208.564C402.07 188.235 414.87 159.623 414.87 128.753C416.376 66.2586 365.928 15.0586 303.434 15.0586C240.94 15.0586 189.74 66.2586 189.74 128.753C189.74 159.623 202.54 188.235 222.87 208.564L198.023 250.729ZM303.434 29.3645C357.646 29.3645 402.07 73.788 402.07 128C402.07 153.6 392.281 176.941 375.717 195.012C315.481 260.517 204.046 218.353 204.046 128C204.799 73.788 248.47 29.3645 303.434 29.3645Z" fill="#D68029"/>
<path d="M303.436 207.812C347.106 207.812 382.495 172.424 382.495 128.753C382.495 85.0826 347.106 49.6943 303.436 49.6943C259.765 49.6943 224.377 85.0826 224.377 128.753C224.377 171.671 259.765 207.812 303.436 207.812ZM266.542 109.93L282.353 107.671C285.365 107.671 287.624 105.412 288.377 103.153L295.153 88.8473C298.165 82.8237 307.2 82.8237 310.212 88.8473L316.989 103.153C318.495 105.412 320.753 107.671 323.012 107.671L338.824 109.93C345.6 110.683 348.612 119.718 343.342 124.236L332.048 134.777C329.789 137.036 329.036 139.294 329.789 142.306C329.789 143.059 332.8 158.871 332.048 158.118C333.553 164.894 326.024 170.165 320 167.153C319.248 166.4 305.695 159.624 306.448 159.624C304.189 158.118 301.177 158.118 298.918 159.624C298.165 160.377 283.859 167.153 285.365 167.153C279.342 170.165 271.812 164.894 273.318 158.118C273.318 157.365 276.33 141.553 275.577 142.306C276.33 139.294 274.824 137.036 273.318 134.777L262.024 124.236C257.506 118.965 259.765 110.683 266.542 109.93Z" fill="#D68029"/>
</svg>
