<svg width="512" height="512" viewBox="0 0 512 512" fill="none" xmlns="http://www.w3.org/2000/svg">
<path d="M120.008 15.9951C98.7894 15.9945 78.0782 22.4832 60.6531 34.5908C51.5821 40.6381 60.9555 54.1237 69.7544 47.7438C87.8116 35.2037 109.909 29.8776 131.697 32.8141C153.484 35.7505 173.383 46.7368 187.476 63.61C201.569 80.4832 208.835 102.021 207.844 123.983C206.852 145.945 197.675 166.741 182.119 182.275C166.563 197.81 145.755 206.958 123.791 207.92C101.828 208.881 80.3002 201.585 63.4464 187.469C46.5926 173.353 35.6337 153.439 32.7272 131.648C29.8206 109.856 35.1771 87.7659 47.742 69.7259C54.1522 60.927 40.6363 51.5536 34.6192 60.6247C21.3326 79.7308 14.8371 102.741 16.1716 125.974C17.506 149.208 26.5933 171.323 41.9801 188.782C57.3669 206.241 78.1642 218.036 101.046 222.28C123.927 226.524 147.571 222.972 168.196 212.193C188.82 201.413 205.234 184.028 214.812 162.819C224.39 141.609 226.578 117.8 221.028 95.2003C215.477 72.6001 202.507 52.5143 184.194 38.1553C165.88 23.7962 143.28 15.9935 120.008 15.9951ZM120.008 47.895C115.986 47.895 111.995 50.5558 111.995 55.9077V65.0997C105.153 66.8805 99.092 70.8735 94.7552 76.4571C90.4185 82.0408 88.0496 88.9016 88.0174 95.9715C88.0334 104.446 91.4048 112.569 97.3942 118.564C103.384 124.559 111.503 127.938 119.978 127.962C128.898 127.962 135.973 135.037 135.973 143.988C135.973 152.907 128.898 160.013 119.948 160.013C117.846 160.021 115.765 159.611 113.823 158.807C111.882 158.003 110.12 156.821 108.64 155.33C107.16 153.839 105.991 152.068 105.202 150.121C104.413 148.173 104.019 146.089 104.043 143.988C104.285 133.072 87.7755 133.072 88.0174 143.988C88.0174 158.804 98.2979 171.261 111.995 174.829V183.961C111.995 194.634 128.021 194.634 128.021 183.961V174.829C141.718 171.201 151.999 158.773 151.999 143.988C151.999 126.39 137.545 111.967 119.948 111.967C117.848 111.979 115.767 111.573 113.826 110.772C111.885 109.972 110.122 108.792 108.642 107.303C107.161 105.814 105.992 104.046 105.203 102.1C104.413 100.154 104.019 98.0711 104.043 95.9715C104.043 87.0516 111.028 79.946 119.978 79.946C128.898 79.946 135.973 87.0516 135.973 95.9715C135.973 106.645 151.999 106.645 151.999 95.9715C151.999 81.1555 141.718 68.7281 127.99 65.1299V55.9077C127.99 50.5558 123.999 47.895 120.008 47.895ZM391.988 63.9507H437.767C418.445 88.4123 260.518 279.993 47.9839 279.993C37.0986 279.751 37.0986 296.23 47.9839 296.018C260.7 296.018 417.72 114.507 448.017 76.8618V120.01C448.289 130.441 463.801 130.441 464.042 120.01V55.9984C464.039 54.9462 463.827 53.905 463.421 52.9344C463.015 51.9637 462.421 51.0826 461.674 50.3414C460.927 49.6001 460.042 49.0133 459.068 48.6143C458.094 48.2152 457.052 48.0119 455.999 48.0159H391.595C381.405 49.2254 382.101 63.6786 391.988 63.9507ZM24.0061 496.035H488.02C498.905 496.246 498.905 479.767 488.02 480.009H464.042V279.993C464.042 277.868 463.198 275.83 461.696 274.327C460.193 272.824 458.155 271.98 456.03 271.98C453.905 271.98 451.867 272.824 450.364 274.327C448.861 275.83 448.017 277.868 448.017 279.993V480.009H400.031V223.994H448.047V247.972C448.047 258.646 464.042 258.646 464.042 247.972V215.981C464.039 214.929 463.827 213.888 463.421 212.917C463.015 211.947 462.421 211.066 461.674 210.324C460.927 209.583 460.042 208.996 459.068 208.597C458.094 208.198 457.052 207.995 455.999 207.999H391.988C389.873 208.007 387.848 208.85 386.352 210.346C384.857 211.841 384.014 213.867 384.006 215.981V480.009H352.015V279.993C351.999 277.883 351.152 275.865 349.658 274.377C348.163 272.888 346.142 272.048 344.033 272.04H279.628C277.579 272.141 275.646 273.02 274.224 274.498C272.802 275.976 271.999 277.942 271.978 279.993V480.009H239.957V344.004C239.957 341.889 239.122 339.86 237.632 338.359C236.142 336.859 234.12 336.007 232.005 335.991H167.994C165.874 335.999 163.844 336.847 162.347 338.349C160.851 339.851 160.011 341.884 160.011 344.004V480.009H127.99V408.046C127.994 406.991 127.79 405.946 127.389 404.97C126.988 403.994 126.399 403.107 125.654 402.36C124.91 401.613 124.025 401.02 123.051 400.616C122.077 400.211 121.033 400.003 119.978 400.003H56.0269C54.9721 399.999 53.9269 400.203 52.9512 400.604C51.9756 401.005 51.0887 401.594 50.3414 402.339C49.5942 403.083 49.0013 403.968 48.5967 404.942C48.1921 405.916 47.9839 406.961 47.9839 408.015V480.009H23.5828C12.7882 480.795 13.5744 496.307 24.0061 496.035ZM287.973 288.005H336.02V480.009H287.973V288.005ZM176.007 351.987H224.053V480.009H176.007V351.987ZM63.9791 415.998H111.995V480.009H63.9791V415.998Z" fill="#D68029"/>
</svg>
