<svg width="512" height="512" viewBox="0 0 512 512" fill="none" xmlns="http://www.w3.org/2000/svg">
<path d="M348.751 268.712C348.911 268.184 349.511 267.816 350.351 267.816C355.018 267.816 359.495 265.962 362.796 262.661C366.096 259.36 367.951 254.884 367.951 250.216V229.816C367.951 225.148 366.096 220.672 362.796 217.371C359.495 214.07 355.018 212.216 350.351 212.216C349.985 212.232 349.624 212.133 349.317 211.934C349.01 211.734 348.773 211.444 348.639 211.104C346.896 205.54 344.655 200.145 341.943 194.984C341.791 194.646 341.749 194.268 341.824 193.905C341.899 193.542 342.086 193.211 342.359 192.96L342.615 192.696C345.828 189.375 347.606 184.924 347.565 180.304C347.525 175.683 345.669 171.264 342.399 168L327.999 153.6C326.367 151.959 324.425 150.658 322.287 149.773C320.149 148.887 317.857 148.434 315.543 148.44C310.999 148.429 306.63 150.191 303.367 153.352L303.095 153.608C302.842 153.879 302.512 154.064 302.149 154.139C301.786 154.213 301.409 154.173 301.071 154.024C295.91 151.312 290.514 149.071 284.951 147.328C284.61 147.194 284.32 146.957 284.121 146.65C283.922 146.343 283.823 145.982 283.839 145.616C283.839 143.305 283.383 141.016 282.499 138.881C281.614 136.745 280.318 134.805 278.684 133.171C277.049 131.537 275.109 130.24 272.974 129.356C270.838 128.471 268.55 128.016 266.239 128.016H255.999C226.294 128.016 197.807 139.816 176.803 160.82C155.799 181.824 143.999 210.312 143.999 240.016C143.999 269.72 155.799 298.208 176.803 319.212C197.807 340.216 226.294 352.016 255.999 352.016H266.199C268.51 352.016 270.798 351.561 272.934 350.676C275.069 349.792 277.009 348.495 278.644 346.861C280.278 345.227 281.574 343.287 282.459 341.151C283.343 339.016 283.799 336.727 283.799 334.416C283.783 334.05 283.882 333.689 284.081 333.382C284.28 333.075 284.57 332.838 284.911 332.704C290.474 330.961 295.87 328.72 301.031 326.008C301.369 325.859 301.746 325.819 302.109 325.893C302.472 325.968 302.802 326.153 303.055 326.424L303.319 326.68C306.588 329.838 310.957 331.599 315.503 331.592C317.826 331.599 320.127 331.144 322.273 330.252C324.418 329.361 326.364 328.051 327.999 326.4L342.399 312C345.657 308.743 347.508 304.338 347.554 299.731C347.6 295.124 345.838 290.682 342.647 287.36L342.391 287.088C342.117 286.836 341.93 286.504 341.855 286.139C341.78 285.774 341.822 285.396 341.975 285.056C344.727 279.826 346.996 274.355 348.751 268.712ZM202.319 160.568C205.063 161.256 207.807 161.936 210.743 162.52C206.849 170.084 203.685 178.003 201.295 186.168C194.287 184.784 187.377 182.948 180.607 180.672C186.764 172.891 194.088 166.109 202.319 160.568ZM171.607 285.6C163.997 271.608 160.005 255.936 159.994 240.008C159.983 224.081 163.953 208.403 171.543 194.4C179.966 197.509 188.619 199.956 197.423 201.72C192.532 227.01 192.516 253 197.375 278.296C188.605 280.044 179.989 282.486 171.607 285.6ZM202.327 319.472C194.101 313.914 186.778 307.126 180.615 299.344C187.372 297.066 194.272 295.238 201.271 293.872C203.649 302.035 206.816 309.947 210.727 317.496C207.767 318.04 205.063 318.744 202.327 319.44V319.472ZM247.999 335.672C240.617 335.028 233.336 333.525 226.303 331.192C233.183 330.336 240.495 329.848 247.999 329.592V335.672ZM247.999 313.6C241.055 313.8 234.255 314.216 227.735 314.936C223.273 307.483 219.74 299.512 217.215 291.2C227.427 289.875 237.703 289.093 247.999 288.856V313.6ZM247.999 272.8C236.365 273.045 224.754 273.95 213.223 275.512C208.598 252.017 208.598 227.847 213.223 204.352C224.761 205.932 236.38 206.848 248.023 207.096L247.999 272.8ZM247.999 191.096C237.687 190.866 227.395 190.087 217.167 188.76C219.717 180.423 223.274 172.428 227.759 164.952C234.485 165.67 241.237 166.121 247.999 166.304V191.096ZM247.999 150.296C240.676 150.114 233.366 149.58 226.095 148.696C233.201 146.391 240.552 144.925 247.999 144.328V150.296ZM263.999 192.656C275.178 194.536 285.33 200.317 292.652 208.973C299.974 217.629 303.991 228.599 303.991 239.936C303.991 251.273 299.974 262.243 292.652 270.899C285.33 279.555 275.178 285.336 263.999 287.216V192.656ZM333.471 264C332.018 268.693 330.143 273.245 327.871 277.6C326.138 280.901 325.496 284.666 326.035 288.355C326.574 292.044 328.266 295.468 330.871 298.136L331.143 298.416C331.438 298.714 331.605 299.116 331.607 299.536C331.608 299.748 331.567 299.959 331.486 300.155C331.405 300.352 331.285 300.53 331.135 300.68L316.735 315.08C316.585 315.231 316.406 315.35 316.21 315.431C316.014 315.512 315.803 315.553 315.591 315.552C315.171 315.55 314.769 315.384 314.471 315.088L314.199 314.816C311.528 312.213 308.103 310.522 304.413 309.983C300.723 309.444 296.958 310.086 293.655 311.816C289.35 314.079 284.852 315.953 280.215 317.416C276.595 318.535 273.433 320.793 271.199 323.852C268.965 326.912 267.778 330.612 267.815 334.4C267.815 334.824 267.646 335.231 267.346 335.531C267.046 335.831 266.639 336 266.215 336H263.999V303.448C279.46 301.511 293.682 293.995 303.993 282.312C314.304 270.628 319.994 255.582 319.994 240C319.994 224.418 314.304 209.372 303.993 197.688C293.682 186.005 279.46 178.489 263.999 176.552V144H266.199C266.623 144 267.03 144.169 267.33 144.469C267.63 144.769 267.799 145.176 267.799 145.6C267.76 149.379 268.938 153.07 271.16 156.128C273.381 159.185 276.528 161.446 280.135 162.576C284.772 164.039 289.27 165.913 293.575 168.176C296.875 169.911 300.641 170.555 304.33 170.016C308.02 169.477 311.444 167.782 314.111 165.176L314.391 164.904C314.52 164.726 314.691 164.58 314.887 164.48C315.084 164.38 315.302 164.328 315.523 164.328C315.743 164.328 315.961 164.38 316.158 164.48C316.354 164.58 316.525 164.726 316.655 164.904L331.055 179.304C331.205 179.454 331.325 179.632 331.406 179.829C331.487 180.025 331.528 180.236 331.527 180.448C331.525 180.868 331.358 181.27 331.063 181.568L330.791 181.84C328.186 184.509 326.493 187.934 325.954 191.625C325.415 195.315 326.058 199.081 327.791 202.384C330.053 206.688 331.928 211.186 333.391 215.824C334.518 219.44 336.782 222.596 339.846 224.823C342.91 227.049 346.611 228.228 350.399 228.184C350.823 228.184 351.23 228.353 351.53 228.653C351.83 228.953 351.999 229.36 351.999 229.784V250.184C351.991 250.41 351.937 250.633 351.84 250.838C351.743 251.043 351.606 251.226 351.436 251.376C351.266 251.525 351.067 251.639 350.851 251.709C350.636 251.779 350.408 251.805 350.183 251.784C346.454 251.752 342.814 252.923 339.803 255.124C336.793 257.324 334.572 260.437 333.471 264ZM471.519 256C467.77 255.986 464.092 257.024 460.903 258.995C457.714 260.966 455.142 263.792 453.479 267.152L417.423 339.256L395.255 361.424L388.055 365.032L399.831 344.416C402.796 339.258 403.68 333.162 402.302 327.374C400.924 321.586 397.388 316.542 392.416 313.274C387.444 310.006 381.412 308.759 375.552 309.789C369.692 310.819 364.446 314.048 360.887 318.816L321.599 371.2C321.083 371.888 320.683 372.655 320.415 373.472L304.415 421.472C304.242 421.97 304.124 422.485 304.063 423.008L296.063 487.008C295.922 488.133 296.022 489.276 296.357 490.359C296.691 491.443 297.252 492.443 298.003 493.294C298.753 494.144 299.676 494.825 300.71 495.292C301.743 495.758 302.864 496 303.999 496H375.999C378.12 496 380.155 495.157 381.655 493.657C383.156 492.157 383.999 490.122 383.999 488V456.56C383.998 455.243 384.323 453.947 384.944 452.786C385.565 451.625 386.463 450.635 387.559 449.904L428.439 422.656C429.316 422.071 430.069 421.318 430.655 420.44L462.655 372.44C463.088 371.798 463.423 371.094 463.647 370.352L490.807 282.104C491.736 279.086 491.944 275.892 491.413 272.78C490.883 269.667 489.629 266.722 487.752 264.183C485.876 261.643 483.429 259.58 480.61 258.159C477.79 256.737 474.676 255.998 471.519 256ZM475.519 277.4L448.695 364.528L418.231 410.232L378.687 436.592C375.396 438.78 372.697 441.748 370.832 445.232C368.967 448.717 367.994 452.608 367.999 456.56V480H313.063L319.839 425.784L335.199 379.76L373.711 328.424C374.829 326.923 376.479 325.905 378.323 325.58C380.167 325.254 382.066 325.645 383.631 326.673C385.196 327.701 386.309 329.288 386.744 331.109C387.178 332.93 386.9 334.849 385.967 336.472L361.055 380C360.172 381.491 359.798 383.229 359.988 384.951C360.178 386.673 360.922 388.287 362.109 389.55C363.295 390.813 364.859 391.657 366.566 391.955C368.273 392.252 370.031 391.987 371.575 391.2L403.575 375.2C404.344 374.814 405.047 374.306 405.655 373.696L429.655 349.696C430.265 349.088 430.772 348.386 431.159 347.616L467.791 274.344C468.127 273.641 468.656 273.048 469.316 272.633C469.976 272.219 470.739 271.999 471.519 272C472.172 271.999 472.817 272.151 473.401 272.445C473.985 272.738 474.492 273.165 474.882 273.69C475.271 274.216 475.531 274.825 475.642 275.469C475.752 276.114 475.71 276.775 475.519 277.4ZM83.5586 422.656L124.439 449.904C125.534 450.635 126.432 451.625 127.053 452.786C127.674 453.947 127.999 455.243 127.999 456.56V488C127.999 490.122 128.841 492.157 130.342 493.657C131.842 495.157 133.877 496 135.999 496H207.999C209.133 496 210.254 495.758 211.288 495.292C212.321 494.825 213.244 494.144 213.994 493.294C214.745 492.443 215.306 491.443 215.64 490.359C215.975 489.276 216.075 488.133 215.935 487.008L207.935 423.008C207.873 422.485 207.755 421.97 207.583 421.472L191.583 373.472C191.314 372.655 190.914 371.888 190.399 371.2L151.111 318.816C147.551 314.048 142.306 310.819 136.446 309.789C130.586 308.759 124.553 310.006 119.581 313.274C114.61 316.542 111.073 321.586 109.695 327.374C108.317 333.162 109.201 339.258 112.167 344.416L123.943 365.04L116.743 361.432L94.5746 339.264L58.5186 267.152C56.2518 262.629 52.3683 259.122 47.6379 257.327C42.9074 255.532 37.6753 255.581 32.9785 257.462C28.2818 259.343 24.4633 262.92 22.28 267.485C20.0966 272.049 19.7078 277.267 21.1906 282.104L48.3506 370.352C48.5743 371.094 48.9088 371.798 49.3426 372.44L81.3426 420.44C81.9279 421.318 82.681 422.071 83.5586 422.656ZM36.4946 277.4C36.3033 276.776 36.2609 276.116 36.3707 275.473C36.4805 274.83 36.7394 274.222 37.1267 273.697C37.5141 273.172 38.019 272.745 38.6011 272.45C39.1832 272.156 39.8262 272.001 40.4786 272C41.2536 271.995 42.0143 272.209 42.6736 272.616C43.3329 273.024 43.8641 273.609 44.2066 274.304L80.8386 347.576C81.2247 348.346 81.7326 349.048 82.3426 349.656L106.343 373.656C106.95 374.266 107.653 374.774 108.423 375.16L140.423 391.16C141.962 391.936 143.711 392.194 145.409 391.896C147.107 391.597 148.663 390.758 149.845 389.504C151.028 388.249 151.773 386.647 151.971 384.934C152.169 383.221 151.808 381.491 150.943 380L126.055 336.432C125.121 334.809 124.843 332.89 125.278 331.069C125.712 329.247 126.825 327.661 128.39 326.633C129.955 325.605 131.854 325.214 133.698 325.54C135.542 325.865 137.192 326.883 138.311 328.384L176.799 379.76L192.135 425.784L198.935 480H143.999V456.56C144.009 452.603 143.037 448.705 141.172 445.215C139.307 441.724 136.606 438.751 133.311 436.56L93.7666 410.2L63.3026 364.528L36.4946 277.4ZM247.999 80H263.999V112H247.999V80ZM231.999 40C231.999 44.7468 233.406 49.3869 236.043 53.3337C238.68 57.2805 242.429 60.3566 246.814 62.1731C251.2 63.9896 256.025 64.4649 260.681 63.5388C265.336 62.6128 269.613 60.327 272.969 56.9706C276.326 53.6141 278.611 49.3377 279.537 44.6822C280.463 40.0266 279.988 35.201 278.172 30.8156C276.355 26.4302 273.279 22.6819 269.332 20.0447C265.385 17.4076 260.745 16 255.999 16C249.633 16 243.529 18.5286 239.028 23.0294C234.527 27.5303 231.999 33.6348 231.999 40ZM263.999 40C263.999 41.5823 263.529 43.129 262.65 44.4446C261.771 45.7602 260.522 46.7855 259.06 47.391C257.598 47.9965 255.99 48.155 254.438 47.8463C252.886 47.5376 251.461 46.7757 250.342 45.6569C249.223 44.538 248.461 43.1126 248.152 41.5607C247.844 40.0089 248.002 38.4003 248.608 36.9385C249.213 35.4767 250.238 34.2273 251.554 33.3482C252.87 32.4692 254.416 32 255.999 32C258.12 32 260.155 32.8429 261.655 34.3431C263.156 35.8434 263.999 37.8783 263.999 40ZM319.999 99.312L333.655 85.656L322.343 74.344L306.343 90.344C304.842 91.8439 303.999 93.8784 303.999 96V128H319.999V99.312ZM383.999 56C383.999 51.2533 382.591 46.6131 379.954 42.6663C377.317 38.7195 373.568 35.6434 369.183 33.8269C364.798 32.0104 359.972 31.5351 355.316 32.4612C350.661 33.3872 346.384 35.673 343.028 39.0294C339.672 42.3859 337.386 46.6623 336.46 51.3178C335.534 55.9734 336.009 60.799 337.825 65.1844C339.642 69.5698 342.718 73.3181 346.665 75.9553C350.612 78.5924 355.252 80 359.999 80C366.364 80 372.468 77.4714 376.969 72.9706C381.47 68.4697 383.999 62.3652 383.999 56ZM359.999 64C358.416 64 356.87 63.5308 355.554 62.6518C354.238 61.7727 353.213 60.5233 352.608 59.0615C352.002 57.5997 351.844 55.9911 352.152 54.4393C352.461 52.8874 353.223 51.462 354.342 50.3431C355.461 49.2243 356.886 48.4624 358.438 48.1537C359.99 47.845 361.598 48.0035 363.06 48.609C364.522 49.2145 365.771 50.2398 366.65 51.5554C367.529 52.871 367.999 54.4178 367.999 56C367.999 58.1217 367.156 60.1566 365.655 61.6569C364.155 63.1571 362.12 64 359.999 64ZM207.999 128V96C207.998 93.8784 207.155 91.8439 205.655 90.344L189.655 74.344L178.343 85.656L191.999 99.312V128H207.999ZM175.999 56C175.999 51.2533 174.591 46.6131 171.954 42.6663C169.317 38.7195 165.568 35.6434 161.183 33.8269C156.798 32.0104 151.972 31.5351 147.316 32.4612C142.661 33.3872 138.384 35.673 135.028 39.0294C131.672 42.3859 129.386 46.6623 128.46 51.3178C127.534 55.9734 128.009 60.799 129.825 65.1844C131.642 69.5698 134.718 73.3181 138.665 75.9553C142.612 78.5924 147.252 80 151.999 80C158.364 80 164.468 77.4714 168.969 72.9706C173.47 68.4697 175.999 62.3652 175.999 56ZM151.999 64C150.416 64 148.87 63.5308 147.554 62.6518C146.238 61.7727 145.213 60.5233 144.608 59.0615C144.002 57.5997 143.844 55.9911 144.152 54.4393C144.461 52.8874 145.223 51.462 146.342 50.3431C147.461 49.2243 148.886 48.4624 150.438 48.1537C151.99 47.845 153.598 48.0035 155.06 48.609C156.522 49.2145 157.771 50.2398 158.65 51.5554C159.529 52.871 159.999 54.4178 159.999 56C159.999 58.1217 159.156 60.1566 157.655 61.6569C156.155 63.1571 154.12 64 151.999 64Z" fill="#D68029"/>
</svg>
