<svg width="512" height="512" viewBox="0 0 512 512" fill="none" xmlns="http://www.w3.org/2000/svg">
<g clip-path="url(#clip0_3411_2359)">
<path d="M504.473 252.565C505.39 318.935 480.407 381.689 434.126 429.267C387.844 476.846 325.805 503.555 259.436 504.472C193.066 505.389 130.312 480.406 82.7338 434.125C35.1557 387.843 8.4467 325.805 7.52825 259.436C6.61181 193.067 31.594 130.313 77.8755 82.7339C124.157 35.1547 186.196 8.44675 252.565 7.52831C318.935 6.61086 381.689 31.594 429.267 77.8755" stroke="#D68029" stroke-width="15.0073" stroke-miterlimit="10"/>
<path d="M431.359 48.0684L431.806 80.3441L399.53 80.7903M256 461.1C201.216 461.1 149.711 439.766 110.973 401.028C72.2348 362.289 50.9004 310.785 50.9004 256.001C50.9004 201.216 72.2348 149.712 110.973 110.973C149.711 72.2351 201.216 50.9007 256 50.9007C310.785 50.9007 362.289 72.2351 401.028 110.973C439.766 149.712 461.1 201.216 461.1 256.001C461.1 310.785 439.766 362.289 401.028 401.028C362.289 439.766 310.784 461.1 256 461.1Z" stroke="#D68029" stroke-width="15.0073" stroke-miterlimit="10"/>
<path d="M218.59 336.246H233.597M248.604 336.246H263.612M278.619 336.246H293.626" stroke="#D68029" stroke-width="15.0073" stroke-miterlimit="10" stroke-dasharray="14.95 14.95"/>
<path d="M256.001 50.418V78.4426M153.24 77.9524L167.253 102.222M78.0149 153.178L102.286 167.19M50.4805 255.938H78.5051M78.0149 358.698L102.286 344.686M153.24 433.925L167.253 409.654M256.001 461.459V433.434M358.761 433.925L344.749 409.654M433.987 358.698L409.717 344.686M461.521 255.938H433.497M433.987 153.178L409.717 167.19M358.761 77.9524L344.749 102.222M312.717 205.579L273.725 303.616" stroke="#D68029" stroke-width="15.0073" stroke-miterlimit="10"/>
<path d="M340.366 209.132H394.299V213.166L352.204 303.167M246.756 275.059H183.752L221.726 208.879H232.807L232.562 306.422" stroke="#D68029" stroke-width="15.0073" stroke-miterlimit="3"/>
<path d="M167.727 299.38L121.146 299.237L121.157 296.22L153.737 255.345C159.161 247.594 162.148 241.055 163.418 235.576L163.869 232.053C163.869 219.184 153.437 208.752 140.567 208.752C129.244 208.752 119.806 216.829 117.703 227.536" stroke="#D68029" stroke-width="15.0073" stroke-miterlimit="10"/>
</g>
<defs>
<clipPath id="clip0_3411_2359">
<rect width="512" height="512" fill="white"/>
</clipPath>
</defs>
</svg>
