<svg width="512" height="512" viewBox="0 0 512 512" fill="none" xmlns="http://www.w3.org/2000/svg">
<path d="M316 413.5H196C195.015 413.5 194.04 413.306 193.13 412.929C192.22 412.552 191.393 412 190.696 411.304C190 410.607 189.447 409.78 189.071 408.87C188.694 407.96 188.5 406.985 188.5 406V405.776C188.5 374.352 173.216 344.049 147.616 324.715C101.761 290.084 75.229 236.006 76.017 178.476C77.371 79.755 157.211 1 256.001 1C355.253 1 436 81.748 436 181C436 240.015 407.57 292.553 363.424 325.436C338.425 344.056 323.5 374.089 323.5 405.775V406C323.5 410.143 320.143 413.5 316 413.5ZM203.263 398.5H308.729C310.851 364.814 327.608 333.409 354.463 313.406C396.748 281.911 421 233.65 421 181C421 90.019 346.981 16 256.001 16C164.736 16 92.267 87.458 91.016 178.682C90.298 231.045 114.836 281.162 156.657 312.745C184.012 333.405 201.086 365.046 203.263 398.5ZM481 188.5H466C461.857 188.5 458.5 185.143 458.5 181C458.5 176.857 461.857 173.5 466 173.5H481C485.143 173.5 488.5 176.857 488.5 181C488.5 185.143 485.143 188.5 481 188.5ZM443.086 103.507C442.709 102.597 442.515 101.622 442.515 100.637C442.514 99.6519 442.708 98.6765 443.085 97.7666C443.462 96.8566 444.015 96.0298 444.711 95.3334C445.408 94.637 446.235 94.0847 447.145 93.708L461.003 87.968C461.913 87.5909 462.888 87.3967 463.873 87.3966C464.858 87.3965 465.833 87.5904 466.743 87.9673C467.653 88.3443 468.48 88.8968 469.177 89.5934C469.873 90.29 470.425 91.1169 470.802 92.027C471.179 92.9369 471.373 93.9122 471.373 94.8972C471.374 95.8821 471.18 96.8575 470.803 97.7674C470.426 98.6774 469.873 99.5042 469.177 100.201C468.48 100.897 467.653 101.449 466.743 101.826L452.885 107.566C451.047 108.327 448.983 108.327 447.145 107.566C445.307 106.805 443.847 105.345 443.086 103.507ZM399.188 37.812C398.491 37.1156 397.939 36.2887 397.562 35.3788C397.185 34.4688 396.991 33.4935 396.991 32.5085C396.991 31.5235 397.185 30.5482 397.562 29.6382C397.939 28.7283 398.491 27.9014 399.188 27.205L409.794 16.599C411.201 15.1924 413.108 14.4022 415.098 14.4022C417.087 14.4022 418.994 15.1924 420.401 16.599C421.808 18.0056 422.598 19.9133 422.598 21.9025C422.598 23.8917 421.808 25.7994 420.401 27.206L409.795 37.812C408.388 39.2179 406.48 40.0077 404.491 40.0077C402.503 40.0077 400.595 39.2179 399.188 37.812ZM102.204 37.812L91.598 27.205C90.1914 25.7984 89.4012 23.8907 89.4012 21.9015C89.4012 19.9123 90.1914 18.0046 91.598 16.598C93.0046 15.1914 94.9123 14.4012 96.9015 14.4012C98.8907 14.4012 100.798 15.1914 102.205 16.598L112.811 27.204C114.218 28.6106 115.008 30.5184 115.008 32.5076C115.008 34.4969 114.218 36.4048 112.812 37.8115C111.405 39.2182 109.497 40.0085 107.508 40.0086C105.519 40.0087 103.611 39.2186 102.204 37.812ZM61.982 108.139C59.41 108.139 58.855 107.27 45.256 101.826C44.346 101.449 43.5191 100.897 42.8226 100.2C42.1261 99.504 41.5737 98.6772 41.1967 97.7673C40.8198 96.8573 40.6258 95.882 40.6259 94.8971C40.6259 93.9122 40.82 92.9369 41.197 92.027C42.783 88.201 47.17 86.381 50.996 87.968L64.854 93.708C65.764 94.0848 66.5909 94.6372 67.2874 95.3336C67.9839 96.03 68.5363 96.8568 68.9133 97.7667C69.2902 98.6767 69.4842 99.652 69.4841 100.637C69.4841 101.622 69.29 102.597 68.913 103.507C68.3456 104.878 67.3841 106.05 66.1503 106.875C64.9166 107.699 63.4659 108.139 61.982 108.139ZM46 188.5H31C26.857 188.5 23.5 185.143 23.5 181C23.5 176.857 26.857 173.5 31 173.5H46C50.143 173.5 53.5 176.857 53.5 181C53.5 185.143 50.143 188.5 46 188.5ZM41.198 269.974C40.8209 269.064 40.6267 268.089 40.6266 267.104C40.6265 266.119 40.8204 265.144 41.1973 264.234C41.5743 263.324 42.1268 262.497 42.8234 261.8C43.52 261.104 44.3469 260.552 45.257 260.175L59.115 254.435C60.9527 253.674 63.0175 253.674 64.8551 254.435C66.6928 255.196 68.1528 256.656 68.914 258.494C69.2911 259.404 69.4853 260.379 69.4854 261.364C69.4855 262.349 69.2916 263.324 68.9146 264.234C68.5377 265.144 67.9852 265.971 67.2886 266.668C66.592 267.364 65.7651 267.916 64.855 268.293L50.997 274.033C49.1593 274.794 47.0945 274.794 45.2569 274.033C43.4192 273.272 41.9592 271.812 41.198 269.974ZM91.598 345.402C90.9015 344.706 90.349 343.879 89.9721 342.969C89.5951 342.059 89.4011 341.083 89.4011 340.099C89.4011 339.114 89.5951 338.138 89.9721 337.228C90.349 336.318 90.9015 335.491 91.598 334.795L102.204 324.189C103.611 322.782 105.518 321.992 107.507 321.992C109.497 321.992 111.404 322.782 112.811 324.189C114.218 325.596 115.008 327.503 115.008 329.492C115.008 331.482 114.218 333.389 112.811 334.796L102.205 345.402C100.798 346.808 98.8906 347.598 96.9015 347.598C94.9124 347.598 93.0047 346.808 91.598 345.402ZM409.795 345.402L399.189 334.796C397.782 333.389 396.992 331.482 396.992 329.492C396.992 327.503 397.782 325.596 399.189 324.189C400.596 322.782 402.503 321.992 404.492 321.992C406.482 321.992 408.389 322.782 409.796 324.189L420.402 334.795C421.809 336.202 422.599 338.109 422.599 340.099C422.599 342.088 421.809 343.995 420.402 345.402C418.995 346.809 417.088 347.599 415.099 347.599C413.109 347.599 411.202 346.809 409.795 345.402ZM461.003 274.032L447.145 268.292C446.235 267.915 445.408 267.363 444.712 266.666C444.015 265.97 443.463 265.143 443.086 264.233C442.709 263.323 442.515 262.348 442.515 261.363C442.515 260.378 442.709 259.403 443.086 258.493C444.672 254.667 449.063 252.847 452.885 254.434L466.743 260.174C467.653 260.551 468.48 261.103 469.176 261.8C469.873 262.496 470.425 263.323 470.802 264.233C471.179 265.143 471.373 266.118 471.373 267.103C471.373 268.088 471.179 269.063 470.802 269.973C470.041 271.811 468.581 273.271 466.743 274.032C464.905 274.793 462.841 274.793 461.003 274.032Z" fill="#D68029"/>
<path d="M256 511C218.78 511 188.5 480.72 188.5 443.5V406C188.5 401.857 191.857 398.5 196 398.5H316C320.143 398.5 323.5 401.857 323.5 406V443.5C323.5 480.72 293.22 511 256 511ZM203.5 413.5V443.5C203.5 472.448 227.052 496 256 496C284.948 496 308.5 472.448 308.5 443.5V413.5H203.5ZM173.5 136C156.958 136 143.5 122.542 143.5 106C143.5 89.458 156.958 76 173.5 76C190.042 76 203.5 89.458 203.5 106C203.5 122.542 190.042 136 173.5 136ZM173.5 91C165.229 91 158.5 97.729 158.5 106C158.5 114.271 165.229 121 173.5 121C181.771 121 188.5 114.271 188.5 106C188.5 97.729 181.771 91 173.5 91ZM211 211C194.458 211 181 197.542 181 181C181 164.458 194.458 151 211 151C227.542 151 241 164.458 241 181C241 197.542 227.542 211 211 211ZM211 166C202.729 166 196 172.729 196 181C196 189.271 202.729 196 211 196C219.271 196 226 189.271 226 181C226 172.729 219.271 166 211 166ZM173.5 286C156.958 286 143.5 272.542 143.5 256C143.5 239.458 156.958 226 173.5 226C190.042 226 203.5 239.458 203.5 256C203.5 272.542 190.042 286 173.5 286ZM173.5 241C165.229 241 158.5 247.729 158.5 256C158.5 264.271 165.229 271 173.5 271C181.771 271 188.5 264.271 188.5 256C188.5 247.729 181.771 241 173.5 241Z" fill="#D68029"/>
<path d="M188.5 188.5H83.5C79.357 188.5 76 185.143 76 181C76 176.857 79.357 173.5 83.5 173.5H188.5C192.643 173.5 196 176.857 196 181C196 185.143 192.643 188.5 188.5 188.5ZM136 151H87.55C83.407 151 80.05 147.643 80.05 143.5C80.05 139.357 83.407 136 87.55 136H132.894L152.287 116.606C153.694 115.199 155.601 114.409 157.59 114.409C159.58 114.409 161.487 115.199 162.894 116.606C164.301 118.013 165.091 119.92 165.091 121.91C165.091 123.899 164.301 125.806 162.894 127.213L141.304 148.803C139.897 150.21 137.989 151 136 151ZM157.59 247.59C156.605 247.591 155.629 247.398 154.719 247.021C153.809 246.644 152.982 246.091 152.286 245.394L132.894 226H87.59C83.447 226 80.09 222.643 80.09 218.5C80.09 214.357 83.447 211 87.59 211H136C137.989 211 139.896 211.79 141.304 213.196L162.894 234.786C163.943 235.835 164.658 237.171 164.947 238.626C165.237 240.081 165.088 241.59 164.52 242.96C163.953 244.331 162.991 245.502 161.758 246.326C160.524 247.151 159.074 247.59 157.59 247.59ZM338.5 136C321.958 136 308.5 122.542 308.5 106C308.5 89.458 321.958 76 338.5 76C355.042 76 368.5 89.458 368.5 106C368.5 122.542 355.042 136 338.5 136ZM338.5 91C330.229 91 323.5 97.729 323.5 106C323.5 114.271 330.229 121 338.5 121C346.771 121 353.5 114.271 353.5 106C353.5 97.729 346.771 91 338.5 91ZM301 211C284.458 211 271 197.542 271 181C271 164.458 284.458 151 301 151C317.542 151 331 164.458 331 181C331 197.542 317.542 211 301 211ZM301 166C292.729 166 286 172.729 286 181C286 189.271 292.729 196 301 196C309.271 196 316 189.271 316 181C316 172.729 309.271 166 301 166ZM338.5 286C321.958 286 308.5 272.542 308.5 256C308.5 239.458 321.958 226 338.5 226C355.042 226 368.5 239.458 368.5 256C368.5 272.542 355.042 286 338.5 286ZM338.5 241C330.229 241 323.5 247.729 323.5 256C323.5 264.271 330.229 271 338.5 271C346.771 271 353.5 264.271 353.5 256C353.5 247.729 346.771 241 338.5 241Z" fill="#D68029"/>
<path d="M428.5 188.5H323.5C319.357 188.5 316 185.143 316 181C316 176.857 319.357 173.5 323.5 173.5H428.5C432.643 173.5 436 176.857 436 181C436 185.143 432.643 188.5 428.5 188.5ZM424.41 151H376C374.011 151 372.103 150.21 370.696 148.804L349.106 127.214C347.699 125.807 346.909 123.9 346.909 121.91C346.909 119.921 347.699 118.014 349.106 116.607C350.513 115.2 352.42 114.41 354.409 114.41C356.399 114.41 358.306 115.2 359.713 116.607L379.106 136H424.41C428.553 136 431.91 139.357 431.91 143.5C431.91 147.643 428.553 151 424.41 151ZM354.41 247.59C352.927 247.59 351.477 247.15 350.243 246.326C349.01 245.502 348.048 244.331 347.481 242.96C346.913 241.59 346.764 240.082 347.054 238.627C347.343 237.172 348.057 235.836 349.106 234.787L370.696 213.197C372.103 211.79 374.011 211 376 211H424.4C428.543 211 431.9 214.357 431.9 218.5C431.9 222.643 428.543 226 424.4 226H379.106L359.713 245.394C359.017 246.091 358.191 246.644 357.28 247.021C356.37 247.398 355.395 247.591 354.41 247.59ZM331 413.5H181C176.857 413.5 173.5 410.143 173.5 406C173.5 401.857 176.857 398.5 181 398.5H331C335.143 398.5 338.5 401.857 338.5 406C338.5 410.143 335.143 413.5 331 413.5Z" fill="#D68029"/>
</svg>
