<svg width="512" height="512" viewBox="0 0 512 512" fill="none" xmlns="http://www.w3.org/2000/svg">
<path d="M488 480H448V240C448 237.878 447.157 235.843 445.657 234.343C444.157 232.843 442.122 232 440 232H392C389.878 232 387.843 232.843 386.343 234.343C384.843 235.843 384 237.878 384 240V480H368V304C368 301.878 367.157 299.843 365.657 298.343C364.157 296.843 362.122 296 360 296H312C309.878 296 307.843 296.843 306.343 298.343C304.843 299.843 304 301.878 304 304V480H288V280C288 277.878 287.157 275.843 285.657 274.343C284.157 272.843 282.122 272 280 272H232C229.878 272 227.843 272.843 226.343 274.343C224.843 275.843 224 277.878 224 280V480H208V312C208 309.878 207.157 307.843 205.657 306.343C204.157 304.843 202.122 304 200 304H152C149.878 304 147.843 304.843 146.343 306.343C144.843 307.843 144 309.878 144 312V480H128V344C128 341.878 127.157 339.843 125.657 338.343C124.157 336.843 122.122 336 120 336H72C69.8783 336 67.8434 336.843 66.3431 338.343C64.8429 339.843 64 341.878 64 344V480H24C21.8783 480 19.8434 480.843 18.3431 482.343C16.8429 483.843 16 485.878 16 488C16 490.122 16.8429 492.157 18.3431 493.657C19.8434 495.157 21.8783 496 24 496H488C490.122 496 492.157 495.157 493.657 493.657C495.157 492.157 496 490.122 496 488C496 485.878 495.157 483.843 493.657 482.343C492.157 480.843 490.122 480 488 480ZM80 480V352H112V480H80ZM160 480V320H192V480H160ZM240 480V288H272V480H240ZM320 480V312H352V480H320ZM400 480V248H432V480H400Z" fill="#D68029"/>
<path d="M39.9997 328C41.0818 328 42.1525 327.779 43.1467 327.352L78.3637 312.259C81.6345 315.813 85.9022 318.297 90.6082 319.386C95.3142 320.474 100.239 320.117 104.739 318.36C109.238 316.603 113.102 313.528 115.825 309.539C118.548 305.549 120.003 300.83 120 296C120 295.673 119.988 295.35 119.975 295.026L157.975 279.826C161.19 283.497 165.45 286.1 170.184 287.287C174.918 288.473 179.901 288.188 184.468 286.468C189.035 284.748 192.969 281.675 195.745 277.661C198.52 273.646 200.004 268.88 200 264C200 263.673 199.988 263.35 199.975 263.026L237.975 247.826C240.342 250.529 243.287 252.665 246.592 254.076C249.896 255.487 253.476 256.137 257.066 255.977C260.655 255.817 264.163 254.852 267.329 253.153C270.495 251.454 273.239 249.065 275.357 246.162L312.025 257.162C312.192 260.682 313.133 264.122 314.779 267.238C316.426 270.354 318.739 273.069 321.554 275.19C324.368 277.311 327.616 278.786 331.065 279.51C334.514 280.235 338.08 280.19 341.51 279.381C344.94 278.572 348.15 277.017 350.911 274.827C353.672 272.637 355.917 269.866 357.487 266.71C359.056 263.555 359.911 260.092 359.991 256.569C360.072 253.045 359.375 249.548 357.951 246.324L402.851 204.065C407.357 207.024 412.728 208.378 418.099 207.91C423.469 207.441 428.525 205.177 432.45 201.482C436.376 197.787 438.942 192.878 439.735 187.546C440.528 182.214 439.501 176.77 436.821 172.093L464 146.515V152C464 154.122 464.842 156.157 466.343 157.657C467.843 159.157 469.878 160 472 160C474.121 160 476.156 159.157 477.657 157.657C479.157 156.157 480 154.122 480 152V128C480 125.878 479.157 123.843 477.657 122.343C476.156 120.843 474.121 120 472 120H448C445.878 120 443.843 120.843 442.343 122.343C440.842 123.843 440 125.878 440 128C440 130.122 440.842 132.157 442.343 133.657C443.843 135.157 445.878 136 448 136H451.828L424.62 161.607C420.402 159.981 415.81 159.58 411.374 160.45C406.938 161.319 402.838 163.424 399.546 166.522C396.254 169.62 393.904 173.585 392.767 177.961C391.63 182.336 391.753 186.943 393.12 191.252L346.984 234.674C341.903 232.048 336.05 231.326 330.484 232.641C324.917 233.955 320.005 237.218 316.636 241.84L279.968 230.84C279.646 224.597 276.9 218.726 272.316 214.476C267.731 210.226 261.669 207.932 255.419 208.084C249.17 208.235 243.226 210.818 238.852 215.285C234.478 219.752 232.02 225.749 232 232C232 232.327 232.012 232.651 232.025 232.974L194.025 248.174C190.809 244.503 186.55 241.9 181.816 240.713C177.082 239.527 172.098 239.812 167.531 241.532C162.964 243.252 159.03 246.325 156.255 250.339C153.48 254.354 151.995 259.12 152 264C152 264.327 152.012 264.65 152.025 264.974L114.025 280.174C110.809 276.503 106.55 273.9 101.816 272.713C97.0817 271.527 92.0984 271.812 87.5311 273.532C82.9638 275.252 79.0299 278.325 76.2547 282.339C73.4795 286.354 71.9951 291.12 71.9997 296C71.9997 296.524 72.0227 297.042 72.0557 297.558L36.8487 312.646C35.1547 313.371 33.7631 314.66 32.9091 316.292C32.055 317.925 31.7909 319.803 32.1614 321.608C32.5318 323.413 33.5142 325.035 34.9423 326.2C36.3705 327.365 38.1569 328 39.9997 328ZM416 176C417.582 176 419.129 176.469 420.444 177.348C421.76 178.227 422.785 179.477 423.391 180.939C423.996 182.4 424.155 184.009 423.846 185.561C423.537 187.113 422.775 188.538 421.657 189.657C420.538 190.776 419.112 191.538 417.56 191.846C416.009 192.155 414.4 191.997 412.938 191.391C411.476 190.786 410.227 189.76 409.348 188.445C408.469 187.129 408 185.582 408 184C408.002 181.879 408.846 179.846 410.345 178.346C411.845 176.846 413.879 176.002 416 176ZM336 248C337.582 248 339.129 248.469 340.444 249.348C341.76 250.227 342.785 251.477 343.391 252.939C343.996 254.4 344.155 256.009 343.846 257.561C343.537 259.113 342.775 260.538 341.657 261.657C340.538 262.776 339.112 263.538 337.56 263.846C336.009 264.155 334.4 263.997 332.938 263.391C331.476 262.786 330.227 261.76 329.348 260.445C328.469 259.129 328 257.582 328 256C328.002 253.879 328.846 251.846 330.345 250.346C331.845 248.846 333.879 248.002 336 248ZM256 224C257.582 224 259.129 224.469 260.444 225.348C261.76 226.227 262.785 227.477 263.391 228.939C263.996 230.4 264.155 232.009 263.846 233.561C263.537 235.113 262.775 236.538 261.657 237.657C260.538 238.776 259.112 239.538 257.56 239.846C256.009 240.155 254.4 239.997 252.938 239.391C251.476 238.786 250.227 237.76 249.348 236.445C248.469 235.129 248 233.582 248 232C248.002 229.879 248.846 227.846 250.345 226.346C251.845 224.846 253.879 224.002 256 224ZM176 256C177.582 256 179.129 256.469 180.444 257.348C181.76 258.227 182.785 259.477 183.391 260.939C183.996 262.4 184.155 264.009 183.846 265.561C183.537 267.113 182.775 268.538 181.657 269.657C180.538 270.776 179.112 271.538 177.56 271.846C176.009 272.155 174.4 271.997 172.938 271.391C171.476 270.786 170.227 269.76 169.348 268.445C168.469 267.129 168 265.582 168 264C168.002 261.879 168.846 259.846 170.345 258.346C171.845 256.846 173.879 256.002 176 256ZM95.9997 288C97.5819 288 99.1286 288.469 100.444 289.348C101.76 290.227 102.785 291.477 103.391 292.939C103.996 294.4 104.155 296.009 103.846 297.561C103.537 299.113 102.775 300.538 101.657 301.657C100.538 302.776 99.1122 303.538 97.5604 303.846C96.0085 304.155 94.4 303.997 92.9382 303.391C91.4764 302.786 90.227 301.76 89.3479 300.445C88.4689 299.129 87.9997 297.582 87.9997 296C88.002 293.879 88.8457 291.846 90.3454 290.346C91.8452 288.846 93.8787 288.002 95.9997 288Z" fill="#D68029"/>
<path d="M184.428 214.151C186.062 215.478 188.154 216.107 190.249 215.902C192.344 215.697 194.274 214.674 195.62 213.056C196.967 211.437 197.621 209.353 197.441 207.256C197.261 205.159 196.261 203.217 194.659 201.851C188.148 196.438 182.379 190.192 177.5 183.272H212.537C213.928 189.654 215.559 195.994 217.43 202.292C217.726 203.304 218.22 204.248 218.882 205.068C219.544 205.889 220.362 206.571 221.288 207.074C222.215 207.578 223.232 207.893 224.281 208.002C225.329 208.111 226.39 208.012 227.4 207.709C228.41 207.407 229.351 206.908 230.168 206.241C230.984 205.575 231.661 204.753 232.159 203.823C232.657 202.894 232.967 201.875 233.07 200.826C233.173 199.776 233.067 198.717 232.759 197.708C231.329 192.926 230.054 188.114 228.933 183.272H283.064C281.936 188.11 280.661 192.922 279.239 197.708C278.931 198.717 278.825 199.776 278.928 200.826C279.031 201.875 279.341 202.894 279.839 203.823C280.337 204.753 281.014 205.575 281.83 206.241C282.647 206.908 283.588 207.407 284.598 207.709C285.608 208.012 286.668 208.111 287.717 208.002C288.766 207.893 289.783 207.578 290.71 207.074C291.636 206.571 292.454 205.889 293.116 205.068C293.778 204.248 294.272 203.304 294.568 202.292C296.45 195.999 298.081 189.659 299.462 183.272H334.527C330.958 188.311 326.917 192.998 322.46 197.272C320.929 198.741 320.044 200.758 320.001 202.88C319.957 205.001 320.758 207.053 322.227 208.584C323.696 210.115 325.713 211 327.835 211.043C329.956 211.087 332.008 210.286 333.539 208.817C344.478 198.398 353.176 185.857 359.101 171.961C365.026 158.065 368.054 143.106 368 128C367.966 102.046 358.933 76.9063 342.442 56.8649C325.95 36.8236 303.02 23.1203 277.558 18.0901C277.345 18.0404 277.13 17.9994 276.914 17.9671C252.52 13.3281 227.276 16.9274 205.15 28.1992C183.024 39.471 165.272 57.776 154.683 80.2366C144.095 102.697 141.271 128.04 146.655 152.28C152.039 176.521 165.326 198.285 184.428 214.151ZM170.909 167.272C170.108 167.271 169.311 167.392 168.545 167.628C164.015 157.634 161.236 146.936 160.331 136H206.709C207.031 146.472 207.986 156.915 209.57 167.272H170.909ZM173.318 79.2721H211.2C208.635 92.7088 207.136 106.327 206.716 120H160.336C161.524 105.616 165.963 91.6903 173.318 79.2721ZM351.664 120H305.289C304.867 106.327 303.366 92.7087 300.8 79.2721H338.685C346.039 91.6905 350.476 105.617 351.664 120ZM289.283 120H222.72C223.172 106.313 224.776 92.6893 227.515 79.2721H284.491C287.23 92.6893 288.833 106.314 289.283 120ZM225.766 167.272C224.077 156.925 223.059 146.479 222.718 136H289.285C288.942 146.479 287.924 156.925 286.235 167.272H225.766ZM341.091 167.272H302.433C304.017 156.915 304.972 146.472 305.293 136H351.67C350.794 146.941 348.032 157.647 343.506 167.646C342.725 167.398 341.91 167.272 341.091 167.272ZM326.833 63.2721H297.208C295.003 54.7039 292.361 46.2542 289.293 37.9561C303.64 43.2921 316.509 51.9705 326.833 63.2721ZM270.133 33.0421C274.3 42.8767 277.815 52.9752 280.654 63.2721H231.354C234.193 52.975 237.707 42.8765 241.875 33.0421C251.244 31.6527 260.766 31.6527 270.135 33.0421H270.133ZM222.715 37.9541C219.643 46.2525 216.999 54.7029 214.793 63.2721H185.167C195.493 51.9689 208.365 43.2897 222.715 37.9541Z" fill="#D68029"/>
</svg>
