<svg width="75" height="75" viewBox="0 0 75 75" fill="none" xmlns="http://www.w3.org/2000/svg">
<path d="M67.9688 8.20312H43.3594V4.6875C43.3594 2.74922 41.782 1.17188 39.8438 1.17188H9.375C7.43672 1.17188 5.85938 2.74922 5.85938 4.6875V8.32148C4.53711 8.59363 3.34903 9.31315 2.49522 10.3588C1.64142 11.4045 1.17407 12.7125 1.17188 14.0625V51.5625C1.17188 54.7934 3.80039 57.4219 7.03125 57.4219H25.7812V60.4336C16.4355 61.6102 16.4062 63.6621 16.4062 64.4531V69.1406C16.4062 73.6031 33.9773 73.8281 37.5 73.8281C41.0227 73.8281 58.5938 73.6031 58.5938 69.1406V64.4531C58.5938 63.6621 58.5645 61.6102 49.2188 60.4336V57.4219H67.9688C71.1996 57.4219 73.8281 54.7934 73.8281 51.5625V14.0625C73.8281 10.8316 71.1996 8.20312 67.9688 8.20312ZM8.20312 4.6875C8.20312 4.04063 8.7293 3.51562 9.375 3.51562H39.8438C40.4895 3.51562 41.0156 4.04063 41.0156 4.6875V30.4688C41.0156 31.1156 40.4895 31.6406 39.8438 31.6406H9.375C8.7293 31.6406 8.20312 31.1156 8.20312 30.4688V4.6875ZM5.85938 10.7625V30.4688C5.85938 32.407 7.43672 33.9844 9.375 33.9844H39.8438C41.782 33.9844 43.3594 32.407 43.3594 30.4688V10.5469H67.9688C69.907 10.5469 71.4844 12.1242 71.4844 14.0625V45.7031H3.51562V14.0625C3.51562 12.5367 4.49883 11.2477 5.85938 10.7625ZM37.5 71.4844C26.0121 71.4844 19.6676 69.8613 18.75 68.9719V66.8789C23.6531 69.0035 34.7754 69.1406 37.5 69.1406C40.2246 69.1406 51.3469 69.0035 56.25 66.8789V68.973C55.3324 69.8613 48.9879 71.4844 37.5 71.4844ZM56.0145 64.459C54.5191 65.3707 48.2695 66.7969 37.5 66.7969C26.7305 66.7969 20.4809 65.3707 18.9855 64.459C19.6816 64.0453 21.6246 63.3422 25.7812 62.7961V64.4531H49.2188V62.7961C53.3754 63.3422 55.3195 64.0453 56.0145 64.459ZM46.875 62.1094H28.125V57.4219H46.875V62.1094ZM67.9688 55.0781H7.03125C5.09297 55.0781 3.51562 53.5008 3.51562 51.5625V48.0469H71.4844V51.5625C71.4844 53.5008 69.907 55.0781 67.9688 55.0781Z" fill="black"/>
<path d="M62.1098 50.3906H64.4535V52.7344H62.1098V50.3906ZM66.7973 50.3906H69.141V52.7344H66.7973V50.3906ZM57.4223 50.3906H59.766V52.7344H57.4223V50.3906ZM19.6398 25.0195L13.2625 17.5781L19.6398 10.1367L17.8609 8.61328L10.1758 17.5781L17.8609 26.543L19.6398 25.0195ZM31.3586 26.543L39.0438 17.5781L31.3586 8.61328L29.5797 10.1367L35.957 17.5781L29.5797 25.0195L31.3586 26.543ZM10.5473 36.3281H12.891V38.6719H10.5473V36.3281ZM15.2348 36.3281H38.6723V38.6719H15.2348V36.3281ZM10.5473 41.0156H33.9848V43.3594H10.5473V41.0156ZM36.3285 41.0156H38.6723V43.3594H36.3285V41.0156ZM47.7707 35.8781L46.8859 37.6746L51.3871 42.1781L53.1848 41.2922C53.3207 41.3531 53.4578 41.4105 53.5949 41.4633L54.2395 43.3594H60.6051L61.2508 41.4645C61.3879 41.4105 61.5238 41.3531 61.6609 41.2934L63.4586 42.1793L67.9598 37.6758L67.075 35.8793C67.1359 35.7434 67.1934 35.6074 67.2461 35.4691L69.141 34.8234V28.4578L67.2461 27.8121C67.1916 27.6744 67.1345 27.5376 67.075 27.402L67.9598 25.6031L63.4586 21.1031L61.6609 21.9879C61.5258 21.9272 61.389 21.8701 61.2508 21.8168L60.6051 19.9219H54.2395L53.5938 21.8168C53.456 21.8713 53.3193 21.9284 53.1836 21.9879L51.3859 21.1031L46.8848 25.6031L47.7695 27.402C47.7086 27.537 47.6516 27.6738 47.5984 27.8121L45.7035 28.4578V34.8234L47.5984 35.4691C47.6523 35.6062 47.7098 35.7422 47.7707 35.8781ZM48.0473 30.1359L49.4418 29.6613L49.6234 29.1035C49.7564 28.699 49.921 28.3056 50.1156 27.927L50.3828 27.4031L49.7289 26.0754L51.857 23.9473L53.1848 24.6012L53.7074 24.334C54.087 24.1399 54.4812 23.9757 54.8863 23.843L55.4441 23.6613L55.9176 22.2656H58.927L59.4016 23.6602L59.9594 23.8418C60.3508 23.9684 60.7469 24.1348 61.1383 24.3328L61.6609 24.6L62.9887 23.9461L65.1168 26.0742L64.4629 27.402L64.7301 27.9258C64.9281 28.3148 65.0945 28.7109 65.2223 29.1023L65.4039 29.6602L66.7973 30.1359V33.1453L65.4027 33.6199L65.2211 34.1777C65.0881 34.5822 64.9236 34.9756 64.7289 35.3543L64.4617 35.8781L65.1156 37.2059L62.9875 39.3328L61.6598 38.6801L61.1371 38.9473C60.7575 39.1414 60.3634 39.3055 59.9582 39.4383L59.4004 39.6199L58.927 41.0156H55.9176L55.443 39.6211L54.8852 39.4395C54.4801 39.3065 54.0859 39.1423 53.7062 38.9484L53.1836 38.6812L51.8559 39.334L49.7277 37.207L50.3816 35.8793L50.1145 35.3555C49.9203 34.9766 49.7557 34.5832 49.6223 34.1789L49.4406 33.6211L48.0473 33.1453V30.1359Z" fill="black"/>
<path d="M57.4223 37.5C60.6531 37.5 63.2816 34.8715 63.2816 31.6406C63.2816 28.4098 60.6531 25.7813 57.4223 25.7813C54.1914 25.7813 51.5629 28.4098 51.5629 31.6406C51.5629 34.8715 54.1914 37.5 57.4223 37.5ZM57.4223 28.125C59.3605 28.125 60.9379 29.7024 60.9379 31.6406C60.9379 33.5789 59.3605 35.1563 57.4223 35.1563C55.484 35.1563 53.9066 33.5789 53.9066 31.6406C53.9066 29.7024 55.484 28.125 57.4223 28.125ZM22.2695 26.8114L24.6133 8.06604L26.9383 8.35667L24.5945 27.102L22.2695 26.8114Z" fill="black"/>
</svg>
