<svg width="512" height="512" viewBox="0 0 512 512" fill="none" xmlns="http://www.w3.org/2000/svg">
<path d="M256 392C330.992 392 392 330.992 392 256C392 181.008 330.992 120 256 120C181.008 120 120 181.008 120 256C120 330.992 181.008 392 256 392ZM256 136C322.168 136 376 189.832 376 256C376 322.168 322.168 376 256 376C189.832 376 136 322.168 136 256C136 189.832 189.832 136 256 136Z" fill="#D68029"/>
<path d="M304 312H336C338.122 312 340.157 311.157 341.657 309.657C343.157 308.157 344 306.122 344 304V200C344 197.878 343.157 195.843 341.657 194.343C340.157 192.843 338.122 192 336 192H304C301.878 192 299.843 192.843 298.343 194.343C296.843 195.843 296 197.878 296 200V304C296 306.122 296.843 308.157 298.343 309.657C299.843 311.157 301.878 312 304 312ZM312 208H328V296H312V208ZM240 312H272C274.122 312 276.157 311.157 277.657 309.657C279.157 308.157 280 306.122 280 304V224C280 221.878 279.157 219.843 277.657 218.343C276.157 216.843 274.122 216 272 216H240C237.878 216 235.843 216.843 234.343 218.343C232.843 219.843 232 221.878 232 224V304C232 306.122 232.843 308.157 234.343 309.657C235.843 311.157 237.878 312 240 312ZM248 232H264V296H248V232ZM208 312C210.122 312 212.157 311.157 213.657 309.657C215.157 308.157 216 306.122 216 304V256C216 253.878 215.157 251.843 213.657 250.343C212.157 248.843 210.122 248 208 248H176C173.878 248 171.843 248.843 170.343 250.343C168.843 251.843 168 253.878 168 256V304C168 306.122 168.843 308.157 170.343 309.657C171.843 311.157 173.878 312 176 312H208ZM184 264H200V296H184V264Z" fill="#D68029"/>
<path d="M95.016 206.24C93.448 211.68 89.496 215.904 84.44 217.544L63 224.512C61.5483 224.985 60.262 225.862 59.2925 227.042C58.323 228.221 57.7108 229.653 57.528 231.168C56.512 239.656 56 248.008 56 256C56 263.992 56.512 272.344 57.536 280.832C57.7178 282.348 58.3297 283.781 59.2993 284.96C60.269 286.14 61.5558 287.017 63.008 287.488L84.448 294.456C89.504 296.096 93.456 300.328 95.024 305.768C95.8 308.456 96.64 311.12 97.536 313.76C98.4583 316.418 98.7362 319.256 98.3468 322.042C97.9573 324.828 96.9117 327.482 95.296 329.784L82.512 347.656C81.628 348.891 81.1135 350.351 81.0285 351.867C80.9435 353.382 81.2916 354.891 82.032 356.216C90.2123 370.83 100.159 384.383 111.648 396.568C112.709 397.695 114.074 398.49 115.579 398.855C117.083 399.22 118.661 399.14 120.12 398.624L139.456 391.832C141.916 390.988 144.55 390.785 147.11 391.241C149.67 391.697 152.072 392.798 154.088 394.44C156.2 396.12 158.352 397.752 160.536 399.328C165.032 402.56 167.672 407.872 167.608 413.536L167.384 433.064C167.352 436.2 169.144 439.064 171.976 440.4C187.256 447.6 203.456 452.808 220.112 455.88C221.635 456.156 223.205 455.983 224.632 455.384C226.059 454.785 227.282 453.785 228.152 452.504L238.504 437.32C241.568 432.824 246.616 430.432 251.88 430.344C254.616 430.416 257.368 430.416 260.12 430.344C265.448 430.048 270.424 432.824 273.488 437.32L283.832 452.504C284.703 453.789 285.93 454.791 287.362 455.388C288.795 455.985 290.371 456.151 291.896 455.864C308.54 452.796 324.719 447.593 340.032 440.384C342.864 439.048 344.656 436.184 344.624 433.056L344.4 413.528C344.353 410.767 344.97 408.036 346.199 405.563C347.429 403.09 349.234 400.949 351.464 399.32C353.648 397.744 355.8 396.12 357.912 394.44C359.928 392.794 362.331 391.691 364.893 391.234C367.455 390.778 370.092 390.984 372.552 391.832L391.888 398.624C394.864 399.664 398.192 398.872 400.36 396.568C411.85 384.386 421.794 370.833 429.968 356.216C430.71 354.892 431.059 353.384 430.975 351.868C430.892 350.352 430.379 348.891 429.496 347.656L416.712 329.784C415.095 327.482 414.049 324.829 413.659 322.043C413.27 319.257 413.548 316.418 414.472 313.76C415.368 311.12 416.208 308.456 416.984 305.768C418.552 300.328 422.504 296.104 427.56 294.464L449 287.496C451.968 286.528 454.096 283.936 454.472 280.84C455.488 272.344 456 263.992 456 256C456 248.008 455.488 239.656 454.464 231.168C454.282 229.652 453.67 228.22 452.701 227.041C451.731 225.861 450.444 224.984 448.992 224.512L427.552 217.544C422.496 215.904 418.544 211.672 416.976 206.232C416.2 203.549 415.363 200.885 414.464 198.24C413.542 195.583 413.264 192.744 413.653 189.959C414.043 187.173 415.088 184.519 416.704 182.216L429.488 164.344C430.372 163.11 430.887 161.65 430.971 160.134C431.056 158.618 430.708 157.11 429.968 155.784C421.788 141.17 411.841 127.618 400.352 115.432C399.291 114.305 397.926 113.511 396.421 113.146C394.917 112.781 393.339 112.861 391.88 113.376L372.544 120.168C367.616 121.912 362.144 120.928 357.912 117.56C355.8 115.88 353.648 114.248 351.464 112.672C349.232 111.045 347.425 108.904 346.194 106.432C344.963 103.959 344.345 101.226 344.392 98.4644L344.616 78.9364C344.648 75.8004 342.856 72.9364 340.024 71.6004C324.711 64.3909 308.533 59.1879 291.888 56.1204C290.364 55.8453 288.793 56.016 287.364 56.612C285.935 57.2081 284.709 58.2041 283.832 59.4804L273.48 74.6644C272.001 76.8426 270.005 78.6199 267.671 79.8374C265.336 81.0548 262.737 81.6743 260.104 81.6404C257.358 81.5684 254.61 81.5684 251.864 81.6404C249.226 81.7128 246.613 81.11 244.274 79.8891C241.934 78.6682 239.945 76.8698 238.496 74.6644L228.152 59.4804C227.279 58.1982 226.052 57.1977 224.62 56.6011C223.188 56.0045 221.613 55.8375 220.088 56.1204C203.444 59.1891 187.265 64.3921 171.952 71.6004C170.566 72.255 169.397 73.2933 168.583 74.5921C167.769 75.8909 167.345 77.3958 167.36 78.9284L167.584 98.4564C167.631 101.217 167.014 103.949 165.785 106.422C164.555 108.894 162.75 111.035 160.52 112.664C158.336 114.24 156.184 115.864 154.072 117.544C152.054 119.187 149.651 120.289 147.09 120.745C144.528 121.201 141.893 120.997 139.432 120.152L120.096 113.36C118.636 112.847 117.059 112.768 115.555 113.133C114.052 113.498 112.686 114.291 111.624 115.416C100.134 127.599 90.1895 141.152 82.016 155.768C81.2744 157.093 80.925 158.601 81.0086 160.117C81.0922 161.633 81.6053 163.093 82.488 164.328L95.272 182.2C98.536 186.76 99.368 192.752 97.504 198.224C96.64 200.888 95.8 203.552 95.016 206.24ZM108.312 172.92L98.52 159.232C104.667 148.905 111.791 139.192 119.792 130.224L134.144 135.264C139.158 137.016 144.536 137.458 149.768 136.551C155.001 135.644 159.916 133.417 164.048 130.08C165.96 128.56 167.904 127.088 169.88 125.664C174.192 122.534 177.688 118.413 180.075 113.649C182.461 108.884 183.667 103.616 183.592 98.2884L183.424 83.9764C194.517 79.1324 206.068 75.4151 217.904 72.8804L225.264 83.6884C228.241 88.0826 232.271 91.662 236.985 94.1003C241.7 96.5386 246.949 97.7584 252.256 97.6484C254.744 97.5924 257.248 97.5924 259.712 97.6484C270.544 97.9924 280.568 92.7044 286.704 83.6884L294.08 72.8804C305.928 75.4164 317.488 79.1364 328.568 83.9764L328.4 98.2884C328.328 103.617 329.537 108.884 331.924 113.648C334.312 118.412 337.808 122.533 342.12 125.664C344.096 127.088 346.04 128.56 347.952 130.08C352.084 133.42 357 135.649 362.235 136.556C367.47 137.463 372.849 137.019 377.864 135.264L392.216 130.224C400.216 139.184 407.344 148.912 413.488 159.232L403.696 172.912C400.603 177.283 398.594 182.326 397.835 187.625C397.075 192.925 397.587 198.33 399.328 203.392C400.144 205.8 400.904 208.224 401.616 210.68C404.656 221.224 412.512 229.48 422.616 232.768L439.128 238.128C439.704 244.24 440 250.232 440 256C440 261.768 439.704 267.76 439.12 273.872L422.616 279.232C412.504 282.512 404.656 290.768 401.608 301.32C400.904 303.776 400.136 306.2 399.32 308.6C397.582 313.664 397.071 319.068 397.831 324.367C398.59 329.666 400.598 334.709 403.688 339.08L413.472 352.768C407.325 363.095 400.201 372.809 392.2 381.776L377.848 376.736C372.835 374.981 367.456 374.535 362.222 375.443C356.989 376.35 352.074 378.58 347.944 381.92C346.032 383.44 344.088 384.912 342.112 386.336C337.8 389.467 334.303 393.588 331.917 398.352C329.531 403.116 328.325 408.384 328.4 413.712L328.568 428.024C317.475 432.868 305.924 436.586 294.088 439.12L286.728 428.312C283.838 424.021 279.94 420.503 275.375 418.068C270.81 415.633 265.718 414.354 260.544 414.344L259.736 414.352C257.248 414.408 254.744 414.408 252.28 414.352C246.969 414.214 241.709 415.422 236.99 417.863C232.27 420.304 228.245 423.898 225.288 428.312L217.92 439.12C206.081 436.587 194.527 432.87 183.432 428.024L183.6 413.712C183.672 408.384 182.463 403.117 180.076 398.353C177.688 393.589 174.192 389.468 169.88 386.336C167.904 384.912 165.96 383.44 164.048 381.92C155.48 375.104 144.304 373.152 134.136 376.736L119.784 381.776C111.784 372.816 104.656 363.088 98.512 352.768L108.304 339.088C111.397 334.718 113.406 329.675 114.165 324.375C114.925 319.076 114.413 313.671 112.672 308.608C111.855 306.196 111.092 303.766 110.384 301.32C107.344 290.776 99.488 282.52 89.384 279.232L72.872 273.872C72.296 267.76 72 261.768 72 256C72 250.232 72.296 244.24 72.88 238.128L89.392 232.768C99.504 229.48 107.352 221.224 110.392 210.68C111.096 208.224 111.864 205.8 112.68 203.4C114.42 198.337 114.932 192.933 114.172 187.634C113.413 182.334 111.404 177.291 108.312 172.92Z" fill="#D68029"/>
<path d="M493.472 160.408L478.152 165.512C441.56 75.8 353.424 16 256 16C155.768 16 65.2081 79.192 30.6641 173.24L45.6801 178.752C77.9281 90.976 162.448 32 256 32C346.584 32 428.56 87.384 462.952 170.584L445.472 176.408C444.109 176.865 442.893 177.681 441.954 178.77C441.015 179.859 440.386 181.181 440.134 182.597C439.882 184.013 440.016 185.47 440.521 186.817C441.027 188.163 441.886 189.348 443.008 190.248L483.008 222.248C484.095 223.125 485.393 223.7 486.773 223.918C488.152 224.135 489.565 223.986 490.869 223.487C492.173 222.987 493.323 222.154 494.203 221.07C495.084 219.986 495.665 218.691 495.888 217.312L503.888 169.312C504.114 167.952 503.985 166.557 503.513 165.261C503.041 163.966 502.243 162.814 501.195 161.918C500.147 161.022 498.885 160.413 497.532 160.148C496.179 159.883 494.78 159.973 493.472 160.408ZM482.352 201.232L464.48 186.936L485.928 179.792L482.352 201.232ZM17.3201 343.888L31.7841 341.48C67.0801 434 156.76 496 256 496C356.232 496 446.792 432.808 481.336 338.76L466.32 333.248C434.072 421.024 349.552 480 256 480C164.456 480 81.6961 423.456 47.9601 338.784L65.3121 335.888C66.6882 335.659 67.9805 335.075 69.0609 334.192C70.1412 333.31 70.9721 332.16 71.471 330.858C71.9699 329.555 72.1195 328.144 71.905 326.766C71.6905 325.388 71.1193 324.089 70.2481 323L38.2481 283C37.3484 281.878 36.1632 281.019 34.8169 280.513C33.4706 280.008 32.013 279.874 30.5971 280.126C29.1812 280.378 27.8593 281.007 26.7703 281.946C25.6813 282.885 24.8653 284.1 24.4081 285.464L8.40813 333.464C7.97078 334.773 7.87974 336.174 8.14388 337.529C8.40801 338.884 9.01832 340.148 9.91546 341.197C10.8126 342.246 11.966 343.046 13.2636 343.517C14.5611 343.989 15.9586 344.116 17.3201 343.888ZM34.9361 304.48L49.2321 322.352L27.7921 325.928L34.9361 304.48Z" fill="#D68029"/>
</svg>
