<svg width="512" height="512" viewBox="0 0 512 512" fill="none" xmlns="http://www.w3.org/2000/svg">
<path d="M230.017 41.2276L249.981 18.4216C250.732 17.564 251.658 16.8767 252.696 16.4059C253.734 15.935 254.861 15.6914 256.001 15.6914C257.141 15.6914 258.268 15.935 259.306 16.4059C260.345 16.8767 261.27 17.564 262.021 18.4216L281.986 41.2266C283.384 42.8231 284.09 44.9094 283.949 47.0265C283.809 49.1436 282.833 51.1181 281.236 52.5156C279.64 53.9132 277.553 54.6193 275.436 54.4787C273.319 54.338 271.345 53.3621 269.947 51.7656L264 44.9746V103.345C294.88 104.797 324.49 114.648 350.092 132.056C351.508 133.018 352.577 134.409 353.144 136.023C353.71 137.638 353.744 139.393 353.24 141.028C352.736 142.664 351.72 144.094 350.343 145.11C348.966 146.126 347.299 146.673 345.587 146.672C343.985 146.672 342.42 146.189 341.096 145.287C315.955 128.193 286.53 119.157 256 119.157C253.878 119.157 251.844 118.314 250.343 116.813C248.843 115.313 248 113.278 248 111.157V44.9756L242.056 51.7666C241.306 52.6256 240.38 53.3137 239.341 53.7847C238.302 54.2556 237.175 54.4984 236.034 54.4966C234.497 54.4961 232.993 54.0529 231.702 53.2201C230.41 52.3873 229.386 51.2001 228.751 49.8005C228.116 48.4009 227.898 46.8481 228.123 45.3278C228.347 43.8075 229.005 42.384 230.017 41.2276ZM508.27 264.671L485.464 244.707C484.674 244.015 483.755 243.485 482.76 243.148C481.764 242.811 480.713 242.674 479.664 242.744C478.616 242.813 477.592 243.089 476.65 243.554C475.708 244.02 474.867 244.666 474.175 245.457C473.483 246.247 472.954 247.166 472.617 248.161C472.28 249.156 472.143 250.208 472.212 251.256C472.282 252.305 472.557 253.329 473.023 254.271C473.488 255.213 474.135 256.054 474.925 256.746L481.716 262.691H415.534C413.412 262.691 411.378 263.533 409.877 265.034C408.377 266.534 407.534 268.569 407.534 270.691C407.534 301.219 398.499 330.645 381.404 355.786C380.587 356.988 380.113 358.39 380.032 359.841C379.952 361.292 380.268 362.738 380.948 364.023C381.627 365.308 382.644 366.384 383.888 367.135C385.133 367.885 386.559 368.283 388.012 368.285C389.318 368.286 390.605 367.968 391.759 367.357C392.914 366.746 393.901 365.862 394.634 364.782C412.041 339.181 421.893 309.567 423.346 278.691H481.716L474.925 284.636C473.348 286.039 472.389 288.008 472.258 290.115C472.126 292.221 472.833 294.294 474.223 295.883C475.614 297.471 477.575 298.445 479.681 298.593C481.786 298.741 483.865 298.051 485.464 296.674L508.269 276.709C509.127 275.958 509.814 275.032 510.285 273.994C510.756 272.956 511 271.83 511 270.69C511 269.55 510.756 268.423 510.286 267.385C509.815 266.347 509.128 265.422 508.27 264.671ZM436.629 414.573C436.489 412.456 435.513 410.481 433.916 409.084C432.32 407.686 430.233 406.98 428.116 407.121C425.999 407.261 424.025 408.237 422.627 409.834C421.23 411.43 420.524 413.517 420.664 415.634L421.262 424.639L374.465 377.842C373.722 377.098 372.841 376.509 371.87 376.107C370.899 375.704 369.859 375.497 368.808 375.498C367.757 375.498 366.717 375.705 365.746 376.107C364.776 376.51 363.894 377.099 363.151 377.843C359.592 381.401 355.859 384.781 351.966 387.972C351.146 388.635 350.465 389.454 349.962 390.381C349.46 391.309 349.145 392.326 349.038 393.376C348.93 394.425 349.031 395.486 349.335 396.496C349.638 397.506 350.139 398.446 350.807 399.262C351.476 400.078 352.299 400.754 353.23 401.251C354.161 401.747 355.18 402.055 356.23 402.156C357.28 402.257 358.34 402.149 359.348 401.839C360.357 401.529 361.293 401.022 362.105 400.349C364.343 398.515 366.533 396.624 368.673 394.678L409.949 435.954L400.943 435.356C399.895 435.285 398.843 435.422 397.847 435.759C396.852 436.095 395.933 436.625 395.142 437.317C394.351 438.009 393.705 438.85 393.24 439.792C392.774 440.734 392.499 441.759 392.43 442.808C392.361 443.856 392.498 444.908 392.835 445.903C393.172 446.898 393.701 447.817 394.393 448.608C395.085 449.398 395.926 450.044 396.868 450.51C397.81 450.976 398.834 451.251 399.882 451.321L430.124 453.33C431.262 453.405 432.402 453.237 433.469 452.836C434.536 452.435 435.505 451.81 436.311 451.005C437.117 450.198 437.741 449.229 438.142 448.162C438.543 447.095 438.712 445.955 438.636 444.818L436.629 414.573ZM37.0752 284.636L30.2842 278.691H96.4672C98.589 278.691 100.624 277.848 102.124 276.347C103.624 274.847 104.467 272.812 104.467 270.691C104.467 240.162 113.502 210.736 130.596 185.595C131.202 184.726 131.63 183.747 131.855 182.712C132.079 181.677 132.096 180.608 131.905 179.566C131.713 178.525 131.316 177.532 130.738 176.645C130.16 175.758 129.411 174.995 128.535 174.399C127.66 173.804 126.674 173.388 125.637 173.177C124.599 172.965 123.53 172.961 122.491 173.166C121.452 173.37 120.464 173.779 119.585 174.368C118.705 174.958 117.951 175.716 117.366 176.599C99.9582 202.201 90.1072 231.811 88.6552 262.691H30.2842L37.0762 256.746C38.6727 255.348 39.6486 253.374 39.7893 251.256C39.9299 249.139 39.2238 247.053 37.8262 245.457C36.4287 243.86 34.4542 242.884 32.3371 242.744C30.22 242.603 28.1337 243.309 26.5372 244.707L3.73023 264.672C2.87258 265.423 2.18531 266.348 1.71445 267.387C1.24359 268.425 1 269.552 1 270.692C1 271.832 1.24359 272.958 1.71445 273.997C2.18531 275.035 2.87258 275.961 3.73023 276.712L26.5362 296.676C27.9927 297.954 29.8652 298.658 31.8032 298.656C33.4306 298.655 35.0191 298.159 36.3569 297.232C37.6948 296.306 38.7183 294.993 39.2911 293.47C39.8639 291.947 39.9586 290.285 39.5627 288.707C39.1668 287.128 38.2991 285.708 37.0752 284.636ZM75.3712 126.809C75.5119 128.926 76.4879 130.9 78.0844 132.298C79.6809 133.695 81.7671 134.401 83.8842 134.261C86.0013 134.12 87.9758 133.144 89.3733 131.548C90.7709 129.951 91.4769 127.865 91.3362 125.748L90.7382 116.743L137.535 163.54C139.036 165.04 141.071 165.882 143.192 165.882C145.314 165.882 147.349 165.04 148.849 163.54C170.455 141.933 197.651 127.51 227.495 121.832C229.572 121.428 231.405 120.217 232.591 118.465C233.778 116.713 234.222 114.563 233.827 112.484C233.431 110.405 232.228 108.568 230.481 107.374C228.734 106.18 226.586 105.727 224.505 106.114C194.109 111.897 166.203 125.874 143.325 146.702L102.051 105.428L111.057 106.026C115.454 106.314 119.277 102.983 119.57 98.5736C119.64 97.5254 119.502 96.4736 119.166 95.4785C118.829 94.4833 118.299 93.5642 117.607 92.7737C116.915 91.9832 116.074 91.3368 115.133 90.8713C114.191 90.4057 113.167 90.1303 112.118 90.0606L81.8752 88.0526C80.7378 87.9774 79.5974 88.146 78.5304 88.5471C77.4635 88.9483 76.4945 89.5729 75.6885 90.3789C74.8825 91.1849 74.2579 92.1539 73.8567 93.2209C73.4555 94.2878 73.2869 95.4282 73.3622 96.5656L75.3712 126.809ZM107.142 299.195C106.746 297.11 105.537 295.269 103.783 294.076C102.029 292.882 99.8721 292.435 97.7877 292.831C95.7034 293.228 93.862 294.436 92.6686 296.19C91.4752 297.945 91.0276 300.101 91.4242 302.186C97.2082 332.582 111.185 360.487 132.013 383.366L90.7382 424.64L91.3362 415.634C91.4059 414.585 91.2684 413.534 90.9316 412.538C90.5948 411.543 90.0653 410.624 89.3734 409.834C88.6814 409.043 87.8405 408.397 86.8986 407.931C85.9568 407.466 84.9325 407.19 83.8842 407.121C79.4922 406.841 75.6642 410.164 75.3712 414.573L73.3622 444.816C73.287 445.953 73.4555 447.093 73.8565 448.16C74.2574 449.227 74.8816 450.196 75.6872 451.003C76.4935 451.808 77.4625 452.433 78.5295 452.834C79.5965 453.235 80.7369 453.403 81.8742 453.328L112.117 451.319C113.166 451.249 114.19 450.974 115.132 450.508C116.073 450.043 116.914 449.396 117.606 448.606C118.298 447.815 118.828 446.896 119.165 445.901C119.501 444.906 119.639 443.854 119.569 442.806C119.501 441.757 119.226 440.732 118.761 439.789C118.296 438.847 117.65 438.006 116.859 437.313C116.068 436.621 115.148 436.092 114.153 435.755C113.157 435.419 112.105 435.283 111.056 435.354L102.05 435.952L148.848 389.154C150.348 387.653 151.191 385.619 151.191 383.497C151.191 381.376 150.348 379.341 148.848 377.841C127.242 356.235 112.82 329.04 107.142 299.195ZM404.858 242.187C405.256 244.271 406.464 246.111 408.219 247.305C409.973 248.498 412.129 248.946 414.213 248.55C416.298 248.153 418.139 246.945 419.332 245.191C420.526 243.436 420.974 241.28 420.577 239.196C414.793 208.8 400.813 180.893 379.989 158.016L421.262 116.742L420.664 125.749C420.592 126.842 420.744 127.939 421.113 128.971C421.482 130.003 422.059 130.948 422.808 131.748C423.557 132.547 424.463 133.185 425.468 133.62C426.474 134.056 427.558 134.28 428.654 134.279C430.683 134.277 432.635 133.504 434.116 132.117C435.596 130.73 436.495 128.833 436.629 126.809L438.637 96.5656C438.712 95.4283 438.544 94.2879 438.142 93.221C437.741 92.1541 437.117 91.1853 436.311 90.3793C435.505 89.5733 434.536 88.9487 433.469 88.5475C432.402 88.1462 431.262 87.9775 430.124 88.0526L399.882 90.0616C398.834 90.1313 397.81 90.4067 396.868 90.8723C395.926 91.3378 395.085 91.9842 394.393 92.7747C393.701 93.5652 393.172 94.4843 392.835 95.4795C392.498 96.4746 392.361 97.5264 392.43 98.5746C392.499 99.623 392.775 100.648 393.24 101.59C393.705 102.532 394.352 103.373 395.143 104.065C395.933 104.757 396.852 105.286 397.848 105.623C398.843 105.96 399.895 106.097 400.943 106.027L409.948 105.429L363.15 152.227C362.407 152.97 361.818 153.852 361.416 154.822C361.014 155.793 360.807 156.833 360.807 157.884C360.808 158.934 361.015 159.975 361.417 160.945C361.819 161.916 362.408 162.798 363.151 163.541C384.758 185.146 399.18 212.342 404.858 242.187ZM324.869 386.499C319.298 389.819 316.229 395.218 316.229 401.701V432.598C316.229 443.819 308.917 453.359 298.809 456.72V462.609C298.809 481.191 283.693 496.308 265.112 496.308H246.887C228.306 496.308 213.19 481.19 213.19 462.609V456.72C203.083 453.359 195.771 443.819 195.771 432.598V401.701C195.771 395.218 192.703 389.819 187.13 386.499C167.395 374.724 150.979 358.123 139.425 338.258C127.556 317.82 121.282 294.455 121.282 270.691C121.282 196.408 181.716 135.975 255.999 135.975C330.282 135.975 390.717 196.408 390.717 270.691C390.717 294.455 384.443 317.819 372.573 338.258C361.021 358.123 344.604 374.724 324.869 386.499ZM282.81 462.609V458.017H229.19V462.609C229.19 472.368 237.128 480.308 246.887 480.308H265.112C274.871 480.309 282.81 472.369 282.81 462.609ZM300.229 432.598V421.133H211.771V432.598C211.771 437.792 215.997 442.017 221.19 442.017H290.809C296.004 442.018 300.229 437.792 300.229 432.598ZM233.383 277.028C233.383 268.63 226.55 261.797 218.152 261.797C209.754 261.797 202.921 268.63 202.921 277.028C202.921 286.454 214.709 296.673 233.384 301.422V277.028H233.383ZM262.617 319.946C258.209 320.193 253.791 320.193 249.383 319.946V405.133H262.617V319.946ZM374.718 270.691C374.718 205.231 321.461 151.975 256 151.975C190.539 151.975 137.283 205.231 137.283 270.691C137.283 312.316 159.521 351.424 195.32 372.754C205.775 378.983 211.771 389.534 211.771 401.701V405.133H233.382V317.855C206.076 312.134 186.919 296.235 186.919 277.029C186.919 259.808 200.93 245.798 218.15 245.798C235.37 245.798 249.381 259.808 249.381 277.029V303.916C253.688 304.201 258.309 304.201 262.615 303.916V277.029C262.615 259.808 276.626 245.798 293.846 245.798C311.066 245.798 325.077 259.808 325.077 277.029C325.077 296.235 305.92 312.134 278.614 317.855V405.133H300.226V401.701C300.226 389.534 306.222 378.983 316.676 372.754C352.479 351.424 374.718 312.315 374.718 270.691ZM309.08 277.028C309.08 268.63 302.247 261.797 293.849 261.797C285.451 261.797 278.618 268.63 278.618 277.028V301.422C297.292 296.673 309.08 286.455 309.08 277.028Z" fill="#D68029"/>
</svg>
