<svg width="512" height="512" viewBox="0 0 512 512" fill="none" xmlns="http://www.w3.org/2000/svg">
<path d="M110.998 218.199H43.7773C38.2543 218.199 33.7773 222.676 33.7773 228.199V306.964C33.7773 312.487 38.2543 316.964 43.7773 316.964H365.21M365.211 218.199H145.998M253.998 283.684H73.5653M301.019 283.684H280.998M73.5653 251.478H301.019" stroke="#D68029" stroke-width="15" stroke-miterlimit="10" stroke-linecap="round" stroke-linejoin="round"/>
<path d="M410.918 334.882C448.088 334.882 478.219 304.751 478.219 267.581C478.219 230.412 448.088 200.28 410.918 200.28C373.749 200.28 343.617 230.412 343.617 267.581C343.617 304.751 373.749 334.882 410.918 334.882Z" stroke="#D68029" stroke-width="15" stroke-miterlimit="10" stroke-linecap="round" stroke-linejoin="round"/>
<path d="M452.215 320.704C448.943 308.525 439.062 299.074 426.658 296.374M395.182 296.374C382.777 299.074 372.897 308.525 369.625 320.704" stroke="#D68029" stroke-width="15" stroke-miterlimit="10" stroke-linecap="round" stroke-linejoin="round"/>
<path d="M410.919 300.391C429.04 300.391 443.729 285.702 443.729 267.581C443.729 249.461 429.04 234.771 410.919 234.771C392.799 234.771 378.109 249.461 378.109 267.581C378.109 285.702 392.799 300.391 410.919 300.391Z" stroke="#D68029" stroke-width="15" stroke-miterlimit="10" stroke-linecap="round" stroke-linejoin="round"/>
<path d="M83.1589 121.25V148.824C83.1589 154.347 87.6359 158.824 93.1589 158.824H468.218C473.741 158.824 478.218 154.347 478.218 148.824V70.058C478.218 64.535 473.741 60.058 468.218 60.058H406.997M371.997 60.058H173.789M213.056 93.338H245.997M273.997 93.338H438.497M438.497 125.544H213.056M81.3889 72.417V74.407M126.177 72.417V74.407M56.9609 25.574V7.5M150.605 25.574V7.5M83.1589 466.926V494.5C83.1589 500.023 87.6359 504.5 93.1589 504.5H468.218C473.741 504.5 478.218 500.023 478.218 494.5V415.735C478.218 410.212 473.741 405.735 468.218 405.735H173.789M213.056 439.015H228.997M298.997 439.015H438.497M438.497 471.221H213.056M81.3889 418.093V420.084M126.177 418.093V420.084M56.9609 371.251V353.177M150.605 371.251V353.177M255.803 439.015H271.744" stroke="#D68029" stroke-width="15" stroke-miterlimit="10" stroke-linecap="round" stroke-linejoin="round"/>
<path d="M33.7773 435V446.926C33.7773 457.972 42.7313 466.926 53.7773 466.926H153.79C164.836 466.926 173.79 457.972 173.79 446.926V391.25C173.79 380.204 164.836 371.25 153.79 371.25H53.7773C42.7313 371.25 33.7773 380.204 33.7773 391.25V400M33.7773 101.25V45.5742C33.7773 34.5282 42.7313 25.5742 53.7773 25.5742H153.79C164.836 25.5742 173.79 34.5282 173.79 45.5742V101.25C173.79 112.296 164.836 121.25 153.79 121.25H53.7773C42.7323 121.25 33.7773 112.295 33.7773 101.25Z" stroke="#D68029" stroke-width="15" stroke-miterlimit="10" stroke-linecap="round" stroke-linejoin="round"/>
</svg>
