<svg width="512" height="512" viewBox="0 0 512 512" fill="none" xmlns="http://www.w3.org/2000/svg">
<path d="M111.997 15.9651C109.877 15.9731 107.847 16.8208 106.351 18.3226C104.855 19.8244 104.015 21.8579 104.015 23.9778V96.0019H40.0032C33.6509 96.0336 27.5673 98.5691 23.0727 103.058C18.578 107.547 16.0349 113.627 15.9952 119.98V136.005C15.844 146.8 32.1416 146.8 32.0207 136.005V119.98C32.0207 115.444 35.4375 111.997 40.0032 111.997H104.015V127.992H55.9985C53.8734 127.992 51.8353 128.837 50.3326 130.339C48.8299 131.842 47.9857 133.88 47.9857 136.005V360C47.9857 364.414 51.5839 367.982 55.9985 367.982H456.032C458.146 367.974 460.172 367.131 461.667 365.635C463.163 364.14 464.006 362.114 464.014 360V136.005C464.014 133.88 463.17 131.842 461.667 130.339C460.165 128.837 458.126 127.992 456.001 127.992H408.046V111.967H471.997C476.593 111.967 480.009 115.414 480.009 119.98V407.985C480.039 409.046 479.851 410.101 479.459 411.086C479.067 412.071 478.477 412.966 477.727 413.716C476.977 414.466 476.082 415.055 475.097 415.448C474.112 415.84 473.057 416.027 471.997 415.998H40.0032C38.943 416.027 37.888 415.84 36.9027 415.448C35.9173 415.055 35.0223 414.466 34.2724 413.716C33.5224 412.966 32.9333 412.071 32.5409 411.086C32.1486 410.101 31.9613 409.046 31.9905 407.985V208.029C32.1416 197.205 15.844 197.205 15.9952 208.029V408.016C15.9952 421.199 26.8502 432.024 40.0032 432.024H207.031C205.096 441.609 199.17 459.025 180.483 480.009H159.983C157.858 480.009 155.82 480.854 154.317 482.356C152.814 483.859 151.97 485.897 151.97 488.022C151.97 490.147 152.814 492.185 154.317 493.688C155.82 495.191 157.858 496.035 159.983 496.035H351.987C354.112 496.035 356.15 495.191 357.653 493.688C359.155 492.185 359.999 490.147 359.999 488.022C359.999 485.897 359.155 483.859 357.653 482.356C356.15 480.854 354.112 480.009 351.987 480.009H331.516C312.316 458.179 306.48 441.306 304.727 432.024H471.997C478.354 431.992 484.442 429.452 488.938 424.957C493.433 420.461 495.973 414.373 496.005 408.016V119.98C495.965 113.627 493.422 107.547 488.927 103.058C484.433 98.5691 478.349 96.0336 471.997 96.0019H408.046V23.9778C408.046 22.923 407.837 21.8786 407.433 20.9045C407.028 19.9304 406.435 19.0457 405.688 18.3012C404.941 17.5568 404.054 16.9672 403.078 16.5663C402.103 16.1654 401.058 15.9611 400.003 15.9651H328.039C326.982 15.9571 325.933 16.1585 324.954 16.5576C323.975 16.9567 323.085 17.5456 322.334 18.2905C321.584 19.0353 320.988 19.9213 320.582 20.8974C320.175 21.8736 319.966 22.9205 319.966 23.9778V63.9811H263.998V47.9556C263.977 45.9096 263.178 43.9481 261.762 42.4707C260.347 40.9933 258.421 40.1109 256.378 40.0033H192.004V23.9778C192.004 22.923 191.795 21.8786 191.391 20.9045C190.986 19.9304 190.393 19.0457 189.646 18.3012C188.899 17.5568 188.012 16.9672 187.036 16.5663C186.061 16.1654 185.015 15.9611 183.961 15.9651H111.997ZM120.01 31.9906H176.008V63.9811H120.01V31.9906ZM335.991 31.9906H392.05V208.029H335.991V31.9906ZM192.004 55.9986H248.002V208.029H192.004V55.9986ZM120.04 79.9764H175.978V96.0019H120.04V79.9764ZM263.967 79.9764H319.966V112.027H263.998L263.967 79.9764ZM120.04 111.997H175.978V287.975H120.04V111.997ZM263.967 128.023H319.966V143.958H263.998L263.967 128.023ZM64.0113 143.988H104.015V287.975H87.989C86.9342 287.975 85.8898 288.184 84.9157 288.588C83.9416 288.993 83.0569 289.586 82.3124 290.333C81.568 291.08 80.9784 291.967 80.5775 292.943C80.1766 293.918 79.9723 294.964 79.9763 296.018V328.039C79.9923 330.159 80.8477 332.186 82.3552 333.677C83.8627 335.167 85.8994 336 88.0193 335.992H423.95C425.003 336 426.046 335.8 427.021 335.405C427.997 335.009 428.884 334.426 429.634 333.688C430.384 332.949 430.981 332.07 431.391 331.101C431.801 330.132 432.016 329.092 432.024 328.039V295.988C432.024 294.933 431.815 293.889 431.411 292.915C431.006 291.941 430.413 291.056 429.666 290.312C428.919 289.567 428.032 288.978 427.056 288.577C426.081 288.176 425.035 287.971 423.981 287.975H408.046V143.988H448.019V352.017H64.0113V143.988ZM23.887 159.892C22.8387 159.908 21.8037 160.13 20.8413 160.546C19.8788 160.962 19.0077 161.563 18.2777 162.316C17.5476 163.068 16.973 163.957 16.5865 164.932C16.2001 165.906 16.0094 166.947 16.0254 167.996V175.978C15.844 186.803 32.1416 186.803 31.9905 175.978V167.996C32.0026 166.928 31.8013 165.869 31.3984 164.88C30.9955 163.892 30.399 162.994 29.6441 162.239C28.8892 161.484 27.991 160.887 27.0024 160.484C26.0137 160.081 24.9545 159.88 23.887 159.892ZM263.967 159.983H319.966V288.006H263.998L263.967 159.983ZM192.004 224.025H248.002V239.959H192.004V224.025ZM335.991 224.025H392.05V239.959H335.991V224.025ZM192.004 255.985H248.002V287.975H192.004V255.985ZM335.991 255.985H392.05V287.975H335.991V255.985ZM95.9716 303.971H415.998V319.996H95.9716V303.971ZM239.99 384.008C237.864 384.008 235.826 384.852 234.324 386.354C232.821 387.857 231.977 389.895 231.977 392.02C231.977 394.145 232.821 396.184 234.324 397.686C235.826 399.189 237.864 400.033 239.99 400.033H271.98C274.105 400.033 276.143 399.189 277.646 397.686C279.149 396.184 279.993 394.145 279.993 392.02C279.993 389.895 279.149 387.857 277.646 386.354C276.143 384.852 274.105 384.008 271.98 384.008H239.99ZM223.48 432.024H288.58C289.941 441.669 294.627 459.146 310.744 480.009H201.196C217.524 459.176 222.18 441.669 223.48 432.024Z" fill="#D68029"/>
</svg>
