<svg width="512" height="512" viewBox="0 0 512 512" fill="none" xmlns="http://www.w3.org/2000/svg">
<path d="M426.118 415.221C410.758 424.264 400.449 440.971 400.449 460.085V460.292C400.491 471.018 409.372 479.618 420.098 479.618H484.843C495.68 479.618 504.514 470.846 504.499 460.009C504.498 459.143 504.475 458.278 504.432 457.414C503.562 440.188 494.18 425.096 480.453 416.275" stroke="#D68029" stroke-width="15" stroke-miterlimit="10" stroke-linecap="round" stroke-linejoin="round"/>
<path d="M485.489 391.884C485.489 410.118 470.708 424.899 452.474 424.899C434.24 424.899 419.459 410.118 419.459 391.884C419.459 373.65 434.24 358.869 452.474 358.869C457.09 358.869 461.484 359.816 465.473 361.527M479.704 91.2734C494.58 100.429 504.499 116.862 504.499 135.611V135.818C504.457 146.544 495.576 155.144 484.85 155.144H420.105C409.268 155.144 400.434 146.372 400.449 135.535C400.45 134.675 400.473 133.809 400.516 132.94C401.401 115.41 411.102 100.09 425.226 91.3414" stroke="#D68029" stroke-width="15" stroke-miterlimit="10" stroke-linecap="round" stroke-linejoin="round"/>
<path d="M452.474 100.428C470.708 100.428 485.489 85.6471 485.489 67.4134C485.489 49.1798 470.708 34.3984 452.474 34.3984C434.24 34.3984 419.459 49.1798 419.459 67.4134C419.459 85.6471 434.24 100.428 452.474 100.428Z" stroke="#D68029" stroke-width="15" stroke-miterlimit="10" stroke-linecap="round" stroke-linejoin="round"/>
<path d="M372.575 253.914C358.057 263.144 348.424 279.372 348.424 297.849V298.056C348.466 308.782 357.347 317.382 368.073 317.382H432.818C443.655 317.382 452.489 308.61 452.474 297.773C452.472 296.908 452.45 296.042 452.407 295.178C451.529 277.786 441.974 262.57 428.031 253.787" stroke="#D68029" stroke-width="15" stroke-miterlimit="10" stroke-linecap="round" stroke-linejoin="round"/>
<path d="M400.451 262.665C418.684 262.665 433.466 247.883 433.466 229.65C433.466 211.416 418.684 196.635 400.451 196.635C382.217 196.635 367.436 211.416 367.436 229.65C367.436 247.883 382.217 262.665 400.451 262.665Z" stroke="#D68029" stroke-width="15" stroke-miterlimit="10" stroke-linecap="round" stroke-linejoin="round"/>
<path d="M57.5276 140.038C86.6396 112.157 126.106 95.0059 169.503 95.0059H343.08C349.434 95.0059 354.584 100.157 354.584 106.51V143.323C354.584 149.677 349.433 154.827 343.08 154.827H170.806C114.551 154.827 67.8716 199.747 67.3266 256C66.7756 312.803 112.825 359.19 169.504 359.19H343.08C349.434 359.19 354.584 364.341 354.584 370.694V407.507C354.584 413.861 349.433 419.011 343.08 419.011H171.071C81.5216 419.011 7.74964 347.016 7.50064 257.467C7.41264 225.827 16.4426 196.262 32.1046 171.256M299.88 97.3069V153.659M299.88 360.871V415.224" stroke="#D68029" stroke-width="15" stroke-miterlimit="10" stroke-linecap="round" stroke-linejoin="round"/>
<path d="M41.4558 72.4701C53.944 72.4701 64.0677 62.3464 64.0677 49.8581C64.0677 37.3698 53.944 27.2461 41.4558 27.2461C28.9675 27.2461 18.8438 37.3698 18.8438 49.8581C18.8438 62.3464 28.9675 72.4701 41.4558 72.4701Z" stroke="#D68029" stroke-width="15" stroke-miterlimit="10" stroke-linecap="round" stroke-linejoin="round"/>
<path d="M66.4902 49.8574H85.3772C99.3372 49.8574 110.654 61.1744 110.654 75.1344V103.212M246.926 239.703H245.209C242.958 239.703 240.996 238.235 240.287 236.099C239.276 233.052 238.044 230.083 236.6 227.215C235.587 225.201 235.934 222.772 237.528 221.177L238.747 219.958C239.227 219.479 239.607 218.91 239.867 218.283C240.127 217.657 240.26 216.985 240.26 216.307C240.26 215.629 240.127 214.957 239.867 214.331C239.607 213.704 239.227 213.135 238.747 212.655L221.578 195.486C221.099 195.007 220.53 194.626 219.903 194.367C219.276 194.107 218.605 193.974 217.927 193.974C217.249 193.974 216.577 194.107 215.95 194.367C215.324 194.626 214.755 195.007 214.275 195.486L213.056 196.705C211.462 198.299 209.032 198.647 207.018 197.633C204.151 196.19 201.181 194.958 198.134 193.946C195.997 193.237 194.53 191.275 194.53 189.024V187.307C194.53 185.938 193.986 184.624 193.018 183.656C192.049 182.687 190.736 182.143 189.366 182.143H165.086C163.717 182.143 162.403 182.687 161.435 183.656C160.466 184.624 159.922 185.938 159.922 187.307V189.024C159.922 191.275 158.454 193.237 156.318 193.946C153.271 194.958 150.302 196.19 147.434 197.633C145.42 198.646 142.991 198.299 141.396 196.705L140.177 195.486C139.209 194.518 137.895 193.974 136.525 193.974C135.155 193.974 133.842 194.518 132.873 195.486L115.704 212.655C114.736 213.624 114.192 214.938 114.192 216.307C114.192 217.677 114.736 218.991 115.704 219.959L116.923 221.178C118.517 222.772 118.865 225.202 117.851 227.216C116.408 230.084 115.175 233.053 114.164 236.1C113.455 238.237 111.493 239.704 109.242 239.704H107.525C106.156 239.704 104.842 240.248 103.874 241.217C102.905 242.185 102.361 243.499 102.361 244.868V269.148C102.361 270.518 102.905 271.831 103.874 272.8C104.842 273.768 106.156 274.312 107.525 274.312H109.242C111.493 274.312 113.455 275.78 114.164 277.916C115.175 280.964 116.408 283.933 117.851 286.8C118.864 288.814 118.517 291.243 116.923 292.838L115.704 294.057C114.736 295.026 114.192 296.34 114.192 297.709C114.192 299.079 114.736 300.393 115.704 301.361L132.873 318.53C133.842 319.499 135.155 320.043 136.525 320.043C137.895 320.043 139.209 319.499 140.177 318.53L141.396 317.311C142.99 315.717 145.42 315.369 147.434 316.383C150.302 317.827 153.271 319.059 156.318 320.07C158.455 320.779 159.922 322.741 159.922 324.992V326.709C159.922 328.079 160.466 329.392 161.435 330.361C162.403 331.329 163.717 331.873 165.086 331.873H189.366C190.736 331.873 192.049 331.329 193.018 330.361C193.986 329.392 194.53 328.079 194.53 326.709V324.992C194.53 322.741 195.998 320.779 198.134 320.07C201.181 319.059 204.151 317.827 207.018 316.383C209.032 315.37 211.461 315.717 213.056 317.311L214.275 318.53C214.755 319.01 215.324 319.391 215.95 319.65C216.577 319.91 217.249 320.043 217.927 320.043C218.605 320.043 219.276 319.91 219.903 319.65C220.53 319.391 221.099 319.01 221.578 318.53L238.747 301.361C239.227 300.882 239.607 300.313 239.867 299.686C240.127 299.06 240.26 298.388 240.26 297.71C240.26 297.032 240.127 296.36 239.867 295.734C239.607 295.107 239.227 294.538 238.747 294.058L237.528 292.839C235.934 291.245 235.586 288.815 236.6 286.801C238.044 283.934 239.276 280.965 240.287 277.917C240.996 275.78 242.958 274.313 245.209 274.313H246.926C248.296 274.313 249.609 273.769 250.578 272.801C251.546 271.832 252.09 270.519 252.09 269.149V244.869C252.091 244.191 251.957 243.519 251.698 242.893C251.438 242.266 251.058 241.696 250.578 241.217C250.099 240.737 249.53 240.356 248.903 240.097C248.276 239.837 247.605 239.703 246.926 239.703ZM177.226 284.437C162.077 284.437 149.797 272.157 149.797 257.008C149.797 241.859 162.077 229.579 177.226 229.579C192.375 229.579 204.655 241.859 204.655 257.008C204.655 272.156 192.374 284.437 177.226 284.437Z" stroke="#D68029" stroke-width="15" stroke-miterlimit="10" stroke-linecap="round" stroke-linejoin="round"/>
<path d="M280.442 54.4681C292.93 54.4681 303.054 44.3444 303.054 31.8561C303.054 19.3679 292.93 9.24414 280.442 9.24414C267.954 9.24414 257.83 19.3679 257.83 31.8561C257.83 44.3444 267.954 54.4681 280.442 54.4681Z" stroke="#D68029" stroke-width="15" stroke-miterlimit="10" stroke-linecap="round" stroke-linejoin="round"/>
<path d="M255.408 31.8555H236.521C222.561 31.8555 211.244 43.1725 211.244 57.1325V93.2105" stroke="#D68029" stroke-width="15" stroke-miterlimit="10" stroke-linecap="round" stroke-linejoin="round"/>
<path d="M280.442 502.753C292.93 502.753 303.054 492.63 303.054 480.141C303.054 467.653 292.93 457.529 280.442 457.529C267.954 457.529 257.83 467.653 257.83 480.141C257.83 492.63 267.954 502.753 280.442 502.753Z" stroke="#D68029" stroke-width="15" stroke-miterlimit="10" stroke-linecap="round" stroke-linejoin="round"/>
<path d="M255.408 480.142H236.521C222.561 480.142 211.244 468.825 211.244 454.865V418.787" stroke="#D68029" stroke-width="15" stroke-miterlimit="10" stroke-linecap="round" stroke-linejoin="round"/>
<path d="M41.4558 487.689C53.944 487.689 64.0677 477.565 64.0677 465.077C64.0677 452.589 53.944 442.465 41.4558 442.465C28.9675 442.465 18.8438 452.589 18.8438 465.077C18.8438 477.565 28.9675 487.689 41.4558 487.689Z" stroke="#D68029" stroke-width="15" stroke-miterlimit="10" stroke-linecap="round" stroke-linejoin="round"/>
<path d="M66.4902 465.078H85.3772C99.3372 465.078 110.654 453.761 110.654 439.801V411.723" stroke="#D68029" stroke-width="15" stroke-miterlimit="10" stroke-linecap="round" stroke-linejoin="round"/>
</svg>
