<svg width="512" height="512" viewBox="0 0 512 512" fill="none" xmlns="http://www.w3.org/2000/svg">
<path d="M465.153 155.472C480.285 186.818 488.097 221.192 488.001 256C488.032 300.626 475.182 344.313 450.995 381.817C426.807 419.32 392.31 449.046 351.644 467.425C310.977 485.804 265.871 492.056 221.739 485.43C177.607 478.805 136.325 459.582 102.849 430.072L120.225 412.728C121.252 411.705 121.981 410.423 122.336 409.018C122.691 407.613 122.657 406.138 122.239 404.751C121.821 403.364 121.034 402.116 119.962 401.141C118.89 400.166 117.574 399.501 116.153 399.216L59.6009 387.88C58.3099 387.621 56.975 387.685 55.7147 388.066C54.4544 388.448 53.3076 389.134 52.3762 390.065C51.4448 390.995 50.7574 392.141 50.3752 393.401C49.9929 394.661 49.9276 395.996 50.1849 397.288L61.4409 453.832C61.7242 455.25 62.3868 456.565 63.3582 457.637C64.3296 458.709 65.5734 459.497 66.9573 459.918C68.3411 460.339 69.8133 460.377 71.217 460.028C72.6208 459.679 73.9036 458.956 74.9289 457.936L91.5129 441.392C127.232 473.144 171.37 493.891 218.61 501.134C265.849 508.377 314.175 501.806 357.767 482.214C401.358 462.622 438.355 430.844 464.3 390.709C490.246 350.573 504.033 303.791 504.001 256C504.104 218.787 495.75 182.038 479.569 148.528L465.153 155.472ZM74.2089 436.048L68.2169 405.928L98.3449 411.968L74.2089 436.048ZM46.8489 356.528C31.7173 325.181 23.9047 290.807 24.0009 256C23.9917 211.374 36.8557 167.693 61.0503 130.195C85.2448 92.6975 119.743 62.9751 160.406 44.5927C201.07 26.2103 246.173 19.9483 290.307 26.5577C334.44 33.1671 375.73 52.3673 409.225 81.8555L391.777 99.2715C390.75 100.294 390.021 101.576 389.666 102.981C389.311 104.386 389.345 105.861 389.763 107.248C390.181 108.635 390.968 109.883 392.04 110.858C393.112 111.833 394.428 112.499 395.849 112.784L452.401 124.12C453.692 124.378 455.027 124.314 456.287 123.933C457.548 123.551 458.694 122.865 459.626 121.934C460.557 121.004 461.244 119.858 461.627 118.598C462.009 117.338 462.074 116.003 461.817 114.712L450.561 58.1675C450.278 56.749 449.615 55.4339 448.644 54.3621C447.672 53.2902 446.428 52.5018 445.045 52.0807C443.661 51.6597 442.189 51.6217 440.785 51.9708C439.381 52.32 438.098 53.0432 437.073 54.0635L420.561 70.5355C384.823 38.8062 340.677 18.0812 293.436 10.8549C246.195 3.6286 197.872 10.209 154.283 29.804C110.694 49.3991 73.6975 81.1738 47.7452 121.304C21.7928 161.434 7.99102 208.209 8.00094 256C7.89788 293.212 16.2522 329.961 32.4329 363.472L46.8489 356.528ZM437.793 75.9515L443.785 106.072L413.657 99.9995L437.793 75.9515Z" fill="#D68029"/>
<path d="M362.17 401.424H363.354C371.09 401.417 378.64 399.058 385.004 394.659C391.368 390.26 396.243 384.03 398.983 376.796C401.723 369.562 402.198 361.665 400.346 354.154C398.493 346.644 394.4 339.874 388.61 334.744L316.362 270.672C319.326 259.421 319.161 247.575 315.886 236.41C312.611 225.246 306.349 215.188 297.776 207.322C289.204 199.456 278.646 194.08 267.242 191.775C255.838 189.469 244.021 190.322 233.066 194.24C231.794 194.692 230.658 195.459 229.762 196.469C228.867 197.479 228.241 198.7 227.944 200.016C227.647 201.333 227.688 202.703 228.063 204C228.439 205.297 229.136 206.477 230.09 207.432L248.85 226.2L226.226 248.824L207.466 230.064C206.511 229.108 205.33 228.409 204.032 228.033C202.735 227.657 201.363 227.615 200.045 227.912C198.727 228.21 197.506 228.836 196.495 229.732C195.485 230.629 194.718 231.767 194.266 233.04C190.348 243.995 189.497 255.812 191.803 267.216C194.108 278.62 199.484 289.178 207.35 297.751C215.215 306.324 225.273 312.586 236.436 315.863C247.6 319.139 259.446 319.306 270.698 316.344L334.778 388.584C338.213 392.496 342.419 395.655 347.133 397.865C351.846 400.074 356.966 401.286 362.17 401.424ZM273.274 299.2C272.361 299.202 271.455 299.356 270.594 299.656C263.153 302.329 255.166 303.116 247.347 301.948C239.527 300.779 232.119 297.69 225.786 292.958C219.452 288.226 214.39 281.998 211.052 274.831C207.714 267.664 206.204 259.781 206.658 251.888L220.57 265.808C222.098 267.253 224.122 268.059 226.226 268.059C228.329 268.059 230.353 267.253 231.882 265.808L265.826 231.864C267.326 230.364 268.168 228.329 268.168 226.208C268.168 224.087 267.326 222.052 265.826 220.552L251.906 206.64C259.799 206.186 267.682 207.696 274.849 211.034C282.016 214.372 288.244 219.434 292.976 225.768C297.708 232.101 300.797 239.509 301.965 247.329C303.134 255.148 302.347 263.135 299.674 270.576C299.14 272.078 299.068 273.705 299.465 275.249C299.863 276.793 300.713 278.182 301.906 279.24L378.002 346.72C380.261 348.723 382.087 351.168 383.367 353.903C384.647 356.638 385.353 359.606 385.443 362.624C385.533 365.643 385.004 368.648 383.89 371.454C382.775 374.261 381.098 376.81 378.962 378.944C376.843 381.101 374.296 382.79 371.486 383.905C368.675 385.02 365.663 385.534 362.642 385.416C359.623 385.338 356.652 384.637 353.917 383.356C351.181 382.076 348.74 380.244 346.746 377.976L279.258 301.888C278.507 301.042 277.585 300.366 276.554 299.902C275.522 299.439 274.404 299.2 273.274 299.2Z" fill="#D68029"/>
<path d="M369 295.999C378.191 270.233 378.339 242.106 369.421 216.245C360.503 190.383 343.049 168.327 319.93 153.703C296.811 139.078 269.403 132.758 242.214 135.78C215.025 138.801 189.675 150.986 170.331 170.33C150.987 189.674 138.802 215.024 135.781 242.213C132.759 269.402 139.079 296.81 153.704 319.929C168.328 343.048 190.384 360.502 216.246 369.42C242.107 378.338 270.234 378.19 296 368.999L284.432 355.951C262.199 362.331 238.476 361.143 216.99 352.575C195.505 344.007 177.475 328.543 165.733 308.614C153.992 288.685 149.204 265.42 152.122 242.474C155.04 219.528 165.499 198.202 181.855 181.846C198.211 165.49 219.537 155.031 242.483 152.113C265.429 149.195 288.694 153.983 308.623 165.725C328.552 177.466 344.016 195.496 352.584 216.981C361.152 238.467 362.34 262.19 355.96 284.423L369 295.999ZM367.648 367.647C368.766 366.528 369.527 365.103 369.835 363.551C370.143 361.999 369.984 360.391 369.378 358.93C368.773 357.469 367.747 356.22 366.432 355.341C365.116 354.462 363.57 353.994 361.988 353.994C360.406 353.994 358.86 354.462 357.545 355.341C356.229 356.22 355.204 357.469 354.598 358.93C353.992 360.391 353.833 361.999 354.141 363.551C354.449 365.103 355.21 366.528 356.328 367.647C357.071 368.391 357.953 368.981 358.925 369.384C359.896 369.786 360.937 369.994 361.988 369.994C363.04 369.994 364.081 369.786 365.052 369.384C366.023 368.981 366.905 368.391 367.648 367.647Z" fill="#D68029"/>
<path d="M408.488 296C414.723 295.992 420.699 293.511 425.107 289.101C429.515 284.692 431.994 278.715 432 272.48V239.52C431.994 233.285 429.515 227.308 425.107 222.899C420.699 218.489 414.723 216.008 408.488 216C406.846 216.024 405.239 215.527 403.897 214.582C402.555 213.636 401.546 212.29 401.016 210.736C398.292 202.035 394.787 193.598 390.544 185.528C389.814 184.051 389.57 182.381 389.847 180.757C390.124 179.133 390.909 177.639 392.088 176.488L392.248 176.32C396.589 171.892 399.008 165.931 398.981 159.73C398.954 153.53 396.483 147.59 392.104 143.2L368.8 119.888C364.318 115.604 358.356 113.213 352.156 113.213C345.956 113.213 339.994 115.604 335.512 119.888C334.362 121.066 332.869 121.85 331.246 122.126C329.623 122.402 327.954 122.156 326.48 121.424C318.403 117.179 309.958 113.674 301.248 110.952C299.704 110.421 298.366 109.418 297.424 108.084C296.482 106.75 295.984 105.153 296 103.52C295.994 97.2854 293.515 91.3079 289.107 86.8987C284.699 82.4894 278.723 80.0085 272.488 80H239.512C236.4 80.0136 233.321 80.6421 230.453 81.8495C227.584 83.057 224.983 84.8194 222.798 87.0356C220.613 89.2518 218.887 91.8781 217.721 94.7633C216.554 97.6486 215.969 100.736 216 103.848C216.027 105.388 215.567 106.898 214.685 108.161C213.803 109.424 212.544 110.376 211.088 110.88C202.262 113.615 193.706 117.155 185.528 121.456C184.043 122.184 182.364 122.421 180.735 122.134C179.106 121.846 177.611 121.048 176.464 119.856C171.984 115.577 166.027 113.189 159.832 113.189C153.637 113.189 147.68 115.577 143.2 119.856L119.896 143.2C115.52 147.59 113.051 153.527 113.022 159.725C112.994 165.923 115.409 171.882 119.744 176.312L119.912 176.488C121.091 177.637 121.876 179.13 122.154 180.752C122.433 182.374 122.191 184.043 121.464 185.52C117.216 193.595 113.705 202.037 110.976 210.744C110.447 212.296 109.44 213.641 108.099 214.586C106.758 215.53 105.152 216.025 103.512 216C97.2774 216.008 91.3008 218.489 86.893 222.899C82.4853 227.308 80.0063 233.285 80 239.52V272.48C80.0063 278.715 82.4853 284.692 86.893 289.101C91.3008 293.511 97.2774 295.992 103.512 296C105.154 295.976 106.761 296.473 108.103 297.418C109.445 298.364 110.454 299.71 110.984 301.264C113.708 309.965 117.213 318.402 121.456 326.472C122.186 327.949 122.43 329.619 122.153 331.243C121.876 332.867 121.091 334.361 119.912 335.512L119.752 335.68C115.411 340.108 112.992 346.069 113.019 352.27C113.046 358.47 115.517 364.41 119.896 368.8L143.2 392.112C147.682 396.396 153.644 398.787 159.844 398.787C166.044 398.787 172.006 396.396 176.488 392.112C177.64 390.937 179.133 390.156 180.755 389.88C182.377 389.604 184.045 389.848 185.52 390.576C193.597 394.821 202.042 398.326 210.752 401.048C212.296 401.579 213.634 402.582 214.576 403.916C215.518 405.25 216.016 406.847 216 408.48C216.006 414.715 218.485 420.692 222.893 425.101C227.301 429.511 233.277 431.992 239.512 432H272.488C278.723 431.992 284.699 429.511 289.107 425.101C293.515 420.692 295.994 414.715 296 408.48C295.977 406.842 296.472 405.238 297.414 403.897C298.357 402.557 299.698 401.549 301.248 401.016C307.112 399.132 312.856 396.893 318.448 394.312L307.344 381.8C303.776 383.264 300.144 384.6 296.488 385.744C291.667 387.267 287.462 390.299 284.494 394.392C281.525 398.486 279.95 403.424 280 408.48C279.998 410.472 279.206 412.383 277.798 413.792C276.39 415.202 274.48 415.996 272.488 416H239.512C237.52 415.996 235.61 415.202 234.202 413.792C232.794 412.383 232.002 410.472 232 408.48C232.05 403.424 230.475 398.486 227.506 394.392C224.538 390.299 220.333 387.267 215.512 385.744C207.731 383.309 200.185 380.177 192.968 376.384C189.615 374.612 185.88 373.687 182.088 373.688C178.936 373.699 175.818 374.332 172.912 375.551C170.005 376.77 167.368 378.551 165.152 380.792C163.718 382.159 161.813 382.921 159.832 382.921C157.851 382.921 155.946 382.159 154.512 380.792L131.2 357.488C129.794 356.074 129.005 354.162 129.005 352.168C129.005 350.174 129.794 348.262 131.2 346.848C131.259 346.798 131.313 346.742 131.36 346.68C134.924 343.125 137.258 338.524 138.023 333.549C138.787 328.574 137.941 323.484 135.608 319.024C131.814 311.81 128.681 304.267 126.248 296.488C124.725 291.667 121.693 287.462 117.6 284.494C113.506 281.525 108.568 279.95 103.512 280C101.52 279.996 99.6102 279.202 98.2021 277.792C96.794 276.383 96.0021 274.472 96 272.48V239.52C96.0021 237.528 96.794 235.617 98.2021 234.208C99.6102 232.798 101.52 232.004 103.512 232C108.567 232.052 113.506 230.478 117.599 227.511C121.692 224.544 124.724 220.34 126.248 215.52C128.687 207.735 131.825 200.187 135.624 192.968C137.95 188.509 138.793 183.425 138.031 178.454C137.268 173.483 134.94 168.884 131.384 165.328L131.208 165.152C129.802 163.738 129.013 161.826 129.013 159.832C129.013 157.838 129.802 155.926 131.208 154.512L154.512 131.2C155.943 129.821 157.853 129.051 159.84 129.051C161.827 129.051 163.737 129.821 165.168 131.2C168.722 134.813 173.343 137.189 178.349 137.979C183.355 138.768 188.483 137.929 192.976 135.584C200.287 131.74 207.935 128.575 215.824 126.128C220.6 124.612 224.757 121.59 227.673 117.515C230.589 113.44 232.107 108.53 232 103.52C232.002 101.528 232.794 99.6173 234.202 98.2077C235.61 96.7981 237.52 96.0042 239.512 96H272.488C274.48 96.0042 276.39 96.7981 277.798 98.2077C279.206 99.6173 279.998 101.528 280 103.52C279.95 108.576 281.525 113.514 284.494 117.608C287.462 121.701 291.667 124.733 296.488 126.256C304.269 128.691 311.815 131.823 319.032 135.616C323.528 137.962 328.659 138.8 333.668 138.006C338.677 137.213 343.298 134.829 346.848 131.208C348.282 129.841 350.187 129.079 352.168 129.079C354.149 129.079 356.054 129.841 357.488 131.208L380.8 154.512C382.206 155.926 382.995 157.838 382.995 159.832C382.995 161.826 382.206 163.738 380.8 165.152C380.741 165.202 380.687 165.258 380.64 165.32C377.076 168.875 374.742 173.476 373.977 178.451C373.213 183.426 374.059 188.516 376.392 192.976C380.186 200.19 383.319 207.733 385.752 215.512C387.276 220.333 390.307 224.538 394.4 227.506C398.494 230.475 403.432 232.05 408.488 232C410.48 232.004 412.39 232.798 413.798 234.208C415.206 235.617 415.998 237.528 416 239.52V272.48C415.989 273.492 415.776 274.492 415.373 275.421C414.971 276.35 414.387 277.189 413.656 277.889C412.925 278.589 412.062 279.137 411.117 279.499C410.172 279.862 409.164 280.032 408.152 280C403.198 279.991 398.369 281.553 394.359 284.46C390.348 287.368 387.363 291.473 385.832 296.184C384.656 299.959 383.322 303.682 381.832 307.344L394.304 318.4C396.942 312.712 399.219 306.863 401.12 300.888C401.662 299.391 402.67 298.108 403.997 297.227C405.324 296.347 406.898 295.917 408.488 296Z" fill="#D68029"/>
</svg>
