<svg width="512" height="512" viewBox="0 0 512 512" fill="none" xmlns="http://www.w3.org/2000/svg">
<path fill-rule="evenodd" clip-rule="evenodd" d="M133.467 122.523C130.911 119.968 130.911 115.815 133.467 113.27C134.075 112.66 134.797 112.177 135.592 111.848C136.387 111.518 137.239 111.348 138.099 111.348C138.96 111.348 139.812 111.518 140.607 111.848C141.402 112.177 142.124 112.66 142.732 113.27L153.676 124.213L173.575 97.6761C174.63 96.3207 176.175 95.4337 177.877 95.2061C179.579 94.9785 181.303 95.4285 182.677 96.4593C184.051 97.49 184.965 99.019 185.223 100.717C185.48 102.415 185.061 104.147 184.055 105.538L159.627 138.105C157.236 141.294 152.565 141.623 149.755 138.811L133.467 122.523ZM91.8669 98.1779V136.42C91.8669 144.78 95.842 150.114 97.9074 150.114H135.632C140.474 150.114 147.409 152.036 152.991 161.207L158.458 170.202L163.924 161.207C169.507 152.036 176.441 150.114 181.278 150.114H219.002C221.072 150.114 225.048 144.78 225.048 136.42V98.1779C225.048 89.8241 221.073 84.4839 219.002 84.4839H97.9074C95.842 84.4849 91.8669 89.8241 91.8669 98.1779ZM97.9074 163.217H135.632C136.438 163.217 138.873 163.217 141.794 168.021L152.859 186.214C155.409 190.41 161.507 190.41 164.057 186.214L175.122 168.021C178.049 163.217 180.478 163.217 181.278 163.217H219.002C229.736 163.217 238.145 151.445 238.145 136.421V98.1779C238.145 83.1589 229.736 71.3818 219.002 71.3818H97.9074C87.1739 71.3818 78.7638 83.1589 78.7638 98.1779V136.42C78.7638 151.445 87.1739 163.217 97.9074 163.217ZM325.955 355.469C325.955 354.166 327.054 353.067 328.358 353.067H360.261C361.564 353.067 362.664 354.166 362.664 355.469V387.373C362.664 388.676 361.565 389.775 360.261 389.775H328.358C327.054 389.775 325.955 388.676 325.955 387.373V355.469ZM328.358 402.877H360.261C368.814 402.877 375.766 395.925 375.766 387.373V355.469C375.766 346.916 368.814 339.965 360.261 339.965H328.358C319.805 339.965 312.853 346.917 312.853 355.469V387.373C312.853 395.925 319.805 402.877 328.358 402.877ZM325.955 271.695C325.955 270.397 327.054 269.292 328.358 269.292H360.261C361.564 269.292 362.664 270.396 362.664 271.695V303.605C362.664 304.908 361.565 306.007 360.261 306.007H328.358C327.054 306.007 325.955 304.908 325.955 303.605V271.695ZM328.358 319.104H360.261C368.814 319.104 375.766 312.152 375.766 303.605V271.695C375.766 263.147 368.814 256.195 360.261 256.195H328.358C319.805 256.195 312.853 263.147 312.853 271.695V303.605C312.853 312.152 319.805 319.104 328.358 319.104ZM325.955 187.915C325.955 186.613 327.054 185.513 328.358 185.513H360.261C361.564 185.513 362.664 186.612 362.664 187.915V219.824C362.664 221.121 361.565 222.226 360.261 222.226H328.358C327.054 222.226 325.955 221.121 325.955 219.824V187.915ZM328.358 235.329H360.261C368.814 235.329 375.766 228.372 375.766 219.825V187.916C375.766 179.374 368.814 172.417 360.261 172.417H328.358C319.805 172.417 312.853 179.374 312.853 187.916V219.825C312.853 228.372 319.805 235.329 328.358 235.329ZM400.807 389.068L418.454 371.426L400.807 353.779C399.579 352.55 398.889 350.883 398.889 349.146C398.889 347.409 399.579 345.742 400.807 344.513C402.037 343.285 403.704 342.596 405.442 342.596C407.181 342.596 408.848 343.285 410.078 344.513L427.719 362.16L445.361 344.513C446.591 343.285 448.258 342.596 449.996 342.596C451.734 342.596 453.401 343.285 454.631 344.513C455.859 345.742 456.549 347.409 456.549 349.146C456.549 350.883 455.859 352.55 454.631 353.779L436.985 371.426L454.631 389.068C458.767 393.208 455.781 400.249 449.987 400.249C448.251 400.246 446.587 399.556 445.36 398.328L427.718 380.686L410.077 398.328C407.515 400.895 403.368 400.884 400.806 398.328C398.25 395.777 398.25 391.63 400.807 389.068ZM400.807 292.285C399.579 291.055 398.889 289.388 398.889 287.65C398.889 285.911 399.579 284.244 400.807 283.014C402.037 281.786 403.704 281.097 405.442 281.097C407.18 281.097 408.847 281.786 410.078 283.014L422.844 295.785L445.483 265.599C447.659 262.711 451.766 262.12 454.655 264.29C457.548 266.466 458.145 270.568 455.969 273.461L428.792 309.688C426.405 312.885 421.729 313.207 418.924 310.39L400.807 292.285ZM400.807 124.731C399.579 123.502 398.889 121.836 398.889 120.099C398.889 118.361 399.579 116.695 400.807 115.466C402.037 114.238 403.704 113.548 405.442 113.548C407.181 113.548 408.848 114.238 410.078 115.466L422.844 128.232L445.483 98.057C447.659 95.1581 451.766 94.5734 454.655 96.7484C455.344 97.2639 455.924 97.9102 456.363 98.6503C456.802 99.3903 457.091 100.21 457.213 101.061C457.335 101.913 457.288 102.781 457.074 103.614C456.861 104.448 456.485 105.231 455.969 105.919L428.792 142.141C426.403 145.336 421.725 145.649 418.924 142.848L400.807 124.731ZM400.807 208.506C398.25 205.944 398.25 201.796 400.807 199.246C403.369 196.689 407.516 196.678 410.078 199.246L422.844 212.012L445.483 181.83C447.659 178.938 451.766 178.347 454.655 180.522C457.548 182.692 458.145 186.8 455.969 189.693L428.792 225.92C426.408 229.108 421.742 229.433 418.924 226.615L400.807 208.506ZM325.955 104.147C325.955 102.844 327.054 101.745 328.358 101.745H360.261C361.564 101.745 362.664 102.844 362.664 104.147V136.051C362.664 137.354 361.565 138.453 360.261 138.453H328.358C327.054 138.453 325.955 137.354 325.955 136.051V104.147ZM328.358 151.556H360.261C368.814 151.556 375.766 144.604 375.766 136.052V104.148C375.766 95.5953 368.814 88.6434 360.261 88.6434H328.358C319.805 88.6434 312.853 95.5953 312.853 104.148V136.052C312.853 144.604 319.805 151.556 328.358 151.556ZM232.282 396.737C232.282 397.598 232.113 398.451 231.784 399.246C231.454 400.042 230.972 400.764 230.363 401.373C229.754 401.982 229.031 402.465 228.236 402.794C227.441 403.123 226.588 403.292 225.727 403.292H187.104C183.487 403.292 180.556 400.354 180.556 396.737C180.556 393.121 183.487 390.183 187.104 390.183H225.727C226.588 390.182 227.441 390.352 228.236 390.681C229.031 391.01 229.754 391.493 230.363 392.102C230.971 392.711 231.454 393.433 231.783 394.229C232.113 395.024 232.282 395.876 232.282 396.737ZM194.608 356.021C194.607 355.16 194.777 354.308 195.106 353.512C195.435 352.717 195.918 351.994 196.527 351.385C197.136 350.777 197.858 350.294 198.654 349.965C199.449 349.635 200.302 349.466 201.162 349.466H239.792C241.509 349.497 243.146 350.2 244.35 351.426C245.554 352.651 246.229 354.3 246.229 356.018C246.229 357.736 245.554 359.385 244.35 360.61C243.146 361.836 241.509 362.539 239.792 362.57H201.162C197.545 362.57 194.608 359.632 194.608 356.021ZM84.9047 363.155V427.516H137.956L176.26 316.548C176.705 315.26 177.541 314.144 178.65 313.353C179.759 312.563 181.088 312.137 182.45 312.137H211.316C197.534 297.847 178.552 289.602 158.459 289.602C117.907 289.601 84.9047 322.594 84.9047 363.155ZM125.776 243.811C125.776 225.777 140.43 211.123 158.458 211.123C176.486 211.123 191.151 225.777 191.151 243.811C191.151 261.84 176.485 276.499 158.458 276.499C140.43 276.498 125.776 261.839 125.776 243.811ZM239.774 427.515L275.08 325.238H187.12L151.821 427.515H239.774ZM456.194 427.515H253.633L290.457 320.826C291.925 316.578 288.758 312.136 284.267 312.136H228.394C217.499 297.255 202.415 286.416 185.386 280.816C196.809 272.484 204.248 258.995 204.248 243.811C204.248 218.555 183.707 198.026 158.458 198.026C133.207 198.026 112.673 218.555 112.673 243.811C112.673 258.99 120.093 272.458 131.501 280.8C96.8804 292.153 71.8016 324.775 71.8016 363.155V427.516H55.8108C54.0734 427.516 52.4071 428.206 51.1785 429.434C49.95 430.663 49.2598 432.329 49.2598 434.067C49.2598 435.804 49.95 437.47 51.1785 438.699C52.4071 439.928 54.0734 440.618 55.8108 440.618H456.194C457.931 440.618 459.596 439.928 460.824 438.7C462.052 437.472 462.742 435.806 462.742 434.069C462.743 433.209 462.575 432.357 462.246 431.561C461.917 430.766 461.435 430.043 460.827 429.434C460.219 428.826 459.497 428.343 458.702 428.013C457.907 427.684 457.054 427.514 456.194 427.515Z" fill="#D68029"/>
</svg>
