<svg width="512" height="512" viewBox="0 0 512 512" fill="none" xmlns="http://www.w3.org/2000/svg">
<g clip-path="url(#clip0_3353_1478)">
<path d="M66.043 213.796H51.088C46.943 213.796 43.584 217.155 43.584 221.3C43.584 225.445 46.943 228.804 51.088 228.804H66.044C67.0295 228.804 68.0052 228.61 68.9156 228.233C69.8261 227.856 70.6532 227.303 71.35 226.606C72.0468 225.909 72.5995 225.082 72.9765 224.171C73.3536 223.261 73.5476 222.285 73.5475 221.3C73.5475 220.314 73.3533 219.339 72.9761 218.428C72.599 217.518 72.0462 216.69 71.3493 215.994C70.6524 215.297 69.8252 214.744 68.9147 214.367C68.0043 213.99 67.0285 213.796 66.043 213.796ZM66.043 177.778H51.088C50.1026 177.778 49.1267 177.972 48.2162 178.349C47.3057 178.726 46.4784 179.279 45.7816 179.976C45.0848 180.673 44.532 181.5 44.155 182.41C43.7779 183.321 43.5839 184.297 43.584 185.282C43.5839 186.268 43.7779 187.244 44.155 188.154C44.532 189.064 45.0848 189.892 45.7816 190.589C46.4784 191.285 47.3057 191.838 48.2162 192.215C49.1267 192.592 50.1026 192.786 51.088 192.786H66.044C67.0295 192.786 68.0052 192.592 68.9156 192.215C69.8261 191.838 70.6532 191.285 71.35 190.588C72.0468 189.891 72.5995 189.064 72.9765 188.153C73.3536 187.243 73.5476 186.267 73.5475 185.282C73.5475 184.296 73.3533 183.32 72.9761 182.41C72.599 181.5 72.0462 180.672 71.3493 179.976C70.6524 179.279 69.8252 178.726 68.9147 178.349C68.0043 177.972 67.0285 177.778 66.043 177.778ZM66.043 249.814H51.088C50.1026 249.814 49.1267 250.008 48.2162 250.385C47.3057 250.762 46.4784 251.315 45.7816 252.012C45.0848 252.709 44.532 253.536 44.155 254.446C43.7779 255.357 43.5839 256.333 43.584 257.318C43.5839 258.304 43.7779 259.28 44.155 260.19C44.532 261.101 45.0848 261.928 45.7816 262.625C46.4784 263.321 47.3057 263.874 48.2162 264.251C49.1267 264.628 50.1026 264.822 51.088 264.822H66.044C67.0295 264.822 68.0054 264.628 68.9158 264.251C69.8263 263.874 70.6536 263.321 71.3505 262.625C72.0473 261.928 72.6 261.101 72.9771 260.19C73.3542 259.28 73.5482 258.304 73.548 257.318C73.5478 255.328 72.7569 253.419 71.3495 252.012C69.9421 250.605 68.0333 249.814 66.043 249.814ZM66.043 285.832H51.088C49.0978 285.832 47.1892 286.623 45.7819 288.03C44.3746 289.437 43.584 291.346 43.584 293.336C43.584 295.326 44.3746 297.235 45.7819 298.642C47.1892 300.05 49.0978 300.84 51.088 300.84H66.044C67.0295 300.84 68.0054 300.646 68.9158 300.269C69.8263 299.892 70.6536 299.339 71.3505 298.643C72.0473 297.946 72.6 297.119 72.9771 296.208C73.3542 295.298 73.5482 294.322 73.548 293.336C73.5478 291.346 72.7569 289.437 71.3495 288.03C69.9421 286.623 68.0333 285.832 66.043 285.832ZM66.043 321.851H51.088C49.0978 321.851 47.1892 322.642 45.7819 324.049C44.3746 325.456 43.584 327.365 43.584 329.355C43.584 331.345 44.3746 333.254 45.7819 334.661C47.1892 336.069 49.0978 336.859 51.088 336.859H66.044C68.013 336.827 69.8904 336.022 71.2713 334.618C72.6523 333.214 73.4261 331.324 73.426 329.355C73.4259 327.385 72.6518 325.495 71.2706 324.092C69.8895 322.688 68.012 321.883 66.043 321.851ZM66.043 357.869H51.088C50.1026 357.869 49.1268 358.063 48.2164 358.44C47.3059 358.818 46.4787 359.37 45.7819 360.067C45.0851 360.764 44.5324 361.591 44.1552 362.502C43.7781 363.412 43.584 364.388 43.584 365.373C43.584 366.359 43.7781 367.334 44.1552 368.245C44.5324 369.155 45.0851 369.983 45.7819 370.679C46.4787 371.376 47.3059 371.929 48.2164 372.306C49.1268 372.683 50.1026 372.877 51.088 372.877H66.044C67.0295 372.877 68.0054 372.683 68.9158 372.306C69.8263 371.929 70.6536 371.376 71.3505 370.68C72.0473 369.983 72.6 369.156 72.9771 368.245C73.3542 367.335 73.5482 366.359 73.548 365.373C73.5478 363.383 72.7569 361.474 71.3495 360.067C69.9421 358.66 68.0333 357.869 66.043 357.869ZM66.043 393.887H51.088C49.0978 393.887 47.1892 394.678 45.7819 396.085C44.3746 397.492 43.584 399.401 43.584 401.391C43.584 403.381 44.3746 405.29 45.7819 406.697C47.1892 408.105 49.0978 408.895 51.088 408.895H66.044C67.0295 408.895 68.0054 408.701 68.9158 408.324C69.8263 407.947 70.6536 407.394 71.3505 406.698C72.0473 406.001 72.6 405.174 72.9771 404.263C73.3542 403.353 73.5482 402.377 73.548 401.391C73.5478 399.401 72.7569 397.492 71.3495 396.085C69.9421 394.678 68.0333 393.887 66.043 393.887ZM204.17 380.921L190.957 367.709L204.17 354.497C205.577 353.089 206.367 351.18 206.367 349.19C206.366 347.2 205.576 345.291 204.169 343.883C202.762 342.477 200.853 341.686 198.863 341.686C196.873 341.686 194.965 342.477 193.557 343.883L175.039 362.401C173.632 363.809 172.842 365.717 172.842 367.708C172.842 369.698 173.632 371.607 175.039 373.014L193.557 391.532C195.023 392.997 196.944 393.729 198.864 393.729C200.784 393.729 202.705 392.997 204.171 391.532C205.578 390.125 206.368 388.216 206.368 386.227C206.368 384.237 205.577 382.328 204.17 380.921ZM284.568 362.399L266.049 343.883C264.633 342.517 262.738 341.761 260.771 341.779C258.803 341.796 256.922 342.585 255.53 343.977C254.139 345.368 253.35 347.25 253.333 349.217C253.315 351.184 254.071 353.08 255.437 354.495L268.65 367.707L255.437 380.919C254.056 382.332 253.288 384.233 253.299 386.208C253.31 388.184 254.1 390.076 255.497 391.473C256.895 392.87 258.786 393.659 260.762 393.67C262.738 393.681 264.638 392.913 266.051 391.531L284.569 373.013C285.976 371.605 286.766 369.696 286.766 367.706C286.765 365.716 285.975 363.807 284.568 362.399ZM241.958 333.738C240.088 333.057 238.024 333.147 236.22 333.988C234.417 334.829 233.021 336.352 232.34 338.222L211.541 395.365C211.189 396.294 211.026 397.284 211.06 398.277C211.094 399.27 211.325 400.246 211.739 401.149C212.153 402.052 212.742 402.864 213.473 403.537C214.203 404.211 215.06 404.732 215.993 405.072C216.927 405.412 217.919 405.563 218.911 405.516C219.903 405.47 220.876 405.227 221.774 404.801C222.672 404.376 223.476 403.776 224.14 403.037C224.804 402.298 225.315 401.435 225.643 400.497L246.442 343.354C246.779 342.428 246.93 341.445 246.887 340.461C246.845 339.477 246.608 338.51 246.192 337.617C245.775 336.725 245.187 335.922 244.461 335.257C243.734 334.591 242.884 334.075 241.958 333.738ZM58.439 83.6312C58.3431 83.1524 58.2025 82.6837 58.019 82.2312C57.6414 81.3231 57.0912 80.4968 56.399 79.7982C54.9871 78.3935 53.0777 77.6028 51.086 77.5982C49.114 77.5982 47.174 78.3982 45.782 79.7982C45.432 80.1392 45.122 80.5192 44.842 80.9402C44.571 81.3392 44.342 81.7802 44.161 82.2312C43.971 82.6812 43.821 83.1612 43.731 83.6312C43.631 84.1212 43.582 84.6132 43.582 85.1032C43.582 87.0742 44.382 89.0142 45.782 90.4062C47.1904 91.811 49.0969 92.6021 51.086 92.6072C51.5801 92.6062 52.0729 92.5559 52.557 92.4572C53.036 92.3672 53.507 92.2172 53.957 92.0272C54.8702 91.6535 55.7004 91.1029 56.4 90.4072C57.7983 88.9958 58.5853 87.091 58.591 85.1042C58.5885 84.6094 58.5376 84.1161 58.439 83.6312ZM81.831 79.7992C80.4191 78.3945 78.5097 77.6038 76.518 77.5992C74.546 77.5992 72.616 78.3992 71.214 79.7992C69.8096 81.2077 69.0188 83.1142 69.014 85.1032C69.014 87.0742 69.814 89.0142 71.214 90.4062C72.6234 91.8095 74.5292 92.6004 76.518 92.6072C78.498 92.6072 80.429 91.8062 81.831 90.4062C83.2321 88.9958 84.0226 87.0912 84.032 85.1032C84.0224 83.115 83.2319 81.2101 81.831 79.7992ZM109.314 83.6312C109.118 82.6705 108.738 81.7567 108.195 80.9402C107.925 80.5202 107.616 80.1402 107.265 79.7982C106.915 79.4498 106.533 79.1351 106.124 78.8582C105.714 78.5872 105.284 78.3582 104.833 78.1682C104.373 77.9882 103.902 77.8382 103.422 77.7382C102.454 77.5482 101.458 77.5482 100.49 77.7382C100.01 77.8382 99.54 77.9882 99.089 78.1682C98.629 78.3582 98.199 78.5882 97.788 78.8582C97.378 79.1382 96.998 79.4482 96.646 79.7982C96.2966 80.145 95.9848 80.5278 95.716 80.9402C95.446 81.3392 95.216 81.7802 95.027 82.2312C94.837 82.6812 94.697 83.1612 94.596 83.6312C94.506 84.1212 94.456 84.6132 94.456 85.1032C94.456 87.0742 95.256 89.0142 96.646 90.4062C96.997 90.7562 97.376 91.0662 97.788 91.3362C98.198 91.6072 98.628 91.8462 99.089 92.0262C99.539 92.2152 100.009 92.3662 100.49 92.4562C101.457 92.6559 102.455 92.6559 103.422 92.4562C103.901 92.3662 104.373 92.2162 104.833 92.0262C105.283 91.8452 105.713 91.6062 106.124 91.3362C106.535 91.0662 106.914 90.7562 107.265 90.4062C108.67 88.9984 109.461 87.0921 109.466 85.1032C109.464 84.6087 109.413 84.1157 109.314 83.6312ZM312.126 77.5982H133.203C132.218 77.5981 131.242 77.7921 130.331 78.1691C129.421 78.5462 128.593 79.0989 127.897 79.7958C127.2 80.4926 126.647 81.3199 126.27 82.2304C125.893 83.1409 125.699 84.1167 125.699 85.1022C125.699 86.0877 125.893 87.0635 126.27 87.974C126.647 88.8845 127.2 89.7118 127.897 90.4086C128.593 91.1055 129.421 91.6582 130.331 92.0353C131.242 92.4123 132.218 92.6063 133.203 92.6062H312.126C314.095 92.5741 315.972 91.7693 317.353 90.3655C318.735 88.9618 319.509 87.0714 319.509 85.1022C319.509 83.133 318.735 81.2426 317.353 79.8389C315.972 78.4351 314.095 77.6304 312.126 77.5982ZM369.195 77.5982H338.513C337.528 77.5981 336.552 77.7921 335.641 78.1691C334.731 78.5462 333.903 79.0989 333.207 79.7958C332.51 80.4926 331.957 81.3199 331.58 82.2304C331.203 83.1409 331.009 84.1167 331.009 85.1022C331.009 86.0877 331.203 87.0635 331.58 87.974C331.957 88.8845 332.51 89.7118 333.207 90.4086C333.903 91.1055 334.731 91.6582 335.641 92.0353C336.552 92.4123 337.528 92.6063 338.513 92.6062H369.195C371.185 92.6062 373.094 91.8156 374.501 90.4083C375.908 89.0011 376.699 87.0924 376.699 85.1022C376.699 83.112 375.908 81.2033 374.501 79.7961C373.094 78.3888 371.185 77.5982 369.195 77.5982ZM430.54 232.799H332.094C331.109 232.799 330.133 232.993 329.222 233.37C328.312 233.747 327.484 234.3 326.788 234.997C326.091 235.694 325.538 236.521 325.161 237.431C324.784 238.342 324.59 239.318 324.59 240.303C324.59 241.289 324.784 242.265 325.161 243.175C325.538 244.086 326.091 244.913 326.788 245.61C327.484 246.306 328.312 246.859 329.222 247.236C330.133 247.613 331.109 247.807 332.094 247.807H430.54C431.526 247.807 432.501 247.613 433.412 247.236C434.322 246.859 435.15 246.306 435.846 245.61C436.543 244.913 437.096 244.086 437.473 243.175C437.85 242.265 438.044 241.289 438.044 240.303C438.044 239.318 437.85 238.342 437.473 237.431C437.096 236.521 436.543 235.694 435.846 234.997C435.15 234.3 434.322 233.747 433.412 233.37C432.501 232.993 431.526 232.799 430.54 232.799ZM388.569 196.78H360.055C359.07 196.78 358.094 196.974 357.183 197.351C356.273 197.728 355.445 198.281 354.749 198.978C354.052 199.675 353.499 200.502 353.122 201.412C352.745 202.323 352.551 203.299 352.551 204.284C352.551 205.27 352.745 206.246 353.122 207.156C353.499 208.067 354.052 208.894 354.749 209.591C355.445 210.287 356.273 210.84 357.183 211.217C358.094 211.594 359.07 211.788 360.055 211.788H388.569C389.555 211.788 390.53 211.594 391.441 211.217C392.351 210.84 393.179 210.287 393.875 209.591C394.572 208.894 395.125 208.067 395.502 207.156C395.879 206.246 396.073 205.27 396.073 204.284C396.073 203.299 395.879 202.323 395.502 201.412C395.125 200.502 394.572 199.675 393.875 198.978C393.179 198.281 392.351 197.728 391.441 197.351C390.53 196.974 389.555 196.78 388.569 196.78ZM463.743 196.78H417.334C416.349 196.78 415.373 196.974 414.462 197.351C413.552 197.728 412.724 198.281 412.028 198.978C411.331 199.675 410.778 200.502 410.401 201.412C410.024 202.323 409.83 203.299 409.83 204.284C409.83 205.27 410.024 206.246 410.401 207.156C410.778 208.067 411.331 208.894 412.028 209.591C412.724 210.287 413.552 210.84 414.462 211.217C415.373 211.594 416.349 211.788 417.334 211.788H463.743C465.733 211.788 467.642 210.998 469.049 209.59C470.456 208.183 471.247 206.274 471.247 204.284C471.247 202.294 470.456 200.385 469.049 198.978C467.642 197.571 465.733 196.78 463.743 196.78ZM327.789 196.78H232.991C232.006 196.78 231.03 196.974 230.119 197.351C229.209 197.728 228.381 198.281 227.685 198.978C226.988 199.675 226.435 200.502 226.058 201.412C225.681 202.323 225.487 203.299 225.487 204.284C225.487 205.27 225.681 206.246 226.058 207.156C226.435 208.067 226.988 208.894 227.685 209.591C228.381 210.287 229.209 210.84 230.119 211.217C231.03 211.594 232.006 211.788 232.991 211.788H327.789C329.779 211.788 331.688 210.998 333.095 209.59C334.502 208.183 335.293 206.274 335.293 204.284C335.293 202.294 334.502 200.385 333.095 198.978C331.688 197.571 329.779 196.78 327.789 196.78ZM304.267 232.799H275.753C274.768 232.799 273.792 232.993 272.881 233.37C271.971 233.747 271.143 234.3 270.447 234.997C269.75 235.694 269.197 236.521 268.82 237.431C268.443 238.342 268.249 239.318 268.249 240.303C268.249 241.289 268.443 242.265 268.82 243.175C269.197 244.086 269.75 244.913 270.447 245.61C271.143 246.306 271.971 246.859 272.881 247.236C273.792 247.613 274.768 247.807 275.753 247.807H304.267C305.253 247.807 306.228 247.613 307.139 247.236C308.049 246.859 308.877 246.306 309.573 245.61C310.27 244.913 310.823 244.086 311.2 243.175C311.577 242.265 311.771 241.289 311.771 240.303C311.771 239.318 311.577 238.342 311.2 237.431C310.823 236.521 310.27 235.694 309.573 234.997C308.877 234.3 308.049 233.747 307.139 233.37C306.228 232.993 305.253 232.799 304.267 232.799ZM246.581 232.799H231.625C230.64 232.799 229.664 232.993 228.753 233.37C227.843 233.747 227.015 234.3 226.319 234.997C225.622 235.694 225.069 236.521 224.692 237.431C224.315 238.342 224.121 239.318 224.121 240.303C224.121 241.289 224.315 242.265 224.692 243.175C225.069 244.086 225.622 244.913 226.319 245.61C227.015 246.306 227.843 246.859 228.753 247.236C229.664 247.613 230.64 247.807 231.625 247.807H246.581C247.566 247.807 248.542 247.613 249.453 247.236C250.363 246.859 251.191 246.306 251.887 245.61C252.584 244.913 253.137 244.086 253.514 243.175C253.891 242.265 254.085 241.289 254.085 240.303C254.085 239.318 253.891 238.342 253.514 237.431C253.137 236.521 252.585 235.693 251.888 234.997C251.191 234.3 250.364 233.747 249.453 233.37C248.542 232.993 247.567 232.799 246.581 232.799ZM194.3 232.799H179.344C178.359 232.799 177.383 232.993 176.472 233.37C175.562 233.747 174.734 234.3 174.038 234.997C173.341 235.694 172.788 236.521 172.411 237.431C172.034 238.342 171.84 239.318 171.84 240.303C171.84 241.289 172.034 242.265 172.411 243.175C172.788 244.086 173.341 244.913 174.038 245.61C174.734 246.306 175.562 246.859 176.472 247.236C177.383 247.613 178.359 247.807 179.344 247.807H194.3C195.286 247.807 196.261 247.613 197.172 247.236C198.082 246.859 198.91 246.306 199.606 245.61C200.303 244.913 200.856 244.086 201.233 243.175C201.61 242.265 201.804 241.289 201.804 240.303C201.804 239.318 201.61 238.342 201.233 237.431C200.856 236.521 200.303 235.694 199.606 234.997C198.91 234.3 198.082 233.747 197.172 233.37C196.261 232.993 195.286 232.799 194.3 232.799ZM194.3 196.78H179.344C178.359 196.78 177.383 196.974 176.472 197.351C175.562 197.728 174.734 198.281 174.038 198.978C173.341 199.675 172.788 200.502 172.411 201.412C172.034 202.323 171.84 203.299 171.84 204.284C171.84 205.27 172.034 206.246 172.411 207.156C172.788 208.067 173.341 208.894 174.038 209.591C174.734 210.287 175.562 210.84 176.472 211.217C177.383 211.594 178.359 211.788 179.344 211.788H194.3C196.29 211.788 198.199 210.998 199.606 209.59C201.013 208.183 201.804 206.274 201.804 204.284C201.804 202.294 201.013 200.385 199.606 198.978C198.199 197.571 196.29 196.78 194.3 196.78ZM471.098 238.84C471.008 238.36 470.858 237.891 470.667 237.43C470.481 236.978 470.251 236.545 469.978 236.139C469.71 235.727 469.398 235.344 469.048 234.997C468.7 234.646 468.317 234.332 467.906 234.058C467.496 233.787 467.066 233.558 466.615 233.368C466.155 233.188 465.685 233.038 465.204 232.948C464.244 232.748 463.243 232.748 462.273 232.948C461.794 233.043 461.324 233.183 460.872 233.368C460.423 233.558 459.981 233.788 459.571 234.058C459.161 234.337 458.781 234.648 458.43 234.997C458.09 235.337 457.78 235.727 457.5 236.139C457.229 236.549 457 236.979 456.81 237.43C456.62 237.89 456.48 238.36 456.38 238.84C456.288 239.322 456.241 239.812 456.239 240.302C456.239 240.791 456.29 241.283 456.38 241.773C456.676 243.223 457.388 244.555 458.43 245.606C458.78 245.956 459.159 246.266 459.571 246.546C459.981 246.817 460.422 247.046 460.872 247.236C461.322 247.416 461.793 247.566 462.273 247.656C463.24 247.856 464.238 247.856 465.205 247.656C465.685 247.566 466.156 247.416 466.616 247.236C467.066 247.046 467.496 246.816 467.907 246.546C468.317 246.267 468.707 245.956 469.049 245.606C469.399 245.266 469.708 244.885 469.979 244.464C470.249 244.065 470.489 243.624 470.668 243.173C470.858 242.724 471.009 242.253 471.099 241.773C471.296 240.805 471.296 239.808 471.098 238.84Z" fill="#D68029"/>
<path d="M492.491 309.331H413.235V282.319H492.491C503.248 282.319 512.001 273.567 512.001 262.809V181.775C512.001 171.018 503.249 162.265 492.491 162.265H471.554C469.563 162.265 467.655 163.055 466.248 164.463C464.84 165.87 464.05 167.778 464.05 169.769C464.05 171.759 464.84 173.667 466.248 175.075C467.655 176.482 469.563 177.273 471.554 177.273H492.491C494.931 177.273 496.993 179.335 496.993 181.775V262.809C496.993 265.249 494.931 267.311 492.491 267.311H145.209C142.768 267.311 140.707 265.249 140.707 262.809V181.775C140.707 179.335 142.768 177.273 145.209 177.273H436.537C437.522 177.273 438.498 177.079 439.409 176.702C440.319 176.325 441.146 175.772 441.843 175.075C442.54 174.378 443.093 173.551 443.47 172.64C443.847 171.73 444.041 170.754 444.041 169.769C444.041 168.783 443.847 167.807 443.47 166.897C443.093 165.986 442.54 165.159 441.843 164.462C441.146 163.765 440.319 163.213 439.409 162.836C438.498 162.459 437.522 162.265 436.537 162.265H413.235V74.7828C413.235 54.4598 396.702 37.9259 376.378 37.9259C15.2866 37.9789 37.1366 37.8179 34.1676 38.0429C18.3256 39.2329 5.33762 50.4049 1.36063 65.2158C-0.510368 72.1748 0.0926309 72.7248 0.0926309 167.773C0.0924996 168.758 0.286506 169.734 0.66357 170.644C1.04063 171.555 1.59337 172.382 2.2902 173.079C2.98704 173.776 3.81433 174.329 4.72481 174.706C5.63529 175.083 6.61114 175.277 7.59662 175.277C8.58209 175.277 9.55794 175.083 10.4684 174.706C11.3789 174.329 12.2062 173.776 12.903 173.079C13.5999 172.382 14.1526 171.555 14.5297 170.644C14.9067 169.734 15.1007 168.758 15.1006 167.773V132.276H398.227V162.266H145.209C134.452 162.266 125.699 171.018 125.699 181.776V262.81C125.699 273.568 134.451 282.32 145.209 282.32H398.228V309.332H145.209C134.452 309.332 125.699 318.084 125.699 328.842V409.878C125.699 420.636 134.451 429.388 145.209 429.388H398.228V437.225C398.228 449.272 388.426 459.074 376.379 459.074H119.467C117.477 459.074 115.569 459.865 114.161 461.272C112.754 462.679 111.963 464.588 111.963 466.578C111.963 468.568 112.754 470.477 114.161 471.884C115.569 473.291 117.477 474.082 119.467 474.082H376.378C396.701 474.082 413.235 457.549 413.235 437.225V429.388H492.491C503.248 429.388 512.001 420.636 512.001 409.878V328.842C512.001 318.084 503.248 309.331 492.491 309.331ZM15.1016 117.268C15.1346 73.3118 12.8066 67.2878 22.2136 58.6698C26.1136 55.1098 31.2996 52.9349 36.9506 52.9349H376.379C388.426 52.9349 398.228 62.7368 398.228 74.7838V117.268H15.1016ZM496.993 409.877C496.993 412.318 494.931 414.379 492.491 414.379H145.209C142.768 414.379 140.707 412.318 140.707 409.877V328.841C140.707 326.401 142.768 324.339 145.209 324.339H492.491C494.931 324.339 496.993 326.401 496.993 328.841V409.877Z" fill="#D68029"/>
<path d="M84.4497 459.073H36.9508C24.9038 459.073 15.1017 449.271 15.1017 437.224V202.789C15.1019 201.804 14.9079 200.828 14.5308 199.917C14.1537 199.007 13.601 198.18 12.9042 197.483C12.2073 196.786 11.38 196.233 10.4696 195.856C9.55908 195.479 8.58323 195.285 7.59775 195.285C6.61227 195.285 5.63643 195.479 4.72594 195.856C3.81545 196.233 2.98816 196.786 2.29133 197.483C1.59449 198.18 1.04176 199.007 0.664691 199.917C0.287626 200.828 0.0936187 201.804 0.0937501 202.789V437.224C0.0937501 457.547 16.6268 474.081 36.9508 474.081H84.4507C86.4197 474.049 88.2971 473.244 89.6781 471.84C91.059 470.436 91.8329 468.546 91.8327 466.577C91.8326 464.607 91.0585 462.717 89.6774 461.313C88.2962 459.91 86.4187 459.105 84.4497 459.073Z" fill="#D68029"/>
</g>
<defs>
<clipPath id="clip0_3353_1478">
<rect width="512" height="512" fill="white"/>
</clipPath>
</defs>
</svg>
