<svg width="75" height="75" viewBox="0 0 75 75" fill="none" xmlns="http://www.w3.org/2000/svg">
<path d="M52.7344 0H22.2656C20.7122 0.00186077 19.2229 0.619784 18.1245 1.71823C17.026 2.81667 16.4081 4.30594 16.4062 5.85938V69.1406C16.4081 70.6941 17.026 72.1833 18.1245 73.2818C19.2229 74.3802 20.7122 74.9981 22.2656 75H52.7344C54.2878 74.9981 55.7771 74.3802 56.8755 73.2818C57.974 72.1833 58.5919 70.6941 58.5938 69.1406V5.85938C58.5919 4.30594 57.974 2.81667 56.8755 1.71823C55.7771 0.619784 54.2878 0.00186077 52.7344 0ZM46.1508 2.34375L44.9789 4.6875H30.0211L28.8492 2.34375H46.1508ZM56.25 69.1406C56.25 70.073 55.8796 70.9672 55.2203 71.6265C54.561 72.2859 53.6668 72.6562 52.7344 72.6562H22.2656C21.3332 72.6562 20.439 72.2859 19.7797 71.6265C19.1204 70.9672 18.75 70.073 18.75 69.1406V5.85938C18.75 4.92697 19.1204 4.03276 19.7797 3.37345C20.439 2.71415 21.3332 2.34375 22.2656 2.34375H26.2289L28.248 6.3832C28.3454 6.57801 28.4951 6.74183 28.6804 6.8563C28.8656 6.97077 29.0791 7.03135 29.2969 7.03125H45.7031C45.9219 7.03244 46.1366 6.97238 46.323 6.85785C46.5094 6.74332 46.66 6.5789 46.7578 6.3832L48.7711 2.34375H52.7344C53.6668 2.34375 54.561 2.71415 55.2203 3.37345C55.8796 4.03276 56.25 4.92697 56.25 5.85938V69.1406Z" fill="black"/>
<path d="M30.4688 67.9688H44.5312V70.3125H30.4688V67.9688ZM30.9375 33.75L32.3438 31.875L24.2191 25.7812L32.3438 19.6875L30.9375 17.8125L21.5625 24.8438C21.417 24.9529 21.2988 25.0944 21.2175 25.2572C21.1361 25.4199 21.0938 25.5993 21.0938 25.7812C21.0938 25.9632 21.1361 26.1426 21.2175 26.3053C21.2988 26.4681 21.417 26.6096 21.5625 26.7187L30.9375 33.75ZM44.0625 17.8125L42.6563 19.6875L50.7809 25.7812L42.6563 31.875L44.0625 33.75L53.4375 26.7187C53.583 26.6096 53.7012 26.4681 53.7825 26.3053C53.8639 26.1426 53.9062 25.9632 53.9062 25.7812C53.9062 25.5993 53.8639 25.4199 53.7825 25.2572C53.7012 25.0944 53.583 24.9529 53.4375 24.8438L44.0625 17.8125ZM34.0277 33.6398L38.7035 17.2266L40.9582 17.8688L36.2824 34.282L34.0277 33.6398ZM30.4688 37.5H53.9062V39.8438H30.4688V37.5ZM21.0938 37.5H25.7812V39.8438H21.0938V37.5ZM46.875 42.1875H53.9062V44.5312H46.875V42.1875ZM21.0938 42.1875H42.1875V44.5312H21.0938V42.1875ZM30.4688 46.875H53.9062V49.2188H30.4688V46.875ZM21.0938 46.875H25.7812V49.2188H21.0938V46.875ZM46.875 51.5625H53.9062V53.9062H46.875V51.5625ZM21.0938 51.5625H42.1875V53.9062H21.0938V51.5625ZM30.4688 56.25H53.9062V58.5938H30.4688V56.25ZM21.0938 56.25H25.7812V58.5938H21.0938V56.25Z" fill="black"/>
</svg>
