<svg width="512" height="512" viewBox="0 0 512 512" fill="none" xmlns="http://www.w3.org/2000/svg">
<path d="M472 16H40C33.6348 16 27.5303 18.5286 23.0294 23.0294C18.5286 27.5303 16 33.6348 16 40V424C16 430.365 18.5286 436.47 23.0294 440.971C27.5303 445.471 33.6348 448 40 448H158.288L188.104 477.816C189.604 479.316 191.639 480.158 193.76 480.158C195.881 480.158 197.916 479.316 199.416 477.816L220.648 456.584C221.736 457.056 222.848 457.52 224 457.976V488C224 490.122 224.843 492.157 226.343 493.657C227.843 495.157 229.878 496 232 496H280C282.122 496 284.157 495.157 285.657 493.657C287.157 492.157 288 490.122 288 488V457.976C289.152 457.52 290.264 457.056 291.352 456.584L312.584 477.816C314.113 479.261 316.136 480.067 318.24 480.067C320.344 480.067 322.367 479.261 323.896 477.816L353.712 448H472C478.365 448 484.47 445.471 488.971 440.971C493.471 436.47 496 430.365 496 424V40C496 33.6348 493.471 27.5303 488.971 23.0294C484.47 18.5286 478.365 16 472 16ZM318.24 460.848L298.616 441.224C297.392 440 295.804 439.205 294.091 438.96C292.377 438.715 290.63 439.032 289.112 439.864C285.421 441.847 281.547 443.468 277.544 444.704C275.933 445.224 274.528 446.241 273.532 447.609C272.536 448.978 272 450.627 272 452.32V480H240V452.32C240 450.627 239.464 448.978 238.468 447.609C237.472 446.241 236.067 445.224 234.456 444.704C230.453 443.468 226.579 441.847 222.888 439.864C221.37 439.032 219.623 438.715 217.909 438.96C216.196 439.205 214.608 440 213.384 441.224L193.76 460.848L171.2 438.24L190.816 418.616C192.039 417.393 192.832 415.806 193.077 414.094C193.322 412.382 193.006 410.637 192.176 409.12C190.198 405.427 188.577 401.553 187.336 397.552C186.816 395.933 185.793 394.522 184.416 393.524C183.04 392.525 181.381 391.992 179.68 392H152V360H179.68C181.374 360 183.024 359.462 184.392 358.465C185.761 357.467 186.778 356.06 187.296 354.448C188.537 350.447 190.158 346.573 192.136 342.88C192.966 341.363 193.282 339.618 193.037 337.906C192.792 336.194 191.999 334.607 190.776 333.384L171.2 313.76L193.8 291.152L213.424 310.776C214.648 312 216.236 312.795 217.949 313.04C219.663 313.285 221.41 312.968 222.928 312.136C226.619 310.153 230.493 308.532 234.496 307.296C236.1 306.769 237.495 305.749 238.484 304.381C239.473 303.013 240.003 301.368 240 299.68V272H272V299.68C272 301.373 272.536 303.022 273.532 304.391C274.528 305.759 275.933 306.776 277.544 307.296C281.547 308.532 285.421 310.153 289.112 312.136C290.63 312.968 292.377 313.285 294.091 313.04C295.804 312.795 297.392 312 298.616 310.776L318.24 291.152L340.84 313.76L321.224 333.384C320.001 334.607 319.208 336.194 318.963 337.906C318.718 339.618 319.034 341.363 319.864 342.88C321.842 346.573 323.463 350.447 324.704 354.448C325.222 356.06 326.239 357.467 327.608 358.465C328.976 359.462 330.626 360 332.32 360H360V392H332.32C330.626 392 328.976 392.538 327.608 393.535C326.239 394.533 325.222 395.94 324.704 397.552C323.463 401.553 321.842 405.427 319.864 409.12C319.034 410.637 318.718 412.382 318.963 414.094C319.208 415.806 320.001 417.393 321.224 418.616L340.84 438.24L318.24 460.848ZM480 424C480 426.122 479.157 428.157 477.657 429.657C476.157 431.157 474.122 432 472 432H357.232L336.584 411.344C337.064 410.264 337.52 409.152 337.976 408H368C370.122 408 372.157 407.157 373.657 405.657C375.157 404.157 376 402.122 376 400V352C376 349.878 375.157 347.843 373.657 346.343C372.157 344.843 370.122 344 368 344H337.976C337.534 342.874 337.07 341.756 336.584 340.648L357.816 319.416C359.316 317.916 360.158 315.881 360.158 313.76C360.158 311.639 359.316 309.604 357.816 308.104L323.896 274.184C322.396 272.684 320.361 271.842 318.24 271.842C316.119 271.842 314.084 272.684 312.584 274.184L291.352 295.416C290.242 294.934 289.125 294.47 288 294.024V264C288 261.878 287.157 259.843 285.657 258.343C284.157 256.843 282.122 256 280 256H232C229.878 256 227.843 256.843 226.343 258.343C224.843 259.843 224 261.878 224 264V294.024C222.848 294.48 221.736 294.944 220.648 295.416L199.416 274.184C197.888 272.739 195.864 271.933 193.76 271.933C191.656 271.933 189.632 272.739 188.104 274.184L154.184 308.104C152.684 309.604 151.842 311.639 151.842 313.76C151.842 315.881 152.684 317.916 154.184 319.416L175.416 340.648C174.936 341.736 174.48 342.848 174.024 344H144C141.878 344 139.843 344.843 138.343 346.343C136.843 347.843 136 349.878 136 352V400C136 402.122 136.843 404.157 138.343 405.657C139.843 407.157 141.878 408 144 408H174.024C174.48 409.152 174.936 410.264 175.416 411.344L154.768 432H40C37.8783 432 35.8434 431.157 34.3431 429.657C32.8429 428.157 32 426.122 32 424V112H480V424ZM32 96V40C32 37.8783 32.8429 35.8434 34.3431 34.3431C35.8434 32.8429 37.8783 32 40 32H472C474.122 32 476.157 32.8429 477.657 34.3431C479.157 35.8434 480 37.8783 480 40V96H32Z" fill="#D68029"/>
<path d="M440 40H216C209.635 40 203.53 42.5286 199.029 47.0294C194.529 51.5303 192 57.6348 192 64C192 70.3652 194.529 76.4697 199.029 80.9706C203.53 85.4714 209.635 88 216 88H440C446.365 88 452.47 85.4714 456.971 80.9706C461.471 76.4697 464 70.3652 464 64C464 57.6348 461.471 51.5303 456.971 47.0294C452.47 42.5286 446.365 40 440 40ZM440 72H216C213.878 72 211.843 71.1571 210.343 69.6569C208.843 68.1566 208 66.1217 208 64C208 61.8783 208.843 59.8434 210.343 58.3431C211.843 56.8429 213.878 56 216 56H440C442.122 56 444.157 56.8429 445.657 58.3431C447.157 59.8434 448 61.8783 448 64C448 66.1217 447.157 68.1566 445.657 69.6569C444.157 71.1571 442.122 72 440 72Z" fill="#D68029"/>
<path d="M64 80C72.8366 80 80 72.8366 80 64C80 55.1634 72.8366 48 64 48C55.1634 48 48 55.1634 48 64C48 72.8366 55.1634 80 64 80Z" fill="#D68029"/>
<path d="M112 80C120.837 80 128 72.8366 128 64C128 55.1634 120.837 48 112 48C103.163 48 96 55.1634 96 64C96 72.8366 103.163 80 112 80Z" fill="#D68029"/>
<path d="M160 80C168.837 80 176 72.8366 176 64C176 55.1634 168.837 48 160 48C151.163 48 144 55.1634 144 64C144 72.8366 151.163 80 160 80Z" fill="#D68029"/>
<path d="M256 328C246.507 328 237.226 330.815 229.333 336.089C221.439 341.363 215.287 348.86 211.654 357.631C208.021 366.402 207.07 376.053 208.922 385.364C210.774 394.675 215.346 403.228 222.059 409.941C228.772 416.654 237.325 421.225 246.636 423.077C255.947 424.929 265.598 423.979 274.369 420.346C283.14 416.713 290.636 410.561 295.911 402.667C301.185 394.773 304 385.493 304 376C303.987 363.273 298.926 351.072 289.927 342.073C280.928 333.074 268.726 328.012 256 328ZM256 408C249.671 408 243.484 406.123 238.222 402.607C232.959 399.091 228.858 394.093 226.436 388.246C224.014 382.398 223.38 375.964 224.615 369.757C225.85 363.549 228.897 357.848 233.373 353.372C237.848 348.897 243.55 345.849 249.757 344.615C255.965 343.38 262.399 344.014 268.246 346.436C274.093 348.858 279.091 352.959 282.607 358.221C286.123 363.484 288 369.671 288 376C288 384.487 284.629 392.626 278.627 398.627C272.626 404.628 264.487 408 256 408ZM112 232H301.04C306.421 232.007 311.745 233.099 316.693 235.212C321.642 237.325 326.113 240.414 329.84 244.296C337.016 251.774 345.901 257.397 355.731 260.682C365.56 263.968 376.041 264.817 386.271 263.156C396.501 261.496 406.175 257.375 414.461 251.15C422.747 244.924 429.397 236.779 433.84 227.416C434.417 226.193 434.676 224.844 434.59 223.494C434.505 222.144 434.078 220.838 433.351 219.698C432.624 218.558 431.62 217.621 430.432 216.974C429.245 216.327 427.912 215.992 426.56 216H380.248L369.6 200.24L380.312 184H426.56C427.909 184.001 429.236 183.661 430.418 183.011C431.601 182.361 432.599 181.423 433.322 180.284C434.044 179.145 434.467 177.842 434.551 176.495C434.634 175.149 434.376 173.803 433.8 172.584C429.357 163.22 422.707 155.075 414.421 148.85C406.135 142.624 396.461 138.504 386.231 136.843C376.001 135.183 365.52 136.032 355.691 139.317C345.861 142.602 336.976 148.226 329.8 155.704C326.078 159.58 321.613 162.667 316.672 164.779C311.73 166.892 306.414 167.987 301.04 168H112C103.513 168 95.3737 171.371 89.3726 177.372C83.3714 183.373 80 191.513 80 200C80 208.487 83.3714 216.626 89.3726 222.627C95.3737 228.628 103.513 232 112 232ZM112 184H301.04C308.576 183.985 316.031 182.451 322.961 179.489C329.89 176.527 336.15 172.197 341.368 166.76C345.951 161.99 351.469 158.217 357.578 155.679C363.686 153.14 370.253 151.89 376.867 152.006C383.48 152.122 389.999 153.603 396.014 156.355C402.029 159.107 407.412 163.071 411.824 168H376C374.676 168 373.372 168.329 372.206 168.957C371.04 169.586 370.048 170.494 369.32 171.6L353.32 195.896C352.452 197.214 351.993 198.76 352.001 200.339C352.01 201.918 352.485 203.459 353.368 204.768L369.368 228.48C370.101 229.564 371.089 230.452 372.245 231.066C373.402 231.68 374.691 232 376 232H411.824C407.412 236.928 402.029 240.892 396.014 243.644C389.999 246.396 383.48 247.877 376.867 247.993C370.253 248.11 363.686 246.859 357.578 244.321C351.469 241.782 345.951 238.01 341.368 233.24C336.15 227.802 329.89 223.473 322.961 220.511C316.031 217.548 308.576 216.014 301.04 216H112C107.757 216 103.687 214.314 100.686 211.313C97.6857 208.313 96 204.243 96 200C96 195.756 97.6857 191.687 100.686 188.686C103.687 185.685 107.757 184 112 184Z" fill="#D68029"/>
<path d="M120 208H128C130.122 208 132.157 207.157 133.657 205.657C135.157 204.157 136 202.122 136 200C136 197.878 135.157 195.843 133.657 194.343C132.157 192.843 130.122 192 128 192H120C117.878 192 115.843 192.843 114.343 194.343C112.843 195.843 112 197.878 112 200C112 202.122 112.843 204.157 114.343 205.657C115.843 207.157 117.878 208 120 208ZM152 208H264C266.122 208 268.157 207.157 269.657 205.657C271.157 204.157 272 202.122 272 200C272 197.878 271.157 195.843 269.657 194.343C268.157 192.843 266.122 192 264 192H152C149.878 192 147.843 192.843 146.343 194.343C144.843 195.843 144 197.878 144 200C144 202.122 144.843 204.157 146.343 205.657C147.843 207.157 149.878 208 152 208ZM288 208H296C298.122 208 300.157 207.157 301.657 205.657C303.157 204.157 304 202.122 304 200C304 197.878 303.157 195.843 301.657 194.343C300.157 192.843 298.122 192 296 192H288C285.878 192 283.843 192.843 282.343 194.343C280.843 195.843 280 197.878 280 200C280 202.122 280.843 204.157 282.343 205.657C283.843 207.157 285.878 208 288 208Z" fill="#D68029"/>
</svg>
