<svg width="75" height="75" viewBox="0 0 75 75" fill="none" xmlns="http://www.w3.org/2000/svg">
<mask id="mask0_4442_777" style="mask-type:luminance" maskUnits="userSpaceOnUse" x="0" y="0" width="75" height="75">
<path d="M73.7498 73.75V1.25025H1.25V73.75H73.7498Z" fill="white" stroke="white" stroke-width="2.5"/>
</mask>
<g mask="url(#mask0_4442_777)">
<path d="M1.46484 22.753H68.1911" stroke="black" stroke-width="2.5" stroke-miterlimit="10" stroke-linecap="round" stroke-linejoin="round"/>
<path d="M13.6974 16.5195C15.6157 16.5195 17.181 14.9592 17.181 13.0419C17.181 11.1245 15.6157 9.56418 13.6974 9.56418C11.7832 9.56418 10.2178 11.1245 10.2178 13.0419C10.2178 14.9592 11.7832 16.5195 13.6974 16.5195Z" stroke="black" stroke-width="2.5" stroke-miterlimit="10" stroke-linecap="round" stroke-linejoin="round"/>
<path d="M43.9376 9.56418H57.042C58.9561 9.56418 60.5216 11.1288 60.5216 13.0419C60.5216 14.9551 58.9561 16.5195 57.042 16.5195H43.9376C42.0235 16.5195 40.458 14.9551 40.458 13.0419C40.458 11.1288 42.0235 9.56418 43.9376 9.56418Z" stroke="black" stroke-width="2.5" stroke-miterlimit="10" stroke-linecap="round" stroke-linejoin="round"/>
<path d="M26.544 16.5195C28.4624 16.5195 30.0277 14.9592 30.0277 13.0419C30.0277 11.1245 28.4624 9.56418 26.544 9.56418C24.6299 9.56418 23.0645 11.1245 23.0645 13.0419C23.0645 14.9592 24.6299 16.5195 26.544 16.5195Z" stroke="black" stroke-width="2.5" stroke-miterlimit="10" stroke-linecap="round" stroke-linejoin="round"/>
<path d="M23.791 34.0203L20.8594 46.2878" stroke="black" stroke-width="2.5" stroke-miterlimit="10" stroke-linecap="round" stroke-linejoin="round"/>
<path d="M30.543 45.1799L34.691 40.5234C34.8736 40.3201 34.8736 39.9882 34.691 39.7849L30.543 35.1284" stroke="black" stroke-width="2.5" stroke-miterlimit="10" stroke-linecap="round" stroke-linejoin="round"/>
<path d="M14.1083 45.1799L9.96035 40.5234C9.77754 40.3201 9.77754 39.9882 9.96035 39.7849L14.1083 35.1284" stroke="black" stroke-width="2.5" stroke-miterlimit="10" stroke-linecap="round" stroke-linejoin="round"/>
<path d="M59.2555 40.4943C60.8582 40.8512 62.3572 41.482 63.7067 42.3285L64.9067 41.1334C65.6167 40.4196 66.7835 40.4196 67.4977 41.1334L69.3869 43.0217C70.101 43.7355 70.101 44.9017 69.3869 45.6114L68.191 46.8107C69.0452 48.1657 69.663 49.6561 70.0181 51.2181H71.6996C72.7087 51.2181 73.5349 52.0439 73.5349 53.0482V55.7251C73.5349 56.7292 72.7087 57.5551 71.6996 57.5551H70.0098C69.6538 59.1077 69.0389 60.5892 68.191 61.9376L69.3869 63.1328C70.101 63.8466 70.101 65.0127 69.3869 65.7225L67.4977 67.6149C66.7835 68.3287 65.6167 68.3287 64.9067 67.6149L63.7067 66.4196C62.353 67.271 60.8648 67.8871 59.3053 68.2415V69.943C59.3053 70.9515 58.479 71.7774 57.4743 71.7774H54.7961C53.7911 71.7774 52.9649 70.9515 52.9649 69.943V68.2374C51.387 67.8805 49.9047 67.2538 48.5717 66.4196L47.376 67.6149C46.6617 68.3287 45.4951 68.3287 44.7849 67.6149L42.8916 65.7225C42.1815 65.0127 42.1815 63.8466 42.8916 63.1328L44.0915 61.9376C43.2406 60.5903 42.6243 59.1084 42.2688 57.5551H40.5705C39.5616 57.5551 38.7393 56.7292 38.7393 55.7251V53.0482C38.7393 52.0439 39.5616 51.2181 40.5705 51.2181H42.2647C42.6161 49.6739 43.2238 48.1996 44.0625 46.8564L42.8584 45.6487C42.1443 44.939 42.1443 43.7729 42.8584 43.0591L44.7476 41.1707C45.4618 40.4569 46.6286 40.4569 47.3386 41.1707L48.5302 42.3577C49.8786 41.5036 51.3608 40.8821 52.9151 40.5192V38.8302C52.9151 37.8217 53.7372 36.9958 54.7461 36.9958H57.4202C58.4292 36.9958 59.2555 37.8217 59.2555 38.8302V40.4943Z" stroke="black" stroke-width="2.5" stroke-miterlimit="10" stroke-linecap="round" stroke-linejoin="round"/>
<path d="M56.137 46.8398C60.3058 46.8398 63.6857 50.218 63.6857 54.3887C63.6857 58.5554 60.3058 61.9335 56.137 61.9335C51.9641 61.9335 48.584 58.5554 48.584 54.3887C48.584 50.218 51.9641 46.8398 56.137 46.8398Z" stroke="black" stroke-width="2.5" stroke-miterlimit="10" stroke-linecap="round" stroke-linejoin="round"/>
<path d="M15.5907 57.5552H6.92078C3.92314 57.5552 1.46484 54.6213 1.46484 51.0398V9.73848C1.46484 6.153 3.91874 3.22302 6.92078 3.22302H62.7351C65.7372 3.22302 68.1911 6.1571 68.1911 9.73848V41.8267M40.5705 57.5552H28.6827" stroke="black" stroke-width="2.5" stroke-miterlimit="10" stroke-linecap="round" stroke-linejoin="round"/>
<path d="M22.1514 57.5552H22.1804" stroke="black" stroke-width="2.5" stroke-miterlimit="10" stroke-linecap="round" stroke-linejoin="round"/>
</g>
</svg>
