<svg width="67" height="72" viewBox="0 0 67 72" fill="none" xmlns="http://www.w3.org/2000/svg">
<path d="M34.1719 7.875H27.1406C26.8298 7.875 26.5318 7.75153 26.312 7.53177C26.0922 7.312 25.9688 7.01393 25.9688 6.70312C25.9688 6.39232 26.0922 6.09425 26.312 5.87448C26.5318 5.65472 26.8298 5.53125 27.1406 5.53125H34.1719C34.4827 5.53125 34.7807 5.65472 35.0005 5.87448C35.2203 6.09425 35.3438 6.39232 35.3438 6.70312C35.3438 7.01393 35.2203 7.312 35.0005 7.53177C34.7807 7.75153 34.4827 7.875 34.1719 7.875ZM43.5469 71.1562H17.7656C16.2122 71.1544 14.7229 70.5365 13.6245 69.438C12.526 68.3396 11.9081 66.8503 11.9062 65.2969V48.8906C11.9062 48.5798 12.0297 48.2818 12.2495 48.062C12.4693 47.8422 12.7673 47.7188 13.0781 47.7188C13.3889 47.7188 13.687 47.8422 13.9068 48.062C14.1265 48.2818 14.25 48.5798 14.25 48.8906V65.2969C14.25 67.2352 15.8273 68.8125 17.7656 68.8125H43.5469C45.4852 68.8125 47.0625 67.2352 47.0625 65.2969V25.4531C47.0625 25.1423 47.186 24.8443 47.4057 24.6245C47.6255 24.4047 47.9236 24.2812 48.2344 24.2812C48.5452 24.2812 48.8432 24.4047 49.063 24.6245C49.2828 24.8443 49.4062 25.1423 49.4062 25.4531V65.2969C49.4062 68.5266 46.7789 71.1562 43.5469 71.1562Z" fill="black"/>
<path d="M48.2344 10.2188C47.9236 10.2188 47.6255 10.0953 47.4057 9.87552C47.186 9.65575 47.0625 9.35768 47.0625 9.04688V6.70312C47.0625 4.76484 45.4851 3.1875 43.5469 3.1875H17.7656C15.8273 3.1875 14.25 4.76484 14.25 6.70312V9.04688C14.25 9.35768 14.1265 9.65575 13.9068 9.87552C13.687 10.0953 13.3889 10.2188 13.0781 10.2188C12.7673 10.2188 12.4692 10.0953 12.2495 9.87552C12.0297 9.65575 11.9062 9.35768 11.9062 9.04688V6.70312C11.9062 3.47344 14.5336 0.84375 17.7656 0.84375H43.5469C46.7789 0.84375 49.4062 3.47344 49.4062 6.70312V9.04688C49.4062 9.35768 49.2828 9.65575 49.063 9.87552C48.8432 10.0953 48.5452 10.2188 48.2344 10.2188ZM29.4844 57.0938H20.1094C19.7986 57.0938 19.5005 56.9703 19.2807 56.7505C19.061 56.5307 18.9375 56.2327 18.9375 55.9219C18.9375 55.6111 19.061 55.313 19.2807 55.0932C19.5005 54.8735 19.7986 54.75 20.1094 54.75H29.4844C29.7952 54.75 30.0932 54.8735 30.313 55.0932C30.5328 55.313 30.6562 55.6111 30.6562 55.9219C30.6562 56.2327 30.5328 56.5307 30.313 56.7505C30.0932 56.9703 29.7952 57.0938 29.4844 57.0938ZM36.5156 61.7812H20.1094C19.7986 61.7812 19.5005 61.6578 19.2807 61.438C19.061 61.2182 18.9375 60.9202 18.9375 60.6094C18.9375 60.2986 19.061 60.0005 19.2807 59.7807C19.5005 59.561 19.7986 59.4375 20.1094 59.4375H36.5156C36.8264 59.4375 37.1245 59.561 37.3443 59.7807C37.564 60.0005 37.6875 60.2986 37.6875 60.6094C37.6875 60.9202 37.564 61.2182 37.3443 61.438C37.1245 61.6578 36.8264 61.7812 36.5156 61.7812ZM41.2031 52.4062H20.1094C19.7986 52.4062 19.5005 52.2828 19.2807 52.063C19.061 51.8432 18.9375 51.5452 18.9375 51.2344C18.9375 50.9236 19.061 50.6255 19.2807 50.4057C19.5005 50.186 19.7986 50.0625 20.1094 50.0625H41.2031C41.5139 50.0625 41.812 50.186 42.0318 50.4057C42.2515 50.6255 42.375 50.9236 42.375 51.2344C42.375 51.5452 42.2515 51.8432 42.0318 52.063C41.812 52.2828 41.5139 52.4062 41.2031 52.4062ZM16.5937 31.3125C13.3617 31.3125 10.7344 28.6828 10.7344 25.4531C10.7344 22.2234 13.3617 19.5938 16.5937 19.5938C19.8258 19.5938 22.4531 22.2234 22.4531 25.4531C22.4531 28.6828 19.8258 31.3125 16.5937 31.3125ZM16.5937 21.9375C14.6555 21.9375 13.0781 23.5148 13.0781 25.4531C13.0781 27.3914 14.6555 28.9688 16.5937 28.9688C18.532 28.9688 20.1094 27.3914 20.1094 25.4531C20.1094 23.5148 18.532 21.9375 16.5937 21.9375ZM16.5937 45.375C12.474 45.3707 8.50748 43.8123 5.48671 41.0109C5.33282 40.8687 5.2199 40.6877 5.15971 40.487C5.09953 40.2862 5.09428 40.073 5.14452 39.8695C5.57868 38.0943 6.59698 36.5165 8.03582 35.3896C9.47467 34.2628 11.2505 33.6523 13.0781 33.6562H20.1094C21.9367 33.6529 23.7123 34.2632 25.1513 35.3895C26.5903 36.5157 27.6095 38.0926 28.0453 39.8672C28.0955 40.0707 28.0903 40.2839 28.0301 40.4846C27.9699 40.6854 27.857 40.8663 27.7031 41.0086C24.6821 43.8113 20.7146 45.3707 16.5937 45.375ZM7.62421 39.7664C12.6914 43.9875 20.4961 43.9875 25.5633 39.7664C25.1463 38.6577 24.4005 37.7028 23.4258 37.0296C22.451 36.3565 21.2939 35.9973 20.1094 36H13.0781C11.8936 35.9973 10.7364 36.3565 9.76171 37.0296C8.78698 37.7028 8.04119 38.6577 7.62421 39.7664Z" fill="black"/>
<path d="M16.5938 45.375C7.54922 45.375 0.1875 38.0156 0.1875 28.9688C0.1875 19.9219 7.54922 12.5625 16.5938 12.5625C25.6383 12.5625 33 19.9219 33 28.9688C33 38.0156 25.6383 45.375 16.5938 45.375ZM16.5938 14.9062C8.83828 14.9062 2.53125 21.2133 2.53125 28.9688C2.53125 36.7242 8.83828 43.0312 16.5938 43.0312C24.3492 43.0312 30.6562 36.7242 30.6562 28.9688C30.6562 21.2133 24.3492 14.9062 16.5938 14.9062ZM6.04688 52.2891C5.4 52.2891 4.875 51.8812 4.875 51.2344V51C4.875 50.6892 4.99847 50.3911 5.21823 50.1714C5.438 49.9516 5.73607 49.8281 6.04688 49.8281C6.35768 49.8281 6.65575 49.9516 6.87552 50.1714C7.09528 50.3911 7.21875 50.6892 7.21875 51C7.21875 51.6469 6.69375 52.2891 6.04688 52.2891ZM6.04688 56.9766C5.4 56.9766 4.875 56.5687 4.875 55.9219V55.6875C4.875 55.3767 4.99847 55.0786 5.21823 54.8589C5.438 54.6391 5.73607 54.5156 6.04688 54.5156C6.35768 54.5156 6.65575 54.6391 6.87552 54.8589C7.09528 55.0786 7.21875 55.3767 7.21875 55.6875C7.21875 56.3344 6.69375 56.9766 6.04688 56.9766ZM6.04688 61.6641C5.4 61.6641 4.875 61.2562 4.875 60.6094V60.375C4.875 60.0642 4.99847 59.7661 5.21823 59.5464C5.438 59.3266 5.73607 59.2031 6.04688 59.2031C6.35768 59.2031 6.65575 59.3266 6.87552 59.5464C7.09528 59.7661 7.21875 60.0642 7.21875 60.375C7.21875 61.0219 6.69375 61.6641 6.04688 61.6641ZM52.5469 61.7812H50.5781C50.2673 61.7812 49.9693 61.6578 49.7495 61.438C49.5297 61.2182 49.4062 60.9202 49.4062 60.6094C49.4062 60.2986 49.5297 60.0005 49.7495 59.7807C49.9693 59.561 50.2673 59.4375 50.5781 59.4375H51.6023L52.1766 56.7773C52.2227 56.562 52.3288 56.364 52.4827 56.2064C52.6366 56.0488 52.8319 55.938 53.0461 55.8867C54.177 55.6094 55.2579 55.1579 56.25 54.5484C56.4371 54.4342 56.6524 54.3748 56.8716 54.3769C57.0908 54.379 57.305 54.4425 57.4898 54.5602L59.8102 56.0438L61.2469 54.5953L59.7633 52.2938C59.6442 52.1087 59.5795 51.8939 59.5766 51.6738C59.5737 51.4538 59.6327 51.2374 59.7469 51.0492C60.3566 50.0575 60.8074 48.9764 61.0828 47.8453C61.1344 47.6318 61.2447 47.4369 61.4012 47.2828C61.5578 47.1287 61.7544 47.0216 61.9688 46.9734L64.6383 46.3805V44.3719L61.9688 43.7789C61.7544 43.7308 61.5578 43.6236 61.4012 43.4695C61.2447 43.3154 61.1344 43.1206 61.0828 42.907C60.8064 41.7762 60.3557 40.6953 59.7469 39.7031C59.6318 39.5158 59.572 39.2998 59.5745 39.08C59.577 38.8602 59.6416 38.6456 59.7609 38.4609L61.2469 36.1383L59.8125 34.7039L57.4898 36.1898C57.3051 36.3081 57.0909 36.3719 56.8716 36.3739C56.6523 36.376 56.4369 36.3163 56.25 36.2016C55.2575 35.5929 54.1767 35.1414 53.0461 34.8633C52.8319 34.812 52.6366 34.7012 52.4827 34.5435C52.3288 34.3859 52.2227 34.188 52.1766 33.9727L51.6023 31.3125H50.5781C50.2673 31.3125 49.9693 31.189 49.7495 30.9693C49.5297 30.7495 49.4062 30.4514 49.4062 30.1406C49.4062 29.8298 49.5297 29.5318 49.7495 29.312C49.9693 29.0922 50.2673 28.9688 50.5781 28.9688H52.5469C52.8146 28.9692 53.0741 29.0613 53.2822 29.2297C53.4903 29.3982 53.6344 29.6328 53.6906 29.8945L54.3164 32.7844C55.1742 33.0445 56.0156 33.3961 56.8266 33.8344L59.3438 32.2242C59.5689 32.0804 59.8363 32.0178 60.1019 32.0468C60.3675 32.0757 60.6151 32.1946 60.8039 32.3836L63.5719 35.1492C63.7605 35.3383 63.8789 35.5861 63.9075 35.8516C63.936 36.1172 63.873 36.3845 63.7289 36.6094L62.1187 39.1266C62.557 39.9398 62.9086 40.7812 63.1688 41.6414L66.0633 42.2836C66.3237 42.3412 66.5567 42.486 66.7238 42.6939C66.8908 42.9019 66.9819 43.1606 66.982 43.4273V47.318C66.9819 47.5847 66.8908 47.8434 66.7238 48.0514C66.5567 48.2594 66.3237 48.4041 66.0633 48.4617L63.1688 49.1039C62.9042 49.9746 62.5524 50.8164 62.1187 51.6164L63.7266 54.1102C63.8721 54.3342 63.9364 54.6014 63.9087 54.8672C63.881 55.1329 63.7629 55.3811 63.5742 55.5703L60.8063 58.3594C60.6176 58.5493 60.3696 58.669 60.1035 58.6984C59.8375 58.7278 59.5693 58.6652 59.3438 58.5211L56.8266 56.9109C56.027 57.3438 55.1861 57.6955 54.3164 57.9609L53.6906 60.8508C53.6353 61.1134 53.4916 61.3491 53.2834 61.5184C53.0752 61.6878 52.8152 61.7806 52.5469 61.7812Z" fill="black"/>
<path d="M53.0461 51.8625C52.7796 51.8622 52.5211 51.771 52.3134 51.604C52.1056 51.437 51.961 51.2042 51.9034 50.944C51.8458 50.6837 51.8786 50.4116 51.9965 50.1726C52.1143 49.9335 52.3101 49.7417 52.5516 49.6289C53.3608 49.2502 54.0456 48.6492 54.5262 47.896C55.0067 47.1428 55.2632 46.2684 55.2656 45.375C55.2645 44.602 55.0724 43.8413 54.7065 43.1605C54.3406 42.4796 53.8121 41.8997 53.1681 41.4723C52.524 41.0448 51.7844 40.7832 51.0148 40.7104C50.2453 40.6377 49.4697 40.7562 48.757 41.0555C48.6143 41.1226 48.4595 41.1602 48.3019 41.1661C48.1443 41.172 47.9871 41.146 47.8398 41.0897C47.6925 41.0334 47.5581 40.9479 47.4446 40.8384C47.3311 40.7289 47.2408 40.5976 47.1793 40.4524C47.1177 40.3072 47.0861 40.1511 47.0863 39.9934C47.0866 39.8357 47.1186 39.6796 47.1806 39.5346C47.2426 39.3896 47.3332 39.2585 47.447 39.1494C47.5608 39.0402 47.6955 38.9551 47.843 38.8992C48.9119 38.4504 50.0752 38.2724 51.2295 38.3812C52.3838 38.49 53.4933 38.8822 54.4596 39.5229C55.4258 40.1636 56.2189 41.033 56.7684 42.0539C57.3179 43.0748 57.6068 44.2156 57.6094 45.375C57.6064 46.7146 57.2222 48.0256 56.5017 49.1549C55.7812 50.2842 54.7542 51.1851 53.5406 51.7523C53.3858 51.8248 53.217 51.8624 53.0461 51.8625ZM56.4375 21.9375H42.375C39.7898 21.9375 37.6875 19.8352 37.6875 17.25C37.6875 14.6648 39.7898 12.5625 42.375 12.5625H56.4375C59.0227 12.5625 61.125 14.6648 61.125 17.25C61.125 19.8352 59.0227 21.9375 56.4375 21.9375ZM42.375 14.9062C41.7715 14.9332 41.2017 15.192 40.7842 15.6286C40.3668 16.0651 40.1337 16.6459 40.1337 17.25C40.1337 17.8541 40.3668 18.4349 40.7842 18.8714C41.2017 19.308 41.7715 19.5668 42.375 19.5938H56.4375C57.041 19.5668 57.6108 19.308 58.0283 18.8714C58.4457 18.4349 58.6788 17.8541 58.6788 17.25C58.6788 16.6459 58.4457 16.0651 58.0283 15.6286C57.6108 15.192 57.041 14.9332 56.4375 14.9062H42.375Z" fill="black"/>
</svg>
