<svg width="512" height="512" viewBox="0 0 512 512" fill="none" xmlns="http://www.w3.org/2000/svg">
<path d="M280.063 259.072C279.039 256.512 275.967 254.464 272.895 254.464C269.823 254.464 267.263 256 266.239 259.072L231.423 339.456C229.887 343.552 231.423 347.648 235.519 349.696C239.615 351.232 243.711 349.696 245.759 345.6L253.439 328.192H293.375L301.055 345.6C302.079 348.672 305.151 350.208 308.223 350.208C309.247 350.208 310.271 350.208 311.295 349.696C315.391 348.16 316.927 343.552 315.391 339.456L280.063 259.072ZM259.583 312.32L272.895 281.088L286.719 312.32H259.583ZM346.623 254.464C342.527 254.464 338.943 258.048 338.943 262.144V342.528C338.943 346.624 342.527 350.208 346.623 350.208C350.719 350.208 354.303 346.624 354.303 342.528V262.144C354.303 257.536 350.719 254.464 346.623 254.464ZM65.5353 148.48H87.0393C91.1353 148.48 94.7193 144.896 94.7193 140.8C94.7193 136.704 91.6473 133.12 87.0393 133.12H65.0233C60.9273 133.12 57.3433 136.704 57.3433 140.8C57.3433 144.896 60.9273 148.48 65.5353 148.48ZM82.9433 276.992C82.9433 272.896 79.3593 269.312 75.2633 269.312H33.7913C29.6953 269.312 26.1113 272.896 26.1113 276.992C26.1113 281.088 29.6953 284.672 33.7913 284.672H75.2633C79.8713 284.672 82.9433 281.088 82.9433 276.992ZM69.1193 405.504H47.1033C43.0073 405.504 39.4233 409.088 39.4233 413.184C39.4233 417.28 43.0073 420.864 47.1033 420.864H69.1193C73.2153 420.864 76.7993 417.28 76.7993 413.184C76.7993 409.088 73.2153 405.504 69.1193 405.504Z" fill="#D68029"/>
<path d="M410.112 153.088L423.424 118.784L431.104 121.856C434.688 123.392 438.272 123.904 441.344 123.904C453.12 123.904 463.872 116.736 468.48 105.472C471.04 98.3041 471.04 90.1121 467.968 83.4561C464.896 76.2881 459.264 70.6561 452.096 68.0961L348.672 27.6481C333.824 22.0161 316.928 29.1841 310.784 44.5441C305.152 59.3921 312.32 76.2881 327.68 81.9201L335.36 84.9921L322.048 119.296C290.816 115.712 258.56 120.32 228.864 133.12H132.608C128.512 133.12 124.928 136.704 124.928 140.8C124.928 144.896 128.512 148.48 132.608 148.48H200.192C187.392 157.184 175.616 166.912 165.376 178.688H105.472C101.376 178.688 97.7918 182.272 97.7918 186.368C97.7918 190.464 101.376 194.048 105.472 194.048H153.088C146.432 203.264 140.288 213.504 135.168 224.256H43.5198C39.4238 224.256 35.8398 227.84 35.8398 231.936C35.8398 236.032 39.4238 239.616 43.5198 239.616H128.512C119.808 264.192 116.224 289.792 117.76 314.88H70.6558C66.5598 314.88 62.9758 318.464 62.9758 322.56C62.9758 326.656 66.5598 330.24 70.6558 330.24H119.296C120.832 340.48 123.392 350.208 126.464 360.448H95.7438C91.6478 360.448 88.0638 364.032 88.0638 368.128C88.0638 372.224 91.6478 375.808 95.7438 375.808H132.096C132.096 376.32 132.608 376.832 132.608 377.344C137.216 387.584 142.336 396.8 148.48 406.016H113.664C109.568 406.016 105.984 409.6 105.984 413.696C105.984 417.792 109.568 421.376 113.664 421.376H159.744C179.712 444.928 204.8 463.36 234.496 474.624C256 482.816 278.528 486.912 301.056 486.912C326.144 486.912 351.744 481.792 375.808 471.04C420.864 451.072 455.168 414.72 473.088 369.152C504.32 288.768 475.648 201.216 410.112 153.088ZM325.12 49.6641C327.68 42.4961 335.872 38.9121 343.04 41.9841L445.952 81.9201C449.536 83.4561 452.096 86.0161 453.632 89.0881C455.168 92.6721 455.168 96.2561 454.144 99.8401C451.584 107.008 443.392 110.592 436.224 107.52L332.8 67.5841C326.144 64.5121 322.56 56.8321 325.12 49.6641ZM349.184 90.1121L408.576 113.152L396.288 144.384C387.072 138.752 377.856 134.144 367.616 130.048C357.376 125.952 347.136 123.392 336.896 121.344L349.184 90.1121ZM459.264 363.008C425.472 450.048 327.68 493.056 240.64 459.776C198.656 443.392 165.376 411.648 146.944 370.688C128.512 329.216 127.488 283.648 143.872 241.664C151.04 223.232 161.28 206.336 173.568 192L174.08 191.488C189.952 173.056 209.92 158.208 232.96 147.968C254.976 138.24 278.528 133.12 301.568 133.12C322.048 133.12 342.528 136.704 362.496 144.384C449.536 178.176 492.544 275.968 459.264 363.008Z" fill="#D68029"/>
<path d="M352.767 170.496C280.063 142.336 198.143 178.688 169.983 251.392C156.159 286.72 157.183 325.12 172.543 359.424C187.903 393.728 215.551 420.352 250.879 434.176C267.263 440.32 284.671 443.904 301.567 443.904C321.023 443.904 340.479 439.808 358.911 431.616C393.215 416.256 419.839 388.608 433.663 353.28C461.311 280.576 424.959 198.656 352.767 170.496ZM359.423 413.696L353.791 400.384C352.255 396.288 347.647 394.752 343.551 396.288C339.455 397.824 337.919 402.432 339.455 406.528L345.087 419.84C318.463 429.568 290.303 430.592 263.167 421.888L272.895 396.288C274.431 392.192 272.383 388.096 268.287 386.56C264.191 385.024 260.095 387.072 258.559 391.168L248.831 416.768C222.719 404.48 202.239 384.512 189.439 360.448L202.751 354.816C206.847 353.28 208.383 348.672 206.847 344.576C205.311 340.48 200.703 338.944 196.607 340.48L183.295 346.112C173.567 320.512 172.543 291.84 181.247 264.192L206.847 273.92C207.871 274.432 208.895 274.432 209.407 274.432C212.479 274.432 215.551 272.384 216.575 269.312C218.111 265.216 216.063 261.12 211.967 259.584L186.367 249.856C198.655 223.744 218.623 203.264 242.687 190.464L248.319 203.776C249.343 206.848 252.415 208.384 255.487 208.384C256.511 208.384 257.535 208.384 258.559 207.872C262.655 206.336 264.191 201.728 262.655 197.632L258.047 184.32C271.871 179.2 286.719 176.128 302.079 176.128C314.879 176.128 327.679 178.176 339.967 182.272L330.239 207.872C328.703 211.968 330.751 216.064 334.847 217.6C335.871 218.112 336.895 218.112 337.407 218.112C340.479 218.112 343.551 216.064 344.575 212.992L354.303 187.392C380.415 199.68 400.895 219.648 413.695 243.712L400.383 249.344C396.287 250.88 394.751 255.488 396.287 259.584C397.311 262.656 400.383 264.192 403.455 264.192C404.479 264.192 405.503 264.192 406.527 263.68L419.839 258.048C429.567 283.648 430.591 312.32 421.887 339.968L396.287 330.24C392.191 328.704 388.095 330.752 386.559 334.848C385.023 338.944 387.071 343.04 391.167 344.576L416.767 354.304C404.479 380.416 384.511 400.896 359.423 413.696Z" fill="#D68029"/>
</svg>
