<svg width="512" height="512" viewBox="0 0 512 512" fill="none" xmlns="http://www.w3.org/2000/svg">
<path d="M267.139 374.398H244.86C236.965 374.398 230.543 367.975 230.543 360.081C230.543 351.384 224.913 345.953 219.645 343.77C214.378 341.588 206.556 341.447 200.407 347.597C197.703 350.301 194.107 351.79 190.282 351.79C186.457 351.79 182.861 350.3 180.158 347.596L164.404 331.843C158.822 326.26 158.822 317.177 164.404 311.594C170.544 305.455 170.397 297.634 168.214 292.362C166.029 287.091 160.603 281.457 151.921 281.457C144.026 281.457 137.604 275.034 137.604 267.14V244.862C137.604 236.967 144.027 230.545 151.921 230.545C160.603 230.545 166.029 224.911 168.214 219.64C170.398 214.368 170.544 206.547 164.404 200.409C161.7 197.705 160.211 194.109 160.211 190.284C160.211 186.459 161.701 182.863 164.405 180.16L180.158 164.406C182.861 161.703 186.457 160.213 190.282 160.213C194.107 160.213 197.703 161.702 200.407 164.406C206.545 170.546 214.366 170.397 219.638 168.216C224.909 166.032 230.543 160.606 230.543 151.924C230.543 144.028 236.966 137.606 244.86 137.606H267.138C275.033 137.606 281.454 144.029 281.454 151.924C281.454 160.606 287.089 166.031 292.359 168.216C297.632 170.399 305.455 170.545 311.592 164.406C317.176 158.825 326.257 158.824 331.841 164.406L347.595 180.16C350.298 182.863 351.788 186.459 351.788 190.284C351.788 194.109 350.299 197.705 347.595 200.409C341.455 206.548 341.602 214.368 343.785 219.64C345.969 224.911 351.395 230.545 360.077 230.545C367.972 230.545 374.394 236.968 374.394 244.862V267.14C374.394 275.035 367.971 281.457 360.077 281.457C351.395 281.457 345.97 287.091 343.785 292.362C341.601 297.634 341.455 305.456 347.595 311.594C353.177 317.177 353.177 326.26 347.595 331.843L331.841 347.597C326.256 353.18 317.175 353.178 311.592 347.597C305.453 341.457 297.633 341.605 292.359 343.787C287.089 345.972 281.454 351.398 281.454 360.08C281.456 367.975 275.033 374.398 267.139 374.398ZM212.688 328.346C216.795 328.346 220.963 329.162 225.002 330.836C237.056 335.828 244.543 347.034 244.543 360.08C244.543 360.255 244.686 360.397 244.86 360.397H267.138C267.222 360.397 267.302 360.364 267.361 360.304C267.421 360.245 267.454 360.164 267.454 360.08C267.454 347.047 274.945 335.848 287.003 330.853C299.062 325.856 312.276 328.481 321.493 337.696C321.522 337.726 321.557 337.75 321.595 337.766C321.634 337.782 321.675 337.79 321.717 337.79C321.758 337.79 321.799 337.782 321.838 337.766C321.876 337.75 321.911 337.726 321.941 337.696L337.695 321.942C337.724 321.913 337.747 321.878 337.763 321.84C337.779 321.801 337.788 321.76 337.788 321.718C337.788 321.677 337.779 321.636 337.763 321.597C337.747 321.559 337.724 321.524 337.695 321.494C328.479 312.277 325.857 299.062 330.852 287.004C335.846 274.946 347.044 267.456 360.078 267.456C360.162 267.456 360.242 267.423 360.301 267.363C360.361 267.304 360.394 267.223 360.395 267.139V244.861C360.394 244.777 360.361 244.697 360.301 244.638C360.242 244.578 360.162 244.545 360.078 244.544C347.045 244.544 335.846 237.054 330.852 224.996C325.857 212.938 328.479 199.723 337.695 190.507C337.725 190.479 337.75 190.444 337.766 190.405C337.782 190.366 337.79 190.325 337.789 190.282C337.79 190.241 337.782 190.199 337.766 190.16C337.75 190.122 337.726 190.087 337.696 190.058L321.941 174.304C321.911 174.275 321.876 174.251 321.838 174.235C321.799 174.219 321.758 174.21 321.717 174.21C321.675 174.21 321.634 174.219 321.595 174.235C321.557 174.251 321.522 174.275 321.493 174.304C312.275 183.52 299.059 186.142 287.003 181.147C274.945 176.153 267.454 164.955 267.454 151.921C267.454 151.837 267.421 151.757 267.362 151.697C267.302 151.637 267.222 151.604 267.138 151.603H244.86C244.775 151.604 244.695 151.637 244.635 151.697C244.576 151.757 244.543 151.837 244.543 151.921C244.543 164.954 237.053 176.152 224.995 181.147C212.936 186.143 199.722 183.518 190.506 174.304C190.477 174.273 190.442 174.249 190.403 174.233C190.364 174.217 190.323 174.209 190.281 174.21C190.239 174.209 190.197 174.217 190.158 174.233C190.12 174.249 190.085 174.273 190.057 174.303L174.303 190.058C174.272 190.087 174.247 190.121 174.231 190.16C174.215 190.199 174.207 190.241 174.209 190.282C174.207 190.325 174.214 190.366 174.231 190.405C174.247 190.444 174.271 190.479 174.303 190.507C183.518 199.723 186.141 212.939 181.146 224.996C176.152 237.054 164.953 244.544 151.919 244.544C151.835 244.545 151.754 244.578 151.695 244.638C151.635 244.697 151.602 244.777 151.602 244.861V267.139C151.602 267.314 151.745 267.456 151.919 267.456C164.952 267.456 176.151 274.946 181.146 287.004C186.141 299.063 183.519 312.278 174.303 321.494C174.273 321.524 174.25 321.559 174.234 321.597C174.218 321.636 174.209 321.677 174.209 321.718C174.209 321.76 174.218 321.801 174.234 321.84C174.25 321.878 174.273 321.913 174.303 321.942L190.057 337.696C190.085 337.727 190.12 337.752 190.158 337.768C190.197 337.784 190.239 337.792 190.281 337.79C190.323 337.792 190.365 337.784 190.403 337.768C190.442 337.752 190.477 337.728 190.506 337.696C196.64 331.564 204.54 328.346 212.688 328.346ZM256 317.439C222.123 317.439 194.562 289.877 194.562 256.001C194.562 222.125 222.123 194.563 256 194.563C289.877 194.563 317.438 222.124 317.438 256.001C317.438 289.878 289.877 317.439 256 317.439ZM256 208.563C229.843 208.563 208.562 229.843 208.562 256.001C208.562 282.159 229.842 303.439 256 303.439C282.158 303.439 303.438 282.158 303.438 256.001C303.438 229.844 282.157 208.563 256 208.563Z" fill="#D68029"/>
<path d="M451.741 488.627C449.885 488.627 448.105 487.889 446.793 486.576C445.48 485.264 444.743 483.484 444.743 481.627V460.131H256C143.441 460.131 51.8683 368.558 51.8683 256C51.8683 207.735 69.0373 160.895 100.213 124.107C100.87 123.332 101.688 122.709 102.611 122.281C103.533 121.854 104.537 121.632 105.553 121.632H167.02C168.509 121.632 169.959 122.107 171.16 122.987C172.361 123.868 173.249 125.108 173.697 126.528C174.144 127.948 174.128 129.474 173.649 130.884C173.17 132.293 172.254 133.514 171.034 134.367C131.335 162.154 107.634 207.625 107.634 256C107.634 337.81 174.192 404.367 256.001 404.367H444.744V382.871C444.744 381.454 445.174 380.07 445.978 378.903C446.781 377.736 447.92 376.839 449.243 376.333C450.567 375.827 452.013 375.734 453.39 376.067C454.768 376.401 456.012 377.144 456.957 378.199L501.214 427.577C502.365 428.861 503.002 430.525 503.002 432.249C503.002 433.974 502.365 435.637 501.214 436.921L456.957 486.299C456.3 487.032 455.496 487.618 454.597 488.019C453.699 488.42 452.725 488.628 451.741 488.627ZM108.832 135.633C81.1033 169.508 65.8683 212.121 65.8683 256C65.8683 360.839 151.161 446.131 256 446.131H451.743C453.6 446.131 455.38 446.869 456.693 448.182C458.006 449.494 458.743 451.275 458.743 453.131V463.329L486.599 432.249L458.743 401.169V411.367C458.743 413.224 458.006 415.004 456.693 416.317C455.38 417.63 453.6 418.367 451.743 418.367H256C166.471 418.367 93.6333 345.529 93.6333 256C93.6333 209.907 113.291 166.228 147.047 135.633H108.832ZM60.2583 488.627C59.2742 488.628 58.3012 488.42 57.4026 488.019C56.5041 487.618 55.7001 487.032 55.0433 486.299L10.7873 436.921C9.63643 435.637 9 433.974 9 432.249C9 430.525 9.63643 428.861 10.7873 427.577L55.0433 378.199C55.989 377.144 57.2329 376.401 58.6103 376.067C59.9876 375.734 61.4337 375.827 62.7573 376.333C64.0809 376.839 65.2197 377.736 66.023 378.903C66.8263 380.07 67.2563 381.454 67.2563 382.871V404.367H93.0813C94.9943 404.367 96.8243 405.15 98.1453 406.535C113.475 422.611 131.164 436.257 150.604 447.005C151.963 447.756 153.033 448.937 153.647 450.363C154.26 451.788 154.383 453.378 153.995 454.88C153.607 456.383 152.731 457.714 151.504 458.665C150.277 459.616 148.769 460.131 147.217 460.131H67.2563V481.627C67.2563 483.484 66.5191 485.264 65.2067 486.576C63.8944 487.889 62.1145 488.627 60.2583 488.627ZM25.3993 432.249L53.2553 463.329V453.131C53.2553 451.275 53.9928 449.494 55.3055 448.182C56.6183 446.869 58.3988 446.131 60.2553 446.131H122.815C111.083 437.903 100.135 428.609 90.1113 418.367H60.2563C58.3998 418.367 56.6193 417.63 55.3065 416.317C53.9938 415.004 53.2563 413.224 53.2563 411.367V401.169L25.3993 432.249ZM406.447 390.367H344.98C343.491 390.367 342.041 389.893 340.841 389.012C339.64 388.132 338.751 386.892 338.304 385.472C337.856 384.052 337.873 382.526 338.352 381.116C338.831 379.706 339.746 378.486 340.966 377.632C380.664 349.845 404.365 304.375 404.365 255.999C404.365 174.189 337.808 107.633 255.999 107.633H67.2563V129.128C67.2563 130.546 66.8263 131.929 66.023 133.097C65.2197 134.264 64.0809 135.16 62.7573 135.667C61.4337 136.173 59.9876 136.266 58.6103 135.932C57.2329 135.599 55.989 134.856 55.0433 133.8L10.7873 84.4234C9.63643 83.1393 9 81.4757 9 79.7514C9 78.0271 9.63643 76.3634 10.7873 75.0794L55.0433 25.7014C55.989 24.646 57.2329 23.9026 58.6103 23.5693C59.9876 23.2361 61.4337 23.3288 62.7573 23.8351C64.0809 24.3414 65.2197 25.2376 66.023 26.405C66.8263 27.5725 67.2563 28.9562 67.2563 30.3734V51.8694H256C368.558 51.8694 460.131 143.442 460.131 256C460.131 304.265 442.962 351.104 411.787 387.893C411.13 388.669 410.312 389.292 409.39 389.719C408.468 390.146 407.464 390.367 406.447 390.367ZM364.953 376.367H403.168C430.897 342.492 446.131 299.878 446.131 256C446.131 151.161 360.839 65.8694 256 65.8694H60.2563C58.3998 65.8694 56.6193 65.1319 55.3065 63.8191C53.9938 62.5064 53.2563 60.7259 53.2563 58.8694V48.6714L25.4003 79.7514L53.2563 110.831V100.634C53.2563 98.7779 53.9938 96.9974 55.3065 95.6846C56.6193 94.3719 58.3998 93.6344 60.2563 93.6344H256C345.529 93.6344 418.366 166.471 418.366 256C418.366 302.093 398.709 345.773 364.953 376.367ZM451.741 136.129C449.885 136.129 448.105 135.391 446.793 134.078C445.48 132.766 444.743 130.986 444.743 129.129V107.634H418.919C417.972 107.635 417.035 107.442 416.164 107.07C415.294 106.697 414.508 106.151 413.854 105.465C398.525 89.3892 380.836 75.7423 361.396 64.9944C360.038 64.2437 358.967 63.0627 358.353 61.6372C357.739 60.2116 357.616 58.6224 358.004 57.1195C358.392 55.6166 359.269 54.2852 360.496 53.3348C361.723 52.3844 363.231 51.8689 364.783 51.8694H444.743V30.3734C444.743 28.9562 445.173 27.5725 445.977 26.405C446.78 25.2376 447.919 24.3414 449.242 23.8351C450.566 23.3288 452.012 23.2361 453.389 23.5693C454.767 23.9026 456.01 24.646 456.956 25.7014L501.213 75.0794C502.364 76.3634 503.001 78.0271 503.001 79.7514C503.001 81.4757 502.364 83.1393 501.213 84.4234L456.956 133.801C456.299 134.534 455.496 135.12 454.597 135.521C453.698 135.923 452.725 136.13 451.741 136.129ZM421.889 93.6344H451.743C453.6 93.6344 455.38 94.3719 456.693 95.6846C458.006 96.9974 458.743 98.7779 458.743 100.634V110.831L486.599 79.7514L458.743 48.6714V58.8694C458.743 60.7259 458.006 62.5064 456.693 63.8191C455.38 65.1319 453.6 65.8694 451.743 65.8694H389.184C400.918 74.0971 411.866 83.3916 421.889 93.6344Z" fill="#D68029"/>
</svg>
