<svg width="512" height="512" viewBox="0 0 512 512" fill="none" xmlns="http://www.w3.org/2000/svg">
<g clip-path="url(#clip0_3353_1709)">
<path d="M255.108 65.06C260.67 65.06 265.179 60.551 265.179 54.989V10.071C265.179 4.509 260.67 0 255.108 0C249.546 0 245.037 4.509 245.037 10.071V54.989C245.038 60.551 249.547 65.06 255.108 65.06ZM501.281 345.985L483.49 328.244C477.161 321.923 468.726 318.441 459.738 318.441C453.991 318.441 448.474 319.871 443.585 322.55L410.059 289.064L411.692 287.433C425.293 273.805 425.288 251.66 411.691 238.078C406.904 233.266 400.807 229.968 394.16 228.598C395.082 225.414 395.55 222.115 395.549 218.8C395.549 209.445 391.915 200.673 385.337 194.122C380.55 189.31 374.453 186.013 367.806 184.642C368.728 181.458 369.196 178.159 369.195 174.844C369.195 165.488 365.561 156.717 358.972 150.156C354.18 145.363 348.092 142.076 341.456 140.701C344.892 128.854 341.956 115.525 332.636 106.189C324.878 98.464 314.35 95.144 304.206 96.22L237.771 83.645C227.639 81.723 214.986 80.452 206.999 87.737C206.495 88.197 205.981 88.726 205.475 89.315C193.091 84.801 178.647 87.489 168.73 97.395C162.151 103.966 158.527 112.734 158.527 122.084C158.527 125.452 159.004 128.741 159.913 131.883C153.277 133.25 147.191 136.54 142.413 141.342C135.821 147.907 132.186 156.665 132.179 166.004C132.174 169.329 132.642 172.637 133.569 175.83C126.928 177.195 120.835 180.481 116.047 185.28C109.455 191.865 105.825 200.638 105.825 209.983C105.825 217.141 107.962 223.96 111.922 229.72C106.868 231.434 102.277 234.29 98.5065 238.067C84.8965 251.66 84.8915 273.806 98.5155 287.454L100.143 289.074L66.6125 322.543C54.1515 316.676 38.7985 318.874 28.5155 329.144L10.7135 346.896C4.38153 353.22 0.895531 361.656 0.894531 370.649C0.894531 379.643 4.38153 388.08 10.7135 394.405L32.9305 416.595C36.8655 420.526 43.2425 420.522 47.1725 416.587C51.1035 412.652 51.0995 406.275 47.1645 402.345L24.9475 380.155C22.4255 377.636 21.0365 374.26 21.0365 370.65C21.0365 367.041 22.4255 363.666 24.9415 361.153L42.7445 343.4C47.1925 338.957 54.0005 338.295 59.1705 341.386C60.1998 342.937 61.6406 344.171 63.3315 344.949L165.425 446.892C165.919 447.978 166.603 448.968 167.445 449.814C168.267 450.635 169.227 451.306 170.28 451.798C172.45 454.248 173.643 457.41 173.632 460.683C173.632 464.293 172.243 467.668 169.721 470.187L151.936 487.951C146.681 493.183 138.133 493.182 132.894 487.967L110.677 465.748C106.744 461.815 100.368 461.815 96.4345 465.748C92.5015 469.681 92.5015 476.057 96.4345 479.99L118.668 502.225C125.212 508.742 133.806 511.999 142.404 511.999C151.004 511.999 159.608 508.737 166.16 502.214L183.956 484.439C190.288 478.114 193.775 469.678 193.775 460.683C193.775 454.264 191.99 448.134 188.671 442.848L226.407 405.158L226.528 405.035C230.849 400.568 242.882 401.404 254.519 402.212C262.787 402.787 272.005 403.426 281.011 402.388L322.335 443.663C319.658 448.544 318.229 454.054 318.229 459.792C318.229 468.777 321.716 477.208 328.048 483.533L345.845 501.308C352.173 507.629 360.608 511.111 369.596 511.111C378.583 511.111 387.018 507.63 393.347 501.308L501.288 393.498C507.62 387.174 511.107 378.738 511.107 369.744C511.105 360.751 507.619 352.315 501.281 345.985ZM234.021 103.435L277.708 111.704L251.559 137.843C247.514 135.899 241.97 132.273 235.888 126.455C227.563 118.491 221.608 109.296 221.066 103.561L221.065 103.552L221.064 103.549C221.03 103.219 221.016 102.888 221.02 102.557C222.337 102.237 225.835 101.882 234.021 103.435ZM182.963 111.646C188.065 106.549 195.991 105.961 201.756 109.865C205.023 123.563 216.708 135.978 221.965 141.008C225.861 144.736 238.362 155.913 250.98 158.985C252.705 161.461 253.625 164.409 253.616 167.427C253.616 171.392 252.091 175.099 249.312 177.875C246.541 180.651 242.828 182.179 238.856 182.179C234.883 182.179 231.17 180.651 228.386 177.862L228.385 177.861L228.38 177.856L182.962 132.52C180.193 129.755 178.668 126.048 178.668 122.084C178.669 118.119 180.194 114.412 182.963 111.646ZM156.647 155.593C159.418 152.818 163.127 151.289 167.093 151.289C171.064 151.289 174.785 152.821 177.574 155.607L214.146 192.106C219.905 197.874 219.905 207.26 214.166 213.008C211.38 215.783 207.654 217.311 203.675 217.311C199.696 217.311 195.97 215.783 193.196 213.02L193.195 213.019L165.45 185.28C165.407 185.237 165.36 185.197 165.316 185.153L156.636 176.477C153.851 173.695 152.318 169.981 152.321 166.019C152.325 162.07 153.853 158.375 156.647 155.593ZM130.281 199.531C133.054 196.762 136.771 195.237 140.749 195.237C144.694 195.237 148.379 196.74 151.14 199.461L178.97 227.278C181.745 230.042 183.274 233.745 183.274 237.705C183.274 241.664 181.745 245.367 178.959 248.142C176.187 250.91 172.474 252.435 168.503 252.435C164.526 252.435 160.801 250.906 158.025 248.142L147.936 238.065L147.929 238.058L130.282 220.432C127.5 217.653 125.968 213.941 125.968 209.981C125.968 206.022 127.5 202.309 130.281 199.531ZM112.741 252.317C115.526 249.535 119.248 248.003 123.221 248.003C127.193 248.003 130.914 249.534 133.698 252.314L143.801 262.405C146.577 265.169 148.105 268.872 148.105 272.832C148.105 276.792 146.576 280.494 143.78 283.28C141.009 286.055 137.296 287.584 133.324 287.584C129.351 287.584 125.638 286.056 122.847 283.26L121.582 282C121.565 281.983 121.552 281.965 121.536 281.949L121.478 281.897L112.751 273.204C106.992 267.433 106.987 258.064 112.741 252.317ZM317.975 366.775C314.044 362.839 307.667 362.836 303.733 366.766L294.773 375.715C286.259 384.229 270.832 383.157 255.913 382.122C239.712 380.996 222.959 379.834 212.118 390.964L175.023 428.014L82.2595 335.387L115.088 302.618C120.514 305.944 126.775 307.727 133.326 307.727C142.685 307.727 151.461 304.099 158.016 297.532C164.615 290.96 168.25 282.189 168.25 272.833C168.25 272.746 168.244 272.66 168.244 272.573C168.331 272.574 168.418 272.579 168.505 272.579C177.851 272.579 186.62 268.962 193.184 262.406C199.783 255.834 203.418 247.062 203.418 237.707C203.418 237.62 203.412 237.534 203.412 237.447C203.5 237.447 203.588 237.453 203.677 237.453C213.02 237.453 221.794 233.84 228.402 227.259C235.262 220.388 238.655 211.342 238.59 202.315C238.68 202.316 238.77 202.321 238.86 202.321C248.219 202.32 256.994 198.693 263.559 192.116C270.138 185.545 273.762 176.777 273.762 167.427C273.762 160.888 271.984 154.637 268.669 149.222L297.442 120.461C299.508 118.401 302.138 117 305.001 116.433C305.301 116.401 305.597 116.353 305.89 116.295C310.336 115.682 315.005 117.054 318.405 120.44C324.164 126.209 324.164 135.595 318.426 141.343L309.663 150.07C309.634 150.099 309.603 150.125 309.574 150.154L299.481 160.23C295.545 164.16 295.541 170.537 299.472 174.472C303.404 178.408 309.78 178.411 313.714 174.481L322.512 165.695L322.518 165.689L323.848 164.364C329.622 158.642 338.979 158.654 344.748 164.415C347.524 167.179 349.053 170.882 349.053 174.842C349.053 178.801 347.524 182.504 344.726 185.29L335.913 194.121L335.91 194.125L325.818 204.176C321.876 208.101 321.864 214.478 325.789 218.418C329.714 222.359 336.09 222.371 340.031 218.447L350.169 208.35C352.94 205.574 356.653 204.046 360.625 204.046C364.598 204.046 368.312 205.574 371.103 208.37C373.879 211.135 375.407 214.838 375.407 218.798C375.407 222.757 373.879 226.46 371.087 229.24L353.517 246.817C349.585 250.751 349.586 257.127 353.519 261.059C354.453 261.995 355.562 262.738 356.784 263.243C358.006 263.749 359.316 264.009 360.639 264.007C363.217 264.007 365.795 263.023 367.761 261.056L376.372 252.442C376.421 252.395 376.474 252.354 376.523 252.305C379.294 249.529 383.007 248.001 386.979 248.001C390.952 248.001 394.665 249.529 397.446 252.315C403.199 258.062 403.194 267.432 397.446 273.19L388.691 281.935L388.681 281.944L388.672 281.954L374.776 295.833C370.841 299.764 370.837 306.141 374.767 310.076C375.701 311.014 376.812 311.758 378.035 312.265C379.258 312.771 380.569 313.032 381.893 313.03C384.468 313.03 387.044 312.048 389.01 310.085L395.807 303.296L428.384 335.835L335.629 428.477L302.395 395.283C304.784 393.751 307.002 391.966 309.01 389.96L317.965 381.016C321.902 377.087 321.906 370.71 317.975 366.775ZM487.053 379.247L379.112 487.057C376.587 489.579 373.207 490.968 369.595 490.968C365.983 490.968 362.603 489.579 360.077 487.056L342.28 469.281C339.758 466.763 338.369 463.393 338.369 459.792C338.369 456.192 339.758 452.822 342.28 450.303L450.221 342.493C452.747 339.97 456.126 338.581 459.739 338.581C463.351 338.581 466.73 339.97 469.263 342.499L487.054 360.24C489.576 362.759 490.965 366.133 490.965 369.743C490.964 373.354 489.575 376.729 487.053 379.247ZM121.379 56.57C122.312 57.5043 123.422 58.2452 124.642 58.75C125.863 59.2549 127.172 59.5138 128.493 59.512C131.073 59.512 133.654 58.526 135.621 56.555C139.55 52.618 139.544 46.242 135.607 42.313L98.9085 5.688C94.9725 1.759 88.5955 1.764 84.6665 5.702C80.7375 9.639 80.7435 16.015 84.6805 19.944L121.379 56.57ZM381.723 59.512C384.298 59.512 386.874 58.53 388.84 56.567L425.51 19.941C429.445 16.011 429.449 9.634 425.518 5.699C421.588 1.764 415.212 1.76 411.276 5.691L374.606 42.317C370.671 46.247 370.667 52.624 374.598 56.559C375.532 57.4966 376.642 58.2402 377.865 58.747C379.088 59.2538 380.399 59.5138 381.723 59.512Z" fill="#D68029"/>
<path d="M62.8188 433.204C58.9198 437.17 58.9738 443.547 62.9408 447.446L62.9698 447.474C64.845 449.324 67.3739 450.36 70.0078 450.356C72.6148 450.356 75.2218 449.347 77.1968 447.338C81.0958 443.372 81.0268 436.981 77.0608 433.082C73.0958 429.183 66.7198 429.238 62.8188 433.204ZM342.606 352.267C344.138 352.267 345.692 351.918 347.151 351.183C352.117 348.678 354.112 342.622 351.608 337.656C349.103 332.69 343.046 330.694 338.081 333.199L338.025 333.227C333.059 335.732 331.092 341.774 333.596 346.74C335.364 350.248 338.92 352.267 342.606 352.267Z" fill="#D68029"/>
</g>
<defs>
<clipPath id="clip0_3353_1709">
<rect width="512" height="512" fill="white"/>
</clipPath>
</defs>
</svg>
