<svg width="512" height="512" viewBox="0 0 512 512" fill="none" xmlns="http://www.w3.org/2000/svg">
<g clip-path="url(#clip0_3411_2330)">
<mask id="mask0_3411_2330" style="mask-type:luminance" maskUnits="userSpaceOnUse" x="0" y="0" width="512" height="512">
<path d="M505.499 505.5V6.5015H6.5V505.5H505.499Z" fill="white" stroke="white" stroke-width="13"/>
</mask>
<g mask="url(#mask0_3411_2330)">
<path d="M83.9192 371.641H48.5293C32.7423 371.641 19.9434 358.842 19.9434 343.055V109.752C19.9434 93.9654 32.7423 81.1665 48.5293 81.1665H56.2293" stroke="#D68029" stroke-width="13" stroke-miterlimit="10" stroke-linecap="round" stroke-linejoin="round"/>
<path d="M482.384 181V343.054C482.384 358.841 469.585 371.64 453.798 371.64L175.869 371.641" stroke="#D68029" stroke-width="13" stroke-miterlimit="10" stroke-linecap="round" stroke-linejoin="round"/>
<path d="M186.168 117.721H423.585" stroke="#D68029" stroke-width="13" stroke-miterlimit="10" stroke-linecap="round" stroke-linejoin="round"/>
<path d="M19.9434 117.721H73.6192" stroke="#D68029" stroke-width="13" stroke-miterlimit="10" stroke-linecap="round" stroke-linejoin="round"/>
<path d="M154.104 81.166C154.104 94.537 143.264 105.377 129.894 105.377C116.523 105.377 105.684 94.537 105.684 81.166C105.684 67.7951 116.523 56.9561 129.894 56.9561C143.264 56.9561 154.104 67.7951 154.104 81.166Z" stroke="#D68029" stroke-width="13" stroke-miterlimit="10" stroke-linecap="round" stroke-linejoin="round"/>
<path d="M203.558 93.4213V68.9103L181.238 64.2124C180.404 61.6864 179.384 59.2259 178.185 56.8514L190.648 37.7424L173.317 20.4105L154.208 32.8734C151.833 31.6754 149.373 30.6552 146.847 29.8214L142.149 7.50052H117.638L112.94 29.8214C110.415 30.6552 107.954 31.6754 105.579 32.8734L86.4704 20.4105L69.1385 37.7424L81.6014 56.8514C80.4034 59.2261 79.3832 61.6866 78.5494 64.2124L56.2285 68.9103V93.4213L78.5494 98.1192C79.3834 100.645 80.4036 103.106 81.6014 105.481L69.1385 124.589L86.4704 141.92L105.579 129.457C107.954 130.656 110.414 131.676 112.94 132.51L117.638 154.83H142.149L146.847 132.51C149.373 131.676 151.834 130.656 154.208 129.457L173.317 141.92L190.648 124.589L178.185 105.481C179.384 103.106 180.404 100.645 181.238 98.1192L203.558 93.4213Z" stroke="#D68029" stroke-width="13" stroke-miterlimit="10" stroke-linecap="round" stroke-linejoin="round"/>
<path d="M154.104 223.205H77.709V194.214H154.104V223.205Z" stroke="#D68029" stroke-width="13" stroke-miterlimit="10" stroke-linecap="round" stroke-linejoin="round"/>
<path d="M261.164 187.84L284.478 164.527C285.124 163.878 285.893 163.362 286.739 163.011C287.584 162.659 288.492 162.478 289.408 162.478C290.324 162.478 291.231 162.659 292.077 163.011C292.923 163.362 293.691 163.878 294.337 164.527L330.634 200.814C331.28 201.463 332.049 201.978 332.894 202.329C333.74 202.68 334.647 202.861 335.563 202.861C336.479 202.861 337.386 202.68 338.232 202.329C339.078 201.978 339.846 201.463 340.492 200.814L442.56 98.7443H430.153C426.153 98.7443 422.528 97.1203 419.909 94.5013C418.562 93.1552 417.493 91.5565 416.765 89.7967C416.037 88.037 415.663 86.1508 415.665 84.2464C415.665 76.2464 422.153 69.7584 430.153 69.7584H477.761C485.66 69.7584 492.057 76.1544 492.057 84.0434V131.651C492.057 135.661 490.433 139.276 487.812 141.905C486.466 143.253 484.867 144.322 483.108 145.05C481.348 145.778 479.462 146.152 477.558 146.15C469.558 146.15 463.06 139.661 463.06 131.651V119.254L340.492 241.811C339.847 242.46 339.079 242.975 338.234 243.327C337.389 243.678 336.483 243.859 335.568 243.859C334.652 243.859 333.746 243.678 332.901 243.327C332.056 242.975 331.288 242.46 330.643 241.811L294.337 205.514C291.616 202.793 287.209 202.793 284.478 205.514L222.931 267.071C217.275 272.737 208.097 272.737 202.433 267.071C201.085 265.727 200.016 264.131 199.287 262.373C198.559 260.615 198.185 258.73 198.188 256.827C198.188 253.111 199.6 249.405 202.433 246.572L236.169 212.836" stroke="#D68029" stroke-width="13" stroke-miterlimit="10" stroke-linecap="round" stroke-linejoin="round"/>
<path d="M294.58 321.518H436.723" stroke="#D68029" stroke-width="13" stroke-miterlimit="10" stroke-linecap="round" stroke-linejoin="round"/>
<path d="M352.451 288.613H436.722" stroke="#D68029" stroke-width="13" stroke-miterlimit="10" stroke-linecap="round" stroke-linejoin="round"/>
<path d="M77.7109 251.691H129.895" stroke="#D68029" stroke-width="13" stroke-miterlimit="10" stroke-linecap="round" stroke-linejoin="round"/>
<path d="M251.164 504.5C244.155 504.5 238.473 498.818 238.473 491.809V371.637H263.855V491.809C263.855 498.818 258.174 504.5 251.164 504.5Z" stroke="#D68029" stroke-width="13" stroke-miterlimit="10" stroke-linecap="round" stroke-linejoin="round"/>
<path d="M200.732 371.639L169.215 494.95C168.517 497.681 166.929 500.102 164.703 501.831C162.476 503.56 159.738 504.498 156.919 504.498H154.325C146.041 504.498 139.977 496.691 142.029 488.664L164.086 402.362" stroke="#D68029" stroke-width="13" stroke-miterlimit="10" stroke-linecap="round" stroke-linejoin="round"/>
<path d="M345.409 504.5H348.004C356.288 504.5 362.351 496.692 360.3 488.666L330.389 371.637H301.596L333.113 494.951C333.811 497.682 335.398 500.103 337.625 501.832C339.851 503.561 342.59 504.5 345.409 504.5Z" stroke="#D68029" stroke-width="13" stroke-miterlimit="10" stroke-linecap="round" stroke-linejoin="round"/>
<path d="M175.872 371.639C175.872 397.032 155.285 417.613 129.893 417.613C126.332 417.613 122.862 417.206 119.532 416.442C99.1329 411.741 83.9199 393.47 83.9199 371.639C83.9199 349.808 99.1329 331.538 119.532 326.837C122.862 326.074 126.332 325.667 129.893 325.667C155.285 325.667 175.872 346.247 175.872 371.639Z" stroke="#D68029" stroke-width="13" stroke-miterlimit="10" stroke-linecap="round" stroke-linejoin="round"/>
<path d="M129.895 361.526V381.754" stroke="#D68029" stroke-width="13" stroke-miterlimit="10" stroke-linecap="round" stroke-linejoin="round"/>
</g>
</g>
<defs>
<clipPath id="clip0_3411_2330">
<rect width="512" height="512" fill="white"/>
</clipPath>
</defs>
</svg>
