<svg width="512" height="512" viewBox="0 0 512 512" fill="none" xmlns="http://www.w3.org/2000/svg">
<path d="M392.405 444.495H56.9536C35.8636 444.495 18.7676 427.398 18.7676 406.309V139.939C18.7676 118.849 35.8646 101.753 56.9536 101.753H90.8696M467.61 103.868C482.528 109.063 493.232 123.251 493.232 139.939V406.308C493.232 427.398 476.135 444.494 455.046 444.494H425.818M124.283 101.753H177.681M249.838 405.823H262.162M155.917 504.5H356.082M18.7676 367.152H493.232M139.578 253.309H18.7676M83.5826 314.487H18.7676M335.112 504.5H176.888L195.981 444.732H316.019L335.112 504.5Z" stroke="#D68029" stroke-width="15" stroke-miterlimit="10" stroke-linecap="round" stroke-linejoin="round"/>
<path d="M23.5332 199.443H107.477C119.794 199.443 129.779 189.458 129.779 177.141V171.585" stroke="#D68029" stroke-width="15" stroke-miterlimit="10" stroke-linecap="round" stroke-linejoin="round"/>
<path d="M129.779 171.586C139.666 171.586 147.681 163.571 147.681 153.684C147.681 143.797 139.666 135.782 129.779 135.782C119.892 135.782 111.877 143.797 111.877 153.684C111.877 163.571 119.892 171.586 129.779 171.586Z" stroke="#D68029" stroke-width="15" stroke-miterlimit="10" stroke-linecap="round" stroke-linejoin="round"/>
<path d="M159.779 271.211C169.666 271.211 177.681 263.196 177.681 253.309C177.681 243.422 169.666 235.407 159.779 235.407C149.892 235.407 141.877 243.422 141.877 253.309C141.877 263.196 149.892 271.211 159.779 271.211Z" stroke="#D68029" stroke-width="15" stroke-miterlimit="10" stroke-linecap="round" stroke-linejoin="round"/>
<path d="M101.484 332.389C111.371 332.389 119.386 324.374 119.386 314.487C119.386 304.6 111.371 296.585 101.484 296.585C91.597 296.585 83.582 304.6 83.582 314.487C83.582 324.374 91.597 332.389 101.484 332.389Z" stroke="#D68029" stroke-width="15" stroke-miterlimit="10" stroke-linecap="round" stroke-linejoin="round"/>
<path d="M399.624 148.982C367.106 145.039 343.894 123.028 331.795 108.388C330.64 106.985 329.192 105.853 327.552 105.072C325.911 104.291 324.119 103.88 322.303 103.868C318.785 103.9 315.277 105.403 312.811 108.388C300.711 123.028 277.5 145.039 244.982 148.982C238.915 149.718 234.18 154.878 234.18 160.989C234.18 306.522 318.929 315.65 322.304 315.956C325.679 315.65 410.428 306.522 410.428 160.989C410.426 154.878 405.691 149.717 399.624 148.982Z" stroke="#D68029" stroke-width="15" stroke-miterlimit="10" stroke-linecap="round" stroke-linejoin="round"/>
<path d="M334.133 206.589L316.636 224.086L310.474 217.923M325.105 283.013C323.29 283.639 321.318 283.639 319.502 283.013C314.022 281.123 305.493 277.022 296.952 268.31C279.826 250.84 269.473 221.91 266.582 183.888C266.277 179.879 268.7 176.171 272.505 174.871C290.326 168.781 305.12 159.057 316.662 149.263C318.239 147.927 320.238 147.193 322.304 147.193C324.371 147.193 326.37 147.927 327.946 149.263C339.488 159.057 354.283 168.782 372.103 174.871C375.908 176.171 378.331 179.879 378.026 183.888C375.135 221.91 364.781 250.84 347.656 268.31C339.114 277.022 330.585 281.123 325.105 283.013Z" stroke="#D68029" stroke-width="15" stroke-miterlimit="10" stroke-linecap="round" stroke-linejoin="round"/>
<path d="M410.427 154.863H418.434C443.434 154.863 463.7 134.597 463.7 109.597C463.7 84.597 443.433 64.33 418.434 64.33C418.278 64.33 418.124 64.34 417.968 64.342C412.053 49.973 397.92 39.854 381.418 39.854C370.563 39.854 360.733 44.233 353.591 51.319C344.969 25.84 320.863 7.5 292.473 7.5C260.681 7.5 234.263 30.5 228.944 60.767C228.618 60.76 228.294 60.742 227.966 60.742C201.976 60.742 180.906 81.811 180.906 107.802C180.906 133.793 201.976 154.862 227.966 154.862H234.179" stroke="#D68029" stroke-width="15" stroke-miterlimit="10" stroke-linecap="round" stroke-linejoin="round"/>
</svg>
