<svg width="512" height="512" viewBox="0 0 512 512" fill="none" xmlns="http://www.w3.org/2000/svg">
<path d="M96 144V160C96.0062 168.046 98.0371 175.96 101.906 183.015C105.774 190.069 111.356 196.037 118.136 200.368C116.198 202.748 113.755 204.668 110.983 205.988C108.212 207.308 105.182 207.995 102.112 208H100.944C91.1491 208.011 81.7584 211.906 74.8323 218.832C67.9063 225.758 64.0106 235.149 64 244.944V288C64 290.122 64.8429 292.156 66.3431 293.657C67.8434 295.157 69.8783 296 72 296H216C218.122 296 220.157 295.157 221.657 293.657C223.157 292.156 224 290.122 224 288V264H288V288C288 290.122 288.843 292.156 290.343 293.657C291.843 295.157 293.878 296 296 296H440C442.122 296 444.157 295.157 445.657 293.657C447.157 292.156 448 290.122 448 288V244.944C447.989 235.149 444.094 225.758 437.168 218.832C430.242 211.906 420.851 208.011 411.056 208H409.888C406.819 207.995 403.79 207.308 401.02 205.988C398.25 204.668 395.809 202.748 393.872 200.368C400.651 196.036 406.23 190.067 410.097 183.013C413.964 175.959 415.994 168.045 416 160V144C416 117.528 394.472 95.9999 368 95.9999C341.528 95.9999 320 117.528 320 144V160C320.006 168.046 322.037 175.96 325.906 183.015C329.774 190.069 335.355 196.037 342.136 200.368C339.736 203.272 336.64 205.408 333.12 206.656C330.299 199.948 325.563 194.222 319.504 190.192C313.445 186.162 306.333 184.008 299.056 184H297.888C294.819 183.995 291.79 183.308 289.02 181.988C286.25 180.668 283.809 178.748 281.872 176.368C288.651 172.036 294.23 166.067 298.097 159.013C301.964 151.959 303.994 144.045 304 136V120C304 93.5279 282.472 71.9999 256 71.9999C229.528 71.9999 208 93.5279 208 120V136C208.006 144.046 210.037 151.96 213.906 159.015C217.774 166.069 223.355 172.037 230.136 176.368C228.198 178.748 225.755 180.668 222.983 181.988C220.212 183.308 217.182 183.995 214.112 184H212.944C205.666 184.008 198.553 186.162 192.493 190.194C186.434 194.225 181.699 199.954 178.88 206.664C175.359 205.427 172.242 203.253 169.864 200.376C176.644 196.043 182.225 190.073 186.093 183.018C189.962 175.962 191.993 168.046 192 160V144C192 117.528 170.472 95.9999 144 95.9999C117.528 95.9999 96 117.528 96 144ZM208 280H80V244.944C80.0064 239.391 82.215 234.068 86.1414 230.141C90.0678 226.215 95.3913 224.006 100.944 224H102.112C104.168 224 106.176 223.784 108.152 223.464L111.032 226.344C115.351 230.688 120.488 234.132 126.147 236.476C131.807 238.82 137.875 240.018 144 240C155.914 240.02 167.376 235.443 176 227.224V256C176 258.122 176.843 260.157 178.343 261.657C179.843 263.157 181.878 264 184 264H208V280ZM411.056 224C416.609 224.006 421.932 226.215 425.859 230.141C429.785 234.068 431.994 239.391 432 244.944V280H304V264H328C330.122 264 332.157 263.157 333.657 261.657C335.157 260.157 336 258.122 336 256V227.224C344.624 235.443 356.086 240.02 368 240C374.125 240.018 380.193 238.82 385.853 236.476C391.512 234.132 396.649 230.688 400.968 226.344L403.848 223.464C405.824 223.784 407.832 224 409.888 224H411.056ZM336 144C336 126.352 350.352 112 368 112C385.648 112 400 126.352 400 144V160C400 177.648 385.648 192 368 192C350.352 192 336 177.648 336 160V144ZM368 208C371.688 208 375.264 207.544 378.72 206.752C381.104 210.549 384.163 213.878 387.744 216.576C376.6 225.912 359.392 225.912 348.256 216.576C351.839 213.88 354.898 210.551 357.28 206.752C360.736 207.544 364.312 208 368 208ZM224 120C224 102.352 238.352 87.9999 256 87.9999C273.648 87.9999 288 102.352 288 120V136C288 153.648 273.648 168 256 168C238.352 168 224 153.648 224 136V120ZM256 184C259.688 184 263.264 183.544 266.72 182.752C269.104 186.549 272.163 189.878 275.744 192.576C264.6 201.912 247.392 201.912 236.256 192.576C239.839 189.88 242.898 186.551 245.28 182.752C248.736 183.544 252.312 184 256 184ZM192 220.944C192.006 215.391 194.215 210.068 198.141 206.141C202.068 202.215 207.391 200.006 212.944 200H214.112C216.168 200 218.176 199.784 220.152 199.464L223.032 202.344C231.832 211.152 243.544 216 256 216C268.456 216 280.168 211.152 288.968 202.344L291.848 199.464C293.824 199.784 295.832 200 297.888 200H299.056C304.609 200.006 309.932 202.215 313.859 206.141C317.785 210.068 319.994 215.391 320 220.944V248H192V220.944ZM163.744 216.568C152.6 225.904 135.392 225.904 124.256 216.568C127.839 213.872 130.898 210.543 133.28 206.744C136.736 207.544 140.312 208 144 208C147.688 208 151.264 207.544 154.72 206.752C157.144 210.616 160.208 213.912 163.744 216.568ZM176 144V160C176 177.648 161.648 192 144 192C126.352 192 112 177.648 112 160V144C112 126.352 126.352 112 144 112C161.648 112 176 126.352 176 144ZM453.552 346.552L289.64 391.256C288.485 389.483 287.15 387.835 285.656 386.336L229.656 330.336C228.155 328.838 226.12 327.998 224 328H136V320C136 317.878 135.157 315.843 133.657 314.343C132.157 312.843 130.122 312 128 312H16C13.8783 312 11.8434 312.843 10.3431 314.343C8.84285 315.843 8 317.878 8 320V496C8 498.122 8.84285 500.156 10.3431 501.657C11.8434 503.157 13.8783 504 16 504H80C82.1217 504 84.1566 503.157 85.6569 501.657C87.1571 500.156 88 498.122 88 496V488H128C130.122 488 132.157 487.157 133.657 485.657C135.157 484.156 136 482.122 136 480V472H190.704L237.472 487.584C239.138 488.135 240.939 488.127 242.6 487.56L498.6 399.56C500.176 399.021 501.544 398.002 502.513 396.646C503.481 395.291 504.001 393.666 504 392V384C504 376.384 501.848 368.968 497.768 362.544C488.816 348.48 470.624 341.904 453.552 346.552ZM72 488H24V328H72V488ZM120 472H88V328H120V472ZM488 386.288L239.96 471.552L194.528 456.408C193.712 456.141 192.859 456.003 192 456H136V344H220.688L274.344 397.656C280.048 403.36 280.048 412.64 274.344 418.344C268.64 424.048 259.36 424.048 253.656 418.344L213.656 378.344L202.344 389.656L242.344 429.656C248.312 435.624 256.16 438.608 264 438.608C271.84 438.608 279.688 435.624 285.656 429.656C288.663 426.633 291.001 423.012 292.52 419.028C294.039 415.044 294.704 410.785 294.472 406.528L457.76 361.992C468.144 359.152 479.048 362.912 484.264 371.136C486.712 374.976 488 379.432 488 384V386.288ZM329.296 19.0079C324.093 17.4064 318.84 15.9737 313.544 14.7119L309.832 30.2719C314.816 31.4559 319.728 32.7999 324.576 34.3039L329.296 19.0079ZM488 256C488 259.6 487.92 263.192 487.752 266.752L503.736 267.488C503.987 262.049 504.059 256.604 503.952 251.16L487.952 251.472C487.984 252.984 488 254.496 488 256ZM297.544 11.4639C292.174 10.5618 286.777 9.83343 281.36 9.27995L279.736 25.1999C284.832 25.7119 289.88 26.3919 294.872 27.2479L297.544 11.4639ZM482.608 206.016L498.232 202.576C497.063 197.259 495.721 191.981 494.208 186.752L478.84 191.208C480.248 196.088 481.504 201.024 482.608 206.016ZM359.832 30.7119C354.88 28.428 349.853 26.3095 344.76 24.3599L339.04 39.2959C343.816 41.1279 348.512 43.1119 353.128 45.2399L359.832 30.7119ZM487.168 236.208L503.112 234.848C502.651 229.426 502.013 224.02 501.2 218.64L485.376 221.032C486.144 226.04 486.736 231.104 487.168 236.208ZM445.92 122.736L459.008 113.536C455.88 109.083 452.606 104.734 449.192 100.496L436.72 110.528C439.92 114.496 442.992 118.56 445.92 122.736ZM474.096 176.696L489.136 171.224C487.274 166.114 485.246 161.066 483.056 156.088L468.416 162.544C470.456 167.184 472.352 171.904 474.096 176.696ZM438.536 88.1199C434.848 84.1132 431.03 80.2284 427.088 76.4719L416.048 88.0479C419.728 91.5599 423.304 95.1919 426.752 98.9439L438.536 88.1199ZM388.528 46.3439C383.968 43.4559 379.224 40.6639 374.432 38.0559L366.792 52.1199C371.272 54.5599 375.664 57.1359 379.96 59.8639L388.528 46.3439ZM477.016 326.76L492.256 331.632C493.915 326.44 495.402 321.195 496.712 315.904L481.184 312.064C479.957 317.007 478.567 321.909 477.016 326.76ZM502.464 283.768L486.56 282C485.994 287.06 485.263 292.1 484.368 297.112L500.12 299.944C501.075 294.579 501.857 289.184 502.464 283.768ZM414.912 65.5919C410.729 62.1043 406.436 58.7506 402.04 55.5359L392.608 68.4559C396.723 71.4619 400.739 74.6023 404.648 77.8719L414.912 65.5919ZM461.792 148.8L475.976 141.392C473.458 136.572 470.781 131.836 467.952 127.192L454.288 135.504C456.94 139.849 459.443 144.284 461.792 148.8ZM33.648 189.56L18.312 184.984C16.7567 190.206 15.3746 195.478 14.168 200.792L29.768 204.336C30.904 199.344 32.2 194.424 33.648 189.56ZM44.304 160.944L29.72 154.384C27.4812 159.355 25.4107 164.401 23.512 169.512L38.504 175.088C40.28 170.296 42.216 165.576 44.304 160.944ZM58.664 133.952L45.072 125.512C42.216 130.12 39.472 134.888 36.92 139.68L51.04 147.2C53.44 142.696 55.976 138.28 58.664 133.952ZM76.432 109.088L64.048 98.9599C60.5973 103.17 57.2861 107.492 54.12 111.92L67.128 121.232C70.104 117.088 73.208 113.032 76.432 109.088ZM24.176 265.04C23.9722 259.949 23.9402 254.853 24.08 249.76L8.088 249.32C7.94727 254.762 7.97928 260.208 8.184 265.648L24.176 265.04ZM26.88 219.336L11.072 216.84C10.224 222.2 9.544 227.648 9.048 233.032L24.976 234.504C25.448 229.392 26.088 224.336 26.88 219.336ZM9.336 281.944C9.904 287.4 10.648 292.784 11.56 298.12L27.336 295.416C26.4749 290.395 25.7812 285.347 25.256 280.28L9.336 281.944ZM120.888 67.3679L111.544 54.3839C107.128 57.5599 102.808 60.88 98.608 64.3279L108.776 76.688C112.704 73.4559 116.752 70.3439 120.888 67.3679ZM174.576 38.6959L168.96 23.7119C163.864 25.6239 158.792 27.7199 153.888 29.9359L160.48 44.5119C165.115 42.4219 169.816 40.4822 174.576 38.6959ZM203.8 29.8879L200.232 14.2959C194.952 15.5039 189.632 16.9119 184.432 18.4799L189.056 33.7919C193.927 32.3306 198.844 31.0285 203.8 29.8879ZM233.944 25.0399L232.456 9.10395C227.031 9.60751 221.625 10.2986 216.248 11.1759L218.8 26.9759C223.824 26.1555 228.875 25.5098 233.944 25.0399ZM146.792 51.2559L139.256 37.1439C134.456 39.7039 129.704 42.4479 125.12 45.3119L133.592 58.8879C137.903 56.1934 142.306 53.6479 146.792 51.2559ZM255.312 23.9999C258.352 23.9839 261.456 24.0479 264.504 24.1519L265.056 8.16795C259.616 7.96075 254.17 7.93674 248.728 8.09595L249.216 24.0959C251.232 24.0319 253.256 23.9999 255.312 23.9999ZM97.288 86.7999L86.36 75.1119C82.383 78.8343 78.5328 82.6898 74.816 86.6719L86.512 97.5919C90.008 93.8319 93.64 90.2 97.288 86.7999Z" fill="#D68029"/>
</svg>
