<svg width="512" height="512" viewBox="0 0 512 512" fill="none" xmlns="http://www.w3.org/2000/svg">
<path d="M502.66 377C497.25 356.79 476.24 344.51 454.83 349L305.61 380.68C308.546 372.608 308.552 363.762 305.627 355.686C302.703 347.611 297.033 340.82 289.61 336.5L203.11 286.55C199.639 284.382 196.378 281.894 193.37 279.12C185.77 272.55 176.31 264.38 158.68 262.5C141.93 260.72 120.13 264.65 90.68 274.84C89.697 268.595 86.5185 262.905 81.716 258.793C76.9135 254.682 70.802 252.418 64.48 252.41H34.52C27.4889 252.418 20.748 255.214 15.7763 260.186C10.8046 265.158 8.00794 271.899 8 278.93V426.34C8.00794 433.371 10.8046 440.112 15.7763 445.083C20.748 450.055 27.4889 452.852 34.52 452.86H64.39C71.3473 452.85 78.0229 450.11 82.9806 445.229C87.9384 440.348 90.7821 433.716 90.9 426.76C114.76 423.41 145.07 440.71 174.45 457.49C199.77 471.95 223.91 485.74 244.08 485.74C247.875 485.771 251.652 485.221 255.28 484.11L474.8 425.29C484.895 422.576 493.501 415.966 498.725 406.911C503.949 397.856 505.364 387.098 502.66 377ZM64.39 436.86H34.52C31.7307 436.857 29.0565 435.748 27.0842 433.775C25.1119 431.803 24.0026 429.129 24 426.34V278.93C24.0026 276.14 25.1119 273.466 27.0842 271.494C29.0565 269.521 31.7307 268.412 34.52 268.41H64.39C67.1793 268.412 69.8535 269.521 71.8258 271.494C73.7981 273.466 74.9074 276.14 74.91 278.93V426.34C74.9074 429.129 73.7981 431.803 71.8258 433.775C69.8535 435.748 67.1793 436.857 64.39 436.86ZM470.66 409.86L251 468.7L250.63 468.81C235.2 473.74 208.36 458.42 182.41 443.6C151.48 425.92 119.6 407.74 90.94 410.6V291.69C156.29 268.25 169.81 279.92 182.94 291.22C186.7 294.67 190.786 297.748 195.14 300.41L281.64 350.35C283.976 351.705 286.021 353.507 287.66 355.653C289.3 357.799 290.5 360.246 291.193 362.856C291.886 365.466 292.059 368.187 291.701 370.863C291.342 373.539 290.46 376.119 289.105 378.455C287.75 380.79 285.948 382.836 283.802 384.475C281.656 386.114 279.208 387.315 276.599 388.008C273.989 388.701 271.268 388.873 268.592 388.515C265.915 388.157 263.336 387.275 261 385.92L188.78 344.23C186.947 343.235 184.799 342.994 182.792 343.56C180.785 344.126 179.078 345.453 178.035 347.259C176.992 349.064 176.695 351.206 177.208 353.227C177.721 355.248 179.002 356.989 180.78 358.08L253 399.78C258.534 402.983 264.816 404.67 271.21 404.67C276.948 404.661 282.605 403.312 287.73 400.73C288.106 400.704 288.48 400.654 288.85 400.58L458.11 364.74C471.42 361.92 483.91 368.99 487.18 381.18C488.776 387.169 487.934 393.547 484.838 398.917C481.741 404.287 476.643 408.211 470.66 409.83V409.86ZM62.79 297.3C62.7979 299.94 62.022 302.524 60.5606 304.723C59.0991 306.922 57.0179 308.638 54.5805 309.654C52.143 310.669 49.459 310.938 46.8684 310.427C44.2778 309.916 41.8971 308.648 40.0279 306.783C38.1587 304.918 36.885 302.54 36.3681 299.951C35.8513 297.361 36.1145 294.677 37.1245 292.237C38.1346 289.797 39.8459 287.712 42.0418 286.246C44.2378 284.779 46.8195 283.998 49.46 284C52.9877 284.008 56.3691 285.41 58.8664 287.902C61.3637 290.394 62.7742 293.772 62.79 297.3ZM220.73 209.41H234.27C236.953 219.054 240.801 228.336 245.73 237.05L236.16 246.63C233.649 249.108 232.127 252.416 231.879 255.935C231.63 259.454 232.672 262.943 234.81 265.75C243.273 276.98 253.267 286.97 264.5 295.43C267.304 297.573 270.793 298.619 274.313 298.373C277.833 298.126 281.143 296.603 283.62 294.09L293.2 284.52C301.912 289.449 311.19 293.304 320.83 296V309.54C320.809 313.068 322.074 316.483 324.39 319.145C326.706 321.806 329.913 323.533 333.41 324C347.341 325.962 361.479 325.962 375.41 324C378.912 323.534 382.124 321.806 384.443 319.14C386.761 316.474 388.026 313.053 388 309.52V296C397.643 293.313 406.925 289.465 415.64 284.54L425.21 294.11C427.687 296.623 430.996 298.146 434.517 298.393C438.037 298.639 441.526 297.593 444.33 295.45C455.56 286.985 465.547 276.988 474 265.75C476.139 262.944 477.183 259.456 476.936 255.937C476.69 252.418 475.169 249.109 472.66 246.63L463.08 237.05C468.009 228.34 471.858 219.061 474.54 209.42H488.09C491.619 209.443 495.035 208.178 497.697 205.862C500.359 203.546 502.085 200.338 502.55 196.84C504.512 182.908 504.512 168.771 502.55 154.84C502.083 151.343 500.356 148.138 497.694 145.824C495.032 143.509 491.617 142.246 488.09 142.27H474.53C471.842 132.625 467.99 123.344 463.06 114.63L472.64 105.06C475.136 102.586 476.65 99.2905 476.9 95.7851C477.151 92.2797 476.12 88.8026 474 85.9996C465.542 74.7617 455.548 64.7675 444.31 56.3096C441.506 54.1664 438.017 53.12 434.497 53.3667C430.977 53.6134 427.667 55.1363 425.19 57.6496L415.62 67.2296C406.913 62.289 397.639 58.4241 388 55.7196V42.1796C388.024 38.6513 386.761 35.2352 384.447 32.5715C382.133 29.9078 378.927 28.1792 375.43 27.7096C361.497 25.7687 347.363 25.7687 333.43 27.7096C329.934 28.1812 326.729 29.9104 324.416 32.5737C322.102 35.2369 320.838 38.6519 320.86 42.1796V55.7196C311.209 58.4076 301.921 62.2592 293.2 67.1896L283.62 57.6096C281.141 55.1002 277.832 53.5799 274.313 53.3333C270.794 53.0867 267.305 54.1305 264.5 56.2696C253.259 64.7397 243.265 74.7476 234.81 85.9996C232.67 88.8052 231.627 92.2948 231.875 95.8145C232.124 99.3342 233.647 102.643 236.16 105.12L245.73 114.69C240.799 123.402 236.951 132.684 234.27 142.33H220.73C217.202 142.306 213.786 143.569 211.122 145.883C208.458 148.197 206.73 151.403 206.26 154.9C204.298 168.831 204.298 182.968 206.26 196.9C206.741 200.387 208.475 203.579 211.137 205.882C213.8 208.184 217.21 209.438 220.73 209.41ZM221.94 158.29H240.5C242.32 158.29 244.085 157.67 245.505 156.532C246.925 155.394 247.914 153.806 248.31 152.03C251.036 139.846 255.854 128.227 262.55 117.69C263.523 116.154 263.945 114.333 263.745 112.527C263.545 110.72 262.735 109.035 261.45 107.75L248.33 94.6196C255.484 85.2855 263.836 76.9337 273.17 69.7796L286.29 82.9096C287.576 84.1974 289.263 85.0082 291.072 85.2082C292.881 85.4082 294.704 84.9854 296.24 84.0096C306.778 77.3138 318.396 72.4957 330.58 69.7696C332.348 69.3734 333.928 68.389 335.064 66.9775C336.199 65.5661 336.822 63.811 336.83 61.9996V43.3896C348.491 41.8696 360.299 41.8696 371.96 43.3896V61.9996C371.96 63.8193 372.58 65.5847 373.718 67.0045C374.856 68.4244 376.444 69.4138 378.22 69.8096C390.397 72.5198 402.013 77.3209 412.55 83.9996C414.086 84.9754 415.909 85.3982 417.718 85.1982C419.527 84.9982 421.214 84.1874 422.5 82.8996L435.63 69.7696C444.959 76.9267 453.307 85.2781 460.46 94.6096L447.34 107.74C446.055 109.025 445.245 110.71 445.045 112.517C444.845 114.323 445.267 116.144 446.24 117.68C452.937 128.21 457.755 139.822 460.48 152C460.878 153.774 461.868 155.36 463.288 156.496C464.707 157.632 466.472 158.25 468.29 158.25H486.85C488.383 169.909 488.383 181.72 486.85 193.38H468.28C466.463 193.381 464.701 194.001 463.284 195.137C461.866 196.272 460.877 197.857 460.48 199.63C457.757 211.824 452.939 223.453 446.24 234C445.267 235.535 444.845 237.356 445.045 239.163C445.245 240.969 446.055 242.654 447.34 243.94L460.47 257.07C453.311 266.399 444.959 274.75 435.63 281.91L422.5 268.79C421.213 267.506 419.528 266.698 417.721 266.5C415.915 266.302 414.094 266.725 412.56 267.7C402.02 274.398 390.398 279.216 378.21 281.94C376.437 282.337 374.853 283.326 373.717 284.743C372.581 286.161 371.961 287.923 371.96 289.74V308.31C360.299 309.83 348.491 309.83 336.83 308.31V289.74C336.831 287.921 336.212 286.157 335.076 284.737C333.94 283.318 332.354 282.327 330.58 281.93C318.393 279.215 306.772 274.396 296.24 267.69C294.704 266.714 292.881 266.291 291.072 266.491C289.263 266.691 287.576 267.502 286.29 268.79L273.17 281.92C263.836 274.766 255.484 266.414 248.33 257.08L261.45 244C262.735 242.714 263.545 241.029 263.745 239.223C263.945 237.416 263.523 235.595 262.55 234.06C255.852 223.523 251.034 211.904 248.31 199.72C247.914 197.944 246.925 196.355 245.505 195.217C244.085 194.079 242.32 193.459 240.5 193.46H221.94C220.407 181.803 220.407 169.996 221.94 158.34V158.29ZM354.4 256C370.244 256 385.733 251.301 398.907 242.499C412.081 233.696 422.349 221.185 428.412 206.546C434.475 191.908 436.062 175.801 432.971 160.261C429.88 144.721 422.25 130.447 411.046 119.243C399.843 108.04 385.569 100.41 370.029 97.3189C354.489 94.2278 338.381 95.8143 323.743 101.878C309.105 107.941 296.594 118.209 287.791 131.383C278.988 144.557 274.29 160.045 274.29 175.89C274.314 197.129 282.762 217.491 297.78 232.51C312.798 247.528 333.161 255.976 354.4 256ZM354.4 111.78C367.08 111.78 379.475 115.54 390.018 122.584C400.56 129.629 408.778 139.641 413.63 151.356C418.482 163.07 419.752 175.961 417.278 188.397C414.804 200.833 408.699 212.256 399.733 221.222C390.767 230.188 379.343 236.294 366.907 238.768C354.471 241.241 341.581 239.972 329.866 235.12C318.152 230.267 308.139 222.05 301.094 211.507C294.05 200.964 290.29 188.569 290.29 175.89C290.298 158.885 297.054 142.579 309.074 130.552C321.094 118.524 337.396 111.758 354.4 111.74V111.78ZM321.13 183.46C320.387 182.716 319.798 181.834 319.397 180.863C318.995 179.892 318.789 178.852 318.789 177.801C318.79 176.75 318.997 175.71 319.399 174.74C319.802 173.769 320.392 172.887 321.135 172.145C321.878 171.402 322.761 170.813 323.731 170.411C324.702 170.01 325.743 169.803 326.794 169.804C327.844 169.804 328.885 170.012 329.855 170.414C330.826 170.817 331.707 171.406 332.45 172.15L345.3 185L376 149.77C377.439 148.349 379.362 147.526 381.383 147.467C383.405 147.407 385.373 148.115 386.894 149.448C388.414 150.78 389.373 152.64 389.579 154.651C389.784 156.663 389.22 158.677 388 160.29L351.7 201.93C350.979 202.757 350.096 203.427 349.105 203.899C348.114 204.37 347.037 204.632 345.94 204.67H345.67C344.619 204.67 343.578 204.464 342.607 204.063C341.636 203.661 340.754 203.072 340.01 202.33L321.13 183.46Z" fill="#D68029"/>
</svg>
