<svg width="512" height="512" viewBox="0 0 512 512" fill="none" xmlns="http://www.w3.org/2000/svg">
<g clip-path="url(#clip0_3362_539)">
<path d="M60.4724 70.2218C60.4724 75.7883 55.9602 80.3006 50.3937 80.3006C44.8272 80.3006 40.315 75.7883 40.315 70.2218C40.315 64.6553 44.8272 60.1431 50.3937 60.1431C55.9602 60.1431 60.4724 64.6553 60.4724 70.2218ZM105.827 70.2218C105.827 75.7883 101.315 80.3006 95.748 80.3006C90.1815 80.3006 85.6693 75.7883 85.6693 70.2218C85.6693 64.6553 90.1815 60.1431 95.748 60.1431C101.315 60.1431 105.827 64.6553 105.827 70.2218ZM151.181 70.2218C151.181 75.7883 146.669 80.3006 141.102 80.3006C135.536 80.3006 131.024 75.7883 131.024 70.2218C131.024 64.6553 135.536 60.1431 141.102 60.1431C146.669 60.1431 151.181 64.6553 151.181 70.2218ZM216.693 378.631C211.128 378.631 206.614 383.157 206.614 388.71C206.614 394.263 211.128 398.789 216.693 398.789C222.246 398.789 226.772 394.263 226.772 388.71C226.772 383.157 222.246 378.631 216.693 378.631ZM201.575 150.852V299.009C201.575 304.575 197.062 309.088 191.496 309.088H50.3937C44.8282 309.088 40.315 304.575 40.315 299.009V150.852C40.315 145.286 44.8282 140.773 50.3937 140.773H191.496C197.062 140.773 201.575 145.286 201.575 150.852ZM181.417 160.93H60.4724V288.93H181.417V160.93ZM231.811 167.986H335.622C341.188 167.986 345.701 163.472 345.701 157.907C345.701 152.341 341.188 147.828 335.622 147.828H231.811C226.246 147.828 221.732 152.341 221.732 157.907C221.732 163.472 226.246 167.986 231.811 167.986ZM231.811 208.301H315.465C321.03 208.301 325.543 203.787 325.543 198.222C325.543 192.656 321.03 188.143 315.465 188.143H231.811C226.246 188.143 221.732 192.656 221.732 198.222C221.732 203.787 226.246 208.301 231.811 208.301ZM50.3937 329.245C44.8282 329.245 40.315 333.759 40.315 339.324C40.315 344.89 44.8282 349.403 50.3937 349.403H120.945C126.51 349.403 131.024 344.89 131.024 339.324C131.024 333.759 126.51 329.245 120.945 329.245H50.3937ZM457.403 310.056C452.596 323.682 452.616 338.77 457.403 352.467C459.298 357.889 465.345 360.943 471.483 358.232L482.913 352.91C496.428 346.641 512 355.611 512 370.982V413.907C512 425.04 502.975 434.064 491.843 434.064H434.888L440.481 446.028C448.605 463.293 439.063 481.95 423.025 487.411C404.483 493.724 385.17 493.789 367.146 487.407C351.183 481.755 341.572 463.293 349.687 446.032L355.284 434.063L298.331 434.064C287.216 434.064 278.173 425.022 278.173 413.907V398.789H262.047C256.483 398.789 251.969 394.263 251.969 388.71C251.969 383.157 256.483 378.631 262.047 378.631H278.173V370.986C278.173 355.612 293.747 346.639 307.256 352.906L318.689 358.229C324.829 360.945 330.876 357.888 332.77 352.469C337.556 338.774 337.573 323.686 332.77 310.052C331.057 305.192 325.055 301.415 318.966 304.163L306.841 309.811C293.747 315.689 278.173 306.975 278.173 291.077V248.616C278.173 237.483 287.198 228.458 298.331 228.458H355.284L349.687 216.491C340.824 195.458 354.389 179.768 367.146 175.114C388.389 167.368 407.262 171.005 413.228 172.318V120.616H20.1575V378.631H170.978C176.339 378.631 181.03 382.663 181.394 388.011C181.793 393.878 177.124 398.789 171.34 398.789H10.0787C4.51225 398.789 0 394.276 0 388.71V50.0643C0 33.3649 13.5368 19.8281 30.2362 19.8281H403.15C419.849 19.8281 433.386 33.3649 433.386 50.0643V181.399C441.62 188.866 446.881 201.317 440.481 216.495L434.888 228.458H491.843C502.975 228.458 512 237.483 512 248.616V291.077C512 306.971 496.428 315.69 483.336 309.814L471.211 304.159C465.114 301.418 459.117 305.188 457.403 310.056ZM413.228 100.458V50.0643C413.228 44.5069 408.707 39.9856 403.15 39.9856H30.2362C24.6788 39.9856 20.1575 44.5069 20.1575 50.0643V100.458H413.228ZM438.395 303.333C445.128 284.284 466.192 279.204 479.718 285.887L491.843 291.541V248.616H434.888C419.145 248.616 410.709 232.177 416.635 219.921L422.229 207.948C424.9 201.508 421.359 195.985 416.333 194.13C403.02 189.216 386.731 189.509 373.838 194.129C368.797 195.935 365.273 201.507 367.947 207.952L373.543 219.919C379.465 232.181 371.028 248.617 355.284 248.617H298.331V291.538L310.455 285.891C323.982 279.21 345.051 284.282 351.773 303.331C358.132 321.348 358.234 341.213 351.773 359.193C346.611 373.561 329.509 385.005 310.455 376.633L298.332 370.987L298.331 413.907H355.284C370.995 413.907 379.514 430.325 373.543 442.603L367.947 454.571C365.078 460.822 368.983 466.922 373.838 468.394C388.552 472.851 400.191 473.437 416.333 468.394C421.178 466.879 425.091 460.824 422.229 454.576L416.635 442.602C410.658 430.326 419.175 413.908 434.888 413.908H491.843V370.982L479.718 376.637C460.659 385.002 443.565 373.563 438.395 359.19C431.934 341.209 432.045 321.344 438.395 303.333Z" fill="#D68029"/>
</g>
<defs>
<clipPath id="clip0_3362_539">
<rect width="512" height="512" fill="white"/>
</clipPath>
</defs>
</svg>
