<svg width="512" height="512" viewBox="0 0 512 512" fill="none" xmlns="http://www.w3.org/2000/svg">
<path d="M432 96H408V48C407.987 37.3952 403.769 27.2285 396.27 19.7298C388.772 12.2311 378.605 8.0127 368 8H144C133.395 8.0127 123.228 12.2311 115.73 19.7298C108.231 27.2285 104.013 37.3952 104 48V96H80C77.8783 96 75.8434 96.8429 74.3431 98.3431C72.8429 99.8434 72 101.878 72 104V352C72 354.122 72.8429 356.157 74.3431 357.657C75.8434 359.157 77.8783 360 80 360H104V464C104.013 474.605 108.231 484.772 115.73 492.27C123.228 499.769 133.395 503.987 144 504H368C378.605 503.987 388.772 499.769 396.27 492.27C403.769 484.772 407.987 474.605 408 464V360H432C434.122 360 436.157 359.157 437.657 357.657C439.157 356.157 440 354.122 440 352V104C440 101.878 439.157 99.8434 437.657 98.3431C436.157 96.8429 434.122 96 432 96ZM120 48C120.006 41.6368 122.537 35.536 127.036 31.0365C131.536 26.537 137.637 24.0064 144 24H368C374.363 24.0064 380.464 26.537 384.964 31.0365C389.463 35.536 391.994 41.6368 392 48V96H120V48ZM88 112H424V160H88V112ZM392 464C391.994 470.363 389.463 476.464 384.964 480.964C380.464 485.463 374.363 487.994 368 488H144C137.637 487.994 131.536 485.463 127.036 480.964C122.537 476.464 120.006 470.363 120 464V424H392V464ZM392 408H120V360H392V408ZM424 344H88V176H424V344Z" fill="#D68029"/>
<path d="M400 144C404.418 144 408 140.418 408 136C408 131.582 404.418 128 400 128C395.582 128 392 131.582 392 136C392 140.418 395.582 144 400 144Z" fill="#D68029"/>
<path d="M368 144C372.418 144 376 140.418 376 136C376 131.582 372.418 128 368 128C363.582 128 360 131.582 360 136C360 140.418 363.582 144 368 144Z" fill="#D68029"/>
<path d="M336 144C340.418 144 344 140.418 344 136C344 131.582 340.418 128 336 128C331.582 128 328 131.582 328 136C328 140.418 331.582 144 336 144Z" fill="#D68029"/>
<path d="M256 480C260.747 480 265.387 478.592 269.334 475.955C273.28 473.318 276.357 469.57 278.173 465.184C279.99 460.799 280.465 455.973 279.539 451.318C278.613 446.662 276.327 442.386 272.971 439.029C269.614 435.673 265.338 433.387 260.682 432.461C256.027 431.535 251.201 432.01 246.816 433.827C242.43 435.643 238.682 438.72 236.045 442.666C233.408 446.613 232 451.253 232 456C232.006 462.363 234.537 468.464 239.036 472.964C243.536 477.463 249.637 479.994 256 480ZM256 448C257.582 448 259.129 448.469 260.445 449.348C261.76 450.227 262.786 451.477 263.391 452.939C263.997 454.4 264.155 456.009 263.846 457.561C263.538 459.113 262.776 460.538 261.657 461.657C260.538 462.776 259.113 463.538 257.561 463.846C256.009 464.155 254.4 463.997 252.939 463.391C251.477 462.786 250.227 461.76 249.348 460.445C248.469 459.129 248 457.582 248 456C248 453.878 248.843 451.843 250.343 450.343C251.843 448.843 253.878 448 256 448ZM320 464H352C354.122 464 356.157 463.157 357.657 461.657C359.157 460.157 360 458.122 360 456C360 453.878 359.157 451.843 357.657 450.343C356.157 448.843 354.122 448 352 448H320C317.878 448 315.843 448.843 314.343 450.343C312.843 451.843 312 453.878 312 456C312 458.122 312.843 460.157 314.343 461.657C315.843 463.157 317.878 464 320 464ZM160 464H192C194.122 464 196.157 463.157 197.657 461.657C199.157 460.157 200 458.122 200 456C200 453.878 199.157 451.843 197.657 450.343C196.157 448.843 194.122 448 192 448H160C157.878 448 155.843 448.843 154.343 450.343C152.843 451.843 152 453.878 152 456C152 458.122 152.843 460.157 154.343 461.657C155.843 463.157 157.878 464 160 464ZM288 40H224C221.878 40 219.843 40.8429 218.343 42.3431C216.843 43.8434 216 45.8783 216 48C216 50.1217 216.843 52.1566 218.343 53.6569C219.843 55.1571 221.878 56 224 56H288C290.122 56 292.157 55.1571 293.657 53.6569C295.157 52.1566 296 50.1217 296 48C296 45.8783 295.157 43.8434 293.657 42.3431C292.157 40.8429 290.122 40 288 40Z" fill="#D68029"/>
<path d="M320 56C324.418 56 328 52.4183 328 48C328 43.5817 324.418 40 320 40C315.582 40 312 43.5817 312 48C312 52.4183 315.582 56 320 56Z" fill="#D68029"/>
<path d="M190.342 301.657C191.851 303.114 193.872 303.92 195.969 303.902C198.067 303.884 200.074 303.043 201.557 301.559C203.04 300.076 203.881 298.07 203.9 295.972C203.918 293.874 203.112 291.854 201.654 290.345L167.31 256.001L201.654 221.657C203.112 220.148 203.918 218.127 203.9 216.03C203.881 213.932 203.04 211.925 201.557 210.442C200.074 208.959 198.067 208.118 195.969 208.099C193.872 208.081 191.851 208.887 190.342 210.345L150.342 250.345C148.843 251.845 148 253.879 148 256.001C148 258.122 148.843 260.156 150.342 261.657L190.342 301.657ZM310.342 301.657C311.843 303.156 313.877 303.999 315.998 303.999C318.12 303.999 320.154 303.156 321.654 301.657L361.654 261.657C363.154 260.156 363.997 258.122 363.997 256.001C363.997 253.879 363.154 251.845 361.654 250.345L321.654 210.345C320.145 208.887 318.125 208.081 316.027 208.099C313.929 208.118 311.923 208.959 310.44 210.442C308.956 211.925 308.115 213.932 308.097 216.03C308.079 218.127 308.885 220.148 310.342 221.657L344.686 256.001L310.342 290.345C308.843 291.845 308 293.879 308 296.001C308 298.122 308.843 300.156 310.342 301.657ZM228.846 319.361C229.812 319.774 230.85 319.993 231.901 320.006C232.952 320.018 233.995 319.823 234.97 319.433C235.945 319.042 236.834 318.463 237.586 317.728C238.337 316.994 238.937 316.119 239.35 315.153L287.35 203.153C288.151 201.209 288.155 199.029 287.36 197.082C286.566 195.136 285.038 193.581 283.106 192.753C281.174 191.924 278.993 191.89 277.036 192.656C275.079 193.423 273.502 194.929 272.646 196.849L224.646 308.849C223.811 310.799 223.784 313.001 224.571 314.97C225.359 316.94 226.897 318.525 228.846 319.361Z" fill="#D68029"/>
</svg>
