<svg width="512" height="512" viewBox="0 0 512 512" fill="none" xmlns="http://www.w3.org/2000/svg">
<g clip-path="url(#clip0_3353_1533)">
<path d="M416.93 338.999V311.802H264V323.795C264 325.917 263.157 327.951 261.657 329.452C260.157 330.952 258.122 331.795 256 331.795C253.878 331.795 251.843 330.952 250.343 329.452C248.843 327.951 248 325.917 248 323.795V311.802H87.553V338.999C87.553 341.121 86.7101 343.155 85.2099 344.656C83.7096 346.156 81.6747 346.999 79.553 346.999C77.4313 346.999 75.3964 346.156 73.8961 344.656C72.3959 343.155 71.553 341.121 71.553 338.999V303.802C71.553 301.68 72.3959 299.645 73.8961 298.145C75.3964 296.645 77.4313 295.802 79.553 295.802H248V283.811C248 281.689 248.843 279.654 250.343 278.154C251.843 276.654 253.878 275.811 256 275.811C258.122 275.811 260.157 276.654 261.657 278.154C263.157 279.654 264 281.689 264 283.811V295.802H424.93C427.052 295.802 429.087 296.645 430.587 298.145C432.087 299.645 432.93 301.68 432.93 303.802V338.999C432.93 341.121 432.087 343.155 430.587 344.656C429.087 346.156 427.052 346.999 424.93 346.999C422.808 346.999 420.773 346.156 419.273 344.656C417.773 343.155 416.93 341.121 416.93 338.999ZM50.968 494.117C49.4792 494.117 48.02 493.701 46.7545 492.917C45.489 492.133 44.4674 491.011 43.8046 489.678C43.1418 488.345 42.8642 486.854 43.003 485.371C43.1417 483.889 43.6913 482.475 44.59 481.288L58.069 463.485V458.953H8C5.87827 458.953 3.84344 458.11 2.34315 456.61C0.842855 455.109 0 453.075 0 450.953V364.26C0 362.138 0.842855 360.103 2.34315 358.603C3.84344 357.103 5.87827 356.26 8 356.26H151.105C153.227 356.26 155.262 357.103 156.762 358.603C158.262 360.103 159.105 362.138 159.105 364.26V450.953C159.105 453.075 158.262 455.109 156.762 456.61C155.262 458.11 153.227 458.953 151.105 458.953H101.036V463.485L114.515 481.288C115.414 482.475 115.963 483.889 116.102 485.371C116.241 486.854 115.963 488.345 115.3 489.678C114.638 491.011 113.616 492.133 112.351 492.917C111.085 493.701 109.626 494.117 108.137 494.117H50.968ZM16 442.953H143.105V372.26H16V442.953ZM74.069 458.953V466.172C74.069 467.915 73.499 469.611 72.447 471.001L67.059 478.117H92.046L86.658 471.001C85.6058 469.611 85.0363 467.915 85.036 466.172V458.953H74.069ZM511.035 477.253C512.619 481.09 512.244 485.209 510.006 488.555C507.711 491.986 503.783 494.118 499.755 494.118H351.777C347.749 494.118 343.821 491.987 341.526 488.555C339.288 485.209 338.912 481.09 340.497 477.253L355.668 440.514C355.809 440.173 355.968 439.844 356.136 439.522V368.466C356.136 361.737 361.611 356.261 368.341 356.261H483.191C489.921 356.261 495.396 361.737 495.396 368.466V439.522C495.564 439.844 495.723 440.173 495.864 440.514V440.515L511.035 477.253ZM372.136 372.26V432.968H479.396V372.26H372.136ZM494.082 478.117L482.044 448.968H369.487L357.449 478.117H494.082ZM283.779 338.852C292.322 338.852 299.273 345.803 299.273 354.346V478.623C299.273 487.166 292.322 494.117 283.779 494.117H220.704C212.161 494.117 205.21 487.166 205.21 478.623V354.346C205.21 345.803 212.161 338.852 220.704 338.852H283.779ZM283.273 354.852H221.21V478.118H283.273V354.852ZM238.246 460.225C238.246 452.507 244.525 446.229 252.242 446.229C259.959 446.229 266.238 452.507 266.238 460.225C266.238 467.943 259.96 474.221 252.242 474.221C244.524 474.221 238.246 467.942 238.246 460.225ZM250.237 460.225C250.237 461.349 251.117 462.229 252.241 462.229C253.365 462.229 254.245 461.349 254.245 460.225C254.245 459.101 253.365 458.221 252.241 458.221C251.118 458.221 250.237 459.101 250.237 460.225ZM359.565 79.7418L342.677 101.584C343.973 104.333 345.136 107.143 346.164 110.004L373.551 113.509C375.481 113.756 377.255 114.698 378.541 116.159C379.826 117.62 380.535 119.499 380.535 121.445V163.396C380.535 165.342 379.825 167.221 378.54 168.682C377.254 170.142 375.48 171.085 373.55 171.332L346.164 174.836C345.136 177.697 343.972 180.507 342.676 183.257L359.564 205.099C360.754 206.638 361.342 208.559 361.219 210.501C361.095 212.443 360.268 214.274 358.892 215.65L329.228 245.314C327.852 246.69 326.022 247.517 324.08 247.641C322.138 247.765 320.218 247.177 318.678 245.987L296.834 229.098C294.085 230.394 291.275 231.558 288.415 232.586L284.91 259.973C284.663 261.903 283.721 263.677 282.26 264.962C280.8 266.248 278.921 266.957 276.975 266.957H235.023C233.077 266.957 231.198 266.248 229.738 264.962C228.277 263.677 227.335 261.903 227.088 259.973L223.583 232.586C220.722 231.558 217.913 230.395 215.163 229.099L193.32 245.987C191.781 247.177 189.86 247.766 187.918 247.642C185.976 247.518 184.146 246.69 182.77 245.314L153.106 215.65C151.73 214.274 150.902 212.443 150.779 210.501C150.655 208.559 151.244 206.638 152.434 205.099L169.322 183.256C168.026 180.506 166.863 177.696 165.835 174.836L138.448 171.332C136.518 171.085 134.744 170.143 133.458 168.682C132.172 167.221 131.463 165.342 131.463 163.396V121.445C131.463 119.499 132.172 117.62 133.458 116.159C134.743 114.699 136.517 113.756 138.447 113.509L165.834 110.004C166.862 107.143 168.025 104.333 169.321 101.584L152.433 79.7418C151.243 78.2021 150.655 76.2816 150.778 74.3395C150.902 72.3975 151.729 70.5671 153.105 69.1908L182.769 39.5268C184.145 38.1504 185.975 37.3227 187.917 37.1988C189.859 37.0749 191.78 37.6633 193.319 38.8538L215.162 55.7428C217.911 54.4469 220.721 53.2829 223.581 52.2548L227.086 24.8668C227.333 22.9368 228.275 21.1631 229.736 19.8776C231.196 18.592 233.075 17.8829 235.021 17.8828H276.973C278.919 17.8829 280.798 18.592 282.258 19.8776C283.719 21.1631 284.661 22.9368 284.908 24.8668L288.413 52.2548C291.273 53.2827 294.083 54.4467 296.832 55.7428L318.676 38.8538C320.215 37.6635 322.136 37.0752 324.078 37.1991C326.02 37.323 327.85 38.1506 329.226 39.5268L358.89 69.1908C360.267 70.5661 361.096 72.3965 361.22 74.3389C361.344 76.2812 360.756 78.2022 359.565 79.7418ZM339.129 125.234C337.593 125.037 336.146 124.399 334.966 123.396C333.785 122.393 332.921 121.069 332.478 119.585C330.918 114.353 328.823 109.295 326.226 104.493C325.488 103.13 325.162 101.582 325.287 100.037C325.413 98.4922 325.984 97.0171 326.932 95.7908L342.6 75.5258L322.894 55.8188L302.628 71.4878C301.402 72.4358 299.927 73.0073 298.382 73.1326C296.838 73.2579 295.29 72.9318 293.927 72.1938C289.125 69.5971 284.068 67.5024 278.836 65.9428C277.351 65.5005 276.027 64.6365 275.024 63.4558C274.021 62.2751 273.382 60.8285 273.186 59.2918L269.935 33.8828H242.066L238.815 59.2918C238.619 60.8285 237.98 62.2751 236.977 63.4558C235.974 64.6365 234.65 65.5005 233.165 65.9428C227.933 67.5023 222.876 69.597 218.074 72.1938C216.711 72.932 215.163 73.2583 213.619 73.133C212.074 73.0076 210.599 72.4361 209.373 71.4878L189.107 55.8188L169.4 75.5258L185.068 95.7908C186.016 97.017 186.587 98.4922 186.713 100.037C186.838 101.582 186.512 103.13 185.774 104.493C183.177 109.295 181.082 114.353 179.522 119.585C179.079 121.069 178.215 122.393 177.034 123.396C175.854 124.399 174.407 125.037 172.871 125.234L147.463 128.485V156.353L172.87 159.604C174.407 159.8 175.853 160.439 177.034 161.441C178.214 162.444 179.078 163.768 179.521 165.253C181.081 170.485 183.176 175.543 185.773 180.346C186.511 181.709 186.837 183.257 186.711 184.802C186.586 186.347 186.014 187.822 185.066 189.048L169.4 209.313L189.106 229.02L209.372 213.351C210.598 212.403 212.073 211.831 213.618 211.706C215.163 211.581 216.711 211.907 218.074 212.645C222.876 215.242 227.933 217.337 233.165 218.898C234.649 219.34 235.973 220.204 236.976 221.385C237.979 222.565 238.617 224.011 238.814 225.548L242.065 250.955H269.934L273.185 225.548C273.381 224.011 274.02 222.565 275.023 221.385C276.025 220.204 277.35 219.34 278.834 218.898C284.066 217.337 289.123 215.242 293.926 212.645C295.289 211.907 296.837 211.581 298.381 211.706C299.926 211.832 301.401 212.403 302.627 213.351L322.893 229.02L342.599 209.313L326.931 189.048C325.983 187.822 325.412 186.346 325.286 184.802C325.161 183.257 325.487 181.709 326.225 180.346C328.822 175.543 330.917 170.485 332.477 165.253C332.92 163.768 333.784 162.444 334.964 161.442C336.145 160.439 337.591 159.8 339.128 159.604L364.535 156.353V128.485L339.129 125.234ZM314.625 142.42C314.625 174.745 288.326 201.044 256 201.044C223.674 201.044 197.375 174.745 197.375 142.42C197.375 110.094 223.674 83.7948 256 83.7948C288.326 83.7948 314.625 110.094 314.625 142.42ZM298.625 142.42C298.625 118.916 279.504 99.7948 256 99.7948C232.496 99.7948 213.375 118.916 213.375 142.42C213.375 165.923 232.496 185.044 256 185.044C279.504 185.044 298.625 165.923 298.625 142.42Z" fill="#D68029"/>
</g>
<defs>
<clipPath id="clip0_3353_1533">
<rect width="512" height="512" fill="white"/>
</clipPath>
</defs>
</svg>
