<svg width="512" height="512" viewBox="0 0 512 512" fill="none" xmlns="http://www.w3.org/2000/svg">
<path d="M502.175 343.203C500.711 337.739 497.219 333.179 492.343 330.364L467.847 316.219C457.751 310.394 444.8 313.865 438.972 323.957L432.661 334.887L358.057 291.815C349.457 286.849 337.794 285.645 328.275 288.727L221.309 317.388C204.111 321.996 193.868 339.738 198.475 356.939C198.876 358.435 199.382 359.901 199.989 361.326L90.6363 298.19C73.5293 288.314 51.5763 294.196 41.6993 311.303C31.8233 328.411 37.7053 350.365 54.8113 360.241L210.521 450.14C217.364 454.09 224.942 456.109 232.605 456.109C236.467 456.106 240.312 455.597 244.041 454.595L350.721 426.01C358.019 424.392 360.082 424.329 364.996 427.167L375.786 433.396L369.475 444.326C366.659 449.202 365.914 454.897 367.379 460.361C368.843 465.826 372.335 470.385 377.211 473.201L401.707 487.343C404.908 489.197 408.541 490.173 412.24 490.171C419.551 490.171 426.671 486.381 430.583 479.608L500.077 359.238C502.893 354.362 503.638 348.667 502.173 343.202L502.175 343.203ZM371.997 415.044C362.569 409.602 356.191 410.454 347.537 412.378C347.439 412.399 347.342 412.424 347.245 412.449L240.419 441.073C232.669 443.149 224.535 442.066 217.523 438.016L61.8123 348.117C51.3903 342.101 47.8073 328.727 53.8253 318.305C59.8413 307.881 73.2173 304.298 83.6373 310.317L197.855 376.261C210.123 383.343 215.434 385.153 224.758 382.685L237.59 379.289H237.594L237.604 379.286L318.153 357.958C319.924 357.461 321.428 356.287 322.341 354.691C323.253 353.094 323.501 351.202 323.03 349.425C322.559 347.647 321.408 346.126 319.825 345.19C318.242 344.254 316.354 343.979 314.569 344.424L233.998 365.757C224.218 368.34 214.56 362.877 211.998 353.317C209.388 343.574 215.189 333.523 224.932 330.914L332.082 302.203C332.214 302.168 332.344 302.129 332.472 302.086C338.223 300.181 345.866 300.943 351.057 303.941L425.661 347.014L382.787 421.274L371.997 415.045V415.044ZM487.955 352.239L418.461 472.608C416.492 476.017 412.117 477.188 408.709 475.22L384.213 461.077C383.402 460.608 382.692 459.984 382.124 459.239C381.556 458.495 381.141 457.645 380.903 456.739C380.656 455.835 380.59 454.892 380.71 453.963C380.829 453.034 381.132 452.138 381.6 451.327L451.096 330.957C452.043 329.317 453.602 328.121 455.431 327.631C457.259 327.141 459.207 327.397 460.847 328.343L485.342 342.487C486.154 342.955 486.864 343.58 487.432 344.325C488 345.07 488.415 345.92 488.652 346.827C488.9 347.73 488.966 348.674 488.846 349.602C488.726 350.531 488.424 351.427 487.955 352.239ZM123.102 271.341C142.256 290.496 167.723 301.045 194.812 301.045C221.901 301.045 247.368 290.496 266.521 271.341C285.674 252.188 296.225 226.719 296.225 199.632C296.225 172.545 285.676 147.076 266.521 127.922C226.982 88.3807 162.643 88.3807 123.102 127.922C83.5613 167.463 83.5613 231.801 123.102 271.341ZM141.845 269.163C149.447 246.604 170.62 231.197 194.791 231.189H194.833C219.004 231.198 240.176 246.605 247.778 269.163C232.629 280.752 214.208 287.046 194.812 287.046C175.416 287.046 156.995 280.753 141.845 269.163ZM166.662 189.039C166.662 173.518 179.29 160.89 194.811 160.89C210.332 160.89 222.961 173.518 222.961 189.039C222.961 204.56 210.344 217.177 194.832 217.189H194.79C179.278 217.178 166.662 204.554 166.662 189.039ZM133 137.822C150.044 120.778 172.424 112.26 194.812 112.26C217.2 112.26 239.583 120.783 256.623 137.822C273.133 154.333 282.226 176.285 282.226 199.634C282.226 221.887 273.95 242.86 258.881 259.074C251.475 242.08 237.681 228.923 220.811 222.181C230.636 214.457 236.964 202.478 236.964 189.04C236.964 165.799 218.056 146.891 194.814 146.891C171.572 146.891 152.665 165.799 152.665 189.04C152.665 202.478 158.993 214.457 168.817 222.181C151.947 228.922 138.153 242.078 130.747 259.071C98.9583 224.835 99.6973 171.129 133.003 137.823L133 137.822ZM187.812 66.6287V20.7227C187.812 18.8661 188.55 17.0857 189.863 15.7729C191.175 14.4602 192.956 13.7227 194.812 13.7227C196.669 13.7227 198.449 14.4602 199.762 15.7729C201.075 17.0857 201.812 18.8661 201.812 20.7227V66.6267C201.812 68.4832 201.075 70.2636 199.762 71.5764C198.449 72.8892 196.669 73.6267 194.812 73.6267C192.956 73.6267 191.175 72.8892 189.863 71.5764C188.55 70.2636 187.812 68.4832 187.812 66.6267V66.6287ZM283.91 110.536C283.26 109.886 282.745 109.114 282.393 108.265C282.041 107.416 281.86 106.505 281.86 105.586C281.86 104.667 282.041 103.757 282.393 102.907C282.745 102.058 283.26 101.287 283.91 100.637L316.369 68.1767C317.687 66.8856 319.46 66.1665 321.304 66.1757C323.149 66.185 324.915 66.9217 326.219 68.2259C327.523 69.5301 328.26 71.2963 328.269 73.1407C328.278 74.985 327.559 76.7585 326.268 78.0757L293.809 110.536C292.442 111.903 290.65 112.587 288.859 112.587C287.068 112.587 285.276 111.902 283.91 110.536ZM327.814 192.634H373.718C375.575 192.634 377.355 193.371 378.668 194.684C379.981 195.997 380.718 197.777 380.718 199.634C380.718 201.49 379.981 203.271 378.668 204.583C377.355 205.896 375.575 206.634 373.718 206.634H327.814C325.958 206.634 324.177 205.896 322.865 204.583C321.552 203.271 320.814 201.49 320.814 199.634C320.814 197.777 321.552 195.997 322.865 194.684C324.177 193.371 325.958 192.634 327.814 192.634ZM63.3523 78.0737C62.7023 77.4238 62.1867 76.6523 61.8349 75.8031C61.4831 74.9539 61.302 74.0438 61.302 73.1247C61.302 72.2055 61.4831 71.2954 61.8349 70.4462C62.1867 69.597 62.7023 68.8255 63.3523 68.1757C64.0022 67.5256 64.7737 67.01 65.6229 66.6582C66.472 66.3064 67.3822 66.1253 68.3013 66.1253C69.2205 66.1253 70.1306 66.3064 70.9798 66.6582C71.829 67.01 72.6005 67.5256 73.2503 68.1757L105.71 100.636C106.36 101.286 106.876 102.057 107.228 102.906C107.58 103.755 107.761 104.666 107.761 105.585C107.761 106.504 107.58 107.414 107.228 108.263C106.876 109.112 106.36 109.884 105.71 110.534C104.344 111.901 102.552 112.585 100.761 112.585C98.9703 112.585 97.1783 111.901 95.8123 110.534L63.3523 78.0737ZM61.8063 206.633H15.9023C14.0458 206.633 12.2654 205.895 10.9526 204.582C9.63984 203.27 8.90234 201.489 8.90234 199.633C8.90234 197.776 9.63984 195.996 10.9526 194.683C12.2654 193.37 14.0458 192.633 15.9023 192.633H61.8073C63.6639 192.633 65.4443 193.37 66.7571 194.683C68.0699 195.996 68.8073 197.776 68.8073 199.633C68.8073 201.489 68.0699 203.27 66.7571 204.582C65.4443 205.895 63.6629 206.633 61.8063 206.633Z" fill="#D68029"/>
</svg>
