<svg width="512" height="512" viewBox="0 0 512 512" fill="none" xmlns="http://www.w3.org/2000/svg">
<path d="M426.37 101.815C425.845 100.904 425.504 99.8991 425.367 98.8564C425.229 97.8138 425.299 96.7544 425.571 95.7387C425.844 94.723 426.314 93.7709 426.954 92.9368C427.594 92.1026 428.393 91.4028 429.303 90.8772L465.899 69.7582C467.739 68.6969 469.925 68.4098 471.976 68.96C474.027 69.5102 475.776 70.8527 476.837 72.6922C477.363 73.603 477.704 74.6084 477.841 75.651C477.979 76.6936 477.909 77.753 477.637 78.7687C477.364 79.7844 476.894 80.7365 476.254 81.5707C475.614 82.4048 474.815 83.1047 473.904 83.6302L437.308 104.748C436.398 105.275 435.392 105.616 434.35 105.754C433.307 105.892 432.247 105.822 431.231 105.55C430.215 105.277 429.263 104.807 428.429 104.166C427.595 103.526 426.895 102.727 426.37 101.815ZM59.2895 200.2C59.2895 199.149 59.0823 198.107 58.6799 197.136C58.2775 196.164 57.6876 195.281 56.944 194.538C56.2004 193.794 55.3176 193.204 54.346 192.802C53.3744 192.399 52.3331 192.192 51.2815 192.192H8.98847C6.86462 192.192 4.82775 193.036 3.32596 194.538C1.82417 196.039 0.980469 198.076 0.980469 200.2C0.980469 202.324 1.82417 204.361 3.32596 205.863C4.82775 207.365 6.86462 208.208 8.98847 208.208H51.2815C53.4053 208.208 55.4422 207.365 56.944 205.863C58.4458 204.361 59.2895 202.324 59.2895 200.2ZM38.0945 83.6302L74.6905 104.748C75.6011 105.275 76.6066 105.616 77.6494 105.754C78.6922 105.891 79.7518 105.821 80.7677 105.549C81.7836 105.276 82.7358 104.806 83.5699 104.165C84.4039 103.525 85.1035 102.726 85.6285 101.814C86.1542 100.903 86.4953 99.8981 86.6324 98.8554C86.7695 97.8128 86.6999 96.7534 86.4275 95.7377C86.1552 94.722 85.6854 93.7699 85.045 92.9358C84.4047 92.1016 83.6063 91.4018 82.6955 90.8762L46.0995 69.7582C45.1886 69.2326 44.1832 68.8915 43.1405 68.7545C42.0979 68.6174 41.0385 68.6871 40.0227 68.9596C39.007 69.232 38.0549 69.7019 37.2208 70.3424C36.3867 70.9828 35.6869 71.7813 35.1615 72.6922C34.6358 73.603 34.2946 74.6084 34.1575 75.651C34.0204 76.6936 34.09 77.753 34.3624 78.7687C34.6348 79.7844 35.1045 80.7365 35.7449 81.5707C36.3852 82.4048 37.1836 83.1047 38.0945 83.6302ZM74.6895 295.623L38.0935 316.741C37.1826 317.267 36.3842 317.967 35.7439 318.801C35.1035 319.635 34.6338 320.587 34.3614 321.603C34.0891 322.618 34.0194 323.678 34.1565 324.72C34.2936 325.763 34.6348 326.768 35.1605 327.679C35.6856 328.59 36.3851 329.389 37.2191 330.03C38.0531 330.67 39.0051 331.14 40.0209 331.413C41.0366 331.685 42.0961 331.755 43.1388 331.618C44.1814 331.481 45.1868 331.139 46.0975 330.613L82.6945 309.495C84.534 308.434 85.8765 306.685 86.4267 304.634C86.9768 302.582 86.6895 300.396 85.628 298.557C84.5664 296.717 82.8176 295.375 80.7663 294.825C78.7149 294.274 76.529 294.562 74.6895 295.623ZM503.01 192.192H460.717C458.594 192.192 456.557 193.036 455.055 194.538C453.553 196.039 452.709 198.076 452.709 200.2C452.709 202.324 453.553 204.361 455.055 205.863C456.557 207.365 458.594 208.208 460.717 208.208H503.01C507.433 208.208 511.018 204.623 511.018 200.2C511.018 195.777 507.433 192.192 503.01 192.192ZM487.887 275.743V307.888C487.887 310.012 487.044 312.049 485.542 313.551C484.04 315.053 482.003 315.896 479.879 315.896H470.099C468.156 322.904 465.36 329.647 461.776 335.974L468.705 342.903C470.207 344.405 471.051 346.442 471.051 348.566C471.051 350.69 470.207 352.727 468.705 354.229L445.971 376.963C444.47 378.465 442.433 379.308 440.309 379.308H440.304C439.252 379.308 438.21 379.099 437.238 378.696C436.266 378.292 435.383 377.7 434.639 376.955L427.717 370.016C421.4 373.598 414.667 376.389 407.668 378.327V388.138C407.668 390.262 406.825 392.299 405.323 393.801C403.821 395.303 401.784 396.146 399.66 396.146H367.514C365.391 396.146 363.354 395.303 361.852 393.801C360.35 392.299 359.506 390.262 359.506 388.138V378.331C352.502 376.397 345.764 373.604 339.444 370.017L332.499 376.963C332.077 377.384 331.609 377.756 331.103 378.072V409.313C331.103 423.302 321.611 435.108 308.738 438.634V440.551C308.738 463.16 290.332 481.554 267.707 481.554H244.293C221.668 481.554 203.262 463.16 203.262 440.551V438.637C190.372 435.113 180.868 423.305 180.868 409.314V369.629C180.868 360.459 176.536 352.824 168.671 348.13C143.692 333.25 122.77 312.096 108.172 286.959C93.1245 261.048 85.1705 231.42 85.1705 201.279C85.1705 107.083 161.804 30.4492 256 30.4492C350.196 30.4492 426.83 107.083 426.83 201.279C426.83 205.142 426.685 209.045 426.42 212.937C426.853 213.173 427.288 213.403 427.717 213.646L434.64 206.707C435.384 205.962 436.267 205.371 437.238 204.968C438.21 204.564 439.252 204.356 440.304 204.355H440.309C442.433 204.355 444.469 205.198 445.971 206.7L468.705 229.434C470.207 230.936 471.051 232.973 471.051 235.097C471.051 237.221 470.207 239.258 468.705 240.76L461.776 247.688C465.357 254.007 468.151 260.741 470.095 267.738H479.879C480.931 267.738 481.972 267.944 482.944 268.346C483.916 268.748 484.799 269.338 485.542 270.081C486.286 270.825 486.876 271.707 487.278 272.679C487.681 273.65 487.888 274.692 487.887 275.743ZM196.883 369.627V384.977H315.087V370.875L298.441 354.229C297.698 353.485 297.108 352.601 296.705 351.629C296.303 350.656 296.096 349.614 296.097 348.562C296.097 347.509 296.306 346.467 296.709 345.495C297.113 344.524 297.704 343.641 298.448 342.897L305.394 335.968C301.812 329.643 299.018 322.902 297.075 315.897H287.266C285.143 315.897 283.106 315.054 281.604 313.552C280.102 312.05 279.258 310.013 279.258 307.889V288.97L258.905 296.898C257.038 297.625 254.966 297.626 253.097 296.9L141.582 253.53C140.079 252.945 138.787 251.92 137.876 250.588C136.965 249.256 136.478 247.681 136.477 246.067V154.31C136.478 152.697 136.965 151.121 137.876 149.789C138.787 148.458 140.079 147.432 141.582 146.847L253.097 103.477C254.964 102.751 257.036 102.751 258.902 103.477L370.417 146.847C371.921 147.432 373.213 148.458 374.124 149.789C375.035 151.121 375.522 152.697 375.522 154.31V187.518H399.66C401.784 187.518 403.821 188.362 405.323 189.864C406.825 191.365 407.668 193.402 407.668 195.526V205.336C408.694 205.62 409.711 205.928 410.724 206.248C410.778 204.587 410.815 202.929 410.815 201.28C410.815 115.915 341.366 46.4662 256.001 46.4662C170.636 46.4662 101.187 115.916 101.187 201.28C101.187 255.564 130.189 306.563 176.875 334.375C189.591 341.961 196.883 354.811 196.883 369.627ZM296.095 235.1C296.095 234.048 296.302 233.006 296.704 232.033C297.107 231.061 297.697 230.177 298.441 229.433L321.175 206.699C321.919 205.956 322.802 205.366 323.773 204.963C324.745 204.561 325.786 204.354 326.837 204.354C327.889 204.354 328.93 204.561 329.902 204.963C330.873 205.366 331.756 205.956 332.499 206.699L339.444 213.644C345.763 210.056 352.502 207.264 359.506 205.33V166.012L264.007 203.129V277.722L280.644 271.242C281.378 270.162 282.365 269.277 283.52 268.666C284.674 268.055 285.96 267.735 287.266 267.736H297.078C299.023 260.742 301.815 254.011 305.393 247.694L298.447 240.765C297.702 240.022 297.111 239.139 296.708 238.167C296.304 237.195 296.096 236.153 296.095 235.1ZM345.415 154.305L330.62 148.551C300.809 160.124 271.002 171.709 241.199 183.306L255.999 189.058L345.415 154.305ZM189.399 195.474L197.038 193.094C198.328 192.693 199.698 192.624 201.021 192.894C202.345 193.164 203.578 193.765 204.607 194.639L211.084 200.146V188.784L189.399 180.356V195.474ZM308.521 139.956L292.928 133.892L203.495 168.651L219.094 174.714C248.895 163.12 278.704 151.534 308.521 139.956ZM270.83 125.297L255.999 119.529L166.583 154.304L181.39 160.059L270.83 125.297ZM152.492 240.587L247.991 277.728V203.128L227.099 195.008V214.259C227.097 216.085 226.57 217.872 225.579 219.407C224.589 220.941 223.178 222.159 221.515 222.913C220.289 223.468 218.958 223.755 217.612 223.754C215.348 223.757 213.157 222.946 211.439 221.47L197.591 209.695L185.699 213.401L185.578 213.438C184.158 213.853 182.661 213.932 181.205 213.671C179.749 213.409 178.374 212.814 177.186 211.931C176.008 211.046 175.052 209.9 174.392 208.583C173.732 207.265 173.386 205.813 173.382 204.339V174.131L152.49 166.011V240.587H152.492ZM292.722 440.55V439.714H219.277V440.55C219.277 454.328 230.499 465.537 244.293 465.537H267.707C281.5 465.537 292.722 454.328 292.722 440.55ZM315.087 409.312V400.992H196.883V409.312C196.883 417.244 203.336 423.698 211.269 423.698H300.73C308.646 423.698 315.087 417.244 315.087 409.312ZM471.871 283.751H463.778C461.927 283.751 460.133 283.11 458.701 281.936C457.27 280.762 456.289 279.129 455.925 277.313C454.039 267.884 450.357 259.006 444.98 250.926C443.955 249.386 443.495 247.538 443.678 245.697C443.861 243.856 444.676 242.135 445.984 240.827L451.716 235.095L440.314 223.693L434.581 229.441C433.272 230.755 431.546 231.573 429.7 231.755C427.854 231.937 426.002 231.473 424.46 230.441C416.477 225.094 407.515 221.377 398.089 219.505C396.274 219.142 394.641 218.161 393.467 216.729C392.293 215.298 391.652 213.504 391.651 211.652V203.531H375.521V211.652C375.522 213.504 374.88 215.299 373.705 216.731C372.531 218.163 370.897 219.143 369.08 219.505C359.571 221.402 350.703 225.079 342.723 230.434C341.183 231.468 339.331 231.935 337.485 231.755C335.638 231.575 333.911 230.759 332.599 229.447L326.837 223.686L315.435 235.088L321.182 240.821C322.493 242.129 323.311 243.851 323.495 245.693C323.679 247.536 323.219 249.386 322.193 250.927C316.816 259.007 313.133 267.885 311.248 277.314C310.885 279.13 309.904 280.763 308.473 281.937C307.041 283.111 305.247 283.752 303.395 283.752H295.274V299.881H303.395C305.247 299.881 307.042 300.523 308.474 301.698C309.906 302.872 310.887 304.506 311.249 306.322C313.133 315.765 316.814 324.652 322.193 332.733C323.22 334.275 323.68 336.124 323.496 337.967C323.311 339.81 322.494 341.532 321.182 342.839L315.435 348.572L326.837 359.974L332.599 354.212C333.911 352.9 335.638 352.085 337.485 351.905C339.331 351.725 341.183 352.191 342.723 353.225C350.703 358.58 359.572 362.257 369.08 364.154C370.897 364.516 372.531 365.497 373.705 366.929C374.88 368.361 375.522 370.155 375.521 372.007V380.129H391.651V372.007C391.652 370.156 392.293 368.362 393.467 366.93C394.641 365.498 396.274 364.517 398.089 364.154C407.514 362.282 416.477 358.565 424.46 353.218C426.002 352.187 427.854 351.723 429.7 351.905C431.546 352.088 433.272 352.906 434.581 354.219L440.314 359.966L451.716 348.564L445.984 342.831C444.676 341.523 443.861 339.802 443.678 337.961C443.495 336.119 443.955 334.272 444.98 332.731C450.359 324.649 454.041 315.763 455.924 306.32C456.287 304.504 457.268 302.87 458.7 301.695C460.132 300.521 461.926 299.879 463.778 299.879H471.871V283.751ZM441.683 291.816C441.683 323.85 415.621 349.912 383.586 349.912C351.551 349.912 325.49 323.85 325.49 291.816C325.49 259.797 351.552 233.748 383.586 233.748C415.62 233.748 441.683 259.797 441.683 291.816ZM425.667 291.816C425.667 268.628 406.789 249.764 383.586 249.764C360.383 249.764 341.506 268.629 341.506 291.816C341.506 315.019 360.383 333.896 383.586 333.896C406.789 333.896 425.667 315.019 425.667 291.816Z" fill="#D68029"/>
</svg>
