<svg width="512" height="512" viewBox="0 0 512 512" fill="none" xmlns="http://www.w3.org/2000/svg">
<g clip-path="url(#clip0_3353_1750)">
<path d="M448 471.902C412.652 471.902 384 443.25 384 407.902C384 372.559 412.652 343.902 448 343.902C483.348 343.902 512 372.559 512 407.902C511.96 443.234 483.328 471.863 448 471.902ZM448 359.902C421.492 359.902 400 381.395 400 407.902C400 434.414 421.492 455.902 448 455.902C474.508 455.902 496 434.414 496 407.902C495.969 381.406 474.496 359.934 448 359.902Z" fill="#D68029"/>
<path d="M512 407.902H496V103.902C496 77.3953 474.508 55.9023 448 55.9023C421.492 55.9023 400 77.3953 400 103.902V407.902H384V103.902C384 68.5593 412.652 39.9023 448 39.9023C483.348 39.9023 512 68.5593 512 103.902V407.902Z" fill="#D68029"/>
<path d="M448 439.902C430.328 439.902 416 425.578 416 407.902C416 390.23 430.328 375.902 448 375.902C465.672 375.902 480 390.23 480 407.902C480 425.578 465.672 439.902 448 439.902ZM448 391.902C439.164 391.902 432 399.066 432 407.902C432 416.742 439.164 423.902 448 423.902C456.836 423.902 464 416.742 464 407.902C464 399.066 456.836 391.902 448 391.902ZM40 471.902H8C3.582 471.902 0 468.324 0 463.902V111.902C0 109.781 0.842855 107.746 2.34315 106.245C3.84344 104.745 5.87827 103.902 8 103.902H216V119.902H16V455.902H40V471.902ZM256 423.902H400V439.902H256V423.902Z" fill="#D68029"/>
<path d="M48 191.902H32V143.902C32 141.781 32.8429 139.746 34.3431 138.245C35.8434 136.745 37.8783 135.902 40 135.902H184V151.902H48V191.902ZM328 511.902H40C35.582 511.902 32 508.324 32 503.902V215.902C32.0011 214.321 32.4711 212.775 33.3505 211.46C34.2298 210.146 35.4792 209.121 36.9406 208.516C38.402 207.911 40.01 207.753 41.5612 208.062C43.1125 208.371 44.5374 209.132 45.656 210.25L333.656 498.25C334.774 499.369 335.534 500.794 335.842 502.345C336.151 503.896 335.992 505.504 335.387 506.965C334.781 508.426 333.757 509.675 332.442 510.554C331.127 511.432 329.581 511.902 328 511.902ZM48 495.902H308.688L48 235.215V495.902Z" fill="#D68029"/>
<path d="M288 455.903H448V471.903H288V455.903ZM232 471.903H80C75.582 471.903 72 468.325 72 463.903V311.903C72.0011 310.321 72.4711 308.775 73.3504 307.46C74.2298 306.146 75.4792 305.121 76.9406 304.516C78.402 303.911 80.01 303.753 81.5612 304.062C83.1125 304.371 84.5374 305.132 85.656 306.251L237.656 458.251C238.774 459.369 239.534 460.794 239.842 462.345C240.151 463.897 239.992 465.504 239.387 466.965C238.781 468.426 237.757 469.675 236.442 470.554C235.127 471.432 233.581 471.902 232 471.903ZM88 455.903H212.688L88 331.215V455.903Z" fill="#D68029"/>
<path d="M80 423.902H200V439.902H80V423.902ZM173.895 232.504C172.209 232.504 170.567 231.97 169.202 230.981C167.838 229.991 166.821 228.595 166.297 226.992L161.129 211.222L152.329 202.222L136.91 196.984C135.629 196.549 134.48 195.796 133.569 194.796C132.658 193.796 132.015 192.582 131.7 191.266C131.387 189.95 131.412 188.575 131.774 187.271C132.136 185.967 132.823 184.776 133.77 183.809L311.848 2.30545C313.382 0.826439 315.43 0 317.56 0C319.691 0 321.739 0.826439 323.273 2.30545L357.672 37.3985C359.139 38.8941 359.961 40.9055 359.961 43.0005C359.961 45.0954 359.139 47.1068 357.672 48.6025L179.609 230.105C178.864 230.865 177.975 231.469 176.994 231.881C176.013 232.293 174.959 232.505 173.895 232.504ZM154.078 185.93L159.246 187.687C160.435 188.09 161.512 188.768 162.391 189.664L173.871 201.359C174.731 202.239 175.378 203.305 175.761 204.473L177.406 209.503L340.801 43.0005L317.601 19.3285L154.078 185.93Z" fill="#D68029"/>
<path d="M116.497 255.902C115.194 255.903 113.911 255.585 112.759 254.976C111.607 254.368 110.621 253.487 109.887 252.41C109.153 251.334 108.693 250.096 108.547 248.802C108.4 247.507 108.572 246.197 109.047 244.984L132.009 186.488L146.896 192.328L130.755 233.449L170.865 217.105L176.923 231.902L119.521 255.312C118.56 255.702 117.533 255.903 116.497 255.902ZM277.419 48.6054L288.841 37.3984L323.274 72.4924L311.853 83.7004L277.419 48.6054ZM260.201 66.1524L271.622 54.9454L306.056 90.0434L294.638 101.246L260.201 66.1524ZM256.001 335.902H240.001V311.902C239.998 309.855 240.78 307.884 242.186 306.396C243.592 304.908 245.515 304.015 247.56 303.902L276.88 302.305C279.329 293.966 282.68 285.919 286.872 278.305L267.239 256.398C265.873 254.874 265.143 252.884 265.2 250.838C265.256 248.791 266.095 246.845 267.544 245.398L301.458 211.48C302.904 210.034 304.849 209.197 306.893 209.14C308.938 209.084 310.926 209.812 312.45 211.176L334.4 230.786C342.011 226.587 350.059 223.234 358.4 220.786L360.001 191.464C360.113 189.42 361.006 187.496 362.494 186.089C363.982 184.682 365.953 183.899 368.001 183.901H392.001V199.901H375.575L374.064 227.464C373.97 229.186 373.323 230.832 372.217 232.155C371.112 233.479 369.608 234.409 367.931 234.808C357.188 237.372 346.924 241.636 337.528 247.44C336.059 248.342 334.338 248.745 332.621 248.589C330.905 248.434 329.284 247.728 328.001 246.577L307.399 228.112L284.2 251.312L302.68 271.902C303.828 273.188 304.531 274.81 304.684 276.527C304.837 278.244 304.431 279.964 303.528 281.432C297.726 290.829 293.462 301.091 290.896 311.831C290.495 313.508 289.564 315.01 288.241 316.114C286.917 317.219 285.273 317.866 283.552 317.96L256.001 319.473V335.902Z" fill="#D68029"/>
<path d="M328 335.902H312C312.055 291.742 347.84 255.957 392 255.902V271.902C356.672 271.945 328.04 300.574 328 335.902Z" fill="#D68029"/>
<path d="M160 327.902H392V343.902H160V327.902ZM352 359.902H368V375.902H352V359.902ZM320 359.902H336V375.902H320V359.902ZM288 359.902H304V375.902H288V359.902ZM264 391.902H368V407.902H264V391.902Z" fill="#D68029"/>
<path d="M208 335.902H192V311.902C192 309.781 191.157 307.746 189.657 306.245C188.157 304.745 186.122 303.902 184 303.902H176C162.746 303.902 152 293.16 152 279.902C152 266.648 162.746 255.902 176 255.902H216C220.418 255.902 224 252.324 224 247.902V231.902H240V247.902C240 261.16 229.254 271.902 216 271.902H176C173.878 271.902 171.843 272.745 170.343 274.245C168.843 275.746 168 277.781 168 279.902C168 282.024 168.843 284.059 170.343 285.559C171.843 287.059 173.878 287.902 176 287.902H184C197.254 287.902 208 298.648 208 311.902V335.902ZM224 199.902H240V215.902H224V199.902ZM288 103.902H392V119.902H288V103.902ZM256 135.902H392V151.902H256V135.902Z" fill="#D68029"/>
</g>
<defs>
<clipPath id="clip0_3353_1750">
<rect width="512" height="512" fill="white"/>
</clipPath>
</defs>
</svg>
