<svg width="512" height="512" viewBox="0 0 512 512" fill="none" xmlns="http://www.w3.org/2000/svg">
<g clip-path="url(#clip0_3353_1473)">
<path d="M49.5488 462.451H66.065V478.967H49.5488V462.451ZM82.5811 462.451H99.0972V478.967H82.5811V462.451ZM115.613 462.451H132.129V478.967H115.613V462.451ZM396.388 462.451H462.452V478.967H396.388V462.451Z" fill="#D68029"/>
<path d="M495.484 429.419V156.903C495.484 134.137 476.96 115.613 454.194 115.613H412.903V313.806H371.613C371.613 296.061 367.476 279.302 360.299 264.258H396.387V99.0968H264.258V198.613C261.516 198.415 258.79 198.194 256 198.194C192.246 198.194 140.387 250.052 140.387 313.806H99.0968V82.5806H412.903V99.0968H429.419V0H82.5806V115.613H57.8064C35.04 115.613 16.5161 134.137 16.5161 156.903V429.419H0V470.71C0 493.476 18.5239 512 41.2903 512H470.71C493.476 512 512 493.476 512 470.71V429.419H495.484ZM454.194 132.129C467.85 132.129 478.968 143.246 478.968 156.903V429.419H462.452V165.161C462.452 156.053 455.044 148.645 445.935 148.645H429.419V132.129H454.194ZM280.774 115.613H379.871V247.742H350.746C334.371 224.33 309.585 207.254 280.774 200.935V115.613ZM256 214.71C310.646 214.71 355.097 259.162 355.097 313.806C355.097 334.162 348.911 353.089 338.35 368.846C337.17 351.754 325.416 336.855 308.77 332.088L280.774 324.098V321.892C291.065 314.138 297.29 301.941 297.29 289.033V274.227C297.29 252.037 280.766 233.219 259.674 231.384C248.097 230.36 236.601 234.275 228.105 242.07C223.89 245.943 220.523 250.649 218.217 255.889C215.911 261.13 214.717 266.791 214.71 272.516V289.032C214.71 301.94 220.935 314.137 231.226 321.891V324.097L203.23 332.089C186.572 336.855 174.822 351.753 173.65 368.847C163.09 353.088 156.903 334.16 156.903 313.806C156.903 259.162 201.355 214.71 256 214.71ZM243.637 310.346C235.867 305.823 231.226 297.851 231.226 289.032V272.516C231.228 269.08 231.944 265.682 233.329 262.538C234.714 259.394 236.737 256.571 239.27 254.25C244.44 249.508 251.209 247.246 258.246 247.843C270.879 248.939 280.774 260.524 280.774 274.226V289.032C280.774 297.851 276.133 305.823 268.363 310.346L264.258 312.734V336.548L304.234 347.979C311.972 350.189 317.992 356.057 320.621 363.355H191.379C194.008 356.048 200.029 350.181 207.766 347.979L247.742 336.548V312.734L243.637 310.346ZM329.654 379.871C311.504 400.089 285.25 412.903 256 412.903C226.75 412.903 200.495 400.089 182.346 379.871H329.654ZM412.903 16.5161V66.0645H99.0968V16.5161H412.903ZM33.0323 156.903C33.0323 143.246 44.1497 132.129 57.8064 132.129H82.5806V148.645H66.0645C56.9559 148.645 49.5484 156.053 49.5484 165.161V429.419H33.0323V156.903ZM495.484 470.71C495.484 484.366 484.366 495.484 470.71 495.484H41.2903C27.6335 495.484 16.5161 484.366 16.5161 470.71V445.935H186.657C198.439 456.465 213.976 462.452 229.815 462.452H282.202C298.041 462.452 313.576 456.465 325.358 445.935H429.419V429.419H318.645L316.226 431.839C307.266 440.799 294.862 445.935 282.194 445.935H229.806C217.138 445.935 204.733 440.798 195.774 431.839L193.354 429.419H66.0645V165.161H82.5806V330.323H141.709C149.77 386.254 197.87 429.419 256 429.419C314.13 429.419 362.242 386.254 370.291 330.323H429.419V165.161H445.935V445.935H495.484V470.71Z" fill="#D68029"/>
<path d="M115.613 33.0322H132.129V49.5484H115.613V33.0322ZM148.646 33.0322H165.162V49.5484H148.646V33.0322ZM181.678 33.0322H198.194V49.5484H181.678V33.0322ZM115.613 99.0967H132.129V115.613H115.613V99.0967ZM148.646 99.0967H247.742V115.613H148.646V99.0967ZM115.613 132.129H132.129V148.645H115.613V132.129ZM148.646 132.129H247.742V148.645H148.646V132.129ZM115.613 165.161H132.129V181.677H115.613V165.161ZM148.646 165.161H247.742V181.677H148.646V165.161Z" fill="#D68029"/>
</g>
<defs>
<clipPath id="clip0_3353_1473">
<rect width="512" height="512" fill="white"/>
</clipPath>
</defs>
</svg>
