<svg width="512" height="512" viewBox="0 0 512 512" fill="none" xmlns="http://www.w3.org/2000/svg">
<path d="M226.065 7.4834H345.974C364.16 49.0379 405.217 75.8874 450.576 75.8874V248.167C450.576 390.205 345.265 466.337 256 503.977C256 503.977 61.4238 435.105 61.4238 248.167V75.8874C106.783 75.8874 147.841 49.0379 166.026 7.4834H211.098" stroke="#D68029" stroke-width="14.9674" stroke-miterlimit="10"/>
<path d="M405.674 165.821V113.594L400.236 112.412C382.988 108.661 366.653 101.533 352.173 91.4387C337.693 81.3444 325.355 68.4835 315.87 53.5977H196.131C186.645 68.4834 174.307 81.3443 159.827 91.4385C145.347 101.533 129.012 108.661 111.764 112.412L106.326 113.594V228.87C106.326 326.25 165.598 413.824 256.003 450.015C346.39 414.278 405.668 326.319 405.674 229.138V180.597" stroke="#D68029" stroke-width="14.9674" stroke-miterlimit="10"/>
<path d="M256 247.975C280.799 247.975 300.902 227.872 300.902 203.073C300.902 178.274 280.799 158.171 256 158.171C231.201 158.171 211.098 178.274 211.098 203.073C211.098 227.872 231.201 247.975 256 247.975Z" stroke="#D68029" stroke-width="14.9674" stroke-miterlimit="10"/>
<path d="M211.098 75.8877V90.8551M241.033 75.8877V90.8551M330.71 203.074C330.71 161.813 297.261 128.364 256 128.364C214.739 128.364 181.291 161.813 181.291 203.074C181.291 239.208 206.945 269.349 241.033 276.281V307.835H211.098V337.769H241.033V367.65H270.968V337.769H300.903V307.835H270.968V276.281C305.055 269.349 330.71 239.208 330.71 203.074Z" stroke="#D68029" stroke-width="14.9674" stroke-miterlimit="10"/>
</svg>
