<svg width="512" height="512" viewBox="0 0 512 512" fill="none" xmlns="http://www.w3.org/2000/svg">
<path d="M406.198 295.232H357.835C355.714 295.232 353.679 296.075 352.179 297.576C350.678 299.076 349.835 301.111 349.835 303.232V495.389C349.835 497.511 350.678 499.546 352.179 501.046C353.679 502.547 355.714 503.389 357.835 503.389H406.198C408.32 503.389 410.355 502.547 411.855 501.046C413.356 499.546 414.198 497.511 414.198 495.389V303.232C414.198 301.111 413.356 299.076 411.855 297.576C410.355 296.075 408.32 295.232 406.198 295.232ZM398.198 487.389H365.835V311.232H398.198V487.389ZM496 249.569H447.637C445.516 249.569 443.481 250.412 441.981 251.913C440.48 253.413 439.637 255.448 439.637 257.569V495.387C439.637 497.509 440.48 499.544 441.981 501.044C443.481 502.545 445.516 503.387 447.637 503.387H496C498.122 503.387 500.157 502.545 501.657 501.044C503.158 499.544 504 497.509 504 495.387V257.569C504 255.448 503.158 253.413 501.657 251.913C500.157 250.412 498.122 249.569 496 249.569ZM488 487.388H455.637V265.569H488V487.388ZM226.592 394.605H178.229C176.107 394.605 174.072 395.448 172.572 396.949C171.071 398.449 170.229 400.484 170.229 402.605V495.387C170.229 497.509 171.071 499.544 172.572 501.044C174.072 502.545 176.107 503.387 178.229 503.387H226.592C228.713 503.387 230.748 502.545 232.248 501.044C233.749 499.544 234.592 497.509 234.592 495.387V402.605C234.592 400.484 233.749 398.449 232.248 396.949C230.748 395.448 228.713 394.605 226.592 394.605ZM218.592 487.388H186.229V410.606H218.592V487.388ZM484.882 186.548L482.503 202.894C482.337 204.031 482.418 205.191 482.74 206.294C483.062 207.396 483.619 208.417 484.371 209.285C485.123 210.154 486.054 210.85 487.099 211.327C488.145 211.803 489.28 212.049 490.429 212.047C492.35 212.044 494.205 211.351 495.657 210.094C497.108 208.836 498.06 207.099 498.336 205.198L503.917 166.867C504.089 165.695 503.997 164.499 503.65 163.367C503.302 162.234 502.707 161.193 501.908 160.318C501.109 159.444 500.126 158.757 499.03 158.309C497.933 157.861 496.75 157.662 495.567 157.726L456.889 159.826C455.84 159.883 454.813 160.146 453.865 160.6C452.918 161.054 452.069 161.691 451.368 162.473C450.666 163.255 450.125 164.167 449.777 165.158C449.428 166.149 449.278 167.199 449.335 168.248C449.574 172.66 453.348 176.021 457.757 175.803L473.87 174.928C433.371 210.602 389.049 242.689 341.77 270.533C341.129 270.018 340.412 269.606 339.645 269.31L328.736 265.111C327.04 259.314 324.72 253.718 321.817 248.421L326.565 237.732C327.222 236.255 327.415 234.613 327.12 233.024C326.824 231.434 326.055 229.972 324.911 228.828L307.909 211.826C306.766 210.684 305.303 209.914 303.714 209.619C302.125 209.324 300.483 209.517 299.005 210.172L288.31 214.922C283.015 212.021 277.421 209.701 271.626 208.004L269.895 203.504L291.732 181.934H297.955C304.711 181.934 310.207 176.438 310.207 169.682V147.073C310.207 140.318 304.71 134.822 297.955 134.822H20.2525C13.4965 134.821 8.0005 140.317 8.0005 147.072V169.681C8.0005 176.437 13.4965 181.933 20.2525 181.933H26.4745L122.89 277.167V343.274C122.891 344.594 123.217 345.893 123.841 347.056C124.465 348.219 125.367 349.209 126.466 349.939C127.566 350.669 128.829 351.116 130.142 351.239C131.456 351.362 132.78 351.159 133.996 350.646L171.549 334.819L169.308 339.866C168.651 341.344 168.458 342.986 168.754 344.575C169.049 346.165 169.819 347.627 170.963 348.77L187.965 365.772C189.108 366.915 190.57 367.685 192.16 367.981C193.749 368.276 195.391 368.083 196.868 367.426L207.562 362.676C212.857 365.578 218.451 367.897 224.247 369.593L228.448 380.506C229.028 382.015 230.053 383.313 231.385 384.228C232.718 385.143 234.297 385.632 235.913 385.632H259.958C259.982 385.632 260.006 385.627 260.031 385.626V495.387C260.031 497.509 260.873 499.544 262.374 501.044C263.874 502.545 265.909 503.387 268.03 503.387H316.395C318.516 503.387 320.551 502.545 322.051 501.044C323.552 499.544 324.395 497.509 324.395 495.387V349.284L324.908 348.77C326.051 347.627 326.821 346.165 327.117 344.575C327.412 342.986 327.219 341.345 326.562 339.867L321.812 329.173C324.714 323.878 327.033 318.284 328.729 312.489L339.642 308.288C341.151 307.708 342.449 306.683 343.364 305.351C344.279 304.018 344.768 302.439 344.768 300.822V287.301C395.012 258.16 442.048 224.33 484.882 186.548ZM24.0005 150.821H294.205V165.933H24.0005V150.821ZM49.2435 181.934H268.962L258.807 191.966H235.915C234.299 191.966 232.72 192.456 231.387 193.371C230.055 194.286 229.03 195.584 228.45 197.092L224.249 208.004C218.453 209.702 212.859 212.021 207.564 214.922L196.87 210.172C195.392 209.517 193.75 209.324 192.161 209.619C190.572 209.914 189.109 210.684 187.965 211.826L170.964 228.828C169.82 229.972 169.05 231.434 168.755 233.024C168.46 234.613 168.652 236.255 169.309 237.732L174.058 248.425C171.155 253.721 168.835 259.316 167.14 265.112L165.285 265.826H134.176L49.2435 181.934ZM138.891 281.826H151.103V300.822C151.102 302.439 151.592 304.018 152.507 305.351C153.422 306.683 154.72 307.708 156.229 308.288L167.137 312.487C167.729 314.507 168.398 316.503 169.142 318.472L138.89 331.222L138.891 281.826ZM308.396 487.39H276.033V368.174C280.267 366.676 284.375 364.838 288.314 362.68L299.003 367.428C300.481 368.085 302.123 368.278 303.712 367.983C305.302 367.688 306.765 366.917 307.908 365.773L308.395 365.285V487.39H308.396ZM328.77 295.329L319.175 299.022C317.963 299.489 316.883 300.244 316.027 301.222C315.172 302.2 314.568 303.372 314.266 304.635C312.597 311.651 309.818 318.354 306.034 324.492C305.353 325.599 304.952 326.855 304.865 328.151C304.777 329.448 305.007 330.746 305.534 331.933L309.712 341.339L300.478 350.573L291.077 346.397C289.89 345.869 288.591 345.639 287.295 345.726C285.998 345.813 284.742 346.215 283.635 346.897C277.496 350.682 270.791 353.462 263.774 355.13C262.509 355.431 261.338 356.035 260.36 356.891C259.381 357.746 258.626 358.827 258.16 360.039L254.467 369.631H241.409L237.715 360.035C237.249 358.823 236.494 357.742 235.516 356.887C234.537 356.032 233.366 355.428 232.102 355.127C225.086 353.458 218.383 350.678 212.245 346.894C211.138 346.213 209.882 345.812 208.585 345.725C207.289 345.638 205.99 345.868 204.803 346.395L195.398 350.573L186.163 341.34L190.339 331.938C190.866 330.751 191.096 329.452 191.009 328.156C190.922 326.859 190.52 325.603 189.839 324.496C186.053 318.357 183.274 311.652 181.605 304.635C181.304 303.371 180.699 302.2 179.844 301.221C178.989 300.243 177.908 299.488 176.696 299.021L167.105 295.329V282.27L176.698 278.578C177.91 278.112 178.991 277.357 179.846 276.378C180.701 275.4 181.306 274.228 181.607 272.964C183.276 265.949 186.055 259.245 189.84 253.106C190.521 252 190.923 250.744 191.01 249.447C191.097 248.151 190.867 246.852 190.34 245.664L186.163 236.259L195.396 227.026L204.803 231.204C205.99 231.732 207.288 231.962 208.585 231.875C209.881 231.788 211.137 231.386 212.243 230.705C218.382 226.921 225.086 224.142 232.102 222.471C233.365 222.171 234.537 221.567 235.515 220.712C236.493 219.857 237.248 218.776 237.715 217.563L241.409 207.968H254.467L258.161 217.563C258.627 218.776 259.382 219.856 260.36 220.712C261.338 221.567 262.51 222.171 263.774 222.471C270.788 224.142 277.492 226.921 283.63 230.704C284.737 231.386 285.993 231.788 287.29 231.875C288.586 231.962 289.885 231.732 291.072 231.204L300.478 227.026L309.712 236.259L305.537 245.66C305.01 246.848 304.78 248.147 304.867 249.443C304.954 250.74 305.356 251.996 306.037 253.102C309.823 259.242 312.603 265.947 314.271 272.964C314.572 274.229 315.176 275.4 316.032 276.379C316.887 277.357 317.968 278.112 319.18 278.578L328.771 282.27V295.329H328.77ZM16.0005 115.939H302.206C303.329 115.939 304.439 115.703 305.464 115.246C306.489 114.789 307.406 114.121 308.156 113.287C308.906 112.452 309.473 111.469 309.818 110.401C310.163 109.333 310.28 108.204 310.16 107.088C308.02 87.0884 295.581 70.5554 278.436 62.4724C283.608 56.7494 286.763 49.1704 286.763 40.8674C286.763 23.0804 272.293 8.60938 254.506 8.60938C236.719 8.60938 222.247 23.0804 222.247 40.8674C222.247 49.1704 225.403 56.7494 230.575 62.4724C220.753 67.1041 212.493 74.4966 206.805 83.7464C201.116 74.4966 192.856 67.1041 183.035 62.4724C188.206 56.7494 191.361 49.1704 191.361 40.8674C191.361 23.0804 176.891 8.60938 159.104 8.60938C141.316 8.60938 126.845 23.0804 126.845 40.8674C126.845 49.1704 130 56.7494 135.172 62.4724C125.351 67.1041 117.091 74.4966 111.402 83.7464C105.714 74.4966 97.4542 67.1041 87.6325 62.4724C92.8045 56.7494 95.9595 49.1704 95.9595 40.8674C95.9595 23.0804 81.4885 8.60938 63.7015 8.60938C45.9145 8.60938 31.4435 23.0794 31.4435 40.8664C31.4435 49.1694 34.5985 56.7484 39.7705 62.4714C22.6265 70.5544 10.1865 87.0884 8.0455 107.087C7.92595 108.203 8.04262 109.332 8.38792 110.4C8.73322 111.468 9.29941 112.452 10.0497 113.287C10.8 114.122 11.7176 114.789 12.7428 115.246C13.7681 115.703 14.878 115.939 16.0005 115.939ZM254.506 24.6084C263.471 24.6084 270.763 31.9014 270.763 40.8664C270.763 49.8314 263.471 57.1244 254.506 57.1244C245.541 57.1244 238.247 49.8314 238.247 40.8664C238.247 31.9014 245.541 24.6084 254.506 24.6084ZM254.505 73.1244C271.888 73.1244 286.826 84.1684 292.279 99.9394H216.73C222.184 84.1684 237.122 73.1244 254.505 73.1244ZM159.103 24.6084C168.068 24.6084 175.361 31.9014 175.361 40.8664C175.361 49.8314 168.068 57.1244 159.103 57.1244C150.138 57.1244 142.844 49.8314 142.844 40.8664C142.844 31.9014 150.138 24.6084 159.103 24.6084ZM159.104 73.1244C176.488 73.1244 191.426 84.1684 196.878 99.9394H121.329C126.782 84.1684 141.719 73.1244 159.104 73.1244ZM63.7015 24.6084C72.6665 24.6084 79.9595 31.9014 79.9595 40.8664C79.9595 49.8314 72.6665 57.1244 63.7015 57.1244C54.7365 57.1244 47.4435 49.8314 47.4435 40.8664C47.4435 31.9014 54.7365 24.6084 63.7015 24.6084ZM63.7015 73.1244C81.0855 73.1244 96.0225 84.1684 101.475 99.9394H25.9265C31.3795 84.1684 46.3175 73.1244 63.7015 73.1244ZM247.937 238.867C220.404 238.867 198.003 261.266 198.003 288.8C198.003 316.334 220.403 338.733 247.937 338.733C275.471 338.733 297.869 316.334 297.869 288.8C297.869 261.266 275.47 238.867 247.937 238.867ZM247.937 322.732C229.226 322.732 214.003 307.51 214.003 288.799C214.003 270.088 229.226 254.866 247.937 254.866C266.648 254.866 281.869 270.088 281.869 288.799C281.869 307.51 266.648 322.732 247.937 322.732ZM448.389 99.6604C448.905 99.0644 449.214 98.3924 449.052 97.0534C448.874 95.5924 448.459 92.1714 437.473 90.3674C417.997 87.1684 414.57 75.9784 414.26 69.5934C413.767 59.4254 420.31 50.8464 430.717 47.7254V46.4314C430.717 44.3096 431.56 42.2748 433.061 40.7745C434.561 39.2742 436.596 38.4314 438.717 38.4314C440.839 38.4314 442.874 39.2742 444.374 40.7745C445.875 42.2748 446.717 44.3096 446.717 46.4314V47.6524C453.398 49.5904 459.592 54.1664 462.958 62.1804C463.745 64.13 463.732 66.3108 462.924 68.2512C462.115 70.1917 460.575 71.7358 458.637 72.5499C456.698 73.364 454.518 73.3825 452.566 72.6015C450.614 71.8205 449.048 70.3028 448.206 68.3764C445.7 62.4084 439.444 62.0824 436.145 62.8334C434.707 63.1594 430.034 64.5544 430.242 68.8184C430.292 69.8524 430.445 72.9994 440.066 74.5794C455.215 77.0664 463.582 83.9794 464.935 95.1264C465.622 100.784 464.085 105.972 460.491 110.128C457.252 113.872 452.353 116.601 446.717 117.929V118.929C446.717 121.051 445.875 123.086 444.374 124.586C442.874 126.087 440.839 126.929 438.717 126.929C436.596 126.929 434.561 126.087 433.061 124.586C431.56 123.086 430.717 121.051 430.717 118.929V117.787C421.655 115.357 414.781 108.861 412.578 100.024C412.087 97.9733 412.425 95.8109 413.519 94.0078C414.614 92.2047 416.376 90.9068 418.422 90.3965C420.469 89.8862 422.634 90.2047 424.447 91.2829C426.26 92.361 427.574 94.1115 428.102 96.1534C429.372 101.248 434.892 102.911 439.274 102.829C443.106 102.737 446.854 101.435 448.389 99.6604ZM438.716 147.963C474.714 147.963 504 118.677 504 82.6804C504 46.6824 474.714 17.3964 438.716 17.3964C402.719 17.3964 373.434 46.6824 373.434 82.6804C373.434 118.677 402.719 147.963 438.716 147.963ZM438.716 33.3954C465.891 33.3954 488 55.5034 488 82.6794C488 109.854 465.891 131.962 438.716 131.962C411.542 131.962 389.434 109.854 389.434 82.6794C389.434 55.5044 411.542 33.3954 438.716 33.3954Z" fill="#D68029"/>
</svg>
