<svg width="512" height="512" viewBox="0 0 512 512" fill="none" xmlns="http://www.w3.org/2000/svg">
<path d="M350.9 495.5C331.931 495.5 316.5 480.068 316.5 461.1V390.5H158.47C154.61 390.5 151.47 387.359 151.47 383.5C151.47 379.641 154.61 376.5 158.47 376.5H316.5V315.5H300.5V322.15C300.5 339.161 286.661 353 269.65 353H242.35C225.339 353 211.5 339.161 211.5 322.15V315.5H15.5V350.5C15.5 364.837 27.164 376.5 41.5 376.5H98.53C102.39 376.5 105.53 379.641 105.53 383.5C105.53 387.359 102.39 390.5 98.53 390.5H41.5C19.444 390.5 1.5 372.556 1.5 350.5V308.5C1.5 304.641 4.64 301.5 8.5 301.5H24V63.55C24 37.606 45.106 16.5 71.05 16.5H440.95C466.893 16.5 488 37.606 488 63.55V198.629L488.322 198.752C501.587 203.813 510.5 216.732 510.5 230.901V461.1C510.5 480.069 495.068 495.5 476.1 495.5H350.9ZM330.5 461.1C330.5 472.349 339.651 481.5 350.9 481.5H476.1C487.349 481.5 496.5 472.349 496.5 461.1V443H330.5V461.1ZM350.9 210.5C339.651 210.5 330.5 219.651 330.5 230.9V429H496.5V230.9C496.5 221.849 490.409 213.788 481.689 211.296L481.603 211.272L481.515 211.279C481.333 211.292 481.151 211.299 480.969 211.299C479.95 211.302 478.943 211.075 478.024 210.634L477.943 210.595L477.854 210.588C476.956 210.511 476.754 210.493 474.508 210.493L471.753 210.497C469.525 210.501 466.287 210.507 461.481 210.507C458.594 210.507 450.5 210.498 450.5 210.498V212.166C450.5 227.789 437.79 240.499 422.167 240.499H404.833C389.21 240.499 376.5 227.789 376.5 212.166V210.5H350.9ZM225.5 322.15C225.5 331.441 233.059 339 242.35 339H269.651C278.942 339 286.501 331.441 286.501 322.15V315.5H225.501V322.15H225.5ZM75.5 301.5H316.5V230.9C316.5 211.932 331.932 196.5 350.9 196.5H436.5V68H413.5C409.641 68 406.5 64.86 406.5 61C406.5 57.14 409.641 54 413.5 54H438.15C444.96 54 450.5 59.54 450.5 66.35V196.5H474V63.55C474 45.326 459.174 30.5 440.95 30.5H71.05C52.826 30.5 38 45.326 38 63.55V301.5H61.5V66.35C61.5 59.54 67.04 54 73.85 54H353.5C357.359 54 360.5 57.14 360.5 61C360.5 64.86 357.359 68 353.5 68H75.5V301.5ZM390.5 212.167C390.5 220.07 396.93 226.5 404.833 226.5H422.167C430.07 226.5 436.5 220.07 436.5 212.167V210.5H390.5V212.167Z" fill="#D68029"/>
<path d="M440.95 17C466.618 17 487.5 37.882 487.5 63.55V198.973L488.144 199.219C501.217 204.206 510 216.938 510 230.9V461.1C510 479.793 494.792 495 476.1 495H350.9C332.207 495 317 479.792 317 461.1V390H158.47C154.886 390 151.97 387.084 151.97 383.5C151.97 379.916 154.886 377 158.47 377H317V315H300V322.15C300 338.885 286.385 352.5 269.65 352.5H242.35C225.615 352.5 212 338.885 212 322.15V315H15V350.5C15 365.112 26.888 377 41.5 377H98.53C102.114 377 105.03 379.916 105.03 383.5C105.03 387.084 102.114 390 98.53 390H41.5C19.72 390 2 372.28 2 350.5V308.5C2 304.916 4.916 302 8.5 302H24.5V63.55C24.5 37.882 45.382 17 71.05 17H440.95ZM37.5 302H62V66.35C62 59.816 67.316 54.5 73.85 54.5H353.5C357.084 54.5 360 57.416 360 61C360 64.584 357.084 67.5 353.5 67.5H75V302H317V230.9C317 212.207 332.208 197 350.9 197H437V67.5H413.5C409.916 67.5 407 64.584 407 61C407 57.416 409.916 54.5 413.5 54.5H438.15C444.684 54.5 450 59.816 450 66.35V197H474.5V63.55C474.5 45.05 459.45 30 440.95 30H71.05C52.55 30 37.5 45.05 37.5 63.55V301V302ZM461.48 210.008C458.594 210.008 455.14 210.006 451.002 210L450 209.999V212.167C450 227.514 437.514 240 422.167 240H404.833C389.486 240 377 227.514 377 212.167V210H350.9C339.375 210 330 219.376 330 230.9V429.5H497V230.9C497 221.627 490.76 213.368 481.826 210.816L481.656 210.767L481.479 210.78C481.31 210.792 481.141 210.799 480.971 210.799C480.025 210.802 479.091 210.591 478.238 210.182L478.026 210.101L477.847 210.086C476.982 210.012 476.776 209.994 474.511 209.994C473.817 209.994 472.926 209.996 471.756 209.998C469.529 210.002 466.29 210.008 461.48 210.008ZM404.833 227H422.167C430.346 227 437 220.346 437 212.167V210H390V212.167C390 220.346 396.654 227 404.833 227ZM242.35 339.5H269.651C279.218 339.5 287.001 331.717 287.001 322.15V315H225.001V322.15C225 331.717 232.783 339.5 242.35 339.5ZM350.9 482H476.1C487.625 482 497 472.624 497 461.1V442.5H330V461.1C330 472.624 339.376 482 350.9 482ZM440.95 16H71.05C44.831 16 23.5 37.331 23.5 63.55V301H8.5C7.51505 301 6.53972 301.194 5.62972 301.571C4.71972 301.948 3.89287 302.5 3.19641 303.196C2.49994 303.893 1.9475 304.72 1.57064 305.63C1.19377 306.54 0.999869 307.515 1 308.5V350.5C1 372.832 19.168 391 41.5 391H98.53C102.673 391 106.03 387.643 106.03 383.5C106.03 379.357 102.673 376 98.53 376H41.5C27.439 376 16 364.561 16 350.5V316H211V322.15C211 339.436 225.063 353.5 242.35 353.5H269.651C286.937 353.5 301.001 339.437 301.001 322.15V316H316.001V376H158.47C154.327 376 150.97 379.357 150.97 383.5C150.97 387.643 154.327 391 158.47 391H316V461.1C316 480.344 331.656 496 350.9 496H476.1C495.344 496 511 480.344 511 461.1V230.9C511 216.022 501.639 203.296 488.5 198.284V63.55C488.5 37.331 467.169 16 440.95 16ZM38.5 301V63.55C38.5 45.602 53.102 31 71.05 31H440.95C458.898 31 473.5 45.602 473.5 63.55V196H451V66.35C451 59.265 445.235 53.5 438.15 53.5H413.5C409.357 53.5 406 56.857 406 61C406 65.143 409.357 68.5 413.5 68.5H436V196H350.9C331.656 196 316 211.656 316 230.9V301H76V68.5H353.5C357.643 68.5 361 65.143 361 61C361 56.857 357.643 53.5 353.5 53.5H73.85C66.765 53.5 61 59.265 61 66.35V301H38.5ZM461.48 211.008C468.813 211.008 472.496 210.994 474.512 210.994C476.778 210.994 476.939 211.012 477.812 211.086C478.798 211.557 479.878 211.8 480.971 211.798C481.162 211.798 481.356 211.791 481.552 211.777C489.879 214.156 496 221.82 496 230.9V428.5H331V230.9C331 219.927 339.928 211 350.9 211H376V212.167C376 228.065 388.935 241 404.833 241H422.167C438.065 241 451 228.065 451 212.167V211C455.139 211.006 458.593 211.008 461.48 211.008ZM404.833 226C397.205 226 391 219.795 391 212.167V211H436V212.167C436 219.795 429.795 226 422.167 226H404.833ZM242.35 338.5C233.334 338.5 226 331.166 226 322.15V316H286V322.15C286 331.166 278.666 338.5 269.65 338.5H242.35ZM350.9 481C339.927 481 331 472.072 331 461.1V443.5H496V461.1C496 472.073 487.072 481 476.1 481H350.9Z" fill="#D68029"/>
<path d="M188.5 263C143.285 263 106.5 226.215 106.5 181C106.5 135.785 143.285 99 188.5 99C233.715 99 270.5 135.785 270.5 181C270.5 226.215 233.715 263 188.5 263ZM188.5 113C151.005 113 120.5 143.505 120.5 181C120.5 218.495 151.005 249 188.5 249C225.995 249 256.5 218.495 256.5 181C256.5 143.505 225.995 113 188.5 113Z" fill="#D68029"/>
<path d="M188.5 99.5C233.439 99.5 270 136.061 270 181C270 225.939 233.439 262.5 188.5 262.5C143.561 262.5 107 225.939 107 181C107 136.061 143.561 99.5 188.5 99.5ZM188.5 249.5C226.271 249.5 257 218.771 257 181C257 143.229 226.271 112.5 188.5 112.5C150.729 112.5 120 143.229 120 181C120 218.771 150.729 249.5 188.5 249.5ZM188.5 98.5C143.01 98.5 106 135.51 106 181C106 226.49 143.01 263.5 188.5 263.5C233.99 263.5 271 226.49 271 181C271 135.51 233.99 98.5 188.5 98.5ZM188.5 248.5C151.28 248.5 121 218.22 121 181C121 143.78 151.28 113.5 188.5 113.5C225.72 113.5 256 143.78 256 181C256 218.22 225.72 248.5 188.5 248.5Z" fill="#D68029"/>
<path d="M181.001 203C180.081 203.002 179.17 202.823 178.32 202.471C177.471 202.119 176.699 201.602 176.051 200.95L153.551 178.45C150.822 175.721 150.822 171.279 153.551 168.55C154.873 167.229 156.632 166.501 158.501 166.501C160.37 166.501 162.129 167.229 163.451 168.55L181.001 186.101L213.551 153.55C214.873 152.229 216.632 151.501 218.501 151.501C220.37 151.501 222.129 152.229 223.451 153.55C226.18 156.279 226.18 160.721 223.451 163.45L185.951 200.95C185.302 201.602 184.531 202.119 183.681 202.471C182.831 202.823 181.92 203.002 181.001 203Z" fill="#D68029"/>
<path d="M218.5 152C220.236 152 221.869 152.676 223.096 153.903C224.313 155.123 224.997 156.776 224.997 158.5C224.997 160.223 224.313 161.876 223.096 163.096L185.596 200.596C184.368 201.824 182.735 202.5 180.999 202.5C179.263 202.5 177.63 201.824 176.402 200.597L153.902 178.097C152.685 176.877 152.002 175.224 152.002 173.501C152.002 171.777 152.685 170.124 153.902 168.904C155.13 167.677 156.763 167.001 158.499 167.001C160.235 167.001 161.868 167.677 163.096 168.904L180.292 186.101L180.999 186.808L181.706 186.101L213.902 153.904C214.505 153.299 215.222 152.819 216.011 152.492C216.8 152.165 217.646 151.998 218.5 152ZM218.5 151C217.515 150.999 216.54 151.192 215.629 151.569C214.719 151.946 213.892 152.499 213.196 153.196L181 185.394L163.804 168.197C163.108 167.5 162.282 166.947 161.371 166.57C160.461 166.193 159.486 166 158.5 166.001C157.017 166.001 155.567 166.441 154.334 167.265C153.1 168.089 152.139 169.26 151.571 170.63C151.003 172.001 150.855 173.509 151.144 174.964C151.433 176.419 152.148 177.755 153.196 178.804L175.696 201.304C177.161 202.768 179.081 203.5 181 203.5C182.919 203.5 184.838 202.768 186.304 201.304L223.804 163.804C224.854 162.755 225.568 161.419 225.858 159.964C226.147 158.509 225.999 157 225.431 155.63C224.863 154.259 223.902 153.088 222.668 152.264C221.434 151.439 219.984 151 218.5 151ZM376 405.5C363.869 405.5 354 395.631 354 383.5C354 371.369 363.869 361.5 376 361.5C388.131 361.5 398 371.369 398 383.5C398 395.631 388.131 405.5 376 405.5ZM376 375.5C371.589 375.5 368 379.089 368 383.5C368 387.911 371.589 391.5 376 391.5C380.411 391.5 384 387.911 384 383.5C384 379.089 380.411 375.5 376 375.5Z" fill="#D68029"/>
<path d="M376 362C387.855 362 397.5 371.645 397.5 383.5C397.5 395.355 387.855 405 376 405C364.145 405 354.5 395.355 354.5 383.5C354.5 371.645 364.145 362 376 362ZM376 392C380.687 392 384.5 388.187 384.5 383.5C384.5 378.813 380.687 375 376 375C371.313 375 367.5 378.813 367.5 383.5C367.5 388.187 371.313 392 376 392ZM376 361C363.594 361 353.5 371.094 353.5 383.5C353.5 395.906 363.594 406 376 406C388.406 406 398.5 395.906 398.5 383.5C398.5 371.094 388.406 361 376 361ZM376 391C371.864 391 368.5 387.636 368.5 383.5C368.5 379.364 371.864 376 376 376C380.136 376 383.5 379.364 383.5 383.5C383.5 387.636 380.136 391 376 391ZM451 405.5C438.869 405.5 429 395.631 429 383.5C429 371.369 438.869 361.5 451 361.5C463.131 361.5 473 371.369 473 383.5C473 395.631 463.131 405.5 451 405.5ZM451 375.5C446.589 375.5 443 379.089 443 383.5C443 387.911 446.589 391.5 451 391.5C455.411 391.5 459 387.911 459 383.5C459 379.089 455.411 375.5 451 375.5Z" fill="#D68029"/>
<path d="M451 362C462.855 362 472.5 371.645 472.5 383.5C472.5 395.355 462.855 405 451 405C439.145 405 429.5 395.355 429.5 383.5C429.5 371.645 439.145 362 451 362ZM451 392C455.687 392 459.5 388.187 459.5 383.5C459.5 378.813 455.687 375 451 375C446.313 375 442.5 378.813 442.5 383.5C442.5 388.187 446.313 392 451 392ZM451 361C438.594 361 428.5 371.094 428.5 383.5C428.5 395.906 438.594 406 451 406C463.406 406 473.5 395.906 473.5 383.5C473.5 371.094 463.406 361 451 361ZM451 391C446.864 391 443.5 387.636 443.5 383.5C443.5 379.364 446.864 376 451 376C455.136 376 458.5 379.364 458.5 383.5C458.5 387.636 455.136 391 451 391ZM376 338C363.869 338 354 328.131 354 316C354 303.869 363.869 294 376 294C388.131 294 398 303.869 398 316C398 328.131 388.131 338 376 338ZM376 308C371.589 308 368 311.589 368 316C368 320.411 371.589 324 376 324C380.411 324 384 320.411 384 316C384 311.589 380.411 308 376 308Z" fill="#D68029"/>
<path d="M376 294.5C387.855 294.5 397.5 304.145 397.5 316C397.5 327.855 387.855 337.5 376 337.5C364.145 337.5 354.5 327.855 354.5 316C354.5 304.145 364.145 294.5 376 294.5ZM376 324.5C380.687 324.5 384.5 320.687 384.5 316C384.5 311.313 380.687 307.5 376 307.5C371.313 307.5 367.5 311.313 367.5 316C367.5 320.687 371.313 324.5 376 324.5ZM376 293.5C363.594 293.5 353.5 303.594 353.5 316C353.5 328.406 363.594 338.5 376 338.5C388.406 338.5 398.5 328.406 398.5 316C398.5 303.594 388.406 293.5 376 293.5ZM376 323.5C371.864 323.5 368.5 320.136 368.5 316C368.5 311.864 371.864 308.5 376 308.5C380.136 308.5 383.5 311.864 383.5 316C383.5 320.136 380.136 323.5 376 323.5ZM451 338C438.869 338 429 328.131 429 316C429 303.869 438.869 294 451 294C463.131 294 473 303.869 473 316C473 328.131 463.131 338 451 338ZM451 308C446.589 308 443 311.589 443 316C443 320.411 446.589 324 451 324C455.411 324 459 320.411 459 316C459 311.589 455.411 308 451 308Z" fill="#D68029"/>
<path d="M451 294.5C462.855 294.5 472.5 304.145 472.5 316C472.5 327.855 462.855 337.5 451 337.5C439.145 337.5 429.5 327.855 429.5 316C429.5 304.145 439.145 294.5 451 294.5ZM451 324.5C455.687 324.5 459.5 320.687 459.5 316C459.5 311.313 455.687 307.5 451 307.5C446.313 307.5 442.5 311.313 442.5 316C442.5 320.687 446.313 324.5 451 324.5ZM451 293.5C438.594 293.5 428.5 303.594 428.5 316C428.5 328.406 438.594 338.5 451 338.5C463.406 338.5 473.5 328.406 473.5 316C473.5 303.594 463.406 293.5 451 293.5ZM451 323.5C446.864 323.5 443.5 320.136 443.5 316C443.5 311.864 446.864 308.5 451 308.5C455.136 308.5 458.5 311.864 458.5 316C458.5 320.136 455.136 323.5 451 323.5Z" fill="#D68029"/>
<path d="M383.5 68C387.366 68 390.5 64.866 390.5 61C390.5 57.134 387.366 54 383.5 54C379.634 54 376.5 57.134 376.5 61C376.5 64.866 379.634 68 383.5 68Z" fill="#D68029"/>
<path d="M383.5 54.5C387.084 54.5 390 57.416 390 61C390 64.584 387.084 67.5 383.5 67.5C379.916 67.5 377 64.584 377 61C377 57.416 379.916 54.5 383.5 54.5ZM383.5 53.5C381.511 53.5 379.603 54.2902 378.197 55.6967C376.79 57.1032 376 59.0109 376 61C376 62.9891 376.79 64.8968 378.197 66.3033C379.603 67.7098 381.511 68.5 383.5 68.5C385.489 68.5 387.397 67.7098 388.803 66.3033C390.21 64.8968 391 62.9891 391 61C391 59.0109 390.21 57.1032 388.803 55.6967C387.397 54.2902 385.489 53.5 383.5 53.5Z" fill="#D68029"/>
<path d="M128.5 391.811C132.366 391.811 135.5 388.677 135.5 384.811C135.5 380.945 132.366 377.811 128.5 377.811C124.634 377.811 121.5 380.945 121.5 384.811C121.5 388.677 124.634 391.811 128.5 391.811Z" fill="#D68029"/>
<path d="M128.5 378.31C132.084 378.31 135 381.226 135 384.81C135 388.394 132.084 391.31 128.5 391.31C124.916 391.31 122 388.394 122 384.81C122 381.226 124.916 378.31 128.5 378.31ZM128.5 377.31C126.511 377.31 124.603 378.1 123.197 379.506C121.79 380.913 121 382.82 121 384.81C121 386.799 121.79 388.706 123.197 390.113C124.603 391.519 126.511 392.31 128.5 392.31C130.489 392.31 132.397 391.519 133.803 390.113C135.21 388.706 136 386.799 136 384.81C136 382.82 135.21 380.913 133.803 379.506C132.397 378.1 130.489 377.31 128.5 377.31Z" fill="#D68029"/>
</svg>
