<svg width="512" height="512" viewBox="0 0 512 512" fill="none" xmlns="http://www.w3.org/2000/svg">
<g clip-path="url(#clip0_3362_494)">
<path d="M306.551 452.463C305.747 449.997 304.258 447.811 302.257 446.161C300.256 444.51 297.826 443.464 295.253 443.145L276.949 440.695L268.091 425.071C266.86 422.956 265.096 421.202 262.975 419.982C260.854 418.763 258.45 418.121 256.004 418.121C253.557 418.121 251.153 418.763 249.032 419.982C246.911 421.202 245.147 422.956 243.916 425.071L235.067 440.678L216.754 443.127C214.181 443.447 211.751 444.493 209.75 446.144C207.749 447.794 206.26 449.98 205.456 452.446C204.678 454.842 204.597 457.409 205.223 459.849C205.848 462.289 207.154 464.501 208.989 466.227L222.216 478.831L219.024 496.026C218.569 498.493 218.818 501.038 219.743 503.37C220.669 505.702 222.232 507.726 224.255 509.21C226.358 510.78 228.859 511.727 231.474 511.943C234.089 512.158 236.712 511.634 239.044 510.43L255.999 501.76L272.964 510.447C274.955 511.467 277.16 512.002 279.398 512.009C282.41 512.007 285.34 511.031 287.752 509.227C289.775 507.742 291.34 505.716 292.265 503.383C293.19 501.049 293.439 498.502 292.983 496.034L289.791 478.848L303.009 466.253C304.847 464.527 306.156 462.314 306.783 459.872C307.41 457.43 307.33 454.861 306.551 452.463ZM274.67 469.692C273.644 470.671 272.877 471.891 272.441 473.241C272.004 474.591 271.911 476.028 272.17 477.423L274.926 492.271L259.89 484.591C258.685 483.979 257.351 483.66 255.999 483.66C254.647 483.66 253.314 483.979 252.108 484.591L237.072 492.271L239.829 477.423C240.087 476.028 239.994 474.591 239.558 473.241C239.121 471.891 238.355 470.671 237.328 469.692L226.218 459.093L241.527 457.045C242.833 456.868 244.081 456.391 245.172 455.651C246.264 454.91 247.168 453.927 247.816 452.779L255.999 438.366L264.183 452.796C264.83 453.944 265.735 454.928 266.826 455.668C267.917 456.408 269.165 456.885 270.472 457.062L285.781 459.11L274.67 469.692ZM161.484 384.196C160.68 381.73 159.191 379.544 157.19 377.894C155.189 376.244 152.76 375.198 150.186 374.878L131.882 372.429L123.024 356.804C121.794 354.69 120.029 352.935 117.908 351.716C115.787 350.496 113.384 349.854 110.937 349.854C108.49 349.854 106.086 350.496 103.965 351.716C101.844 352.935 100.08 354.69 98.8494 356.804L90.0003 372.412L71.6793 374.878C69.1055 375.198 66.676 376.244 64.6751 377.894C62.6743 379.544 61.1848 381.73 60.3811 384.196C59.6031 386.592 59.522 389.16 60.1475 391.6C60.773 394.04 62.0793 396.252 63.9139 397.978L77.1406 410.581L73.9492 427.776C73.4938 430.243 73.743 432.789 74.6682 435.12C75.5934 437.452 77.1572 439.476 79.1801 440.96C81.2841 442.526 83.7854 443.471 86.3996 443.687C89.0137 443.903 91.636 443.381 93.9683 442.18L110.933 433.493L127.897 442.18C129.889 443.2 132.093 443.735 134.331 443.742C137.343 443.74 140.273 442.764 142.685 440.96C144.709 439.475 146.273 437.449 147.198 435.116C148.123 432.783 148.372 430.236 147.916 427.767L144.725 410.581L157.943 397.986C159.781 396.26 161.089 394.047 161.716 391.606C162.343 389.164 162.263 386.594 161.484 384.196ZM129.604 401.425C128.577 402.404 127.811 403.624 127.374 404.974C126.938 406.324 126.845 407.761 127.103 409.156L129.86 424.004L114.824 416.324C113.618 415.713 112.285 415.394 110.933 415.394C109.58 415.394 108.247 415.713 107.041 416.324L92.0057 424.004L94.7619 409.156C95.0207 407.761 94.9276 406.324 94.4911 404.974C94.0545 403.624 93.2883 402.404 92.2617 401.425L81.1513 390.827L96.4601 388.779C97.7667 388.602 99.0146 388.124 100.106 387.384C101.197 386.644 102.102 385.661 102.749 384.512L110.933 370.099L119.116 384.529C119.763 385.678 120.668 386.661 121.759 387.401C122.851 388.141 124.098 388.619 125.405 388.796L140.714 390.844L129.604 401.425ZM39.1075 220.288L30.2585 235.895L11.9459 238.344C9.37213 238.664 6.94263 239.71 4.94177 241.361C2.94092 243.011 1.45149 245.197 0.647808 247.663C-0.130281 250.059 -0.211301 252.626 0.414195 255.066C1.03969 257.506 2.34593 259.718 4.18061 261.444L17.4073 274.048L14.2158 291.243C13.7605 293.71 14.0097 296.255 14.9349 298.587C15.8601 300.919 17.4238 302.943 19.4467 304.427C21.5499 305.995 24.0513 306.941 26.666 307.157C29.2806 307.372 31.9032 306.849 34.235 305.647L51.1993 296.96L68.1635 305.647C70.1562 306.664 72.3606 307.196 74.5977 307.2C77.6096 307.198 80.5401 306.222 82.9518 304.418C84.9754 302.933 86.5395 300.908 87.4647 298.574C88.3899 296.241 88.6388 293.694 88.1827 291.226L84.9913 274.048L98.2094 261.453C100.047 259.727 101.356 257.514 101.983 255.072C102.61 252.63 102.53 250.061 101.751 247.663C100.947 245.197 99.4576 243.011 97.4568 241.361C95.4559 239.71 93.0264 238.664 90.4526 238.344L72.1486 235.895L63.2825 220.271C62.0516 218.156 60.2876 216.402 58.1666 215.182C56.0455 213.963 53.6417 213.321 51.195 213.321C48.7483 213.321 46.3445 213.963 44.2234 215.182C42.1024 216.402 40.3384 218.156 39.1075 220.271V220.288ZM65.7059 252.245L81.0147 254.293L69.9214 264.892C68.8948 265.871 68.1286 267.091 67.692 268.441C67.2555 269.79 67.1624 271.228 67.4211 272.623L70.1774 287.471L55.1417 279.791C53.9358 279.179 52.6026 278.86 51.2505 278.86C49.8983 278.86 48.5652 279.179 47.3593 279.791L32.3235 287.471L35.0798 272.623C35.3386 271.228 35.2455 269.79 34.8089 268.441C34.3724 267.091 33.6061 265.871 32.5795 264.892L21.4179 254.293L36.6926 252.245C37.9993 252.068 39.2472 251.591 40.3383 250.851C41.4295 250.11 42.3343 249.127 42.9817 247.979L51.1993 233.566L59.3827 247.996C60.0355 249.145 60.9464 250.128 62.0438 250.865C63.1411 251.603 64.3948 252.075 65.7059 252.245ZM451.617 384.196C450.814 381.73 449.324 379.544 447.323 377.894C445.323 376.244 442.893 375.198 440.319 374.878L422.015 372.429L413.158 356.804C411.927 354.69 410.163 352.935 408.042 351.716C405.921 350.496 403.517 349.854 401.07 349.854C398.624 349.854 396.22 350.496 394.099 351.716C391.978 352.935 390.214 354.69 388.983 356.804L380.134 372.412L361.821 374.861C359.247 375.181 356.818 376.227 354.817 377.877C352.816 379.527 351.327 381.713 350.523 384.179C349.745 386.575 349.664 389.142 350.289 391.583C350.915 394.023 352.221 396.235 354.056 397.961L367.283 410.564L364.091 427.759C363.636 430.226 363.885 432.771 364.81 435.103C365.735 437.435 367.299 439.459 369.322 440.943C371.426 442.509 373.927 443.454 376.541 443.67C379.156 443.886 381.778 443.364 384.11 442.163L401.066 433.493L418.03 442.18C420.022 443.2 422.227 443.735 424.464 443.742C427.476 443.74 430.407 442.764 432.819 440.96C434.842 439.475 436.406 437.449 437.331 435.116C438.257 432.783 438.505 430.236 438.049 427.767L434.858 410.581L448.076 397.986C449.914 396.26 451.223 394.047 451.85 391.606C452.477 389.164 452.396 386.594 451.617 384.196ZM419.737 401.425C418.71 402.404 417.944 403.624 417.508 404.974C417.071 406.324 416.978 407.761 417.237 409.156L419.993 424.004L404.957 416.324C403.751 415.713 402.418 415.394 401.066 415.394C399.714 415.394 398.381 415.713 397.175 416.324L382.139 424.004L384.895 409.156C385.154 407.761 385.061 406.324 384.624 404.974C384.188 403.624 383.422 402.404 382.395 401.425L371.285 390.827L386.593 388.779C387.9 388.602 389.148 388.124 390.239 387.384C391.33 386.644 392.235 385.661 392.883 384.512L401.066 370.099L409.249 384.529C409.897 385.678 410.802 386.661 411.893 387.401C412.984 388.141 414.232 388.619 415.539 388.796L430.847 390.844L419.737 401.425ZM511.351 247.663C510.547 245.197 509.058 243.011 507.057 241.361C505.056 239.71 502.626 238.664 500.053 238.344L481.749 235.895L472.891 220.271C471.66 218.156 469.896 216.402 467.775 215.182C465.654 213.963 463.25 213.321 460.804 213.321C458.357 213.321 455.953 213.963 453.832 215.182C451.711 216.402 449.947 218.156 448.716 220.271L439.867 235.878L421.555 238.327C418.981 238.647 416.551 239.693 414.55 241.344C412.549 242.994 411.06 245.18 410.256 247.646C409.478 250.042 409.397 252.609 410.023 255.049C410.648 257.489 411.954 259.701 413.789 261.427L427.016 274.031L423.824 291.226C423.369 293.693 423.618 296.238 424.543 298.57C425.469 300.902 427.032 302.926 429.055 304.41C431.158 305.978 433.66 306.924 436.275 307.139C438.889 307.355 441.512 306.832 443.844 305.63L460.799 296.96L477.764 305.647C479.755 306.667 481.96 307.202 484.198 307.209C487.21 307.207 490.14 306.231 492.552 304.427C494.575 302.941 496.14 300.916 497.065 298.583C497.99 296.249 498.239 293.702 497.783 291.234L494.591 274.048L507.809 261.453C509.647 259.727 510.956 257.514 511.583 255.072C512.21 252.63 512.13 250.061 511.351 247.663ZM479.47 264.892C478.444 265.871 477.677 267.091 477.241 268.441C476.804 269.79 476.711 271.228 476.97 272.623L479.726 287.471L464.691 279.791C463.485 279.179 462.151 278.86 460.799 278.86C459.447 278.86 458.114 279.179 456.908 279.791L441.872 287.471L444.629 272.623C444.887 271.228 444.794 269.79 444.358 268.441C443.921 267.091 443.155 265.871 442.128 264.892L431.018 254.293L446.327 252.245C447.633 252.068 448.881 251.591 449.973 250.851C451.064 250.11 451.968 249.127 452.616 247.979L460.799 233.566L468.983 247.996C469.63 249.144 470.535 250.128 471.626 250.868C472.717 251.608 473.965 252.085 475.272 252.262L490.581 254.31L479.47 264.892ZM409.599 160.811V62.0629C409.631 55.6945 407.288 49.5428 403.028 44.8091C398.768 40.0754 392.896 37.0997 386.559 36.4629C345.19 33.0374 304.872 21.6561 267.818 2.94395C264.175 1.0233 260.118 0.0195313 255.999 0.0195312C251.881 0.0195312 247.824 1.0233 244.181 2.94395C207.11 21.6785 166.766 33.0663 125.371 36.48C119.04 37.1158 113.175 40.0935 108.925 44.8293C104.676 49.565 102.348 55.7173 102.399 62.08V160.811C102.979 204.657 117.344 247.208 143.457 282.435C169.571 317.661 206.109 343.776 247.893 357.077C253.154 358.834 258.844 358.834 264.106 357.077C305.891 343.778 342.431 317.664 368.544 282.437C394.658 247.21 409.022 204.657 409.599 160.811ZM258.687 340.864C256.947 341.436 255.069 341.436 253.328 340.864C214.941 328.7 181.355 304.764 157.329 272.448C133.304 240.132 120.057 201.075 119.466 160.811V62.08C119.451 59.9645 120.215 57.9175 121.612 56.3295C123.01 54.7414 124.943 53.7235 127.044 53.4698C170.635 49.8362 213.112 37.8051 252.134 18.0394C253.324 17.4066 254.651 17.0757 255.999 17.0757C257.347 17.0757 258.675 17.4066 259.865 18.0394C298.861 37.7761 341.299 49.8005 384.853 53.4528C386.978 53.6662 388.946 54.669 390.368 56.2632C391.79 57.8574 392.563 59.9269 392.533 62.0629V160.811C391.953 201.079 378.713 240.144 354.689 272.467C330.666 304.79 297.078 328.732 258.687 340.898V340.864Z" fill="#D68029"/>
<path d="M360.892 67.6428C327.116 62.7473 294.219 53.0223 263.211 38.766C260.956 37.6996 258.494 37.1465 256 37.1465C253.506 37.1465 251.043 37.6996 248.789 38.766C217.787 53.0345 184.892 62.7656 151.117 67.6599C147.067 68.2357 143.362 70.2544 140.682 73.3447C138.003 76.435 136.529 80.3889 136.533 84.4791V162.132C136.533 231.978 180.958 294.501 249.694 321.433C253.738 323.025 258.236 323.025 262.28 321.433C331.042 294.536 375.467 232.029 375.467 162.218V84.4791C375.475 80.3872 374.004 76.4302 371.326 73.3366C368.648 70.2429 364.942 68.2209 360.892 67.6428ZM358.4 157.345C300.739 191.009 240.111 219.313 177.28 241.902C164.025 221.427 156.048 197.988 154.061 173.678C188.663 161.407 279.569 127.146 350.891 83.0796C353.451 83.5148 355.848 84.0866 358.4 84.4706V157.345ZM255.94 54.2113C278.37 64.5869 301.822 72.5946 325.913 78.1047C270.689 108.635 213.059 134.595 153.6 155.724L153.685 84.5217C189.054 79.4048 223.496 69.1955 255.94 54.2113ZM256.077 305.552H255.932C229.324 295.278 205.812 278.32 187.665 256.315C246.357 234.87 303.158 208.567 357.478 177.68C353.959 206.254 342.634 233.306 324.745 255.864C306.857 278.423 283.097 295.615 256.077 305.552Z" fill="#D68029"/>
</g>
<defs>
<clipPath id="clip0_3362_494">
<rect width="512" height="512" fill="white"/>
</clipPath>
</defs>
</svg>
