<svg width="512" height="512" viewBox="0 0 512 512" fill="none" xmlns="http://www.w3.org/2000/svg">
<g clip-path="url(#clip0_3359_440)">
<path d="M166.8 218.96C167.99 220.6 169.76 221.728 171.749 222.114C173.739 222.5 175.802 222.116 177.52 221.04C179.181 219.847 180.323 218.063 180.71 216.054C181.097 214.046 180.699 211.965 179.6 210.24C176.424 205.386 172.316 201.21 167.515 197.955C162.714 194.699 157.314 192.429 151.629 191.276C145.944 190.122 140.087 190.109 134.396 191.235C128.706 192.362 123.296 194.607 118.48 197.84C117.291 199.164 116.577 200.847 116.452 202.622C116.327 204.398 116.797 206.164 117.788 207.642C118.78 209.12 120.236 210.225 121.926 210.782C123.616 211.34 125.443 211.318 127.12 210.72C130.262 208.643 133.784 207.208 137.484 206.498C141.183 205.788 144.986 205.817 148.674 206.583C152.362 207.349 155.863 208.837 158.973 210.961C162.084 213.085 164.744 215.804 166.8 218.96ZM133.28 332.4C129.592 331.639 126.091 330.156 122.978 328.036C119.865 325.917 117.203 323.203 115.143 320.05C113.084 316.898 111.668 313.369 110.977 309.667C110.287 305.965 110.335 302.163 111.12 298.48C110.897 296.775 110.132 295.187 108.936 293.951C107.74 292.715 106.178 291.898 104.481 291.619C102.785 291.341 101.043 291.617 99.5154 292.406C97.9876 293.195 96.7548 294.455 95.9995 296C94.8108 301.681 94.7621 307.542 95.8562 313.242C96.9502 318.942 99.1653 324.368 102.373 329.206C105.58 334.043 109.717 338.195 114.541 341.422C119.366 344.648 124.784 346.884 130.48 348H132C133.725 347.695 135.302 346.833 136.49 345.544C137.677 344.256 138.409 342.613 138.573 340.869C138.736 339.124 138.323 337.375 137.395 335.888C136.468 334.401 135.078 333.26 133.44 332.64L133.28 332.4ZM176 299.2C176.135 297.981 175.989 296.746 175.572 295.592C175.154 294.439 174.477 293.396 173.592 292.546C172.708 291.696 171.639 291.06 170.47 290.689C169.3 290.317 168.061 290.22 166.848 290.404C165.635 290.589 164.48 291.049 163.474 291.751C162.467 292.453 161.635 293.377 161.043 294.451C160.451 295.526 160.113 296.722 160.057 297.948C160.001 299.174 160.228 300.396 160.72 301.52C162.092 312.028 167.224 321.682 175.167 328.698C183.109 335.713 193.323 339.615 203.92 339.68C206.06 339.706 208.199 339.573 210.32 339.28C212.329 338.927 214.127 337.818 215.347 336.183C216.566 334.547 217.114 332.507 216.88 330.48C216.526 328.471 215.418 326.672 213.782 325.453C212.146 324.234 210.106 323.685 208.08 323.92C200.547 324.896 192.936 322.839 186.92 318.203C180.904 313.568 176.976 306.732 176 299.2Z" fill="#D68029"/>
<path d="M482.8 311.44C476.42 311.455 470.22 313.56 465.149 317.432C460.079 321.304 456.415 326.73 454.72 332.88H427.92L387.28 286.24C386.541 285.421 385.641 284.764 384.636 284.31C383.631 283.855 382.543 283.614 381.44 283.6H273.2V228.64H381.44C382.543 228.626 383.631 228.385 384.636 227.931C385.641 227.476 386.541 226.819 387.28 226L427.92 179.36H454.72C456.598 186.194 460.891 192.115 466.803 196.024C472.715 199.933 479.844 201.565 486.868 200.617C493.892 199.67 500.333 196.206 504.998 190.87C509.662 185.534 512.233 178.688 512.233 171.6C512.233 164.513 509.662 157.666 504.998 152.33C500.333 146.994 493.892 143.531 486.868 142.583C479.844 141.635 472.715 143.268 466.803 147.177C460.891 151.086 456.598 157.006 454.72 163.84H424.4C423.297 163.854 422.209 164.095 421.204 164.55C420.199 165.004 419.299 165.661 418.56 166.48L377.92 213.12H273.2V184H374.64C375.754 184.008 376.856 183.768 377.866 183.297C378.876 182.827 379.769 182.138 380.48 181.28L408.8 148C410.012 146.604 410.667 144.809 410.64 142.96V112C417.408 110.123 423.267 105.857 427.13 99.992C430.994 94.1267 432.602 87.0599 431.655 80.1004C430.708 73.141 427.27 66.7606 421.98 62.1411C416.689 57.5217 409.903 54.9762 402.88 54.9762C395.856 54.9762 389.071 57.5217 383.78 62.1411C378.489 66.7606 375.052 73.141 374.105 80.1004C373.158 87.0599 374.765 94.1267 378.629 99.992C382.493 105.857 388.352 110.123 395.12 112V140.32L371.12 168.48H273.2V131.36H308.64C309.923 131.367 311.188 131.065 312.33 130.481C313.471 129.896 314.456 129.045 315.2 128L325.12 112C327.716 112.787 330.408 113.217 333.12 113.28C338.907 113.312 344.574 111.627 349.405 108.44C354.236 105.252 358.013 100.704 360.261 95.3711C362.508 90.0377 363.125 84.158 362.033 78.4744C360.94 72.7908 358.188 67.5585 354.124 63.4382C350.059 59.318 344.865 56.4947 339.197 55.3249C333.529 54.1552 327.641 54.6914 322.277 56.866C316.914 59.0405 312.315 62.7558 309.062 67.5426C305.809 72.3293 304.047 77.9728 304 83.7602C304.033 91.1293 306.897 98.2038 312 103.52L304 115.84H273.2V55.9202C273.278 55.3629 273.278 54.7975 273.2 54.2402C268.578 40.9728 259.924 29.4825 248.448 21.3776C236.972 13.2728 223.249 8.95904 209.2 9.04019C196.196 9.13573 183.492 12.9536 172.589 20.0422C161.687 27.1308 153.043 37.1936 147.68 49.0402C137.589 45.893 126.9 45.1617 116.474 46.9054C106.049 48.6491 96.1796 52.819 87.6622 59.0786C79.1448 65.3382 72.2181 73.5122 67.4408 82.9411C62.6635 92.3701 60.1694 102.79 60.1598 113.36C60.1215 119.559 60.9838 125.73 62.7198 131.68C53.2047 134.731 44.4819 139.848 37.1764 146.665C29.8709 153.482 24.1636 161.83 20.4631 171.112C16.7627 180.393 15.1608 190.379 15.7722 200.352C16.3837 210.325 19.1933 220.04 23.9998 228.8C15.4798 235.423 8.85159 244.17 4.78047 254.163C0.709344 264.157 -0.661483 275.046 0.805576 285.737C2.27263 296.427 6.52596 306.544 13.1387 315.072C19.7514 323.599 28.4908 330.238 38.4798 334.32C32.3645 343.998 28.807 355.069 28.1408 366.498C27.4746 377.926 29.7214 389.336 34.6707 399.658C39.62 409.981 47.1097 418.877 56.4374 425.513C65.7651 432.15 76.6253 436.309 87.9998 437.6C88.4019 447.919 91.3951 457.971 96.7035 466.828C102.012 475.686 109.465 483.065 118.375 488.285C127.285 493.506 137.366 496.399 147.688 496.699C158.01 496.998 168.242 494.695 177.44 490C188.246 498.436 201.571 503 215.28 502.96C227.736 502.901 239.885 499.092 250.145 492.029C260.405 484.965 268.3 474.975 272.8 463.36C272.871 462.749 272.871 462.131 272.8 461.52C272.838 461.201 272.838 460.879 272.8 460.56V396.56H304L312 408.88C306.897 414.197 304.033 421.271 304 428.64C303.984 434.435 305.688 440.103 308.895 444.929C312.103 449.755 316.67 453.52 322.019 455.748C327.368 457.977 333.258 458.568 338.943 457.447C344.628 456.327 349.853 453.544 353.955 449.453C358.058 445.361 360.855 440.144 361.991 434.462C363.127 428.78 362.552 422.889 360.339 417.534C358.125 412.179 354.372 407.601 349.555 404.38C344.738 401.159 339.074 399.44 333.28 399.44C330.568 399.503 327.876 399.934 325.28 400.72L315.2 384C314.492 382.896 313.523 381.983 312.379 381.341C311.235 380.699 309.951 380.349 308.64 380.32H273.2V344H371.04L395.04 372.16V400C388.162 401.88 382.2 406.191 378.261 412.134C374.322 418.077 372.673 425.247 373.621 432.314C374.569 439.38 378.05 445.863 383.416 450.557C388.782 455.252 395.67 457.839 402.8 457.839C409.93 457.839 416.817 455.252 422.184 450.557C427.55 445.863 431.03 439.38 431.978 432.314C432.926 425.247 431.278 418.077 427.339 412.134C423.4 406.191 417.438 401.88 410.56 400V368.8C410.587 366.951 409.932 365.157 408.72 363.76L380.4 330.64C379.689 329.783 378.796 329.094 377.786 328.623C376.776 328.153 375.674 327.913 374.56 327.92H273.2V299.12H377.92L418.56 345.76C419.299 346.579 420.199 347.236 421.204 347.691C422.209 348.145 423.297 348.386 424.4 348.4H454.72C456.167 353.649 459.052 358.388 463.05 362.083C467.048 365.779 471.999 368.283 477.345 369.313C482.691 370.343 488.218 369.858 493.303 367.913C498.387 365.968 502.827 362.64 506.121 358.305C509.414 353.97 511.43 348.8 511.941 343.38C512.452 337.96 511.437 332.505 509.012 327.631C506.586 322.757 502.847 318.658 498.215 315.797C493.583 312.936 488.244 311.427 482.8 311.44ZM482.8 157.6C485.521 157.6 488.182 158.407 490.444 159.919C492.707 161.431 494.471 163.58 495.512 166.094C496.554 168.609 496.826 171.375 496.295 174.045C495.764 176.714 494.454 179.166 492.53 181.09C490.605 183.014 488.153 184.325 485.484 184.856C482.815 185.387 480.048 185.114 477.534 184.073C475.02 183.031 472.871 181.268 471.359 179.005C469.847 176.742 469.04 174.082 469.04 171.36C469.04 167.711 470.49 164.211 473.07 161.63C475.651 159.05 479.15 157.6 482.8 157.6ZM389.2 83.7602C389.184 81.032 389.98 78.3606 391.485 76.0856C392.991 73.8105 395.139 72.0345 397.657 70.9832C400.175 69.9318 402.948 69.6526 405.624 70.1809C408.301 70.7093 410.76 72.0214 412.689 73.9506C414.618 75.8798 415.931 78.3389 416.459 81.0155C416.987 83.6921 416.708 86.4654 415.657 88.983C414.605 91.5005 412.829 93.6487 410.554 95.1546C408.279 96.6604 405.608 97.456 402.88 97.4402C399.258 97.4192 395.791 95.9712 393.23 93.4102C390.669 90.8492 389.221 87.3819 389.2 83.7602ZM333.2 70.0002C335.921 70.0002 338.582 70.8072 340.844 72.3192C343.107 73.8311 344.871 75.9801 345.912 78.4945C346.954 81.0088 347.226 83.7754 346.695 86.4446C346.164 89.1138 344.854 91.5656 342.93 93.49C341.005 95.4143 338.553 96.7249 335.884 97.2558C333.215 97.7867 330.448 97.5142 327.934 96.4728C325.42 95.4313 323.271 93.6676 321.759 91.4048C320.247 89.142 319.44 86.4817 319.44 83.7602C319.44 81.9464 319.798 80.1506 320.495 78.4759C321.191 76.8012 322.212 75.2808 323.498 74.002C324.784 72.7232 326.311 71.7113 327.99 71.0246C329.668 70.3378 331.466 69.9896 333.28 70.0002H333.2ZM257.6 123.6V160C250.753 156.604 243.131 155.075 235.504 155.566C227.877 156.058 220.514 158.553 214.16 162.8C212.498 163.993 211.356 165.777 210.969 167.786C210.583 169.795 210.98 171.875 212.08 173.6C213.271 175.24 215.04 176.368 217.03 176.754C219.02 177.14 221.082 176.756 222.8 175.68C228.066 172.11 234.402 170.464 240.74 171.017C247.078 171.571 253.032 174.291 257.6 178.72V252.48C250.761 249.039 243.126 247.491 235.487 247.997C227.848 248.504 220.484 251.046 214.16 255.36C212.95 256.687 212.222 258.383 212.093 260.174C211.964 261.965 212.441 263.747 213.448 265.234C214.455 266.721 215.932 267.826 217.643 268.371C219.354 268.916 221.198 268.87 222.88 268.24C228.111 264.641 234.426 262.962 240.754 263.487C247.081 264.011 253.033 266.708 257.6 271.12V458.72C255.093 464.918 251.263 470.494 246.378 475.058C241.492 479.623 235.669 483.065 229.315 485.145C222.961 487.225 216.229 487.892 209.591 487.1C202.952 486.308 196.566 484.076 190.88 480.56C197.989 474.22 202.813 465.716 204.606 456.36C206.399 447.005 205.061 437.319 200.8 428.8C200.556 427.598 200.04 426.467 199.289 425.496C198.539 424.525 197.576 423.74 196.474 423.201C195.371 422.662 194.16 422.384 192.933 422.388C191.706 422.392 190.496 422.678 189.398 423.224C188.299 423.77 187.341 424.562 186.597 425.537C185.853 426.513 185.344 427.647 185.108 428.851C184.872 430.055 184.917 431.297 185.238 432.481C185.559 433.666 186.148 434.76 186.96 435.68C188.598 439.07 189.547 442.751 189.753 446.51C189.959 450.269 189.418 454.032 188.161 457.581C186.903 461.129 184.955 464.394 182.428 467.184C179.901 469.975 176.846 472.238 173.44 473.84C172.83 474.229 172.267 474.685 171.76 475.2C164.865 479.119 157.07 481.183 149.139 481.188C141.208 481.194 133.411 479.141 126.51 475.231C119.61 471.321 113.842 465.688 109.77 458.882C105.698 452.076 103.462 444.329 103.28 436.4C116.88 432.48 142.56 422.64 146.32 403.28C146.655 401.261 146.203 399.189 145.057 397.493C143.911 395.796 142.159 394.603 140.16 394.16C138.209 393.856 136.215 394.285 134.56 395.363C132.906 396.441 131.709 398.093 131.2 400C128.88 411.52 104.72 420.08 95.1198 422.16C85.1275 422.023 75.3864 419.009 67.0623 413.48C58.7381 407.951 52.1836 400.14 48.1829 390.982C44.1823 381.825 42.9052 371.709 44.5043 361.844C46.1034 351.98 50.5111 342.785 57.1998 335.36C58.1732 334.301 58.8431 332.999 59.1387 331.591C59.4344 330.183 59.3449 328.721 58.8798 327.36C58.4142 326.071 57.6253 324.923 56.5887 324.027C55.5521 323.13 54.3025 322.515 52.9598 322.24C43.8257 320.449 35.45 315.928 28.9392 309.276C22.4285 302.624 18.089 294.153 16.4941 284.982C14.8993 275.811 16.124 266.373 20.0066 257.913C23.8892 249.453 30.2469 242.37 38.2398 237.6C41.3582 235.503 44.8616 234.046 48.5472 233.313C52.2328 232.58 56.0272 232.586 59.7105 233.33C63.3938 234.074 66.8929 235.542 70.0049 237.648C73.1169 239.754 75.78 242.457 77.8398 245.6C78.568 246.623 79.5268 247.461 80.6387 248.044C81.7505 248.628 82.9842 248.942 84.2398 248.96C85.8081 248.948 87.3381 248.475 88.6398 247.6C90.2886 246.395 91.4142 244.606 91.7861 242.598C92.1579 240.59 91.7478 238.516 90.6398 236.8C84.9408 228.228 76.4118 221.93 66.542 219.005C56.6722 216.081 46.0889 216.716 36.6398 220.8C32.9613 213.941 30.877 206.34 30.5422 198.564C30.2073 190.788 31.6305 183.037 34.7058 175.887C37.7811 168.737 42.4293 162.372 48.3045 157.267C54.1796 152.162 61.1305 148.447 68.6398 146.4C71.6872 151.425 75.9711 155.585 81.0827 158.484C86.1944 161.383 91.9634 162.924 97.8398 162.96C101.853 162.978 105.836 162.274 109.6 160.88C110.816 160.765 111.99 160.373 113.031 159.735C114.072 159.096 114.953 158.227 115.607 157.195C116.26 156.162 116.669 154.994 116.801 153.78C116.933 152.565 116.785 151.337 116.368 150.188C115.952 149.04 115.278 148.002 114.398 147.154C113.518 146.307 112.456 145.672 111.293 145.299C110.13 144.925 108.897 144.823 107.688 145C106.479 145.177 105.327 145.629 104.32 146.32C99.6081 147.938 94.449 147.636 89.9579 145.481C85.4669 143.325 82.0046 139.488 80.3198 134.8C80.3499 134.561 80.3499 134.319 80.3198 134.08C76.1716 124.458 75.0319 113.806 77.0505 103.524C79.0691 93.2417 84.1515 83.8111 91.6297 76.4714C99.1078 69.1316 108.632 64.2264 118.95 62.4003C129.268 60.5743 139.897 61.9129 149.44 66.2402H151.04C173.2 70.5602 179.76 90.8802 176.32 109.04C176.007 111.048 176.469 113.099 177.613 114.778C178.757 116.456 180.497 117.637 182.48 118.08H183.92C185.78 118.122 187.597 117.513 189.057 116.36C190.517 115.206 191.529 113.58 191.92 111.76C196.96 84.7202 185.36 62.0002 163.28 53.4402C167.563 44.7063 174.197 37.3397 182.436 32.1674C190.675 26.9952 200.192 24.2224 209.92 24.1602C220.496 24.1425 230.823 27.3701 239.506 33.4072C248.19 39.4443 254.813 48.0003 258.48 57.9202L257.6 123.6ZM333.2 414.56C335.925 414.56 338.588 415.369 340.853 416.885C343.117 418.4 344.881 420.554 345.92 423.073C346.959 425.592 347.227 428.363 346.689 431.034C346.152 433.706 344.833 436.157 342.901 438.078C340.969 439.999 338.509 441.304 335.835 441.825C333.16 442.347 330.391 442.063 327.878 441.01C325.366 439.956 323.222 438.18 321.72 435.906C320.217 433.633 319.424 430.965 319.44 428.24C319.45 426.433 319.817 424.646 320.518 422.98C321.219 421.315 322.241 419.804 323.526 418.534C324.812 417.263 326.334 416.259 328.008 415.577C329.681 414.895 331.473 414.55 333.28 414.56H333.2ZM416.56 428.24C416.576 430.965 415.782 433.633 414.28 435.906C412.777 438.18 410.634 439.956 408.121 441.01C405.608 442.063 402.839 442.347 400.165 441.825C397.49 441.304 395.031 439.999 393.099 438.078C391.166 436.157 389.848 433.706 389.31 431.034C388.773 428.363 389.041 425.592 390.08 423.073C391.119 420.554 392.882 418.4 395.147 416.885C397.411 415.369 400.075 414.56 402.8 414.56C404.607 414.55 406.398 414.895 408.072 415.577C409.745 416.259 411.268 417.263 412.553 418.534C413.838 419.804 414.861 421.315 415.562 422.98C416.263 424.646 416.629 426.433 416.64 428.24H416.56ZM482.72 354.4C479.995 354.416 477.327 353.623 475.053 352.12C472.78 350.618 471.004 348.474 469.95 345.962C468.897 343.449 468.613 340.68 469.134 338.005C469.656 335.331 470.961 332.871 472.882 330.939C474.803 329.007 477.254 327.688 479.926 327.151C482.597 326.613 485.368 326.881 487.887 327.92C490.406 328.959 492.56 330.723 494.075 332.987C495.591 335.252 496.4 337.915 496.4 340.64C496.4 344.262 494.972 347.738 492.426 350.314C489.88 352.89 486.421 354.358 482.8 354.4H482.72Z" fill="#D68029"/>
</g>
<defs>
<clipPath id="clip0_3359_440">
<rect width="512" height="512" fill="white"/>
</clipPath>
</defs>
</svg>
