<svg width="512" height="512" viewBox="0 0 512 512" fill="none" xmlns="http://www.w3.org/2000/svg">
<path d="M256.676 261.056C245.996 261.056 235.555 264.223 226.675 270.156C217.795 276.09 210.873 284.524 206.786 294.391C202.699 304.258 201.63 315.116 203.713 325.591C205.797 336.066 210.94 345.687 218.492 353.239C226.044 360.791 235.666 365.934 246.141 368.018C256.616 370.102 267.474 369.032 277.341 364.945C287.208 360.858 295.642 353.937 301.575 345.056C307.509 336.176 310.676 325.736 310.676 315.056C310.66 300.739 304.965 287.013 294.842 276.89C284.718 266.766 270.993 261.072 256.676 261.056ZM256.676 357.056C248.369 357.056 240.249 354.592 233.342 349.977C226.435 345.362 221.052 338.803 217.873 331.128C214.694 323.454 213.862 315.009 215.483 306.862C217.103 298.715 221.104 291.231 226.977 285.357C232.851 279.483 240.335 275.483 248.482 273.863C256.629 272.242 265.074 273.074 272.749 276.253C280.423 279.432 286.983 284.815 291.598 291.722C296.213 298.629 298.676 306.749 298.676 315.056C298.663 326.191 294.234 336.867 286.361 344.74C278.487 352.614 267.811 357.043 256.676 357.056Z" fill="#D68029"/>
<path d="M464 15H48C38.4546 15.0122 29.3037 18.81 22.5548 25.5604C15.8059 32.3108 12.0101 41.4626 12 51.008V342.966C12.0092 352.514 15.804 361.669 22.5523 368.424C29.3006 375.178 38.4519 378.982 48 379H122.338L77.372 424.114C76.2521 425.239 75.6233 426.761 75.6233 428.348C75.6233 429.935 76.2521 431.457 77.372 432.582L139.709 495.229C140.266 495.789 140.928 496.234 141.657 496.538C142.386 496.841 143.167 496.999 143.957 497C144.747 496.999 145.529 496.843 146.258 496.539C146.988 496.236 147.65 495.791 148.207 495.231L237.633 405.505C239.124 405.331 240.496 404.604 241.477 403.468L248.34 395.512C254.638 396.08 260.98 395.915 267.24 395.022L274.59 402.688C275.44 403.574 276.542 404.179 277.747 404.419C278.951 404.659 280.201 404.524 281.326 404.031L293.707 398.614C302.467 409.601 308.455 417.799 311.007 421.361C309.242 430.551 309.525 440.017 311.837 449.085C314.149 458.153 318.432 466.6 324.382 473.823C330.331 481.046 337.801 486.868 346.258 490.875C354.715 494.881 363.952 496.972 373.31 497C377.624 496.999 381.927 496.564 386.153 495.7C387.214 495.484 388.196 494.984 388.996 494.255C389.796 493.525 390.383 492.593 390.696 491.557C391.01 490.521 391.037 489.419 390.775 488.369C390.513 487.319 389.971 486.359 389.208 485.591L352.075 448.248L361.416 421.405L388.291 412.053L425.744 448.7C426.518 449.458 427.483 449.991 428.536 450.245C429.589 450.499 430.691 450.462 431.725 450.14C432.759 449.818 433.687 449.222 434.409 448.415C435.132 447.609 435.623 446.621 435.83 445.558C438.323 432.764 436.816 419.513 431.515 407.605C426.214 395.697 417.375 385.71 406.2 379H464C473.548 378.981 482.699 375.178 489.447 368.423C496.195 361.668 499.99 352.514 500 342.966V51.008C499.989 41.4627 496.193 32.3113 489.445 25.561C482.696 18.8107 473.545 15.0127 464 15ZM90.09 428.353L131.49 386.814L136.864 392.235C137.419 392.795 138.078 393.239 138.805 393.544C139.532 393.849 140.311 394.007 141.099 394.011C141.887 394.014 142.668 393.862 143.397 393.564C144.127 393.265 144.79 392.826 145.35 392.272C145.909 391.717 146.354 391.057 146.659 390.331C146.963 389.604 147.122 388.824 147.125 388.036C147.129 387.248 146.977 386.467 146.678 385.738C146.38 385.009 145.941 384.346 145.386 383.786L139.961 378.314L170.666 347.508L177.893 364.026C177.991 364.239 178.101 364.447 178.224 364.647L102.4 440.724L90.09 428.353ZM171.077 177.928L140.341 147.017C150.352 147.37 160.043 150.632 168.229 156.406C176.415 162.179 182.741 170.213 186.434 179.525C190.126 188.837 191.025 199.023 189.02 208.837C187.015 218.651 182.194 227.669 175.145 234.787C168.096 241.904 159.126 246.813 149.332 248.913C139.537 251.014 129.343 250.214 119.996 246.612C110.648 243.011 102.553 236.763 96.7006 228.634C90.8479 220.504 87.4911 210.845 87.041 200.838L117.971 231.1C118.769 231.881 119.769 232.424 120.859 232.667C121.949 232.911 123.085 232.845 124.14 232.478L157.266 220.95C158.122 220.653 158.899 220.167 159.54 219.527C160.18 218.887 160.668 218.11 160.966 217.255L172.494 184.128C172.863 183.066 172.925 181.921 172.675 180.825C172.424 179.729 171.87 178.725 171.077 177.928ZM196.177 225.32C199.698 229.754 203.257 234.159 206.852 238.536C206.026 239.133 205.365 239.932 204.934 240.856C204.502 241.78 204.314 242.799 204.386 243.816L205.164 254.399C200.24 258.392 195.85 263.001 192.1 268.113L181.543 267.804C181.011 267.788 180.48 267.845 179.964 267.973C175.15 263.985 170.298 260.045 165.408 256.151C178.966 249.807 189.858 238.892 196.172 225.32H196.177ZM110.865 449.229L192.883 366.939L194.413 366.826C197.881 371.102 201.816 374.978 206.144 378.381L123.188 461.612L110.865 449.229ZM173.204 453.151L169.004 448.922C167.882 447.793 166.358 447.157 164.766 447.152C163.175 447.147 161.647 447.775 160.518 448.897C159.389 450.019 158.753 451.543 158.748 453.135C158.743 454.726 159.371 456.254 160.493 457.383L164.736 461.65L143.966 482.489L131.655 470.118L176.755 424.871C175.868 426.018 175.427 427.448 175.515 428.895C175.603 430.342 176.214 431.708 177.234 432.739L185.38 440.939L173.204 453.151ZM214.485 411.733L210.28 407.5C209.724 406.941 209.064 406.497 208.337 406.194C207.61 405.89 206.83 405.732 206.042 405.73C205.254 405.728 204.473 405.881 203.745 406.18C203.016 406.479 202.353 406.919 201.794 407.475C201.235 408.031 200.791 408.691 200.488 409.418C200.184 410.145 200.026 410.925 200.024 411.713C200.022 412.501 200.175 413.282 200.474 414.01C200.773 414.739 201.213 415.402 201.769 415.961L206.014 420.23L193.846 432.44L185.746 424.282C184.713 423.246 183.335 422.625 181.875 422.536C180.415 422.447 178.972 422.897 177.821 423.8L208.373 393.146C209.027 394.558 210.204 395.661 211.656 396.222L224.866 401.322L214.485 411.733ZM297.052 369.979C296.238 370.581 295.589 371.38 295.166 372.3C294.744 373.22 294.561 374.233 294.635 375.243L295.335 384.801L280.346 391.358L273.714 384.442C273.027 383.726 272.173 383.192 271.229 382.887C270.284 382.581 269.279 382.515 268.303 382.693C261.152 384.004 253.84 384.193 246.63 383.254C245.645 383.127 244.644 383.245 243.716 383.6C242.788 383.954 241.962 384.533 241.313 385.285L235.15 392.43L219.933 386.556L220.214 377.009C220.244 375.992 220.015 374.984 219.548 374.079C219.081 373.175 218.392 372.405 217.545 371.84C211.546 367.845 206.287 362.837 202.004 357.04C201.404 356.224 200.606 355.573 199.685 355.151C198.764 354.728 197.75 354.547 196.74 354.624L187.183 355.324L180.624 340.335L187.54 333.702C188.256 333.015 188.791 332.161 189.096 331.217C189.401 330.273 189.468 329.268 189.289 328.292C187.979 321.14 187.789 313.828 188.728 306.618C188.856 305.633 188.738 304.632 188.383 303.704C188.029 302.776 187.45 301.951 186.698 301.302L179.554 295.138L185.427 279.921L194.974 280.201C195.992 280.234 197.001 280.006 197.906 279.539C198.81 279.071 199.58 278.381 200.143 277.532C204.138 271.533 209.146 266.274 214.943 261.991C215.757 261.389 216.406 260.59 216.829 259.67C217.251 258.75 217.434 257.737 217.36 256.727L216.66 247.17L231.649 240.613L238.281 247.528C238.968 248.244 239.822 248.778 240.766 249.083C241.71 249.388 242.715 249.455 243.691 249.277C250.844 247.967 258.158 247.778 265.369 248.718C266.354 248.844 267.355 248.725 268.282 248.37C269.21 248.016 270.035 247.437 270.685 246.686L276.849 239.542L292.065 245.415L291.784 254.962C291.754 255.979 291.984 256.988 292.451 257.892C292.918 258.796 293.607 259.567 294.454 260.131C300.453 264.126 305.711 269.134 309.994 274.931C310.595 275.747 311.393 276.397 312.314 276.819C313.235 277.242 314.248 277.423 315.258 277.347L324.816 276.647L331.373 291.637L324.458 298.27C323.742 298.957 323.207 299.81 322.901 300.755C322.596 301.699 322.53 302.704 322.708 303.68C324.018 310.831 324.208 318.143 323.269 325.353C323.141 326.338 323.259 327.339 323.613 328.266C323.968 329.194 324.546 330.019 325.298 330.668L332.441 336.833L326.568 352.051L317.021 351.771C316.004 351.738 314.995 351.966 314.09 352.433C313.185 352.9 312.415 353.59 311.853 354.439C307.858 360.438 302.85 365.697 297.052 369.979ZM310.5 218.108L305.083 212.643L337.894 179.723L344.165 186.043C344.718 186.609 345.378 187.06 346.107 187.369C346.835 187.679 347.618 187.842 348.409 187.848C349.201 187.854 349.985 187.703 350.718 187.404C351.451 187.105 352.118 186.665 352.68 186.107C353.242 185.55 353.688 184.887 353.993 184.156C354.297 183.426 354.454 182.642 354.454 181.85C354.455 181.059 354.299 180.275 353.995 179.544C353.691 178.813 353.245 178.15 352.684 177.592L346.366 171.224L368.033 149.484L380.344 161.855L303.629 238.825C302.975 237.413 301.798 236.311 300.346 235.751L287.134 230.651L296.612 221.142L301.978 226.555C303.101 227.672 304.62 228.3 306.204 228.302C307.789 228.303 309.309 227.678 310.434 226.563C311.559 225.448 312.197 223.933 312.21 222.348C312.222 220.764 311.608 219.24 310.5 218.107V218.108ZM366.883 250.283L371.135 254.561L358.97 266.769L350.857 258.603C349.838 257.58 348.482 256.96 347.042 256.859C345.601 256.757 344.172 257.18 343.019 258.05L383.048 217.888C382.206 219.037 381.801 220.449 381.906 221.87C382.012 223.291 382.62 224.628 383.623 225.64L391.779 233.85L379.609 246.061L375.395 241.822C374.273 240.694 372.749 240.057 371.157 240.052C369.566 240.048 368.038 240.676 366.91 241.798C365.781 242.919 365.144 244.444 365.14 246.035C365.135 247.627 365.763 249.155 366.885 250.283H366.883ZM342.344 267.06L350.498 275.268L341.333 284.468L334.108 267.951C334.009 267.737 333.898 267.529 333.775 267.328L341.789 259.288C340.938 260.436 340.526 261.851 340.628 263.277C340.73 264.702 341.339 266.044 342.344 267.06ZM384.319 216.613L409.6 191.25L421.91 203.621L400.252 225.351L392.138 217.183C391.122 216.163 389.771 215.543 388.335 215.439C386.899 215.334 385.473 215.751 384.319 216.613ZM319.119 265.034L317.592 265.146C314.123 260.87 310.188 256.994 305.86 253.591L388.815 170.361L401.137 182.744L319.119 265.034ZM315.533 407.227C312.087 402.619 308.579 398.059 305.008 393.547C305.878 392.957 306.578 392.148 307.036 391.201C307.495 390.255 307.697 389.205 307.621 388.156L306.843 377.573C311.765 373.58 316.153 368.971 319.9 363.86L330.457 364.17C331.209 364.193 331.958 364.07 332.664 363.81C337.214 367.389 342.064 371.153 347.546 375.372C336.484 380.279 327.066 388.263 320.413 398.372C318.555 401.191 316.922 404.152 315.529 407.227H315.533ZM423.961 423.109C424.504 425.754 424.838 428.438 424.961 431.135L394.034 400.872C393.236 400.091 392.236 399.548 391.146 399.305C390.057 399.061 388.921 399.126 387.866 399.493L354.739 411.021C353.884 411.319 353.108 411.807 352.468 412.447C351.828 413.088 351.342 413.866 351.045 414.721L339.517 447.847C339.148 448.909 339.084 450.053 339.334 451.149C339.584 452.246 340.136 453.25 340.929 454.047L371.665 484.958C361.989 484.624 352.603 481.574 344.58 476.155C336.557 470.736 330.222 463.168 326.299 454.317C322.377 445.466 321.025 435.69 322.399 426.106C323.772 416.523 327.816 407.52 334.068 400.128C340.319 392.735 348.525 387.252 357.747 384.305C366.969 381.358 376.835 381.067 386.214 383.466C395.594 385.864 404.109 390.854 410.785 397.865C417.461 404.876 422.029 413.625 423.965 423.111L423.961 423.109ZM488 342.966C487.994 349.332 485.465 355.437 480.966 359.942C476.467 364.447 470.366 366.985 464 367H356.347C349.799 361.963 344.147 357.584 338.895 353.44L345.158 337.212C345.603 336.059 345.68 334.796 345.38 333.596C345.08 332.397 344.417 331.32 343.481 330.512L335.526 323.647C336.009 318.255 335.958 312.829 335.371 307.447L434.626 207.862C435.746 206.738 436.374 205.215 436.374 203.628C436.374 202.042 435.746 200.519 434.626 199.395L372.289 136.761C371.732 136.202 371.07 135.759 370.341 135.457C369.612 135.154 368.83 134.999 368.041 135C367.252 134.998 366.47 135.152 365.741 135.453C365.012 135.755 364.349 136.197 363.791 136.755L274.357 226.481C272.871 226.654 271.504 227.377 270.525 228.508L263.661 236.463C257.363 235.896 251.021 236.06 244.761 236.951L237.411 229.286C236.561 228.4 235.459 227.796 234.255 227.556C233.05 227.315 231.801 227.451 230.676 227.943L218.181 233.409C212.262 226.257 206.444 219.023 200.726 211.709C202.911 201.394 202.496 190.697 199.516 180.582C196.536 170.467 191.086 161.253 183.658 153.77C176.229 146.287 167.055 140.77 156.962 137.716C146.87 134.663 136.176 134.169 125.845 136.279C124.784 136.495 123.802 136.995 123.002 137.724C122.202 138.454 121.614 139.386 121.301 140.422C120.988 141.459 120.961 142.561 121.223 143.611C121.485 144.661 122.027 145.621 122.79 146.389L159.923 183.732L150.582 210.575L123.707 219.928L86.254 183.274C85.4798 182.516 84.515 181.983 83.4619 181.729C82.4088 181.476 81.3067 181.512 80.2726 181.834C79.2385 182.156 78.3109 182.753 77.5882 183.559C76.8655 184.366 76.3748 185.354 76.168 186.417C74.1656 196.682 74.7282 207.282 77.8057 217.278C80.8832 227.273 86.3805 236.354 93.8097 243.715C101.239 251.076 110.37 256.489 120.394 259.474C130.417 262.459 141.022 262.923 151.268 260.826C151.445 260.79 151.618 260.742 151.795 260.705C157.068 264.822 164.456 270.705 173.295 278.036L166.84 294.762C166.395 295.916 166.318 297.178 166.618 298.378C166.919 299.577 167.582 300.654 168.518 301.462L176.474 308.326C175.99 313.718 176.042 319.144 176.629 324.526L134.3 367H48C41.6335 366.985 35.5324 364.447 31.0338 359.942C26.5352 355.437 24.0058 349.333 24 342.966V93H488V342.966ZM488 81H24V51.008C24.0066 44.6441 26.537 38.5426 31.0363 34.0419C35.5355 29.5412 41.6361 27.0087 48 27H464C470.364 27.009 476.464 29.5415 480.963 34.0422C485.463 38.5429 487.993 44.6442 488 51.008V81Z" fill="#D68029"/>
<path d="M48.8345 38.0605C45.5913 38.0615 42.4212 39.0241 39.725 40.8265C37.0288 42.629 34.9275 45.1903 33.6869 48.1868C32.4462 51.1834 32.1219 54.4804 32.7548 57.6613C33.3878 60.8421 34.9496 63.7638 37.2429 66.0571C39.5362 68.3504 42.4579 69.9122 45.6388 70.5452C48.8196 71.1781 52.1167 70.8538 55.1132 69.6131C58.1097 68.3725 60.671 66.2712 62.4735 63.575C64.2759 60.8788 65.2385 57.7087 65.2395 54.4655C65.2347 50.1161 63.5048 45.9462 60.4293 42.8707C57.3538 39.7952 53.1839 38.0653 48.8345 38.0605ZM48.8345 58.8705C47.963 58.8715 47.1109 58.614 46.3858 58.1306C45.6608 57.6472 45.0954 56.9596 44.7612 56.1547C44.427 55.3499 44.3391 54.4641 44.5085 53.6092C44.6779 52.7544 45.097 51.9691 45.7129 51.3525C46.3287 50.736 47.1136 50.3159 47.9682 50.1456C48.8229 49.9752 49.7088 50.0621 50.514 50.3954C51.3192 50.7286 52.0075 51.2932 52.4917 52.0177C52.976 52.7422 53.2345 53.5941 53.2345 54.4655C53.2331 55.6326 52.7693 56.7515 51.9446 57.5771C51.1198 58.4028 50.0015 58.8679 48.8345 58.8705ZM85.3345 38.0605C82.0913 38.0615 78.9212 39.0241 76.225 40.8265C73.5288 42.629 71.4275 45.1903 70.1869 48.1868C68.9462 51.1834 68.6219 54.4804 69.2548 57.6613C69.8878 60.8421 71.4496 63.7638 73.7429 66.0571C76.0362 68.3504 78.9579 69.9122 82.1387 70.5452C85.3196 71.1781 88.6167 70.8538 91.6132 69.6131C94.6097 68.3725 97.171 66.2712 98.9735 63.575C100.776 60.8788 101.738 57.7087 101.739 54.4655C101.735 50.1161 100.005 45.9462 96.9293 42.8707C93.8538 39.7952 89.6839 38.0653 85.3345 38.0605ZM85.3345 58.8705C84.4632 58.8705 83.6116 58.6122 82.8872 58.1282C82.1628 57.6441 81.5982 56.9562 81.2648 56.1513C80.9314 55.3464 80.8441 54.4607 81.0141 53.6062C81.1841 52.7517 81.6036 51.9668 82.2197 51.3507C82.8357 50.7347 83.6206 50.3152 84.4751 50.1452C85.3296 49.9752 86.2153 50.0625 87.0202 50.3959C87.8251 50.7293 88.5131 51.2939 88.9971 52.0183C89.4811 52.7427 89.7395 53.5943 89.7395 54.4655C89.7381 55.6334 89.2736 56.7531 88.4478 57.5789C87.622 58.4047 86.5023 58.8692 85.3345 58.8705ZM121.834 38.0605C118.591 38.0615 115.421 39.0241 112.725 40.8265C110.029 42.629 107.928 45.1903 106.687 48.1868C105.446 51.1834 105.122 54.4804 105.755 57.6613C106.388 60.8421 107.95 63.7638 110.243 66.0571C112.536 68.3504 115.458 69.9122 118.639 70.5452C121.82 71.1781 125.117 70.8538 128.113 69.6131C131.11 68.3725 133.671 66.2712 135.473 63.575C137.276 60.8788 138.238 57.7087 138.239 54.4655C138.235 50.1161 136.505 45.9462 133.429 42.8707C130.354 39.7952 126.184 38.0653 121.834 38.0605ZM121.834 58.8705C120.963 58.8705 120.112 58.6122 119.387 58.1282C118.663 57.6441 118.098 56.9562 117.765 56.1513C117.431 55.3464 117.344 54.4607 117.514 53.6062C117.684 52.7517 118.104 51.9668 118.72 51.3507C119.336 50.7347 120.121 50.3152 120.975 50.1452C121.83 49.9752 122.715 50.0625 123.52 50.3959C124.325 50.7293 125.013 51.2939 125.497 52.0183C125.981 52.7427 126.239 53.5943 126.239 54.4655C126.238 55.6334 125.774 56.7531 124.948 57.5789C124.122 58.4047 123.002 58.8692 121.834 58.8705ZM48.0005 262.924C49.5918 262.924 51.1179 262.291 52.2431 261.166C53.3683 260.041 54.0005 258.515 54.0005 256.924V162.966C54.0005 161.374 53.3683 159.848 52.2431 158.723C51.1179 157.598 49.5918 156.966 48.0005 156.966C46.4092 156.966 44.883 157.598 43.7578 158.723C42.6326 159.848 42.0005 161.374 42.0005 162.966V256.924C42.0005 258.515 42.6326 260.041 43.7578 261.166C44.883 262.291 46.4092 262.924 48.0005 262.924ZM48.0005 145.966C49.5918 145.966 51.1179 145.333 52.2431 144.208C53.3683 143.083 54.0005 141.557 54.0005 139.966V136.008C54.0005 134.416 53.3683 132.89 52.2431 131.765C51.1179 130.64 49.5918 130.008 48.0005 130.008C46.4092 130.008 44.883 130.64 43.7578 131.765C42.6326 132.89 42.0005 134.416 42.0005 136.008V139.966C42.0005 141.557 42.6326 143.083 43.7578 144.208C44.883 145.333 46.4092 145.966 48.0005 145.966Z" fill="#D68029"/>
</svg>
