<svg width="512" height="512" viewBox="0 0 512 512" fill="none" xmlns="http://www.w3.org/2000/svg">
<g clip-path="url(#clip0_3353_1458)">
<path d="M213.334 341.333H298.668C305.457 341.333 311.969 338.636 316.77 333.835C321.571 329.034 324.268 322.522 324.268 315.733V238.933C324.268 232.143 321.571 225.632 316.77 220.831C311.969 216.03 305.457 213.333 298.668 213.333V196.266C298.668 184.95 294.172 174.098 286.171 166.096C278.169 158.095 267.317 153.6 256.001 153.6C244.685 153.6 233.833 158.095 225.831 166.096C217.83 174.098 213.334 184.95 213.334 196.266V213.333C206.545 213.333 200.033 216.03 195.232 220.831C190.432 225.632 187.734 232.143 187.734 238.933V315.733C187.734 322.522 190.432 329.034 195.232 333.835C200.033 338.636 206.545 341.333 213.334 341.333ZM230.401 196.266C230.401 189.477 233.098 182.965 237.899 178.164C242.7 173.363 249.212 170.666 256.001 170.666C262.791 170.666 269.302 173.363 274.103 178.164C278.904 182.965 281.601 189.477 281.601 196.266V213.333H230.401V196.266ZM204.801 238.933C204.801 236.67 205.7 234.499 207.3 232.899C208.901 231.299 211.071 230.4 213.334 230.4H298.668C300.931 230.4 303.101 231.299 304.702 232.899C306.302 234.499 307.201 236.67 307.201 238.933V315.733C307.201 317.996 306.302 320.167 304.702 321.767C303.101 323.367 300.931 324.266 298.668 324.266H213.334C211.071 324.266 208.901 323.367 207.3 321.767C205.7 320.167 204.801 317.996 204.801 315.733V238.933Z" fill="#D68029"/>
<path d="M247.467 297.096V298.666C247.467 300.93 248.366 303.1 249.966 304.7C251.567 306.301 253.737 307.2 256 307.2C258.264 307.2 260.434 306.301 262.034 304.7C263.635 303.1 264.534 300.93 264.534 298.666V297.096C270.227 295.083 275.026 291.122 278.082 285.913C281.137 280.705 282.253 274.583 281.232 268.631C280.211 262.679 277.118 257.28 272.501 253.388C267.884 249.495 262.039 247.36 256 247.36C249.962 247.36 244.117 249.495 239.5 253.388C234.883 257.28 231.79 262.679 230.769 268.631C229.748 274.583 230.864 280.705 233.919 285.913C236.975 291.122 241.774 295.083 247.467 297.096ZM256 264.533C258.264 264.533 260.434 265.432 262.034 267.032C263.635 268.633 264.534 270.803 264.534 273.066C264.534 275.33 263.635 277.5 262.034 279.1C260.434 280.701 258.264 281.6 256 281.6C253.737 281.6 251.567 280.701 249.966 279.1C248.366 277.5 247.467 275.33 247.467 273.066C247.467 270.803 248.366 268.633 249.966 267.032C251.567 265.432 253.737 264.533 256 264.533Z" fill="#D68029"/>
<path d="M110.934 256C110.934 336.12 175.881 401.067 256.001 401.067C336.12 401.067 401.068 336.12 401.068 256C401.068 175.881 336.12 110.934 256.001 110.934C175.916 111.019 111.02 175.915 110.934 256ZM256.001 128C326.691 128 384.001 185.31 384.001 256C384.001 326.69 326.691 384 256.001 384C185.311 384 128.001 326.69 128.001 256C128.086 185.344 185.345 128.086 256.001 128ZM426.668 443.734C419.122 443.762 411.799 446.289 405.843 450.921C399.886 455.553 395.632 462.028 393.746 469.334H332.801V417.75C351.88 408.769 369.215 396.475 384.001 381.44C384.804 380.644 385.441 379.696 385.875 378.652C386.308 377.607 386.53 376.487 386.527 375.356C386.524 374.225 386.296 373.107 385.856 372.065C385.417 371.022 384.775 370.078 383.967 369.286C383.16 368.495 382.203 367.871 381.153 367.453C380.102 367.034 378.979 366.829 377.848 366.848C376.717 366.867 375.602 367.111 374.566 367.565C373.53 368.019 372.595 368.675 371.815 369.494C357.327 384.306 340.128 396.198 321.153 404.523C320.007 404.978 318.975 405.68 318.132 406.579C318.038 406.682 317.987 406.818 317.893 406.938C317.269 407.632 316.764 408.425 316.4 409.285C316.233 409.821 316.121 410.372 316.067 410.931C315.909 411.415 315.797 411.912 315.734 412.416V469.334C315.734 473.86 317.532 478.201 320.733 481.402C323.934 484.602 328.275 486.4 332.801 486.4H393.746C395.353 492.566 398.657 498.158 403.282 502.54C407.907 506.923 413.668 509.921 419.911 511.194C426.155 512.467 432.63 511.964 438.602 509.741C444.573 507.519 449.802 503.667 453.695 498.622C457.587 493.578 459.987 487.543 460.622 481.203C461.257 474.863 460.102 468.471 457.287 462.755C454.472 457.039 450.111 452.226 444.699 448.864C439.286 445.501 433.039 443.724 426.668 443.734ZM426.668 494.934C422.141 494.934 417.8 493.136 414.6 489.935C411.399 486.734 409.601 482.393 409.601 477.867C409.601 473.341 411.399 469 414.6 465.799C417.8 462.598 422.141 460.8 426.668 460.8C431.194 460.8 435.535 462.598 438.736 465.799C441.936 469 443.734 473.341 443.734 477.867C443.734 482.393 441.936 486.734 438.736 489.935C435.535 493.136 431.194 494.934 426.668 494.934ZM67.0558 349.867H108.289C108.357 349.867 108.417 349.824 108.494 349.824C109.343 349.786 110.18 349.616 110.977 349.321C111.375 349.19 111.763 349.031 112.137 348.843C112.231 348.792 112.342 348.775 112.436 348.715C112.53 348.655 112.675 348.476 112.812 348.382C113.586 347.905 114.272 347.299 114.843 346.59C114.943 346.458 115.037 346.322 115.124 346.181C115.677 345.403 116.092 344.538 116.353 343.621C116.353 343.493 116.404 343.365 116.43 343.237C116.636 342.62 116.768 341.981 116.822 341.334C116.778 341.011 116.713 340.692 116.626 340.378C116.626 340.267 116.626 340.165 116.566 340.045C116.421 339.044 116.095 338.078 115.602 337.195L115.559 337.058C106.809 321.954 100.578 305.526 97.1102 288.418C96.8861 287.32 96.4479 286.277 95.8206 285.348C95.1932 284.419 94.3891 283.623 93.4541 283.005C92.5191 282.387 91.4715 281.959 90.3711 281.746C89.2707 281.533 88.1391 281.538 87.0409 281.762C85.9427 281.987 84.8994 282.425 83.9706 283.052C83.0417 283.679 82.2455 284.484 81.6275 285.419C81.0094 286.354 80.5816 287.401 80.3684 288.502C80.1552 289.602 80.1608 290.734 80.3849 291.832C83.2521 305.989 87.843 319.736 94.0382 332.792H67.0558C64.9789 324.748 60.0395 317.737 53.1635 313.075C46.2875 308.412 37.947 306.417 29.7054 307.464C21.4638 308.511 13.8869 312.527 8.39496 318.761C2.903 324.995 -0.126953 333.017 -0.126953 341.325C-0.126953 349.633 2.903 357.656 8.39496 363.889C13.8869 370.123 21.4638 374.14 29.7054 375.186C37.947 376.233 46.2875 374.238 53.1635 369.576C60.0395 364.913 64.9789 357.911 67.0558 349.867ZM34.1342 358.4C29.6079 358.4 25.2669 356.602 22.0663 353.402C18.8657 350.201 17.0676 345.86 17.0676 341.334C17.0676 336.807 18.8657 332.466 22.0663 329.266C25.2669 326.065 29.6079 324.267 34.1342 324.267C38.6606 324.267 43.0016 326.065 46.2022 329.266C49.4028 332.466 51.2009 336.807 51.2009 341.334C51.2009 345.86 49.4028 350.201 46.2022 353.402C43.0016 356.602 38.6606 358.4 34.1342 358.4Z" fill="#D68029"/>
<path d="M2.64311e-05 170.667C-0.0103041 178.964 3.00791 186.98 8.48817 193.209C13.9684 199.439 21.5339 203.454 29.7647 204.502C37.9954 205.549 46.3255 203.557 53.1914 198.898C60.0572 194.24 64.9869 187.235 67.055 179.2H108.518C109.363 179.149 110.191 178.978 110.985 178.697C111.359 178.577 111.725 178.429 112.077 178.253C112.532 178.013 112.961 177.727 113.357 177.4C114.077 176.856 114.7 176.196 115.2 175.445C115.311 175.283 115.456 175.164 115.558 174.993C126.5 156.005 141.184 139.437 158.72 126.293C159.617 125.621 160.372 124.779 160.943 123.814C161.514 122.85 161.889 121.783 162.048 120.674C162.206 119.564 162.145 118.434 161.866 117.349C161.588 116.263 161.099 115.243 160.427 114.347C159.754 113.45 158.912 112.695 157.948 112.124C156.983 111.553 155.916 111.178 154.807 111.019C153.697 110.861 152.568 110.922 151.482 111.2C150.397 111.479 149.377 111.968 148.48 112.64C130.522 126.168 115.274 142.958 103.535 162.133H67.055C64.9869 154.098 60.0572 147.094 53.1914 142.435C46.3255 137.777 37.9954 135.784 29.7647 136.832C21.5339 137.879 13.9684 141.895 8.48817 148.124C3.00791 154.354 -0.0103041 162.37 2.64311e-05 170.667ZM51.2 170.667C51.2 175.193 49.4019 179.534 46.2013 182.735C43.0007 185.935 38.6597 187.733 34.1334 187.733C29.607 187.733 25.266 185.935 22.0654 182.735C18.8648 179.534 17.0667 175.193 17.0667 170.667C17.0667 166.14 18.8648 161.799 22.0654 158.599C25.266 155.398 29.607 153.6 34.1334 153.6C38.6597 153.6 43.0007 155.398 46.2013 158.599C49.4019 161.799 51.2 166.14 51.2 170.667ZM477.867 307.2C470.321 307.228 462.998 309.756 457.042 314.388C451.085 319.02 446.831 325.494 444.945 332.8H417.954C424.157 319.754 428.742 305.999 431.608 291.84C432.06 289.621 431.613 287.313 430.364 285.424C429.115 283.535 427.166 282.219 424.947 281.767C422.728 281.314 420.42 281.761 418.531 283.01C416.642 284.259 415.326 286.208 414.874 288.427C411.412 305.534 405.187 321.962 396.442 337.067V337.178C395.932 338.08 395.596 339.07 395.452 340.096C395.452 340.19 395.452 340.275 395.392 340.369C395.307 340.685 395.23 341.009 395.179 341.333C395.23 342.004 395.362 342.666 395.571 343.305C395.818 344.346 396.268 345.329 396.894 346.197C396.979 346.325 397.048 346.453 397.141 346.573C397.719 347.285 398.411 347.896 399.189 348.382C399.326 348.476 399.411 348.621 399.556 348.706C399.701 348.792 399.761 348.783 399.855 348.834C400.23 349.031 400.623 349.193 401.033 349.321C401.826 349.607 402.657 349.773 403.499 349.816C403.576 349.816 403.635 349.858 403.712 349.858H444.945C446.551 356.025 449.853 361.618 454.478 366.002C459.102 370.386 464.863 373.385 471.107 374.659C477.351 375.933 483.826 375.431 489.799 373.21C495.771 370.988 501.001 367.136 504.894 362.091C508.787 357.047 511.188 351.012 511.823 344.671C512.459 338.331 511.303 331.939 508.489 326.222C505.674 320.505 501.312 315.692 495.899 312.33C490.486 308.967 484.239 307.19 477.867 307.2ZM477.867 358.4C473.34 358.4 468.999 356.602 465.799 353.401C462.598 350.201 460.8 345.86 460.8 341.333C460.8 336.807 462.598 332.466 465.799 329.265C468.999 326.065 473.34 324.267 477.867 324.267C482.393 324.267 486.734 326.065 489.935 329.265C493.135 332.466 494.933 336.807 494.933 341.333C494.933 345.86 493.135 350.201 489.935 353.401C486.734 356.602 482.393 358.4 477.867 358.4ZM196.267 412.561V412.416C196.212 411.937 196.118 411.463 195.985 411C195.925 410.421 195.808 409.849 195.635 409.293C195.276 408.447 194.78 407.666 194.168 406.98C194.057 406.852 194.005 406.699 193.894 406.579C193.048 405.68 192.014 404.978 190.865 404.523C168.528 394.664 148.683 379.928 132.787 361.395C132.069 360.511 131.181 359.78 130.176 359.244C129.171 358.709 128.068 358.38 126.934 358.277C125.799 358.174 124.656 358.299 123.571 358.646C122.485 358.992 121.481 359.552 120.615 360.292C119.75 361.033 119.041 361.939 118.532 362.958C118.022 363.977 117.722 365.087 117.648 366.224C117.575 367.361 117.729 368.5 118.103 369.576C118.477 370.652 119.062 371.643 119.825 372.489C136.236 391.59 156.46 407.048 179.2 417.869V469.333H118.255C116.178 461.289 111.239 454.279 104.363 449.616C97.4866 444.954 89.1462 442.959 80.9046 444.005C72.6629 445.052 65.086 449.069 59.5941 455.303C54.1021 461.536 51.0722 469.559 51.0722 477.867C51.0722 486.175 54.1021 494.197 59.5941 500.431C65.086 506.665 72.6629 510.681 80.9046 511.728C89.1462 512.775 97.4866 510.78 104.363 506.117C111.239 501.455 116.178 494.444 118.255 486.4H179.2C183.726 486.4 188.067 484.602 191.268 481.401C194.469 478.201 196.267 473.86 196.267 469.333V412.561ZM85.3334 494.933C80.807 494.933 76.466 493.135 73.2654 489.935C70.0648 486.734 68.2667 482.393 68.2667 477.867C68.2667 473.34 70.0648 468.999 73.2654 465.799C76.466 462.598 80.807 460.8 85.3334 460.8C89.8597 460.8 94.2007 462.598 97.4013 465.799C100.602 468.999 102.4 473.34 102.4 477.867C102.4 482.393 100.602 486.734 97.4013 489.935C94.2007 493.135 89.8597 494.933 85.3334 494.933ZM288.427 414.891C267.023 419.189 244.977 419.189 223.573 414.891C222.464 414.636 221.316 414.606 220.195 414.802C219.074 414.999 218.003 415.417 217.047 416.033C216.09 416.649 215.266 417.45 214.623 418.389C213.981 419.328 213.532 420.386 213.305 421.501C213.077 422.616 213.075 423.765 213.298 424.881C213.521 425.997 213.965 427.057 214.603 427.998C215.242 428.94 216.063 429.744 217.017 430.364C217.971 430.984 219.04 431.407 220.16 431.608C229.171 433.357 238.293 434.424 247.467 434.773V503.467C247.467 505.73 248.366 507.9 249.966 509.501C251.566 511.101 253.737 512 256 512C258.263 512 260.434 511.101 262.034 509.501C263.634 507.9 264.533 505.73 264.533 503.467V434.773C273.703 434.417 282.832 433.358 291.84 431.608C294.011 431.109 295.902 429.782 297.107 427.909C298.313 426.036 298.739 423.766 298.293 421.583C297.847 419.401 296.566 417.479 294.722 416.228C292.879 414.978 290.619 414.498 288.427 414.891ZM179.2 25.6001H118.255C116.178 17.5561 111.239 10.5457 104.363 5.88295C97.4866 1.22023 89.1462 -0.774686 80.9046 0.272136C72.6629 1.31896 65.086 5.33565 59.5941 11.5693C54.1021 17.803 51.0722 25.8256 51.0722 34.1334C51.0722 42.4412 54.1021 50.4639 59.5941 56.6975C65.086 62.9312 72.6629 66.9479 80.9046 67.9947C89.1462 69.0415 97.4866 67.0466 104.363 62.3839C111.239 57.7212 116.178 50.7108 118.255 42.6668H179.2V99.6012C179.2 99.9425 179.362 100.275 179.405 100.617C179.49 101.504 179.721 102.366 180.079 103.177C180.613 104.323 181.411 105.326 182.409 106.104C183.176 106.735 184.044 107.231 184.977 107.571C185.583 107.768 186.214 107.887 186.854 107.947C187.135 108.023 187.42 108.083 187.708 108.126C188.93 108.1 190.133 107.809 191.232 107.273C201.627 102.765 212.467 99.3616 223.573 97.118C225.792 96.6653 227.741 95.3497 228.99 93.4605C230.239 91.5714 230.686 89.2634 230.234 87.0443C229.781 84.8253 228.465 82.877 226.576 81.6279C224.687 80.3789 222.379 79.9314 220.16 80.3841C212.053 82.0396 204.066 84.2668 196.267 87.0401V42.6668C196.267 38.1404 194.469 33.7994 191.268 30.5988C188.067 27.3982 183.726 25.6001 179.2 25.6001ZM85.3334 51.2001C80.807 51.2001 76.466 49.402 73.2654 46.2014C70.0648 43.0008 68.2667 38.6598 68.2667 34.1334C68.2667 29.6071 70.0648 25.2661 73.2654 22.0655C76.466 18.8648 80.807 17.0668 85.3334 17.0668C89.8597 17.0668 94.2007 18.8648 97.4013 22.0655C100.602 25.2661 102.4 29.6071 102.4 34.1334C102.4 38.6598 100.602 43.0008 97.4013 46.2014C94.2007 49.402 89.8597 51.2001 85.3334 51.2001ZM393.745 42.6668C395.822 50.7108 400.761 57.7212 407.637 62.3839C414.513 67.0466 422.854 69.0415 431.096 67.9947C439.337 66.9479 446.914 62.9312 452.406 56.6975C457.898 50.4639 460.928 42.4412 460.928 34.1334C460.928 25.8256 457.898 17.803 452.406 11.5693C446.914 5.33565 439.337 1.31896 431.096 0.272136C422.854 -0.774686 414.513 1.22023 407.637 5.88295C400.761 10.5457 395.822 17.5561 393.745 25.6001H332.8C328.274 25.6001 323.933 27.3982 320.732 30.5988C317.531 33.7994 315.733 38.1404 315.733 42.6668V99.5756C315.785 100.079 315.885 100.576 316.032 101.06C316.083 101.624 316.203 102.17 316.365 102.707C316.732 103.561 317.235 104.363 317.858 105.054C317.952 105.165 318.003 105.31 318.097 105.412C318.942 106.308 319.974 107.017 321.118 107.469C340.089 115.781 357.288 127.658 371.78 142.456C372.549 143.309 373.482 143.999 374.523 144.484C375.565 144.969 376.693 145.238 377.841 145.276C378.99 145.314 380.134 145.12 381.205 144.705C382.276 144.29 383.253 143.663 384.076 142.862C384.899 142.061 385.552 141.101 385.995 140.042C386.439 138.982 386.664 137.844 386.657 136.695C386.65 135.546 386.411 134.411 385.954 133.357C385.498 132.302 384.833 131.351 384 130.56C369.214 115.525 351.879 103.232 332.8 94.2508V42.6668H393.745ZM426.667 17.0668C431.193 17.0668 435.534 18.8648 438.735 22.0655C441.935 25.2661 443.733 29.6071 443.733 34.1334C443.733 38.6598 441.935 43.0008 438.735 46.2014C435.534 49.402 431.193 51.2001 426.667 51.2001C422.14 51.2001 417.799 49.402 414.599 46.2014C411.398 43.0008 409.6 38.6598 409.6 34.1334C409.6 29.6071 411.398 25.2661 414.599 22.0655C417.799 18.8648 422.14 17.0668 426.667 17.0668ZM256 8.31066e-05C253.737 8.31066e-05 251.566 0.899128 249.966 2.49944C248.366 4.09975 247.467 6.27024 247.467 8.53342V85.3334C247.467 87.5966 248.366 89.7671 249.966 91.3674C251.566 92.9677 253.737 93.8668 256 93.8668C266.889 93.8668 277.76 94.9505 288.427 97.1094C290.619 97.5024 292.879 97.0224 294.722 95.7719C296.566 94.5214 297.847 92.5996 298.293 90.4171C298.739 88.2345 298.313 85.9642 297.107 84.0911C295.902 82.218 294.011 80.8907 291.84 80.3926C282.832 78.6418 273.703 77.5834 264.533 77.2268V8.53342C264.533 6.27024 263.634 4.09975 262.034 2.49944C260.434 0.899128 258.263 8.31066e-05 256 8.31066e-05ZM444.945 179.2C447.022 187.244 451.961 194.255 458.837 198.917C465.713 203.58 474.054 205.575 482.296 204.528C490.537 203.481 498.114 199.465 503.606 193.231C509.098 186.997 512.128 178.975 512.128 170.667C512.128 162.359 509.098 154.336 503.606 148.103C498.114 141.869 490.537 137.852 482.296 136.805C474.054 135.759 465.713 137.754 458.837 142.416C451.961 147.079 447.022 154.089 444.945 162.133H403.712C403.55 162.133 403.422 162.219 403.268 162.219C402.774 162.272 402.285 162.372 401.809 162.517C401.108 162.656 400.428 162.885 399.787 163.2C399.718 163.2 399.633 163.2 399.556 163.285C399.48 163.371 399.334 163.516 399.189 163.61C398.411 164.095 397.719 164.707 397.141 165.419C397.048 165.538 396.979 165.666 396.894 165.794C396.329 166.568 395.904 167.434 395.639 168.354C395.639 168.465 395.64 168.576 395.571 168.687C395.361 169.329 395.23 169.993 395.179 170.667C395.221 170.991 395.29 171.315 395.366 171.64C395.366 171.733 395.409 171.819 395.426 171.913C395.571 172.937 395.904 173.926 396.416 174.831V174.942C410.648 199.585 418.138 227.542 418.133 256C418.133 258.263 419.032 260.434 420.633 262.034C422.233 263.634 424.404 264.533 426.667 264.533H503.467C505.73 264.533 507.9 263.634 509.501 262.034C511.101 260.434 512 258.263 512 256C512 253.737 511.101 251.566 509.501 249.966C507.9 248.366 505.73 247.467 503.467 247.467H434.918C433.8 223.807 427.999 200.603 417.852 179.2H444.945ZM477.867 153.6C482.393 153.6 486.734 155.398 489.935 158.599C493.135 161.799 494.933 166.14 494.933 170.667C494.933 175.193 493.135 179.534 489.935 182.735C486.734 185.935 482.393 187.733 477.867 187.733C473.34 187.733 468.999 185.935 465.799 182.735C462.598 179.534 460.8 175.193 460.8 170.667C460.8 166.14 462.598 161.799 465.799 158.599C468.999 155.398 473.34 153.6 477.867 153.6ZM8.53336 264.533H85.3334C87.5965 264.533 89.767 263.634 91.3673 262.034C92.9677 260.434 93.8667 258.263 93.8667 256C93.8487 238.758 96.5824 221.624 101.965 205.244C102.315 204.179 102.452 203.056 102.368 201.939C102.284 200.821 101.981 199.731 101.476 198.73C100.971 197.73 100.274 196.839 99.4241 196.108C98.5746 195.377 97.5894 194.821 96.5248 194.47C95.4602 194.12 94.3371 193.983 93.2196 194.067C92.102 194.151 91.0119 194.454 90.0115 194.959C89.0111 195.464 88.12 196.162 87.3891 197.011C86.6581 197.861 86.1017 198.846 85.7515 199.91C80.7385 215.299 77.8391 231.298 77.1328 247.467H8.53336C6.27018 247.467 4.09969 248.366 2.49938 249.966C0.899072 251.566 2.64311e-05 253.737 2.64311e-05 256C2.64311e-05 258.263 0.899072 260.434 2.49938 262.034C4.09969 263.634 6.27018 264.533 8.53336 264.533Z" fill="#D68029"/>
</g>
<defs>
<clipPath id="clip0_3353_1458">
<rect width="512" height="512" fill="white"/>
</clipPath>
</defs>
</svg>
