<svg width="512" height="512" viewBox="0 0 512 512" fill="none" xmlns="http://www.w3.org/2000/svg">
<path d="M373.805 197.458L389.685 213.339C390.997 214.652 391.734 216.432 391.734 218.288C391.734 220.144 390.997 221.924 389.685 223.237L373.805 239.118C372.438 240.485 370.646 241.169 368.855 241.169C367.064 241.169 365.272 240.485 363.906 239.119C362.593 237.806 361.856 236.026 361.855 234.17C361.855 232.313 362.593 230.533 363.905 229.22L367.836 225.288H323.164C321.307 225.288 319.527 224.551 318.214 223.238C316.902 221.925 316.164 220.145 316.164 218.288C316.164 216.431 316.902 214.651 318.214 213.338C319.527 212.025 321.307 211.288 323.164 211.288H367.836L363.905 207.356C362.614 206.039 361.895 204.265 361.905 202.421C361.914 200.576 362.651 198.81 363.955 197.506C365.26 196.202 367.026 195.466 368.87 195.457C370.715 195.448 372.488 196.167 373.805 197.458ZM127.266 225.288H256C315.631 225.288 364.145 176.775 364.145 117.144C364.145 110.815 363.593 104.614 362.545 98.58L364.939 99.962C366.546 100.876 368.449 101.117 370.233 100.632C372.017 100.148 373.537 98.9777 374.461 97.3769C375.385 95.776 375.639 93.8746 375.166 92.0876C374.694 90.3005 373.534 88.7729 371.939 87.838L357.349 79.415C342.005 38.333 302.366 9 256 9C209.433 9 169.646 38.586 154.448 79.948L153.066 77.554C152.131 75.9594 150.603 74.7992 148.816 74.3267C147.029 73.8543 145.128 74.1078 143.527 75.0321C141.926 75.9563 140.756 77.4762 140.272 79.2601C139.787 81.044 140.028 82.9471 140.942 84.554L149.364 99.141C148.361 105.09 147.857 111.112 147.857 117.144C147.857 151.508 164.434 184.155 192.201 204.472C193.701 205.535 195.559 205.965 197.373 205.67C199.188 205.374 200.813 204.377 201.899 202.894C202.984 201.41 203.443 199.559 203.175 197.74C202.907 195.921 201.935 194.281 200.468 193.173C176.291 175.483 161.857 147.06 161.857 117.144C161.857 112.093 162.262 107.135 163.032 102.297L177.021 94.221C178.616 93.2861 179.776 91.7585 180.248 89.9714C180.721 88.1844 180.467 86.283 179.543 84.6821C178.619 83.0813 177.099 81.9111 175.315 81.4268C173.531 80.9424 171.628 81.1834 170.021 82.097L168.215 83.139C181.878 47.985 216.074 23 256 23C296.071 23 330.369 48.168 343.933 83.524L335.86 97.506C334.956 99.1124 334.721 101.011 335.208 102.789C335.695 104.567 336.863 106.081 338.46 107.003C340.056 107.924 341.952 108.179 343.735 107.711C345.518 107.244 347.045 106.092 347.984 104.505L349.034 102.687C349.773 107.47 350.145 112.303 350.144 117.143C350.144 169.054 307.911 211.287 255.999 211.287H127.266C125.409 211.287 123.629 212.025 122.316 213.337C121.003 214.65 120.266 216.431 120.266 218.288C120.266 220.144 121.003 221.925 122.316 223.238C123.629 224.55 125.409 225.288 127.266 225.288ZM201.794 146.612C204.86 143.546 203.724 139.988 203.303 138.971C202.882 137.954 201.17 134.636 196.831 134.636C190.678 134.636 185.672 129.629 185.672 123.476V110.811C185.672 104.658 190.678 99.652 196.831 99.652C201.17 99.652 202.882 96.334 203.303 95.317C203.724 94.299 204.861 90.743 201.792 87.675C197.441 83.323 197.441 76.242 201.792 71.891L210.748 62.935C215.1 58.585 222.18 58.585 226.531 62.935C229.596 66.003 233.154 64.867 234.173 64.447C235.19 64.025 238.508 62.314 238.508 57.975C238.508 51.822 243.514 46.815 249.667 46.815H262.333C268.486 46.815 273.492 51.822 273.492 57.975C273.492 62.314 276.81 64.025 277.827 64.447C278.846 64.867 282.403 66.003 285.469 62.935C289.821 58.585 296.901 58.585 301.252 62.935L310.208 71.891C314.559 76.243 314.559 83.324 310.208 87.675C307.14 90.742 308.276 94.299 308.697 95.317C309.118 96.334 310.83 99.652 315.169 99.652C321.322 99.652 326.328 104.658 326.328 110.811V123.476C326.328 129.629 321.322 134.636 315.169 134.636C310.83 134.636 309.118 137.954 308.697 138.971C308.276 139.988 307.139 143.545 310.208 146.614C312.315 148.719 313.477 151.523 313.477 154.505C313.477 157.487 312.316 160.29 310.206 162.398L301.252 171.353C299.146 173.46 296.342 174.622 293.36 174.622C290.378 174.622 287.575 173.461 285.467 171.351C282.402 168.286 278.844 169.42 277.826 169.842C276.809 170.263 273.491 171.975 273.491 176.314C273.491 182.467 268.485 187.473 262.332 187.473H249.666C243.513 187.473 238.507 182.467 238.507 176.314C238.507 171.964 235.192 170.252 234.176 169.832C233.161 169.412 229.605 168.277 226.53 171.353C224.424 173.46 221.62 174.622 218.638 174.622C215.656 174.622 212.853 173.461 210.745 171.351L201.79 162.397C199.683 160.291 198.521 157.487 198.521 154.505C198.521 151.523 199.685 148.72 201.794 146.612ZM216.237 133.613C219.183 140.727 218.136 148.45 213.571 154.376L218.768 159.573C224.698 155.002 232.42 153.949 239.534 156.897C246.646 159.842 251.364 166.047 252.326 173.472H259.675C260.637 166.054 265.356 159.854 272.469 156.907C279.584 153.961 287.306 155.007 293.232 159.573L298.429 154.376C293.864 148.448 292.817 140.728 295.763 133.613C298.71 126.5 304.91 121.781 312.328 120.819V113.469C304.91 112.507 298.71 107.787 295.763 100.674C292.817 93.56 293.864 85.837 298.429 79.911L293.232 74.714C287.305 79.28 279.583 80.327 272.47 77.38C265.356 74.434 260.637 68.233 259.674 60.815H252.326C251.363 68.233 246.644 74.434 239.53 77.38C232.415 80.326 224.695 79.278 218.768 74.714L213.571 79.911C218.136 85.837 219.183 93.559 216.237 100.674C213.29 107.787 207.09 112.507 199.672 113.469V120.819C207.09 121.781 213.29 126.5 216.237 133.613ZM218.571 117.145C218.571 96.506 235.361 79.716 256 79.716C276.639 79.716 293.429 96.506 293.429 117.145C293.429 137.784 276.639 154.574 256 154.574C235.361 154.574 218.571 137.783 218.571 117.145ZM232.571 117.145C232.571 130.064 243.081 140.574 256 140.574C268.919 140.574 279.429 130.064 279.429 117.145C279.429 104.226 268.919 93.716 256 93.716C243.081 93.716 232.571 104.226 232.571 117.145ZM121.33 389.494V486C121.33 495.374 113.704 503 104.331 503H26C16.626 503 9 495.374 9 486V389.494C9 380.12 16.626 372.494 26 372.494H104.331C113.704 372.494 121.33 380.12 121.33 389.494ZM107.33 389.494C107.33 387.84 105.984 386.494 104.331 386.494H26C24.346 386.494 23 387.84 23 389.494V486C23 487.654 24.346 489 26 489H104.331C105.126 488.999 105.889 488.682 106.451 488.12C107.013 487.558 107.329 486.795 107.33 486V389.494ZM89.111 456.235H41.219C39.3625 456.235 37.582 456.973 36.2693 458.285C34.9565 459.598 34.219 461.378 34.219 463.235C34.219 465.091 34.9565 466.872 36.2693 468.185C37.582 469.497 39.3625 470.235 41.219 470.235H89.112C90.9685 470.235 92.7489 469.497 94.0616 468.184C95.3743 466.872 96.1116 465.091 96.1115 463.234C96.1114 461.378 95.3737 459.598 94.0609 458.285C92.748 456.972 90.9675 456.235 89.111 456.235ZM89.111 430.747H41.219C39.3625 430.747 37.582 431.484 36.2693 432.797C34.9565 434.11 34.219 435.891 34.219 437.747C34.219 439.604 34.9565 441.384 36.2693 442.697C37.582 444.009 39.3625 444.747 41.219 444.747H89.112C90.0312 444.747 90.9415 444.566 91.7907 444.214C92.64 443.862 93.4116 443.346 94.0616 442.696C94.7116 442.046 95.2271 441.275 95.5788 440.425C95.9306 439.576 96.1116 438.666 96.1115 437.746C96.1114 436.827 95.9303 435.917 95.5785 435.068C95.2266 434.219 94.711 433.447 94.0609 432.797C93.4108 432.147 92.6391 431.631 91.7898 431.28C90.9405 430.928 90.0303 430.747 89.111 430.747ZM89.111 405.26H41.219C39.3625 405.26 37.582 405.997 36.2693 407.31C34.9565 408.623 34.219 410.404 34.219 412.26C34.219 414.117 34.9565 415.897 36.2693 417.21C37.582 418.522 39.3625 419.26 41.219 419.26H89.112C90.9685 419.26 92.7489 418.522 94.0616 417.209C95.3743 415.897 96.1116 414.116 96.1115 412.259C96.1114 410.403 95.3737 408.623 94.0609 407.31C92.748 405.997 90.9675 405.26 89.111 405.26ZM312.165 389.494V486C312.165 495.374 304.539 503 295.165 503H216.835C207.461 503 199.835 495.374 199.835 486V389.494C199.835 380.12 207.461 372.494 216.835 372.494H295.165C304.539 372.494 312.165 380.12 312.165 389.494ZM298.165 389.494C298.165 387.84 296.819 386.494 295.165 386.494H216.835C215.181 386.494 213.835 387.84 213.835 389.494V486C213.835 487.654 215.181 489 216.835 489H295.165C296.819 489 298.165 487.654 298.165 486V389.494ZM279.946 456.235H232.053C230.196 456.235 228.416 456.973 227.103 458.285C225.79 459.598 225.053 461.378 225.053 463.235C225.053 465.091 225.79 466.872 227.103 468.185C228.416 469.497 230.196 470.235 232.053 470.235H279.946C281.803 470.235 283.583 469.497 284.896 468.185C286.208 466.872 286.946 465.091 286.946 463.235C286.946 461.378 286.208 459.598 284.896 458.285C283.583 456.973 281.803 456.235 279.946 456.235ZM279.946 405.26H232.053C230.196 405.26 228.416 405.997 227.103 407.31C225.79 408.623 225.053 410.404 225.053 412.26C225.053 414.117 225.79 415.897 227.103 417.21C228.416 418.522 230.196 419.26 232.053 419.26H279.946C281.803 419.26 283.583 418.522 284.896 417.21C286.208 415.897 286.946 414.117 286.946 412.26C286.946 410.404 286.208 408.623 284.896 407.31C283.583 405.997 281.803 405.26 279.946 405.26ZM279.946 430.747H232.053C230.196 430.747 228.416 431.484 227.103 432.797C225.79 434.11 225.053 435.891 225.053 437.747C225.053 439.604 225.79 441.384 227.103 442.697C228.416 444.009 230.196 444.747 232.053 444.747H279.946C281.803 444.747 283.583 444.009 284.896 442.697C286.208 441.384 286.946 439.604 286.946 437.747C286.946 435.891 286.208 434.11 284.896 432.797C283.583 431.484 281.803 430.747 279.946 430.747ZM503 389.494V486C503 495.374 495.374 503 486 503H407.67C398.296 503 390.67 495.374 390.67 486V389.494C390.67 380.12 398.296 372.494 407.67 372.494H486C495.374 372.494 503 380.12 503 389.494ZM489 389.494C489 387.84 487.654 386.494 486 386.494H407.67C406.016 386.494 404.67 387.84 404.67 389.494V486C404.67 487.654 406.016 489 407.67 489H486C487.654 489 489 487.654 489 486V389.494ZM470.781 405.26H422.888C421.031 405.26 419.251 405.997 417.938 407.31C416.626 408.623 415.888 410.404 415.888 412.26C415.888 414.117 416.626 415.897 417.938 417.21C419.251 418.522 421.031 419.26 422.888 419.26H470.781C472.638 419.26 474.418 418.522 475.731 417.21C477.043 415.897 477.781 414.117 477.781 412.26C477.781 410.404 477.043 408.623 475.731 407.31C474.418 405.997 472.638 405.26 470.781 405.26ZM470.781 430.747H422.888C421.031 430.747 419.251 431.484 417.938 432.797C416.626 434.11 415.888 435.891 415.888 437.747C415.888 439.604 416.626 441.384 417.938 442.697C419.251 444.009 421.031 444.747 422.888 444.747H470.781C472.638 444.747 474.418 444.009 475.731 442.697C477.043 441.384 477.781 439.604 477.781 437.747C477.781 435.891 477.043 434.11 475.731 432.797C474.418 431.484 472.638 430.747 470.781 430.747ZM470.781 456.235H422.888C421.031 456.235 419.251 456.973 417.938 458.285C416.626 459.598 415.888 461.378 415.888 463.235C415.888 465.091 416.626 466.872 417.938 468.185C419.251 469.497 421.031 470.235 422.888 470.235H470.781C472.638 470.235 474.418 469.497 475.731 468.185C477.043 466.872 477.781 465.091 477.781 463.235C477.781 461.378 477.043 459.598 475.731 458.285C474.418 456.973 472.638 456.235 470.781 456.235ZM65.165 366.493C67.0215 366.493 68.802 365.755 70.1147 364.443C71.4275 363.13 72.165 361.35 72.165 359.493V305.89H249V359.493C249 361.35 249.737 363.13 251.05 364.443C252.363 365.755 254.143 366.493 256 366.493C257.857 366.493 259.637 365.755 260.95 364.443C262.262 363.13 263 361.35 263 359.493V305.89H439.835V359.493C439.835 361.35 440.573 363.13 441.885 364.443C443.198 365.755 444.978 366.493 446.835 366.493C448.691 366.493 450.472 365.755 451.785 364.443C453.098 363.13 453.835 361.35 453.835 359.493V298.89C453.835 297.034 453.098 295.253 451.785 293.94C450.472 292.628 448.691 291.89 446.835 291.89H263V238.288C263 236.431 262.262 234.651 260.95 233.338C259.637 232.025 257.857 231.288 256 231.288C254.143 231.288 252.363 232.025 251.05 233.338C249.737 234.651 249 236.431 249 238.288V291.89H65.165C63.3085 291.89 61.528 292.628 60.2153 293.94C58.9025 295.253 58.165 297.034 58.165 298.89V359.493C58.165 361.35 58.9025 363.13 60.2153 364.443C61.528 365.755 63.3085 366.493 65.165 366.493Z" fill="#D68029"/>
</svg>
