<svg width="512" height="512" viewBox="0 0 512 512" fill="none" xmlns="http://www.w3.org/2000/svg">
<path d="M29.748 474.789H117.306V290.844H29.748V474.789ZM42.6334 303.775H104.409V461.909H42.6334V303.775ZM151.399 474.789H238.957V222.577H151.399V474.789ZM164.29 235.508H226.066V461.909H164.29V235.508ZM273.056 474.789H360.614V290.844H273.056V474.789ZM285.947 303.775H347.723V461.909H285.947V303.775ZM394.724 474.789H482.282V154.709H394.724V474.789ZM407.61 167.623H469.391V461.909H407.61V167.623Z" fill="#D68029"/>
<path d="M401.568 73.6993C401.568 81.8799 404.259 89.4006 408.793 95.5332L337.21 179.12C331.183 175.099 324.1 172.954 316.855 172.953C311.294 172.959 305.806 174.223 300.803 176.652C295.8 179.08 291.411 182.61 287.967 186.976L230.213 153.201C231.471 149.467 232.113 145.553 232.113 141.613C232.113 121.315 215.456 104.692 195.17 104.692C174.838 104.692 158.249 121.315 158.249 141.613C158.249 145.669 158.926 149.526 160.149 153.167L102.395 186.976C98.9509 182.61 94.5625 179.08 89.5595 176.652C84.5565 174.223 79.0685 172.959 73.5072 172.953C53.1865 172.953 36.5977 189.576 36.5977 209.908C36.5977 230.229 53.1865 246.795 73.5072 246.795C93.8051 246.795 110.462 230.229 110.462 209.908C110.462 205.841 109.774 201.967 108.528 198.32L166.282 164.511C169.726 168.877 174.114 172.407 179.117 174.836C184.12 177.264 189.608 178.529 195.17 178.534C200.727 178.522 206.209 177.259 211.21 174.837C216.212 172.415 220.603 168.897 224.058 164.545L281.8 198.326C280.547 202.061 279.906 205.974 279.9 209.914C279.9 230.235 296.523 246.801 316.855 246.801C337.176 246.801 353.765 230.235 353.765 209.914C353.753 202.047 351.221 194.391 346.54 188.069L418.151 104.459C424.178 108.481 431.261 110.627 438.506 110.626C458.827 110.626 475.427 94.0257 475.427 73.7049C475.433 53.4013 458.833 36.8125 438.512 36.8125C418.191 36.8125 401.568 53.4013 401.568 73.6993ZM462.548 73.6993C462.548 87.0681 451.847 97.7234 438.512 97.7234C425.177 97.7234 414.476 87.0681 414.476 73.6993C414.476 60.3645 425.177 49.6865 438.512 49.6865C451.847 49.6865 462.548 60.3645 462.548 73.6993ZM219.171 141.613C219.187 144.771 218.577 147.901 217.377 150.822C216.177 153.743 214.41 156.397 212.179 158.632C209.947 160.867 207.295 162.637 204.376 163.842C201.457 165.046 198.328 165.66 195.17 165.649C192.009 165.664 188.877 165.052 185.954 163.85C183.031 162.647 180.375 160.877 178.14 158.643C175.906 156.408 174.136 153.752 172.933 150.829C171.731 147.906 171.119 144.774 171.134 141.613C171.122 138.455 171.736 135.326 172.94 132.406C174.144 129.486 175.914 126.834 178.149 124.603C180.384 122.371 183.039 120.604 185.96 119.404C188.881 118.204 192.012 117.595 195.17 117.612C198.325 117.598 201.453 118.21 204.371 119.411C207.289 120.613 209.94 122.38 212.172 124.611C214.403 126.843 216.17 129.494 217.372 132.412C218.573 135.33 219.185 138.458 219.171 141.613ZM97.5029 209.908C97.5149 213.064 96.9023 216.19 95.7004 219.107C94.4985 222.025 92.731 224.676 90.4999 226.907C88.2687 229.138 85.6181 230.905 82.7006 232.107C79.7832 233.309 76.6568 233.922 73.5015 233.91C70.3443 233.925 67.2154 233.314 64.2953 232.114C61.3753 230.913 58.7219 229.146 56.4883 226.915C54.2548 224.683 52.4853 222.032 51.2819 219.113C50.0786 216.194 49.4652 213.066 49.4773 209.908C49.4607 206.747 50.0706 203.614 51.2715 200.689C52.4725 197.765 54.2409 195.107 56.4745 192.87C58.7081 190.632 61.3628 188.86 64.2852 187.654C67.2077 186.448 70.3401 185.833 73.5015 185.844C76.661 185.836 79.7909 186.453 82.7107 187.66C85.6305 188.868 88.2825 190.641 90.5137 192.878C92.7449 195.115 94.5112 197.771 95.7108 200.694C96.9104 203.617 97.5194 206.749 97.5029 209.908ZM340.879 209.908C340.879 223.232 330.19 233.91 316.855 233.91C303.52 233.91 292.82 223.232 292.82 209.908C292.808 206.747 293.421 203.615 294.624 200.692C295.827 197.769 297.597 195.112 299.831 192.876C302.065 190.639 304.719 188.867 307.641 187.66C310.562 186.453 313.694 185.836 316.855 185.844C320.016 185.835 323.148 186.451 326.07 187.657C328.991 188.863 331.645 190.636 333.879 192.873C336.112 195.11 337.88 197.767 339.082 200.691C340.283 203.615 340.894 206.747 340.879 209.908Z" fill="#D68029"/>
</svg>
