<svg width="512" height="512" viewBox="0 0 512 512" fill="none" xmlns="http://www.w3.org/2000/svg">
<path d="M120 424H200V440H120V424Z" fill="#D68029"/>
<path d="M48 56C52.4183 56 56 52.4183 56 48C56 43.5817 52.4183 40 48 40C43.5817 40 40 43.5817 40 48C40 52.4183 43.5817 56 48 56Z" fill="#D68029"/>
<path d="M104 40H200V56H104V40ZM216 168C214.664 168 213.312 168.072 211.92 168.208C207.036 154.096 197.864 141.863 185.686 133.219C173.508 124.576 158.934 119.954 144 120C128.793 119.983 113.973 124.793 101.675 133.739C89.3765 142.684 80.2354 155.302 75.5684 169.776C65.3507 172.441 56.31 178.43 49.8705 186.799C43.431 195.167 39.9586 205.441 40.0004 216C40.0004 242.472 61.5284 264 88.0004 264H216C242.472 264 264 242.472 264 216C264 189.528 242.472 168 216 168ZM216 248H88.0004C70.3524 248 56.0004 233.648 56.0004 216C55.98 208.363 58.7144 200.974 63.7018 195.19C68.6892 189.406 75.5952 185.615 83.1524 184.512L88.4244 183.704L89.7044 178.528C92.6856 166.383 99.6571 155.591 109.502 147.88C119.347 140.169 131.495 135.985 144 136C156.626 135.963 168.89 140.214 178.784 148.056C188.679 155.898 195.617 166.868 198.464 179.168L200.32 187.08L208.2 185.096C211.168 184.344 213.64 184 216 184C233.648 184 248 198.352 248 216C248 233.648 233.648 248 216 248ZM127.432 368C127.432 381.232 138.2 392 151.432 392C164.664 392 175.432 381.232 175.432 368C175.432 354.768 164.664 344 151.432 344C138.2 344 127.432 354.768 127.432 368ZM159.432 368C159.432 370.122 158.59 372.157 157.089 373.657C155.589 375.157 153.554 376 151.432 376C149.311 376 147.276 375.157 145.776 373.657C144.275 372.157 143.432 370.122 143.432 368C143.432 365.878 144.275 363.843 145.776 362.343C147.276 360.843 149.311 360 151.432 360C153.554 360 155.589 360.843 157.089 362.343C158.59 363.843 159.432 365.878 159.432 368ZM191.032 328.408C180.456 317.832 166.392 312 151.432 312C136.472 312 122.408 317.832 111.84 328.408L123.152 339.72C126.857 335.994 131.265 333.04 136.119 331.028C140.973 329.016 146.178 327.987 151.432 328C162.12 328 172.168 332.168 179.72 339.72L191.032 328.408Z" fill="#D68029"/>
<path d="M89.1992 305.776L100.511 317.088C128.591 289.008 174.263 289.008 202.343 317.088L213.655 305.776C179.343 271.464 123.511 271.464 89.1992 305.776Z" fill="#D68029"/>
<path d="M457.472 304C459.117 308.666 462.165 312.708 466.198 315.573C470.232 318.438 475.053 319.984 480 320C493.232 320 504 309.232 504 296C504 282.768 493.232 272 480 272C475.053 272.016 470.232 273.562 466.198 276.427C462.165 279.292 459.117 283.334 457.472 288H296V272H371.312L419.312 224H457.472C459.117 228.666 462.165 232.708 466.198 235.573C470.232 238.438 475.053 239.984 480 240C493.232 240 504 229.232 504 216C504 202.768 493.232 192 480 192C475.053 192.016 470.232 193.562 466.198 196.427C462.165 199.292 459.117 203.334 457.472 208H412.688L364.688 256H296V199.496C312.69 210.271 332.134 216.001 352 216C409.344 216 456 169.344 456 112C456 54.656 409.344 8 352 8C329.032 8 307.848 15.576 290.616 28.24C283.632 16.072 270.544 8 256 8H48C25.944 8 8 25.944 8 48V464C8 486.056 25.944 504 48 504H256C278.056 504 296 486.056 296 464V336H364.688L412.688 384H457.472C459.117 388.666 462.165 392.708 466.198 395.573C470.232 398.438 475.053 399.984 480 400C493.232 400 504 389.232 504 376C504 362.768 493.232 352 480 352C475.053 352.016 470.232 353.562 466.198 356.427C462.165 359.292 459.117 363.334 457.472 368H419.312L371.312 320H296V304H457.472ZM480 288C482.122 288 484.157 288.843 485.657 290.343C487.157 291.843 488 293.878 488 296C488 298.122 487.157 300.157 485.657 301.657C484.157 303.157 482.122 304 480 304C477.878 304 475.843 303.157 474.343 301.657C472.843 300.157 472 298.122 472 296C472 293.878 472.843 291.843 474.343 290.343C475.843 288.843 477.878 288 480 288ZM480 208C482.122 208 484.157 208.843 485.657 210.343C487.157 211.843 488 213.878 488 216C488 218.122 487.157 220.157 485.657 221.657C484.157 223.157 482.122 224 480 224C477.878 224 475.843 223.157 474.343 221.657C472.843 220.157 472 218.122 472 216C472 213.878 472.843 211.843 474.343 210.343C475.843 208.843 477.878 208 480 208ZM480 368C482.122 368 484.157 368.843 485.657 370.343C487.157 371.843 488 373.878 488 376C488 378.122 487.157 380.157 485.657 381.657C484.157 383.157 482.122 384 480 384C477.878 384 475.843 383.157 474.343 381.657C472.843 380.157 472 378.122 472 376C472 373.878 472.843 371.843 474.343 370.343C475.843 368.843 477.878 368 480 368ZM322.288 29.272C317.856 36.624 314.104 45.64 311.16 56H284.176C294.26 43.842 307.422 34.6118 322.288 29.272ZM376.072 56H327.92C334.24 36.216 343.4 24 352 24C360.6 24 369.76 36.216 376.072 56ZM439.592 104H399.824C399.518 93.2676 398.424 82.5722 396.552 72H430.28C435.416 81.9673 438.578 92.8331 439.592 104ZM352 200C343.4 200 334.24 187.784 327.928 168H376.08C369.76 187.784 360.6 200 352 200ZM323.848 152C321.756 141.451 320.525 130.749 320.168 120H383.832C383.471 130.748 382.24 141.45 380.152 152H323.848ZM399.824 120H439.592C438.574 131.166 435.412 142.031 430.28 152H396.552C398.352 142.104 399.464 131.352 399.824 120ZM383.832 104H320.168C320.529 93.2515 321.76 82.5499 323.848 72H380.152C382.104 81.672 383.416 92.424 383.832 104ZM273.712 72H307.44C305.568 82.5722 304.474 93.2676 304.168 104H264.4C265.422 92.8346 268.583 81.9703 273.712 72ZM304.176 120C304.544 131.352 305.648 142.104 307.448 152H273.72C268.591 142.03 265.43 131.165 264.408 120H304.176ZM311.16 168C314.104 178.36 317.856 187.376 322.288 194.728C307.42 189.391 294.258 180.16 284.176 168H311.16ZM381.712 194.728C386.136 187.376 389.896 178.36 392.84 168H419.824C409.74 180.158 396.578 189.388 381.712 194.728ZM419.832 56H392.848C389.904 45.64 386.152 36.624 381.72 29.272C396.584 34.616 409.744 43.8454 419.832 56ZM48 24H256C265.776 24 274.512 30.056 278.16 38.864C268.722 48.3851 261.206 59.6355 256.024 72H24V48C24 34.768 34.768 24 48 24ZM256 488H48C34.768 488 24 477.232 24 464V463.792C30.8831 469.086 39.3162 471.971 48 472H256C265.04 472 273.296 468.872 280 463.792V464C280 477.232 269.232 488 256 488ZM256 456H48C34.768 456 24 445.232 24 432V88H250.904C249.004 95.8594 248.029 103.914 248 112C248 141.4 260.32 167.936 280 186.872V432C280 445.232 269.232 456 256 456Z" fill="#D68029"/>
</svg>
