<svg xmlns="http://www.w3.org/2000/svg" width="576" height="563" viewBox="0 0 576 563" fill="none"><g clip-path="url(#clip0_3323_825)"><path d="M558.245 218.23C494.479 108.942 321.338 147.862 285.98 94.6943C267.91 67.5025 247.582 35.967 218.218 19.5477C190.244 3.82341 157.753 -1.64969 129.432 0.435301C28.3971 7.81964 -14.4321 98.2561 4.94093 197.554C30.8296 330.038 148.284 465.301 287.805 466.257C360.779 466.778 430.54 440.629 485.097 403.794L486.313 403.012C540.957 365.83 606.982 301.716 558.245 218.23Z" fill="#D68029"></path><path opacity="0.7" d="M558.245 218.23C494.479 108.942 321.338 147.862 285.98 94.6943C267.91 67.5025 247.582 35.967 218.218 19.5477C190.244 3.82341 157.753 -1.64969 129.432 0.435301C28.3971 7.81964 -14.4321 98.2561 4.94093 197.554C30.8296 330.038 148.284 465.301 287.805 466.257C360.779 466.778 430.54 440.629 485.097 403.794L486.313 403.012C540.957 365.83 606.982 301.716 558.245 218.23Z" fill="white"></path><path d="M62.8978 226.229H55.7741C39.876 226.229 27.1055 239.086 27.1055 254.897V412.401C27.1055 428.299 39.9629 441.069 55.7741 441.069H153.161C169.059 441.069 181.829 428.212 181.829 412.401" stroke="#263238" stroke-width="0.958227" stroke-linecap="round" stroke-linejoin="round" stroke-dasharray="3.83 3.83"></path><path d="M173.924 77.5863V46.3983C173.924 36.7552 181.743 28.8496 191.472 28.8496H318.049C327.779 28.8496 335.597 36.7552 335.597 46.3983" stroke="#263238" stroke-width="0.958227" stroke-linecap="round" stroke-linejoin="round" stroke-dasharray="3.83 3.83"></path><path d="M287.826 562.576C426.294 562.576 538.546 546.901 538.546 527.565C538.546 508.229 426.294 492.555 287.826 492.555C149.357 492.555 37.1055 508.229 37.1055 527.565C37.1055 546.901 149.357 562.576 287.826 562.576Z" fill="#D68029"></path><path opacity="0.5" d="M287.826 562.576C426.294 562.576 538.546 546.901 538.546 527.565C538.546 508.229 426.294 492.555 287.826 492.555C149.357 492.555 37.1055 508.229 37.1055 527.565C37.1055 546.901 149.357 562.576 287.826 562.576Z" fill="white"></path><path d="M524.165 119.338V355.029C524.165 371.101 511.134 384.045 495.149 384.132H80.4966C64.5117 384.045 51.4805 371.101 51.4805 355.029V119.338C51.4805 118.643 51.4805 117.948 51.5673 117.253C52.6098 102.05 65.2935 90.2354 80.4966 90.2354H495.062C510.352 90.2354 522.949 102.05 523.992 117.34C524.165 117.948 524.165 118.643 524.165 119.338Z" fill="white" stroke="#263238" stroke-width="0.958227" stroke-linecap="round" stroke-linejoin="round"></path><path d="M65.6426 128.112H511.57V345.82C511.57 360.849 499.408 373.012 484.378 373.012H92.8343C77.805 373.012 65.6426 360.849 65.6426 345.82V128.112Z" fill="#263238"></path><path opacity="0.2" d="M511.568 128.112V345.82C511.655 360.763 499.58 372.925 484.637 373.012H92.5722C77.6298 372.925 65.5542 360.763 65.6411 345.82V128.112H511.568Z" fill="white"></path><path d="M524.077 117.34H51.5664C52.6089 102.137 65.2926 90.3223 80.4957 90.3223H495.061C510.351 90.3223 523.035 102.137 524.077 117.34Z" fill="#D68029" stroke="#263238" stroke-width="0.958227" stroke-miterlimit="10"></path><path d="M109.599 103.788C109.599 106.655 107.253 108.914 104.473 108.914C101.606 108.914 99.3477 106.568 99.3477 103.788C99.3477 101.008 101.693 98.6625 104.473 98.6625C107.34 98.5756 109.599 100.921 109.599 103.788Z" fill="#263238"></path><path d="M131.404 103.788C131.404 106.655 129.058 108.914 126.278 108.914C123.498 108.914 121.152 106.568 121.152 103.788C121.152 101.008 123.498 98.6625 126.278 98.6625C129.058 98.5756 131.404 100.921 131.404 103.788Z" fill="#263238"></path><path d="M147.997 108.913C150.827 108.913 153.122 106.619 153.122 103.788C153.122 100.957 150.827 98.6621 147.997 98.6621C145.166 98.6621 142.871 100.957 142.871 103.788C142.871 106.619 145.166 108.913 147.997 108.913Z" fill="#263238"></path><path d="M511.483 128.112V345.82C511.483 360.849 499.321 373.012 484.291 373.012H92.8343C79.8031 373.012 68.6832 363.803 66.1638 351.033V350.946C65.8163 349.208 65.6426 347.471 65.6426 345.733V128.112H511.483Z" stroke="#263238" stroke-width="0.958227" stroke-miterlimit="10"></path><path d="M511.135 161.82C509.223 160.778 507.225 159.909 505.053 159.301L502.621 148.354H492.196L489.764 159.301C487.679 159.909 485.594 160.691 483.682 161.82L474.3 155.826L466.916 163.123L472.823 172.506C471.78 174.417 470.912 176.502 470.304 178.587L459.357 181.019V191.444L470.304 193.877C470.912 196.049 471.694 198.047 472.823 199.958L466.829 209.427L474.213 216.812L483.682 210.817C485.594 211.86 487.592 212.729 489.764 213.337L492.196 224.283H502.534L504.967 213.337C507.052 212.729 509.137 211.86 511.048 210.817L511.569 211.165V161.646L511.135 161.82ZM497.408 199.784C490.024 199.784 483.943 193.79 483.943 186.319C483.943 178.934 489.937 172.853 497.408 172.853C504.88 172.853 510.874 178.847 510.874 186.319C510.874 193.79 504.88 199.784 497.408 199.784Z" fill="#263238"></path><path d="M323.745 172.332V150.44L300.723 145.314C299.507 140.884 297.682 136.54 295.511 132.544L298.291 128.2H189.524L192.217 132.457C189.958 136.453 188.22 140.797 187.004 145.228L163.982 150.353V172.332L187.004 177.458C188.22 181.976 189.958 186.232 192.217 190.316L179.533 210.21L195.084 225.674L214.978 212.99C218.974 215.249 223.318 217.073 227.748 218.289L232.874 241.224H254.766L259.892 218.202C264.323 216.986 268.579 215.162 272.663 212.903L292.557 225.587L308.021 210.123L295.424 190.229C297.682 186.232 299.42 181.889 300.636 177.458L323.745 172.332ZM243.907 189.707C228.27 189.707 215.586 177.024 215.586 161.386C215.586 145.749 228.27 133.065 243.907 133.065C259.544 133.065 272.228 145.749 272.228 161.386C272.228 177.024 259.544 189.707 243.907 189.707Z" fill="#263238"></path><path d="M317.403 296.91C318.098 294.217 318.446 291.437 318.446 288.657L330.956 282.141L327.481 269.458L313.407 270.153C312.017 267.807 310.279 265.548 308.368 263.637L312.538 250.171L301.158 243.656L291.601 254.081C288.908 253.473 286.128 253.038 283.435 253.038L276.92 240.528L264.236 244.003L264.931 258.164C262.585 259.554 260.327 261.291 258.415 263.203L244.863 259.033L238.347 270.413L248.859 279.969C248.164 282.663 247.817 285.442 247.817 288.136L235.307 294.651L238.782 307.335L252.942 306.64C254.332 308.986 256.07 311.244 257.981 313.155L253.811 326.621L265.192 333.137L274.661 322.799C277.354 323.494 280.134 323.841 282.914 323.841L289.43 336.351L302.113 332.876L301.592 320.8L301.505 318.715C303.938 317.325 306.109 315.588 308.108 313.677L321.573 317.847L327.133 308.117L328.089 306.466L317.403 296.91ZM287.431 304.642C278.396 307.161 269.014 301.862 266.495 292.74C263.975 283.705 269.275 274.323 278.396 271.803C287.431 269.284 296.814 274.583 299.333 283.705V283.792C301.853 292.827 296.466 302.122 287.431 304.642Z" fill="#263238"></path><path d="M462.398 319.236L465.265 301.861L447.63 294.737C447.195 291.002 446.413 287.353 445.11 283.878L457.794 269.718L447.543 255.296L430.081 262.681C427.214 260.335 424 258.424 420.612 256.773L419.569 237.835L402.194 234.968L395.071 252.516C391.335 252.951 387.773 253.82 384.211 255.036L370.051 242.352L355.716 252.69L363.188 270.152C361.103 272.671 359.365 275.451 357.888 278.405C357.715 278.839 357.454 279.187 357.28 279.621L338.341 280.664L335.475 298.039L338.341 299.168L353.11 305.162C353.545 308.898 354.326 312.46 355.63 315.935L342.946 330.182L353.197 344.604L370.659 337.132C373.526 339.478 376.74 341.476 380.128 343.04L381.084 361.892L398.459 364.758L405.582 347.384C409.318 346.949 412.967 346.167 416.442 344.864L430.602 357.548L445.023 347.297L437.552 329.835C439.898 326.968 441.896 323.754 443.547 320.366L462.398 319.236ZM413.488 318.454C422.523 318.454 429.82 311.157 429.82 302.122C429.82 293.087 422.523 285.789 413.488 285.789C404.453 285.789 397.156 293.087 397.156 302.122C397.156 311.157 404.453 318.454 413.488 318.454Z" fill="#263238"></path><path d="M83.7146 190.326H232.183C238.438 190.326 243.564 195.452 243.564 201.707V402.821C243.564 409.076 238.438 414.202 232.183 414.202H83.7146C77.4596 414.202 72.334 409.076 72.334 402.821V201.707C72.334 195.452 77.4596 190.326 83.7146 190.326Z" fill="#D68029" stroke="#263238" stroke-width="0.958227" stroke-miterlimit="10"></path><path opacity="0.2" d="M83.7146 190.326H232.183C238.438 190.326 243.564 195.452 243.564 201.707V402.821C243.564 409.076 238.438 414.202 232.183 414.202H83.7146C77.4596 414.202 72.334 409.076 72.334 402.821V201.707C72.334 195.452 77.4596 190.326 83.7146 190.326Z" fill="black"></path><path d="M259.461 224.38V413.94C259.461 423.41 251.816 431.141 242.347 431.141H105.433C95.9633 431.141 88.3184 423.41 88.3184 413.94V224.38C88.3184 214.911 95.9633 207.266 105.433 207.179H242.347C251.816 207.266 259.461 214.911 259.461 224.38Z" fill="white" stroke="#263238" stroke-width="0.958227" stroke-linecap="round" stroke-linejoin="round"></path><path d="M259.461 224.38V234.544H88.3184V224.38C88.3184 214.911 95.9633 207.266 105.433 207.179H242.347C251.816 207.266 259.461 214.911 259.461 224.38Z" fill="#D68029" stroke="#263238" stroke-width="0.958227" stroke-miterlimit="10"></path><path d="M146.525 246.272H104.391V253.309H146.525V246.272Z" fill="#D68029"></path><path d="M146.525 309.604H104.391V316.641H146.525V309.604Z" fill="#D68029"></path><path d="M146.525 367.115H104.391V374.152H146.525V367.115Z" fill="#D68029"></path><path d="M224.017 263.821H104.391V269.034H224.017V263.821Z" fill="#263238"></path><path d="M202.472 273.726H104.391V278.764H202.472V273.726Z" fill="#263238"></path><path d="M215.33 283.455H104.391V288.494H215.33V283.455Z" fill="#263238"></path><path d="M215.33 293.185H104.391V298.223H215.33V293.185Z" fill="#263238"></path><path d="M224.017 321.245H104.391V326.458H224.017V321.245Z" fill="#263238"></path><path d="M202.472 331.149H104.391V336.188H202.472V331.149Z" fill="#263238"></path><path d="M215.33 340.879H104.391V345.918H215.33V340.879Z" fill="#263238"></path><path d="M224.017 384.316H104.391V389.529H224.017V384.316Z" fill="#263238"></path><path d="M202.472 394.22H104.391V399.258H202.472V394.22Z" fill="#263238"></path><path d="M215.33 404.037H104.391V409.076H215.33V404.037Z" fill="#263238"></path><path d="M452.498 75.8247V152.448C452.498 163.742 443.376 172.95 431.996 172.95H255.553C244.259 172.95 235.051 163.829 235.051 152.535V75.8247C235.051 64.531 244.259 55.3223 255.553 55.3223H431.996C443.289 55.3223 452.498 64.531 452.498 75.8247Z" fill="white" stroke="#222221" stroke-width="0.958227" stroke-miterlimit="10"></path><path d="M452.498 75.8247V77.5622H235.051V75.8247C235.051 64.531 244.259 55.3223 255.553 55.3223H431.996C443.289 55.3223 452.498 64.531 452.498 75.8247Z" fill="#D68029" stroke="#263238" stroke-width="0.958227" stroke-miterlimit="10"></path><path d="M267.019 70.0908C265.802 71.3071 263.804 71.3071 262.588 70.0908C261.372 68.8746 261.372 66.8765 262.588 65.6602C263.804 64.444 265.802 64.444 267.019 65.6602C268.235 66.8765 268.235 68.8746 267.019 70.0908Z" fill="#263238"></path><path d="M281.614 70.0908C280.398 71.3071 278.4 71.3071 277.184 70.0908C275.967 68.8746 275.967 66.8765 277.184 65.6602C278.4 64.444 280.398 64.444 281.614 65.6602C282.831 66.8765 282.831 68.8746 281.614 70.0908Z" fill="#263238"></path><path d="M296.122 70.0908C294.906 71.3071 292.908 71.3071 291.691 70.0908C290.475 68.8746 290.475 66.8765 291.691 65.6602C292.908 64.444 294.906 64.444 296.122 65.6602C297.338 66.8765 297.338 68.8746 296.122 70.0908Z" fill="#263238"></path><path d="M320.015 91.6357H248.951V153.056H320.015V91.6357Z" stroke="#263238" stroke-width="0.958227" stroke-linecap="round" stroke-linejoin="round" stroke-dasharray="3.83 3.83"></path><path d="M412.708 91.6357H330.959V95.9795H412.708V91.6357Z" fill="#263238"></path><path d="M393.682 100.584H330.959V104.928H393.682V100.584Z" fill="#263238"></path><path d="M424.349 109.445H330.959V113.789H424.349V109.445Z" fill="#263238"></path><path d="M410.536 118.133H330.959V122.477H410.536V118.133Z" fill="#263238"></path><path d="M415.575 265.906H461.358C464.485 265.906 467.004 268.426 467.004 271.553V300.743C467.004 303.87 464.485 306.39 461.358 306.39H415.575C412.447 306.39 409.928 303.87 409.928 300.743V271.64C409.841 268.512 412.447 265.906 415.575 265.906Z" fill="white" stroke="#263238" stroke-width="0.958227" stroke-linecap="round" stroke-linejoin="round"></path><path d="M428.259 278.155L417.312 285.018L427.477 294.053" stroke="#263238" stroke-width="0.958227" stroke-linecap="round" stroke-linejoin="round"></path><path d="M448.326 294.749L458.23 286.322L446.85 278.851" stroke="#263238" stroke-width="0.958227" stroke-linecap="round" stroke-linejoin="round"></path><path d="M433.646 299.874L441.726 274.507" stroke="#263238" stroke-width="0.958227" stroke-linecap="round" stroke-linejoin="round"></path><path d="M349.149 521.122C349.149 521.122 311.185 531.982 305.886 533.893C301.108 535.63 287.99 540.148 278.173 538.758C277.217 538.584 276.262 538.41 275.393 538.15C265.489 535.196 260.972 532.416 259.669 526.161C258.365 519.906 263.317 515.302 268.095 512.348C272.874 509.394 298.675 506.354 298.675 506.354L304.93 508.178L349.149 521.122Z" fill="#D68029"></path><path d="M278.259 538.758C277.303 538.584 276.348 538.41 275.479 538.15C265.575 535.196 261.058 532.416 259.755 526.161C258.451 519.906 263.403 515.302 268.181 512.348C272.959 509.394 298.761 506.354 298.761 506.354L305.016 508.178C299.369 510.784 278.346 512.261 273.741 514.867C269.137 517.473 266.965 522.512 269.658 529.288C271.048 532.85 274.871 536.325 278.259 538.758Z" fill="white"></path><path d="M343.502 522.686C343.502 522.686 315.008 530.07 303.714 534.762C292.42 539.453 270.788 541.625 263.057 531.808C255.325 521.991 262.188 513.651 269.833 511.827C277.478 510.002 293.028 507.049 301.542 508.178" stroke="#263238" stroke-width="0.958227" stroke-linecap="round" stroke-linejoin="round"></path><path d="M278.781 538.236C278.781 538.236 264.273 530.244 269.052 519.124C272.613 510.871 291.986 512.695 301.543 508.178" stroke="#263238" stroke-width="0.958227" stroke-linecap="round" stroke-linejoin="round"></path><path d="M464.779 540.495C464.345 544.404 463.042 548.14 459.046 550.399C456.44 551.962 452.704 552.831 447.405 552.831C434.113 552.657 409.093 543.101 409.093 543.101L385.637 530.157L397.799 510.871L401.1 505.658L409.701 507.569C409.701 507.569 416.825 511.653 424.035 514.867C431.246 518.081 448.621 518.776 454.789 523.728C460.957 528.68 465.474 534.066 464.779 540.495Z" fill="#D68029"></path><path d="M464.779 540.495C464.345 544.404 463.042 548.14 459.045 550.399C460.175 546.576 459.914 542.406 458.35 538.671C455.744 532.763 447.23 527.637 436.024 526.769C424.817 525.9 416.216 520.688 411.786 518.342C408.311 516.518 400.839 512.521 397.799 510.871L401.1 505.658L409.701 507.569C409.701 507.569 416.824 511.653 424.035 514.867C431.246 518.081 448.62 518.776 454.789 523.728C460.957 528.68 465.474 534.066 464.779 540.495Z" fill="white"></path><path d="M390.849 533.807C407.702 543.623 426.38 549.965 445.666 552.571C449.923 553.093 454.875 553.18 457.742 549.965C459.306 548.054 460.001 545.708 459.74 543.276C459.219 537.282 454.18 532.503 448.62 530.071C443.06 527.638 436.979 527.117 431.071 525.814C425.164 524.511 419.517 522.426 414.218 519.646C409.961 517.474 405.878 514.781 401.187 513.738C396.495 512.696 390.935 513.912 388.416 517.995" stroke="#263238" stroke-width="0.958227" stroke-linecap="round" stroke-linejoin="round"></path><path d="M456.266 551.615C460.696 549.443 463.911 545.36 464.866 540.582C465.735 534.935 462.521 529.202 457.916 525.727C453.312 522.252 447.665 520.601 442.105 519.472C436.545 518.342 430.725 517.56 425.338 515.389C417.172 512.174 409.006 505.832 400.492 508.091" stroke="#263238" stroke-width="0.958227" stroke-linecap="round" stroke-linejoin="round"></path><path d="M417.347 331.04L377.645 315.924L377.124 315.75C377.124 315.75 377.298 314.708 377.385 313.144C377.645 310.016 377.732 304.804 376.255 303.066C374.083 300.46 367.742 302.632 361.66 299.852C355.579 297.072 344.285 302.024 344.285 302.024C344.285 302.024 336.119 300.547 332.471 306.368C330.646 311.146 331.254 318.183 331.254 318.183L330.472 318.443C325.781 320.181 300.066 329.911 294.593 333.733C288.599 337.99 281.91 381.688 279.825 394.545C277.74 407.403 273.917 418.957 275.828 423.388C277.74 427.818 305.366 449.103 321.264 454.576C337.162 460.049 393.543 458.485 393.543 458.485C393.543 458.485 394.499 458.224 396.063 457.703C405.619 454.663 439.413 441.979 457.396 412.268C457.483 412.355 440.108 355.365 417.347 331.04ZM310.144 404.536C307.19 406.621 308.841 414.613 308.841 414.613L303.889 410.27L316.312 379.603L321.611 403.146C321.698 403.146 313.097 402.451 310.144 404.536ZM409.876 423.996C408.486 424.691 413.785 410.009 411.266 406.621C408.746 403.233 401.188 403.58 401.188 403.58L401.796 399.584L406.314 376.562L407.791 374.825C407.791 374.825 423.255 401.235 425.948 410.617C426.034 410.53 409.181 423.996 409.876 423.996Z" fill="#D68029"></path><path d="M342.46 235.478L321.958 257.196C321.958 257.196 319.178 259.716 320.22 265.971C321.263 272.226 323.956 277.785 325.954 278.133C327.518 278.394 329.081 278.567 330.732 278.567C330.732 278.567 335.076 288.037 338.203 291.772C338.203 291.772 339.246 306.454 338.725 310.537C338.725 310.537 346.109 316.966 352.972 317.748C359.835 318.53 370.608 307.931 370.608 307.931L373.214 294.987C373.214 294.987 379.469 285.43 379.903 282.911C380.337 280.392 383.204 281 384.594 279.784C385.984 278.567 389.286 272.92 389.807 267.621C390.328 262.322 390.415 256.241 384.247 258.065C378.947 256.675 382.249 245.381 382.249 245.381L372.866 237.128L342.46 235.478Z" fill="white"></path><path opacity="0.5" d="M377.644 315.925C377.296 316.707 376.949 317.488 376.601 318.27C373.213 324.612 358.531 336.775 358.531 336.775L354.101 323.135L351.668 336.775C346.716 334.603 331.774 321.658 331.774 321.658C331.774 321.658 331.253 320.442 330.645 318.531L331.426 318.27C331.426 318.27 330.818 311.147 332.643 306.455C336.205 300.548 344.458 302.112 344.458 302.112C344.458 302.112 355.751 297.073 361.833 299.94C367.914 302.807 374.169 300.548 376.427 303.154C378.686 305.76 377.296 315.838 377.296 315.838L377.644 315.925Z" fill="white"></path><path opacity="0.2" d="M417.345 331.041L377.643 315.925L377.122 315.751C377.122 315.751 377.296 314.708 377.383 313.145L376.601 318.27L370.693 326.263C376.948 328.608 383.116 331.301 389.024 334.342C394.845 337.469 398.146 343.811 397.364 350.327L390.066 412.877L387.026 448.408L396.061 457.791C405.617 454.75 439.411 442.066 457.394 412.355C457.481 412.355 440.106 355.366 417.345 331.041ZM409.874 423.997C408.484 424.692 413.783 410.01 411.264 406.622C408.744 403.234 401.186 403.581 401.186 403.581L401.794 399.585L406.312 376.563L407.789 374.826C407.789 374.826 423.253 401.235 425.946 410.618C426.032 410.531 409.179 423.997 409.874 423.997Z" fill="black"></path><path opacity="0.2" d="M324.302 406.621L318.133 386.031C318.133 386.031 307.1 348.328 299.455 339.032L301.454 365.529C301.454 365.529 294.938 397.238 288.944 406.621C282.949 416.003 281.646 418.436 288.944 418.436C296.241 418.436 314.05 432.596 314.05 432.596L312.66 420.781L324.302 406.621ZM308.751 414.613L303.799 410.269L316.222 379.603L321.522 403.146C321.522 403.146 313.008 402.538 310.054 404.536C307.1 406.534 308.751 414.613 308.751 414.613Z" fill="black"></path><path d="M338.203 291.773C338.203 291.773 339.332 302.893 338.203 307.932" stroke="#263238" stroke-width="0.958227" stroke-linecap="round" stroke-linejoin="round"></path><path d="M371.738 306.454C371.738 302.892 372.173 299.33 372.955 295.855" stroke="#263238" stroke-width="0.958227" stroke-linecap="round" stroke-linejoin="round"></path><path d="M374.691 243.731C374.691 243.731 381.38 252.158 381.033 258.587C380.685 265.016 380.164 272.574 380.338 279.958C380.511 287.343 368.436 302.893 362.268 304.283C356.1 305.673 350.713 306.021 346.717 302.024C342.721 298.028 338.812 292.555 333.599 285.518C328.387 278.481 329.69 262.931 329.69 262.931" stroke="#263238" stroke-width="0.958227" stroke-linecap="round" stroke-linejoin="round"></path><path d="M358.532 268.752C358.098 271.098 357.924 273.443 358.011 275.789C357.837 277.787 358.532 279.698 359.748 281.262C360.53 282.044 361.573 282.652 361.746 283.694C361.746 284.65 361.225 285.519 360.356 285.953C359.488 286.387 358.706 286.822 357.924 287.43" stroke="#263238" stroke-width="0.958227" stroke-linecap="round" stroke-linejoin="round"></path><path d="M347.848 288.299C347.848 288.299 348.63 293.338 355.319 294.38" stroke="#263238" stroke-width="0.958227" stroke-linecap="round" stroke-linejoin="round"></path><path d="M348.542 272.574C348.542 274.051 347.934 275.18 347.152 275.18C346.37 275.18 345.762 274.051 345.762 272.574C345.762 271.097 346.37 269.968 347.152 269.968C347.934 269.968 348.542 271.184 348.542 272.574Z" fill="#263238"></path><path d="M368.61 273.268C368.61 274.745 368.002 275.875 367.22 275.875C366.438 275.875 365.83 274.658 365.83 273.268C365.83 271.878 366.438 270.662 367.22 270.662C368.002 270.662 368.61 271.791 368.61 273.268Z" fill="#263238"></path><path d="M364.525 266.926C364.525 266.926 371.041 260.411 376.514 267.708" stroke="#263238" stroke-width="1.91645" stroke-linecap="round" stroke-linejoin="round"></path><path d="M350.801 267.014C350.801 267.014 346.631 262.41 340.115 267.014" stroke="#263238" stroke-width="1.91645" stroke-linecap="round" stroke-linejoin="round"></path><path d="M338.724 297.942C338.724 297.942 342.721 308.975 351.669 312.102C360.617 315.23 372.432 298.984 372.432 298.984L371.824 296.899C371.824 296.899 364.092 306.977 355.404 305.239C346.717 303.502 338.203 291.86 338.203 291.86L338.724 297.942Z" fill="#263238"></path><path d="M330.732 278.133C330.732 278.133 325.432 280.045 324.042 275.875C322.652 271.705 317.7 260.845 321.957 257.197C326.214 253.548 329.602 261.975 329.602 261.975" stroke="#263238" stroke-width="0.958227" stroke-linecap="round" stroke-linejoin="round"></path><path d="M380.426 280.393C380.426 280.393 385.378 281.348 386.768 277.265C388.158 273.182 393.023 262.236 388.766 258.587C384.509 254.938 381.121 263.365 381.121 263.365" stroke="#263238" stroke-width="0.958227" stroke-linecap="round" stroke-linejoin="round"></path><path d="M329.603 272.574C331.428 272.313 333.078 271.271 334.295 269.794C334.99 268.491 335.424 267.101 335.598 265.624C336.119 262.844 336.293 260.064 336.293 257.197C336.206 256.068 336.38 255.025 336.553 253.896C336.988 252.853 337.509 251.811 338.291 250.942C340.115 248.77 342.374 246.946 344.111 244.687C346.023 242.515 346.978 239.735 346.718 236.868C354.884 243.645 365.656 246.425 376.168 244.513C385.551 242.689 394.499 234.436 393.369 224.185C392.935 220.623 390.329 217.756 386.854 216.974C382.249 215.845 378.079 218.277 373.909 219.841C366.351 222.795 358.88 217.843 351.235 217.061C344.633 216.279 336.466 217.148 333.078 223.663C333.078 223.663 321.263 225.053 316.051 234.783C310.838 244.513 320.742 257.979 320.742 257.979C320.742 257.979 324.652 253.201 329.777 262.931L329.603 272.574Z" fill="#263238"></path><path d="M375.56 241.299C375.56 241.299 372.519 257.284 380.512 265.016C380.512 265.016 382.249 260.238 384.074 259.022C386.68 253.288 386.159 246.599 382.684 241.299C376.689 232.004 375.56 241.299 375.56 241.299Z" fill="#263238"></path><path opacity="0.2" d="M390.156 223.055C388.766 227.485 385.377 230.96 381.034 232.611C369.914 237.128 359.141 232.09 348.021 231.134C338.986 230.352 328.909 238.518 328.301 247.814" stroke="white" stroke-width="0.958227" stroke-linecap="round" stroke-linejoin="round"></path><path opacity="0.2" d="M321.35 245.382C321.61 237.911 326.215 231.221 333.165 228.268" stroke="white" stroke-width="0.958227" stroke-linecap="round" stroke-linejoin="round"></path><path d="M335.684 306.454C340.549 311.58 346.456 315.576 352.972 318.269C352.972 318.269 366.263 314.447 373.04 305.151" stroke="#263238" stroke-width="0.958227" stroke-linecap="round" stroke-linejoin="round"></path><path d="M344.373 284.302C350.85 284.302 356.101 279.051 356.101 272.574C356.101 266.097 350.85 260.846 344.373 260.846C337.895 260.846 332.645 266.097 332.645 272.574C332.645 279.051 337.895 284.302 344.373 284.302Z" stroke="#263238" stroke-width="0.958227" stroke-linecap="round" stroke-linejoin="round"></path><path d="M370.607 284.389C377.084 284.389 382.335 279.138 382.335 272.661C382.335 266.183 377.084 260.933 370.607 260.933C364.13 260.933 358.879 266.183 358.879 272.661C358.879 279.138 364.13 284.389 370.607 284.389Z" stroke="#263238" stroke-width="0.958227" stroke-linecap="round" stroke-linejoin="round"></path><path d="M338.204 302.111C335.771 302.719 333.773 304.283 332.557 306.455C330.472 310.104 331.775 321.658 331.775 321.658C331.775 321.658 342.548 332.257 351.67 336.774L354.363 321.571L358.533 336.774C358.533 336.774 372.693 326.784 376.603 318.27C376.603 318.27 377.906 308.366 376.603 305.152C375.994 303.328 374.257 302.111 372.346 302.024" stroke="#263238" stroke-width="0.958227" stroke-linecap="round" stroke-linejoin="round"></path><path d="M321.35 403.581C321.35 403.581 317.18 375.433 311.533 363.966" stroke="#263238" stroke-width="0.958227" stroke-linecap="round" stroke-linejoin="round"></path><path d="M299.543 339.032C302.757 343.637 305.711 348.502 308.23 353.54" stroke="#263238" stroke-width="0.958227" stroke-linecap="round" stroke-linejoin="round"></path><path d="M409.873 360.056C411.002 355.365 412.566 350.761 414.477 346.33" stroke="#263238" stroke-width="0.958227" stroke-linecap="round" stroke-linejoin="round"></path><path d="M401.188 403.581C401.188 403.581 404.228 384.295 407.79 368.396" stroke="#263238" stroke-width="0.958227" stroke-linecap="round" stroke-linejoin="round"></path><path d="M406.312 376.476C409.266 372.567 413.349 369.787 418.041 368.483" stroke="#263238" stroke-width="0.958227" stroke-linecap="round" stroke-linejoin="round"></path><path d="M377.209 315.75C377.209 315.75 401.621 325.48 417.345 331.04C417.345 331.04 436.718 349.284 457.481 412.355C457.481 412.355 438.456 444.411 402.229 454.663" stroke="#263238" stroke-width="0.958227" stroke-linecap="round" stroke-linejoin="round"></path><path d="M408.484 425.126L425.946 410.531C425.946 410.531 435.242 403.494 444.798 408.272" stroke="#263238" stroke-width="0.958227" stroke-linecap="round" stroke-linejoin="round"></path><path d="M407.877 374.738C407.877 374.738 422.385 396.109 426.034 410.531" stroke="#263238" stroke-width="0.958227" stroke-linecap="round" stroke-linejoin="round"></path><path d="M309.014 415.396L303.888 410.531C303.888 410.531 296.33 409.227 287.643 414.961" stroke="#263238" stroke-width="0.958227" stroke-linecap="round" stroke-linejoin="round"></path><path d="M303.887 410.531C303.887 410.531 310.229 389.594 316.484 378.821" stroke="#263238" stroke-width="0.958227" stroke-linecap="round" stroke-linejoin="round"></path><path d="M331.34 318.356C331.34 318.356 296.243 331.561 292.768 335.384C289.293 339.206 276.261 412.876 275.914 421.303C275.653 428.861 302.932 445.802 316.484 452.925" stroke="#263238" stroke-width="0.958227" stroke-linecap="round" stroke-linejoin="round"></path><path d="M357.575 343.203C357.575 344.506 356.533 345.462 355.229 345.462C353.926 345.462 352.971 344.419 352.971 343.116C352.971 341.813 354.013 340.857 355.316 340.857C355.924 340.857 356.533 341.118 356.967 341.552C357.401 341.987 357.575 342.595 357.575 343.203Z" fill="#263238"></path><path d="M398.233 466.565H318.396C317.353 466.565 316.484 465.696 316.484 464.653C316.484 463.611 317.353 462.742 318.396 462.742H398.233C399.276 462.742 400.145 463.611 400.145 464.653C400.058 465.696 399.276 466.565 398.233 466.565Z" fill="#263238"></path><path d="M401.013 460.309L411.699 410.009C412.307 407.142 410.483 404.275 407.616 403.667C407.268 403.58 406.834 403.58 406.486 403.58H313.096C310.142 403.58 307.797 406.013 307.797 408.879C307.797 409.227 307.797 409.574 307.884 409.922L317.44 458.485C317.961 460.917 320.046 462.742 322.566 462.829L395.627 464.479C398.233 464.566 400.492 462.829 401.013 460.309Z" fill="white" stroke="#263238" stroke-width="0.958227" stroke-linecap="round" stroke-linejoin="round"></path><path d="M366.958 432.597C366.958 436.68 363.57 440.068 359.487 440.068C355.404 440.068 352.016 436.68 352.016 432.597C352.016 428.514 355.404 425.126 359.487 425.126C361.485 425.126 363.309 425.908 364.786 427.298C366.176 428.688 366.958 430.599 366.958 432.597Z" fill="#263238"></path><path d="M381.641 408.358H392.674" stroke="#263238" stroke-width="0.958227" stroke-linecap="round" stroke-linejoin="round"></path><path d="M328.646 408.358H370.694" stroke="#263238" stroke-width="0.958227" stroke-linecap="round" stroke-linejoin="round"></path><path d="M401.186 513.651L392.673 535.977C392.673 535.977 370.954 530.504 343.154 524.771C314.051 518.776 283.732 511.131 268.007 483.505C266.096 480.117 264.793 476.121 265.749 472.385C268.007 462.829 280.431 460.223 288.597 459.267C293.722 458.746 298.935 458.398 304.06 458.398C306.667 458.398 315.354 457.008 317.526 458.572C320.654 460.918 324.042 462.916 327.603 464.567C332.295 466.565 400.057 462.829 400.057 462.829C401.273 460.223 401.968 457.53 402.229 454.663C412.914 449.277 437.587 444.672 448.012 446.67C464.431 449.885 473.987 459.441 472.163 469.431C470.338 479.422 434.112 506.353 401.186 513.651Z" fill="#263238"></path><path d="M401.187 513.651C401.187 513.651 380.511 508.178 363.657 496.797C346.804 485.416 333.599 472.211 310.143 474.905" stroke="white" stroke-width="0.958227" stroke-linecap="round" stroke-linejoin="round"></path><path d="M359.834 494.104C370.52 491.063 378.338 484.113 386.852 477.511C395.887 470.3 405.53 463.872 415.781 458.485" stroke="white" stroke-width="0.958227" stroke-linecap="round" stroke-linejoin="round"></path><path d="M356.1 274.485H359.227" stroke="#263238" stroke-width="0.958227" stroke-linecap="round" stroke-linejoin="round"></path></g><defs><clipPath id="clip0_3323_825"><rect width="574.849" height="562.6" fill="white" transform="translate(0.425781)"></rect></clipPath></defs></svg>