<svg width="512" height="512" viewBox="0 0 512 512" fill="none" xmlns="http://www.w3.org/2000/svg">
<path fill-rule="evenodd" clip-rule="evenodd" d="M153.815 361.585H47.9783C25.4603 361.585 7.02734 343.152 7.02734 320.634V94.2342C7.02734 71.7162 25.4603 53.2832 47.9783 53.2832H410.241C432.759 53.2832 451.192 71.7162 451.192 94.2342V265.674C456.485 267.295 461.594 270.396 466.237 275.039C466.405 275.207 466.565 275.383 466.717 275.565L485.033 297.453C493.684 307.77 495.357 320.962 491.918 333.964L487.053 352.39C486.555 354.283 487.069 356.15 488.454 357.537L502.62 371.702C503.366 372.448 503.958 373.333 504.361 374.308C504.765 375.282 504.973 376.327 504.973 377.381C504.973 378.436 504.765 379.48 504.361 380.455C503.958 381.429 503.366 382.315 502.62 383.06L429.316 456.365C428.57 457.111 427.685 457.702 426.71 458.106C425.736 458.509 424.691 458.717 423.637 458.717C422.582 458.717 421.538 458.509 420.563 458.106C419.589 457.702 418.703 457.111 417.958 456.365L403.792 442.199C403.112 441.519 402.333 441.029 401.471 440.788L401.456 440.784C394.085 438.705 388.092 435.418 382.592 430.363V450.686C382.592 452.816 381.746 454.858 380.24 456.365C378.734 457.871 376.691 458.717 374.561 458.717H83.6878C81.5577 458.717 79.5149 457.871 78.0088 456.365C76.5026 454.858 75.6564 452.816 75.6564 450.686V428.255C75.6564 412.058 91.4702 397.822 111.755 397.822H153.815V361.585ZM435.13 265.163V94.2342C435.13 80.5487 423.927 69.3459 410.241 69.3459H47.9783C34.2929 69.3459 23.0901 80.5487 23.0901 94.2342V320.634C23.0901 334.319 34.2929 345.522 47.9783 345.522H336.935C337.298 345.294 337.668 345.076 338.041 344.87C335.55 336.939 337.426 327.907 343.684 321.648C346.173 319.154 349.203 317.268 352.54 316.138C352.022 312.809 352.186 309.41 353.022 306.147H42.5742C40.4441 306.147 38.4013 305.301 36.8952 303.795C35.389 302.288 34.5428 300.246 34.5428 298.116V93.421C34.5428 86.4568 40.2009 80.8278 47.1651 80.8278H411.084C417.982 80.8278 423.677 86.4427 423.677 93.421V270.116C427.372 267.735 431.225 266.075 435.13 265.163ZM326.547 361.585H304.433V397.822H346.493C347.726 397.822 348.943 397.874 350.141 397.977L332.941 380.778C327.725 375.562 325.601 368.393 326.547 361.585ZM288.37 361.585H169.877V397.822H288.37V361.585ZM366.037 290.084L335.267 259.315C325.837 249.885 325.837 234.437 335.267 225.007C344.699 215.575 360.12 215.596 369.552 225.029L407.614 263.091V96.8905H50.6056V290.084H366.037ZM472.466 362.167C470.608 357.898 470.251 353.116 471.522 348.295L476.389 329.86C478.461 322.024 477.938 313.991 472.724 307.773L472.719 307.767L454.64 286.162C446.613 278.359 436.121 279.356 427.948 287.138L427.933 287.153L423.864 291.006C422.345 292.445 420.324 293.234 418.232 293.206C416.14 293.177 414.141 292.334 412.662 290.854L358.194 236.386C355.012 233.204 349.808 233.182 346.625 236.365C343.438 239.552 343.438 244.77 346.625 247.957L391.426 292.758C392.828 294.159 393.662 296.03 393.768 298.009C393.873 299.989 393.243 301.938 391.998 303.481C390.753 305.023 388.982 306.051 387.025 306.367C385.068 306.682 383.063 306.262 381.397 305.188C378.095 303.06 373.639 303.43 370.758 306.312C367.512 309.558 367.447 314.87 370.639 318.172C371.89 319.467 372.67 321.145 372.854 322.936C373.037 324.728 372.613 326.529 371.649 328.051C370.686 329.572 369.239 330.726 367.541 331.326C365.843 331.926 363.993 331.938 362.287 331.36C359.823 330.526 356.993 331.056 355.043 333.007C352.333 335.716 352.354 340.145 355.064 342.854L356.787 344.576C357.979 345.77 358.765 347.309 359.034 348.974C359.302 350.64 359.04 352.347 358.283 353.855C357.527 355.363 356.314 356.595 354.819 357.375C353.323 358.156 351.62 358.445 349.95 358.203C348.928 358.051 347.885 358.14 346.903 358.464C345.922 358.788 345.031 359.337 344.3 360.068C341.733 362.635 341.724 366.844 344.3 369.42L392.329 417.451C396.244 421.364 400.484 423.821 405.802 425.32C406.686 425.567 407.552 425.873 408.398 426.235L472.466 362.167ZM420.829 436.52L423.637 439.328L485.583 377.381L482.776 374.573L420.829 436.52ZM91.7192 442.654H366.53V428.255C366.53 419.797 357.087 413.885 346.493 413.885H111.755C101.162 413.885 91.7192 419.797 91.7192 428.255V442.654ZM229.11 275.584C183.821 275.584 146.881 238.644 146.881 193.354C146.881 148.065 183.821 111.125 229.11 111.125C274.399 111.125 311.339 148.065 311.339 193.354C311.339 238.644 274.399 275.584 229.11 275.584ZM229.11 259.521C265.552 259.521 295.276 229.797 295.276 193.354C295.276 156.912 265.552 127.188 229.11 127.188C192.668 127.188 162.943 156.912 162.943 193.354C162.943 229.797 192.668 259.521 229.11 259.521ZM221.078 149.875V146.417C221.078 141.985 224.678 138.386 229.11 138.386C233.542 138.386 237.141 141.985 237.141 146.417V149.784C246.006 151.871 254.144 157.641 258.373 167.72C259.196 169.684 259.206 171.895 258.4 173.866C257.594 175.838 256.039 177.408 254.075 178.233C252.111 179.057 249.901 179.066 247.929 178.26C245.958 177.455 244.387 175.899 243.562 173.936C239.85 165.089 229.917 163.341 222.8 166.141C218.833 167.702 215.587 170.853 215.819 175.51L215.82 175.529C215.989 179.108 218.365 181.111 221.13 182.461C224.006 183.865 227.336 184.643 230.475 185.155L230.489 185.157C244.039 187.388 258.812 193.657 260.75 209.764C262.637 225.345 250.311 234.505 237.141 237.088V240.317C237.141 244.749 233.542 248.348 229.11 248.348C224.678 248.348 221.078 244.749 221.078 240.317V236.97C209.98 234.54 200.477 227.128 197.525 215.269C197.012 213.202 197.34 211.016 198.438 209.19C199.535 207.365 201.313 206.05 203.379 205.535C205.446 205.022 207.632 205.35 209.457 206.448C211.282 207.545 212.597 209.322 213.112 211.389C214.97 218.851 222.58 221.961 229.878 221.78L229.895 221.779C233.876 221.69 238.315 220.721 241.579 218.47C243.715 216.998 245.181 214.798 244.804 211.693L244.803 211.685C244.306 207.548 241.441 205.316 238.167 203.829C234.952 202.368 231.298 201.569 227.893 201.009C214.599 198.844 200.52 192.051 199.775 176.289C199.181 164.178 206.598 155.255 216.919 151.194C218.275 150.661 219.664 150.221 221.078 149.875Z" fill="#D68029"/>
</svg>
