<svg width="512" height="512" viewBox="0 0 512 512" fill="none" xmlns="http://www.w3.org/2000/svg">
<path fill-rule="evenodd" clip-rule="evenodd" d="M313.103 279.421C313.103 247.933 287.487 222.317 255.999 222.317C224.511 222.317 198.9 247.933 198.9 279.421V351.391C198.9 359.25 205.296 365.651 213.149 365.651H298.855C306.714 365.651 313.103 359.25 313.103 351.391V279.421ZM205.809 229.576C193.098 242.378 185.222 259.992 185.222 279.42V317.188H137.976C133.418 317.188 129.713 313.477 129.713 308.926V241.104C129.713 219.636 147.183 202.178 168.64 202.178C185.718 202.179 200.79 213.5 205.809 229.576ZM168.64 188.506C179.287 188.506 187.958 179.846 187.958 169.187C187.958 158.54 179.287 149.88 168.64 149.88C157.992 149.88 149.332 158.54 149.332 169.187C149.332 179.846 157.992 188.506 168.64 188.506ZM231.552 184.191C231.552 197.674 242.517 208.644 255.999 208.644C269.481 208.644 280.446 197.674 280.446 184.191C280.446 170.72 269.481 159.755 255.999 159.755C242.517 159.755 231.552 170.719 231.552 184.191ZM306.196 229.576C311.208 213.5 326.275 202.179 343.359 202.179C364.821 202.179 382.285 219.637 382.285 241.105V308.927C382.285 313.478 378.586 317.189 374.028 317.189H326.776V279.421C326.776 259.992 318.9 242.379 306.196 229.576ZM343.359 188.506C354.006 188.506 362.666 179.846 362.666 169.187C362.666 158.54 354.006 149.88 343.359 149.88C332.711 149.88 324.04 158.54 324.04 169.187C324.04 179.846 332.711 188.506 343.359 188.506ZM298.855 379.323H213.149C197.748 379.323 185.221 366.786 185.221 351.391V330.862H137.975C125.875 330.862 116.04 321.026 116.04 308.927V241.105C116.04 220.063 128.456 201.885 146.341 193.473C139.778 187.446 135.659 178.786 135.659 169.187C135.659 150.997 150.454 136.207 168.639 136.207C186.828 136.207 201.63 150.998 201.63 169.187C201.63 178.804 197.493 187.475 190.901 193.507C202.442 198.952 211.828 208.488 216.962 220.42C221.423 217.455 226.207 215.008 231.222 213.126C223.064 206.137 217.879 195.76 217.879 184.191C217.879 163.184 234.979 146.077 255.998 146.077C277.023 146.077 294.124 163.184 294.124 184.191C294.124 195.76 288.933 206.137 280.774 213.126C285.787 215.007 290.57 217.454 295.028 220.42C300.167 208.488 309.553 198.952 321.1 193.507C314.508 187.475 310.366 178.804 310.366 169.187C310.366 150.997 325.174 136.207 343.358 136.207C361.547 136.207 376.338 150.998 376.338 169.187C376.338 178.786 372.224 187.446 365.655 193.473C383.539 201.885 395.956 220.063 395.956 241.105V308.927C395.956 321.026 386.121 330.862 374.027 330.862H326.775V351.391C326.776 366.786 314.25 379.323 298.855 379.323ZM261.213 388.173L278.965 409.088C279.546 409.773 279.986 410.565 280.26 411.42C280.535 412.275 280.638 413.175 280.564 414.07C280.49 414.965 280.241 415.836 279.83 416.634C279.419 417.432 278.855 418.142 278.17 418.722C277.486 419.304 276.695 419.746 275.84 420.022C274.986 420.298 274.085 420.403 273.19 420.33C272.295 420.257 271.423 420.009 270.625 419.598C269.826 419.188 269.116 418.624 268.536 417.939L262.837 411.22V474.789C262.836 476.602 262.115 478.34 260.833 479.622C259.55 480.903 257.811 481.623 255.998 481.622C206.925 481.622 160.261 466.134 121.065 436.836C83.1694 408.512 54.5803 368.174 40.5679 323.233C40.3002 322.376 40.2042 321.474 40.2853 320.58C40.3663 319.685 40.6229 318.816 41.0403 318.02C41.4577 317.225 42.0278 316.52 42.7179 315.945C43.408 315.371 44.2046 314.938 45.0622 314.671C48.6636 313.554 52.5006 315.564 53.6239 319.166C80.6872 405.972 158.753 464.994 249.166 467.841V411.221L243.467 417.94C242.293 419.322 240.618 420.181 238.81 420.327C237.002 420.474 235.211 419.897 233.828 418.723C233.144 418.142 232.58 417.433 232.17 416.634C231.76 415.836 231.511 414.964 231.438 414.07C231.364 413.175 231.468 412.275 231.743 411.42C232.018 410.565 232.458 409.773 233.039 409.089L250.785 388.174C253.832 384.639 259.097 385.341 261.213 388.173ZM250.785 123.819L233.039 102.904C232.458 102.22 232.018 101.428 231.743 100.573C231.468 99.7184 231.364 98.8181 231.438 97.9234C231.511 97.0288 231.76 96.1573 232.17 95.3589C232.58 94.5605 233.144 93.8507 233.828 93.2701C236.704 90.8156 241.019 91.173 243.467 94.0484L249.166 100.772V37.2143C249.165 36.3164 249.341 35.427 249.684 34.5972C250.027 33.7673 250.53 33.0132 251.165 32.378C251.799 31.7427 252.553 31.2389 253.382 30.8952C254.212 30.5515 255.101 30.3747 255.999 30.375C305.071 30.375 351.736 45.8569 390.939 75.1545C428.834 103.479 457.423 143.817 471.43 188.758C472.554 192.36 470.537 196.196 466.936 197.32C463.402 198.414 459.523 196.495 458.379 192.819C431.311 106.021 353.251 46.9925 262.838 44.1519V100.772L268.537 94.0484C270.98 91.1791 275.301 90.8279 278.171 93.2701C278.856 93.8502 279.42 94.5596 279.831 95.3578C280.242 96.1561 280.491 97.0274 280.565 97.9221C280.639 98.8168 280.536 99.7173 280.262 100.572C279.987 101.427 279.547 102.219 278.966 102.904L261.214 123.819L258.801 125.629C255.675 126.944 253.069 126.104 250.785 123.819ZM60.371 268.537C55.5142 272.665 58.4971 280.584 64.7957 280.584C66.4156 280.584 67.9831 280.011 69.2204 278.965L90.6138 260.752C93.4913 257.671 92.9844 253.068 90.1295 250.785L69.2215 233.027C66.341 230.596 62.0248 230.941 59.5877 233.822C59.0061 234.506 58.565 235.298 58.2896 236.152C58.0142 237.007 57.9099 237.907 57.9827 238.802C58.0554 239.696 58.3038 240.568 58.7136 241.367C59.1234 242.165 59.6866 242.875 60.371 243.456L67.0895 249.166H44.158C47.0037 158.748 106.022 80.6872 192.834 53.6249C196.435 52.4954 198.451 48.6636 197.322 45.0571C197.055 44.1998 196.622 43.4036 196.047 42.7139C195.472 42.0243 194.767 41.4547 193.972 41.0379C193.176 40.621 192.307 40.365 191.413 40.2846C190.518 40.2041 189.617 40.3007 188.76 40.5689C143.824 54.5813 103.48 83.1602 75.1566 121.066C45.863 160.262 30.375 206.921 30.375 255.999C30.3758 257.813 31.0966 259.552 32.3791 260.834C33.6615 262.117 35.4007 262.838 37.2143 262.838H67.0885L60.371 268.537ZM481.623 255.999C481.624 255.102 481.447 254.213 481.104 253.384C480.761 252.554 480.257 251.801 479.623 251.166C478.988 250.532 478.235 250.029 477.405 249.685C476.576 249.342 475.687 249.166 474.79 249.166H444.916L451.634 243.456C453.014 242.281 453.872 240.607 454.018 238.801C454.165 236.995 453.59 235.204 452.418 233.822C451.837 233.137 451.128 232.573 450.33 232.162C449.532 231.752 448.66 231.502 447.766 231.428C446.871 231.354 445.97 231.458 445.116 231.732C444.261 232.006 443.469 232.446 442.784 233.027L421.869 250.784C419.104 252.989 418.513 257.358 421.206 260.55L442.784 278.964C444.019 280.009 445.585 280.583 447.203 280.583C453.529 280.583 456.471 272.645 451.634 268.536L444.916 262.837H467.842C464.995 353.25 405.978 431.304 319.167 458.367C315.565 459.497 313.549 463.328 314.685 466.935C315.831 470.601 319.709 472.547 323.24 471.423C368.176 457.411 408.525 428.832 436.85 390.925C466.135 351.73 481.623 305.072 481.623 255.999Z" fill="#D68029"/>
</svg>
