<svg width="512" height="512" viewBox="0 0 512 512" fill="none" xmlns="http://www.w3.org/2000/svg">
<path d="M497.79 283.699C496.66 282.089 495.25 280.079 493.63 277.609L480.96 258.189L481.84 236.359V204.979C482.34 188.779 479.94 177.929 473.58 167.559C453.53 134.899 425.86 112.309 393.56 102.239C364.92 93.3091 333.59 94.6491 305.35 106.019C305.28 106.059 305.2 106.079 305.13 106.109L266.93 122.989C258.5 118.499 249.63 114.829 240.47 112.029L225.42 73.0991C224.911 71.7804 224.015 70.6466 222.85 69.847C221.684 69.0473 220.304 68.6193 218.89 68.6191H173.82C170.93 68.6191 168.34 70.3991 167.29 73.0891L152.21 112.019C143.068 114.814 134.217 118.484 125.78 122.979L87.5802 106.099C86.2885 105.528 84.8542 105.361 83.4657 105.62C82.0773 105.878 80.7995 106.551 79.8002 107.549L47.9402 139.409C46.9421 140.408 46.2695 141.686 46.0107 143.075C45.7519 144.463 45.9191 145.897 46.4902 147.189L63.3502 185.389C58.8402 193.889 55.1602 202.759 52.3902 211.839L13.4602 226.919C12.1427 227.429 11.0103 228.325 10.2124 229.491C9.41444 230.656 8.98835 232.037 8.99024 233.449V278.489C8.99024 281.379 10.7702 283.969 13.4602 285.019L52.3902 300.099C55.1602 309.159 58.8402 318.019 63.3502 326.519L46.4902 364.719C45.9201 366.011 45.7534 367.445 46.0121 368.833C46.2709 370.222 46.9429 371.499 47.9402 372.499L79.8002 404.389C80.7975 405.39 82.0748 406.066 83.4637 406.327C84.8526 406.587 86.2879 406.421 87.5802 405.849L125.78 388.959C134.28 393.469 143.14 397.149 152.2 399.919L167.28 438.849C167.79 440.167 168.686 441.299 169.852 442.097C171.018 442.895 172.398 443.321 173.81 443.319H218.88C220.294 443.319 221.674 442.891 222.84 442.091C224.005 441.292 224.901 440.158 225.41 438.839L240.46 399.909C244.59 398.649 248.67 397.189 252.7 395.559C250.82 400.169 248.87 404.829 246.94 409.429C243.52 417.579 239.99 425.999 237.02 433.829C236.616 434.888 236.476 436.03 236.611 437.156C236.747 438.281 237.155 439.357 237.8 440.289C238.443 441.223 239.303 441.987 240.306 442.515C241.31 443.043 242.426 443.319 243.56 443.319H382.46C385.58 443.319 388.33 441.249 389.19 438.249L390.68 433.069C399.6 414.209 405.86 405.679 412.92 402.729C420.33 399.639 430.84 401.529 448.27 404.679L450.39 405.059C458.8 406.569 464.97 406.799 469.73 403.279C475.12 399.299 475.89 392.959 477.06 383.369L478.45 371.869L485.46 364.539C486.87 363.059 487.57 361.039 487.37 359.009C487.17 356.979 486.09 355.129 484.41 353.959L470.2 344.039L483.74 339.719C486.64 338.799 488.62 336.099 488.62 333.049C488.62 330.989 488.23 328.939 487.86 326.959C487.49 325.009 486.88 321.769 487.42 320.809L493.74 312.069C494.92 310.439 495.95 309.039 496.86 307.829C500.54 302.879 502.76 299.889 502.97 295.779C503.19 291.379 500.92 288.149 497.78 283.679L497.79 283.699ZM233.32 387.459C232.27 387.752 231.303 388.286 230.496 389.019C229.688 389.751 229.063 390.662 228.67 391.679L214.1 429.349H178.63L164.04 391.669C163.647 390.655 163.024 389.746 162.218 389.015C161.413 388.285 160.448 387.752 159.4 387.459C149.12 384.589 139.08 380.419 129.56 375.079C128.613 374.547 127.556 374.243 126.471 374.191C125.386 374.138 124.304 374.34 123.31 374.779L86.3402 391.119L61.2602 366.019L77.5802 329.049C78.4702 327.039 78.3602 324.719 77.2802 322.799C71.9402 313.279 67.7802 303.239 64.9002 292.959C64.609 291.911 64.0766 290.945 63.3456 290.14C62.6146 289.334 61.7053 288.711 60.6902 288.319L23.0102 273.729V238.279L60.6902 223.689C62.7502 222.889 64.3102 221.169 64.9002 219.049C67.7802 208.729 71.9502 198.679 77.2802 189.179C77.8125 188.232 78.1168 187.175 78.1689 186.09C78.2209 185.005 78.0194 183.923 77.5802 182.929L61.2602 145.959L86.3402 120.879L123.31 137.219C125.33 138.109 127.65 137.999 129.58 136.919C139 131.609 149.03 127.449 159.41 124.549C160.458 124.258 161.424 123.726 162.23 122.995C163.035 122.264 163.659 121.354 164.05 120.339L178.64 82.6591H214.11L228.68 120.329C229.48 122.389 231.2 123.949 233.33 124.549C243.741 127.457 253.764 131.611 263.18 136.919C264.129 137.456 265.191 137.763 266.28 137.816C267.369 137.868 268.455 137.663 269.45 137.219L306.42 120.879L331.5 145.959L315.16 182.929C314.721 183.926 314.52 185.011 314.572 186.099C314.624 187.188 314.928 188.249 315.46 189.199C320.76 198.599 324.92 208.639 327.83 219.049C328.123 220.098 328.655 221.064 329.386 221.871C330.117 222.678 331.026 223.304 332.04 223.699L369.72 238.289V273.739L332.04 288.329C329.98 289.129 328.42 290.849 327.83 292.979C324.93 303.349 320.77 313.389 315.46 322.809C314.925 323.759 314.62 324.82 314.568 325.909C314.516 326.997 314.719 328.083 315.16 329.079L331.5 366.049L306.42 391.149L269.45 374.809C268.457 374.37 267.375 374.168 266.29 374.22C265.205 374.272 264.147 374.577 263.2 375.109C253.7 380.439 243.65 384.599 233.33 387.489L233.32 387.459ZM485.64 299.499C484.7 300.759 483.62 302.209 482.41 303.899L475.98 312.799C475.93 312.869 475.88 312.939 475.83 313.019C472.43 318.119 473.08 323.769 473.88 328.219L452.49 335.039C449.95 335.849 448.09 338.029 447.69 340.659C447.29 343.289 448.42 345.929 450.61 347.449L469.74 360.799L466.77 363.909C465.726 365.004 465.063 366.407 464.88 367.909L463.21 381.719C462.7 385.889 462.13 390.579 461.4 392.029C460.71 392.189 458.65 392.349 452.92 391.319L450.8 390.939C431.52 387.459 418.78 385.159 407.56 389.859C395.18 395.039 387 408.159 377.82 427.659C377.66 427.999 377.53 428.349 377.42 428.709L377.23 429.369H253.9C255.84 424.589 257.89 419.699 259.9 414.899C263.32 406.739 266.83 398.359 269.9 390.319L305.15 405.899C307.8 407.069 310.89 406.489 312.93 404.439L344.79 372.549C345.788 371.55 346.461 370.272 346.72 368.884C346.979 367.495 346.811 366.061 346.24 364.769L329.36 326.569C333.86 318.129 337.53 309.259 340.32 300.139L379.25 285.059C380.568 284.55 381.7 283.653 382.498 282.487C383.296 281.322 383.722 279.942 383.72 278.529V233.489C383.72 230.599 381.94 228.009 379.25 226.959L340.32 211.879C337.53 202.729 333.85 193.859 329.36 185.419L346.24 147.219C347.41 144.569 346.83 141.479 344.79 139.439L320.81 115.459C363.61 102.659 422.49 111.099 461.66 174.899C465.74 181.539 468.35 189.139 467.86 204.659V235.949L466.9 259.879C466.84 261.329 467.24 262.769 468.03 263.989L481.92 285.279C483.67 287.949 485.16 290.069 486.35 291.759C487.22 292.989 488.17 294.349 488.71 295.229C488.07 296.249 486.84 297.899 485.65 299.499H485.64ZM307.63 255.989C307.63 194.639 257.72 144.729 196.37 144.729C135.02 144.729 85.0802 194.639 85.0802 255.989C85.0802 317.339 135 367.279 196.37 367.279C257.74 367.279 307.63 317.359 307.63 255.989ZM196.37 353.279C142.73 353.279 99.0802 309.639 99.0802 255.989C99.0802 202.339 142.72 158.729 196.37 158.729C250.02 158.729 293.63 202.359 293.63 255.989C293.63 309.619 250 353.279 196.37 353.279ZM241.72 190.319V188.409C241.72 184.539 238.59 181.409 234.72 181.409C230.85 181.409 227.72 184.539 227.72 188.409V190.319C217.24 193.359 209.55 203.039 209.55 214.489C209.55 225.939 217.24 235.619 227.72 238.659V323.559C227.72 327.429 230.85 330.559 234.72 330.559C238.59 330.559 241.72 327.429 241.72 323.559V238.659C252.2 235.619 259.89 225.939 259.89 214.489C259.89 203.039 252.2 193.359 241.72 190.319ZM234.72 225.659C228.56 225.659 223.55 220.649 223.55 214.489C223.55 208.329 228.56 203.319 234.72 203.319C240.88 203.319 245.89 208.329 245.89 214.489C245.89 220.649 240.88 225.659 234.72 225.659ZM203.37 271.979V188.409C203.37 184.539 200.24 181.409 196.37 181.409C192.5 181.409 189.37 184.539 189.37 188.409V271.979C178.89 275.019 171.2 284.699 171.2 296.149C171.2 307.599 178.89 317.279 189.37 320.319V323.559C189.37 327.429 192.5 330.559 196.37 330.559C200.24 330.559 203.37 327.429 203.37 323.559V320.319C213.85 317.279 221.54 307.599 221.54 296.149C221.54 284.699 213.85 275.019 203.37 271.979ZM196.37 307.319C190.21 307.319 185.2 302.309 185.2 296.149C185.2 289.989 190.21 284.979 196.37 284.979C202.53 284.979 207.54 289.989 207.54 296.149C207.54 302.309 202.53 307.319 196.37 307.319ZM183.19 214.489C183.19 203.039 175.5 193.359 165.02 190.319V188.409C165.02 184.539 161.89 181.409 158.02 181.409C154.15 181.409 151.02 184.539 151.02 188.409V190.319C140.54 193.359 132.85 203.039 132.85 214.489C132.85 225.939 140.54 235.619 151.02 238.659V323.559C151.02 327.429 154.15 330.559 158.02 330.559C161.89 330.559 165.02 327.429 165.02 323.559V238.659C175.5 235.619 183.19 225.939 183.19 214.489ZM146.85 214.489C146.85 208.329 151.86 203.319 158.02 203.319C164.18 203.319 169.19 208.329 169.19 214.489C169.19 220.649 164.18 225.659 158.02 225.659C151.86 225.659 146.85 220.649 146.85 214.489Z" fill="#D68029"/>
</svg>
