<svg width="512" height="512" viewBox="0 0 512 512" fill="none" xmlns="http://www.w3.org/2000/svg">
<g clip-path="url(#clip0_3362_562)">
<path d="M350.2 267.16C349.06 266.103 347.637 265.401 346.105 265.139C344.572 264.878 342.997 265.069 341.572 265.688C340.146 266.308 338.932 267.329 338.077 268.628C337.222 269.926 336.765 271.445 336.76 273V490.6C336.762 491.927 337.094 493.233 337.727 494.4C338.359 495.567 339.272 496.558 340.383 497.284C341.494 498.01 342.768 498.449 344.091 498.56C345.414 498.671 346.743 498.451 347.96 497.92L391.12 479.12L403.12 507.12C403.993 509.038 405.588 510.534 407.557 511.283C409.527 512.031 411.713 511.973 413.64 511.12L472 485.96C473.918 485.087 475.414 483.492 476.163 481.522C476.911 479.552 476.853 477.367 476 475.44L464 447.44L507.16 428.64C508.378 428.109 509.444 427.282 510.263 426.236C511.081 425.189 511.626 423.955 511.849 422.645C512.071 421.335 511.963 419.991 511.536 418.733C511.108 417.475 510.374 416.343 509.4 415.44L350.2 267.16ZM450.2 435.92C448.282 436.793 446.786 438.388 446.037 440.357C445.288 442.327 445.347 444.513 446.2 446.44L458.2 474.44L414.52 493.44L402.52 465.44C401.647 463.522 400.052 462.026 398.082 461.277C396.112 460.528 393.927 460.587 392 461.44L352.68 478.56V291.56L489.56 419L450.2 435.92Z" fill="#D68029"/>
<path d="M312 464C314.122 464 316.157 463.157 317.657 461.657C319.157 460.157 320 458.122 320 456C320 453.878 319.157 451.843 317.657 450.343C316.157 448.843 314.122 448 312 448H48.32C39.7482 448 31.5275 444.595 25.4663 438.534C19.4051 432.473 16 424.252 16 415.68V144H448V332C448 334.122 448.843 336.157 450.343 337.657C451.843 339.157 453.878 340 456 340C458.122 340 460.157 339.157 461.657 337.657C463.157 336.157 464 334.122 464 332V48.32C463.989 35.508 458.895 23.2238 449.836 14.1643C440.776 5.10484 428.492 0.0105928 415.68 0L48.32 0C35.508 0.0105928 23.2238 5.10484 14.1643 14.1643C5.10484 23.2238 0.0105928 35.508 0 48.32L0 415.72C0.0211786 428.525 5.1201 440.799 14.1784 449.85C23.2367 458.901 35.5149 463.989 48.32 464H312ZM48.32 16H415.72C424.285 16.0106 432.495 19.4204 438.548 25.4804C444.6 31.5405 448 39.7551 448 48.32V128H16V48.32C16 39.7482 19.4051 31.5275 25.4663 25.4663C31.5275 19.4051 39.7482 16 48.32 16Z" fill="#D68029"/>
<path d="M392 96C396.747 96 401.387 94.5924 405.334 91.9553C409.28 89.3181 412.357 85.5698 414.173 81.1844C415.99 76.799 416.465 71.9734 415.539 67.3178C414.613 62.6623 412.327 58.3859 408.971 55.0294C405.614 51.673 401.338 49.3872 396.682 48.4612C392.027 47.5351 387.201 48.0104 382.816 49.8269C378.43 51.6434 374.682 54.7195 372.045 58.6663C369.408 62.6131 368 67.2533 368 72C368 78.3652 370.529 84.4697 375.029 88.9706C379.53 93.4714 385.635 96 392 96ZM392 64C393.582 64 395.129 64.4692 396.445 65.3483C397.76 66.2273 398.786 67.4767 399.391 68.9385C399.997 70.4003 400.155 72.0089 399.846 73.5607C399.538 75.1126 398.776 76.538 397.657 77.6569C396.538 78.7757 395.113 79.5376 393.561 79.8463C392.009 80.155 390.4 79.9965 388.939 79.391C387.477 78.7855 386.227 77.7602 385.348 76.4446C384.469 75.129 384 73.5823 384 72C384 69.8783 384.843 67.8434 386.343 66.3432C387.843 64.8429 389.878 64 392 64ZM328 96C332.747 96 337.387 94.5924 341.334 91.9553C345.28 89.3181 348.357 85.5698 350.173 81.1844C351.99 76.799 352.465 71.9734 351.539 67.3178C350.613 62.6623 348.327 58.3859 344.971 55.0294C341.614 51.673 337.338 49.3872 332.682 48.4612C328.027 47.5351 323.201 48.0104 318.816 49.8269C314.43 51.6434 310.682 54.7195 308.045 58.6663C305.408 62.6131 304 67.2533 304 72C304 78.3652 306.529 84.4697 311.029 88.9706C315.53 93.4714 321.635 96 328 96ZM328 64C329.582 64 331.129 64.4692 332.445 65.3483C333.76 66.2273 334.786 67.4767 335.391 68.9385C335.997 70.4003 336.155 72.0089 335.846 73.5607C335.538 75.1126 334.776 76.538 333.657 77.6569C332.538 78.7757 331.113 79.5376 329.561 79.8463C328.009 80.155 326.4 79.9965 324.939 79.391C323.477 78.7855 322.227 77.7602 321.348 76.4446C320.469 75.129 320 73.5823 320 72C320 69.8783 320.843 67.8434 322.343 66.3432C323.843 64.8429 325.878 64 328 64ZM264 96C268.747 96 273.387 94.5924 277.334 91.9553C281.28 89.3181 284.357 85.5698 286.173 81.1844C287.99 76.799 288.465 71.9734 287.539 67.3178C286.613 62.6623 284.327 58.3859 280.971 55.0294C277.614 51.673 273.338 49.3872 268.682 48.4612C264.027 47.5351 259.201 48.0104 254.816 49.8269C250.43 51.6434 246.682 54.7195 244.045 58.6663C241.408 62.6131 240 67.2533 240 72C240 78.3652 242.529 84.4697 247.029 88.9706C251.53 93.4714 257.635 96 264 96ZM264 64C265.582 64 267.129 64.4692 268.445 65.3483C269.76 66.2273 270.786 67.4767 271.391 68.9385C271.997 70.4003 272.155 72.0089 271.846 73.5607C271.538 75.1126 270.776 76.538 269.657 77.6569C268.538 78.7757 267.113 79.5376 265.561 79.8463C264.009 80.155 262.4 79.9965 260.939 79.391C259.477 78.7855 258.227 77.7602 257.348 76.4446C256.469 75.129 256 73.5823 256 72C256 69.8783 256.843 67.8434 258.343 66.3432C259.843 64.8429 261.878 64 264 64ZM296 208H143.2C141.364 198.958 136.458 190.828 129.314 184.989C122.17 179.15 113.227 175.96 104 175.96C94.7732 175.96 85.83 179.15 78.6859 184.989C71.5418 190.828 66.6361 198.958 64.8 208H56C53.8783 208 51.8434 208.843 50.3431 210.343C48.8429 211.843 48 213.878 48 216C48 218.122 48.8429 220.157 50.3431 221.657C51.8434 223.157 53.8783 224 56 224H64.8C66.6361 233.042 71.5418 241.172 78.6859 247.011C85.83 252.85 94.7732 256.04 104 256.04C113.227 256.04 122.17 252.85 129.314 247.011C136.458 241.172 141.364 233.042 143.2 224H296C298.122 224 300.157 223.157 301.657 221.657C303.157 220.157 304 218.122 304 216C304 213.878 303.157 211.843 301.657 210.343C300.157 208.843 298.122 208 296 208ZM104 240C99.2533 240 94.6131 238.592 90.6663 235.955C86.7195 233.318 83.6434 229.57 81.8269 225.184C80.0104 220.799 79.5351 215.973 80.4612 211.318C81.3872 206.662 83.673 202.386 87.0294 199.029C90.3859 195.673 94.6623 193.387 99.3178 192.461C103.973 191.535 108.799 192.01 113.184 193.827C117.57 195.643 121.318 198.72 123.955 202.666C126.592 206.613 128 211.253 128 216C128 222.365 125.471 228.47 120.971 232.971C116.47 237.471 110.365 240 104 240ZM215.2 368C213.364 358.958 208.458 350.828 201.314 344.989C194.17 339.15 185.227 335.96 176 335.96C166.773 335.96 157.83 339.15 150.686 344.989C143.542 350.828 138.636 358.958 136.8 368H56C53.8783 368 51.8434 368.843 50.3431 370.343C48.8429 371.843 48 373.878 48 376C48 378.122 48.8429 380.157 50.3431 381.657C51.8434 383.157 53.8783 384 56 384H136.8C138.636 393.042 143.542 401.172 150.686 407.011C157.83 412.85 166.773 416.04 176 416.04C185.227 416.04 194.17 412.85 201.314 407.011C208.458 401.172 213.364 393.042 215.2 384H296C298.122 384 300.157 383.157 301.657 381.657C303.157 380.157 304 378.122 304 376C304 373.878 303.157 371.843 301.657 370.343C300.157 368.843 298.122 368 296 368H215.2ZM176 400C171.253 400 166.613 398.592 162.666 395.955C158.72 393.318 155.643 389.57 153.827 385.184C152.01 380.799 151.535 375.973 152.461 371.318C153.387 366.662 155.673 362.386 159.029 359.029C162.386 355.673 166.662 353.387 171.318 352.461C175.973 351.535 180.799 352.01 185.184 353.827C189.57 355.643 193.318 358.72 195.955 362.666C198.592 366.613 200 371.253 200 376C200 382.365 197.471 388.47 192.971 392.971C188.47 397.471 182.365 400 176 400ZM264 256C254.779 255.998 245.84 259.182 238.697 265.014C231.553 270.845 226.644 278.965 224.8 288H56C53.8783 288 51.8434 288.843 50.3431 290.343C48.8429 291.843 48 293.878 48 296C48 298.122 48.8429 300.157 50.3431 301.657C51.8434 303.157 53.8783 304 56 304H224.8C226.314 311.415 229.9 318.249 235.142 323.708C240.385 329.166 247.068 333.025 254.416 334.837C261.765 336.649 269.476 336.339 276.655 333.943C283.834 331.547 290.186 327.163 294.973 321.301C299.76 315.44 302.786 308.34 303.7 300.827C304.613 293.314 303.376 285.696 300.133 278.858C296.889 272.02 291.772 266.242 285.377 262.196C278.981 258.15 271.568 256.002 264 256ZM264 320C259.253 320 254.613 318.592 250.666 315.955C246.72 313.318 243.643 309.57 241.827 305.184C240.01 300.799 239.535 295.973 240.461 291.318C241.387 286.662 243.673 282.386 247.029 279.029C250.386 275.673 254.662 273.387 259.318 272.461C263.973 271.535 268.799 272.01 273.184 273.827C277.57 275.643 281.318 278.72 283.955 282.666C286.592 286.613 288 291.253 288 296C288 302.365 285.471 308.47 280.971 312.971C276.47 317.471 270.365 320 264 320Z" fill="#D68029"/>
</g>
<defs>
<clipPath id="clip0_3362_562">
<rect width="512" height="512" fill="white"/>
</clipPath>
</defs>
</svg>
