<svg xmlns="http://www.w3.org/2000/svg" width="683" height="490" viewBox="0 0 683 490" fill="none"><g clip-path="url(#clip0_3325_936)"><path d="M584.5 490C638.9 490 683 476.345 683 459.5C683 442.655 638.9 429 584.5 429C530.1 429 486 442.655 486 459.5C486 476.345 530.1 490 584.5 490Z" fill="#ECECEC"></path><path d="M571.073 447.807C571.073 447.807 541.618 456.255 537.506 457.707C533.764 459.028 523.625 462.58 516.017 461.482C515.282 461.374 514.556 461.217 513.843 461.012C506.134 458.712 502.673 456.575 501.664 451.724C500.655 446.873 504.488 443.31 508.185 441.024C511.882 438.738 531.938 436.353 531.938 436.353L536.778 437.776H536.789L571.073 447.807Z" fill="#D68029"></path><path d="M516.017 461.486C515.282 461.379 514.556 461.222 513.843 461.016C506.134 458.716 502.673 456.579 501.664 451.728C500.655 446.877 504.488 443.314 508.185 441.028C511.882 438.742 531.938 436.357 531.938 436.357L536.778 437.78C532.397 439.796 516.062 440.916 512.499 442.967C508.936 445.018 507.21 448.882 509.317 454.104C510.436 456.881 513.436 459.57 516.017 461.486Z" fill="#383838"></path><path d="M660.785 462.856C660.485 465.869 659.418 468.756 656.371 470.556C654.343 471.756 651.452 472.473 647.318 472.428C636.988 472.293 617.571 464.91 617.571 464.91L599.387 454.856L608.843 439.887L611.431 435.787L618.12 437.287C618.12 437.287 623.654 440.424 629.22 442.923C634.786 445.422 648.3 445.948 653.062 449.802C657.824 453.656 661.3 457.834 660.785 462.856Z" fill="#D68029"></path><path d="M660.784 462.856C660.484 465.869 659.417 468.756 656.37 470.556C657.242 467.561 657.06 464.358 655.854 461.481C653.838 456.921 647.216 452.9 638.521 452.227C629.826 451.554 623.172 447.488 619.687 445.672C616.965 444.26 611.228 441.18 608.842 439.891L611.43 435.791L618.119 437.291C618.119 437.291 623.653 440.428 629.219 442.927C634.785 445.426 648.299 445.952 653.061 449.806C657.823 453.66 661.299 457.834 660.784 462.856Z" fill="#383838"></path><path d="M623.933 300.328L593.166 288.619L592.785 288.474C592.785 288.474 592.898 287.655 592.985 286.468C593.175 284.014 593.277 280.014 592.123 278.658C590.409 276.658 585.545 278.334 580.806 276.158C576.067 273.982 567.294 277.872 567.294 277.872C567.294 277.872 560.963 276.707 558.173 281.279C556.751 284.965 557.244 290.455 557.244 290.455C557.244 290.455 557.044 290.533 556.661 290.668C552.997 292.035 533.055 299.541 528.83 302.556C524.169 305.856 519.016 339.756 517.357 349.702C515.698 359.648 512.757 368.625 514.257 372.053C515.757 375.481 537.18 391.976 549.504 396.232C561.828 400.488 605.558 399.247 605.558 399.247C605.558 399.247 606.275 399.055 607.541 398.652C614.941 396.276 641.176 386.496 655.091 363.427C655.091 363.429 641.613 319.218 623.933 300.328ZM540.81 357.333C538.547 358.933 539.757 365.154 539.757 365.154L535.903 361.76L545.572 337.985L549.695 356.236C549.695 356.236 543.074 355.743 540.81 357.333ZM618.163 372.433C617.099 372.982 621.221 361.554 619.263 358.966C617.305 356.378 611.431 356.625 611.431 356.625L611.931 353.499C611.999 353.152 615.416 335.628 615.416 335.628L616.57 334.251C616.57 334.251 628.537 354.765 630.676 361.991C630.677 361.994 617.635 372.437 618.163 372.437V372.433Z" fill="#D68029"></path><path d="M593.167 288.62C592.933 289.248 592.66 289.862 592.349 290.457C589.728 295.398 578.31 304.81 578.31 304.81L574.86 294.199L572.966 304.81C569.157 303.151 557.539 293.079 557.539 293.079C557.539 293.079 557.147 292.138 556.664 290.671C557.045 290.536 557.247 290.458 557.247 290.458C557.247 290.458 556.754 284.968 558.176 281.282C560.966 276.71 567.297 277.875 567.297 277.875C567.297 277.875 576.069 273.987 580.809 276.161C585.549 278.335 590.409 276.655 592.126 278.661C593.843 280.667 592.786 288.477 592.786 288.477L593.167 288.62Z" fill="#D68029"></path><path d="M565.844 226.174L549.966 243.033C549.966 243.033 547.775 244.968 548.646 249.858C549.517 254.748 551.546 258.95 553.074 259.276C554.288 259.489 555.518 259.599 556.751 259.605C556.751 259.605 560.151 266.979 562.564 269.878C562.564 269.878 563.404 281.26 562.956 284.421C562.956 284.421 568.661 289.404 574.034 290.038C579.407 290.672 587.71 282.438 587.71 282.438L589.769 272.359C589.769 272.359 594.639 264.965 594.969 262.995C595.299 261.025 597.527 261.531 598.622 260.561C599.717 259.591 602.249 255.247 602.666 251.143C603.083 247.039 603.114 242.326 598.347 243.71C594.216 242.6 596.802 233.868 596.802 233.868L589.544 227.468L565.844 226.174Z" fill="#F8B58E"></path><path d="M623.935 300.329L593.169 288.62L592.788 288.475C592.788 288.475 592.901 287.656 592.988 286.469L592.349 290.458L587.801 296.642C592.659 298.431 597.402 300.521 602.001 302.9C604.211 304.078 606.016 305.894 607.179 308.113C608.342 310.331 608.811 312.848 608.523 315.337L602.851 363.837L600.532 391.376L607.545 398.658C614.945 396.282 641.18 386.501 655.095 363.432C655.093 363.429 641.615 319.219 623.935 300.329ZM618.165 372.437C617.101 372.986 621.223 361.558 619.265 358.97C617.307 356.382 611.433 356.629 611.433 356.629L611.933 353.503C612.001 353.156 615.418 335.632 615.418 335.632L616.569 334.251C616.569 334.251 628.536 354.765 630.675 361.991C630.679 361.995 617.638 372.437 618.169 372.437H618.165Z" fill="#D68029"></path><path d="M551.78 358.97L546.995 342.982C546.995 342.982 538.418 313.726 532.536 306.511L534.082 327.086C534.082 327.086 529.036 351.665 524.364 358.97C519.692 366.275 518.683 368.09 524.364 368.09C530.045 368.09 543.859 379.104 543.859 379.104L542.795 369.916L551.78 358.97ZM539.757 365.154L535.904 361.76L545.573 337.985L549.696 356.236C549.696 356.236 543.075 355.743 540.811 357.336C538.547 358.929 539.758 365.154 539.758 365.154H539.757Z" fill="#D68029"></path><path d="M562.955 274.615C562.955 274.615 566.055 283.151 572.968 285.572C579.881 287.993 589.068 275.428 589.068 275.428L588.589 273.795C588.589 273.795 582.571 281.613 575.878 280.279C569.185 278.945 562.564 269.879 562.564 269.879L562.955 274.615Z" fill="#E39567"></path><path d="M555.895 254.995C557.329 254.768 558.622 254.004 559.513 252.858C560.066 251.854 560.423 250.753 560.564 249.616C560.938 247.457 561.13 245.271 561.138 243.081C561.09 242.225 561.168 241.367 561.368 240.534C561.667 239.692 562.136 238.921 562.746 238.268C564.185 236.581 565.917 235.157 567.285 233.412C568.021 232.58 568.579 231.606 568.923 230.55C569.267 229.495 569.39 228.379 569.285 227.274C572.428 229.864 576.1 231.735 580.044 232.754C583.987 233.774 588.106 233.917 592.111 233.174C599.366 231.751 606.331 225.384 605.482 217.382C605.321 216.034 604.741 214.772 603.824 213.772C602.907 212.772 601.698 212.086 600.37 211.81C596.783 210.918 593.56 212.83 590.311 214.056C584.388 216.289 578.591 212.456 572.606 211.809C567.487 211.259 561.206 211.893 558.539 216.983C558.539 216.983 549.344 218.064 545.317 225.614C541.29 233.164 548.946 243.62 548.946 243.62C548.946 243.62 552.027 239.89 555.987 247.441L555.895 254.995Z" fill="#383838"></path><path d="M591.477 230.669C591.477 230.669 589.099 243.059 595.304 249.058C595.304 249.058 596.662 245.334 598.038 244.425C599.026 242.225 599.444 239.812 599.254 237.408C599.064 235.004 598.272 232.687 596.951 230.669C592.412 223.459 591.477 230.669 591.477 230.669Z" fill="#383838"></path><path d="M602.842 216.571C602.299 218.259 601.379 219.801 600.153 221.081C598.926 222.361 597.425 223.346 595.763 223.961C587.15 227.469 578.785 223.578 570.163 222.816C563.115 222.192 555.345 228.542 554.854 235.777" stroke="white" stroke-linecap="round" stroke-linejoin="round"></path><path d="M549.504 233.869C549.614 231.012 550.535 228.245 552.159 225.892C553.784 223.539 556.045 221.697 558.678 220.582" stroke="white" stroke-linecap="round" stroke-linejoin="round"></path><path d="M567.5 263C572.194 263 576 259.194 576 254.5C576 249.806 572.194 246 567.5 246C562.806 246 559 249.806 559 254.5C559 259.194 562.806 263 567.5 263Z" stroke="#073570" stroke-linecap="round" stroke-linejoin="round"></path><path d="M587.944 262.795C592.612 262.795 596.396 259.011 596.396 254.343C596.396 249.675 592.612 245.891 587.944 245.891C583.276 245.891 579.492 249.675 579.492 254.343C579.492 259.011 583.276 262.795 587.944 262.795Z" stroke="#073570" stroke-linecap="round" stroke-linejoin="round"></path><path d="M577.607 309.767C577.607 310.121 577.502 310.467 577.306 310.762C577.109 311.056 576.829 311.286 576.502 311.421C576.175 311.557 575.814 311.592 575.467 311.523C575.12 311.454 574.8 311.283 574.55 311.033C574.299 310.783 574.129 310.463 574.06 310.116C573.991 309.769 574.026 309.408 574.162 309.081C574.297 308.754 574.527 308.474 574.821 308.277C575.116 308.081 575.462 307.976 575.816 307.976C576.052 307.975 576.285 308.022 576.502 308.112C576.719 308.202 576.917 308.334 577.083 308.5C577.249 308.666 577.381 308.864 577.471 309.081C577.561 309.298 577.608 309.531 577.607 309.767Z" fill="#263238"></path><path d="M609.117 405.464H547.141C546.756 405.463 546.387 405.31 546.115 405.038C545.842 404.765 545.689 404.396 545.689 404.011C545.69 403.626 545.843 403.256 546.115 402.984C546.387 402.712 546.756 402.559 547.141 402.559H609.117C609.502 402.559 609.872 402.712 610.144 402.984C610.416 403.256 610.569 403.626 610.569 404.011C610.569 404.396 610.417 404.765 610.144 405.038C609.872 405.31 609.503 405.463 609.117 405.464Z" fill="#D68029"></path><path d="M611.286 400.647L619.591 361.647C619.72 361.042 619.712 360.416 619.567 359.815C619.423 359.214 619.146 358.652 618.757 358.172C618.368 357.691 617.876 357.303 617.318 357.037C616.76 356.771 616.15 356.633 615.531 356.633H543.123C542.51 356.633 541.904 356.769 541.35 357.03C540.796 357.292 540.306 357.674 539.917 358.148C539.527 358.621 539.248 359.175 539.098 359.77C538.948 360.365 538.932 360.985 539.051 361.587L546.497 399.287C546.68 400.214 547.174 401.05 547.897 401.659C548.62 402.267 549.529 402.61 550.473 402.632L607.131 403.932C608.098 403.954 609.042 403.638 609.801 403.038C610.559 402.438 611.085 401.593 611.286 400.647Z" fill="#12203D"></path><path d="M585.309 378.581C585.309 379.751 584.962 380.895 584.312 381.868C583.662 382.841 582.738 383.599 581.657 384.047C580.576 384.494 579.386 384.612 578.239 384.383C577.091 384.155 576.037 383.592 575.21 382.765C574.382 381.937 573.819 380.883 573.59 379.736C573.362 378.588 573.479 377.399 573.927 376.318C574.374 375.237 575.132 374.313 576.105 373.663C577.078 373.012 578.222 372.665 579.392 372.665C580.169 372.665 580.938 372.818 581.656 373.115C582.374 373.412 583.026 373.848 583.575 374.397C584.125 374.947 584.561 375.599 584.858 376.317C585.155 377.035 585.309 377.804 585.309 378.581Z" fill="white"></path><path d="M595 361H604" stroke="white" stroke-width="2" stroke-linecap="round" stroke-linejoin="round"></path><path d="M555 361H587" stroke="white" stroke-width="2" stroke-linecap="round" stroke-linejoin="round"></path><path d="M611.429 442.023L604.829 459.348C604.829 459.348 587.998 455.105 566.429 450.685C543.877 446.064 520.322 440.085 508.105 418.645C506.615 416.032 505.624 412.945 506.321 410.018C508.084 402.618 517.716 400.604 524.065 399.863C528.057 399.434 532.067 399.208 536.081 399.187C538.126 399.159 544.869 398.087 546.501 399.287C548.96 401.081 551.584 402.636 554.338 403.931C557.944 405.462 610.573 402.556 610.573 402.556C611.49 400.562 612.051 398.423 612.229 396.236C620.502 392.036 639.659 388.47 647.753 390.043C660.483 392.518 667.907 399.943 666.493 407.722C665.079 415.501 636.985 436.366 611.429 442.023Z" fill="#073570"></path><path opacity="0.4" d="M611.43 442.023C611.43 442.023 595.421 437.784 582.338 428.94C569.255 420.096 559.038 409.846 540.809 411.968" stroke="white" stroke-linecap="round" stroke-linejoin="round"></path><path opacity="0.4" d="M579.328 426.854C587.592 424.476 593.657 419.132 600.288 413.997C607.285 408.384 614.798 403.447 622.727 399.252" stroke="white" stroke-linecap="round" stroke-linejoin="round"></path><path d="M576 255H579" stroke="#073570" stroke-linecap="round" stroke-linejoin="round"></path><path d="M656 249H622C619.239 249 617 251.239 617 254V276C617 278.761 619.239 281 622 281H656C658.761 281 661 278.761 661 276V254C661 251.239 658.761 249 656 249Z" fill="#D68029"></path><path d="M632.638 259.414L624.186 264.534L632.029 271.246" stroke="white" stroke-width="2" stroke-linecap="round" stroke-linejoin="round"></path><path d="M636.998 274.001L642.998 256.001" stroke="white" stroke-width="2" stroke-linecap="round" stroke-linejoin="round"></path><path d="M647.006 259.414L655.458 264.534L647.615 271.246" stroke="white" stroke-width="2" stroke-linecap="round" stroke-linejoin="round"></path><path d="M541.826 379.957H455.893V129.539H50.3828V434.924H259.614" stroke="#D68029" stroke-width="2" stroke-linecap="round" stroke-dasharray="7 7"></path><path d="M577.56 91.882C578.178 89.411 578.503 86.8759 578.528 84.329L590 78.3L586.83 66.666L573.88 67.271C572.572 65.0914 571.01 63.0744 569.228 61.262L573.064 48.881L562.607 42.893L553.858 52.434C551.391 51.8335 548.864 51.5122 546.325 51.476L540.268 39.999L528.645 43.161L529.258 56.121C527.077 57.4312 525.056 58.99 523.234 60.766L510.841 56.944L504.841 67.378L514.441 76.099C513.822 78.5626 513.504 81.092 513.494 83.632L502 89.681L505.17 101.315L518.137 100.701C519.428 102.89 520.985 104.91 522.772 106.717L518.917 119.036L529.375 125.024L538.075 115.565C540.544 116.184 543.079 116.503 545.625 116.516L551.665 128L563.289 124.839L562.778 113.769L562.692 111.869C564.899 110.568 566.941 109.006 568.775 107.217L581.159 111.064L586.276 102.125L587.149 100.612L577.56 91.882ZM550.077 98.949C547.107 99.7573 543.964 99.6667 541.046 98.6886C538.127 97.7106 535.564 95.8891 533.681 93.4545C531.798 91.0198 530.679 88.0814 530.466 85.0108C530.253 81.9402 530.955 78.8754 532.484 76.2039C534.012 73.5324 536.299 71.3743 539.054 70.0024C541.81 68.6305 544.91 68.1065 547.963 68.4967C551.016 68.8869 553.885 70.1737 556.207 72.1944C558.529 74.2151 560.199 76.879 561.007 79.849C562.088 83.8313 561.544 88.0799 559.495 91.6614C557.445 95.2429 554.058 97.8645 550.077 98.95V98.949Z" fill="#D68029"></path><path d="M537 26.71V243.302C537.002 250.38 534.193 257.169 529.191 262.176C524.188 267.183 517.401 269.998 510.323 270.002H129.677C122.599 269.998 115.812 267.183 110.809 262.176C105.807 257.169 102.998 250.38 103 243.302V26.71C103 26.074 103.026 25.449 103.079 24.826C103.549 18.0901 106.555 11.7828 111.491 7.17574C116.427 2.56864 122.927 0.00439581 129.679 0H510.323C517.075 0.00439581 523.575 2.56864 528.511 7.17574C533.447 11.7828 536.453 18.0901 536.923 24.826C536.974 25.449 537 26.074 537 26.71Z" fill="#FAD8B0"></path><path d="M116 35H524V239C524 244.304 521.893 249.391 518.142 253.142C514.391 256.893 509.304 259 504 259H136C130.696 259 125.609 256.893 121.858 253.142C118.107 249.391 116 244.304 116 239V35Z" fill="#12203D"></path><path d="M537 25H103C103.447 18.2389 106.442 11.8989 111.38 7.25916C116.318 2.61941 122.832 0.0252366 129.608 0H510.392C517.168 0.0252366 523.682 2.61941 528.62 7.25916C533.558 11.8989 536.553 18.2389 537 25Z" fill="#D68029"></path><path d="M156 12.499C156 13.389 155.736 14.2591 155.242 14.9991C154.747 15.7391 154.044 16.3159 153.222 16.6565C152.4 16.9971 151.495 17.0862 150.622 16.9126C149.749 16.7389 148.947 16.3103 148.318 15.681C147.689 15.0517 147.26 14.2498 147.086 13.3769C146.913 12.504 147.002 11.5992 147.343 10.7769C147.683 9.95468 148.26 9.25187 149 8.75741C149.74 8.26294 150.61 7.99902 151.5 7.99902C152.693 7.99902 153.838 8.47313 154.682 9.31704C155.526 10.161 156 11.3055 156 12.499Z" fill="white"></path><path d="M175 12.499C175 13.389 174.736 14.2591 174.242 14.9991C173.747 15.7391 173.044 16.3159 172.222 16.6565C171.4 16.9971 170.495 17.0862 169.622 16.9126C168.749 16.7389 167.947 16.3103 167.318 15.681C166.689 15.0517 166.26 14.2498 166.086 13.3769C165.913 12.504 166.002 11.5992 166.343 10.7769C166.683 9.95468 167.26 9.25187 168 8.75741C168.74 8.26294 169.61 7.99902 170.5 7.99902C171.693 7.99902 172.838 8.47313 173.682 9.31704C174.526 10.161 175 11.3055 175 12.499Z" fill="white"></path><path d="M194 12.499C194 13.389 193.736 14.2591 193.242 14.9991C192.747 15.7391 192.044 16.3159 191.222 16.6565C190.4 16.9971 189.495 17.0862 188.622 16.9126C187.749 16.7389 186.947 16.3103 186.318 15.681C185.689 15.0517 185.26 14.2498 185.086 13.3769C184.913 12.504 185.002 11.5992 185.343 10.7769C185.683 9.95468 186.26 9.25187 187 8.75741C187.74 8.26294 188.61 7.99902 189.5 7.99902C190.693 7.99902 191.838 8.47313 192.682 9.31704C193.526 10.161 194 11.3055 194 12.499Z" fill="white"></path><path d="M152.485 77.5312H140V83.1642H152.485V77.5312Z" fill="#D68029"></path><path d="M325.673 77.5312H161.584V83.1642H325.673V77.5312Z" fill="#D68029"></path><path d="M484.936 77.5312H435.752V83.1642H484.936V77.5312Z" fill="#D68029"></path><path d="M356.312 77.5312H332.598V83.1642H356.312V77.5312Z" fill="#D68029"></path><path d="M394.114 138.166H370.4V143.799H394.114V138.166Z" fill="#D68029"></path><path d="M429.897 77.5312H363.092V83.1642H429.897V77.5312Z" fill="#91BA83"></path><path d="M164.968 89.5781H152.484V95.2111H164.968V89.5781Z" fill="#D68029"></path><path d="M267.738 89.5781H173.756V95.2111H267.738V89.5781Z" fill="#91BA83"></path><path d="M364.9 138.166H329.35V143.799H364.9V138.166Z" fill="#91BA83"></path><path d="M437.275 138.166H401.725V143.799H437.275V138.166Z" fill="#D68029"></path><path d="M251.351 126.02H161.584V131.653H251.351V126.02Z" fill="#91BA83"></path><path d="M236.73 101.727H173.756V107.36H236.73V101.727Z" fill="#D68029"></path><path d="M411.257 113.872H348.283V119.505H411.257V113.872Z" fill="#91BA83"></path><path d="M364.592 101.727H243.146V107.36H364.592V101.727Z" fill="#91BA83"></path><path d="M321.985 138.166H161.584V143.799H321.985V138.166Z" fill="#D68029"></path><path d="M449.169 89.5781H358.301V95.2111H449.169V89.5781Z" fill="#D68029"></path><path d="M353.788 89.5781H273.012V95.2111H353.788V89.5781Z" fill="#D68029"></path><path d="M401.695 101.727H374.42V107.36H401.695V101.727Z" fill="#D68029"></path><path d="M164.968 101.727H152.484V107.36H164.968V101.727Z" fill="#D68029"></path><path d="M152.485 113.872H140V119.505H152.485V113.872Z" fill="#91BA83"></path><path d="M235.367 113.872H161.584V119.505H235.367V113.872Z" fill="#D68029"></path><path d="M247.539 150.312H173.756V155.945H247.539V150.312Z" fill="#D68029"></path><path d="M379.214 162.458H297.309V168.091H379.214V162.458Z" fill="#D68029"></path><path d="M347.839 150.312H252.967V155.945H347.839V150.312Z" fill="#D68029"></path><path d="M291.283 162.458H205.996V168.091H291.283V162.458Z" fill="#D68029"></path><path d="M201.495 162.458H173.756V168.091H201.495V162.458Z" fill="#91BA83"></path><path d="M408.301 162.458H386.938V168.091H408.301V162.458Z" fill="#91BA83"></path><path d="M356.471 126.02H255.844V131.653H356.471V126.02Z" fill="#D68029"></path><path d="M437.613 126.02H361.061V131.653H437.613V126.02Z" fill="#D68029"></path><path d="M342.879 113.872H242.348V119.505H342.879V113.872Z" fill="#D68029"></path><path d="M152.485 126.02H140V131.653H152.485V126.02Z" fill="#D68029"></path><path d="M152.485 138.166H140V143.799H152.485V138.166Z" fill="#D68029"></path><path d="M164.968 150.312H152.484V155.945H164.968V150.312Z" fill="#91BA83"></path><path d="M415.235 150.312H354.557V155.945H415.235V150.312Z" fill="#91BA83"></path><path d="M483.963 150.312H423.285V155.945H483.963V150.312Z" fill="#D68029"></path><path d="M426.838 172.525H366.16V178.158H426.838V172.525Z" fill="#91BA83"></path><path d="M164.968 162.458H152.484V168.091H164.968V162.458Z" fill="#D68029"></path><path d="M152.485 172.632H140V178.265H152.485V172.632Z" fill="#D68029"></path><path d="M307.971 172.632H161.584V178.265H307.971V172.632Z" fill="#D68029"></path><path d="M483.964 172.632H436.725V178.265H483.964V172.632Z" fill="#D68029"></path><path d="M356.34 172.632H315.064V178.265H356.34V172.632Z" fill="#D68029"></path><path d="M164.968 184.779H152.484V190.412H164.968V184.779Z" fill="#D68029"></path><path d="M267.738 184.779H173.756V190.412H267.738V184.779Z" fill="#91BA83"></path><path d="M251.351 221.16H161.584V226.793H251.351V221.16Z" fill="#91BA83"></path><path d="M236.73 196.925H173.756V202.558H236.73V196.925Z" fill="#D68029"></path><path d="M364.592 196.925H243.146V202.558H364.592V196.925Z" fill="#91BA83"></path><path d="M321.985 233.365H161.584V238.998H321.985V233.365Z" fill="#D68029"></path><path d="M449.169 184.779H358.301V190.412H449.169V184.779Z" fill="#D68029"></path><path d="M353.788 184.779H273.012V190.412H353.788V184.779Z" fill="#D68029"></path><path d="M397.666 196.925H370.391V202.558H397.666V196.925Z" fill="#D68029"></path><path d="M164.968 196.925H152.484V202.558H164.968V196.925Z" fill="#D68029"></path><path d="M152.485 208.956H140V214.589H152.485V208.956Z" fill="#91BA83"></path><path d="M235.367 208.956H161.584V214.589H235.367V208.956Z" fill="#D68029"></path><path d="M424.9 208.956H351.117V214.589H424.9V208.956Z" fill="#91BA83"></path><path d="M393.917 221.16H255.74V226.793H393.917V221.16Z" fill="#D68029"></path><path d="M342.879 208.956H242.348V214.589H342.879V208.956Z" fill="#D68029"></path><path d="M152.485 221.16H140V226.793H152.485V221.16Z" fill="#D68029"></path><path d="M160.915 65.7131C160.808 65.6279 160.721 65.5196 160.662 65.3962C160.602 65.2728 160.571 65.1376 160.571 65.0006C160.571 64.8636 160.602 64.7284 160.662 64.605C160.721 64.4816 160.808 64.3733 160.915 64.2881L165.221 60.5001L160.916 56.7101C160.809 56.6249 160.722 56.5166 160.663 56.3932C160.603 56.2698 160.572 56.1346 160.572 55.9976C160.572 55.8606 160.603 55.7254 160.663 55.602C160.722 55.4786 160.809 55.3703 160.916 55.2851C161.148 55.0991 161.436 54.9977 161.733 54.9977C162.03 54.9977 162.318 55.0991 162.55 55.2851L167.65 59.8001C167.696 59.8271 167.735 59.8653 167.762 59.9111C167.767 59.9107 167.771 59.9112 167.776 59.9127C167.78 59.9142 167.784 59.9165 167.788 59.9196C167.791 59.9227 167.794 59.9265 167.796 59.9307C167.798 59.9349 167.799 59.9395 167.799 59.9441C167.833 59.9741 167.852 60.0441 167.889 60.0841C167.889 60.1031 167.904 60.1031 167.904 60.1171C167.923 60.1651 167.923 60.1981 167.941 60.2421C167.941 60.2611 167.978 60.2751 167.978 60.3081V60.4191C167.978 60.4331 167.997 60.4811 167.997 60.5001C167.997 60.5441 167.978 60.5631 167.978 60.5921V60.7001C167.978 60.7191 167.941 60.7331 167.941 60.7811C167.923 60.7951 167.923 60.8441 167.904 60.8811C167.902 60.8953 167.896 60.9087 167.887 60.9197C167.877 60.9308 167.866 60.9392 167.852 60.9441C167.84 60.9881 167.823 61.0302 167.799 61.0691C167.779 61.077 167.76 61.0881 167.743 61.1021C167.738 61.1255 167.726 61.1471 167.71 61.1647C167.694 61.1823 167.673 61.1952 167.65 61.2021L162.55 65.7171C162.313 65.9059 162.017 66.0072 161.714 66.0041C161.422 66.0049 161.138 65.9018 160.915 65.7131ZM152.005 65.9341C151.405 65.7601 151.129 65.2341 151.378 64.7921L156.5 55.5311C156.671 55.2992 156.913 55.1292 157.189 55.0467C157.465 54.9643 157.76 54.9739 158.03 55.0741C158.152 55.0936 158.268 55.1412 158.368 55.2133C158.468 55.2853 158.55 55.3798 158.607 55.4891C158.665 55.5985 158.696 55.7197 158.698 55.8431C158.7 55.9666 158.673 56.0888 158.62 56.2001L153.494 65.4771C153.374 65.6475 153.213 65.7848 153.026 65.8762C152.838 65.9677 152.631 66.0103 152.423 66.0001C152.281 66.0032 152.139 65.9808 152.005 65.9341ZM147.454 65.7131L142.346 61.2001C142.323 61.1937 142.303 61.1809 142.287 61.1631C142.271 61.1454 142.261 61.1235 142.257 61.1001C142.24 61.0867 142.221 61.0763 142.2 61.0691C142.174 61.0311 142.155 60.9887 142.144 60.9441C142.13 60.9392 142.118 60.9308 142.109 60.9197C142.1 60.9087 142.093 60.8953 142.091 60.8811C142.074 60.8481 142.074 60.8001 142.055 60.7861C142.055 60.7381 142.018 60.7231 142.018 60.7051V60.5951C142.018 60.5641 142 60.5461 142 60.5001C142 60.4811 142.018 60.4341 142.018 60.4191V60.3101C142.018 60.2771 142.055 60.2631 142.055 60.2441C142.074 60.2001 142.074 60.1671 142.092 60.1191C142.092 60.1051 142.107 60.1051 142.107 60.0861C142.144 60.0421 142.163 59.9761 142.2 59.9461C142.2 59.9415 142.201 59.9369 142.203 59.9327C142.205 59.9285 142.208 59.9247 142.211 59.9216C142.215 59.9185 142.219 59.9162 142.223 59.9147C142.228 59.9132 142.232 59.9127 142.237 59.9131C142.263 59.8666 142.301 59.8277 142.346 59.8001L147.454 55.2871C147.686 55.1011 147.974 54.9997 148.271 54.9997C148.568 54.9997 148.856 55.1011 149.088 55.2871C149.195 55.3728 149.281 55.4812 149.34 55.6045C149.399 55.7279 149.43 55.8629 149.43 55.9996C149.43 56.1363 149.399 56.2713 149.34 56.3947C149.281 56.518 149.195 56.6264 149.088 56.7121L144.783 60.5001L149.088 64.2881C149.195 64.3737 149.281 64.4822 149.34 64.6055C149.399 64.7289 149.43 64.8639 149.43 65.0006C149.43 65.1373 149.399 65.2723 149.34 65.3957C149.281 65.519 149.195 65.6274 149.088 65.7131C148.863 65.8999 148.58 66.0015 148.288 66.0001C147.985 66.004 147.69 65.9026 147.454 65.7131Z" fill="#D68029"></path><path d="M500 126.02H445.979V131.653H500V126.02Z" fill="#91BA83"></path><path d="M359 314H262C253.163 314 246 321.163 246 330V466C246 474.837 253.163 482 262 482H359C367.837 482 375 474.837 375 466V330C375 321.163 367.837 314 359 314Z" fill="#D68029"></path><path d="M382.69 335.237V477.146C382.688 478.836 382.353 480.51 381.704 482.071C381.055 483.633 380.105 485.051 378.908 486.244C377.711 487.438 376.29 488.384 374.727 489.029C373.164 489.673 371.489 490.004 369.799 490.001H267.017C265.327 490.002 263.653 489.671 262.091 489.026C260.529 488.381 259.11 487.435 257.914 486.241C256.718 485.047 255.769 483.63 255.121 482.069C254.472 480.508 254.138 478.835 254.137 477.146V335.237C254.142 331.826 255.502 328.556 257.917 326.148C260.333 323.739 263.606 322.388 267.017 322.393H369.799C371.489 322.389 373.162 322.719 374.725 323.363C376.287 324.006 377.708 324.952 378.905 326.144C380.102 327.337 381.052 328.754 381.702 330.314C382.351 331.874 382.687 333.547 382.69 335.237Z" fill="#FAD8B0"></path><path d="M382.69 334.957V342.392H254.137V334.957C254.179 331.583 255.56 328.364 257.975 326.008C260.391 323.651 263.643 322.351 267.017 322.392H369.799C373.174 322.349 376.429 323.648 378.846 326.005C381.264 328.361 382.646 331.581 382.69 334.957Z" fill="#91BA83"></path><path d="M297 351H266V356H297V351Z" fill="#D68029"></path><path d="M297 402H266V407H297V402Z" fill="#D68029"></path><path d="M297 445H266V450H297V445Z" fill="#D68029"></path><path d="M354 361H266V366H354V361Z" fill="#383838"></path><path d="M354 413H266V417H354V413Z" fill="#383838"></path><path d="M354 456H266V460H354V456Z" fill="#383838"></path><path d="M340 370H266V374H340V370Z" fill="#383838"></path><path d="M340 421H266V425H340V421Z" fill="#383838"></path><path d="M340 464H266V468H340V464Z" fill="#263238"></path><path d="M349 378H266V382H349V378Z" fill="#383838"></path><path d="M349 429H266V433H349V429Z" fill="#383838"></path><path d="M349 464H266V468H349V464Z" fill="#383838"></path><path d="M349 386H266V390H349V386Z" fill="#383838"></path><path d="M276 332.5C276 333.192 275.795 333.869 275.41 334.444C275.026 335.02 274.479 335.469 273.839 335.734C273.2 335.998 272.496 336.068 271.817 335.933C271.138 335.798 270.515 335.464 270.025 334.975C269.536 334.485 269.202 333.862 269.067 333.183C268.932 332.504 269.002 331.8 269.266 331.161C269.531 330.521 269.98 329.974 270.556 329.59C271.131 329.205 271.808 329 272.5 329C273.428 329 274.318 329.369 274.975 330.025C275.631 330.682 276 331.572 276 332.5Z" fill="white"></path><path d="M295 332.5C295 333.192 294.795 333.869 294.41 334.444C294.026 335.02 293.479 335.469 292.839 335.734C292.2 335.998 291.496 336.068 290.817 335.933C290.138 335.798 289.515 335.464 289.025 334.975C288.536 334.485 288.202 333.862 288.067 333.183C287.932 332.504 288.002 331.8 288.266 331.161C288.531 330.521 288.98 329.974 289.556 329.59C290.131 329.205 290.808 329 291.5 329C292.428 329 293.318 329.369 293.975 330.025C294.631 330.682 295 331.572 295 332.5Z" fill="white"></path><path d="M314 332.5C314 333.192 313.795 333.869 313.41 334.444C313.026 335.02 312.479 335.469 311.839 335.734C311.2 335.998 310.496 336.068 309.817 335.933C309.138 335.798 308.515 335.464 308.025 334.975C307.536 334.485 307.202 333.862 307.067 333.183C306.932 332.504 307.002 331.8 307.266 331.161C307.531 330.521 307.98 329.974 308.556 329.59C309.131 329.205 309.808 329 310.5 329C311.428 329 312.318 329.369 312.975 330.025C313.631 330.682 314 331.572 314 332.5Z" fill="white"></path><path d="M200 263.814V334.2C199.999 336.671 199.511 339.117 198.564 341.4C197.618 343.682 196.23 345.755 194.482 347.501C192.734 349.247 190.658 350.631 188.375 351.575C186.091 352.518 183.644 353.003 181.173 353H18.827C13.8375 353.003 9.051 351.024 5.52034 347.499C1.98968 343.973 0.00397682 339.19 0 334.2V263.814C0.00318138 258.823 1.98817 254.037 5.5186 250.509C9.04903 246.981 13.836 245 18.827 245H181.173C183.645 244.999 186.092 245.485 188.376 246.429C190.66 247.374 192.735 248.76 194.484 250.507C196.232 252.254 197.619 254.329 198.566 256.612C199.512 258.895 199.999 261.342 200 263.814Z" fill="#D68029"></path><path d="M200 263.427V265H0V263.427C0.0551368 258.488 2.06915 253.772 5.59944 250.317C9.12973 246.861 13.8874 244.949 18.827 245H181.173C183.619 244.974 186.047 245.43 188.316 246.341C190.586 247.253 192.655 248.603 194.403 250.314C196.151 252.025 197.545 254.064 198.506 256.314C199.466 258.564 199.974 260.981 200 263.427Z" fill="#D68029"></path><path d="M29.1216 257.12C28.7021 257.54 28.1676 257.825 27.5856 257.941C27.0036 258.057 26.4004 257.998 25.8522 257.771C25.3039 257.544 24.8353 257.159 24.5056 256.666C24.176 256.172 24 255.592 24 254.999C24 254.406 24.176 253.826 24.5056 253.332C24.8353 252.839 25.3039 252.454 25.8522 252.227C26.4004 252 27.0036 251.941 27.5856 252.057C28.1676 252.173 28.7021 252.458 29.1216 252.878C29.6841 253.441 30 254.204 30 254.999C30 255.795 29.6841 256.557 29.1216 257.12Z" fill="white"></path><path d="M81.5 281.5H16.5V336.5H81.5V281.5Z" stroke="white" stroke-linecap="round" stroke-linejoin="round" stroke-dasharray="4 4"></path><path d="M172 281H98V285H172V281Z" fill="white"></path><path d="M156 289H98V293H156V289Z" fill="white"></path><path d="M184 297H98V301H184V297Z" fill="white"></path><path d="M171 305H98V309H171V305Z" fill="white"></path><path d="M42.1216 257.12C41.7021 257.54 41.1676 257.825 40.5856 257.941C40.0036 258.057 39.4004 257.998 38.8522 257.771C38.3039 257.544 37.8353 257.159 37.5056 256.666C37.176 256.172 37 255.592 37 254.999C37 254.406 37.176 253.826 37.5056 253.332C37.8353 252.839 38.3039 252.454 38.8522 252.227C39.4004 252 40.0036 251.941 40.5856 252.057C41.1676 252.173 41.7021 252.458 42.1216 252.878C42.6841 253.441 43 254.204 43 254.999C43 255.795 42.6841 256.557 42.1216 257.12Z" fill="white"></path><path d="M55.1216 257.12C54.7021 257.54 54.1676 257.825 53.5856 257.941C53.0036 258.057 52.4004 257.998 51.8522 257.771C51.3039 257.544 50.8353 257.159 50.5056 256.666C50.176 256.172 50 255.592 50 254.999C50 254.406 50.176 253.826 50.5056 253.332C50.8353 252.839 51.3039 252.454 51.8522 252.227C52.4004 252 53.0036 251.941 53.5856 252.057C54.1676 252.173 54.7021 252.458 55.1216 252.878C55.6841 253.441 56 254.204 56 254.999C56 255.795 55.6841 256.557 55.1216 257.12Z" fill="white"></path><path d="M54 168C74.9868 168 92 150.987 92 130C92 109.013 74.9868 92 54 92C33.0132 92 16 109.013 16 130C16 150.987 33.0132 168 54 168Z" fill="#D68029"></path><path d="M35.1994 152.37C34.3254 152.37 34.0714 151.87 34.0714 151.122C34.0775 150.845 34.1012 150.569 34.1424 150.295C34.3354 149 34.7994 148.259 35.9304 148.259C36.6934 148.259 37.0654 148.594 37.0654 149.202V149.502H37.8224C37.8304 149.502 37.8304 149.229 37.8304 149.167C37.8389 148.923 37.7941 148.679 37.6992 148.454C37.6044 148.229 37.4616 148.027 37.2809 147.862C37.1001 147.697 36.8858 147.574 36.6526 147.5C36.4194 147.426 36.1729 147.404 35.9304 147.435C34.0944 147.435 33.3394 148.414 33.0614 150.335C33.0213 150.583 33.0006 150.833 32.9994 151.084C32.9565 151.37 32.9799 151.662 33.0676 151.938C33.1554 152.213 33.3052 152.465 33.5055 152.674C33.7058 152.882 33.9513 153.042 34.2231 153.141C34.495 153.24 34.7858 153.275 35.0734 153.244C35.5548 153.268 36.0334 153.158 36.4558 152.926C36.8782 152.694 37.2277 152.348 37.4654 151.929L36.7424 151.451C36.5966 151.733 36.3748 151.969 36.1021 152.131C35.8294 152.293 35.5167 152.376 35.1994 152.37ZM40.1674 148.8C38.6974 148.8 38.0614 149.541 37.8474 151.015C37.8223 151.186 37.8089 151.358 37.8074 151.53C37.7797 151.761 37.8048 151.995 37.8808 152.215C37.9569 152.435 38.0818 152.635 38.2463 152.799C38.4108 152.964 38.6105 153.089 38.8303 153.165C39.0502 153.241 39.2844 153.266 39.5154 153.238C40.9854 153.238 41.6294 152.466 41.8444 151.014C41.869 150.838 41.8823 150.661 41.8844 150.484C41.9112 150.254 41.8849 150.02 41.8076 149.801C41.7303 149.582 41.604 149.384 41.4383 149.222C41.2726 149.059 41.0719 148.937 40.8517 148.864C40.6314 148.791 40.3973 148.769 40.1674 148.8ZM40.7794 151.015C40.6204 152.084 40.2794 152.415 39.6344 152.415C39.1184 152.415 38.8644 152.204 38.8644 151.572C38.8669 151.387 38.883 151.201 38.9124 151.018C39.0714 149.957 39.3894 149.63 40.0404 149.63C40.5654 149.63 40.8264 149.841 40.8264 150.48C40.8241 150.66 40.808 150.84 40.7784 151.018L40.7794 151.015ZM45.5794 147.515L45.3334 148.947C45.3174 149.071 45.3254 149.03 45.3734 149.147C45.0982 148.969 44.7791 148.87 44.4514 148.862C43.1324 148.862 42.3934 149.448 42.1514 151.086C42.1235 151.259 42.1101 151.434 42.1114 151.609C42.0858 151.834 42.112 152.061 42.1877 152.274C42.2635 152.487 42.3869 152.68 42.5486 152.838C42.7103 152.997 42.9059 153.116 43.1206 153.187C43.3353 153.258 43.5633 153.279 43.7874 153.248C44.1759 153.3 44.5703 153.212 44.8994 152.999L44.9784 153.484H45.7414L46.6314 147.514L45.5794 147.515ZM44.8244 152.188C44.5453 152.353 44.2277 152.442 43.9034 152.446C43.3234 152.446 43.1644 152.146 43.1644 151.674C43.1692 151.468 43.1879 151.262 43.2204 151.058C43.4024 149.818 43.8084 149.599 44.3324 149.599C44.6272 149.587 44.92 149.652 45.1824 149.787L44.8244 152.188ZM48.9574 148.8C47.5024 148.8 46.8204 149.478 46.5894 151.015C46.5646 151.193 46.5513 151.373 46.5494 151.553C46.5237 151.787 46.5521 152.023 46.6324 152.245C46.7127 152.466 46.8427 152.665 47.0124 152.828C47.1821 152.991 47.387 153.113 47.6111 153.184C47.8353 153.255 48.0728 153.273 48.3054 153.238C48.7091 153.268 49.1128 153.181 49.4691 152.989C49.8254 152.797 50.1193 152.507 50.3164 152.153L49.5164 151.833C49.4041 152.019 49.2436 152.17 49.052 152.272C48.8605 152.373 48.6449 152.421 48.4284 152.41C47.8404 152.41 47.6024 152.255 47.6024 151.74C47.5963 151.656 47.6044 151.572 47.6264 151.491H50.4944C50.5344 151.091 50.5814 150.812 50.5814 150.578C50.6138 150.35 50.5955 150.118 50.5276 149.898C50.4597 149.678 50.344 149.476 50.1888 149.306C50.0336 149.136 49.8427 149.003 49.6298 148.915C49.4169 148.828 49.1872 148.788 48.9574 148.8ZM49.5054 150.7H47.7574C47.9324 150.3 48.2264 149.686 48.8304 149.686C48.9273 149.676 49.0252 149.688 49.1167 149.722C49.2082 149.756 49.2908 149.81 49.3583 149.88C49.4258 149.95 49.4763 150.035 49.5061 150.128C49.536 150.22 49.5443 150.319 49.5304 150.415C49.534 150.511 49.5249 150.606 49.5054 150.7ZM53.6364 148.71L53.7364 147.91H51.4904L51.3954 148.71H51.9834L51.3484 152.69H50.7594L50.6644 153.49H52.9054L53.0054 152.69H52.4174L53.0524 148.71H53.6404H53.6364ZM58.1894 149.9L58.4754 149.1H57.7044L57.1484 149.213C56.8097 149 56.4201 148.883 56.0204 148.872C54.8834 148.872 53.9144 149.411 53.9144 150.636C53.9124 150.929 54.0105 151.214 54.1924 151.444C54.0689 151.496 53.962 151.58 53.8835 151.689C53.805 151.797 53.7579 151.925 53.7474 152.058C53.7505 152.194 53.8011 152.325 53.8904 152.427C53.6586 152.555 53.4651 152.742 53.3297 152.969C53.1944 153.196 53.1221 153.456 53.1204 153.72C53.1204 154.774 54.2404 154.998 55.0984 154.998C56.1794 154.998 57.4664 154.756 57.4664 153.406C57.4664 152.946 57.1724 152.587 56.3224 152.431L54.7884 152.15C54.6134 152.119 54.5744 152.064 54.5744 151.986C54.5725 151.961 54.5762 151.936 54.5853 151.913C54.5944 151.889 54.6087 151.868 54.627 151.851C54.6453 151.834 54.6673 151.821 54.6912 151.813C54.7152 151.806 54.7405 151.804 54.7654 151.807L54.8654 151.822C55.0925 151.87 55.3242 151.894 55.5564 151.892C56.6564 151.892 57.6464 151.424 57.6464 150.207C57.6459 150.042 57.608 149.879 57.5354 149.731C57.6554 149.801 57.7833 149.856 57.9164 149.895H58.1854L58.1894 149.9ZM56.0044 153.129C56.3044 153.184 56.4044 153.293 56.4044 153.488C56.4044 154.12 55.7134 154.198 55.2124 154.198C54.4494 154.198 54.1634 154.019 54.1634 153.621C54.1581 153.476 54.1862 153.331 54.2455 153.199C54.3047 153.066 54.3937 152.949 54.5054 152.856L56.0044 153.129ZM55.6784 151.086C55.2174 151.086 54.9634 150.922 54.9634 150.532C54.9523 150.407 54.9691 150.282 55.0127 150.164C55.0563 150.046 55.1256 149.94 55.2154 149.853C55.3052 149.765 55.4134 149.699 55.532 149.659C55.6507 149.618 55.7769 149.605 55.9014 149.619C56.3784 149.619 56.6084 149.819 56.6084 150.196C56.6195 150.319 56.6026 150.443 56.5592 150.559C56.5157 150.674 56.4467 150.779 56.3573 150.864C56.2679 150.949 56.1604 151.013 56.0429 151.051C55.9253 151.089 55.8007 151.1 55.6784 151.083V151.086ZM61.0124 148.8C60.512 148.842 60.0411 149.054 59.6774 149.4L59.6064 149.108H58.7324L58.1204 153.485H59.1774L59.6384 150.165C59.9361 149.933 60.2847 149.776 60.6554 149.706C61.0554 149.706 61.1964 149.894 61.1964 150.253C61.1961 150.398 61.1881 150.543 61.1724 150.687L60.7834 153.487H61.8394L62.2284 150.666C62.2444 150.534 62.2604 150.317 62.2604 150.192C62.2859 150.016 62.2725 149.836 62.2209 149.665C62.1693 149.494 62.0809 149.337 61.9618 149.204C61.8428 149.072 61.6961 148.967 61.532 148.897C61.368 148.827 61.1906 148.794 61.0124 148.8ZM64.2674 152.385L64.2754 152.278L64.7364 149.104H62.9804L62.8694 149.904H63.6394C63.5754 149.904 63.5394 149.974 63.5284 150.037L63.2104 152.151C63.1949 152.284 63.1869 152.417 63.1864 152.551C63.1734 152.676 63.1881 152.802 63.2296 152.921C63.271 153.039 63.3382 153.147 63.4262 153.237C63.5142 153.326 63.6209 153.395 63.7386 153.439C63.8564 153.482 63.9823 153.499 64.1074 153.488H64.6484L64.7674 152.688H64.4264C64.3064 152.688 64.2674 152.481 64.2674 152.388V152.385ZM64.9504 147.512H63.9184C63.8544 147.512 63.8544 147.282 63.8474 147.36L63.6994 148.479C63.6914 148.55 63.6914 148.703 63.7544 148.703H64.7884C64.8524 148.703 64.8524 148.43 64.8594 148.359L65.0024 147.493C65.0104 147.415 65.0104 147.508 64.9464 147.508L64.9504 147.512ZM67.1054 152.412C66.8434 152.412 66.7164 152.303 66.7164 152.069L66.7244 152.053L67.0594 149.9H68.2674L68.6324 149.1H67.1704L67.4164 147.349L66.2994 147.7L66.0994 149.1H65.4564L65.3454 149.9H66.0994C66.0284 150.3 65.9564 150.04 65.9484 150.118L65.6604 152C65.6475 152.075 65.6421 152.15 65.6444 152.226C65.6444 152.967 66.2004 153.244 66.8684 153.244C67.4151 153.262 67.9505 153.085 68.3784 152.744L67.8854 152.144C67.6603 152.311 67.3868 152.401 67.1064 152.399L67.1054 152.412ZM70.9844 148.8C69.5304 148.8 68.8474 149.478 68.6164 151.015C68.5918 151.193 68.5784 151.373 68.5764 151.553C68.5507 151.787 68.5791 152.023 68.6594 152.245C68.7397 152.466 68.8697 152.665 69.0394 152.828C69.2091 152.991 69.414 153.113 69.6381 153.184C69.8623 153.255 70.0998 153.273 70.3324 153.238C70.7361 153.268 71.1398 153.181 71.4961 152.989C71.8524 152.797 72.1463 152.507 72.3434 152.153L71.5434 151.833C71.431 152.019 71.2704 152.17 71.0786 152.272C70.8868 152.374 70.6711 152.421 70.4544 152.41C69.8664 152.41 69.6284 152.255 69.6284 151.74C69.6225 151.656 69.631 151.572 69.6534 151.491H72.5214C72.5614 151.091 72.6084 150.812 72.6084 150.578C72.6406 150.35 72.6221 150.118 72.5542 149.898C72.4863 149.678 72.3706 149.476 72.2154 149.306C72.0602 149.136 71.8694 149.003 71.6565 148.915C71.4437 148.828 71.2142 148.789 70.9844 148.8ZM71.5334 150.7H69.7844C69.9594 150.3 70.2524 149.686 70.8574 149.686C70.9543 149.676 71.0522 149.688 71.1437 149.722C71.2352 149.756 71.3178 149.81 71.3853 149.88C71.4528 149.95 71.5033 150.035 71.5331 150.128C71.563 150.22 71.5712 150.319 71.5574 150.415C71.5608 150.511 71.5527 150.606 71.5334 150.7ZM75.5334 148.8C75.1102 148.836 74.7168 149.033 74.4334 149.349L74.3694 149.1H73.4994L72.8874 153.477H73.9524L74.4214 150.087C74.6907 149.912 75.0006 149.808 75.3214 149.787C75.5037 149.773 75.6867 149.771 75.8694 149.78L76.0054 148.88C75.8518 148.84 75.6948 148.814 75.5364 148.802L75.5334 148.8ZM48.5434 144.374C46.1384 143.353 43.8874 140.76 43.8824 138.106C43.8754 135.212 45.7444 132.756 48.0674 131.141C47.8682 131.61 47.7877 132.121 47.8331 132.629C47.8784 133.136 48.0482 133.625 48.3274 134.051C48.6523 134.476 49.091 134.8 49.5926 134.986C50.0942 135.171 50.6381 135.211 51.1614 135.1C53.6474 134.566 53.7614 131.883 52.2874 130.32C50.8304 128.772 49.4204 127.02 49.9754 124.78C50.2825 123.633 50.9367 122.609 51.8484 121.848C51.1634 123.616 53.1104 125.359 54.3934 126.228C56.6194 127.735 59.0614 128.873 61.1074 130.639C63.2604 132.495 64.8494 135.005 64.5284 137.916C64.1804 141.071 61.6284 143.265 58.7614 144.373C64.8154 143.061 71.0704 138.449 71.1984 131.859C71.3044 126.437 67.5154 122.264 62.8214 119.875L62.5764 119.744C62.6882 119.996 62.7448 120.269 62.7424 120.544C62.786 120.37 62.8124 120.192 62.8214 120.012C62.8202 120.229 62.7913 120.445 62.7354 120.655L62.7424 120.544C62.6723 120.833 62.5547 121.107 62.3944 121.357L62.4634 121.284C62.207 121.663 61.8668 121.978 61.469 122.205C61.0713 122.431 60.6267 122.563 60.1698 122.59C59.7129 122.616 59.256 122.538 58.8345 122.359C58.413 122.181 58.0382 121.908 57.7394 121.561C55.7264 119.022 57.7814 116.284 58.0694 113.595C58.4294 110.225 56.2764 106.953 53.6064 104.995C55.0764 107.33 53.1394 110.419 51.5894 112.146C50.0894 113.82 48.2594 115.218 46.5994 116.739C44.7943 118.347 43.1345 120.111 41.6394 122.011C38.7094 125.849 36.9164 130.675 38.2344 135.463C39.5524 140.251 43.7734 143.293 48.5414 144.37L48.5434 144.374Z" fill="white"></path></g><defs><clipPath id="clip0_3325_936"><rect width="683" height="490" fill="white"></rect></clipPath></defs></svg>