<svg width="512" height="512" viewBox="0 0 512 512" fill="none" xmlns="http://www.w3.org/2000/svg">
<path d="M472 408H456V280H440V408H72V136C72 133.878 72.8429 131.843 74.3431 130.343C75.8434 128.843 77.8783 128 80 128H151.28V112H80C73.6348 112 67.5303 114.529 63.0294 119.029C58.5286 123.53 56 129.635 56 136V408H40C37.8783 408 35.8434 408.843 34.3431 410.343C32.8429 411.843 32 413.878 32 416V440C32 450.609 36.2143 460.783 43.7157 468.284C51.2172 475.786 61.3913 480 72 480H440C450.609 480 460.783 475.786 468.284 468.284C475.786 460.783 480 450.609 480 440V416C480 413.878 479.157 411.843 477.657 410.343C476.157 408.843 474.122 408 472 408ZM295.52 424C294.521 428.523 292.012 432.572 288.406 435.48C284.8 438.388 280.312 439.982 275.68 440H236.32C231.688 439.982 227.2 438.388 223.594 435.48C219.988 432.572 217.479 428.523 216.48 424H295.52ZM464 440C464 446.365 461.471 452.47 456.971 456.971C452.47 461.471 446.365 464 440 464H72C65.6348 464 59.5303 461.471 55.0294 456.971C50.5286 452.47 48 446.365 48 440V424H200.48C201.515 432.79 205.732 440.898 212.335 446.793C218.937 452.688 227.469 455.963 236.32 456H275.68C284.531 455.963 293.063 452.688 299.665 446.793C306.268 440.898 310.484 432.79 311.52 424H464V440ZM96 144H152.48V160H104V376H408V280H424V384C424 386.122 423.157 388.157 421.657 389.657C420.157 391.157 418.122 392 416 392H96C93.8783 392 91.8434 391.157 90.3431 389.657C88.8429 388.157 88 386.122 88 384V152C88 149.878 88.8429 147.843 90.3431 146.343C91.8434 144.843 93.8783 144 96 144ZM120 360V344H136V360H120ZM152 344H168V360H152V344ZM200 344V360H184V344H200ZM232 344V360H216V344H232ZM248 344H264V360H248V344ZM280 360V344H296V360H280ZM312 344H328V360H312V344ZM344 360V344H360V360H344ZM376 344H392V360H376V344ZM456 32H184C177.635 32 171.53 34.5286 167.029 39.0294C162.529 43.5303 160 49.6348 160 56V248C160 254.365 162.529 260.47 167.029 264.971C171.53 269.471 177.635 272 184 272H232V256H184C181.878 256 179.843 255.157 178.343 253.657C176.843 252.157 176 250.122 176 248V96H464V248C464 250.122 463.157 252.157 461.657 253.657C460.157 255.157 458.122 256 456 256H408V272H456C462.365 272 468.47 269.471 472.971 264.971C477.471 260.47 480 254.365 480 248V56C480 49.6348 477.471 43.5303 472.971 39.0294C468.47 34.5286 462.365 32 456 32ZM176 80V56C176 53.8783 176.843 51.8434 178.343 50.3431C179.843 48.8429 181.878 48 184 48H456C458.122 48 460.157 48.8429 461.657 50.3431C463.157 51.8434 464 53.8783 464 56V80H176ZM192 56H216V72H192V56ZM224 56H248V72H224V56ZM256 56H280V72H256V56ZM360 56H448V72H360V56ZM320 128C302.595 128 285.581 133.161 271.11 142.831C256.638 152.5 245.359 166.244 238.699 182.324C232.038 198.404 230.295 216.098 233.691 233.168C237.086 250.238 245.468 265.918 257.775 278.225C270.082 290.532 285.762 298.914 302.832 302.309C319.902 305.705 337.596 303.962 353.676 297.301C369.756 290.641 383.5 279.362 393.169 264.89C402.839 250.419 408 233.405 408 216C408 192.661 398.729 170.278 382.225 153.775C365.722 137.271 343.339 128 320 128ZM372.96 167.44C367.117 169.657 361.095 171.37 354.96 172.56C353.157 164.478 350.475 156.618 346.96 149.12C356.884 153.212 365.767 159.472 372.96 167.44ZM344 216C344.01 224.455 343.448 232.901 342.32 241.28C327.489 239.574 312.511 239.574 297.68 241.28C295.44 224.501 295.44 207.499 297.68 190.72C305.091 191.557 312.542 191.984 320 192C327.456 192.012 334.908 191.611 342.32 190.8C343.446 199.153 344.007 207.572 344 216ZM320 288C313.76 288 305.76 276.64 300.72 257.04C307.122 256.326 313.559 255.979 320 256C326.439 255.991 332.874 256.311 339.28 256.96C334.24 276.56 326.24 288 320 288ZM320 176C313.559 176.021 307.122 175.674 300.72 174.96C305.76 155.36 313.76 144 320 144C326.24 144 334.24 155.44 339.28 175.04C332.874 175.687 326.439 176.007 320 176ZM293.44 149.12C289.915 156.614 287.232 164.475 285.44 172.56C279.302 171.344 273.28 169.605 267.44 167.36C274.652 159.433 283.531 153.203 293.44 149.12ZM257.36 180.64C265.249 184.218 273.514 186.902 282 188.64C279.334 207.051 279.334 225.749 282 244.16C273.514 245.898 265.249 248.582 257.36 252.16C251.223 241.386 247.995 229.2 247.995 216.8C247.995 204.4 251.223 192.214 257.36 181.44V180.64ZM267.04 264.64C272.88 262.395 278.902 260.656 285.04 259.44C286.843 267.522 289.525 275.382 293.04 282.88C283.131 278.797 274.252 272.567 267.04 264.64ZM346.56 282.88C350.122 275.374 352.806 267.481 354.56 259.36C360.707 260.574 366.731 262.341 372.56 264.64C365.327 272.544 356.453 278.769 346.56 282.88ZM382.64 251.36C374.751 247.782 366.486 245.098 358 243.36C360.666 224.949 360.666 206.251 358 187.84C366.486 186.102 374.751 183.418 382.64 179.84C388.777 190.614 392.005 202.8 392.005 215.2C392.005 227.6 388.777 239.786 382.64 250.56V251.36Z" fill="#D68029"/>
</svg>
