<svg width="512" height="512" viewBox="0 0 512 512" fill="none" xmlns="http://www.w3.org/2000/svg">
<path d="M473.417 129.399C459.321 129.399 447.428 138.987 443.902 151.982H407.476C405.354 151.982 403.319 152.825 401.819 154.325C400.319 155.825 399.476 157.86 399.476 159.982V257.437H371.083V132.438C384.078 128.912 393.666 117.019 393.666 102.923C393.666 86.0587 379.946 72.3397 363.083 72.3397C346.22 72.3397 332.5 86.0597 332.5 102.924C332.5 117.02 342.088 128.913 355.083 132.439V257.438H349.639C347.517 257.438 345.482 258.281 343.982 259.781C342.482 261.281 341.639 263.316 341.639 265.438C341.639 312.659 303.222 351.076 256 351.076C208.778 351.076 170.362 312.659 170.362 265.438C170.362 263.316 169.519 261.281 168.019 259.781C166.519 258.281 164.484 257.438 162.362 257.438H156.918V132.438C169.913 128.912 179.501 117.019 179.501 102.923C179.501 86.0587 165.781 72.3397 148.918 72.3397C132.054 72.3397 118.334 86.0597 118.334 102.923C118.334 117.019 127.923 128.912 140.918 132.438V257.437H112.525V159.982C112.525 157.86 111.682 155.825 110.182 154.325C108.682 152.825 106.647 151.982 104.525 151.982H68.099C64.573 138.987 52.68 129.399 38.584 129.399C21.72 129.399 8 143.119 8 159.983C8 176.847 21.72 190.566 38.584 190.566C52.68 190.566 64.573 180.978 68.099 167.983H96.525V257.438H73.576C71.4543 257.438 69.4194 258.281 67.9191 259.781C66.4189 261.281 65.576 263.316 65.576 265.438V290.126C65.576 291.742 66.0658 293.321 66.9808 294.654C67.8959 295.987 69.1933 297.011 70.702 297.592L97.055 307.736C100.791 321.808 106.39 335.317 113.706 347.906L102.238 373.728C101.582 375.205 101.389 376.847 101.684 378.436C101.979 380.026 102.749 381.488 103.892 382.632L138.807 417.546C139.95 418.688 141.413 419.458 143.003 419.753C144.592 420.048 146.233 419.856 147.711 419.2L173.544 407.726C186.128 415.04 199.633 420.639 213.7 424.375L223.847 450.735C224.428 452.243 225.452 453.541 226.785 454.456C228.118 455.371 229.696 455.861 231.313 455.861H280.689C282.306 455.861 283.884 455.371 285.217 454.456C286.55 453.541 287.574 452.243 288.155 450.735L298.298 424.381C312.37 420.645 325.88 415.045 338.467 407.729L364.29 419.199C365.767 419.855 367.409 420.049 368.999 419.753C370.588 419.458 372.051 418.687 373.194 417.544L408.108 382.63C409.251 381.486 410.021 380.024 410.316 378.434C410.612 376.845 410.418 375.203 409.762 373.726L398.289 347.894C405.603 335.31 411.202 321.804 414.938 307.737L441.298 297.591C442.807 297.01 444.104 295.986 445.019 294.653C445.934 293.32 446.424 291.741 446.424 290.125V265.438C446.424 263.316 445.581 261.281 444.081 259.781C442.581 258.281 440.546 257.438 438.424 257.438H415.475V167.983H443.901C447.427 180.978 459.32 190.566 473.416 190.566C490.28 190.566 503.999 176.846 503.999 159.983C503.999 143.12 490.28 129.399 473.417 129.399ZM348.5 102.924C348.5 94.8817 355.042 88.3407 363.083 88.3407C371.124 88.3407 377.666 94.8827 377.666 102.924C377.666 110.965 371.124 117.507 363.083 117.507C355.042 117.507 348.5 110.965 348.5 102.924ZM134.333 102.924C134.333 94.8817 140.875 88.3407 148.917 88.3407C156.958 88.3407 163.5 94.8827 163.5 102.924C163.5 110.965 156.958 117.507 148.917 117.507C140.876 117.507 134.333 110.965 134.333 102.924ZM38.584 174.566C30.542 174.566 24 168.024 24 159.983C24 151.942 30.542 145.4 38.584 145.4C46.626 145.4 53.167 151.942 53.167 159.983C53.167 168.024 46.625 174.566 38.584 174.566ZM430.424 284.631L405.32 294.295C404.108 294.761 403.027 295.516 402.172 296.494C401.316 297.472 400.712 298.644 400.411 299.908C396.776 315.186 390.723 329.785 382.482 343.154C381.801 344.26 381.399 345.516 381.312 346.812C381.225 348.109 381.456 349.407 381.983 350.595L392.91 375.2L365.764 402.346L341.169 391.422C339.981 390.894 338.683 390.663 337.386 390.75C336.089 390.837 334.833 391.239 333.727 391.922C320.355 400.165 305.751 406.219 290.469 409.855C289.205 410.155 288.033 410.759 287.055 411.614C286.077 412.47 285.322 413.55 284.855 414.763L275.195 439.861H236.805L227.141 414.757C226.675 413.544 225.92 412.463 224.941 411.608C223.963 410.753 222.791 410.149 221.527 409.849C206.249 406.212 191.65 400.159 178.281 391.918C177.175 391.236 175.919 390.834 174.622 390.748C173.326 390.661 172.027 390.891 170.84 391.419L146.236 402.347L119.09 375.201L130.013 350.606C130.541 349.418 130.771 348.12 130.684 346.823C130.597 345.527 130.195 344.271 129.513 343.165C121.27 329.792 115.217 315.188 111.581 299.906C111.28 298.642 110.676 297.47 109.821 296.492C108.965 295.514 107.885 294.758 106.672 294.292L81.575 284.632V273.438H154.673C158.765 325.756 202.648 367.076 255.999 367.076C309.35 367.076 353.233 325.757 357.326 273.438H430.423V284.631H430.424ZM473.417 174.566C465.375 174.566 458.834 168.024 458.834 159.983C458.834 151.942 465.376 145.4 473.417 145.4C481.458 145.4 488 151.941 488 159.983C488 168.025 481.458 174.566 473.417 174.566ZM202.457 142.979H220.274V286.051C220.274 288.172 221.117 290.207 222.617 291.708C224.117 293.208 226.152 294.051 228.274 294.051H283.727C285.849 294.051 287.884 293.208 289.384 291.708C290.884 290.207 291.727 288.172 291.727 286.051V142.979H309.543C314.233 142.979 318.369 140.337 320.337 136.084C322.305 131.832 321.641 126.969 318.606 123.396L265.063 60.3337C263.948 59.0178 262.56 57.9609 260.994 57.2365C259.429 56.5122 257.725 56.1379 256 56.1397C252.502 56.1397 249.199 57.6697 246.938 60.3337L193.396 123.394C190.359 126.968 189.695 131.831 191.663 136.083C193.63 140.337 197.766 142.979 202.457 142.979ZM252.866 70.6887L252.872 70.6967C252.87 70.6934 252.867 70.6904 252.864 70.6877L252.866 70.6887ZM256 74.3797L300.659 126.979H283.726C281.604 126.979 279.569 127.822 278.069 129.322C276.569 130.822 275.726 132.857 275.726 134.979V278.051H236.273V134.979C236.273 132.857 235.43 130.822 233.93 129.322C232.43 127.822 230.395 126.979 228.273 126.979H211.339L256 74.3797Z" fill="#D68029"/>
</svg>
