<svg width="512" height="512" viewBox="0 0 512 512" fill="none" xmlns="http://www.w3.org/2000/svg">
<path d="M106.794 84.9922C105.373 84.958 103.959 85.2088 102.637 85.7298C101.314 86.2507 100.109 87.0314 99.0929 88.0256C98.0769 89.0198 97.2702 90.2074 96.7206 91.5184C96.1709 92.8294 95.8894 94.2373 95.8927 95.6588L96.042 139.68C96.0263 141.061 96.2868 142.432 96.8082 143.711C97.3295 144.99 98.1013 146.153 99.0781 147.129C100.055 148.106 101.217 148.878 102.496 149.399C103.776 149.921 105.146 150.181 106.527 150.165C173.663 149.365 240.799 147.733 307.935 143.915C312.405 143.659 316.245 142.667 318.581 141.301C321.397 143.573 324.831 140.267 325.429 129.355L326.741 96.7895C326.772 95.8827 326.616 94.9792 326.284 94.1349C325.952 93.2907 325.449 92.5238 324.808 91.8817C324.167 91.2396 323.401 90.7361 322.557 90.4023C321.714 90.0686 320.81 89.9117 319.903 89.9415C248.863 86.6242 177.834 85.5148 106.794 84.9922ZM117.066 129.248L117.183 106.336C182.602 106.496 248.021 106.059 313.429 103.819C313.749 107.573 314.549 131.253 315.338 134.389C249.589 128.992 183.029 130.112 117.066 129.248ZM191.114 56.7468C191.946 56.8642 192.735 56.7468 193.482 56.5228C205.685 62.1868 221.471 60.7468 234.826 62.7415C237.107 62.8939 239.355 62.1365 241.078 60.6351C242.801 59.1338 243.859 57.0107 244.021 54.7308C246.335 6.84816 250.666 0.266823 226.453 0.192156C218.207 0.170823 206.666 0.640156 190.613 0.842823C188.234 0.985698 186.009 2.06689 184.427 3.8489C182.845 5.63092 182.035 7.96801 182.175 10.3468C182.959 24.4314 184.414 38.4706 186.538 52.4162C186.732 53.5346 187.283 54.5604 188.107 55.3407C188.932 56.1211 189.987 56.6142 191.114 56.7468ZM200.533 20.3735C208.522 20.8322 216.511 21.1522 224.501 21.3655C224.586 29.1842 224.799 36.9922 225.13 44.8108C216.01 45.4722 206.89 46.3255 197.77 47.5948C199.007 38.5282 199.893 29.4508 200.533 20.3735ZM277.311 62.8482C291.567 63.6086 305.84 64.0069 320.117 64.0428C322.935 64.0259 325.631 62.8947 327.618 60.8961C329.604 58.8975 330.719 56.1941 330.719 53.3762C328.853 -4.88517 340.81 -2.83718 279.071 5.28016C278.345 5.36122 277.649 5.61577 277.042 6.02234C276.435 6.42892 275.935 6.97557 275.583 7.61616C274.608 7.8245 273.723 8.33411 273.053 9.07294C272.383 9.81178 271.962 10.7425 271.85 11.7335C269.867 25.5415 268.522 39.4336 267.818 53.3655C267.477 58.7522 272.01 63.0188 277.311 62.8482ZM310.453 19.2215C310.064 27.0963 309.786 34.9762 309.621 42.8588C301.749 42.9655 293.887 43.1895 286.015 43.5202C285.323 34.4618 284.355 25.4265 283.114 16.4268C292.223 17.6748 301.333 18.5602 310.453 19.2215ZM405.098 58.6242C408.458 58.2295 409.77 54.8268 409.162 51.9468C414.133 39.4668 412.821 24.1602 414.453 10.7735C414.805 5.47216 410.335 1.28016 405.119 1.44016C390.992 0.660233 376.847 0.268974 362.698 0.266823C359.885 0.255479 357.183 1.36134 355.185 3.34143C353.186 5.32151 352.056 8.01384 352.042 10.8268C353.823 70.5175 343.615 65.8135 405.098 58.6242ZM373.237 21.3655C381.045 21.2071 388.85 20.9262 396.65 20.5228C397.45 29.4402 398.442 38.3575 399.818 47.2855C390.802 46.0233 381.749 45.045 372.671 44.3522C372.981 36.6935 373.162 29.0242 373.237 21.3655ZM106.186 64.2455C168.202 62.5282 162.143 72.7362 154.41 9.52549C153.919 5.55749 149.354 4.36282 146.346 5.88816C133.343 2.95482 119.743 2.44282 106.559 1.31216C101.247 0.91749 97.0874 5.39749 97.258 10.6028C96.3521 24.947 95.84 39.3133 95.722 53.6855C95.715 55.0661 95.9802 56.4346 96.5024 57.7128C97.0246 58.9909 97.7936 60.1535 98.7654 61.1342C99.7372 62.115 100.893 62.8945 102.166 63.4284C103.439 63.9622 104.805 64.2399 106.186 64.2455ZM142.997 16.2348C141.888 25.3165 141.059 34.4302 140.511 43.5628C132.635 43.2767 124.755 43.1024 116.874 43.0402C116.769 35.0656 116.541 27.0931 116.191 19.1255C125.155 18.4463 134.094 17.4823 142.997 16.2348ZM23.4447 57.1842C36.0954 61.5682 50.666 60.9708 63.9354 62.5388C69.258 62.9548 73.4074 58.4428 73.2474 53.2268C74.2287 39.0722 74.666 24.9175 74.8687 10.7522C74.8914 7.96925 73.8091 5.291 71.8594 3.30521C69.9096 1.31942 67.2516 0.188317 64.4687 0.160156C4.3727 1.80282 8.45802 -9.06651 16.0314 53.2908C16.4687 56.9495 20.458 58.2295 23.4447 57.1842ZM30.218 20.6615C38.0367 21.0028 45.866 21.2162 53.6847 21.3228C53.77 29.1095 53.9727 36.8962 54.2927 44.6828C45.3327 45.3868 36.3727 46.2828 27.4127 47.5842C28.6394 38.6135 29.546 29.6322 30.218 20.6615ZM405.322 86.4428C391.158 87.1616 377.036 88.5641 363.007 90.6455C360.021 90.9868 357.855 94.5922 358.901 97.5575C353.962 110.016 355.103 125.205 353.418 138.528C353.344 139.671 353.497 140.817 353.867 141.9C354.237 142.984 354.817 143.984 355.574 144.843C356.331 145.702 357.25 146.404 358.278 146.907C359.307 147.41 360.424 147.706 361.567 147.776C424.501 150.368 416.874 157.941 414.837 94.9762C414.774 93.7905 414.478 92.6289 413.965 91.5579C413.453 90.4869 412.734 89.5275 411.85 88.7348C410.966 87.9421 409.935 87.3316 408.815 86.9383C407.694 86.545 406.507 86.3766 405.322 86.4428ZM394.751 128.096C386.922 128.224 379.082 128.469 371.253 128.832C370.506 119.872 369.567 110.912 368.223 101.963C377.279 103.221 386.346 104.139 395.402 104.821C395.073 112.576 394.856 120.335 394.751 128.096ZM447.082 62.6348C461.726 63.5145 476.391 64.0053 491.061 64.1068C492.443 64.0901 493.809 63.8012 495.08 63.2567C496.351 62.7121 497.502 61.9225 498.468 60.933C499.434 59.9434 500.195 58.7734 500.708 57.4896C501.222 56.2058 501.478 54.8334 501.461 53.4508C501.334 38.8299 500.818 24.215 499.914 9.62149C499.763 7.2866 498.697 5.10556 496.948 3.55184C495.198 1.99813 492.906 1.19716 490.57 1.32282C476.81 2.19749 462.858 3.06149 449.183 5.46149C446.346 4.90682 443.061 6.24016 442.666 9.64282C440.627 24.0633 439.267 38.5718 438.591 53.1202C438.466 55.5053 439.288 57.8433 440.878 59.6253C442.468 61.4074 444.698 62.489 447.082 62.6348ZM480.831 19.3495C480.524 27.1792 480.328 35.0129 480.245 42.8482C472.479 42.8802 464.714 43.0295 456.959 43.2855C456.292 34.3071 455.36 25.3503 454.165 16.4268C463.061 17.6855 471.946 18.6242 480.831 19.3495ZM488.863 91.5415C475.861 87.7122 461.418 88.0108 447.967 86.6668C442.677 86.3255 438.474 90.7842 438.645 96.0002C437.879 110.152 437.502 124.323 437.514 138.496C437.505 141.289 438.598 143.973 440.555 145.966C442.511 147.958 445.175 149.099 447.967 149.141C509.013 148.128 503.477 157.888 496.149 95.5415C495.711 91.9042 491.829 90.5708 488.863 91.5415ZM481.994 128.811C474.194 128.434 466.389 128.175 458.581 128.032C458.41 120.181 458.122 112.333 457.717 104.491C466.73 103.733 475.743 102.773 484.767 101.419C483.558 110.518 482.633 119.654 481.994 128.811ZM68.2447 136.885C72.5007 124.053 71.9247 109.333 73.418 95.9042C73.7487 90.6242 69.29 86.4428 64.0954 86.6348C49.9531 85.8903 35.7931 85.5346 21.6314 85.5682C18.8446 85.5676 16.1688 86.6598 14.1784 88.6103C12.188 90.5608 11.0419 93.214 10.986 96.0002C11.8074 156.875 1.77003 151.851 64.1807 143.829C67.626 143.392 68.9807 139.787 68.2447 136.885ZM31.146 130.005C31.5514 122.208 31.85 114.421 32.0314 106.624C39.8862 106.436 47.7377 106.13 55.5834 105.707C56.3194 114.645 57.2474 123.584 58.5594 132.523C49.45 131.398 40.3078 130.559 31.146 130.005ZM498.389 393.12C485.813 412.117 470.933 428.811 455.498 444.95C454.524 445.951 453.362 446.75 452.078 447.301C450.794 447.851 449.414 448.142 448.017 448.157C446.62 448.172 445.234 447.91 443.938 447.387C442.643 446.864 441.464 446.09 440.469 445.109C424.682 429.291 409.45 412.907 396.522 394.219C393.717 390.56 396.97 382.763 404.063 386.677C416.981 395.382 428.778 405.206 440.106 415.509C434.655 356.822 435.989 298.069 442.613 239.413C465.791 198.624 456.767 408.107 454.154 416.342C465.642 405.344 477.653 394.87 490.847 385.579C497.599 381.237 501.109 389.312 498.389 393.12ZM362.058 171.958C268.757 170.422 157.119 170.517 62.9754 170.677C61.6327 170.665 60.3009 170.92 59.0579 171.428C57.8149 171.936 56.6857 172.686 55.7362 173.636C54.7867 174.585 54.0361 175.714 53.5281 176.957C53.0202 178.2 52.7652 179.532 52.778 180.875C53.418 245.227 54.474 309.59 56.2447 373.941C56.2072 374.905 56.3694 375.867 56.7212 376.765C57.073 377.663 57.6067 378.479 58.2889 379.161C58.971 379.843 59.7869 380.377 60.6851 380.729C61.5834 381.081 62.5447 381.243 63.5087 381.206C89.706 379.456 116.511 380.053 142.133 378.453C141.973 393.717 141.919 413.248 141.802 419.414C140.629 427.638 147.242 437.76 150.965 444.758C158.143 457.984 177.13 492.576 184.639 506.24C185.42 507.654 186.572 508.828 187.97 509.636C189.369 510.444 190.961 510.856 192.575 510.827L319.551 511.349C321.587 511.346 323.577 510.741 325.27 509.609C326.963 508.478 328.284 506.872 329.066 504.992C334.858 490.656 344.821 467.605 350.442 453.419C352.959 453.291 352.469 389.536 352.81 386.571L352.895 378.934C358.005 378.56 368.319 382.187 368.949 374.208C370.527 310.024 371.445 245.825 371.701 181.622C371.708 180.352 371.463 179.094 370.981 177.92C370.5 176.746 369.79 175.678 368.893 174.78C367.997 173.881 366.931 173.169 365.758 172.685C364.585 172.2 363.327 171.953 362.058 171.958ZM332.085 345.344C331.669 369.035 331.114 420.982 330.922 445.035C327.263 455.371 318.367 475.968 312.586 490.816L197.834 492.395C186.069 472.011 167.349 441.941 157.503 423.221C156.309 412.747 155.615 371.755 155.007 361.686C157.002 349.398 177.951 345.472 186.229 338.102L187.37 371.904C187.989 398.592 197.077 404.992 198.037 371.915C198.442 349.984 199.455 292.789 199.658 271.595C200.181 265.237 198.901 245.984 200.81 241.142C204.298 231.328 220.255 230.315 224.266 240.235C225.717 242.869 225.215 249.984 225.205 252.896L224.778 319.712C224.768 321.027 225.02 322.332 225.519 323.549C226.017 324.766 226.753 325.872 227.683 326.802C228.613 327.732 229.719 328.468 230.936 328.966C232.153 329.465 233.457 329.717 234.773 329.707L317.205 330.347C325.845 329.291 333.791 336.523 332.085 345.344ZM353.013 368.395L353.269 345.344C355.466 325.302 336.874 307.819 317.194 309.419L244.629 309.686C244.362 289.302 243.743 245.323 243.69 244.011C241.066 204.885 182.709 207.392 183.434 246.4C183.935 268.736 184.949 300.118 185.909 328.992C171.722 334.784 145.162 341.109 142.485 360.363C142.378 362.294 142.303 365.845 142.229 370.229C119.562 366.315 93.9087 367.349 70.89 366.752C72.1274 308.214 72.778 249.664 73.0767 191.125C161.706 191.829 264.789 192.139 352.618 191.328C353.738 250.294 355.285 309.259 357.514 368.224C356.554 368.246 353.951 368.256 353.013 368.395Z" fill="#D68029"/>
</svg>
