<svg width="512" height="512" viewBox="0 0 512 512" fill="none" xmlns="http://www.w3.org/2000/svg">
<path d="M286.22 158.35C288.55 151.12 289.79 143.07 289.79 135.05C289.79 92.3803 255.08 57.6703 212.41 57.6703C169.74 57.6703 135.03 92.3803 135.03 135.05C135.03 143.07 136.26 151.12 138.6 158.35L164.61 217.86C165.247 219.318 165.28 220.969 164.7 222.45C164.121 223.931 162.977 225.122 161.52 225.76C160.74 226.1 159.92 226.26 159.12 226.26C156.81 226.26 154.6 224.92 153.62 222.66L127.49 162.88C127.41 162.7 127.34 162.53 127.29 162.34C124.51 153.85 123.04 144.4 123.04 135.03C123.04 85.7503 163.13 45.6503 212.42 45.6503C261.7 45.6503 301.8 85.7403 301.8 135.03C301.8 144.4 300.33 153.84 297.55 162.34C297.49 162.53 297.42 162.71 297.34 162.89L286.2 188.16C285.556 189.615 284.362 190.754 282.879 191.33C281.397 191.905 279.746 191.87 278.29 191.23C275.26 189.89 273.88 186.35 275.22 183.32L286.22 158.35ZM261.78 243.52L253 263.42V292.77C253 312.46 236.98 328.48 217.29 328.48H207.53C187.84 328.48 171.82 312.46 171.82 292.77V264.31L166.85 252.93C165.52 249.89 166.91 246.36 169.94 245.03C172.97 243.7 176.51 245.09 177.84 248.12L181.74 257.05H242.69L250.8 238.67C251.444 237.216 252.638 236.076 254.12 235.501C255.603 234.925 257.253 234.961 258.71 235.6C260.167 236.244 261.309 237.44 261.884 238.925C262.46 240.41 262.423 242.063 261.78 243.52ZM183.82 269.06V286.77H241V269.06H183.82ZM240.23 298.77H184.59C187.25 308.95 196.53 316.48 207.53 316.48H217.29C228.29 316.48 237.57 308.95 240.23 298.77ZM267.94 115.22L253.91 127.4C254.01 128.56 254.05 129.72 254.05 130.87C254.05 132.02 254 133.18 253.91 134.34L267.94 146.52C268.992 147.433 269.694 148.684 269.924 150.059C270.154 151.433 269.898 152.844 269.2 154.05L260.88 168.46C260.184 169.667 259.089 170.593 257.785 171.08C256.48 171.567 255.046 171.585 253.73 171.13L236.17 165.07C234.264 166.397 232.25 167.561 230.15 168.55L226.62 186.78C226.354 188.148 225.621 189.38 224.546 190.266C223.472 191.153 222.123 191.639 220.73 191.64H204.09C201.22 191.64 198.75 189.6 198.2 186.78L194.67 168.55C192.57 167.56 190.56 166.4 188.65 165.07L171.09 171.13C168.37 172.07 165.37 170.95 163.94 168.46L155.62 154.05C154.922 152.844 154.666 151.433 154.896 150.059C155.126 148.684 155.827 147.433 156.88 146.52L170.91 134.34C170.711 132.031 170.711 129.709 170.91 127.4L156.88 115.22C155.827 114.307 155.126 113.056 154.896 111.682C154.666 110.308 154.922 108.896 155.62 107.69L163.94 93.2803C164.636 92.074 165.73 91.1477 167.035 90.6605C168.34 90.1733 169.773 90.1555 171.09 90.6103L188.65 96.6703C190.56 95.3403 192.57 94.1803 194.67 93.1903L198.2 74.9603C198.466 73.593 199.199 72.3607 200.273 71.4742C201.348 70.5877 202.697 70.102 204.09 70.1003H220.73C223.6 70.1003 226.07 72.1403 226.62 74.9603L230.15 93.1903C232.25 94.1803 234.26 95.3403 236.17 96.6703L253.73 90.6103C256.45 89.6703 259.45 90.7903 260.88 93.2803L269.2 107.69C270.64 110.18 270.11 113.34 267.94 115.22ZM256.34 109.41L252.97 103.57L237.07 109.06C235.09 109.74 232.9 109.35 231.29 108.01C228.749 105.905 225.872 104.242 222.78 103.09C221.817 102.731 220.963 102.13 220.3 101.345C219.636 100.561 219.185 99.6191 218.99 98.6103L215.79 82.1003H209.04L205.84 98.6103C205.645 99.6191 205.194 100.561 204.53 101.345C203.866 102.13 203.012 102.731 202.05 103.09C198.959 104.244 196.082 105.907 193.54 108.01C192.747 108.665 191.799 109.106 190.787 109.289C189.775 109.473 188.733 109.394 187.76 109.06L171.86 103.57L168.49 109.41L181.19 120.44C181.966 121.113 182.557 121.974 182.903 122.941C183.25 123.908 183.342 124.948 183.17 125.96C182.9 127.58 182.76 129.24 182.76 130.88C182.76 132.52 182.9 134.18 183.17 135.8C183.51 137.86 182.76 139.95 181.19 141.32L168.49 152.35L171.86 158.19L187.76 152.7C189.74 152.02 191.93 152.41 193.54 153.75C196.09 155.86 198.96 157.51 202.04 158.67C203.003 159.028 203.858 159.629 204.522 160.413C205.186 161.198 205.636 162.141 205.83 163.15L209.03 179.66H215.78L218.98 163.15C219.175 162.142 219.626 161.2 220.29 160.415C220.953 159.631 221.807 159.03 222.77 158.67C225.862 157.519 228.739 155.855 231.28 153.75C232.073 153.095 233.021 152.655 234.033 152.471C235.045 152.287 236.087 152.366 237.06 152.7L252.96 158.19L256.33 152.35L243.63 141.32C242.853 140.648 242.263 139.787 241.916 138.82C241.57 137.853 241.478 136.813 241.65 135.8C241.92 134.18 242.06 132.52 242.06 130.88C242.06 129.24 241.92 127.58 241.65 125.96C241.31 123.9 242.06 121.81 243.63 120.44L256.34 109.41ZM236.67 130.87C236.67 144.25 225.79 155.13 212.41 155.13C199.03 155.13 188.15 144.25 188.15 130.87C188.15 117.49 199.03 106.61 212.41 106.61C225.79 106.61 236.67 117.5 236.67 130.87ZM224.67 130.87C224.67 124.11 219.17 118.61 212.41 118.61C205.65 118.61 200.15 124.11 200.15 130.87C200.15 137.63 205.65 143.13 212.41 143.13C219.17 143.13 224.67 137.63 224.67 130.87ZM326.25 170.57L307.28 167.03C304.02 166.42 300.89 168.57 300.28 171.83C299.67 175.09 301.82 178.22 305.08 178.83L309.34 179.62L231.19 230.6L214.36 210.49C213.504 209.47 212.333 208.763 211.032 208.481C209.73 208.198 208.372 208.356 207.17 208.93L129.53 246.06C128.819 246.4 128.183 246.877 127.656 247.463C127.13 248.049 126.724 248.733 126.462 249.476C126.2 250.219 126.087 251.006 126.13 251.793C126.172 252.579 126.369 253.35 126.71 254.06C127.2 255.082 127.969 255.944 128.928 256.548C129.887 257.151 130.997 257.471 132.13 257.47C133 257.47 133.88 257.28 134.71 256.88L208.15 221.76L225.41 242.38C226.353 243.506 227.675 244.246 229.128 244.462C230.58 244.677 232.061 244.353 233.29 243.55L316.68 189.15L315.71 194.32C315.548 195.187 315.58 196.08 315.802 196.933C316.024 197.787 316.432 198.581 316.997 199.259C317.561 199.937 318.268 200.482 319.067 200.856C319.866 201.229 320.738 201.422 321.62 201.42C323.019 201.418 324.373 200.928 325.449 200.033C326.524 199.138 327.253 197.896 327.51 196.52L331.05 177.55C331.65 174.31 329.5 171.18 326.25 170.57ZM477.9 316.56L428.75 205.7C425.18 166.37 413.76 131.71 394.8 102.67C377.6 76.3303 354.73 55.2603 326.81 40.0403C269.85 8.9903 196.52 6.6403 144.33 34.1803C123.61 45.1203 93.8698 64.9103 69.8998 97.0803C44.0198 131.8 31.4998 172.13 32.6998 216.93C33.9398 263.5 55.8998 308.37 77.1298 351.76C99.8998 398.29 121.41 442.25 118.73 487.05C118.682 487.837 118.79 488.625 119.047 489.37C119.304 490.115 119.706 490.802 120.229 491.392C120.752 491.982 121.386 492.463 122.094 492.807C122.803 493.152 123.573 493.353 124.36 493.4C127.67 493.59 130.51 491.08 130.71 487.77C133.58 439.81 110.36 392.37 87.9098 346.49C67.2398 304.25 45.8698 260.58 44.6998 216.62C41.9298 113.13 117.37 61.9803 149.93 44.7903C198.72 19.0403 267.49 21.3603 321.06 50.5703C376.65 80.8803 410.68 136.69 416.87 207.74C416.93 208.4 417.09 209.04 417.36 209.65L466.92 321.42C467.62 322.99 467.5 324.52 466.56 325.96C465.62 327.4 464.27 328.13 462.55 328.13H418.05C414.74 328.13 412.05 330.82 412.05 334.13V405.97C412.05 417.85 402.39 427.51 390.51 427.51H351C340.43 427.51 331.83 436.11 331.83 446.68V491C331.83 494.31 334.52 497 337.83 497C341.14 497 343.83 494.31 343.83 491V446.7C343.83 442.74 347.05 439.53 351 439.53H390.51C409.01 439.53 424.05 424.48 424.05 405.99V340.15H462.55C468.34 340.15 473.46 337.37 476.62 332.52C479.78 327.66 480.25 321.85 477.9 316.56Z" fill="#D68029"/>
</svg>
