<svg width="512" height="512" viewBox="0 0 512 512" fill="none" xmlns="http://www.w3.org/2000/svg">
<g clip-path="url(#clip0_3411_2353)">
<path d="M227.256 375.736C216.432 375.736 207.632 366.952 207.632 356.128C207.632 345.304 216.432 336.512 227.256 336.512C238.08 336.512 246.88 345.304 246.88 356.128C246.88 366.952 238.08 375.736 227.256 375.736ZM227.256 353.032C226.434 353.032 225.646 353.358 225.064 353.938C224.482 354.518 224.154 355.306 224.152 356.128C224.152 359.544 230.36 359.544 230.36 356.128C230.358 355.306 230.03 354.518 229.448 353.938C228.866 353.358 228.078 353.032 227.256 353.032ZM301.016 375.736C290.2 375.736 281.408 366.952 281.408 356.128C281.408 345.304 290.2 336.512 301.024 336.512C311.848 336.512 320.632 345.304 320.632 356.128C320.632 366.952 311.832 375.736 301.016 375.736ZM301.016 353.032C300.195 353.032 299.407 353.358 298.827 353.939C298.246 354.519 297.92 355.307 297.92 356.128C297.92 359.544 304.12 359.544 304.12 356.128C304.12 355.307 303.794 354.519 303.213 353.939C302.633 353.358 301.837 353.032 301.016 353.032ZM362.8 187.392C361.012 185.046 358.704 183.147 356.059 181.844C353.413 180.541 350.501 179.868 347.552 179.88H159.904L155.024 161.6C153.814 157.081 151.148 153.087 147.438 150.238C143.728 147.389 139.182 145.843 134.504 145.84H122.192C120.002 145.84 117.902 146.71 116.354 148.258C114.806 149.806 113.936 151.906 113.936 154.096C113.936 156.285 114.806 158.385 116.354 159.934C117.902 161.482 120.002 162.352 122.192 162.352H134.504C136.64 162.352 138.504 163.792 139.064 165.864L178.512 313.352C179.925 318.613 183.032 323.262 187.353 326.58C191.674 329.897 196.968 331.698 202.416 331.704H334.816C337.007 331.704 339.108 330.833 340.657 329.284C342.206 327.735 343.076 325.634 343.076 323.444C343.076 321.253 342.206 319.152 340.657 317.603C339.108 316.054 337.007 315.184 334.816 315.184H202.416C198.696 315.184 195.424 312.672 194.464 309.088L191.456 297.832H315.76C323.047 297.823 330.129 295.413 335.909 290.975C341.689 286.537 345.846 280.318 347.736 273.28L366.136 204.056C366.902 201.209 367 198.224 366.421 195.333C365.842 192.442 364.603 189.724 362.8 187.392ZM349.704 197.456C350.008 197.856 350.472 198.68 350.168 199.816L341.984 230.6H312.976L317.576 196.4H347.552C348.72 196.4 349.392 197.056 349.704 197.456ZM296.32 230.6H265.968V196.4H300.928L296.32 230.6ZM249.456 196.4V230.6H219.136L214.496 196.4H249.456ZM197.832 196.4L202.464 230.6H173.512L164.352 196.4H197.832ZM204.704 247.12L209.336 281.312H187.096L177.936 247.12H204.704ZM221.376 247.12H249.456V281.312H226L221.376 247.12ZM265.968 281.312V247.12H294.096L289.488 281.312H265.968ZM315.76 281.312H306.16L310.76 247.12H337.6L331.776 269.024C330.831 272.546 328.752 275.659 325.859 277.88C322.967 280.102 319.423 281.308 315.776 281.312H315.76ZM139.872 55.8557C139.872 53.804 139.057 51.8363 137.606 50.3856C136.155 48.9348 134.188 48.1197 132.136 48.1197H47.176C45.1243 48.1197 43.1566 48.9348 41.7058 50.3856C40.255 51.8363 39.44 53.804 39.44 55.8557C39.44 57.9075 40.255 59.8751 41.7058 61.3259C43.1566 62.7767 45.1243 63.5917 47.176 63.5917H132.136C134.188 63.5917 136.155 62.7767 137.606 61.3259C139.057 59.8751 139.872 57.9075 139.872 55.8557ZM373.184 55.8557C373.184 58.0454 372.314 60.1453 370.766 61.6936C369.218 63.2419 367.118 64.1117 364.928 64.1117C362.738 64.1117 360.638 63.2419 359.09 61.6936C357.542 60.1453 356.672 58.0454 356.672 55.8557C356.672 53.6661 357.542 51.5662 359.09 50.0179C360.638 48.4696 362.738 47.5997 364.928 47.5997C367.118 47.5997 369.218 48.4696 370.766 50.0179C372.314 51.5662 373.184 53.6661 373.184 55.8557ZM399 47.5997C396.809 47.5997 394.708 48.47 393.159 50.019C391.61 51.5681 390.74 53.669 390.74 55.8597C390.74 58.0504 391.61 60.1514 393.159 61.7004C394.708 63.2495 396.809 64.1197 399 64.1197C401.191 64.1197 403.292 63.2495 404.841 61.7004C406.39 60.1514 407.26 58.0504 407.26 55.8597C407.26 53.669 406.39 51.5681 404.841 50.019C403.292 48.47 401.191 47.5997 399 47.5997ZM433.072 47.5997C430.881 47.5997 428.78 48.47 427.231 50.019C425.682 51.5681 424.812 53.669 424.812 55.8597C424.812 58.0504 425.682 60.1514 427.231 61.7004C428.78 63.2495 430.881 64.1197 433.072 64.1197C435.263 64.1197 437.364 63.2495 438.913 61.7004C440.462 60.1514 441.332 58.0504 441.332 55.8597C441.332 53.669 440.462 51.5681 438.913 50.019C437.364 48.47 435.263 47.5997 433.072 47.5997ZM505.952 408.48L480.624 387.128C480.64 386.624 480.72 386.12 480.72 385.608V62.9677C480.72 38.1677 460.48 17.9277 435.68 17.9277H45.04C20.24 17.9277 0 38.1677 0 62.9677V385.608C0 410.408 20.24 430.648 45.04 430.648H391.744L391.752 461.584C391.752 468.248 395.496 474.136 401.528 476.96C407.512 479.744 414.464 478.88 419.576 474.64L435.048 461.776L443.656 480.28C446.32 486.056 451.096 490.44 457.064 492.616C460.001 493.69 463.121 494.174 466.245 494.041C469.37 493.908 472.437 493.16 475.272 491.84C478.11 490.528 480.66 488.667 482.775 486.365C484.889 484.062 486.526 481.363 487.592 478.424C488.673 475.491 489.161 472.372 489.027 469.249C488.892 466.126 488.138 463.061 486.808 460.232L478.208 441.712L498 438.176C501.182 437.621 504.138 436.164 506.515 433.976C508.893 431.789 510.591 428.965 511.408 425.84C512.262 422.728 512.201 419.436 511.234 416.357C510.266 413.278 508.433 410.544 505.952 408.48ZM16.48 62.9677C16.48 47.2877 29.28 34.4877 45.04 34.4877H435.68C451.44 34.4877 464.24 47.2877 464.24 62.9677V77.2077H16.48V62.9677ZM391.72 348.656L391.736 414.096H45.04C37.4793 414.096 30.227 411.098 24.8733 405.759C19.5195 400.42 16.5012 393.176 16.48 385.616V93.7757H464.24V373.32L419.608 335.688C417.145 333.59 414.129 332.248 410.922 331.822C407.715 331.396 404.453 331.905 401.528 333.288C398.586 334.631 396.094 336.797 394.354 339.523C392.614 342.25 391.699 345.421 391.72 348.656ZM495.08 421.92L464.744 427.336C463.499 427.558 462.321 428.063 461.303 428.813C460.284 429.562 459.451 430.536 458.868 431.658C458.285 432.781 457.968 434.022 457.941 435.287C457.914 436.552 458.178 437.805 458.712 438.952L471.832 467.216C472.238 468.077 472.469 469.011 472.512 469.963C472.554 470.915 472.407 471.865 472.08 472.76C471.414 474.57 470.064 476.047 468.32 476.872C467.452 477.275 466.512 477.503 465.555 477.543C464.598 477.583 463.643 477.434 462.744 477.104C461.84 476.782 461.009 476.282 460.301 475.633C459.594 474.985 459.023 474.201 458.624 473.328L445.504 445.096C444.838 443.672 443.78 442.467 442.454 441.622C441.128 440.778 439.588 440.329 438.016 440.328C436.112 440.328 434.24 440.984 432.736 442.232L408.272 461.584L408.96 348.304L495.304 421.104L495.08 421.92Z" fill="#D68029"/>
</g>
<defs>
<clipPath id="clip0_3411_2353">
<rect width="512" height="512" fill="white"/>
</clipPath>
</defs>
</svg>
