<svg width="512" height="512" viewBox="0 0 512 512" fill="none" xmlns="http://www.w3.org/2000/svg">
<g clip-path="url(#clip0_3362_528)">
<path d="M177.985 333.51C179.223 343.706 176.493 353.007 170.09 360.409C162.434 369.261 149.626 375.157 135.069 376.723V388.177C135.069 390.299 134.226 392.334 132.725 393.834C131.225 395.334 129.19 396.177 127.069 396.177C124.947 396.177 122.912 395.334 121.412 393.834C119.911 392.334 119.069 390.299 119.069 388.177V376.604C97.6125 373.832 80.9015 360.385 76.0955 341.111C75.6166 339.064 75.9623 336.911 77.0578 335.118C78.1534 333.324 79.9109 332.033 81.9503 331.525C83.9898 331.016 86.1475 331.331 87.957 332.4C89.7665 333.47 91.0825 335.208 91.6205 337.24C96.1515 355.417 114.398 361.453 128.637 361.128C140.842 360.837 152.363 356.446 157.988 349.942C161.454 345.935 162.8 341.191 162.101 335.438C160.46 321.931 149.294 314.194 125.896 310.353C89.5215 304.38 81.0565 286.009 80.3615 271.649C79.3935 251.746 93.3495 235.06 115.089 230.129C116.405 229.831 117.733 229.583 119.069 229.385V217.709C119.069 215.587 119.911 213.552 121.412 212.052C122.912 210.552 124.947 209.709 127.069 209.709C129.19 209.709 131.225 210.552 132.725 212.052C134.226 213.552 135.069 215.587 135.069 217.709V229.324C150.784 231.506 166.36 240.496 174.099 258.929C174.505 259.898 174.717 260.937 174.722 261.987C174.728 263.038 174.526 264.079 174.128 265.052C173.731 266.024 173.146 266.909 172.407 267.656C171.667 268.402 170.788 268.995 169.82 269.402C165.754 271.111 161.057 269.197 159.347 265.123C151.806 247.165 132.958 242.483 118.627 245.732C107.901 248.165 95.6295 256.209 96.3415 270.873C96.5645 275.464 97.2405 289.433 128.488 294.564C139.787 296.419 174.167 302.063 177.985 333.51ZM349.382 346.883V504C349.382 506.122 348.539 508.157 347.038 509.657C345.538 511.157 343.503 512 341.382 512H297.806C295.684 512 293.649 511.157 292.149 509.657C290.648 508.157 289.806 506.122 289.806 504V346.883C289.806 344.761 290.648 342.726 292.149 341.226C293.649 339.726 295.684 338.883 297.806 338.883H341.382C343.503 338.883 345.538 339.726 347.038 341.226C348.539 342.726 349.382 344.761 349.382 346.883ZM333.382 354.883H305.806V496H333.382V354.883ZM430.295 376.602V504C430.295 506.122 429.452 508.157 427.951 509.657C426.451 511.157 424.416 512 422.295 512H378.719C376.597 512 374.562 511.157 373.062 509.657C371.561 508.157 370.719 506.122 370.719 504V376.602C370.719 374.48 371.561 372.445 373.062 370.945C374.562 369.445 376.597 368.602 378.719 368.602H422.295C424.416 368.602 426.451 369.445 427.951 370.945C429.452 372.445 430.295 374.48 430.295 376.602ZM414.295 384.602H386.719V496H414.295V384.602ZM511.207 289.723V503.999C511.207 506.121 510.364 508.156 508.863 509.656C507.363 511.156 505.328 511.999 503.207 511.999H459.631C457.509 511.999 455.474 511.156 453.974 509.656C452.473 508.156 451.631 506.121 451.631 503.999V289.723C451.631 287.601 452.473 285.566 453.974 284.066C455.474 282.566 457.509 281.723 459.631 281.723H503.207C505.328 281.723 507.363 282.566 508.863 284.066C510.364 285.566 511.207 287.601 511.207 289.723ZM495.207 297.723H467.631V495.999H495.207V297.723ZM268.469 420.401V503.999C268.469 506.121 267.626 508.156 266.125 509.656C264.625 511.156 262.59 511.999 260.469 511.999H216.894C214.772 511.999 212.737 511.156 211.237 509.656C209.736 508.156 208.894 506.121 208.894 503.999V420.401C208.894 418.279 209.736 416.244 211.237 414.744C212.737 413.244 214.772 412.401 216.894 412.401H260.469C262.59 412.401 264.625 413.244 266.125 414.744C267.626 416.244 268.469 418.279 268.469 420.401ZM252.469 428.401H224.894V495.999H252.469V428.401ZM426.698 282.491C429.575 287.247 431.094 292.702 431.088 298.261C431.088 315.123 417.368 328.842 400.507 328.842C383.645 328.842 369.926 315.123 369.926 298.261C369.926 296.249 370.126 294.284 370.499 292.38L342.506 278.572C336.899 284.918 328.707 288.931 319.592 288.931C313.539 288.937 307.622 287.137 302.598 283.76L266.188 315.473C268.215 319.631 269.266 324.197 269.26 328.823C269.26 342.652 260.031 354.36 247.411 358.127C238.975 379.149 223.466 397.809 203.342 411.026C181.842 425.147 156.43 432.576 129.707 432.576C128.94 432.576 128.174 432.57 127.405 432.557C80.1455 433.31 36.9345 410.468 14.6875 372.926C-5.23048 339.316 -4.81048 299.244 15.8405 262.984C28.3375 241.043 47.2975 216.298 75.0825 185.738C67.5765 181.269 62.5345 173.077 62.5345 163.725C62.5345 151.348 71.3635 140.995 83.0555 138.631L67.3825 122.959C57.2105 112.787 57.2105 96.236 67.3815 86.064C75.9905 77.456 89.6805 75.981 99.9365 82.563C100.113 82.6776 100.315 82.7476 100.524 82.7669C100.733 82.7862 100.944 82.7543 101.139 82.6739C101.333 82.5934 101.505 82.467 101.64 82.3053C101.774 82.1437 101.868 81.9517 101.912 81.746C104.513 69.842 115.233 61.203 127.404 61.201C139.578 61.201 150.299 69.841 152.898 81.744C152.941 81.9499 153.034 82.1421 153.169 82.304C153.303 82.4658 153.475 82.5926 153.67 82.6732C153.864 82.7538 154.075 82.7859 154.285 82.7667C154.494 82.7475 154.696 82.6776 154.873 82.563C165.125 75.982 178.816 77.454 187.426 86.061C197.599 96.236 197.599 112.787 187.426 122.959L171.755 138.631C183.446 140.996 192.275 151.348 192.275 163.726C192.275 173.077 187.233 181.269 179.727 185.738C207.512 216.298 226.473 241.043 238.969 262.984C246.169 275.627 250.956 288.71 253.245 301.938C254.079 302.392 254.889 302.885 255.674 303.412L292.085 271.699C290.058 267.541 289.007 262.976 289.012 258.35C289.012 241.488 302.73 227.769 319.592 227.769C336.454 227.769 350.174 241.488 350.174 258.35C350.174 260.362 349.973 262.327 349.601 264.231L377.594 278.039C383.201 271.693 391.392 267.68 400.506 267.68C405.807 267.68 410.796 269.037 415.146 271.42L455.226 229.595C452.348 224.839 450.83 219.385 450.836 213.826C450.836 196.964 464.555 183.245 481.418 183.245C498.28 183.245 511.999 196.964 511.999 213.826C511.999 230.688 498.28 244.407 481.418 244.407C476.3 244.413 471.264 243.127 466.777 240.667L426.698 282.491ZM78.6975 111.646L105.176 138.124H149.636L176.113 111.646C178.005 109.754 179.047 107.221 179.047 104.512C179.047 101.803 178.005 99.27 176.114 97.379C172.784 94.049 167.488 93.482 163.516 96.029C158.677 99.134 152.858 99.653 147.55 97.454C142.239 95.253 138.492 90.771 137.267 85.157C136.261 80.548 132.114 77.202 127.406 77.202C122.699 77.202 118.552 80.549 117.545 85.159C116.321 90.771 112.574 95.253 107.266 97.453C101.953 99.651 96.1335 99.133 91.2965 96.03C87.3245 93.481 82.0275 94.05 78.6965 97.379C74.7645 101.311 74.7645 107.712 78.6975 111.646ZM78.5365 163.725C78.5365 169.02 82.8445 173.329 88.1405 173.329H166.672C171.968 173.329 176.276 169.021 176.276 163.727C176.276 158.432 171.968 154.123 166.672 154.123H88.1405C82.8445 154.123 78.5365 158.431 78.5365 163.725ZM229.905 358.114C217.307 354.333 208.099 342.635 208.099 328.822C208.099 312.808 220.474 299.638 236.163 298.353C233.895 289.086 230.184 279.889 225.066 270.902C212.212 248.334 191.909 222.354 161.302 189.328H93.5095C62.9035 222.354 42.5995 248.333 29.7445 270.902C11.7575 302.485 11.2985 335.821 28.4535 364.769C47.7995 397.414 85.7035 417.253 127.271 416.557H127.541C172.026 417.333 212.552 393.699 229.905 358.114ZM253.262 328.822C253.262 320.782 246.721 314.241 238.681 314.241C230.641 314.241 224.1 320.782 224.1 328.822C224.1 336.862 230.641 343.403 238.681 343.403C246.721 343.403 253.262 336.862 253.262 328.822ZM334.174 258.35C334.174 250.31 327.634 243.769 319.594 243.769C311.553 243.769 305.013 250.31 305.013 258.35C305.013 266.391 311.553 272.932 319.594 272.932C327.634 272.932 334.174 266.39 334.174 258.35ZM466.837 213.825C466.837 221.865 473.378 228.406 481.419 228.406C489.459 228.406 496 221.865 496 213.825C496 205.785 489.459 199.244 481.419 199.244C473.378 199.244 466.837 205.785 466.837 213.825ZM415.088 298.261C415.088 290.22 408.547 283.679 400.507 283.679C392.466 283.679 385.926 290.22 385.926 298.261C385.926 306.301 392.466 312.842 400.507 312.842C408.547 312.842 415.088 306.301 415.088 298.261ZM314.986 100C314.986 73.193 336.796 51.383 363.602 51.383C390.41 51.383 412.219 73.193 412.219 100C412.219 126.807 390.409 148.617 363.602 148.617C336.796 148.617 314.986 126.807 314.986 100ZM330.986 100C330.986 117.985 345.617 132.617 363.602 132.617C381.586 132.617 396.219 117.985 396.219 100C396.219 82.015 381.586 67.383 363.602 67.383C345.617 67.383 330.986 82.015 330.986 100ZM263.603 109.194V90.806C263.603 89.1893 264.092 87.6106 265.007 86.2778C265.922 84.9451 267.22 83.9208 268.729 83.34L280.145 78.946C282.179 70.8297 285.401 63.0582 289.706 55.883L284.737 44.694C284.08 43.2165 283.887 41.5749 284.182 39.9854C284.478 38.3959 285.247 36.9332 286.391 35.79L299.393 22.788C300.536 21.6449 301.998 20.875 303.588 20.5798C305.177 20.2845 306.819 20.4777 308.297 21.134L319.487 26.104C326.662 21.7998 334.433 18.5781 342.549 16.543L346.944 5.126C347.524 3.61734 348.548 2.32 349.881 1.40494C351.213 0.489879 352.792 4.93652e-05 354.409 2.98695e-10L372.797 2.98693e-10C374.413 -1.39664e-05 375.992 0.489777 377.325 1.40483C378.657 2.31988 379.682 3.61726 380.263 5.126L384.658 16.543C392.773 18.5781 400.544 21.7999 407.719 26.104L418.909 21.134C420.386 20.4778 422.027 20.2846 423.617 20.5799C425.206 20.8751 426.668 21.645 427.812 22.788L440.815 35.79C441.958 36.9331 442.728 38.3958 443.023 39.9853C443.319 41.5747 443.126 43.2164 442.47 44.694L437.502 55.88C441.806 63.0568 445.029 70.8295 447.065 78.947L458.477 83.34C459.985 83.9208 461.283 84.9451 462.198 86.2778C463.113 87.6106 463.603 89.1893 463.603 90.806V109.194C463.603 110.811 463.113 112.389 462.198 113.722C461.283 115.055 459.985 116.079 458.477 116.66L447.06 121.055C445.025 129.17 441.803 136.941 437.499 144.115L442.47 155.305C443.126 156.782 443.319 158.424 443.024 160.014C442.728 161.603 441.959 163.066 440.816 164.209L427.814 177.211C426.67 178.354 425.208 179.124 423.618 179.42C422.029 179.715 420.387 179.522 418.91 178.866L407.724 173.898C400.546 178.203 392.773 181.425 384.656 183.461L380.263 194.874C379.682 196.383 378.658 197.68 377.325 198.596C375.992 199.511 374.413 200 372.797 200H354.409C352.792 200 351.213 199.51 349.88 198.595C348.548 197.68 347.523 196.383 346.943 194.874L342.548 183.457C334.432 181.422 326.661 178.2 319.487 173.896L308.296 178.866C306.818 179.523 305.176 179.716 303.587 179.42C301.997 179.125 300.534 178.355 299.392 177.211L286.39 164.209C285.246 163.066 284.477 161.603 284.181 160.014C283.886 158.424 284.079 156.782 284.736 155.305L289.704 144.119C285.399 136.942 282.177 129.169 280.141 121.052L268.728 116.659C267.219 116.078 265.922 115.054 265.007 113.721C264.092 112.389 263.603 110.81 263.603 109.194ZM279.603 103.701L289.885 107.659C291.148 108.145 292.267 108.943 293.137 109.979C294.007 111.016 294.601 112.255 294.862 113.583C296.64 122.672 300.222 131.312 305.396 138.994C306.15 140.117 306.607 141.413 306.724 142.761C306.841 144.109 306.615 145.465 306.066 146.701L301.589 156.781L306.822 162.015L316.907 157.536C318.143 156.987 319.498 156.761 320.846 156.878C322.193 156.995 323.489 157.451 324.613 158.205C332.358 163.404 340.905 166.948 350.018 168.737C351.345 168.998 352.585 169.591 353.621 170.461C354.657 171.332 355.455 172.45 355.941 173.713L359.902 184H367.303L371.26 173.718C371.746 172.455 372.545 171.336 373.581 170.466C374.617 169.595 375.857 169.002 377.185 168.741C386.274 166.963 394.914 163.381 402.596 158.207C403.719 157.453 405.015 156.996 406.363 156.879C407.71 156.762 409.066 156.988 410.303 157.537L420.383 162.014L425.616 156.78L421.137 146.696C420.587 145.46 420.361 144.104 420.478 142.756C420.595 141.408 421.052 140.112 421.807 138.989C426.978 131.309 430.56 122.671 432.34 113.585C432.6 112.257 433.193 111.017 434.064 109.981C434.934 108.945 436.053 108.147 437.316 107.661L447.602 103.701V96.298L437.32 92.34C436.057 91.8539 434.938 91.0555 434.068 90.0195C433.198 88.9835 432.604 87.7437 432.344 86.416C430.565 77.3271 426.983 68.6867 421.81 61.005C421.055 59.8818 420.598 58.5857 420.481 57.2379C420.364 55.89 420.59 54.5345 421.14 53.298L425.617 43.218L420.383 37.984L410.299 42.463C409.062 43.0124 407.707 43.2392 406.359 43.1222C405.012 43.0052 403.716 42.5482 402.592 41.794C394.848 36.595 386.299 33.051 377.188 31.261C375.86 31 374.62 30.4067 373.584 29.5365C372.548 28.6663 371.75 27.5476 371.264 26.285L367.303 16H359.903L355.943 26.287C355.456 27.5496 354.658 28.6683 353.622 29.5385C352.586 30.4087 351.346 31.002 350.019 31.263C340.931 33.0418 332.293 36.6233 324.613 41.796C323.489 42.5497 322.193 43.0065 320.846 43.1234C319.498 43.2404 318.143 43.0139 316.907 42.465L306.823 37.986L301.59 43.22L306.068 53.303C306.617 54.5395 306.843 55.895 306.726 57.2429C306.609 58.5907 306.152 59.8868 305.398 61.01C300.225 68.6903 296.644 77.3289 294.866 86.416C294.605 87.7438 294.012 88.9839 293.142 90.02C292.271 91.0561 291.152 91.8543 289.89 92.34L279.604 96.299V103.701H279.603Z" fill="#D68029"/>
</g>
<defs>
<clipPath id="clip0_3362_528">
<rect width="512" height="512" fill="white"/>
</clipPath>
</defs>
</svg>
