<svg width="512" height="512" viewBox="0 0 512 512" fill="none" xmlns="http://www.w3.org/2000/svg">
<path fill-rule="evenodd" clip-rule="evenodd" d="M158 207.025C158 165.946 124.579 132.525 83.5 132.525C42.421 132.525 9 165.946 9 207.025C9 248.104 42.421 281.524 83.5 281.524C124.579 281.524 158 248.104 158 207.025ZM83.5 267.524C50.14 267.524 23 240.384 23 207.025C23 173.665 50.14 146.525 83.5 146.525C116.86 146.525 144 173.665 144 207.025C144 240.385 116.86 267.524 83.5 267.524ZM83.5 155.033C54.832 155.033 31.509 178.356 31.509 207.025C31.509 235.693 54.832 259.016 83.5 259.016C112.169 259.016 135.492 235.693 135.492 207.025C135.492 178.356 112.169 155.033 83.5 155.033ZM83.5 245.017C62.552 245.017 45.509 227.974 45.509 207.026C45.509 186.077 62.552 169.034 83.5 169.034C104.449 169.034 121.492 186.077 121.492 207.026C121.492 227.974 104.449 245.017 83.5 245.017ZM90.5 201.385C91.794 202.98 92.5002 204.971 92.5 207.025C92.5 211.982 88.457 216.025 83.5 216.025C83.029 216.025 82.569 215.978 82.117 215.907L70.525 222.6C69.729 223.06 68.8501 223.359 67.9386 223.479C67.0271 223.599 66.1008 223.539 65.2128 223.3C64.3247 223.062 63.4923 222.652 62.7631 222.092C62.0339 221.532 61.4222 220.834 60.963 220.037C60.0348 218.429 59.7832 216.519 60.2637 214.725C60.7442 212.932 61.9173 211.403 63.525 210.475L75.115 203.784C75.45 202.918 75.9168 202.109 76.499 201.386V180.56C76.499 178.703 77.2365 176.923 78.5493 175.61C79.862 174.298 81.6425 173.56 83.499 173.56C85.3555 173.56 87.136 174.298 88.4487 175.61C89.7615 176.923 90.499 178.703 90.499 180.56L90.5 201.385ZM192.935 101.684C197.845 101.684 199.782 105.438 200.258 106.589C200.736 107.74 202.021 111.764 198.548 115.236C194.09 119.694 194.09 126.948 198.548 131.406L208.094 140.951C209.153 142.016 210.413 142.861 211.801 143.436C213.189 144.011 214.677 144.304 216.179 144.3C217.681 144.304 219.169 144.01 220.557 143.435C221.945 142.861 223.206 142.016 224.265 140.951C227.744 137.47 231.766 138.754 232.916 139.23C234.065 139.706 237.817 141.643 237.817 146.564C237.817 152.869 242.946 157.998 249.251 157.998H262.75C269.055 157.998 274.184 152.869 274.184 146.564C274.184 141.654 277.939 139.717 279.089 139.24C280.239 138.765 284.266 137.478 287.737 140.951C292.196 145.407 299.448 145.407 303.907 140.95L313.453 131.404C317.911 126.946 317.911 119.692 313.453 115.234C309.98 111.762 311.266 107.737 311.743 106.587C312.22 105.437 314.156 101.682 319.066 101.682C325.371 101.682 330.501 96.553 330.501 90.248V76.748C330.501 70.443 325.371 65.314 319.066 65.314C314.156 65.314 312.219 61.56 311.743 60.409C311.267 59.258 309.98 55.233 313.452 51.762C315.612 49.602 316.802 46.731 316.802 43.676C316.802 40.621 315.613 37.75 313.453 35.591L303.906 26.044C299.447 21.588 292.195 21.588 287.736 26.045C284.264 29.519 280.239 28.233 279.089 27.755C277.939 27.278 274.184 25.342 274.184 20.432C274.184 14.129 269.055 9 262.75 9H249.251C242.946 9 237.817 14.129 237.817 20.434C237.817 25.344 234.062 27.281 232.912 27.757C231.763 28.235 227.739 29.521 224.264 26.046C223.205 24.9811 221.945 24.1369 220.557 23.5623C219.169 22.9876 217.681 22.6938 216.179 22.698C214.677 22.6937 213.189 22.9875 211.801 23.5623C210.413 24.1372 209.153 24.9817 208.094 26.047L198.549 35.593C196.389 37.752 195.199 40.624 195.199 43.678C195.199 46.732 196.388 49.604 198.548 51.763C202.021 55.235 200.736 59.26 200.258 60.411C199.781 61.562 197.845 65.316 192.935 65.316C186.63 65.316 181.501 70.445 181.501 76.75V90.25C181.501 96.555 186.63 101.684 192.935 101.684ZM195.501 79.175C203.421 78.29 210.063 73.323 213.192 65.77C216.321 58.217 215.136 50.006 210.162 43.78L216.279 37.662C222.507 42.637 230.715 43.822 238.269 40.693C245.823 37.564 250.79 30.921 251.675 23.001H260.324C261.209 30.921 266.177 37.564 273.73 40.693C281.284 43.822 289.494 42.636 295.72 37.662L301.837 43.78C296.862 50.006 295.678 58.216 298.807 65.77C301.936 73.323 308.579 78.291 316.499 79.175V87.826C308.579 88.711 301.936 93.678 298.807 101.232C295.678 108.786 296.863 116.996 301.837 123.222L295.72 129.34C289.494 124.367 281.287 123.181 273.73 126.31C266.176 129.439 261.209 136.081 260.324 144.001H251.675C250.791 136.074 245.824 129.427 238.273 126.299C230.721 123.17 222.508 124.359 216.279 129.34L210.162 123.222C215.137 116.996 216.321 108.786 213.192 101.232C210.063 93.679 203.421 88.711 195.501 87.827V79.175ZM256 122.932C277.743 122.932 295.433 105.243 295.433 83.5C295.433 61.757 277.743 44.068 256 44.068C234.257 44.068 216.568 61.757 216.568 83.5C216.568 105.243 234.257 122.932 256 122.932ZM256 58.068C270.023 58.068 281.433 69.477 281.433 83.5C281.433 97.523 270.023 108.932 256 108.932C241.977 108.932 230.568 97.523 230.568 83.5C230.568 69.477 241.977 58.068 256 58.068ZM240 291.206H272.001C273.858 291.206 275.638 290.469 276.951 289.156C278.263 287.843 279.001 286.062 279.001 284.206V229.437H296.58C297.934 229.438 299.259 229.045 300.395 228.308C301.531 227.57 302.428 226.518 302.978 225.281C303.528 224.043 303.707 222.673 303.493 221.336C303.28 219.998 302.683 218.752 301.775 217.747L261.196 172.8C260.54 172.073 259.739 171.492 258.844 171.094C257.949 170.696 256.98 170.49 256.001 170.49C255.022 170.49 254.053 170.696 253.158 171.094C252.263 171.492 251.462 172.073 250.806 172.8L210.227 217.747C209.319 218.752 208.722 219.998 208.509 221.336C208.295 222.673 208.474 224.043 209.024 225.281C209.574 226.518 210.471 227.57 211.607 228.308C212.742 229.045 214.068 229.438 215.422 229.437H233V284.206C233 286.062 233.737 287.843 235.05 289.156C236.363 290.469 238.143 291.206 240 291.206ZM231.172 215.438L256.001 187.936L280.83 215.438H272.001C270.145 215.438 268.364 216.175 267.051 217.488C265.738 218.801 265.001 220.581 265.001 222.438V277.207H247V222.438C247 220.581 246.263 218.801 244.95 217.488C243.637 216.175 241.857 215.438 240 215.438H231.172ZM465.97 232.51C473.119 220.95 480.12 208.508 484.216 195.909C490.945 175.213 488.033 158.393 475.559 145.919C457.666 128.027 428.555 128.027 410.663 145.919C398.343 158.24 395.255 174.557 401.483 194.419C405.516 207.278 412.954 220.354 420.436 232.48C400.886 235.513 383.221 242.89 383.221 256.161C383.221 273.589 414.266 281.526 443.111 281.526C471.956 281.526 503 273.588 503 256.16C503 242.936 485.431 235.561 465.97 232.51ZM420.562 155.818C426.778 149.601 434.944 146.493 443.11 146.493C451.276 146.493 459.442 149.601 465.658 155.818C484.112 174.272 468.364 202.826 447.526 235.506C446.059 237.799 444.602 240.098 443.153 242.403C441.371 239.518 439.573 236.643 437.76 233.778C416.92 200.703 402.42 173.96 420.562 155.818ZM443.11 267.525C413.692 267.525 398.331 259.379 397.238 256.161C398.085 253.702 408.013 247.663 428.612 245.53C431.718 250.487 434.604 255.193 436.968 259.518C437.571 260.62 438.459 261.54 439.54 262.181C440.62 262.822 441.854 263.16 443.11 263.16C444.366 263.16 445.6 262.822 446.68 262.181C447.761 261.54 448.649 260.62 449.252 259.518C451.492 255.423 454.491 250.637 457.731 245.544C478.247 247.689 488.136 253.712 488.982 256.161C487.89 259.38 472.528 267.525 443.11 267.525ZM242.688 311.391C227.401 296.268 208.637 285.538 188.062 280.092L192.762 262.551C193.113 261.243 193.077 259.861 192.658 258.573C192.239 257.286 191.456 256.147 190.403 255.295C189.35 254.444 188.072 253.916 186.725 253.776C185.378 253.636 184.02 253.89 182.814 254.507L128.896 282.069C128.024 282.515 127.256 283.139 126.64 283.9C126.024 284.662 125.575 285.544 125.322 286.49C125.068 287.436 125.016 288.425 125.169 289.392C125.321 290.359 125.675 291.284 126.207 292.106L159.12 342.936C159.856 344.072 160.907 344.97 162.143 345.522C163.379 346.073 164.749 346.254 166.087 346.043C167.424 345.832 168.671 345.238 169.678 344.333C170.685 343.427 171.407 342.25 171.758 340.942L176.155 324.531C191.906 328.683 205.986 337.822 216.292 350.701C217.06 351.661 218.067 352.402 219.212 352.85C220.358 353.297 221.6 353.435 222.816 353.249C224.031 353.063 225.176 352.561 226.136 351.792C227.095 351.023 227.835 350.015 228.281 348.869C232.205 338.8 237.316 329.234 243.505 320.375C244.45 319.021 244.886 317.378 244.736 315.734C244.587 314.09 243.861 312.552 242.688 311.391ZM219.645 333.604C206.691 320.994 190.24 312.514 172.33 309.376C170.607 309.075 168.833 309.429 167.358 310.37C165.883 311.311 164.813 312.769 164.36 314.459L162.311 322.106L142.172 291.004L175.162 274.14L172.666 283.456C172.419 284.38 172.363 285.345 172.504 286.292C172.644 287.238 172.976 288.146 173.481 288.959C173.986 289.772 174.651 290.473 175.437 291.018C176.223 291.564 177.113 291.943 178.051 292.131C196.905 295.91 214.284 304.61 228.649 317.406C225.317 322.615 222.31 328.024 219.645 333.604ZM383.105 282.069L329.186 254.507C327.98 253.892 326.622 253.639 325.276 253.779C323.929 253.92 322.653 254.448 321.6 255.299C320.547 256.15 319.764 257.288 319.345 258.575C318.926 259.862 318.889 261.243 319.238 262.551L323.938 280.093C270.818 294.168 233 342.771 233 398.386V496C233 497.857 233.737 499.637 235.05 500.95C236.363 502.262 238.143 503 240 503H272C273.857 503 275.637 502.262 276.95 500.95C278.262 499.637 279 497.857 279 496V398.386C279 363.358 302.55 333.251 335.846 324.528L340.244 340.944C340.595 342.252 341.317 343.43 342.323 344.336C343.33 345.241 344.578 345.836 345.915 346.047C347.253 346.258 348.623 346.077 349.859 345.525C351.096 344.973 352.146 344.074 352.882 342.938L385.795 292.108C386.327 291.286 386.681 290.361 386.833 289.393C386.985 288.426 386.933 287.437 386.679 286.491C386.426 285.545 385.977 284.663 385.361 283.901C384.745 283.139 383.977 282.515 383.105 282.069ZM349.69 322.106L347.641 314.459C347.189 312.769 346.12 311.309 344.644 310.368C343.169 309.427 341.394 309.073 339.671 309.376C296.404 316.958 265 354.393 265 398.386V489H247V398.386C247 346.918 283.566 302.232 333.948 292.132C334.886 291.944 335.776 291.565 336.562 291.02C337.348 290.474 338.014 289.773 338.519 288.96C339.023 288.147 339.356 287.24 339.496 286.293C339.636 285.347 339.581 284.381 339.333 283.457L336.837 274.141L369.828 291.006L349.69 322.106ZM443.044 186.021C437.536 186.021 433.044 181.529 433.044 176.021C433.044 170.513 437.536 166.021 443.044 166.021C448.552 166.021 453.044 170.513 453.044 176.021C453.044 181.529 448.552 186.021 443.044 186.021Z" fill="#D68029"/>
</svg>
