<svg width="512" height="512" viewBox="0 0 512 512" fill="none" xmlns="http://www.w3.org/2000/svg">
<g clip-path="url(#clip0_3362_542)">
<path d="M432.801 264V248C437.217 248 440.801 244.418 440.801 240V192C440.801 187.582 437.217 184 432.801 184H389.601L388.05 177.99C384.514 164.245 379.017 151.081 371.729 138.902L368.529 133.55L399.201 102.825C402.289 99.7312 402.289 94.7184 399.201 91.6248L365.226 57.6C363.716 56.1602 361.71 55.357 359.624 55.357C357.538 55.357 355.532 56.1602 354.022 57.6L323.294 88.328L317.945 85.128C305.749 77.837 292.568 72.338 278.807 68.8L272.801 67.2376V24C272.801 19.5816 269.219 16 264.801 16H216.801C212.382 16 208.801 19.5816 208.801 24V67.2L202.791 68.7528C189.046 72.2885 175.88 77.7812 163.698 85.0624L158.345 88.2656L127.625 57.6C126.114 56.149 124.1 55.3387 122.005 55.3387C119.91 55.3387 117.896 56.149 116.385 57.6L82.4008 91.5752C81.6607 92.3132 81.0736 93.1899 80.6729 94.1552C80.2723 95.1204 80.0661 96.1553 80.0661 97.2004C80.0661 98.2455 80.2723 99.2804 80.6729 100.246C81.0736 101.211 81.6607 102.088 82.4008 102.826L113.129 133.55L109.929 138.903C102.641 151.082 97.1453 164.246 93.6104 177.991L92.0408 184H48.8008C44.3824 184 40.8008 187.582 40.8008 192V240C40.8008 244.418 44.3824 248 48.8008 248V264C35.548 264 24.8008 253.253 24.8008 240V192C24.8008 178.747 35.548 168 48.8008 168H79.7536C83.0531 156.939 87.5156 146.258 93.0664 136.138L71.0664 114.138C66.5664 109.647 64.0384 103.554 64.0384 97.2C64.0384 90.8464 66.5664 84.7528 71.0664 80.2656L105.066 46.2656C114.538 37.2 129.473 37.2 138.945 46.2656L160.938 68.256C171.06 62.7112 181.74 58.2543 192.801 54.96V24C192.801 10.7472 203.548 0 216.801 0H264.801C278.054 0 288.801 10.7472 288.801 24V54.96C299.862 58.2576 310.542 62.7177 320.663 68.2656L342.663 46.2656C352.138 37.2 367.07 37.2 376.545 46.2656L410.538 80.256C412.765 82.4784 414.531 85.1181 415.736 88.0239C416.941 90.9298 417.56 94.0447 417.56 97.1904C417.561 100.337 416.941 103.452 415.736 106.359C414.531 109.265 412.765 111.905 410.538 114.128L388.538 136.128C394.085 146.254 398.546 156.937 401.848 168H432.801C446.054 168 456.801 178.747 456.801 192V240C456.801 253.253 446.054 264 432.801 264Z" fill="#D68029"/>
<path d="M352.801 216H336.801C336.801 162.982 293.819 120 240.801 120C187.782 120 144.801 162.982 144.801 216H128.801C128.801 154.144 178.945 104 240.801 104C302.654 104 352.801 154.144 352.801 216Z" fill="#D68029"/>
<path d="M240.801 280C214.291 280 192.801 258.506 192.801 232C192.801 205.49 214.291 184 240.801 184C267.313 184 288.801 205.49 288.801 232C288.773 258.5 267.301 279.972 240.801 280ZM240.801 200C223.129 200 208.801 214.328 208.801 232C208.801 249.672 223.129 264 240.801 264C258.473 264 272.801 249.672 272.801 232C272.801 214.328 258.473 200 240.801 200ZM376.801 312C350.291 312 328.801 290.506 328.801 264C328.801 237.49 350.291 216 376.801 216C403.31 216 424.801 237.49 424.801 264C424.773 290.5 403.301 311.972 376.801 312ZM376.801 232C359.129 232 344.801 246.328 344.801 264C344.801 281.672 359.129 296 376.801 296C394.473 296 408.801 281.672 408.801 264C408.801 246.328 394.473 232 376.801 232ZM104.801 312C78.2912 312 56.8008 290.506 56.8008 264C56.8008 237.49 78.2912 216 104.801 216C131.313 216 152.801 237.49 152.801 264C152.773 290.5 131.301 311.972 104.801 312ZM104.801 232C87.1288 232 72.8008 246.328 72.8008 264C72.8008 281.672 87.1288 296 104.801 296C122.473 296 136.801 281.672 136.801 264C136.801 246.328 122.473 232 104.801 232Z" fill="#D68029"/>
<path d="M449.326 332.525C437.404 324.33 423.268 319.961 408.801 320H344.801C340.909 320.035 337.026 320.387 333.191 321.053C328.071 313.047 321.412 306.138 313.601 300.725C312.43 299.84 311.197 299.039 309.913 298.328C298.721 291.553 285.884 287.98 272.801 288H208.801C196.765 287.958 184.915 290.968 174.358 296.748C163.801 302.528 154.881 310.89 148.433 321.053C144.59 320.387 140.7 320.035 136.801 320H72.8008C58.3427 319.961 44.2153 324.324 32.2976 332.51C22.5982 339.11 14.6584 347.98 9.16897 358.348C3.67956 368.716 0.806852 380.269 0.800781 392V424C0.828781 445.844 13.5384 465.682 33.3792 474.832C40.7028 478.282 48.7057 480.047 56.8008 480H136.801V464H64.8008V376H48.8008V463.197C45.7894 462.593 42.8635 461.621 40.0888 460.304C33.1487 457.104 27.2687 451.986 23.1423 445.553C19.016 439.121 16.8156 431.643 16.8008 424V392C16.8105 382.871 19.05 373.881 23.3247 365.814C27.5994 357.746 33.7798 350.845 41.3288 345.71C50.5908 339.354 61.5678 335.968 72.8008 336H136.801C138.21 336 139.569 336.151 140.945 336.244C138.238 343.874 136.837 351.905 136.801 360V440C136.829 462.082 154.722 479.972 176.801 480H200.801V352H184.801V464H176.801C163.548 464 152.801 453.253 152.801 440V360C152.801 329.069 177.876 304 208.801 304H272.801C283.093 304.008 293.184 306.856 301.961 312.232C302.772 312.675 303.552 313.174 304.294 313.725C311.79 318.858 317.942 325.717 322.232 333.725C326.543 341.812 328.799 350.836 328.801 360V440C328.801 453.253 318.054 464 304.801 464H296.801V352H280.801V480H304.801C326.882 479.972 344.773 462.082 344.801 440V360C344.764 351.906 343.365 343.875 340.663 336.244C342.042 336.15 343.401 336 344.801 336H408.801C420.042 335.97 431.027 339.362 440.294 345.725C447.836 350.862 454.011 357.762 458.281 365.826C462.552 373.89 464.79 382.875 464.801 392V424C464.787 431.668 462.572 439.17 458.421 445.617C454.269 452.063 448.354 457.182 441.379 460.366C438.647 461.659 435.766 462.61 432.801 463.198V376H416.801V464H344.801V480H424.801C432.847 480.051 440.802 478.307 448.089 474.894C467.994 465.772 480.769 445.897 480.801 424V392C480.795 380.273 477.924 368.725 472.439 358.36C466.953 347.994 459.019 339.126 449.326 332.525Z" fill="#D68029"/>
<path d="M208.801 464H272.801V480H208.801V464Z" fill="#D68029"/>
</g>
<defs>
<clipPath id="clip0_3362_542">
<rect width="512" height="512" fill="white"/>
</clipPath>
</defs>
</svg>
