<svg width="512" height="512" viewBox="0 0 512 512" fill="none" xmlns="http://www.w3.org/2000/svg">
<path d="M273.218 198.09C254.804 198.09 239.875 183.161 239.875 164.746C239.875 146.332 254.804 131.403 273.218 131.403C291.633 131.403 306.562 146.332 306.562 164.746C306.562 183.161 291.633 198.09 273.218 198.09ZM367.364 140.129C355.539 144.982 341.656 140.469 335.09 129.099C328.518 117.724 331.558 103.432 341.687 95.6328C329.966 84.0169 315.3 75.3649 298.909 70.8869C297.235 83.5829 286.372 93.3769 273.218 93.3769C260.07 93.3769 249.201 83.5829 247.527 70.8869C231.136 75.3649 216.475 84.0169 204.755 95.6328C214.879 103.437 217.918 117.724 211.352 129.099C204.784 140.469 190.898 144.982 179.079 140.129C176.987 148.167 175.931 156.44 175.936 164.746C175.929 173.098 176.997 181.417 179.114 189.497C190.927 184.659 204.789 189.177 211.352 200.542C217.899 211.887 214.899 226.125 204.839 233.943C216.549 245.521 231.191 254.147 247.546 258.61C249.281 245.988 260.118 236.264 273.218 236.264C286.322 236.264 297.156 245.988 298.89 258.61C315.251 254.147 329.893 245.521 341.603 233.943C331.543 226.125 328.537 211.887 335.09 200.542C341.652 189.177 355.51 184.659 367.328 189.497C369.445 181.417 370.513 173.098 370.506 164.746C370.511 156.44 369.455 148.167 367.364 140.129Z" stroke="#D68029" stroke-width="16" stroke-miterlimit="10" stroke-linecap="round" stroke-linejoin="round"/>
<path d="M135.205 428.485H85.6953L85.6963 295.796H190.852L292.81 337.996C310.645 345.378 319.048 365.881 311.521 383.655L311.176 384.471C303.59 402.389 283.348 410.98 265.358 404.041C236.425 392.881 198.48 378.293 198.48 378.293L296.181 415.854C316.788 423.776 339.288 425.376 360.809 420.449L460.904 397.531C479.246 393.332 497.46 405.016 501.289 423.439C504.948 441.041 494.1 458.403 476.675 462.832L357.24 493.186C334.722 498.909 310.975 497.425 289.345 488.941L218.654 461.214" stroke="#D68029" stroke-width="16" stroke-miterlimit="10" stroke-linecap="round" stroke-linejoin="round"/>
<path d="M85.6958 447.99H10V272.214H85.6968L85.6958 447.99Z" stroke="#D68029" stroke-width="16" stroke-miterlimit="10" stroke-linecap="round" stroke-linejoin="round"/>
<path d="M377.672 272.8C391.37 259.288 402.688 242.908 410.61 224.065C442.795 147.515 406.83 59.3684 330.281 27.1855C253.732 -4.99937 165.584 30.9655 133.4 107.514C119.208 141.269 118.275 177.276 128.221 209.747" stroke="#D68029" stroke-width="16" stroke-miterlimit="10" stroke-linecap="round" stroke-linejoin="round"/>
<path d="M101.416 199.005L129.607 215.618L148.234 188.433" stroke="#D68029" stroke-width="16" stroke-miterlimit="10" stroke-linecap="round" stroke-linejoin="round"/>
</svg>
