<svg width="512" height="512" viewBox="0 0 512 512" fill="none" xmlns="http://www.w3.org/2000/svg">
<path d="M444.365 383.944C443.737 382.529 442.711 381.327 441.414 380.484C440.116 379.64 438.601 379.191 437.053 379.191H434.614C408.195 379.191 384.392 369.645 363.866 350.818C362.338 349.416 360.325 348.662 358.251 348.716C356.178 348.769 354.207 349.626 352.753 351.105C327.031 377.27 292.67 391.679 256 391.679C181.186 391.679 120.32 330.814 120.32 256C120.32 181.186 181.186 120.32 256 120.32C292.67 120.32 327.031 134.729 352.752 160.894C354.206 162.373 356.177 163.23 358.251 163.283C360.324 163.337 362.337 162.583 363.865 161.181C384.391 142.354 408.194 132.808 434.613 132.808H437.052C438.6 132.808 440.115 132.359 441.412 131.515C442.71 130.672 443.736 129.47 444.364 128.055L456.198 101.408C456.854 99.9304 457.047 98.2887 456.752 96.6993C456.456 95.1098 455.686 93.6471 454.543 92.504L419.493 57.455C418.35 56.312 416.887 55.5421 415.298 55.2466C413.708 54.9512 412.067 55.1441 410.589 55.8L373.864 72.11C351.95 58.026 328.04 48.113 302.672 42.597L288.249 5.126C287.668 3.61726 286.644 2.31988 285.311 1.40483C283.978 0.489777 282.4 -1.39664e-05 280.783 2.98694e-10L231.216 2.98693e-10C229.599 -1.39664e-05 228.021 0.489777 226.688 1.40483C225.355 2.31988 224.331 3.61726 223.75 5.126L209.326 42.598C183.958 48.115 160.048 58.027 138.132 72.111L101.408 55.801C99.9304 55.1449 98.2887 54.9518 96.6993 55.2472C95.1098 55.5427 93.6471 56.3128 92.504 57.456L57.455 92.506C56.3118 93.6491 55.5417 95.1118 55.2462 96.7013C54.9508 98.2907 55.1439 99.9324 55.8 101.41L72.108 138.131C58.023 160.041 48.11 183.953 42.593 209.328L5.126 223.75C3.61734 224.331 2.32004 225.355 1.40501 226.688C0.48997 228.021 0.000124758 229.599 2.98696e-10 231.216L2.98693e-10 280.783C-1.39664e-05 282.4 0.489777 283.978 1.40483 285.311C2.31988 286.644 3.61726 287.668 5.126 288.249L42.588 302.668C48.109 328.059 58.022 351.972 72.106 373.879L55.801 410.59C55.1449 412.068 54.9518 413.709 55.2472 415.299C55.5427 416.888 56.3128 418.351 57.456 419.494L92.506 454.543C93.6491 455.686 95.1118 456.456 96.7013 456.752C98.2907 457.047 99.9324 456.854 101.41 456.198L138.135 439.888C160.05 453.972 183.96 463.885 209.327 469.401L223.751 506.873C224.332 508.382 225.356 509.679 226.689 510.594C228.022 511.509 229.6 511.999 231.217 511.999H280.784C282.401 511.999 283.979 511.509 285.312 510.594C286.645 509.679 287.669 508.382 288.25 506.873L302.669 469.412C328.058 463.891 351.971 453.978 373.879 439.893L410.59 456.198C412.067 456.855 413.709 457.048 415.299 456.753C416.888 456.458 418.351 455.687 419.494 454.544L454.543 419.495C455.686 418.352 456.456 416.889 456.752 415.3C457.047 413.71 456.854 412.069 456.198 410.591L444.365 383.944ZM412.065 439.346L376.383 423.498C375.146 422.949 373.791 422.723 372.443 422.84C371.095 422.957 369.799 423.414 368.676 424.168C346.306 439.191 321.595 449.434 295.23 454.612C293.902 454.873 292.662 455.466 291.626 456.337C290.59 457.207 289.792 458.326 289.306 459.589L275.292 496H236.71L222.69 459.579C222.204 458.316 221.406 457.198 220.37 456.327C219.333 455.457 218.094 454.864 216.766 454.603C190.423 449.429 165.718 439.188 143.336 424.163C142.213 423.409 140.917 422.952 139.569 422.835C138.222 422.718 136.866 422.945 135.63 423.494L99.935 439.347L72.653 412.066L88.501 376.384C89.05 375.147 89.2766 373.792 89.1594 372.444C89.0422 371.096 88.5852 369.8 87.831 368.677C72.81 346.308 62.566 321.597 57.387 295.23C57.1261 293.902 56.5327 292.662 55.6623 291.626C54.7919 290.59 53.6729 289.792 52.41 289.306L16 275.291V236.709L52.417 222.691C53.6798 222.205 54.7987 221.407 55.6691 220.371C56.5395 219.335 57.1329 218.095 57.394 216.767C62.568 190.415 72.81 165.709 87.834 143.333C88.5883 142.21 89.0453 140.914 89.1625 139.566C89.2797 138.218 89.0531 136.862 88.504 135.626L72.653 99.936L99.934 72.654L135.628 88.507C136.864 89.0557 138.22 89.2822 139.567 89.1652C140.915 89.0482 142.211 88.5916 143.334 87.838C165.716 72.813 190.422 62.572 216.765 57.398C218.093 57.1373 219.333 56.5441 220.369 55.6738C221.405 54.8036 222.203 53.6847 222.689 52.422L236.709 16H275.291L289.31 52.421C289.796 53.6837 290.594 54.8025 291.63 55.6727C292.667 56.543 293.906 57.1362 295.234 57.397C321.578 62.571 346.283 72.813 368.664 87.837C369.787 88.5908 371.083 89.0476 372.431 89.1646C373.778 89.2816 375.134 89.055 376.37 88.506L412.065 72.653L439.347 99.934L431.839 116.84C405.177 117.455 380.105 126.939 358.759 144.438C330.682 118.51 294.48 104.32 256.002 104.32C172.366 104.32 104.322 172.363 104.322 256C104.322 339.636 172.365 407.679 256.002 407.679C294.481 407.679 330.683 393.489 358.759 367.561C380.105 385.06 405.178 394.544 431.84 395.159L439.348 412.065L412.065 439.346ZM509.657 326.535C511.157 328.035 512 330.07 512 332.191C512 334.313 511.157 336.348 509.657 337.848L470.35 377.155C468.788 378.717 466.741 379.498 464.693 379.498C462.645 379.498 460.598 378.717 459.036 377.155C457.536 375.655 456.693 373.62 456.693 371.499C456.693 369.377 457.536 367.342 459.036 365.842L484.686 340.192H434.613C410.245 340.192 389.399 326.939 372.655 300.802L353.455 270.831L334.254 300.802C317.509 326.939 296.664 340.192 272.295 340.192H240.693C238.571 340.192 236.536 339.349 235.036 337.849C233.536 336.349 232.693 334.314 232.693 332.192C232.693 330.07 233.536 328.035 235.036 326.535C236.536 325.035 238.571 324.192 240.693 324.192H272.295C291.118 324.192 306.978 313.718 320.781 292.171L343.954 256L320.782 219.829C306.979 198.282 291.119 187.808 272.296 187.808H240.694C238.572 187.808 236.537 186.965 235.037 185.465C233.537 183.965 232.694 181.93 232.694 179.808C232.694 177.686 233.537 175.651 235.037 174.151C236.537 172.651 238.572 171.808 240.694 171.808H272.296C296.665 171.808 317.511 185.061 334.255 211.198L353.456 241.169L372.656 211.198C389.4 185.061 410.246 171.808 434.614 171.808H484.687L459.036 146.157C458.279 145.417 457.677 144.535 457.264 143.561C456.851 142.586 456.635 141.54 456.629 140.482C456.623 139.424 456.827 138.375 457.23 137.396C457.632 136.418 458.224 135.529 458.972 134.78C459.721 134.032 460.61 133.44 461.588 133.038C462.567 132.635 463.616 132.431 464.674 132.437C465.732 132.443 466.778 132.659 467.753 133.072C468.727 133.485 469.609 134.087 470.349 134.844L509.656 174.151C511.156 175.651 511.999 177.686 511.999 179.807C511.999 181.929 511.156 183.964 509.656 185.464L470.349 224.772C468.787 226.334 466.74 227.115 464.692 227.115C462.644 227.115 460.597 226.334 459.035 224.772C458.292 224.029 457.703 223.147 457.301 222.177C456.899 221.206 456.692 220.166 456.692 219.115C456.692 218.065 456.899 217.025 457.301 216.054C457.703 215.084 458.292 214.202 459.035 213.459L484.685 187.809H434.613C415.79 187.809 399.93 198.283 386.127 219.83L362.956 256L386.128 292.171C399.932 313.718 415.792 324.192 434.614 324.192H484.687L459.037 298.542C458.28 297.802 457.678 296.92 457.265 295.946C456.852 294.971 456.636 293.925 456.63 292.867C456.624 291.809 456.828 290.76 457.231 289.781C457.633 288.803 458.225 287.914 458.973 287.165C459.722 286.417 460.611 285.825 461.589 285.423C462.568 285.02 463.617 284.816 464.675 284.822C465.733 284.828 466.779 285.044 467.754 285.457C468.728 285.87 469.61 286.472 470.35 287.229L509.657 326.535Z" fill="#D68029"/>
</svg>
