<svg width="512" height="512" viewBox="0 0 512 512" fill="none" xmlns="http://www.w3.org/2000/svg">
<path d="M104 130V166C104 168.122 104.843 170.157 106.343 171.657C107.843 173.157 109.878 174 112 174C114.122 174 116.157 173.157 117.657 171.657C119.157 170.157 120 168.122 120 166V130C120 127.878 119.157 125.843 117.657 124.343C116.157 122.843 114.122 122 112 122C109.878 122 107.843 122.843 106.343 124.343C104.843 125.843 104 127.878 104 130ZM68 130V166C68 168.122 68.8429 170.157 70.3431 171.657C71.8434 173.157 73.8783 174 76 174C78.1217 174 80.1566 173.157 81.6569 171.657C83.1571 170.157 84 168.122 84 166V130C84 127.878 83.1571 125.843 81.6569 124.343C80.1566 122.843 78.1217 122 76 122C73.8783 122 71.8434 122.843 70.3431 124.343C68.8429 125.843 68 127.878 68 130ZM140 130V166C140 168.122 140.843 170.157 142.343 171.657C143.843 173.157 145.878 174 148 174C150.122 174 152.157 173.157 153.657 171.657C155.157 170.157 156 168.122 156 166V130C156 127.878 155.157 125.843 153.657 124.343C152.157 122.843 150.122 122 148 122C145.878 122 143.843 122.843 142.343 124.343C140.843 125.843 140 127.878 140 130ZM104 238V274C104 276.122 104.843 278.157 106.343 279.657C107.843 281.157 109.878 282 112 282C114.122 282 116.157 281.157 117.657 279.657C119.157 278.157 120 276.122 120 274V238C120 235.878 119.157 233.843 117.657 232.343C116.157 230.843 114.122 230 112 230C109.878 230 107.843 230.843 106.343 232.343C104.843 233.843 104 235.878 104 238ZM68 238V274C68 276.122 68.8429 278.157 70.3431 279.657C71.8434 281.157 73.8783 282 76 282C78.1217 282 80.1566 281.157 81.6569 279.657C83.1571 278.157 84 276.122 84 274V238C84 235.878 83.1571 233.843 81.6569 232.343C80.1566 230.843 78.1217 230 76 230C73.8783 230 71.8434 230.843 70.3431 232.343C68.8429 233.843 68 235.878 68 238ZM140 238V274C140 276.122 140.843 278.157 142.343 279.657C143.843 281.157 145.878 282 148 282C150.122 282 152.157 281.157 153.657 279.657C155.157 278.157 156 276.122 156 274V238C156 235.878 155.157 233.843 153.657 232.343C152.157 230.843 150.122 230 148 230C145.878 230 143.843 230.843 142.343 232.343C140.843 233.843 140 235.878 140 238Z" fill="#D68029"/>
<path d="M399.984 378C397.862 378 395.827 378.843 394.327 380.343C392.827 381.843 391.984 383.878 391.984 386V402C391.982 404.121 391.138 406.154 389.639 407.654C388.139 409.154 386.105 409.998 383.984 410H56C53.8789 409.998 51.8453 409.154 50.3455 407.654C48.8457 406.154 48.0021 404.121 48 402V326C48 323.878 48.8429 321.843 50.3431 320.343C51.8434 318.843 53.8783 318 56 318H266.632C268.754 318 270.789 317.157 272.289 315.657C273.789 314.156 274.632 312.122 274.632 310C274.632 307.878 273.789 305.843 272.289 304.343C270.789 302.843 268.754 302 266.632 302H55.992C53.8703 302 51.8354 301.157 50.3351 299.657C48.8349 298.156 47.992 296.122 47.992 294V218C47.9941 215.879 48.8377 213.845 50.3375 212.345C51.8373 210.845 53.8709 210.002 55.992 210H242.712C244.834 210 246.869 209.157 248.369 207.657C249.869 206.156 250.712 204.122 250.712 202C250.712 199.878 249.869 197.843 248.369 196.343C246.869 194.843 244.834 194 242.712 194H55.992C53.8709 193.998 51.8373 193.154 50.3375 191.654C48.8377 190.154 47.9941 188.121 47.992 186V110C47.9941 107.879 48.8377 105.845 50.3375 104.345C51.8373 102.845 53.8709 102.002 55.992 102H383.984C386.105 102.002 388.139 102.845 389.639 104.345C391.138 105.845 391.982 107.879 391.984 110V124.96C391.984 127.082 392.827 129.116 394.327 130.617C395.827 132.117 397.862 132.96 399.984 132.96C402.106 132.96 404.141 132.117 405.641 130.617C407.141 129.116 407.984 127.082 407.984 124.96V110C407.976 103.638 405.444 97.5392 400.945 93.0414C396.445 88.5437 390.346 86.0142 383.984 86.0078H56C49.6368 86.0142 43.5359 88.5448 39.0365 93.0443C34.537 97.5438 32.0064 103.645 32 110.008V186.008C32.0178 191.932 34.2425 197.636 38.24 202.008C34.2425 206.379 32.0178 212.084 32 218.008V294C32.0178 299.924 34.2425 305.628 38.24 310C34.2425 314.372 32.0178 320.076 32 326V402C32.0085 408.362 34.54 414.46 39.0393 418.958C43.5385 423.456 49.6381 425.985 56 425.992H383.984C390.347 425.985 396.448 423.455 400.948 418.955C405.447 414.456 407.978 408.355 407.984 401.992V385.992C407.984 383.87 407.141 381.835 405.641 380.335C404.141 378.835 402.106 378 399.984 378Z" fill="#D68029"/>
<path d="M104 345.999V381.999C104 384.121 104.843 386.156 106.343 387.656C107.843 389.156 109.878 389.999 112 389.999C114.122 389.999 116.157 389.156 117.657 387.656C119.157 386.156 120 384.121 120 381.999V345.999C120 343.878 119.157 341.843 117.657 340.342C116.157 338.842 114.122 337.999 112 337.999C109.878 337.999 107.843 338.842 106.343 340.342C104.843 341.843 104 343.878 104 345.999ZM68 345.999V381.999C68 384.121 68.8429 386.156 70.3431 387.656C71.8434 389.156 73.8783 389.999 76 389.999C78.1217 389.999 80.1566 389.156 81.6569 387.656C83.1571 386.156 84 384.121 84 381.999V345.999C84 343.878 83.1571 341.843 81.6569 340.342C80.1566 338.842 78.1217 337.999 76 337.999C73.8783 337.999 71.8434 338.842 70.3431 340.342C68.8429 341.843 68 343.878 68 345.999ZM140 345.999V381.999C140 384.121 140.843 386.156 142.343 387.656C143.843 389.156 145.878 389.999 148 389.999C150.122 389.999 152.157 389.156 153.657 387.656C155.157 386.156 156 384.121 156 381.999V345.999C156 343.878 155.157 341.843 153.657 340.342C152.157 338.842 150.122 337.999 148 337.999C145.878 337.999 143.843 338.842 142.343 340.342C140.843 341.843 140 343.878 140 345.999ZM476.632 185.335C476.367 184.038 475.783 182.826 474.934 181.81C474.085 180.793 472.997 180.004 471.768 179.511L375.96 141.191C374.051 140.434 371.925 140.434 370.016 141.191L274.2 179.511C272.845 180.069 271.665 180.979 270.78 182.146C269.895 183.314 269.339 184.696 269.168 186.151C261.866 224.31 268.279 263.821 287.274 297.712C306.268 331.603 336.624 357.695 372.984 371.383C409.478 357.646 439.92 331.414 458.898 297.35C477.877 263.286 484.163 223.597 476.64 185.335H476.632ZM372.984 354.583C342.233 341.403 316.782 318.303 300.691 288.97C284.601 259.637 278.798 225.76 284.208 192.743L372.984 157.231L461.76 192.751C467.168 225.766 461.364 259.642 445.274 288.973C429.183 318.305 403.734 341.403 372.984 354.583Z" fill="#D68029"/>
</svg>
