<svg width="512" height="512" viewBox="0 0 512 512" fill="none" xmlns="http://www.w3.org/2000/svg">
<g clip-path="url(#clip0_3362_577)">
<path d="M469.333 34.1328H42.6667C31.3549 34.1464 20.5104 38.6459 12.5117 46.6446C4.51313 54.6432 0.0135497 65.4877 0 76.7995L0 384C0.0135497 395.311 4.51313 406.156 12.5117 414.154C20.5104 422.153 31.3549 426.653 42.6667 426.666H298.667V469.333C298.667 471.02 299.168 472.67 300.105 474.073C301.043 475.476 302.376 476.569 303.935 477.215C305.494 477.861 307.209 478.03 308.864 477.7C310.519 477.371 312.04 476.559 313.233 475.366L341.333 447.266L369.434 475.366C370.627 476.559 372.147 477.371 373.802 477.7C375.457 478.03 377.173 477.861 378.732 477.215C380.291 476.569 381.624 475.476 382.561 474.073C383.499 472.67 384 471.02 384 469.333V426.666H469.333C480.645 426.653 491.49 422.153 499.488 414.154C507.487 406.156 511.986 395.311 512 384V76.7995C511.986 65.4877 507.487 54.6432 499.488 46.6446C491.49 38.6459 480.645 34.1464 469.333 34.1328ZM275.712 201.087C275.062 200.788 274.492 200.338 274.048 199.776C273.605 199.213 273.301 198.554 273.161 197.851C273.021 197.149 273.05 196.424 273.244 195.734C273.438 195.045 273.793 194.411 274.278 193.885C277.961 189.883 280.005 184.643 280.005 179.204C280.005 173.765 277.961 168.525 274.278 164.522C273.791 163.995 273.436 163.361 273.241 162.67C273.046 161.979 273.018 161.252 273.159 160.549C273.3 159.845 273.605 159.185 274.051 158.622C274.496 158.059 275.068 157.61 275.721 157.311C280.651 155.017 284.541 150.956 286.62 145.931C288.7 140.906 288.818 135.283 286.95 130.175C286.702 129.503 286.616 128.782 286.7 128.07C286.784 127.359 287.035 126.677 287.433 126.081C287.831 125.485 288.364 124.992 288.989 124.642C289.614 124.291 290.313 124.094 291.029 124.066C296.465 123.837 301.616 121.576 305.463 117.729C309.31 113.882 311.571 108.731 311.799 103.295C311.827 102.578 312.025 101.878 312.376 101.252C312.726 100.626 313.221 100.092 313.818 99.6944C314.415 99.2964 315.098 99.0455 315.81 98.9625C316.523 98.8794 317.245 98.9665 317.918 99.2165C323.027 101.073 328.647 100.949 333.669 98.869C338.692 96.7889 342.753 92.9036 345.054 87.9781C345.351 87.3267 345.799 86.7551 346.361 86.3106C346.922 85.8661 347.582 85.5613 348.284 85.4213C348.986 85.2813 349.712 85.3102 350.401 85.5055C351.09 85.7007 351.723 86.0569 352.247 86.5446C360.55 94.1819 373.325 94.1819 381.619 86.5446C382.145 86.0572 382.779 85.7016 383.469 85.507C384.159 85.3123 384.886 85.2843 385.589 85.425C386.292 85.5658 386.952 85.8714 387.513 86.3167C388.075 86.7621 388.524 87.3344 388.821 87.9867C391.117 92.9139 395.177 96.801 400.2 98.8802C405.222 100.959 410.842 101.079 415.949 99.2165C416.621 98.9665 417.344 98.8794 418.056 98.9625C418.769 99.0455 419.452 99.2964 420.049 99.6944C420.646 100.092 421.14 100.626 421.491 101.252C421.842 101.878 422.039 102.578 422.067 103.295C422.298 108.738 424.566 113.895 428.421 117.744C432.276 121.593 437.437 123.852 442.88 124.074C443.596 124.101 444.295 124.297 444.92 124.647C445.545 124.996 446.079 125.488 446.477 126.084C446.875 126.679 447.126 127.36 447.21 128.072C447.294 128.783 447.208 129.504 446.959 130.175C445.09 135.284 445.208 140.908 447.29 145.934C449.371 150.959 453.264 155.02 458.197 157.311C458.848 157.611 459.418 158.061 459.861 158.623C460.304 159.186 460.608 159.845 460.748 160.547C460.888 161.25 460.86 161.975 460.665 162.665C460.471 163.354 460.117 163.988 459.631 164.514C455.948 168.516 453.904 173.756 453.904 179.195C453.904 184.634 455.948 189.874 459.631 193.877C460.118 194.404 460.474 195.038 460.668 195.729C460.863 196.42 460.891 197.147 460.75 197.85C460.61 198.554 460.304 199.214 459.859 199.777C459.414 200.34 458.841 200.789 458.189 201.087C453.258 203.382 449.368 207.443 447.289 212.468C445.209 217.493 445.092 223.116 446.959 228.223C447.207 228.896 447.293 229.617 447.209 230.329C447.125 231.04 446.874 231.722 446.476 232.318C446.079 232.914 445.545 233.407 444.92 233.757C444.295 234.108 443.596 234.305 442.88 234.333C437.43 234.552 432.262 236.815 428.406 240.672C424.549 244.529 422.286 249.696 422.067 255.146C422.039 255.863 421.842 256.563 421.491 257.189C421.14 257.815 420.646 258.349 420.049 258.747C419.452 259.145 418.769 259.396 418.056 259.479C417.344 259.562 416.621 259.475 415.949 259.225C410.84 257.367 405.219 257.49 400.196 259.57C395.173 261.65 391.112 265.537 388.813 270.463C388.527 271.121 388.084 271.697 387.523 272.144C386.962 272.59 386.3 272.892 385.596 273.023C384.892 273.171 384.163 273.146 383.471 272.951C382.778 272.757 382.143 272.398 381.619 271.906C377.614 268.224 372.373 266.181 366.933 266.181C361.494 266.181 356.252 268.224 352.247 271.906C351.723 272.397 351.088 272.756 350.396 272.95C349.704 273.145 348.975 273.17 348.271 273.023C347.565 272.892 346.903 272.59 346.34 272.144C345.778 271.698 345.334 271.121 345.045 270.463C342.751 265.535 338.691 261.647 333.668 259.567C328.645 257.488 323.024 257.369 317.918 259.234C317.245 259.484 316.523 259.571 315.81 259.488C315.098 259.405 314.415 259.154 313.818 258.756C313.221 258.358 312.726 257.824 312.376 257.198C312.025 256.572 311.827 255.872 311.799 255.155C311.581 249.703 309.319 244.533 305.462 240.674C301.606 236.814 296.438 234.548 290.987 234.325C290.271 234.298 289.572 234.102 288.947 233.752C288.322 233.403 287.788 232.911 287.39 232.315C286.992 231.72 286.741 231.039 286.657 230.327C286.573 229.616 286.659 228.895 286.908 228.223C288.779 223.12 288.668 217.5 286.594 212.475C284.521 207.45 280.638 203.386 275.712 201.087ZM369.442 360.891L366.933 363.4V283.187C368.077 283.187 369.178 283.613 370.014 284.39C372.507 286.731 375.526 288.438 378.817 289.368C382.108 290.297 385.574 290.422 388.924 289.732C392.27 289.078 395.411 287.633 398.084 285.515C400.756 283.398 402.882 280.671 404.284 277.563C404.766 276.526 405.621 275.707 406.678 275.271C407.736 274.835 408.919 274.812 409.993 275.208C412.587 276.13 415.334 276.539 418.091 276.428V363.4L398.524 343.833C396.924 342.233 394.753 341.335 392.491 341.335C390.228 341.335 388.058 342.233 386.458 343.833L369.442 360.891ZM366.933 448.733L347.366 429.166C345.766 427.567 343.596 426.668 341.333 426.668C339.071 426.668 336.901 427.567 335.3 429.166L315.733 448.733V276.411C318.49 276.522 321.237 276.113 323.831 275.191C324.903 274.793 326.084 274.813 327.141 275.248C328.198 275.683 329.051 276.501 329.532 277.538C330.937 280.654 333.071 283.386 335.753 285.505C338.435 287.624 341.587 289.068 344.943 289.715C346.564 290.039 348.211 290.176 349.867 290.133V384C349.867 385.687 350.368 387.336 351.305 388.739C352.243 390.142 353.576 391.236 355.135 391.882C356.694 392.527 358.409 392.696 360.064 392.367C361.719 392.038 363.24 391.226 364.433 390.033L366.933 387.532V448.733ZM494.933 384C494.933 390.789 492.236 397.3 487.435 402.101C482.634 406.902 476.123 409.599 469.333 409.599H384V370.466L392.533 361.932L420.634 390.033C421.827 391.226 423.347 392.038 425.002 392.367C426.658 392.696 428.373 392.527 429.932 391.882C431.491 391.236 432.824 390.142 433.761 388.739C434.699 387.336 435.2 385.687 435.2 384V267.153C437.589 263.807 438.946 259.848 439.117 255.743C439.167 254.602 439.644 253.52 440.453 252.713C441.262 251.906 442.344 251.431 443.486 251.383C446.896 251.251 450.227 250.314 453.205 248.647C456.184 246.98 458.725 244.632 460.62 241.793C462.516 238.955 463.712 235.709 464.111 232.319C464.511 228.929 464.101 225.494 462.916 222.293C462.523 221.222 462.547 220.042 462.984 218.988C463.42 217.933 464.237 217.081 465.271 216.601C468.374 215.176 471.095 213.035 473.211 210.355C475.326 207.675 476.777 204.532 477.443 201.183C478.109 197.834 477.972 194.375 477.043 191.089C476.114 187.803 474.419 184.784 472.098 182.28C471.325 181.439 470.895 180.338 470.895 179.195C470.895 178.053 471.325 176.951 472.098 176.11C474.419 173.607 476.114 170.589 477.043 167.304C477.972 164.019 478.109 160.56 477.443 157.212C476.777 153.863 475.326 150.721 473.211 148.041C471.095 145.362 468.374 143.222 465.271 141.798C464.234 141.321 463.414 140.47 462.976 139.415C462.538 138.36 462.513 137.178 462.908 136.106C464.092 132.905 464.502 129.47 464.103 126.08C463.704 122.69 462.507 119.444 460.612 116.605C458.716 113.767 456.175 111.419 453.197 109.752C450.219 108.085 446.888 107.148 443.477 107.016C442.335 106.968 441.253 106.493 440.444 105.686C439.635 104.879 439.159 103.797 439.108 102.655C438.981 99.2439 438.046 95.9112 436.382 92.9306C434.717 89.95 432.369 87.4066 429.531 85.5088C426.693 83.6111 423.446 82.4131 420.056 82.0131C416.665 81.6132 413.228 82.0227 410.027 83.208C408.956 83.6123 407.772 83.5948 406.714 83.1592C405.655 82.7235 404.802 81.9022 404.326 80.8613C402.901 77.7586 400.76 75.0378 398.08 72.9222C395.4 70.8065 392.257 69.3561 388.908 68.69C385.559 68.0239 382.1 68.161 378.814 69.09C375.528 70.019 372.51 71.7136 370.005 74.0347C369.166 74.8077 368.066 75.2367 366.925 75.2367C365.784 75.2367 364.684 74.8077 363.844 74.0347C361.341 71.7135 358.323 70.0189 355.038 69.0898C351.752 68.1608 348.294 68.0237 344.946 68.6899C341.597 69.356 338.454 70.8065 335.775 72.9222C333.096 75.038 330.956 77.7587 329.532 80.8613C329.054 81.903 328.2 82.7251 327.141 83.1621C326.081 83.5991 324.896 83.6185 323.823 83.2165C320.621 82.0312 317.184 81.6217 313.794 82.0217C310.404 82.4216 307.156 83.6196 304.318 85.5174C301.48 87.4151 299.133 89.9586 297.468 92.9391C295.803 95.9197 294.869 99.2524 294.741 102.664C294.691 103.806 294.214 104.887 293.405 105.695C292.596 106.502 291.514 106.977 290.372 107.025C286.962 107.156 283.631 108.094 280.653 109.76C277.675 111.427 275.134 113.776 273.238 116.614C271.342 119.452 270.146 122.699 269.747 126.088C269.348 129.478 269.757 132.914 270.942 136.115C271.335 137.186 271.311 138.366 270.874 139.42C270.438 140.474 269.622 141.326 268.587 141.806C265.484 143.232 262.763 145.372 260.647 148.053C258.532 150.733 257.081 153.876 256.415 157.225C255.749 160.574 255.886 164.033 256.815 167.319C257.744 170.604 259.439 173.623 261.76 176.127C262.534 176.969 262.963 178.07 262.963 179.212C262.963 180.355 262.534 181.456 261.76 182.297C259.439 184.801 257.744 187.819 256.815 191.104C255.886 194.389 255.749 197.847 256.415 201.196C257.081 204.544 258.532 207.687 260.648 210.366C262.763 213.046 265.484 215.185 268.587 216.61C269.625 217.087 270.444 217.938 270.882 218.993C271.32 220.048 271.345 221.229 270.95 222.301C269.766 225.502 269.356 228.938 269.755 232.328C270.154 235.717 271.351 238.964 273.246 241.802C275.142 244.64 277.683 246.989 280.661 248.656C283.64 250.322 286.97 251.26 290.381 251.391C292.745 251.494 294.647 253.388 294.75 255.752C294.921 259.848 296.286 263.807 298.667 267.153V409.599H42.6667C35.8771 409.599 29.3657 406.902 24.5647 402.101C19.7638 397.3 17.0667 390.789 17.0667 384V76.7995C17.0667 70.0099 19.7638 63.4985 24.5647 58.6975C29.3657 53.8966 35.8771 51.1995 42.6667 51.1995H469.333C476.123 51.1995 482.634 53.8966 487.435 58.6975C492.236 63.4985 494.933 70.0099 494.933 76.7995V384Z" fill="#D68029"/>
<path d="M93.8659 341.334C87.0763 341.334 80.5649 338.637 75.764 333.836C70.963 329.035 68.2659 322.523 68.2659 315.734V145.067C68.2659 138.278 70.963 131.766 75.764 126.965C80.5649 122.164 87.0763 119.467 93.8659 119.467H247.466C249.729 119.467 251.9 118.568 253.5 116.968C255.1 115.367 255.999 113.197 255.999 110.934C255.999 108.671 255.1 106.5 253.5 104.9C251.9 103.299 249.729 102.4 247.466 102.4H93.8659C82.5541 102.414 71.7096 106.914 63.711 114.912C55.7123 122.911 51.2128 133.755 51.1992 145.067V315.734C51.2128 327.045 55.7123 337.89 63.711 345.889C71.7096 353.887 82.5541 358.387 93.8659 358.4H255.999C258.262 358.4 260.433 357.501 262.033 355.901C263.634 354.301 264.533 352.13 264.533 349.867C264.533 347.604 263.634 345.433 262.033 343.833C260.433 342.233 258.262 341.334 255.999 341.334H93.8659Z" fill="#D68029"/>
<path d="M102.402 238.934H221.868C224.131 238.934 226.302 238.035 227.902 236.434C229.503 234.834 230.402 232.663 230.402 230.4C230.402 228.137 229.503 225.967 227.902 224.366C226.302 222.766 224.131 221.867 221.868 221.867H102.402C100.138 221.867 97.9679 222.766 96.3676 224.366C94.7673 225.967 93.8683 228.137 93.8683 230.4C93.8683 232.663 94.7673 234.834 96.3676 236.434C97.9679 238.035 100.138 238.934 102.402 238.934ZM102.402 204.8H221.868C224.131 204.8 226.302 203.901 227.902 202.301C229.503 200.701 230.402 198.53 230.402 196.267C230.402 194.004 229.503 191.833 227.902 190.233C226.302 188.633 224.131 187.734 221.868 187.734H102.402C100.138 187.734 97.9679 188.633 96.3676 190.233C94.7673 191.833 93.8683 194.004 93.8683 196.267C93.8683 198.53 94.7673 200.701 96.3676 202.301C97.9679 203.901 100.138 204.8 102.402 204.8ZM102.402 170.667H221.868C224.131 170.667 226.302 169.768 227.902 168.168C229.503 166.567 230.402 164.397 230.402 162.134C230.402 159.87 229.503 157.7 227.902 156.1C226.302 154.499 224.131 153.6 221.868 153.6H102.402C100.138 153.6 97.9679 154.499 96.3676 156.1C94.7673 157.7 93.8683 159.87 93.8683 162.134C93.8683 164.397 94.7673 166.567 96.3676 168.168C97.9679 169.768 100.138 170.667 102.402 170.667ZM94.5765 319.147C95.0244 320.175 95.6704 321.105 96.4777 321.883C97.285 322.661 98.2378 323.272 99.2815 323.682C100.325 324.092 101.439 324.292 102.56 324.27C103.682 324.249 104.787 324.007 105.815 323.559C113.715 320.624 120.976 316.194 127.199 310.511C129.51 308.206 131.53 305.627 133.215 302.831C136.475 306.501 140.298 309.607 144.556 312.047C150.487 315.921 157.868 316.869 164.584 314.607C167.161 313.609 169.491 312.064 171.411 310.085C175.276 312.5 179.526 314.215 183.98 315.162L190.431 316.689C203.598 320.546 217.277 322.356 230.999 322.065C232.117 321.985 233.208 321.685 234.21 321.182C235.211 320.68 236.105 319.985 236.838 319.138C237.571 318.29 238.131 317.307 238.484 316.243C238.837 315.18 238.977 314.057 238.897 312.939C238.816 311.821 238.516 310.73 238.014 309.728C237.511 308.726 236.816 307.833 235.969 307.1C235.122 306.367 234.138 305.807 233.074 305.454C232.011 305.101 230.888 304.961 229.77 305.041C217.798 305.195 205.877 303.531 194.408 300.092L187.812 298.53C179.85 296.696 177.802 293.487 176.957 291.226C176.238 289.305 174.851 287.708 173.05 286.726C171.249 285.745 169.155 285.445 167.151 285.881C165.147 286.317 163.367 287.461 162.137 289.102C160.907 290.743 160.31 292.773 160.454 294.818C160.501 295.57 160.35 296.321 160.016 296.997C159.682 297.672 159.177 298.248 158.551 298.667C156.557 298.92 154.542 298.401 152.919 297.216C146.018 292.92 140.828 286.354 138.242 278.648C137.531 276.728 136.154 275.127 134.362 274.138C132.57 273.149 130.482 272.837 128.479 273.259C126.476 273.681 124.691 274.809 123.451 276.438C122.21 278.066 121.596 280.086 121.721 282.129C121.792 285.149 121.243 288.152 120.107 290.951C118.97 293.75 117.272 296.286 115.116 298.402C110.378 302.546 104.908 305.77 98.9883 307.909C97.9603 308.356 97.0308 309.002 96.2526 309.81C95.4745 310.617 94.8631 311.57 94.4534 312.613C94.0437 313.657 93.8437 314.771 93.8648 315.892C93.8859 317.014 94.1278 318.119 94.5765 319.147ZM366.935 247.467C380.437 247.467 393.635 243.463 404.862 235.962C416.088 228.461 424.838 217.799 430.005 205.325C435.172 192.851 436.524 179.125 433.89 165.882C431.256 152.64 424.754 140.476 415.207 130.928C405.659 121.381 393.496 114.879 380.253 112.245C367.011 109.611 353.285 110.963 340.81 116.13C328.336 121.297 317.675 130.047 310.173 141.273C302.672 152.5 298.668 165.698 298.668 179.2C298.689 197.3 305.887 214.652 318.686 227.45C331.484 240.248 348.836 247.447 366.935 247.467ZM366.935 128C373.659 128 380.316 129.325 386.528 131.898C392.74 134.471 398.384 138.242 403.139 142.996C407.893 147.751 411.665 153.395 414.238 159.607C416.811 165.819 418.135 172.477 418.135 179.2C418.135 185.924 416.811 192.582 414.238 198.794C411.665 205.006 407.893 210.65 403.139 215.404C398.384 220.159 392.74 223.93 386.528 226.503C380.316 229.076 373.659 230.4 366.935 230.4C353.356 230.4 340.333 225.006 330.731 215.404C321.129 205.802 315.735 192.779 315.735 179.2C315.735 165.621 321.129 152.598 330.731 142.996C340.333 133.395 353.356 128 366.935 128Z" fill="#D68029"/>
</g>
<defs>
<clipPath id="clip0_3362_577">
<rect width="512" height="512" fill="white"/>
</clipPath>
</defs>
</svg>
