<svg xmlns="http://www.w3.org/2000/svg" width="454" height="395" viewBox="0 0 454 395" fill="none"><g clip-path="url(#clip0_2723_798)"><path d="M439.4 220.87C436.82 200.26 429.5 180.25 417.95 163.06C395.61 129.79 364.33 105.09 337.79 75.8405C313.29 48.8305 290.36 19.1805 255.71 6.33047C214.15 -9.08953 167.85 4.54047 138.02 38.0205C109.16 70.4105 94.6502 113.29 69.0602 148.2C48.2902 176.53 21.5602 205.55 20.7202 243.39C19.9502 278.16 39.5402 309.22 64.6202 330.27C104.85 364.04 155.33 375.08 205.52 379.1C272.81 384.49 352.05 379.87 403.58 328C430.82 300.57 444.31 260.21 439.4 220.88V220.87Z" fill="#DFE6EE"></path><path d="M262.2 211.21C262.22 207.43 261.83 203.68 261.56 199.91C261.29 196.3 260.94 192.71 260.51 189.11C260.05 185.37 259.66 181.65 259.11 177.92C258.56 174.19 257.95 170.46 257.29 166.74C256 159.49 254.57 152.28 252.89 145.11C251.49 139.1 249.4 132.63 244.46 128.57C239.82 124.76 233.71 124.52 228.44 127.23C222.76 130.16 219.28 135.92 216.89 141.63C214.17 148.13 212.32 154.99 211.24 161.95C210.16 168.89 209.55 175.89 209.08 182.89C208.62 189.79 207.91 196.74 207.82 203.65C207.72 210.74 207.66 217.83 207.79 224.93C207.91 231.83 208.52 238.7 209.28 245.56C210.03 252.3 211.11 259.11 212.89 265.66C214.7 272.34 216.7 278.93 219.33 285.34C220.34 287.79 221.39 290.63 222.79 293.23C223.49 294.88 224.49 296.28 225.72 297.43C226.78 298.57 228.01 299.51 229.45 300.15C231 300.84 232.68 301.11 234.3 300.85C239.55 301.04 244.58 298.14 248.12 294.42C252.67 289.65 254.68 283.44 256.25 277.18C258.04 270.04 259.39 262.87 260.3 255.57C261.22 248.17 261.87 240.79 262.19 233.33C262.5 225.96 262.19 218.6 262.22 211.23L262.2 211.21ZM258.43 240.66C257.98 247.61 257.33 254.56 256.3 261.45C255.31 268.11 254.59 274.92 252.67 281.4C250.98 287.1 248.21 292.82 243.37 296.49C239.01 299.79 233.2 300.49 228.33 297.92C227.81 297.65 227.31 297.34 226.82 297C224.88 294.82 223.71 292.04 222.62 289.36C220.21 283.46 218.25 277.37 216.69 271.19C213.56 258.79 211.92 245.96 211.22 233.21C210.51 220.11 210.84 207.03 211.49 193.94C211.81 187.46 212.28 181 212.71 174.52C213.15 167.88 213.84 161.28 215.12 154.74C215.76 151.47 216.4 148.34 217.5 145.18C218.56 142.14 219.82 139.16 221.49 136.4C224.66 131.19 229.93 126.65 236.37 126.9C242.65 127.15 246.88 132.67 248.77 138.14C249.83 141.2 250.41 144.4 251.02 147.57C251.67 150.96 252.28 154.35 252.9 157.75C255.39 171.52 257.02 185.45 258.05 199.4C258.56 206.26 258.86 213.16 258.96 220.04C259.06 226.9 258.86 233.8 258.42 240.64L258.43 240.66Z" fill="#4C5980"></path><path d="M247.87 189.13C244.68 187.1 241.3 185.42 237.97 183.64C234.77 181.94 231.55 180.32 228.28 178.77C224.88 177.16 221.52 175.5 218.07 173.98C214.62 172.45 211.14 170.98 207.65 169.55C200.83 166.77 193.97 164.13 187.01 161.72C181.18 159.7 174.59 158 168.52 160.02C162.81 161.91 159.35 166.95 158.84 172.85C158.28 179.22 161.3 185.23 164.85 190.3C168.9 196.07 173.71 201.3 179.01 205.93C184.3 210.55 189.89 214.8 195.56 218.93C201.15 223.01 206.64 227.31 212.44 231.09C218.39 234.96 224.34 238.8 230.41 242.48C236.31 246.06 242.44 249.22 248.64 252.23C254.74 255.2 261.07 257.91 267.56 259.91C274.17 261.95 280.81 263.77 287.63 264.97C290.24 265.43 293.21 266.06 296.15 266.25C297.92 266.54 299.64 266.44 301.26 266.02C302.79 265.73 304.24 265.2 305.56 264.32C306.97 263.38 308.1 262.11 308.74 260.59C311.7 256.25 311.93 250.45 310.68 245.48C309.07 239.08 304.9 234.07 300.44 229.4C295.36 224.07 290.02 219.11 284.33 214.44C278.56 209.71 272.67 205.22 266.53 200.97C260.46 196.77 254.08 193.1 247.86 189.14L247.87 189.13ZM270.76 208.04C276.4 212.13 281.93 216.39 287.2 220.94C292.3 225.34 297.68 229.58 302.13 234.66C306.04 239.13 309.41 244.53 309.92 250.58C310.38 256.03 307.87 261.31 303.1 264.06C302.59 264.35 302.06 264.61 301.52 264.84C298.64 265.31 295.66 264.82 292.82 264.32C286.54 263.2 280.35 261.62 274.29 259.64C262.13 255.67 250.41 250.21 239.25 243.98C227.8 237.59 216.91 230.32 206.19 222.78C200.88 219.05 195.67 215.21 190.42 211.38C185.04 207.46 179.83 203.35 174.98 198.79C172.56 196.51 170.25 194.29 168.17 191.67C166.17 189.15 164.32 186.49 162.88 183.61C160.17 178.15 159.14 171.27 162.79 165.96C166.35 160.78 173.28 160.15 178.92 161.48C182.07 162.22 185.09 163.43 188.1 164.61C191.31 165.87 194.51 167.16 197.71 168.46C210.69 173.7 223.33 179.77 235.68 186.34C241.75 189.57 247.75 193 253.62 196.59C259.47 200.17 265.2 204.02 270.75 208.04H270.76Z" fill="#4C5980"></path><path d="M203.62 200.96C197.49 205.21 191.59 209.7 185.82 214.43C180.13 219.1 174.79 224.07 169.71 229.39C165.25 234.06 161.08 239.07 159.47 245.47C158.22 250.45 158.45 256.24 161.41 260.58C162.05 262.09 163.17 263.36 164.59 264.31C165.9 265.19 167.36 265.72 168.89 266.01C170.51 266.44 172.24 266.53 174 266.24C176.94 266.04 179.91 265.42 182.52 264.96C189.34 263.76 195.98 261.93 202.59 259.9C209.08 257.9 215.41 255.19 221.51 252.22C227.71 249.21 233.85 246.04 239.74 242.47C245.81 238.79 251.77 234.95 257.71 231.08C263.51 227.3 269 223 274.59 218.92C280.26 214.79 285.85 210.53 291.14 205.92C296.44 201.29 301.26 196.07 305.3 190.29C308.85 185.22 311.87 179.21 311.31 172.84C310.79 166.94 307.33 161.91 301.63 160.01C295.55 158 288.97 159.69 283.14 161.71C276.18 164.12 269.32 166.76 262.5 169.54C259 170.97 255.53 172.44 252.08 173.97C248.63 175.49 245.27 177.15 241.87 178.76C238.6 180.31 235.38 181.93 232.18 183.63C228.85 185.41 225.47 187.09 222.28 189.12C216.06 193.08 209.68 196.75 203.61 200.95L203.62 200.96ZM216.54 196.59C222.41 193 228.41 189.57 234.48 186.34C246.83 179.77 259.47 173.7 272.45 168.46C275.65 167.17 278.85 165.87 282.06 164.61C285.07 163.44 288.09 162.22 291.24 161.48C296.88 160.15 303.81 160.78 307.37 165.96C311.02 171.27 310 178.15 307.28 183.61C305.85 186.5 303.99 189.16 301.99 191.67C299.91 194.29 297.6 196.5 295.18 198.79C290.33 203.36 285.12 207.46 279.74 211.38C274.5 215.2 269.28 219.04 263.97 222.78C253.25 230.32 242.36 237.58 230.91 243.98C219.75 250.21 208.03 255.67 195.87 259.64C189.81 261.62 183.62 263.21 177.34 264.32C174.5 264.83 171.52 265.32 168.64 264.84C168.1 264.61 167.57 264.35 167.06 264.06C162.29 261.31 159.79 256.03 160.24 250.58C160.75 244.53 164.12 239.13 168.03 234.66C172.48 229.58 177.85 225.34 182.96 220.94C188.24 216.39 193.77 212.13 199.4 208.04C204.95 204.01 210.68 200.16 216.53 196.59H216.54Z" fill="#4C5980"></path><path d="M308.7 235.28C308.71 235.13 308.73 234.98 308.72 234.83C308.72 234.76 308.73 234.7 308.72 234.62C308.65 234.1 308.58 233.59 308.51 233.07C308.36 232.59 308.16 232.13 307.92 231.68C307.62 231.28 307.32 230.89 307.01 230.5C306.28 229.78 305.43 229.28 304.44 229C303.91 228.91 303.37 228.82 302.83 228.78C302.81 228.78 302.79 228.78 302.77 228.78C302.22 228.81 301.68 228.9 301.14 229C301.12 229 301.1 229 301.08 229.01C300.57 229.17 300.08 229.4 299.59 229.64C299.57 229.64 299.56 229.66 299.54 229.67C299.11 229.97 298.69 230.3 298.29 230.64C298.29 230.64 298.28 230.65 298.27 230.66C297.95 231.07 297.63 231.49 297.31 231.9C297.1 232.39 296.9 232.87 296.69 233.36C296.62 233.9 296.54 234.44 296.47 234.99C296.54 235.53 296.62 236.07 296.69 236.62L297.31 238.08C297.63 238.49 297.95 238.91 298.27 239.32C298.68 239.64 299.1 239.96 299.51 240.28C300.21 240.73 300.97 240.97 301.79 241.01C302.33 241.16 302.87 241.16 303.42 241.01C303.97 241.01 304.49 240.87 304.96 240.59C305.48 240.44 305.93 240.18 306.31 239.8C306.77 239.53 307.14 239.16 307.41 238.7C307.79 238.32 308.05 237.87 308.2 237.35C308.48 236.87 308.62 236.36 308.62 235.81C308.64 235.75 308.63 235.68 308.65 235.62C308.67 235.52 308.68 235.41 308.69 235.3L308.7 235.28Z" fill="#7991D1"></path><path d="M168.95 187.49C168.96 187.38 168.97 187.27 168.96 187.16C168.96 187.11 168.96 187.07 168.96 187.01C168.91 186.64 168.86 186.27 168.81 185.89C168.7 185.54 168.56 185.21 168.39 184.89C168.18 184.6 167.96 184.32 167.73 184.04C167.21 183.52 166.59 183.16 165.88 182.96C165.5 182.89 165.11 182.83 164.72 182.8C164.71 182.8 164.69 182.8 164.68 182.8C164.29 182.82 163.89 182.89 163.5 182.96C163.49 182.96 163.47 182.96 163.46 182.96C163.09 183.08 162.74 183.24 162.39 183.41C162.38 183.41 162.37 183.42 162.36 183.43C162.05 183.64 161.75 183.88 161.46 184.13C161.46 184.13 161.45 184.13 161.44 184.14C161.21 184.44 160.98 184.74 160.75 185.03C160.6 185.38 160.45 185.73 160.31 186.08C160.26 186.47 160.2 186.86 160.15 187.25C160.2 187.64 160.25 188.03 160.31 188.42L160.75 189.47C160.98 189.77 161.21 190.07 161.44 190.36C161.74 190.59 162.04 190.82 162.33 191.05C162.84 191.37 163.38 191.55 163.97 191.57C164.36 191.67 164.75 191.67 165.14 191.57C165.54 191.57 165.91 191.47 166.25 191.27C166.62 191.17 166.95 190.98 167.22 190.7C167.55 190.5 167.82 190.24 168.01 189.91C168.28 189.63 168.47 189.31 168.58 188.94C168.78 188.6 168.88 188.22 168.88 187.83C168.89 187.78 168.88 187.74 168.9 187.69C168.91 187.62 168.92 187.54 168.93 187.46L168.95 187.49Z" fill="#7991D1"></path><path d="M251.18 214.9C251.22 214.51 251.25 214.11 251.23 213.71C251.23 213.52 251.26 213.37 251.25 213.17C251.07 211.82 250.89 210.48 250.71 209.13C250.32 207.88 249.81 206.67 249.18 205.5C248.41 204.46 247.62 203.43 246.8 202.42C244.9 200.54 242.67 199.23 240.09 198.51C238.7 198.26 237.31 198.05 235.9 197.95C235.85 197.95 235.8 197.95 235.74 197.95C234.31 198.04 232.9 198.27 231.49 198.52C231.44 198.52 231.39 198.54 231.35 198.55C230.01 198.97 228.73 199.58 227.47 200.19C227.43 200.21 227.39 200.23 227.35 200.26C226.22 201.03 225.15 201.9 224.09 202.78C224.07 202.8 224.05 202.81 224.03 202.83C223.2 203.91 222.37 204.98 221.53 206.06C220.99 207.33 220.46 208.6 219.92 209.87C219.73 211.28 219.54 212.7 219.35 214.11C219.54 215.52 219.73 216.94 219.92 218.35L221.53 222.16C222.36 223.24 223.19 224.31 224.03 225.39C225.11 226.22 226.18 227.05 227.26 227.89C229.09 229.06 231.07 229.69 233.19 229.78C234.6 230.16 236.02 230.16 237.43 229.78C238.87 229.78 240.21 229.41 241.46 228.69C242.81 228.31 243.99 227.63 244.98 226.64C246.18 225.93 247.13 224.98 247.84 223.78C248.83 222.78 249.51 221.61 249.89 220.26C250.61 219.02 250.97 217.67 250.98 216.23C251.03 216.06 251.01 215.9 251.05 215.73C251.1 215.47 251.13 215.18 251.16 214.89L251.18 214.9Z" fill="#7991D1"></path><path d="M257.09 284.02C257.1 283.91 257.11 283.8 257.1 283.68C257.1 283.63 257.1 283.58 257.1 283.53C257.05 283.15 257 282.77 256.95 282.38C256.84 282.02 256.69 281.68 256.52 281.35C256.3 281.05 256.08 280.76 255.85 280.48C255.31 279.95 254.68 279.58 253.95 279.37C253.56 279.3 253.16 279.24 252.76 279.21C252.75 279.21 252.73 279.21 252.72 279.21C252.32 279.23 251.91 279.3 251.51 279.37C251.5 279.37 251.48 279.37 251.47 279.37C251.09 279.49 250.73 279.66 250.37 279.83C250.36 279.83 250.35 279.84 250.34 279.85C250.02 280.07 249.71 280.32 249.42 280.56C249.42 280.56 249.41 280.56 249.4 280.57L248.69 281.49C248.54 281.85 248.39 282.21 248.23 282.57C248.18 282.97 248.12 283.37 248.07 283.77C248.12 284.17 248.18 284.57 248.23 284.97L248.69 286.05C248.93 286.36 249.16 286.66 249.4 286.97C249.71 287.21 250.01 287.44 250.32 287.68C250.84 288.01 251.4 288.19 252 288.22C252.4 288.33 252.8 288.33 253.2 288.22C253.61 288.22 253.99 288.12 254.34 287.91C254.72 287.8 255.06 287.61 255.34 287.33C255.68 287.13 255.95 286.86 256.15 286.52C256.43 286.24 256.62 285.9 256.73 285.52C256.93 285.17 257.04 284.79 257.04 284.38C257.05 284.33 257.04 284.29 257.06 284.24C257.07 284.17 257.08 284.08 257.09 284V284.02Z" fill="#7991D1"></path><path d="M224.97 141.35C224.99 141.17 225 141 224.99 140.82C224.99 140.73 225 140.67 225 140.58C224.92 139.98 224.84 139.38 224.76 138.78C224.59 138.22 224.36 137.68 224.08 137.16C223.73 136.7 223.38 136.24 223.02 135.79C222.17 134.95 221.18 134.37 220.03 134.04C219.41 133.93 218.79 133.84 218.16 133.79C218.14 133.79 218.11 133.79 218.09 133.79C217.45 133.83 216.82 133.93 216.19 134.04C216.17 134.04 216.15 134.04 216.13 134.06C215.53 134.25 214.96 134.52 214.4 134.79C214.38 134.79 214.36 134.81 214.35 134.82C213.84 135.17 213.37 135.55 212.89 135.94C212.89 135.94 212.87 135.96 212.86 135.96C212.49 136.44 212.12 136.92 211.75 137.4C211.51 137.97 211.27 138.53 211.03 139.1C210.95 139.73 210.86 140.36 210.78 140.99C210.86 141.62 210.95 142.25 211.03 142.88L211.75 144.58C212.12 145.06 212.49 145.54 212.86 146.02C213.34 146.39 213.82 146.76 214.3 147.13C215.12 147.65 216 147.93 216.95 147.98C217.58 148.15 218.21 148.15 218.84 147.98C219.48 147.98 220.08 147.82 220.64 147.49C221.24 147.32 221.77 147.02 222.21 146.57C222.75 146.25 223.17 145.83 223.49 145.29C223.93 144.85 224.24 144.32 224.41 143.72C224.73 143.16 224.89 142.56 224.9 141.92C224.92 141.85 224.91 141.77 224.93 141.7C224.95 141.58 224.97 141.45 224.98 141.33L224.97 141.35Z" fill="#7991D1"></path><path d="M123.31 72.2102C123.28 70.4402 123.24 68.6702 123.21 66.8902C123.21 66.7002 123.11 66.5502 122.99 66.4302C122.87 66.1402 122.56 65.8902 122.05 65.8202C119.73 65.4902 117.23 65.5802 114.87 65.5302C112.6 65.4802 110.33 65.4402 108.06 65.4002C103.26 65.3202 98.4599 65.2502 93.6599 65.1902C88.9499 65.1302 84.2299 65.0802 79.5199 65.0402C74.7299 65.0002 69.8799 64.8502 65.1199 65.1002C64.9599 65.1002 64.8399 65.1402 64.7099 65.1702C64.6999 65.1702 64.6799 65.1702 64.6699 65.1702C64.7199 77.1202 64.7299 89.0802 64.6999 101.03C64.8399 101.19 65.0599 101.31 65.3899 101.34C69.9899 101.8 74.7499 101.66 79.3899 101.69C84.2099 101.72 89.0299 101.72 93.8499 101.73C98.5799 101.74 103.32 101.76 108.05 101.77C110.42 101.77 112.78 101.77 115.15 101.78C117.52 101.78 120.06 101.94 122.39 101.69C122.46 101.69 122.51 101.66 122.57 101.64C122.77 101.62 122.96 101.56 123.1 101.48C123.2 95.9302 123.25 90.3702 123.2 84.8702C123.16 80.6202 123.23 76.4102 123.33 72.2002L123.31 72.2102Z" fill="#12203D"></path><path d="M75.32 85.0598C75.03 85.0598 74.74 85.0698 74.45 85.0798C74.42 85.0798 74.4 85.0998 74.37 85.1198C74.32 85.1398 74.28 85.2098 74.27 85.3098C74.22 85.7698 74.23 86.2598 74.22 86.7298C74.22 87.1798 74.2 87.6298 74.2 88.0698C74.19 89.0198 74.17 89.9598 74.16 90.9098C74.15 91.8398 74.14 92.7698 74.13 93.6998C74.13 94.6398 74.1 95.5998 74.13 96.5398C74.13 96.5698 74.13 96.5998 74.14 96.6198C76.09 96.6098 78.04 96.5998 79.99 96.6098C80.02 96.5798 80.04 96.5398 80.04 96.4698C80.12 95.5598 80.09 94.6198 80.1 93.7098C80.1 92.7598 80.1 91.8098 80.1 90.8598C80.1 89.9298 80.1 88.9898 80.1 88.0598C80.1 87.5898 80.1 87.1298 80.1 86.6598C80.1 86.1898 80.13 85.6898 80.09 85.2298C80.09 85.2198 80.09 85.2098 80.09 85.1898C80.09 85.1498 80.08 85.1098 80.06 85.0898C79.15 85.0698 78.25 85.0598 77.35 85.0698C76.66 85.0698 75.97 85.0698 75.28 85.0498L75.32 85.0598Z" fill="white"></path><path d="M86.2798 78.1106C85.9898 78.1206 85.6998 78.1306 85.4098 78.1506C85.3798 78.1506 85.3598 78.1806 85.3298 78.2206C85.2798 78.2606 85.2398 78.3606 85.2298 78.5206C85.1698 79.2506 85.1898 80.0406 85.1798 80.7906C85.1798 81.5106 85.1598 82.2206 85.1498 82.9406C85.1298 84.4506 85.1198 85.9706 85.0998 87.4806C85.0898 88.9706 85.0698 90.4506 85.0598 91.9406C85.0598 93.4506 85.0198 94.9806 85.0598 96.4806C85.0598 96.5306 85.0598 96.5706 85.0698 96.6106C85.0698 96.6106 85.0698 96.6106 85.0698 96.6206C87.0198 96.6006 88.9698 96.5806 90.9198 96.5806C90.9498 96.5406 90.9698 96.4706 90.9698 96.3606C91.0498 94.9106 91.0298 93.4106 91.0398 91.9406C91.0398 90.4206 91.0498 88.9006 91.0598 87.3806C91.0598 85.8906 91.0698 84.3906 91.0798 82.9006C91.0798 82.1506 91.0798 81.4106 91.0798 80.6606C91.0798 79.9106 91.1098 79.1106 91.0798 78.3806C91.0798 78.3606 91.0798 78.3406 91.0798 78.3206C91.0798 78.2606 91.0698 78.2006 91.0498 78.1506C90.1398 78.1206 89.2398 78.1106 88.3398 78.1306C87.6498 78.1506 86.9598 78.1306 86.2698 78.1006L86.2798 78.1106Z" fill="white"></path><path d="M97.2297 73.7402C96.9397 73.7602 96.6497 73.7702 96.3597 73.7902C96.3297 73.7902 96.3097 73.8302 96.2797 73.8802C96.2297 73.9302 96.1897 74.0502 96.1797 74.2502C96.1197 75.1502 96.1397 76.1302 96.1197 77.0502C96.1097 77.9302 96.0997 78.8202 96.0897 79.7002C96.0697 81.5702 96.0497 83.4402 96.0397 85.3202C96.0197 87.1602 96.0097 89.0002 95.9997 90.8302C95.9897 92.7002 95.9597 94.5902 95.9997 96.4502C95.9997 96.5102 95.9997 96.5602 96.0097 96.6102C96.0097 96.6102 96.0097 96.6202 96.0097 96.6302C97.9597 96.6002 99.9097 96.5802 101.86 96.5802C101.89 96.5302 101.91 96.4402 101.91 96.3102C101.99 94.5202 101.97 92.6602 101.98 90.8502C101.99 88.9702 102 87.0902 102 85.2102C102 83.3602 102.02 81.5202 102.02 79.6702C102.02 78.7502 102.02 77.8202 102.03 76.9002C102.03 75.9702 102.06 74.9902 102.03 74.0802C102.03 74.0502 102.03 74.0302 102.03 74.0102C102.03 73.9302 102.02 73.8602 102 73.8002C101.09 73.7702 100.19 73.7502 99.2897 73.7802C98.5997 73.8002 97.9097 73.7802 97.2197 73.7502L97.2297 73.7402Z" fill="#FFD075"></path><path d="M108.13 80.6904C107.84 80.7004 107.55 80.7104 107.26 80.7204C107.23 80.7204 107.21 80.7504 107.18 80.7804C107.13 80.8104 107.09 80.9004 107.08 81.0404C107.03 81.6704 107.04 82.3504 107.03 82.9904C107.03 83.6104 107.01 84.2204 107.01 84.8404C106.99 86.1404 106.98 87.4404 106.97 88.7504C106.96 90.0304 106.95 91.3104 106.94 92.5904C106.94 93.8904 106.9 95.2004 106.94 96.5004C106.94 96.5404 106.94 96.5804 106.95 96.6104C106.95 96.6104 106.95 96.6104 106.95 96.6204C108.9 96.6004 110.85 96.5904 112.8 96.5904C112.83 96.5504 112.85 96.4904 112.85 96.4004C112.93 95.1504 112.91 93.8604 112.91 92.6004C112.91 91.2904 112.91 89.9904 112.92 88.6804C112.92 87.4004 112.92 86.1104 112.93 84.8304C112.93 84.1904 112.93 83.5504 112.93 82.9004C112.93 82.2604 112.96 81.5704 112.92 80.9404C112.92 80.9204 112.92 80.9104 112.92 80.8904C112.92 80.8404 112.91 80.7904 112.89 80.7504C111.98 80.7304 111.08 80.7104 110.18 80.7304C109.49 80.7404 108.8 80.7304 108.11 80.7004L108.13 80.6904Z" fill="white"></path><path d="M453.61 273.08C453.58 270.56 453.55 268.03 453.51 265.51C453.51 265.24 453.41 265.03 453.28 264.85C453.16 264.45 452.83 264.1 452.3 264.01C449.89 263.61 447.28 263.8 444.82 263.8C442.46 263.8 440.09 263.8 437.73 263.8C432.73 263.82 427.73 263.85 422.73 263.89C417.82 263.93 412.91 263.99 408 264.06C403.01 264.14 397.96 264.06 393 264.55C392.84 264.57 392.7 264.61 392.57 264.66C392.55 264.66 392.54 264.66 392.52 264.66C392.55 281.67 392.54 298.71 392.48 315.74C392.63 315.96 392.85 316.13 393.2 316.16C397.99 316.69 402.95 316.36 407.78 316.27C412.8 316.18 417.82 316.04 422.84 315.93C427.77 315.82 432.7 315.71 437.63 315.59C440.09 315.53 442.56 315.47 445.02 315.41C447.49 315.35 450.13 315.51 452.56 315.08C452.63 315.07 452.69 315.03 452.75 315.01C452.96 314.97 453.15 314.89 453.3 314.76C453.41 306.85 453.48 298.93 453.44 291.1C453.41 285.05 453.49 279.05 453.6 273.05L453.61 273.08Z" fill="#D68029"></path><path d="M198.17 122.24C198.14 120.47 198.12 118.7 198.09 116.92C198.09 116.73 198.01 116.58 197.9 116.46C197.8 116.17 197.54 115.92 197.11 115.85C195.16 115.52 193.06 115.62 191.08 115.57C189.17 115.52 187.27 115.49 185.36 115.45C181.33 115.37 177.3 115.31 173.27 115.25C169.31 115.19 165.35 115.15 161.4 115.11C157.38 115.08 153.31 114.93 149.3 115.19C149.17 115.19 149.06 115.23 148.96 115.26C148.95 115.26 148.94 115.26 148.92 115.26C148.95 127.21 148.95 139.17 148.92 151.12C149.04 151.28 149.22 151.4 149.5 151.43C153.36 151.89 157.36 151.74 161.25 151.77C165.3 151.8 169.35 151.79 173.4 151.8C177.37 151.8 181.35 151.82 185.32 151.83C187.31 151.83 189.29 151.83 191.28 151.83C193.27 151.83 195.4 151.99 197.36 151.73C197.42 151.73 197.46 151.7 197.51 151.68C197.68 151.66 197.83 151.6 197.96 151.51C198.05 145.96 198.1 140.4 198.06 134.9C198.03 130.65 198.1 126.44 198.18 122.23L198.17 122.24Z" fill="#EBA7DC"></path><path d="M138.07 147.52C138.06 146.53 138.04 145.55 138.02 144.56C138.02 144.46 137.97 144.37 137.92 144.3C137.86 144.14 137.72 144 137.48 143.96C136.4 143.78 135.23 143.83 134.13 143.8C133.07 143.77 132.01 143.75 130.95 143.73C128.71 143.69 126.47 143.65 124.22 143.62C122.02 143.59 119.82 143.56 117.62 143.54C115.38 143.52 113.12 143.44 110.89 143.58C110.82 143.58 110.76 143.6 110.7 143.62C110.7 143.62 110.69 143.62 110.68 143.62C110.7 150.26 110.7 156.91 110.68 163.56C110.75 163.65 110.85 163.71 111 163.73C113.15 163.98 115.37 163.9 117.54 163.92C119.79 163.93 122.04 163.93 124.29 163.94C126.5 163.94 128.71 163.95 130.92 163.95C132.03 163.95 133.13 163.95 134.24 163.95C135.35 163.95 136.53 164.04 137.62 163.9C137.65 163.9 137.68 163.88 137.71 163.87C137.8 163.86 137.89 163.83 137.96 163.78C138.01 160.69 138.04 157.6 138.02 154.54C138 152.18 138.04 149.83 138.08 147.49L138.07 147.52Z" fill="#BFCAD4"></path><path d="M72.7198 358.91C71.8498 359.34 63.4298 361.62 63.1398 362.59C62.8498 363.56 63.8198 369.17 66.1398 372.95C68.4598 376.73 70.2998 377.6 72.2398 379.73C74.1798 381.86 76.1098 384.28 77.0798 386.02C78.0498 387.76 79.3098 389.7 80.5598 389.5C81.8198 389.31 85.2998 386.21 84.8198 384.56C84.3398 382.91 82.3998 379.53 81.7198 377.01C81.0398 374.49 80.1698 371.01 79.3998 369.07C78.6298 367.13 76.7898 363.17 75.7198 361.71C74.6598 360.26 73.1098 358.71 72.7198 358.9V358.91Z" fill="#A1B0BA"></path><path d="M82.66 378.709C81.48 379.339 81.12 379.439 80.48 381.069C79.85 382.699 79.48 385.419 79.48 387.419C79.48 389.419 79.39 391.949 79.84 392.409C80.29 392.859 80.57 392.859 81.47 392.949C82.38 393.039 86.09 393.579 89.72 393.219C93.35 392.859 99.24 392.219 101.96 392.399C104.68 392.579 112.48 393.399 114.29 393.489C116.1 393.579 119.19 393.669 119.91 393.129C120.64 392.589 120.82 391.859 120.82 391.859C120.82 391.859 121.55 389.499 120.19 387.509C118.83 385.519 119.1 384.249 115.66 383.429C112.22 382.609 111.04 382.339 108.5 381.889C105.96 381.439 97.8 377.269 95.99 376.719C94.18 376.179 82.66 378.709 82.66 378.709Z" fill="#BFCAD4"></path><path d="M77.2199 369.05C74.8399 367.06 74.2399 364.48 72.6499 362.69C71.0599 360.9 70.8599 359.51 70.8599 358.52C70.8599 357.53 78.6099 349.58 81.3899 345.01C84.1699 340.44 98.0799 312.62 98.0799 308.44C98.0799 304.26 90.5299 246.84 91.3199 246.24C92.1099 245.64 98.0799 245.64 100.26 245.45C102.45 245.25 110.59 243.86 111.19 245.45C111.79 247.04 115.56 274.46 116.56 279.03C117.55 283.6 120.93 308.04 120.93 309.24C120.93 310.44 120.73 310.83 119.94 312.82C119.15 314.81 116.96 316.79 114.38 320.37C111.8 323.95 109.81 327.52 107.03 330.5C104.25 333.48 101.07 338.65 96.6999 344.41C92.3299 350.17 80.0099 367.06 80.0099 367.06C80.0099 367.06 77.7799 369.51 77.2299 369.05H77.2199Z" fill="#313B59"></path><path d="M81.7897 380.97C80.7197 380.88 81.1897 378.59 80.9997 377.19C80.9997 377.19 81.5997 372.62 81.5997 364.47C81.5997 356.32 81.1997 343.01 80.9997 336.65C80.7997 330.29 81.5997 316.18 80.5997 311.61C79.5997 307.04 73.0497 282.99 71.8597 277.23C70.6697 271.47 69.8697 262.33 70.0697 256.76C70.2697 251.2 71.2597 246.43 71.6597 245.83C72.0597 245.23 79.8097 245.63 82.5897 245.63C85.3697 245.63 98.0897 245.43 98.8897 246.03C99.6797 246.63 100.28 266.1 100.48 269.48C100.68 272.86 102.07 301.67 102.07 303.86C102.07 306.05 101.87 308.83 101.87 311.81C101.87 314.79 98.4897 345.79 98.4897 349.37C98.4897 352.95 97.4997 376.79 97.0997 377.79C96.6997 378.78 88.7497 381.57 81.7997 380.97H81.7897Z" fill="#313B59"></path><path d="M102.7 310.419C102.89 306.379 102.51 302.229 102.41 298.189C102.3 293.869 102.17 289.549 102.02 285.229C101.87 280.999 101.7 276.759 101.5 272.529C101.3 268.139 101.22 263.699 100.76 259.329C100.71 258.849 99.9798 258.819 99.9898 259.329C100.04 263.639 100.42 267.969 100.62 272.269C100.82 276.589 101.01 280.899 101.17 285.219C101.33 289.449 101.46 293.689 101.58 297.919C101.69 302.079 101.92 310.529 101.92 310.609C101.03 319.509 100.07 328.429 99.5498 337.369C99.5498 337.539 99.8298 337.589 99.8598 337.409C101.07 328.519 102.81 310.459 102.71 310.409L102.7 310.419Z" fill="#7991D1"></path><path d="M81.6996 354.999C81.6896 353.639 81.6796 352.269 81.6896 350.909C81.6896 349.509 81.8496 348.049 81.7396 346.659C81.7196 346.399 81.2796 346.289 81.2396 346.589C81.0596 347.899 81.1496 349.269 81.1196 350.579C81.0896 351.999 81.0796 353.419 81.0796 354.839C81.0796 357.669 81.0596 360.519 81.2796 363.349C81.3096 363.719 81.8596 363.729 81.8596 363.349C81.8596 360.569 81.7296 357.789 81.6996 355.009V354.999Z" fill="#7991D1"></path><path d="M152.23 155.019C152.23 155.019 153.62 150.449 154.22 148.159C154.82 145.869 155.11 144.779 156.11 144.279C157.11 143.779 158.3 143.679 160.38 143.679C162.46 143.679 163.76 143.779 163.76 143.779C163.76 143.779 171.41 137.819 172.11 137.819C172.81 137.819 173.2 137.919 173.2 138.709C173.2 139.499 166.44 145.469 166.34 146.159C166.24 146.859 167.13 152.619 166.44 153.509C165.74 154.399 161.57 156.589 160.68 157.289C159.79 157.989 158.79 159.379 158.49 159.379C158.19 159.379 154.42 157.989 153.42 157.089C152.43 156.199 152.13 155.899 152.23 154.999V155.019Z" fill="white"></path><path d="M96.89 169.13C96.31 168.07 96.69 167.34 97.29 166.35C97.89 165.36 98.28 164.36 100.27 164.56C102.26 164.76 102.85 164.96 105.64 166.15C108.42 167.34 132.67 179.07 133.86 179.27C135.05 179.47 150.75 155.22 151.55 154.83C152.34 154.43 151.95 154.04 153.34 154.63C154.73 155.23 158.9 158.41 158.9 159.6C158.9 160.79 154.33 169.73 152.54 172.91C150.75 176.09 140.82 193.78 137.44 194.17C134.06 194.57 112.2 189.8 109.42 187.61C106.64 185.42 98.09 171.31 96.9 169.13H96.89Z" fill="#D68029"></path><path d="M71.6502 245.839C70.2902 245.499 71.2502 244.849 71.0502 243.259C70.8502 241.669 70.6502 241.869 71.0502 236.699C71.4502 231.529 72.0402 223.189 71.8402 219.809C71.6402 216.429 70.8502 211.859 70.6502 206.689C70.4502 201.519 67.4702 188.609 66.6802 184.829C65.8902 181.049 65.6902 172.109 66.2802 169.529C66.8702 166.949 70.6502 163.969 74.0302 162.569C77.4102 161.179 87.5402 160.779 89.9302 160.979C92.3102 161.179 93.9002 161.379 97.2802 162.569C100.66 163.759 101.06 163.759 102.84 165.749C104.63 167.739 107.01 173.299 108.8 177.469C110.59 181.639 114.17 191.779 114.56 193.369C114.96 194.959 115.35 195.749 114.76 197.539C114.16 199.329 110.19 206.279 108.2 211.849C106.21 217.409 106.01 217.809 106.81 223.179C107.61 228.549 110.19 238.879 110.78 240.869C111.38 242.859 112.17 245.039 111.18 245.439C110.19 245.839 107.4 245.839 107.4 245.839C107.4 245.839 101.84 245.239 95.8702 246.239C89.9102 247.229 74.8102 246.639 71.6302 245.839H71.6502Z" fill="#D68029"></path><path d="M94.6803 205.589C92.6803 206.729 90.7903 208.039 88.7403 209.109C87.7003 209.649 86.6303 210.139 85.5303 210.569C84.4803 210.979 83.4203 211.309 82.4203 211.839C82.2803 211.919 82.3403 212.169 82.5003 212.149C83.6703 212.059 84.7303 211.659 85.8203 211.229C86.9103 210.799 87.9703 210.329 89.0203 209.799C91.0903 208.749 93.2303 207.469 94.8303 205.779C94.9203 205.679 94.8003 205.519 94.6803 205.589Z" fill="#12203D"></path><path d="M71.0602 257.269C71.0602 257.269 70.0702 264.919 70.1702 266.109C70.2702 267.299 70.2702 267.599 70.8702 268.989C71.4702 270.379 74.3502 276.339 75.3402 276.939C76.3302 277.539 78.0202 277.729 79.4102 277.729C80.8002 277.729 82.4902 277.029 82.6902 275.939C82.8902 274.849 81.9902 271.269 81.6002 269.479C81.2002 267.689 80.2102 264.209 80.5102 264.209C80.8102 264.209 82.3002 267.189 82.4002 267.689C82.5002 268.189 82.8002 269.979 83.1902 270.669C83.5902 271.369 84.0802 271.559 84.5802 271.369C85.0802 271.169 85.2802 268.389 85.2802 266.999C85.2802 265.609 85.5802 264.319 84.5802 262.929C83.5902 261.539 79.9102 254.779 79.4102 254.289C78.9102 253.799 74.1402 255.379 73.0502 255.979C71.9602 256.579 71.0602 256.279 71.0602 257.269Z" fill="white"></path><path d="M69.86 166.15C68.35 166.7 66.68 167.14 66.48 168.34C66.28 169.53 61.31 186.42 60.12 191.39C58.93 196.36 57.54 218.22 57.74 221.6C57.94 224.98 69.07 255.58 70.06 256.77C71.05 257.96 72.64 257.56 74.83 256.97C77.02 256.37 80.69 255.68 79.8 253.19C79.5 252.35 76.42 237.29 76.02 235.11C75.62 232.92 73.24 221.99 73.04 219.61C72.84 217.23 76.42 198.35 77.21 191.79C78 185.23 77.61 176.69 76.81 172.91C76.02 169.13 72.04 165.36 69.85 166.15H69.86Z" fill="#D68029"></path><path d="M75.7902 232.23C74.9802 228.05 74.4002 223.73 73.3102 219.62C73.3402 219.57 73.3602 219.52 73.3802 219.45C74.1202 215.16 74.7402 210.85 75.4302 206.55C76.0902 202.41 77.0302 198.21 77.3902 194.04C77.4302 193.59 76.7102 193.5 76.6102 193.93C75.6402 198.05 75.2202 202.38 74.5602 206.57C73.8902 210.79 73.1502 214.99 72.5302 219.21C72.5102 219.32 72.5402 219.42 72.5902 219.5C73.1102 223.66 74.2002 227.82 75.0202 231.93C75.8602 236.16 76.4502 240.58 77.7502 244.7C77.8002 244.85 78.0502 244.83 78.0302 244.66C77.6902 240.5 76.6102 236.33 75.8102 232.23H75.7902Z" fill="#12203D"></path><path d="M78.0099 181.429C77.9699 180.889 77.9399 180.329 77.8499 179.789C77.8099 179.529 77.7299 179.119 77.3699 179.119C76.6099 179.119 77.0699 180.769 77.1099 181.189C77.2199 182.359 77.2899 183.529 77.3099 184.709C77.3299 185.879 77.3099 187.059 77.2699 188.229C77.2599 188.779 77.2299 189.319 77.1999 189.869C77.1699 190.359 77.0299 190.889 77.2799 191.329C77.3199 191.399 77.4199 191.409 77.4699 191.349C77.7899 191.009 77.7799 190.539 77.8399 190.099C77.9099 189.549 77.9699 189.009 78.0199 188.459C78.1299 187.289 78.1599 186.119 78.1499 184.939C78.1499 183.769 78.0899 182.589 77.9999 181.419L78.0099 181.429Z" fill="#12203D"></path><path d="M109.44 177.659C108.74 176.069 108.02 174.489 107.26 172.929C106.49 171.349 105.78 169.579 104.75 168.159C104.55 167.889 104.02 168.039 104.16 168.409C104.75 169.979 105.72 171.469 106.46 172.979C107.2 174.489 107.91 176.009 108.59 177.539C110.03 180.809 111.32 184.129 112.59 187.459C112.7 187.759 113.17 187.639 113.08 187.329C112.07 184.039 110.83 180.809 109.45 177.659H109.44Z" fill="#12203D"></path><path d="M90.7297 158.3C90.7297 158.3 90.1297 160.29 90.2297 161.48C90.3297 162.67 91.4197 164.76 91.5197 165.95C91.6197 167.14 91.7197 169.03 89.1397 170.52C86.5597 172.01 80.3997 172.11 77.6097 169.33C74.8297 166.55 77.5097 158.2 77.5097 158.2C77.5097 158.2 81.8797 153.53 85.2597 153.93C88.6397 154.33 90.7197 158.3 90.7197 158.3H90.7297Z" fill="white"></path><path d="M100.76 130.98C101.16 132.07 102.05 134.86 101.85 136.05C101.65 137.24 100.56 139.73 100.96 140.92C101.36 142.11 103.64 144.99 103.44 146.38C103.24 147.77 101.85 151.35 100.16 154.83C98.47 158.31 95.69 161.49 94.2 161.29C92.71 161.09 87.74 158.91 87.74 158.91C85.65 158.12 82.77 156.92 81.98 155.03C81.19 153.14 81.68 140.62 81.68 140.62C81.68 140.62 84.86 132.77 87.05 131.18C89.24 129.59 89.24 128.4 93.11 128.8C96.99 129.2 100.76 130.99 100.76 130.99V130.98Z" fill="white"></path><path d="M87.8798 131.9C88.5398 132.43 89.4698 134.55 89.7298 135.08C89.9998 135.61 89.9998 135.74 90.6598 135.74C91.3198 135.74 95.8298 134.55 97.5498 134.02C99.2698 133.49 102.58 133.62 102.72 132.96C102.85 132.3 103.12 132.43 102.85 131.5C102.59 130.57 102.32 124.88 100.47 122.09C98.6198 119.31 98.7498 118.51 94.5098 117.19C90.2698 115.87 87.2198 116.4 87.2198 116.4C87.2198 116.4 80.5998 114.81 76.6198 115.61C72.6498 116.4 66.8198 120.38 64.2998 125.41C61.7798 130.44 60.4598 135.35 60.4598 137.73C60.4598 140.11 59.5298 142.63 59.5298 142.63C59.5298 142.63 52.9098 154.42 51.1798 159.19C49.4598 163.96 48.1298 181.71 48.7998 186.08C49.4698 190.45 50.9198 200.12 52.7698 203.57C54.6198 207.01 57.1398 213.51 57.6698 212.98C58.1998 212.45 58.3298 212.58 58.3298 211.66C58.3298 210.74 60.4498 199.6 64.0298 194.7C67.6098 189.8 72.7698 185.69 73.9698 184.37C75.1598 183.05 76.3798 182.6 77.1098 181.19C77.8398 179.78 78.5998 178.67 78.8698 173.9C79.1298 169.13 80.1898 163.7 81.1198 161.58C82.0498 159.46 83.3698 154.43 83.6398 151.78C83.8998 149.13 84.6998 142.24 84.6998 142.24C84.6998 142.24 85.2298 137.74 85.8898 135.75C86.5498 133.76 87.8798 131.91 87.8798 131.91V131.9Z" fill="#4C5980"></path><path d="M86.6898 132.04C87.2098 134.13 85.7598 138 85.6298 139.99C85.4998 141.98 86.8198 151.12 87.2198 152.84C87.6198 154.56 87.7498 154.96 87.2198 154.43C86.6898 153.9 85.6298 151.52 84.8398 149C84.0498 146.48 83.5198 144.63 83.2498 142.11C82.9798 139.59 81.7898 139.33 83.3798 135.75C84.9698 132.17 86.4298 130.98 86.6898 132.04Z" fill="#4C5980"></path><path d="M52.2398 181.54C52.2398 178.72 52.4398 175.91 52.8298 173.12C53.0298 171.71 53.2798 170.31 53.5798 168.92C53.8498 167.67 54.2798 166.42 54.3798 165.14C54.3998 164.92 54.0498 164.83 53.9498 165.02C52.7398 167.4 52.4598 170.55 52.0998 173.16C51.7198 175.94 51.5198 178.73 51.5098 181.54C51.5098 187.25 52.1998 193.04 54.0598 198.46C54.1398 198.68 54.4598 198.59 54.4098 198.36C53.1498 192.82 52.2298 187.24 52.2298 181.54H52.2398Z" fill="#313B59"></path><path d="M56.5199 173.64C56.1299 174.21 56.0799 174.99 55.9699 175.66C55.8499 176.36 55.7599 177.06 55.6999 177.77C55.5799 179.17 55.5199 180.64 55.8299 182.02C55.8699 182.18 56.0799 182.12 56.0899 181.98C56.2399 180.61 56.2199 179.22 56.3599 177.84C56.4299 177.14 56.5299 176.45 56.6499 175.76C56.7699 175.11 57.0299 174.42 56.9599 173.76C56.9299 173.52 56.6499 173.43 56.5099 173.64H56.5199Z" fill="#313B59"></path><path d="M80.2999 148.85C79.5299 151.06 79.1099 153.42 78.5599 155.69L76.9099 162.56C75.8099 167.14 74.7399 171.73 73.7099 176.32C73.6499 176.58 74.0399 176.68 74.0999 176.43C75.2699 171.87 76.4099 167.3 77.5099 162.73C78.0599 160.44 78.6099 158.15 79.1599 155.86C79.7099 153.59 80.4099 151.29 80.7299 148.97C80.7699 148.68 80.3899 148.56 80.2899 148.85H80.2999Z" fill="#313B59"></path><path d="M418.56 376.999C419.06 375.839 417.77 372.099 416.97 371.969C416.18 371.839 403.32 374.879 403.19 376.209C403.06 377.539 402.13 377.669 404.78 377.929C407.43 378.189 418.16 377.929 418.56 376.999Z" fill="white"></path><path d="M402.39 376.599C401.32 376.959 403.32 377.129 400.01 378.589C396.7 380.049 391 380.839 387.56 382.029C384.12 383.219 381.73 385.079 380.94 387.059C380.15 389.049 379.48 390.369 380.68 391.169C381.87 391.959 386.77 392.359 391.01 392.359C395.25 392.359 400.28 391.169 403.86 391.169C407.44 391.169 413.8 390.909 415.65 391.039C417.5 391.169 419.76 391.569 420.15 390.639C420.55 389.709 420.41 385.209 420.15 383.489C419.89 381.769 420.02 376.599 418.56 376.469C417.1 376.339 417.1 376.599 412.47 376.729C407.83 376.859 402.8 376.469 402.4 376.599H402.39Z" fill="#A1B0BA"></path><path d="M355.63 374.479C354.44 375.539 355.63 376.199 353.38 377.659C351.13 379.119 341.99 381.769 338.81 382.959C335.63 384.149 333.78 386.399 332.85 388.129C331.92 389.849 331.66 391.309 332.32 391.839C332.98 392.369 338.94 393.299 343.71 393.159C348.48 393.029 356.3 392.229 359.21 392.099C362.12 391.969 369.15 392.229 370.6 392.099C372.06 391.969 372.32 391.839 372.85 391.309C373.38 390.779 374.17 390.119 373.64 387.199C373.11 384.289 372.45 377.659 371.26 376.599C370.07 375.539 359.87 375.009 358.41 374.879C356.95 374.749 355.63 374.479 355.63 374.479Z" fill="#A1B0BA"></path><path d="M355.1 224.239C353.84 225.499 352.72 225.029 352.45 227.149C352.19 229.269 352.98 293.389 352.98 297.629C352.98 301.869 353.24 373.669 354.57 374.729C355.89 375.789 361.46 375.789 363.58 376.049C365.7 376.309 370.2 378.169 371.26 376.579C372.32 374.989 372.76 367.789 372.85 364.129C372.94 360.469 373.38 303.189 373.64 299.739C373.9 296.299 376.29 290.199 377.61 282.519C378.93 274.839 385.82 244.899 386.62 239.599C387.41 234.299 383.97 226.619 383.97 226.619C383.97 226.619 370.99 223.439 367.81 223.179C364.63 222.919 356.42 222.919 355.09 224.239H355.1Z" fill="#313B59"></path><path d="M373.38 226.099C372.32 226.629 371 228.479 371 232.719C371 236.959 378.15 297.899 378.68 302.139C379.21 306.379 398.29 376.059 401.2 376.859C404.11 377.659 417.89 374.479 418.16 372.089C418.42 369.709 413.13 350.629 412.33 346.119C411.53 341.609 400.94 302.929 400.67 297.629C400.41 292.329 401.46 252.059 401.73 246.489C401.99 240.929 405.44 230.329 400.41 227.409C395.38 224.499 387.43 224.499 382.39 224.499C377.35 224.499 373.38 226.089 373.38 226.089V226.099Z" fill="#313B59"></path><path d="M372 240.13C371.97 239.81 371.46 239.81 371.49 240.13C372.87 253.55 374.01 267.01 375.54 280.42C375.59 280.84 376.25 280.86 376.21 280.42C374.98 266.98 373.37 253.56 371.99 240.13H372Z" fill="#7991D1"></path><path d="M346.49 180.39C345.3 180.39 345.43 179.86 344.37 180.65C343.31 181.44 343.71 181.05 342.91 182.11C342.12 183.17 338.01 190.32 336.29 191.65C334.57 192.97 325.16 196.15 322.11 197.21C319.06 198.27 301.84 203.83 300.65 203.97C299.46 204.1 297.6 203.44 295.22 203.57C292.84 203.7 290.19 204.36 288.33 204.36C286.47 204.36 285.02 204.23 284.89 205.29C284.76 206.35 284.49 206.75 285.68 206.88C286.87 207.01 290.71 207.67 290.71 207.67C290.71 207.67 280.11 208.2 279.45 208.73C278.79 209.26 277.46 210.85 277.6 212.04C277.73 213.23 279.98 215.75 281.71 216.28C283.43 216.81 287.27 216.81 291.25 215.88C295.22 214.95 301.32 211.24 302.64 210.98C303.96 210.72 343.84 203.3 344.37 203.03C344.9 202.77 345.16 202.9 345.69 202.37C346.22 201.84 346.48 201.44 347.68 200.38C348.87 199.32 353.91 193.09 354.3 191.77C354.7 190.45 353.77 188.19 353.77 188.19C353.77 188.19 350.06 183.02 348.74 182.23C347.42 181.44 347.68 181.04 347.28 180.77L346.49 180.37V180.39Z" fill="white"></path><path d="M362.65 148.459C360.66 149.649 360.13 151.239 358.41 153.229C356.69 155.219 342.51 181.049 342.38 181.979C342.25 182.909 350.2 192.839 355.63 193.109C361.06 193.369 360 171.649 360.93 167.809C361.86 163.969 363.05 159.989 363.58 156.279C364.11 152.569 363.84 149.259 363.71 148.729C363.58 148.199 362.65 148.459 362.65 148.459Z" fill="#D68029"></path><path d="M368.15 145.579C364.85 147.049 362.78 147.399 360.66 150.049C358.54 152.699 356.42 157.199 355.89 160.119C355.36 163.029 355.76 186.349 355.76 190.329C355.76 194.309 351.26 225.039 352.18 225.969C353.11 226.899 355.89 227.429 355.89 227.429C355.89 227.429 375.5 228.619 379.21 228.489C382.92 228.359 394.31 227.429 398.02 226.499C401.73 225.569 403.45 225.709 404.38 222.919C405.31 220.139 404.91 213.779 404.38 209.669C403.85 205.559 401.47 193.639 401.6 190.059C401.73 186.479 402.13 167.669 402.13 163.699C402.13 159.729 402.66 149.259 399.61 147.269C396.56 145.279 388.08 143.029 382.12 142.899C376.16 142.769 370.53 144.519 368.14 145.579H368.15Z" fill="#D68029"></path><path d="M370.53 203.11C370.1 203.83 369.14 204.3 369.34 205.49C369.54 206.68 371.13 208.87 372.72 211.25C374.31 213.63 388.42 233.71 390.21 235.49C392 237.27 399.75 246.82 400.94 247.61C402.13 248.4 409.68 242.84 412.86 241.05C416.04 239.26 428.36 230.92 429.16 229.92C429.95 228.93 430.95 230.32 430.35 228.33C429.75 226.34 419.82 212.43 418.03 210.64C416.24 208.85 405.31 193.55 403.13 190.37C400.94 187.19 398.36 184.41 397.17 184.61C395.98 184.81 384.45 193.35 381.67 195.14C378.89 196.93 371.14 202.1 370.54 203.09L370.53 203.11Z" fill="#4C5980"></path><path d="M401.47 179.599C401.47 179.599 405.44 187.809 406.37 189.399C407.3 190.989 407.96 192.309 408.09 193.109C408.22 193.899 408.35 194.829 407.83 197.219C407.31 199.609 402.66 216.159 401.74 218.019C400.81 219.869 399.09 223.189 397.9 224.249C396.71 225.309 389.02 228.359 388.23 228.219C387.44 228.089 387.17 229.149 387.44 229.679C387.7 230.209 388.37 230.609 389.69 230.469C391.01 230.339 394.06 230.069 394.06 230.069C394.06 230.069 392.47 231.529 391.41 232.319C390.35 233.109 389.03 233.779 388.76 234.569C388.5 235.359 389.16 237.349 389.69 238.409C390.22 239.469 391.15 240.259 393.13 241.459C395.12 242.649 396.44 243.179 396.84 243.179C397.24 243.179 400.68 238.539 402.27 236.949C403.86 235.359 404.12 234.829 404.65 232.709C405.18 230.589 405.18 227.009 405.31 225.819C405.44 224.629 413.26 210.579 415.38 207.139C417.5 203.699 421.47 194.419 421.47 192.429C421.47 190.439 415.77 174.019 414.32 171.759C412.87 169.499 406.5 172.819 404.52 174.009C402.53 175.199 401.74 178.379 401.74 178.379C401.74 178.379 401.21 178.909 401.48 179.569L401.47 179.599Z" fill="white"></path><path d="M394.05 169.399C395.2 171.339 400.81 180.929 401.73 180.929C402.65 180.929 413.79 174.839 416.17 172.979C418.55 171.129 420.01 169.669 419.61 168.739C419.21 167.809 420.01 167.679 418.29 165.959C416.57 164.239 403.19 148.469 398.95 147.279C394.71 146.089 390.34 153.369 389.68 156.689C389.02 159.999 391.53 165.169 394.05 169.409V169.399Z" fill="#D68029"></path><path d="M400.2 178.5C394.74 172.19 391.39 164.68 389.68 156.55C389.62 156.24 389.17 156.38 389.22 156.68C390.4 164.89 394.35 172.72 399.74 178.96C400.01 179.28 400.47 178.82 400.2 178.5Z" fill="#FFD075"></path><path d="M355.93 175.429C355.93 172.879 355.93 170.329 355.93 167.779C355.93 166.499 355.93 165.229 355.93 163.949C355.93 162.749 356.04 161.499 355.75 160.329C355.71 160.149 355.42 160.149 355.38 160.329C355.09 161.499 355.2 162.749 355.2 163.949C355.2 165.139 355.2 166.329 355.2 167.519C355.2 170.159 355.2 172.789 355.2 175.429C355.2 180.619 355.16 185.799 355.23 190.989C355.23 191.419 355.9 191.419 355.9 190.989C355.97 185.799 355.94 180.619 355.94 175.429H355.93Z" fill="#FFD075"></path><path d="M382.12 142.899C376.16 142.769 370.53 144.519 368.14 145.579C367.19 145.999 366.34 146.329 365.56 146.659C365.05 148.169 364.46 150.959 366.65 153.429C369.63 156.809 374.7 157.399 380.86 154.619C386.22 152.199 390.82 146.629 391.6 144.299C388.45 143.519 384.99 142.959 382.12 142.899Z" fill="white"></path><path d="M367.95 147.97C368.16 146.78 368.35 146.68 368.15 144.89C367.95 143.1 367.45 141.81 367.36 140.62C367.26 139.43 369.35 137.74 369.35 137.74C369.35 137.74 375.31 132.08 376.6 131.48C377.89 130.88 377.99 130.49 378.49 131.18C378.99 131.88 379.28 131.58 379.88 133.27C380.48 134.96 382.86 142.01 382.86 142.01C382.86 142.01 384.05 144 383.95 144.79C383.85 145.58 382.96 146.08 379.68 147.87C376.4 149.66 370.84 150.65 370.84 150.65C370.84 150.65 367.26 151.84 367.96 147.97H367.95Z" fill="white"></path><path d="M356.52 116.17C355.48 117.39 355.13 117.66 355.92 120.94C356.71 124.22 357.81 126.11 357.61 128.29C357.41 130.48 357.41 133.16 357.81 134.75C358.21 136.34 362.98 142.7 364.67 143C366.36 143.3 373.81 139.82 375.8 137.93C377.79 136.04 380.27 129.78 380.67 128.89C381.07 128 380.97 120.15 379.97 117.66C378.98 115.18 377.59 113.88 374.21 112.99C370.83 112.1 364.37 112.79 361.49 113.59C358.61 114.38 357.12 115.48 356.52 116.17Z" fill="white"></path><path d="M379.47 119.45C379 118.05 377.38 117.07 375.3 117.07C373.22 117.07 361.79 117.96 360.2 118.36C358.61 118.76 356.62 119.55 355.33 119.35C354.04 119.15 347.78 118.46 345.39 114.28C343.01 110.11 342.81 106.33 345.19 103.95C347.57 101.57 351.25 102.26 354.43 102.96C357.61 103.66 362.08 103.06 362.08 103.06C362.08 103.06 370.03 101.37 375.1 101.97C380.17 102.57 380.96 102.96 381.86 104.06C382.75 105.15 383.55 106.84 383.75 107.24C383.95 107.64 390.01 110.62 390.61 115.09C391.21 119.56 390.31 121.25 388.42 125.32C386.53 129.39 385.44 130.19 383.75 132.08C382.06 133.97 380.67 135.26 380.37 134.76C380.07 134.26 378.58 131.68 378.98 130.19C379.38 128.7 379.77 120.35 379.48 119.46L379.47 119.45Z" fill="#4C5980"></path><path d="M380.69 121.95C381.01 121.73 381.38 121.55 381.75 121.59C382.43 121.66 382.94 122.47 383.04 123.29C383.13 124.11 382.9 124.94 382.6 125.69C381.71 127.94 380.25 129.85 378.47 131.09C378.7 130.93 378.74 128.88 378.77 128.52C378.86 127.58 378.93 126.64 378.98 125.7C379.02 124.91 378.93 124.2 379.29 123.52C379.64 122.87 380.14 122.32 380.69 121.94V121.95Z" fill="white"></path><path d="M380.68 119.37C380.34 120.21 380.42 123.38 379.26 125.71C378.1 128.04 377.45 128.81 377.19 127.78C376.93 126.75 377.32 126.23 377.32 124.16C377.32 122.09 376.67 118.73 376.93 116.92C377.19 115.11 378.22 113.17 379.39 113.95C380.55 114.73 380.94 116.28 380.94 117.05C380.94 117.82 380.94 118.73 380.68 119.38V119.37Z" fill="#4C5980"></path><path d="M377.99 105.25C376.4 104.78 374.4 105.01 372.74 105.02C370.81 105.04 368.88 105.1 366.95 105.21C363.29 105.41 359.61 105.71 356 106.41C355.81 106.45 355.86 106.75 356.04 106.74C359.75 106.51 363.44 106.16 367.16 106.04C369.02 105.98 370.88 105.96 372.74 105.98C374.41 105.99 376.36 106.3 377.99 105.95C378.35 105.87 378.32 105.35 377.99 105.25Z" fill="#313B59"></path><path d="M373.45 107.74C372.92 107.71 372.39 107.74 371.86 107.77C371.6 107.78 371.34 107.79 371.08 107.81C370.81 107.83 370.54 107.89 370.28 107.94C370.1 107.97 370.1 108.28 370.28 108.31C370.54 108.36 370.81 108.42 371.08 108.44C371.34 108.46 371.6 108.47 371.86 108.48C372.39 108.51 372.92 108.54 373.45 108.51C373.63 108.5 373.76 108.4 373.82 108.23C373.84 108.16 373.84 108.09 373.82 108.03C373.76 107.86 373.63 107.76 373.45 107.75V107.74Z" fill="#313B59"></path><path d="M150.11 343.71C149.48 343.23 153.12 338.76 154.72 336.58C156.32 334.4 157.33 332.22 158.72 332.03C160.11 331.84 196.48 332.06 202.04 332.1C207.6 332.13 274.98 330.96 278.95 330.98C282.92 331 305.18 330.55 306.38 330.55C307.57 330.55 313.47 341.52 312.67 342.31C311.87 343.1 311.48 342.5 308.69 343.28C305.9 344.06 239.72 344.64 234.95 344.61C230.18 344.58 167.58 344.79 163.61 344.57C159.64 344.35 150.89 344.29 150.1 343.69L150.11 343.71Z" fill="#7991D1"></path><path d="M144.78 386.93C140.93 386.66 140.61 385.54 140.21 384.15C139.81 382.76 140.01 376.4 140.01 370.44C140.01 364.48 140.8 346.2 141.4 344.61C142 343.02 142 342.23 143.19 342.03C144.38 341.83 146.57 342.23 149.75 342.23C152.93 342.23 216.12 343.02 223.28 342.23C230.43 341.44 292.04 341.24 298.2 340.84C304.36 340.44 320.66 339.85 321.65 340.05C322.64 340.25 322.84 340.45 323.04 341.24C323.24 342.03 323.24 374.63 323.24 376.61C323.24 378.59 324.23 384.16 323.44 384.96C322.65 385.76 323.24 385.56 320.26 386.15C317.28 386.75 263.23 388.34 258.46 388.34C253.69 388.34 195.46 387.94 183.34 388.14C171.22 388.34 147.57 387.15 144.79 386.95L144.78 386.93Z" fill="#4C5980"></path><path d="M279.72 379.97C261.16 380.48 242.58 380.82 224.01 380.84C205.35 380.86 186.69 380.71 168.04 380.34C162.84 380.24 157.65 380.09 152.45 380.01C148.29 379.95 144.12 379.78 139.96 379.79C139.96 380.2 139.96 380.59 139.97 380.96C143.53 381.2 147.1 381.28 150.66 381.43C155.26 381.62 159.86 381.74 164.46 381.85C173.74 382.07 183.03 382.23 192.31 382.33C210.97 382.52 229.63 382.4 248.28 382.11C258.76 381.95 269.23 381.71 279.71 381.4C280.62 381.37 280.63 379.96 279.71 379.98L279.72 379.97ZM323.38 378.59C322.2 378.79 321.02 378.99 319.86 379.13C316.75 379.49 313.64 379.77 310.52 379.97C307.6 380.16 304.67 380.27 301.74 380.31C300.32 380.33 298.89 380.33 297.47 380.31C296.03 380.31 294.53 380.2 293.12 380.52C292.85 380.58 292.84 380.97 293.1 381.05C295.76 381.85 298.95 381.5 301.7 381.48C304.71 381.45 307.73 381.35 310.73 381.16C313.54 380.99 316.35 380.76 319.15 380.45C320.61 380.29 322.06 380.11 323.51 379.92C323.46 379.46 323.42 379.01 323.37 378.59H323.38Z" fill="#313B59"></path><path d="M185.62 363.78C184.93 363.1 184.09 362.58 183.19 362.22C182.74 362.04 182.26 361.94 181.78 361.88C181.52 361.85 181.26 361.81 181.01 361.82C180.76 361.82 180.59 361.93 180.37 362.07C180.3 362.11 173.2 365.57 171.57 373.18C170.93 376.18 170.86 379.28 170.92 382.33C170.99 385.91 170.99 389.46 170.92 393.04C170.92 393.15 171 393.22 171.09 393.24C171.07 393.32 171.07 393.4 171.11 393.47C171.37 393.84 171.85 393.94 172.27 394.08C172.75 394.23 173.24 394.36 173.74 394.45C174.77 394.64 175.83 394.71 176.87 394.65C177.89 394.59 178.91 394.42 179.88 394.11C180.82 393.81 181.84 393.43 182.58 392.76C182.62 392.72 182.63 392.68 182.64 392.63C182.73 392.57 182.79 392.47 182.78 392.32C182.57 387.89 182.04 383.45 182.87 379.04C183.21 377.24 183.75 375.47 184.56 373.82C184.94 373.04 185.39 372.3 185.88 371.58C186.34 370.88 186.96 370.27 187.42 369.57C187.59 369.52 187.73 369.38 187.74 369.15C187.81 367.17 187.05 365.18 185.63 363.79L185.62 363.78Z" fill="#7991D1"></path><path d="M205.49 363.78C204.8 363.1 203.96 362.58 203.06 362.22C202.61 362.04 202.13 361.94 201.65 361.88C201.39 361.85 201.13 361.81 200.88 361.82C200.63 361.82 200.46 361.93 200.24 362.07C200.17 362.11 192.38 366.77 191.44 373.18C191 376.22 190.73 379.28 190.79 382.33C190.86 385.91 190.86 389.46 190.79 393.04C190.79 393.15 190.87 393.22 190.96 393.24C190.94 393.32 190.94 393.4 190.98 393.47C191.24 393.84 191.72 393.94 192.14 394.08C192.62 394.23 193.11 394.36 193.61 394.45C194.64 394.64 195.7 394.71 196.74 394.65C197.76 394.59 198.78 394.42 199.75 394.11C200.69 393.81 201.71 393.43 202.45 392.76C202.49 392.72 202.5 392.68 202.51 392.63C202.6 392.57 202.66 392.47 202.65 392.32C202.44 387.89 201.91 383.45 202.74 379.04C203.08 377.24 203.62 375.47 204.43 373.82C204.81 373.04 205.26 372.3 205.75 371.58C206.21 370.88 206.83 370.27 207.29 369.57C207.46 369.52 207.6 369.38 207.61 369.15C207.68 367.17 206.92 365.18 205.5 363.79L205.49 363.78Z" fill="#7991D1"></path><path d="M238.77 341.39C217.74 341.53 196.7 341.66 175.67 341.8C172.76 341.82 169.86 341.84 166.95 341.86C164.04 341.88 161.06 341.77 158.18 342.18C157.94 342.21 158.04 342.53 158.23 342.56C160.85 342.89 163.55 342.78 166.18 342.76C168.75 342.74 171.31 342.73 173.88 342.71C179.1 342.68 184.31 342.64 189.53 342.61C199.96 342.54 210.39 342.47 220.83 342.41C226.82 342.37 232.8 342.33 238.79 342.29C239.36 342.29 239.36 341.4 238.79 341.4L238.77 341.39Z" fill="white"></path><path d="M274.35 340.49C269.53 340.61 264.71 340.73 259.89 340.85L252.79 341.03C251.61 341.06 250.42 341.09 249.24 341.12C248.14 341.15 246.91 341.04 245.87 341.42C245.61 341.52 245.58 341.89 245.87 341.98C246.86 342.29 247.96 342.14 248.99 342.11C250.17 342.08 251.36 342.04 252.54 342.01L259.9 341.8C264.72 341.66 269.54 341.52 274.36 341.39C274.93 341.37 274.93 340.49 274.36 340.5L274.35 340.49Z" fill="white"></path><path d="M313.03 90.1201C313.66 90.6101 310.01 95.0801 308.4 97.2601C306.79 99.4401 305.78 101.63 304.39 101.81C303 101.99 266.85 101.56 261.32 101.49C255.79 101.42 188.8 102.21 184.85 102.16C180.9 102.11 158.77 102.44 157.58 102.43C156.39 102.42 150.6 91.3501 151.4 90.5601C152.2 89.7701 152.59 90.3701 155.36 89.6101C158.13 88.8501 223.93 88.6401 228.67 88.7001C233.41 88.7601 295.65 88.9101 299.6 89.1601C303.55 89.4101 312.24 89.5101 313.02 90.1201H313.03Z" fill="#7991D1"></path><path d="M318.57 46.6704C322.39 46.9704 322.71 48.0904 323.1 49.4904C323.49 50.8904 323.25 57.2904 323.22 63.2804C323.19 69.2804 322.29 87.6604 321.69 89.2604C321.09 90.8604 321.08 91.6604 319.9 91.8504C318.71 92.0404 316.54 91.6304 313.38 91.6104C310.22 91.5904 247.4 90.4204 240.28 91.1804C233.16 91.9404 171.92 91.7804 165.79 92.1404C159.66 92.5004 143.46 93.0104 142.47 92.8004C141.48 92.5904 141.29 92.3904 141.09 91.5904C140.9 90.7904 141.09 58.0104 141.09 56.0104C141.1 54.0104 140.15 48.4104 140.94 47.6104C141.73 46.8204 141.14 47.0104 144.11 46.4304C147.08 45.8504 200.82 44.5604 205.57 44.5904C210.31 44.6204 268.2 45.3604 280.25 45.2304C292.3 45.1004 315.81 46.4404 318.57 46.6504V46.6704Z" fill="#4C5980"></path><path d="M306.54 67.4405C306.56 67.0205 306.52 63.6005 306.47 63.8105C306.42 63.9905 306.44 58.9705 306.35 58.5605C306.38 58.3405 306.4 58.1305 306.4 57.9105C306.37 56.4705 305.19 55.0805 303.69 55.1405C302.19 55.2005 300.99 56.3405 300.95 57.8805C300.95 58.1105 300.9 64.0005 300.84 63.7805C300.8 63.6005 300.73 66.6305 300.78 66.9205C300.76 67.0405 300.78 69.5805 300.79 69.7205C300.78 69.8705 300.77 70.0205 300.75 70.1705C300.63 71.7005 302.14 73.1605 303.62 73.1105C305.08 73.0505 306.64 71.8405 306.52 70.2105C306.51 70.0505 306.5 69.9005 306.48 69.7405C306.5 69.6105 306.5 67.7105 306.54 67.4505V67.4405Z" fill="#12203D"></path><path d="M293.9 67.3702C293.92 66.9502 293.88 63.5302 293.83 63.7402C293.78 63.9202 293.8 58.9002 293.71 58.4902C293.74 58.2702 293.76 58.0602 293.76 57.8402C293.73 56.4002 292.55 55.0102 291.05 55.0702C289.55 55.1302 288.35 56.2702 288.31 57.8102C288.31 58.0402 288.26 63.9302 288.2 63.7102C288.16 63.5302 288.09 66.5602 288.14 66.8502C288.12 66.9702 288.14 69.5102 288.15 69.6502C288.14 69.8002 288.13 69.9502 288.11 70.1002C287.99 71.6302 289.5 73.0902 290.98 73.0402C292.44 72.9802 294 71.7702 293.88 70.1402C293.87 69.9802 293.86 69.8302 293.84 69.6702C293.86 69.5402 293.86 67.6402 293.89 67.3802L293.9 67.3702Z" fill="#FFD075"></path><path d="M281.26 67.2902C281.28 66.8702 281.24 63.4502 281.19 63.6602C281.14 63.8402 281.16 58.8202 281.07 58.4102C281.1 58.1902 281.12 57.9802 281.12 57.7602C281.09 56.3202 279.91 54.9302 278.41 54.9902C276.91 55.0502 275.71 56.1902 275.67 57.7302C275.67 57.9602 275.62 63.8502 275.56 63.6302C275.52 63.4502 275.45 66.4802 275.5 66.7702C275.48 66.8902 275.5 69.4302 275.51 69.5702C275.5 69.7202 275.49 69.8702 275.47 70.0202C275.35 71.5502 276.86 73.0102 278.34 72.9602C279.8 72.9002 281.36 71.6902 281.24 70.0602C281.23 69.9002 281.22 69.7502 281.2 69.5902C281.22 69.4602 281.22 67.5602 281.26 67.3002V67.2902Z" fill="#FFD075"></path><path d="M278.68 90.1602C248.16 90.3402 217.64 90.7401 187.13 91.0901C178.48 91.1901 169.84 91.2802 161.19 91.5702C160.84 91.5802 160.83 92.1201 161.19 92.1301C176.45 92.3001 191.71 91.9902 206.97 91.8202C222.23 91.6502 237.49 91.4802 252.75 91.3102C261.4 91.2102 270.04 91.1002 278.69 90.9602C279.2 90.9602 279.2 90.1602 278.69 90.1602H278.68Z" fill="#313B59"></path><path d="M302.39 90.7407C299.39 90.8807 296.39 90.9207 293.39 90.8607C291.89 90.8307 290.39 90.7707 288.89 90.7107C287.55 90.6607 286 90.3307 284.69 90.6507C284.49 90.7007 284.53 90.9507 284.69 91.0207C285.93 91.5507 287.55 91.4407 288.89 91.5307C290.39 91.6307 291.89 91.6907 293.39 91.7207C296.39 91.7807 299.39 91.7407 302.39 91.6007C302.94 91.5707 302.95 90.7007 302.39 90.7307V90.7407Z" fill="#313B59"></path><path d="M141.23 64.5203C141.23 63.5903 141.22 62.6503 141.21 61.7203C141.21 61.2503 141.21 60.7903 141.21 60.3203C141.21 59.8703 141.27 59.3603 141.12 58.9403C141.01 58.6303 140.59 58.6103 140.47 58.9403C140.32 59.3703 140.4 59.8703 140.41 60.3203C140.41 60.7503 140.42 61.1803 140.43 61.6103C140.45 62.5803 140.46 63.5503 140.48 64.5203C140.51 66.3503 140.42 68.2703 140.71 70.0803C140.74 70.2803 141.1 70.2903 141.13 70.0803C141.39 68.2703 141.25 66.3503 141.24 64.5303L141.23 64.5203Z" fill="white"></path><path d="M242.07 44.5703C235.49 44.2703 228.86 44.4203 222.28 44.4203C215.68 44.4203 209.09 44.4303 202.49 44.5003C189.47 44.6303 176.44 44.8803 163.42 45.2503C155.98 45.4603 148.54 45.6903 141.1 46.0603C140.86 46.0703 140.73 46.2503 140.71 46.4303C140.42 46.6503 140.51 47.3003 140.51 47.6003C140.52 48.2103 140.53 48.8203 140.56 49.4203C140.58 49.9903 140.61 50.5503 140.63 51.1203C140.65 51.7003 140.59 52.3603 140.76 52.9203C140.85 53.2403 141.35 53.2703 141.43 52.9203C141.56 52.3603 141.48 51.7003 141.47 51.1303C141.47 50.5603 141.46 50.0003 141.45 49.4303C141.45 48.8203 141.42 48.2103 141.4 47.6103C141.4 47.4503 141.41 47.1603 141.38 46.9003C167.5 46.2203 193.6 45.4903 219.73 45.4303C227.17 45.4103 234.63 45.6503 242.06 45.4503C242.61 45.4303 242.62 44.6003 242.06 44.5803L242.07 44.5703Z" fill="white"></path><path d="M185.66 286.64C185.6 284.87 185.54 283.1 185.48 281.32C185.48 281.13 185.38 280.99 185.26 280.86C185.14 280.58 184.85 280.33 184.37 280.27C182.19 279.98 179.85 280.11 177.64 280.09C175.51 280.08 173.39 280.07 171.26 280.07C166.76 280.07 162.27 280.07 157.77 280.07C153.35 280.07 148.94 280.1 144.53 280.13C140.05 280.16 135.5 280.08 131.04 280.41C130.89 280.42 130.78 280.45 130.66 280.48C130.65 280.48 130.63 280.48 130.62 280.48C130.85 292.42 131.04 304.38 131.2 316.34C131.33 316.49 131.54 316.61 131.85 316.64C136.16 317.03 140.62 316.82 144.96 316.78C149.48 316.74 153.99 316.66 158.51 316.6C162.94 316.54 167.38 316.49 171.81 316.42C174.03 316.39 176.24 316.36 178.46 316.33C180.68 316.3 183.06 316.42 185.24 316.13C185.3 316.13 185.35 316.1 185.41 316.08C185.6 316.05 185.77 315.99 185.91 315.91C185.91 310.36 185.88 304.8 185.75 299.3C185.65 295.05 185.65 290.84 185.67 286.63L185.66 286.64Z" fill="#BFCAD4"></path><path d="M180.23 288.83C178.52 290.39 176.77 291.91 175.02 293.43C173.74 292.31 172.48 291.17 171.24 290.02C170.91 289.72 170.44 289.74 170.12 290.04C165.47 294.34 160.88 298.72 156.23 303.03C154.33 300.95 152.41 298.86 150.59 296.71C150.29 296.36 149.77 296.48 149.46 296.73C146.88 298.85 144.46 301.25 142.02 303.54C139.57 305.83 137.11 308.14 134.87 310.63C134.61 310.92 134.97 311.45 135.32 311.19C137.97 309.2 140.47 306.99 142.96 304.8C145.32 302.72 147.77 300.64 150.02 298.43C151.96 300.42 153.84 302.48 155.72 304.53C155.98 304.82 156.44 304.76 156.71 304.51C161.36 300.2 166.07 295.96 170.71 291.65C171.98 292.75 173.25 293.86 174.49 295C174.81 295.3 175.25 295.26 175.57 294.98C177.51 293.29 179.44 291.61 181.41 289.97C182.21 289.31 181.02 288.12 180.23 288.83Z" fill="white"></path><path d="M44.8898 295.961C44.4598 295.101 43.9398 294.301 43.3798 293.531C43.9098 291.641 44.6298 289.061 44.6798 288.781C44.7698 288.341 45.9398 286.141 45.7598 285.781C45.5798 285.431 38.6498 280.731 38.1298 280.781C37.7298 280.811 33.6598 284.601 31.8998 286.241C29.5498 285.761 27.1498 285.731 24.8098 286.101C23.4598 284.501 19.4998 279.841 19.1098 279.691C18.6398 279.511 11.4598 283.331 10.9598 283.791C10.4598 284.251 11.8398 287.681 12.0998 288.961C12.2298 289.621 12.5298 291.051 12.7998 292.371C12.4398 292.761 12.0798 293.161 11.7498 293.581C10.7098 294.881 9.87976 296.321 9.22976 297.831C6.76976 298.321 0.73976 299.541 0.50976 299.701C0.21976 299.901 0.45976 300.221 0.48976 300.591C0.51976 300.971 0.18976 306.071 0.12976 306.721C0.0697597 307.381 0.00975969 308.351 -0.0102403 308.801C-0.0202403 309.141 5.48976 310.831 8.33976 311.681C8.81976 313.411 9.50976 315.091 10.4498 316.641C10.6998 317.061 10.9698 317.461 11.2598 317.861C10.3398 320.481 8.61976 325.451 8.74976 325.721C8.93976 326.091 9.71976 326.411 9.71976 326.411C9.71976 326.411 15.7698 330.651 16.0498 330.581C16.3298 330.521 16.3898 330.641 16.6798 330.421C16.9298 330.221 21.1998 326.491 22.1598 325.461C24.6298 326.191 27.1898 326.431 29.6398 326.021C31.4498 328.061 34.9798 332.001 35.1798 331.911C35.4498 331.791 36.1998 331.411 36.1998 331.411C36.1998 331.411 43.3298 328.111 43.3298 327.811C43.3298 327.511 43.2298 326.701 43.2298 326.701L41.5698 319.801C43.2298 318.021 44.3998 315.941 45.1998 313.671C46.6998 313.351 48.5098 312.981 49.1998 312.891C50.2398 312.761 53.5698 312.301 53.7798 311.901C53.9898 311.501 54.0198 311.101 54.0198 311.101L54.2998 302.801L54.1198 302.431C54.1198 302.431 48.5698 300.731 46.2698 300.081C45.9798 298.671 45.5398 297.291 44.8698 295.971L44.8898 295.961ZM34.5998 311.511C32.9398 313.641 30.1198 315.001 27.3598 315.011C25.5198 315.271 23.3898 314.431 21.9698 313.441C19.9998 312.061 18.6598 309.931 18.2298 307.571C17.4598 303.381 19.6998 299.211 23.5598 297.441C27.3898 295.681 32.0298 296.911 34.6198 300.211C37.1598 303.451 37.1298 308.271 34.5998 311.521V311.511Z" fill="#A1B0BA"></path><path d="M50.8499 254.01C50.5199 253.42 50.1299 252.87 49.7099 252.35C50.0199 251.01 50.4399 249.17 50.4699 248.97C50.5199 248.66 51.2699 247.07 51.1299 246.83C50.9899 246.59 45.9699 243.51 45.6099 243.56C45.3299 243.6 42.5899 246.38 41.4099 247.6C39.7499 247.34 38.0599 247.4 36.4299 247.73C35.4299 246.65 32.4999 243.5 32.2199 243.41C31.8799 243.3 26.9599 246.21 26.6299 246.55C26.2999 246.89 27.3699 249.25 27.5899 250.15C27.6999 250.61 27.9599 251.6 28.1899 252.53C27.9499 252.81 27.7099 253.11 27.4899 253.42C26.7999 254.37 26.2599 255.4 25.8499 256.49C24.1299 256.91 19.9399 257.96 19.7899 258.08C19.5899 258.23 19.7699 258.44 19.7999 258.71C19.8299 258.98 19.7699 262.57 19.7399 263.03C19.7199 263.49 19.7099 264.18 19.7099 264.5C19.7099 264.74 23.6399 265.75 25.6699 266.25C26.0599 267.45 26.5999 268.61 27.3099 269.67C27.4999 269.95 27.6999 270.23 27.9199 270.5C27.3499 272.37 26.3099 275.92 26.4099 276.1C26.5499 276.36 27.1099 276.55 27.1099 276.55C27.1099 276.55 31.4999 279.33 31.6899 279.28C31.8899 279.23 31.9299 279.31 32.1199 279.15C32.2899 279 35.1699 276.24 35.8099 275.49C37.5699 275.93 39.3699 276.01 41.0799 275.64C42.4199 277.02 45.0199 279.67 45.1599 279.6C45.3499 279.5 45.8599 279.21 45.8599 279.21C45.8599 279.21 50.7599 276.66 50.7499 276.45C50.7399 276.24 50.6499 275.67 50.6499 275.67L49.2599 270.87C50.3699 269.57 51.1199 268.07 51.6099 266.45C52.6499 266.18 53.9099 265.86 54.3899 265.77C55.1199 265.64 57.4399 265.21 57.5699 264.93C57.6999 264.64 57.7099 264.36 57.7099 264.36L57.6399 258.52L57.4999 258.27C57.4999 258.27 53.5499 257.25 51.9099 256.87C51.6599 255.89 51.3099 254.93 50.7999 254.02L50.8499 254.01ZM44.1199 265.27C43.0199 266.82 41.0799 267.87 39.1499 267.96C37.8699 268.2 36.3399 267.68 35.3099 267.03C33.8799 266.13 32.8799 264.67 32.4899 263.03C31.8099 260.11 33.2599 257.11 35.9099 255.74C38.5399 254.38 41.8399 255.09 43.7699 257.33C45.6599 259.52 45.7899 262.91 44.1199 265.27Z" fill="#A1B0BA"></path><path d="M332.58 284C332.55 283.7 332.52 283.4 332.49 283.1C332.49 283.07 332.42 283.04 332.32 283.02C332.23 282.97 332 282.93 331.61 282.91C329.88 282.85 328.01 282.86 326.24 282.84C324.54 282.83 322.85 282.81 321.15 282.8C317.56 282.77 313.98 282.75 310.39 282.72C306.87 282.7 303.35 282.67 299.82 282.65C296.24 282.63 292.62 282.59 289.06 282.62C288.94 282.62 288.85 282.62 288.75 282.63C288.74 282.63 288.73 282.63 288.72 282.63C288.79 284.66 288.84 286.68 288.84 288.71C288.95 288.74 289.11 288.76 289.36 288.76C292.8 288.85 296.36 288.84 299.82 288.86C303.42 288.88 307.02 288.89 310.63 288.91C314.17 288.93 317.7 288.94 321.24 288.96C323.01 288.96 324.78 288.98 326.55 288.98C328.32 288.98 330.22 289.02 331.96 288.98C332.01 288.98 332.05 288.98 332.1 288.98C332.25 288.98 332.39 288.97 332.5 288.95C332.56 288.01 332.58 287.07 332.53 286.13C332.49 285.41 332.53 284.7 332.59 283.98L332.58 284Z" fill="#A1B0BA"></path><path d="M312.98 295.83C312.96 295.53 312.95 295.23 312.93 294.93C312.93 294.9 312.89 294.87 312.84 294.85C312.79 294.8 312.66 294.76 312.45 294.75C311.49 294.69 310.46 294.7 309.48 294.69C308.54 294.68 307.6 294.67 306.67 294.66C304.69 294.64 302.7 294.62 300.72 294.61C298.77 294.59 296.82 294.58 294.88 294.57C292.9 294.56 290.9 294.53 288.93 294.57C288.87 294.57 288.81 294.57 288.76 294.58C288.76 294.58 288.75 294.58 288.74 294.58C288.77 296.61 288.79 298.63 288.8 300.66C288.86 300.69 288.95 300.71 289.08 300.71C290.98 300.79 292.95 300.78 294.86 300.79C296.85 300.8 298.84 300.81 300.84 300.81C302.8 300.81 304.75 300.83 306.71 300.83C307.69 300.83 308.67 300.83 309.64 300.84C310.62 300.84 311.67 300.87 312.63 300.84C312.66 300.84 312.68 300.84 312.71 300.84C312.79 300.84 312.87 300.83 312.93 300.81C312.96 299.87 312.98 298.93 312.95 297.99C312.93 297.27 312.95 296.56 312.99 295.84L312.98 295.83Z" fill="#A1B0BA"></path><path d="M324.63 307.81C324.61 307.51 324.58 307.21 324.55 306.91C324.55 306.88 324.49 306.85 324.41 306.83C324.34 306.78 324.15 306.74 323.83 306.72C322.41 306.66 320.88 306.67 319.44 306.66C318.05 306.65 316.66 306.63 315.27 306.62C312.33 306.6 309.4 306.57 306.46 306.55C303.58 306.53 300.69 306.51 297.81 306.49C294.88 306.47 291.91 306.44 289 306.47C288.9 306.47 288.83 306.47 288.75 306.48C288.75 306.48 288.73 306.48 288.72 306.48C288.78 308.51 288.81 310.53 288.82 312.56C288.91 312.59 289.04 312.61 289.24 312.61C292.05 312.7 294.97 312.69 297.8 312.7C300.75 312.72 303.7 312.73 306.65 312.74C309.55 312.75 312.44 312.77 315.34 312.78C316.79 312.78 318.24 312.79 319.68 312.8C321.13 312.8 322.68 312.84 324.11 312.8C324.15 312.8 324.18 312.8 324.22 312.8C324.34 312.8 324.46 312.79 324.54 312.77C324.59 311.83 324.61 310.89 324.57 309.95C324.54 309.23 324.57 308.52 324.62 307.8L324.63 307.81Z" fill="#A1B0BA"></path><path d="M155.73 222.06C155.71 221.76 155.68 221.46 155.66 221.16C155.66 221.13 155.6 221.1 155.53 221.08C155.46 221.03 155.28 220.99 154.97 220.97C153.6 220.91 152.13 220.92 150.74 220.91C149.4 220.9 148.07 220.89 146.73 220.87C143.9 220.85 141.08 220.82 138.25 220.8C135.47 220.78 132.7 220.76 129.92 220.74C127.1 220.72 124.24 220.69 121.44 220.72C121.35 220.72 121.27 220.72 121.2 220.73C121.2 220.73 121.18 220.73 121.17 220.73C121.22 222.76 121.26 224.78 121.26 226.81C121.34 226.84 121.47 226.86 121.67 226.86C124.38 226.95 127.18 226.93 129.91 226.95C132.75 226.97 135.59 226.98 138.43 226.99C141.22 227 144.01 227.01 146.79 227.03C148.18 227.03 149.58 227.04 150.97 227.05C152.37 227.05 153.86 227.09 155.23 227.05C155.27 227.05 155.3 227.05 155.34 227.05C155.46 227.05 155.57 227.04 155.65 227.02C155.7 226.08 155.72 225.14 155.67 224.2C155.64 223.48 155.67 222.77 155.72 222.05L155.73 222.06Z" fill="#A1B0BA"></path><path d="M145.42 233.939C145.4 233.639 145.39 233.339 145.37 233.039C145.37 233.009 145.33 232.979 145.28 232.959C145.23 232.909 145.1 232.869 144.89 232.859C143.93 232.799 142.9 232.809 141.92 232.799C140.98 232.789 140.04 232.779 139.11 232.769C137.13 232.749 135.14 232.729 133.16 232.719C131.21 232.699 129.26 232.689 127.32 232.679C125.34 232.669 123.34 232.639 121.37 232.679C121.31 232.679 121.25 232.679 121.2 232.689C121.2 232.689 121.19 232.689 121.18 232.689C121.21 234.719 121.23 236.739 121.24 238.769C121.3 238.799 121.39 238.819 121.52 238.819C123.42 238.899 125.39 238.889 127.3 238.899C129.29 238.909 131.28 238.919 133.28 238.919C135.24 238.919 137.19 238.939 139.15 238.939C140.13 238.939 141.11 238.939 142.08 238.949C143.06 238.949 144.11 238.979 145.07 238.949C145.1 238.949 145.12 238.949 145.15 238.949C145.23 238.949 145.31 238.939 145.37 238.919C145.4 237.979 145.42 237.039 145.39 236.099C145.37 235.379 145.39 234.659 145.43 233.949L145.42 233.939Z" fill="#A1B0BA"></path><path d="M404.69 48.8698C399.71 38.1398 387.8 32.0198 376.13 33.5798C367.18 34.7798 359.57 40.9498 355.68 48.9598C355.62 49.0498 355.57 49.1398 355.54 49.2498C354.49 51.4798 353.7 53.8398 353.28 56.2898C351.85 64.5198 354.74 73.6098 360.48 79.8298C360.35 79.9998 363.39 82.7898 364.97 83.7098C366.98 85.0398 372.03 86.6598 372.18 86.5298C380.55 88.4598 389.9 86.5298 396.73 81.2898C406.43 73.8398 409.86 60.0298 404.68 48.8798L404.69 48.8698ZM400.09 46.2998C400.4 46.7598 400.69 47.2398 400.97 47.7198C400.05 47.5298 399.12 47.3998 398.25 47.2198C396.81 46.9198 395.34 46.6698 393.87 46.4498C393.33 43.8998 392.61 41.3798 391.69 38.9298C395.03 40.6798 397.96 43.1698 400.09 46.3098V46.2998ZM379.17 73.1198C375.49 73.0998 371.83 72.9298 368.16 72.6498C367.16 69.3198 366.51 65.8998 366.33 62.3198C370.72 62.3698 375.12 62.3198 379.49 62.3498C379.49 65.9398 379.43 69.5298 379.3 73.1198C379.26 73.1198 379.22 73.1198 379.17 73.1198ZM381.38 60.3298C381.47 56.0298 381.5 51.6998 381.36 47.3998C384.81 47.4298 388.29 47.6098 391.7 48.0898C391.92 48.1198 392.14 48.1498 392.36 48.1798C393.11 52.1498 393.42 56.2098 393.24 60.2798C389.29 60.3498 385.33 60.3098 381.38 60.3298ZM393.13 62.2298C393.13 62.3498 393.13 62.4698 393.11 62.5898C392.81 66.0098 392.17 69.3898 391.23 72.6898C387.83 72.9398 384.42 73.0598 381 73.0898C381.13 69.5098 381.24 65.9198 381.32 62.3398C385.25 62.3498 389.2 62.2598 393.13 62.2298ZM389.23 37.7898C390.38 40.5098 391.28 43.3198 391.94 46.1698C388.41 45.7298 384.86 45.4798 381.31 45.4098C381.27 43.7598 381.24 42.0998 381.17 40.4498C381.11 39.1498 381.27 37.4598 381.04 35.9998C383.84 36.1498 386.63 36.7598 389.24 37.7898H389.23ZM379.49 60.3198C375.08 60.3298 370.66 60.2098 366.24 60.1398C366.24 60.1198 366.24 60.0998 366.24 60.0798C366.24 56.0098 366.91 52.0198 368.04 48.1098C371.79 47.6498 375.54 47.4198 379.32 47.3898C379.41 51.6998 379.46 56.0098 379.48 60.3198H379.49ZM378.85 35.9798C378.75 37.3498 379.03 38.8598 379.07 40.1298C379.12 41.8898 379.2 43.6398 379.27 45.3898C375.76 45.3898 372.23 45.6198 368.75 46.0398C369.87 42.9298 371.35 39.9798 372.76 36.9898C374.73 36.3798 376.79 36.0498 378.86 35.9798H378.85ZM370.66 37.7398C368.82 40.2998 367.46 43.2398 366.45 46.3298C363.95 46.6698 361.45 47.0698 359.02 47.7298C361.79 43.3398 365.84 39.7598 370.66 37.7498V37.7398ZM357.83 49.7998C360.5 49.3798 363.14 48.8598 365.81 48.4398C364.8 52.2098 364.3 56.1298 364.2 59.8098C364.2 59.9098 364.2 60.0198 364.2 60.1198C361.17 60.0798 358.14 60.0598 355.11 60.1498C355.24 56.5298 356.2 52.9998 357.83 49.7998ZM364.22 62.2798C364.32 65.6498 364.84 69.0898 365.73 72.4298C364.46 72.3098 363.19 72.1998 361.93 72.0598C360.57 71.9098 359.07 71.5898 357.66 71.6498C356.16 68.6598 355.25 65.3598 355.11 61.8398C358.13 62.0898 361.18 62.2098 364.22 62.2698V62.2798ZM366.3 81.8498C363.2 79.4898 360.53 76.6098 358.57 73.3298C359.44 73.5098 360.35 73.5998 361.19 73.7098C362.88 73.9398 364.57 74.1098 366.27 74.2698C367.26 77.3998 368.57 80.4198 370.25 83.1398C368.92 82.7698 367.6 82.3398 366.3 81.8498ZM378.84 84.4298C376.87 84.4198 374.92 84.1798 372.99 83.7998C372.99 83.7898 372.99 83.7798 372.98 83.7598C371.27 80.7198 369.86 77.6298 368.76 74.4598C372.23 74.7198 375.7 74.8898 379.18 74.9098C379.2 74.9098 379.22 74.9098 379.24 74.9098C379.17 76.7298 379.08 78.5398 379.01 80.3598C378.96 81.6198 378.75 83.0798 378.85 84.4298H378.84ZM386.87 83.2398C385.12 83.7698 383.32 84.1498 381.49 84.3298C381.11 84.3698 380.74 84.3798 380.36 84.3898C380.58 83.1498 380.56 81.7998 380.63 80.6798C380.77 78.7498 380.85 76.8198 380.93 74.8898C384.17 74.8798 387.42 74.7798 390.65 74.5598C390.58 74.7898 390.52 75.0198 390.44 75.2398C389.76 77.2498 388.95 79.2198 388.01 81.1298C387.74 81.6798 387.23 82.4498 386.85 83.2398H386.87ZM398.24 76.2798C395.68 78.9698 392.59 81.0198 389.22 82.3998C389.34 82.1498 389.45 81.9098 389.54 81.7198C390.51 79.7698 391.36 77.7498 392.08 75.6898C392.23 75.2698 392.35 74.8298 392.48 74.4098C395.14 74.1898 397.78 73.8898 400.42 73.5198C399.77 74.4898 399.05 75.4298 398.23 76.2898L398.24 76.2798ZM401.54 71.6598C398.73 72.0098 395.91 72.2998 393.08 72.5298C393.99 69.2798 394.59 65.9398 394.88 62.5898C394.89 62.4598 394.89 62.3298 394.9 62.1998C396.49 62.1798 398.08 62.1498 399.67 62.1198C401.02 62.0898 402.75 62.3398 404.2 62.0598C403.98 65.4198 403.1 68.7098 401.54 71.6598ZM400 60.1898C398.34 60.2198 396.68 60.2398 395.02 60.2598C395.2 56.3098 394.93 52.3498 394.26 48.4598C395.43 48.6298 396.59 48.8198 397.76 49.0298C399.18 49.2898 400.66 49.8098 402.12 49.9998C403.5 53.1498 404.23 56.6098 404.26 60.0798C402.89 59.8698 401.3 60.1598 400 60.1798V60.1898Z" fill="#A1B0BA"></path><path d="M342.08 138.98C342.05 137.31 342.03 135.63 342 133.96C342 133.78 341.92 133.64 341.82 133.52C341.73 133.25 341.48 133.01 341.07 132.95C339.23 132.64 337.25 132.73 335.37 132.68C333.57 132.64 331.77 132.6 329.97 132.57C326.16 132.5 322.36 132.43 318.55 132.38C314.81 132.33 311.07 132.28 307.34 132.25C303.54 132.22 299.7 132.08 295.92 132.32C295.8 132.32 295.7 132.36 295.59 132.38C295.58 132.38 295.57 132.38 295.56 132.38C295.59 143.66 295.59 154.96 295.56 166.25C295.67 166.4 295.85 166.51 296.11 166.54C299.76 166.97 303.54 166.83 307.21 166.86C311.03 166.88 314.86 166.88 318.68 166.89C322.43 166.89 326.19 166.91 329.94 166.91C331.82 166.91 333.69 166.91 335.57 166.91C337.45 166.91 339.46 167.06 341.31 166.82C341.37 166.82 341.41 166.79 341.46 166.78C341.62 166.76 341.77 166.7 341.88 166.62C341.96 161.38 342.01 156.13 341.97 150.93C341.94 146.92 342 142.94 342.08 138.96V138.98Z" fill="#D68029"></path><path d="M332.05 139.34C332.03 139.11 332.01 138.89 331.98 138.66C331.98 138.64 331.93 138.62 331.86 138.6C331.8 138.56 331.63 138.53 331.35 138.52C330.11 138.47 328.77 138.48 327.51 138.47C326.3 138.46 325.08 138.45 323.87 138.44C321.3 138.42 318.73 138.4 316.16 138.38C313.64 138.36 311.11 138.35 308.59 138.33C306.03 138.32 303.43 138.29 300.88 138.31C300.8 138.31 300.73 138.31 300.66 138.31H300.64C300.69 139.84 300.72 141.37 300.73 142.9C300.81 142.92 300.92 142.94 301.1 142.94C303.56 143.01 306.11 143 308.59 143.01C311.17 143.02 313.75 143.03 316.33 143.05C318.86 143.06 321.4 143.07 323.93 143.08C325.2 143.08 326.46 143.09 327.73 143.1C329 143.1 330.36 143.13 331.61 143.1C331.65 143.1 331.67 143.1 331.71 143.1C331.82 143.1 331.92 143.1 331.99 143.08C332.03 142.37 332.05 141.66 332.01 140.96C331.98 140.42 332.01 139.88 332.05 139.34Z" fill="white"></path><path d="M336.44 148.24C336.42 148.01 336.39 147.79 336.36 147.56C336.36 147.54 336.3 147.52 336.22 147.5C336.15 147.46 335.96 147.43 335.64 147.42C334.22 147.37 332.7 147.38 331.26 147.37C329.88 147.36 328.49 147.35 327.11 147.34C324.18 147.32 321.25 147.3 318.33 147.28C315.46 147.26 312.58 147.24 309.71 147.23C306.79 147.21 303.83 147.18 300.93 147.2C300.83 147.2 300.76 147.2 300.68 147.2C300.68 147.2 300.66 147.2 300.65 147.2C300.71 148.73 300.75 150.26 300.75 151.79C300.84 151.81 300.97 151.83 301.17 151.83C303.97 151.9 306.88 151.89 309.71 151.91C312.65 151.93 315.59 151.94 318.53 151.95C321.42 151.96 324.3 151.98 327.19 151.99C328.63 151.99 330.08 152 331.52 152.01C332.97 152.01 334.51 152.04 335.94 152.01C335.98 152.01 336.01 152.01 336.05 152.01C336.17 152.01 336.29 152.01 336.37 151.99C336.42 151.28 336.44 150.57 336.39 149.87C336.36 149.33 336.39 148.79 336.44 148.25V148.24Z" fill="white"></path><path d="M327.81 157.07C327.79 156.84 327.77 156.62 327.75 156.39C327.75 156.37 327.7 156.35 327.65 156.33C327.59 156.29 327.45 156.26 327.21 156.25C326.14 156.2 324.98 156.21 323.89 156.2C322.84 156.2 321.79 156.18 320.74 156.17C318.52 156.15 316.3 156.13 314.07 156.12C311.89 156.1 309.71 156.09 307.52 156.08C305.3 156.07 303.06 156.04 300.85 156.06C300.78 156.06 300.72 156.06 300.66 156.06C300.66 156.06 300.65 156.06 300.64 156.06C300.68 157.59 300.71 159.12 300.71 160.65C300.78 160.67 300.88 160.69 301.03 160.69C303.16 160.76 305.36 160.75 307.51 160.76C309.74 160.77 311.97 160.78 314.2 160.79C316.39 160.79 318.58 160.81 320.77 160.82C321.87 160.82 322.96 160.82 324.06 160.83C325.16 160.83 326.33 160.86 327.41 160.83C327.44 160.83 327.47 160.83 327.49 160.83C327.58 160.83 327.67 160.83 327.74 160.81C327.78 160.1 327.79 159.39 327.76 158.69C327.73 158.15 327.76 157.61 327.8 157.07H327.81Z" fill="white"></path></g><defs><clipPath id="clip0_2723_798"><rect width="453.61" height="394.66" fill="white"></rect></clipPath></defs></svg>