<svg width="512" height="512" viewBox="0 0 512 512" fill="none" xmlns="http://www.w3.org/2000/svg">
<path d="M458.71 477.528H490.5C498.23 477.528 504.5 471.268 504.5 463.528V436.098C504.5 428.368 498.23 422.108 490.5 422.108H21.5C13.77 422.108 7.5 428.368 7.5 436.098V463.528C7.5 471.268 13.77 477.528 21.5 477.528H424.01M314.906 422.105V477.531M285.749 422.105L256.554 477.531M229.735 422.105L200.54 477.531M173.721 422.105L144.526 477.531M117.707 422.105L88.512 477.531M61.693 422.105L32.498 477.531M487.936 169.254L457.289 166.802C456.506 166.741 455.761 166.436 455.16 165.93C454.559 165.423 454.131 164.741 453.938 163.98C451.062 152.514 446.51 141.534 440.429 131.397C440.026 130.721 439.846 129.936 439.913 129.153C439.979 128.369 440.29 127.626 440.801 127.029L460.747 103.613C462.113 102.009 462.824 99.9505 462.74 97.846C462.656 95.7415 461.782 93.7459 460.293 92.2568L437.857 69.8207C436.368 68.3316 434.372 67.4579 432.268 67.3738C430.163 67.2897 428.104 68.0012 426.501 69.3667L403.085 89.3128C402.487 89.8237 401.744 90.1345 400.961 90.2012C400.177 90.2679 399.393 90.0873 398.717 89.6847C388.58 83.6034 377.6 79.0513 366.134 76.1758C365.372 75.9824 364.69 75.5551 364.184 74.954C363.678 74.3529 363.373 73.6082 363.312 72.8247L360.86 42.1777C360.692 40.0783 359.739 38.1191 358.192 36.6904C356.644 35.2618 354.615 34.4686 352.509 34.4688H320.779C318.673 34.4686 316.644 35.2618 315.096 36.6904C313.549 38.1191 312.596 40.0783 312.428 42.1777L309.976 72.8247C309.915 73.6082 309.61 74.3529 309.104 74.954C308.598 75.5551 307.916 75.9824 307.154 76.1758C295.688 79.052 284.709 83.604 274.571 89.6847C273.895 90.0873 273.111 90.2679 272.327 90.2012C271.544 90.1345 270.801 89.8237 270.203 89.3128L246.787 69.3667C245.184 68.001 243.125 67.2893 241.02 67.3734C238.916 67.4576 236.92 68.3314 235.431 69.8207L212.995 92.2568C211.506 93.746 210.632 95.7416 210.548 97.846C210.464 99.9504 211.175 102.009 212.541 103.613L232.487 127.029C232.998 127.626 233.309 128.369 233.375 129.153C233.442 129.936 233.262 130.721 232.859 131.397C226.778 141.534 222.226 152.513 219.35 163.98C219.157 164.741 218.729 165.423 218.128 165.93C217.527 166.436 216.782 166.741 215.999 166.802L185.352 169.254C183.253 169.422 181.293 170.374 179.865 171.922C178.436 173.47 177.643 175.499 177.643 177.605V209.335C177.643 211.441 178.436 213.47 179.865 215.018C181.293 216.565 183.253 217.518 185.352 217.686L216 220.138C216.783 220.199 217.528 220.504 218.129 221.01C218.73 221.516 219.158 222.198 219.351 222.96C222.227 234.426 226.779 245.405 232.86 255.543C233.263 256.218 233.443 257.003 233.376 257.787C233.31 258.57 232.999 259.313 232.488 259.911L212.542 283.327C211.176 284.93 210.465 286.989 210.549 289.094C210.633 291.198 211.507 293.194 212.996 294.683L235.432 317.119C236.921 318.608 238.917 319.482 241.021 319.566C243.126 319.65 245.185 318.938 246.788 317.573L270.204 297.627C270.802 297.116 271.545 296.805 272.328 296.738C273.112 296.672 273.896 296.852 274.572 297.255C284.709 303.336 295.689 307.888 307.155 310.764C307.917 310.957 308.599 311.384 309.105 311.986C309.611 312.587 309.916 313.331 309.977 314.115L312.429 344.762C312.597 346.861 313.55 348.82 315.097 350.249C316.645 351.678 318.674 352.471 320.78 352.471H352.51C354.616 352.471 356.645 351.678 358.193 350.249C359.74 348.82 360.693 346.861 360.861 344.762L363.313 314.115C363.374 313.331 363.679 312.587 364.185 311.986C364.691 311.384 365.373 310.957 366.135 310.764C377.601 307.888 388.58 303.336 398.718 297.255C399.394 296.852 400.178 296.672 400.962 296.738C401.745 296.805 402.488 297.116 403.086 297.627L426.502 317.573C428.105 318.939 430.164 319.65 432.269 319.566C434.373 319.482 436.369 318.608 437.858 317.119L460.294 294.683C461.783 293.193 462.657 291.198 462.741 289.094C462.825 286.989 462.114 284.93 460.748 283.327L440.802 259.911C440.291 259.313 439.98 258.57 439.914 257.787C439.847 257.003 440.027 256.218 440.43 255.543C446.511 245.405 451.063 234.426 453.939 222.96C454.133 222.198 454.56 221.516 455.161 221.01C455.762 220.504 456.507 220.199 457.29 220.138L487.937 217.686C490.037 217.518 491.996 216.565 493.424 215.018C494.853 213.47 495.646 211.441 495.646 209.335V177.605C495.646 175.498 494.852 173.469 493.424 171.922C491.995 170.374 490.036 169.422 487.936 169.254Z" stroke="#D68029" stroke-width="15" stroke-miterlimit="10" stroke-linecap="round" stroke-linejoin="round"/>
<path d="M336.644 221.547C352.15 221.547 364.72 208.976 364.72 193.471C364.72 177.965 352.15 165.395 336.644 165.395C321.138 165.395 308.568 177.965 308.568 193.471C308.568 208.976 321.138 221.547 336.644 221.547Z" stroke="#D68029" stroke-width="15" stroke-miterlimit="10" stroke-linecap="round" stroke-linejoin="round"/>
<path d="M302.431 119.418C312.831 114.598 324.421 111.908 336.641 111.908C381.691 111.908 418.201 148.428 418.201 193.468C418.201 238.508 381.691 275.028 336.641 275.028C291.601 275.028 255.091 238.508 255.091 193.468C255.091 173.098 262.561 154.478 274.901 140.188M190.34 323.476L171.749 309.809C172.291 306.364 172.579 302.834 172.579 299.237C172.579 295.64 172.291 292.11 171.749 288.665L190.34 274.998C192.031 273.755 193.204 271.932 193.634 269.878C194.065 267.824 193.723 265.683 192.674 263.865L179.514 241.072C178.465 239.255 176.782 237.888 174.787 237.234C172.793 236.58 170.628 236.684 168.706 237.527L147.562 246.799C142.056 242.334 135.881 238.765 129.263 236.224L126.722 213.288C126.491 211.202 125.498 209.275 123.935 207.875C122.371 206.475 120.346 205.7 118.248 205.7H91.9278C89.8289 205.7 87.8038 206.474 86.2402 207.874C84.6766 209.274 83.6845 211.202 83.4538 213.288L80.9128 236.224C74.2948 238.765 68.1192 242.334 62.6138 246.8L41.4698 237.528C39.5478 236.686 37.3825 236.581 35.3883 237.235C33.3942 237.889 31.7113 239.256 30.6618 241.073L17.5018 263.866C16.4523 265.684 16.1102 267.825 16.5408 269.879C16.9715 271.933 18.1447 273.756 19.8358 274.999L38.4268 288.666C37.8848 292.111 37.5968 295.641 37.5968 299.239C37.5968 302.837 37.8848 306.366 38.4268 309.811L19.8358 323.478C18.1448 324.721 16.9718 326.545 16.5411 328.599C16.1105 330.653 16.4525 332.794 17.5018 334.611L30.6618 357.404C31.7112 359.222 33.394 360.588 35.3882 361.242C37.3824 361.897 39.5478 361.792 41.4698 360.949L62.6138 351.677C68.1195 356.143 74.295 359.712 80.9128 362.253L83.4538 385.189C83.6849 387.275 84.6772 389.203 86.2407 390.603C87.8042 392.003 89.8291 392.777 91.9278 392.777H118.248C120.347 392.777 122.372 392.003 123.935 390.603C125.499 389.203 126.491 387.275 126.722 385.189L129.263 362.253C135.881 359.712 142.056 356.143 147.562 351.677L168.706 360.949C170.628 361.792 172.793 361.896 174.787 361.242C176.781 360.588 178.464 359.222 179.514 357.404L192.674 334.611C193.723 332.793 194.065 330.652 193.635 328.598C193.204 326.543 192.031 324.72 190.34 323.476Z" stroke="#D68029" stroke-width="15" stroke-miterlimit="10" stroke-linecap="round" stroke-linejoin="round"/>
<path d="M98.1195 329.508C100.36 330.028 102.69 330.298 105.09 330.298C122.24 330.298 136.15 316.388 136.15 299.238C136.15 282.078 122.24 268.168 105.09 268.168C87.9295 268.168 74.0195 282.078 74.0195 299.238C74.0195 301.498 74.2595 303.708 74.7195 305.828" stroke="#D68029" stroke-width="15" stroke-miterlimit="10" stroke-linecap="round" stroke-linejoin="round"/>
</svg>
