<svg width="512" height="512" viewBox="0 0 512 512" fill="none" xmlns="http://www.w3.org/2000/svg">
<path d="M493.2 114.96C492.456 114.042 491.517 113.301 490.452 112.789C489.387 112.277 488.222 112.008 487.04 112H480V24C480 21.8783 479.157 19.8434 477.657 18.3431C476.157 16.8429 474.122 16 472 16H312C309.878 16 307.843 16.8429 306.343 18.3431C304.843 19.8434 304 21.8783 304 24V112H296.96C295.778 112.008 294.613 112.277 293.548 112.789C292.483 113.301 291.544 114.042 290.8 114.96C290.043 115.886 289.505 116.972 289.228 118.136C288.951 119.3 288.941 120.512 289.2 121.68L296.16 153.68C296.545 155.472 297.534 157.078 298.961 158.228C300.388 159.379 302.167 160.004 304 160H480C481.833 160.004 483.612 159.379 485.039 158.228C486.466 157.078 487.455 155.472 487.84 153.68L494.8 121.68C495.059 120.512 495.049 119.3 494.772 118.136C494.495 116.972 493.957 115.886 493.2 114.96ZM320 32H464V112H408C405.878 112 403.843 112.843 402.343 114.343C400.843 115.843 400 117.878 400 120H384C384 117.878 383.157 115.843 381.657 114.343C380.157 112.843 378.122 112 376 112H320V32ZM473.6 144H310.4L306.96 128H368C368 130.122 368.843 132.157 370.343 133.657C371.843 135.157 373.878 136 376 136H408C410.122 136 412.157 135.157 413.657 133.657C415.157 132.157 416 130.122 416 128H477.04L473.6 144ZM168 336H40C33.6406 336.019 27.5472 338.554 23.0504 343.05C18.5537 347.547 16.019 353.641 16 360V440C16.019 446.359 18.5537 452.453 23.0504 456.95C27.5472 461.446 33.6406 463.981 40 464H70.32L64.96 486.08C64.6493 487.26 64.6177 488.496 64.8676 489.69C65.1176 490.884 65.6422 492.004 66.4 492.96C67.1534 493.913 68.1141 494.683 69.2091 495.209C70.3042 495.736 71.5049 496.007 72.72 496H135.28C136.495 496.007 137.696 495.736 138.791 495.209C139.886 494.683 140.847 493.913 141.6 492.96C142.358 492.004 142.882 490.884 143.132 489.69C143.382 488.496 143.351 487.26 143.04 486.08L137.68 464H168C174.359 463.981 180.453 461.446 184.95 456.95C189.446 452.453 191.981 446.359 192 440V360C191.981 353.641 189.446 347.547 184.95 343.05C180.453 338.554 174.359 336.019 168 336ZM82.88 480L86.8 464H121.2L125.12 480H82.88ZM176 440C176 442.122 175.157 444.157 173.657 445.657C172.157 447.157 170.122 448 168 448H40C37.8783 448 35.8434 447.157 34.3431 445.657C32.8429 444.157 32 442.122 32 440V432H176V440ZM176 416H32V360C32 357.878 32.8429 355.843 34.3431 354.343C35.8434 352.843 37.8783 352 40 352H168C170.122 352 172.157 352.843 173.657 354.343C175.157 355.843 176 357.878 176 360V416ZM472 320H408C401.641 320.019 395.547 322.554 391.05 327.05C386.554 331.547 384.019 337.641 384 344V472C384.019 478.359 386.554 484.453 391.05 488.95C395.547 493.446 401.641 495.981 408 496H472C478.359 495.981 484.453 493.446 488.95 488.95C493.446 484.453 495.981 478.359 496 472V344C495.981 337.641 493.446 331.547 488.95 327.05C484.453 322.554 478.359 320.019 472 320ZM456 336C456 338.122 455.157 340.157 453.657 341.657C452.157 343.157 450.122 344 448 344H432C429.878 344 427.843 343.157 426.343 341.657C424.843 340.157 424 338.122 424 336H456ZM480 472C480 474.122 479.157 476.157 477.657 477.657C476.157 479.157 474.122 480 472 480H408C405.878 480 403.843 479.157 402.343 477.657C400.843 476.157 400 474.122 400 472V344C400 341.878 400.843 339.843 402.343 338.343C403.843 336.843 405.878 336 408 336C408.019 342.359 410.554 348.453 415.05 352.95C419.547 357.446 425.641 359.981 432 360H448C454.359 359.981 460.453 357.446 464.95 352.95C469.446 348.453 471.981 342.359 472 336C474.122 336 476.157 336.843 477.657 338.343C479.157 339.843 480 341.878 480 344V472ZM136 16H40C33.6406 16.019 27.5472 18.5537 23.0504 23.0504C18.5537 27.5472 16.019 33.6406 16 40V168C16.019 174.359 18.5537 180.453 23.0504 184.95C27.5472 189.446 33.6406 191.981 40 192H136C142.359 191.981 148.453 189.446 152.95 184.95C157.446 180.453 159.981 174.359 160 168V40C159.981 33.6406 157.446 27.5472 152.95 23.0504C148.453 18.5537 142.359 16.019 136 16ZM144 168C144 170.122 143.157 172.157 141.657 173.657C140.157 175.157 138.122 176 136 176H40C37.8783 176 35.8434 175.157 34.3431 173.657C32.8429 172.157 32 170.122 32 168V40C32 37.8783 32.8429 35.8434 34.3431 34.3431C35.8434 32.8429 37.8783 32 40 32H136C138.122 32 140.157 32.8429 141.657 34.3431C143.157 35.8434 144 37.8783 144 40V168Z" fill="#D68029"/>
<path d="M80 144H96V160H80V144ZM336.96 232.8L317.76 230.4L329.68 215.12C330.877 213.578 331.465 211.65 331.332 209.703C331.199 207.756 330.355 205.925 328.96 204.56L307.44 183.04C306.07 181.654 304.24 180.817 302.296 180.684C300.352 180.551 298.426 181.133 296.88 182.32L281.6 194.24L279.2 175.04C278.943 173.098 277.991 171.314 276.52 170.02C275.049 168.726 273.159 168.008 271.2 168H240.8C238.841 168.008 236.951 168.726 235.48 170.02C234.009 171.314 233.057 173.098 232.8 175.04L230.4 194.24L215.12 182.32C213.574 181.133 211.648 180.551 209.704 180.684C207.76 180.817 205.93 181.654 204.56 183.04L183.04 204.56C181.645 205.925 180.801 207.756 180.668 209.703C180.535 211.65 181.123 213.578 182.32 215.12L194.24 230.4L175.04 232.8C173.098 233.057 171.314 234.009 170.02 235.48C168.726 236.951 168.008 238.841 168 240.8V271.2C168.008 273.159 168.726 275.049 170.02 276.52C171.314 277.991 173.098 278.943 175.04 279.2L194.24 281.6L182.32 296.88C181.123 298.422 180.535 300.35 180.668 302.297C180.801 304.244 181.645 306.075 183.04 307.44L204.56 328.96C205.93 330.346 207.76 331.183 209.704 331.316C211.648 331.449 213.574 330.867 215.12 329.68L230.4 317.76L232.8 336.96C233.057 338.902 234.009 340.686 235.48 341.98C236.951 343.274 238.841 343.992 240.8 344H271.2C273.159 343.992 275.049 343.274 276.52 341.98C277.991 340.686 278.943 338.902 279.2 336.96L281.6 317.76L296.88 329.68C298.426 330.867 300.352 331.449 302.296 331.316C304.24 331.183 306.07 330.346 307.44 328.96L328.96 307.44C330.355 306.075 331.199 304.244 331.332 302.297C331.465 300.35 330.877 298.422 329.68 296.88L317.76 281.6L336.96 279.2C338.902 278.943 340.686 277.991 341.98 276.52C343.274 275.049 343.992 273.159 344 271.2V240.8C343.992 238.841 343.274 236.951 341.98 235.48C340.686 234.009 338.902 233.057 336.96 232.8ZM328 264.16L309.04 266.56C307.549 266.735 306.14 267.333 304.978 268.282C303.815 269.232 302.949 270.494 302.48 271.92C301.76 273.84 300.96 275.76 300.08 277.6C299.409 278.938 299.135 280.44 299.291 281.929C299.447 283.417 300.026 284.83 300.96 286L312.72 301.12L301.12 312.72L286 300.96C284.83 300.026 283.417 299.447 281.929 299.291C280.44 299.135 278.938 299.409 277.6 300.08C275.721 300.976 273.799 301.777 271.84 302.48C270.432 302.965 269.189 303.839 268.255 304.999C267.321 306.16 266.733 307.56 266.56 309.04L264.16 328H247.84L245.44 309.04C245.267 307.56 244.679 306.16 243.745 304.999C242.811 303.839 241.568 302.965 240.16 302.48C238.201 301.777 236.279 300.976 234.4 300.08C233.062 299.409 231.56 299.135 230.071 299.291C228.583 299.447 227.17 300.026 226 300.96L210.88 312.72L199.28 301.12L211.04 286C211.974 284.83 212.553 283.417 212.709 281.929C212.865 280.44 212.591 278.938 211.92 277.6C211.04 275.76 210.24 273.84 209.52 271.92C209.051 270.494 208.185 269.232 207.022 268.282C205.86 267.333 204.451 266.735 202.96 266.56L184 264.16V247.84L202.96 245.44C204.451 245.265 205.86 244.667 207.022 243.718C208.185 242.768 209.051 241.506 209.52 240.08C210.24 238.16 211.04 236.24 211.92 234.4C212.591 233.062 212.865 231.56 212.709 230.071C212.553 228.583 211.974 227.17 211.04 226L199.28 210.88L210.88 199.28L226 211.04C227.17 211.974 228.583 212.553 230.071 212.709C231.56 212.865 233.062 212.591 234.4 211.92C236.24 211.04 238.16 210.24 240.08 209.52C241.506 209.051 242.768 208.185 243.718 207.022C244.667 205.86 245.265 204.451 245.44 202.96L247.84 184H264.16L266.56 202.96C266.735 204.451 267.333 205.86 268.282 207.022C269.232 208.185 270.494 209.051 271.92 209.52C273.84 210.24 275.76 211.04 277.6 211.92C278.938 212.591 280.44 212.865 281.929 212.709C283.417 212.553 284.83 211.974 286 211.04L301.12 199.28L312.72 210.88L300.96 226C300.026 227.17 299.447 228.583 299.291 230.071C299.135 231.56 299.409 233.062 300.08 234.4C300.96 236.24 301.76 238.16 302.48 240.08C302.949 241.506 303.815 242.768 304.978 243.718C306.14 244.667 307.549 245.265 309.04 245.44L328 247.84V264.16Z" fill="#D68029"/>
<path d="M296 256C296 248.089 293.654 240.355 289.259 233.777C284.864 227.199 278.616 222.072 271.307 219.045C263.998 216.017 255.956 215.225 248.196 216.769C240.437 218.312 233.31 222.122 227.716 227.716C222.122 233.31 218.312 240.437 216.769 248.196C215.225 255.956 216.017 263.998 219.045 271.307C222.072 278.616 227.199 284.864 233.777 289.259C240.355 293.654 248.089 296 256 296C266.605 295.987 276.772 291.769 284.27 284.27C291.769 276.772 295.987 266.605 296 256ZM256 280C251.253 280 246.613 278.592 242.666 275.955C238.72 273.318 235.643 269.57 233.827 265.184C232.01 260.799 231.535 255.973 232.461 251.318C233.387 246.662 235.673 242.386 239.029 239.029C242.386 235.673 246.662 233.387 251.318 232.461C255.973 231.535 260.799 232.01 265.184 233.827C269.57 235.643 273.318 238.72 275.955 242.666C278.592 246.613 280 251.253 280 256C280 262.365 277.471 268.47 272.971 272.971C268.47 277.471 262.365 280 256 280ZM360 240V256H392C394.122 256 396.157 255.157 397.657 253.657C399.157 252.157 400 250.122 400 248V176H384V240H360ZM88 256V320H104V264H152V248H96C93.8783 248 91.8434 248.843 90.3431 250.343C88.8429 251.843 88 253.878 88 256ZM248 152H264V104C264 101.878 263.157 99.8434 261.657 98.3431C260.157 96.8429 258.122 96 256 96H176V112H248V152ZM264 360H248V424C248 426.122 248.843 428.157 250.343 429.657C251.843 431.157 253.878 432 256 432H368V416H264V360Z" fill="#D68029"/>
</svg>
