<svg width="512" height="512" viewBox="0 0 512 512" fill="none" xmlns="http://www.w3.org/2000/svg">
<path d="M455.998 294.64C453.877 294.64 451.842 293.797 450.341 292.297C448.841 290.797 447.998 288.762 447.998 286.64V152C447.998 149.879 448.841 147.844 450.341 146.343C451.842 144.843 453.877 144 455.998 144H476.686L415.998 83.3122L355.31 144H375.998C378.12 144 380.155 144.843 381.655 146.343C383.155 147.844 383.998 149.879 383.998 152V256C383.998 258.122 383.155 260.157 381.655 261.657C380.155 263.157 378.12 264 375.998 264C373.877 264 371.842 263.157 370.341 261.657C368.841 260.157 367.998 258.122 367.998 256V160H335.998C334.416 160 332.87 159.531 331.555 158.651C330.239 157.772 329.214 156.523 328.609 155.061C328.004 153.6 327.845 151.992 328.154 150.44C328.462 148.888 329.224 147.463 330.342 146.344L410.342 66.3442C411.842 64.8445 413.877 64.002 415.998 64.002C418.12 64.002 420.154 64.8445 421.654 66.3442L501.654 146.344C502.773 147.463 503.534 148.888 503.843 150.44C504.151 151.992 503.993 153.6 503.388 155.061C502.782 156.523 501.757 157.772 500.442 158.651C499.127 159.531 497.58 160 495.998 160H463.998V286.64C463.998 288.762 463.155 290.797 461.655 292.297C460.155 293.797 458.12 294.64 455.998 294.64ZM455.998 504H375.998C373.877 504 371.842 503.157 370.341 501.657C368.841 500.157 367.998 498.122 367.998 496C367.998 493.879 368.841 491.844 370.341 490.343C371.842 488.843 373.877 488 375.998 488H447.998V465.36C447.998 463.238 448.841 461.204 450.341 459.703C451.842 458.203 453.877 457.36 455.998 457.36C458.12 457.36 460.155 458.203 461.655 459.703C463.155 461.204 463.998 463.238 463.998 465.36V496C463.998 498.122 463.155 500.157 461.655 501.657C460.155 503.157 458.12 504 455.998 504ZM135.998 248C133.877 248 131.842 247.157 130.341 245.657C128.841 244.157 127.998 242.122 127.998 240V152C127.998 149.879 128.841 147.844 130.341 146.343C131.842 144.843 133.877 144 135.998 144H156.686L95.9983 83.3122L35.3103 144H55.9983C58.12 144 60.1549 144.843 61.6551 146.343C63.1554 147.844 63.9983 149.879 63.9983 152V240C63.9983 242.122 63.1554 244.157 61.6551 245.657C60.1549 247.157 58.12 248 55.9983 248C53.8766 248 51.8417 247.157 50.3414 245.657C48.8412 244.157 47.9983 242.122 47.9983 240V160H15.9983C14.4163 160 12.8699 159.531 11.5546 158.651C10.2393 157.772 9.21423 156.523 8.60887 155.061C8.00351 153.6 7.84509 151.992 8.15363 150.44C8.46217 148.888 9.22382 147.463 10.3423 146.344L90.3423 66.3442C91.8425 64.8445 93.877 64.002 95.9983 64.002C98.1196 64.002 100.154 64.8445 101.654 66.3442L181.654 146.344C182.773 147.463 183.534 148.888 183.843 150.44C184.152 151.992 183.993 153.6 183.388 155.061C182.782 156.523 181.757 157.772 180.442 158.651C179.127 159.531 177.58 160 175.998 160H143.998V240C143.998 242.122 143.155 244.157 141.655 245.657C140.155 247.157 138.12 248 135.998 248Z" fill="#D68029"/>
<path d="M295.998 229.44C293.877 229.44 291.842 228.597 290.341 227.097C288.841 225.597 287.998 223.562 287.998 221.44V96.0002C287.998 93.8785 288.841 91.8437 290.341 90.3434C291.842 88.8431 293.877 88.0002 295.998 88.0002H316.686L255.998 27.3122L195.31 88.0002H215.998C218.12 88.0002 220.155 88.8431 221.655 90.3434C223.155 91.8437 223.998 93.8785 223.998 96.0002V184.4C223.998 186.522 223.155 188.557 221.655 190.057C220.155 191.557 218.12 192.4 215.998 192.4C213.877 192.4 211.842 191.557 210.341 190.057C208.841 188.557 207.998 186.522 207.998 184.4V104H175.998C174.416 104 172.87 103.531 171.555 102.651C170.239 101.772 169.214 100.523 168.609 99.0615C168.004 97.5999 167.845 95.9916 168.154 94.44C168.462 92.8884 169.224 91.4631 170.342 90.3442L250.342 10.3442C251.843 8.84448 253.877 8.00195 255.998 8.00195C258.12 8.00195 260.154 8.84448 261.654 10.3442L341.654 90.3442C342.773 91.4631 343.534 92.8884 343.843 94.44C344.152 95.9916 343.993 97.5999 343.388 99.0615C342.782 100.523 341.757 101.772 340.442 102.651C339.127 103.531 337.58 104 335.998 104H303.998V221.44C303.998 223.562 303.155 225.597 301.655 227.097C300.155 228.597 298.12 229.44 295.998 229.44ZM375.998 504C351.81 504.037 328.114 497.162 307.702 484.184C306.803 483.626 306.023 482.895 305.408 482.034C304.793 481.173 304.355 480.198 304.119 479.166C303.884 478.134 303.855 477.065 304.036 476.022C304.216 474.979 304.602 473.982 305.17 473.089C305.739 472.196 306.479 471.425 307.347 470.82C308.216 470.215 309.196 469.789 310.231 469.566C311.266 469.342 312.334 469.327 313.375 469.519C314.416 469.712 315.408 470.109 316.294 470.688C334.138 482.033 354.853 488.04 375.998 488C393.368 488.005 410.501 483.97 426.042 476.213C441.584 468.457 455.109 457.192 465.547 443.309C475.986 429.426 483.053 413.305 486.188 396.221C489.324 379.136 488.444 361.557 483.616 344.871C478.788 328.186 470.146 312.852 458.372 300.082C446.598 287.312 432.015 277.455 415.776 271.29C399.537 265.126 382.087 262.823 364.805 264.564C347.522 266.305 330.882 272.041 316.198 281.32C315.311 281.913 314.314 282.322 313.267 282.524C312.219 282.726 311.141 282.716 310.097 282.495C309.054 282.275 308.064 281.847 307.188 281.238C306.312 280.629 305.566 279.851 304.995 278.95C304.424 278.049 304.04 277.042 303.863 275.99C303.687 274.937 303.723 273.86 303.969 272.822C304.216 271.784 304.667 270.806 305.297 269.945C305.927 269.083 306.723 268.357 307.638 267.808C324.419 257.2 343.436 250.64 363.188 248.647C382.94 246.654 402.885 249.283 421.447 256.326C440.008 263.368 456.676 274.632 470.135 289.226C483.593 303.82 493.472 321.345 498.992 340.414C504.511 359.484 505.519 379.576 501.936 399.102C498.353 418.629 490.277 437.054 478.346 452.922C466.416 468.79 450.959 481.665 433.195 490.53C415.432 499.395 395.851 504.006 375.998 504Z" fill="#D68029"/>
<path d="M336 424C334.418 424 332.872 423.53 331.556 422.651C330.241 421.772 329.216 420.523 328.611 419.061C328.005 417.6 327.847 415.991 328.155 414.44C328.464 412.888 329.226 411.463 330.344 410.344L410.344 330.344C411.853 328.887 413.874 328.08 415.971 328.099C418.069 328.117 420.075 328.958 421.559 330.441C423.042 331.925 423.883 333.931 423.901 336.029C423.92 338.126 423.113 340.147 421.656 341.656L341.656 421.656C340.156 423.156 338.122 424 336 424ZM344 368C339.253 368 334.613 366.592 330.666 363.955C326.72 361.318 323.643 357.57 321.827 353.184C320.01 348.799 319.535 343.973 320.461 339.318C321.387 334.662 323.673 330.386 327.029 327.029C330.386 323.673 334.662 321.387 339.318 320.461C343.973 319.535 348.799 320.01 353.184 321.827C357.57 323.643 361.318 326.72 363.955 330.666C366.592 334.613 368 339.253 368 344C368 350.365 365.471 356.47 360.971 360.971C356.47 365.471 350.365 368 344 368ZM344 336C342.418 336 340.871 336.469 339.555 337.348C338.24 338.227 337.214 339.477 336.609 340.939C336.003 342.4 335.845 344.009 336.154 345.561C336.462 347.113 337.224 348.538 338.343 349.657C339.462 350.776 340.887 351.538 342.439 351.846C343.991 352.155 345.6 351.997 347.061 351.391C348.523 350.786 349.773 349.76 350.652 348.445C351.531 347.129 352 345.582 352 344C352 341.878 351.157 339.843 349.657 338.343C348.157 336.843 346.122 336 344 336ZM408 432C403.253 432 398.613 430.592 394.666 427.955C390.72 425.318 387.643 421.57 385.827 417.184C384.01 412.799 383.535 407.973 384.461 403.318C385.387 398.662 387.673 394.386 391.029 391.029C394.386 387.673 398.662 385.387 403.318 384.461C407.973 383.535 412.799 384.01 417.184 385.827C421.57 387.643 425.318 390.72 427.955 394.666C430.592 398.613 432 403.253 432 408C432 414.365 429.471 420.47 424.971 424.971C420.47 429.471 414.365 432 408 432ZM408 400C406.418 400 404.871 400.469 403.555 401.348C402.24 402.227 401.214 403.477 400.609 404.939C400.003 406.4 399.845 408.009 400.154 409.561C400.462 411.113 401.224 412.538 402.343 413.657C403.462 414.776 404.887 415.538 406.439 415.846C407.991 416.155 409.6 415.997 411.061 415.391C412.523 414.786 413.773 413.76 414.652 412.445C415.531 411.129 416 409.582 416 408C416 405.878 415.157 403.843 413.657 402.343C412.157 400.843 410.122 400 408 400ZM136 280H16C13.8783 280 11.8434 279.157 10.3431 277.657C8.84285 276.157 8 274.122 8 272V240C8 237.878 8.84285 235.843 10.3431 234.343C11.8434 232.843 13.8783 232 16 232H142C144.122 232 146.157 232.843 147.657 234.343C149.157 235.843 150 237.878 150 240C150 242.122 149.157 244.157 147.657 245.657C146.157 247.157 144.122 248 142 248H24V264H136C138.122 264 140.157 264.843 141.657 266.343C143.157 267.843 144 269.878 144 272C144 274.122 143.157 276.157 141.657 277.657C140.157 279.157 138.122 280 136 280Z" fill="#D68029"/>
<path d="M142 312H16C13.8783 312 11.8434 311.157 10.3431 309.657C8.84285 308.157 8 306.122 8 304V272C8 269.878 8.84285 267.843 10.3431 266.343C11.8434 264.843 13.8783 264 16 264H136C138.122 264 140.157 264.843 141.657 266.343C143.157 267.843 144 269.878 144 272C144 274.122 143.157 276.157 141.657 277.657C140.157 279.157 138.122 280 136 280H24V296H142C144.122 296 146.157 296.843 147.657 298.343C149.157 299.843 150 301.878 150 304C150 306.122 149.157 308.157 147.657 309.657C146.157 311.157 144.122 312 142 312Z" fill="#D68029"/>
<path d="M163.6 344H16C13.8783 344 11.8434 343.157 10.3431 341.657C8.84285 340.157 8 338.122 8 336V304C8 301.878 8.84285 299.843 10.3431 298.343C11.8434 296.843 13.8783 296 16 296H142C144.122 296 146.157 296.843 147.657 298.343C149.157 299.843 150 301.878 150 304C150 306.122 149.157 308.157 147.657 309.657C146.157 311.157 144.122 312 142 312H24V328H163.6C165.722 328 167.757 328.843 169.257 330.343C170.757 331.843 171.6 333.878 171.6 336C171.6 338.122 170.757 340.157 169.257 341.657C167.757 343.157 165.722 344 163.6 344Z" fill="#D68029"/>
<path d="M192 376H16C13.8783 376 11.8434 375.157 10.3431 373.657C8.84285 372.157 8 370.122 8 368V336C8 333.878 8.84285 331.843 10.3431 330.343C11.8434 328.843 13.8783 328 16 328H163.6C165.722 328 167.757 328.843 169.257 330.343C170.757 331.843 171.6 333.878 171.6 336C171.6 338.122 170.757 340.157 169.257 341.657C167.757 343.157 165.722 344 163.6 344H24V360H184V354C184 351.878 184.843 349.843 186.343 348.343C187.843 346.843 189.878 346 192 346C194.122 346 196.157 346.843 197.657 348.343C199.157 349.843 200 351.878 200 354V368C200 370.122 199.157 372.157 197.657 373.657C196.157 375.157 194.122 376 192 376Z" fill="#D68029"/>
<path d="M136 408H16C13.8783 408 11.8434 407.157 10.3431 405.657C8.84285 404.157 8 402.122 8 400V368C8 365.878 8.84285 363.843 10.3431 362.343C11.8434 360.843 13.8783 360 16 360H136C138.122 360 140.157 360.843 141.657 362.343C143.157 363.843 144 365.878 144 368V400C144 402.122 143.157 404.157 141.657 405.657C140.157 407.157 138.122 408 136 408ZM24 392H128V376H24V392Z" fill="#D68029"/>
<path d="M136 440H16C13.8783 440 11.8434 439.157 10.3431 437.657C8.84285 436.157 8 434.122 8 432V400C8 397.878 8.84285 395.843 10.3431 394.343C11.8434 392.843 13.8783 392 16 392H136C138.122 392 140.157 392.843 141.657 394.343C143.157 395.843 144 397.878 144 400V432C144 434.122 143.157 436.157 141.657 437.657C140.157 439.157 138.122 440 136 440ZM24 424H128V408H24V424Z" fill="#D68029"/>
<path d="M136 472H16C13.8783 472 11.8434 471.157 10.3431 469.657C8.84285 468.157 8 466.122 8 464V432C8 429.878 8.84285 427.843 10.3431 426.343C11.8434 424.843 13.8783 424 16 424H136C138.122 424 140.157 424.843 141.657 426.343C143.157 427.843 144 429.878 144 432V464C144 466.122 143.157 468.157 141.657 469.657C140.157 471.157 138.122 472 136 472ZM24 456H128V440H24V456Z" fill="#D68029"/>
<path d="M136 504H16C13.8783 504 11.8434 503.157 10.3431 501.657C8.84285 500.157 8 498.122 8 496V464C8 461.878 8.84285 459.843 10.3431 458.343C11.8434 456.843 13.8783 456 16 456H136C138.122 456 140.157 456.843 141.657 458.343C143.157 459.843 144 461.878 144 464V496C144 498.122 143.157 500.157 141.657 501.657C140.157 503.157 138.122 504 136 504ZM24 488H128V472H24V488ZM224 368C205.013 368 186.452 362.37 170.665 351.821C154.878 341.272 142.574 326.279 135.308 308.738C128.042 291.196 126.14 271.894 129.845 253.271C133.549 234.649 142.692 217.544 156.118 204.118C169.544 190.692 186.649 181.549 205.271 177.845C223.894 174.14 243.196 176.042 260.738 183.308C278.279 190.574 293.272 202.878 303.821 218.665C314.37 234.452 320 253.013 320 272C319.972 297.452 309.849 321.854 291.852 339.852C273.854 357.849 249.452 367.973 224 368ZM224 192C208.177 192 192.71 196.692 179.554 205.482C166.398 214.273 156.145 226.767 150.09 241.385C144.035 256.003 142.45 272.089 145.537 287.607C148.624 303.126 156.243 317.38 167.431 328.569C178.62 339.757 192.874 347.376 208.393 350.463C223.911 353.55 239.997 351.965 254.615 345.91C269.233 339.855 281.727 329.602 290.518 316.446C299.308 303.29 304 287.823 304 272C303.975 250.791 295.538 230.457 280.54 215.46C265.543 200.462 245.21 192.025 224 192Z" fill="#D68029"/>
<path d="M226.28 320H218C212.699 320.061 207.508 318.488 203.132 315.495C198.757 312.502 195.409 308.234 193.544 303.272C193.189 302.283 193.032 301.233 193.083 300.184C193.133 299.134 193.39 298.104 193.838 297.154C194.286 296.203 194.918 295.35 195.695 294.644C196.473 293.937 197.383 293.391 198.372 293.036C199.361 292.681 200.41 292.524 201.46 292.574C202.51 292.625 203.539 292.881 204.49 293.33C205.44 293.778 206.293 294.409 207 295.187C207.706 295.965 208.253 296.875 208.608 297.864C209.354 299.727 210.656 301.315 212.336 302.413C214.017 303.511 215.994 304.065 218 304H226.28C229.51 304.22 232.705 303.227 235.242 301.217C237.78 299.206 239.476 296.322 240 293.128C240.1 290.543 239.246 288.011 237.6 286.016C235.861 283.924 233.488 282.455 230.84 281.832L213.472 277.736C207.433 276.387 202.026 273.039 198.128 268.232C194.231 263.426 192.071 257.443 192 251.256C192.004 247.619 192.753 244.022 194.202 240.687C195.651 237.351 197.769 234.348 200.424 231.864C205.76 226.787 212.851 223.97 220.216 224H230C235.301 223.939 240.492 225.512 244.868 228.504C249.243 231.497 252.591 235.765 254.456 240.728C254.811 241.717 254.968 242.766 254.917 243.816C254.867 244.866 254.61 245.895 254.162 246.846C253.714 247.796 253.082 248.649 252.305 249.356C251.527 250.062 250.617 250.609 249.628 250.964C248.639 251.319 247.59 251.476 246.54 251.425C245.49 251.375 244.461 251.118 243.51 250.67C242.56 250.221 241.707 249.59 241 248.812C240.294 248.034 239.747 247.125 239.392 246.136C238.646 244.273 237.344 242.684 235.664 241.586C233.983 240.489 232.006 239.935 230 240H220.216C216.946 239.969 213.791 241.208 211.416 243.456C210.337 244.452 209.473 245.658 208.878 247.001C208.284 248.344 207.971 249.795 207.96 251.264C208.041 253.848 208.989 256.33 210.652 258.309C212.315 260.289 214.596 261.651 217.128 262.176L234.496 266.272C240.537 267.711 245.944 271.082 249.896 275.872C254.057 280.864 256.231 287.216 256 293.712C255.344 301.062 251.898 307.881 246.371 312.77C240.844 317.659 233.655 320.246 226.28 320Z" fill="#D68029"/>
<path d="M224 240C221.878 240 219.843 239.157 218.343 237.657C216.843 236.157 216 234.122 216 232V216C216 213.878 216.843 211.843 218.343 210.343C219.843 208.843 221.878 208 224 208C226.122 208 228.157 208.843 229.657 210.343C231.157 211.843 232 213.878 232 216V232C232 234.122 231.157 236.157 229.657 237.657C228.157 239.157 226.122 240 224 240ZM224 336C221.878 336 219.843 335.157 218.343 333.657C216.843 332.157 216 330.122 216 328V312C216 309.878 216.843 307.843 218.343 306.343C219.843 304.843 221.878 304 224 304C226.122 304 228.157 304.843 229.657 306.343C231.157 307.843 232 309.878 232 312V328C232 330.122 231.157 332.157 229.657 333.657C228.157 335.157 226.122 336 224 336ZM312 408H136C133.878 408 131.843 407.157 130.343 405.657C128.843 404.157 128 402.122 128 400V368C128 365.878 128.843 363.843 130.343 362.343C131.843 360.843 133.878 360 136 360H312C314.122 360 316.157 360.843 317.657 362.343C319.157 363.843 320 365.878 320 368V400C320 402.122 319.157 404.157 317.657 405.657C316.157 407.157 314.122 408 312 408ZM144 392H304V376H144V392Z" fill="#D68029"/>
<path d="M312 440H136C133.878 440 131.843 439.157 130.343 437.657C128.843 436.157 128 434.122 128 432V400C128 397.878 128.843 395.843 130.343 394.343C131.843 392.843 133.878 392 136 392H312C314.122 392 316.157 392.843 317.657 394.343C319.157 395.843 320 397.878 320 400V432C320 434.122 319.157 436.157 317.657 437.657C316.157 439.157 314.122 440 312 440ZM144 424H304V408H144V424Z" fill="#D68029"/>
<path d="M312 472H136C133.878 472 131.843 471.157 130.343 469.657C128.843 468.157 128 466.122 128 464V432C128 429.878 128.843 427.843 130.343 426.343C131.843 424.843 133.878 424 136 424H312C314.122 424 316.157 424.843 317.657 426.343C319.157 427.843 320 429.878 320 432V464C320 466.122 319.157 468.157 317.657 469.657C316.157 471.157 314.122 472 312 472ZM144 456H304V440H144V456Z" fill="#D68029"/>
<path d="M312 504H136C133.878 504 131.843 503.157 130.343 501.657C128.843 500.157 128 498.122 128 496V464C128 461.878 128.843 459.843 130.343 458.343C131.843 456.843 133.878 456 136 456H312C314.122 456 316.157 456.843 317.657 458.343C319.157 459.843 320 461.878 320 464V496C320 498.122 319.157 500.157 317.657 501.657C316.157 503.157 314.122 504 312 504ZM144 488H304V472H144V488Z" fill="#D68029"/>
</svg>
