<svg width="512" height="512" viewBox="0 0 512 512" fill="none" xmlns="http://www.w3.org/2000/svg">
<g clip-path="url(#clip0_3353_1665)">
<path d="M392.83 449.33H370.84M335.84 449.33H313.94M119.979 449.327H200.149M62.673 313.383V392.532M153.34 256H121.17M392.064 256H358.447M449.327 120.021V198.319M314.362 62.673H392.319M119.959 62.673H199.298M80.17 117.85H107.81C113.35 117.85 117.85 113.35 117.85 107.81V17.53C117.85 11.99 113.35 7.5 107.81 7.5H17.53C11.99 7.5 7.5 11.99 7.5 17.53V107.81C7.5 113.35 11.99 117.85 17.53 117.85H45.17M466.83 311.17H494.47C500.01 311.17 504.5 306.68 504.5 301.14V210.86C504.5 205.32 500.01 200.83 494.47 200.83H404.19C398.65 200.83 394.15 205.32 394.15 210.86V301.14C394.15 306.68 398.65 311.17 404.19 311.17H431.83M7.5 466.83V494.47C7.5 500.01 11.99 504.5 17.53 504.5H107.81C113.35 504.5 117.85 500.01 117.85 494.47V404.19C117.85 398.65 113.35 394.15 107.81 394.15H17.53C11.99 394.15 7.5 398.65 7.5 404.19V431.83M301.142 504.5H210.859C205.319 504.5 200.828 500.009 200.828 494.469V404.186C200.828 398.646 205.319 394.155 210.859 394.155H301.142C306.682 394.155 311.173 398.646 311.173 404.186V494.469C311.173 500.009 306.682 504.5 301.142 504.5ZM107.815 311.173H17.531C11.991 311.173 7.5 306.682 7.5 301.142V210.859C7.5 205.319 11.991 200.828 17.531 200.828H107.814C113.354 200.828 117.845 205.319 117.845 210.859V301.142C117.846 306.682 113.355 311.173 107.815 311.173ZM301.142 117.846H210.859C205.319 117.846 200.828 113.355 200.828 107.815V17.531C200.828 11.991 205.319 7.5 210.859 7.5H301.142C306.682 7.5 311.173 11.991 311.173 17.531V107.814C311.173 113.355 306.682 117.846 301.142 117.846ZM494.469 504.5H404.186C398.646 504.5 394.155 500.009 394.155 494.469V404.186C394.155 398.646 398.646 394.155 404.186 394.155H494.469C500.009 394.155 504.5 398.646 504.5 404.186V494.469C504.5 500.009 500.009 504.5 494.469 504.5ZM504.5 17.531V107.814C504.5 113.354 500.009 117.845 494.469 117.845H404.186C398.646 117.845 394.155 113.354 394.155 107.814V17.531C394.155 11.991 398.646 7.5 404.186 7.5H494.469C500.009 7.5 504.5 11.991 504.5 17.531ZM356.891 270.369V241.8C356.891 240.209 356.259 238.683 355.134 237.557C354.008 236.432 352.482 235.8 350.891 235.8H338.647C336.604 227.409 333.287 219.38 328.812 211.993L337.5 203.305C338.625 202.18 339.257 200.654 339.257 199.062C339.257 197.471 338.625 195.945 337.5 194.82L317.3 174.618C316.175 173.493 314.649 172.861 313.057 172.861C311.466 172.861 309.94 173.493 308.815 174.618L300.156 183.277C292.778 178.787 284.756 175.454 276.369 173.394V161.109C276.369 159.518 275.737 157.992 274.612 156.866C273.486 155.741 271.96 155.109 270.369 155.109H241.8C240.209 155.109 238.683 155.741 237.557 156.866C236.432 157.992 235.8 159.518 235.8 161.109V173.353C227.409 175.396 219.38 178.713 211.993 183.188L203.305 174.5C202.18 173.375 200.654 172.743 199.062 172.743C197.471 172.743 195.945 173.375 194.82 174.5L174.618 194.7C173.493 195.825 172.861 197.351 172.861 198.943C172.861 200.534 173.493 202.06 174.618 203.185L183.277 211.844C178.788 219.215 175.455 227.232 173.394 235.613H161.109C159.518 235.613 157.992 236.245 156.866 237.37C155.741 238.496 155.109 240.022 155.109 241.613V270.2C155.109 271.791 155.741 273.317 156.866 274.443C157.992 275.568 159.518 276.2 161.109 276.2H173.353C175.396 284.591 178.713 292.62 183.188 300.007L174.5 308.695C173.375 309.82 172.743 311.346 172.743 312.938C172.743 314.529 173.375 316.055 174.5 317.18L194.701 337.381C195.826 338.506 197.352 339.138 198.943 339.138C200.535 339.138 202.061 338.506 203.186 337.381L211.845 328.722C219.223 333.212 227.245 336.545 235.632 338.605V350.89C235.632 352.481 236.264 354.007 237.389 355.133C238.515 356.258 240.041 356.89 241.632 356.89H270.2C271.791 356.89 273.317 356.258 274.443 355.133C275.568 354.007 276.2 352.481 276.2 350.89V338.646C284.591 336.603 292.62 333.286 300.007 328.811L308.695 337.499C309.82 338.624 311.346 339.256 312.938 339.256C314.529 339.256 316.055 338.624 317.18 337.499L337.381 317.298C338.506 316.173 339.138 314.647 339.138 313.056C339.138 311.464 338.506 309.938 337.381 308.813L328.722 300.154C333.212 292.776 336.545 284.754 338.605 276.367H350.89C351.678 276.368 352.458 276.213 353.186 275.912C353.915 275.61 354.576 275.169 355.133 274.612C355.691 274.055 356.133 273.393 356.434 272.665C356.736 271.937 356.891 271.157 356.891 270.369Z" stroke="#D68029" stroke-width="15" stroke-miterlimit="10" stroke-linecap="round" stroke-linejoin="round"/>
<path d="M256 307.766C284.59 307.766 307.766 284.59 307.766 256C307.766 227.411 284.59 204.234 256 204.234C227.411 204.234 204.234 227.411 204.234 256C204.234 284.59 227.411 307.766 256 307.766Z" stroke="#D68029" stroke-width="15" stroke-miterlimit="10" stroke-linecap="round" stroke-linejoin="round"/>
<path d="M36.9609 61.032L58.0899 84.824L92.6109 40.522M228.175 60.927L249.304 84.719L283.825 40.417M421.502 60.927L442.631 84.719L477.152 40.417M421.502 254.359L442.631 278.151L477.152 233.849" stroke="#D68029" stroke-width="15" stroke-miterlimit="10" stroke-linecap="round" stroke-linejoin="round"/>
</g>
<defs>
<clipPath id="clip0_3353_1665">
<rect width="512" height="512" fill="white"/>
</clipPath>
</defs>
</svg>
