<svg width="439" height="334" viewBox="0 0 439 334" fill="none" xmlns="http://www.w3.org/2000/svg">
<path d="M64.1462 300.462C149.672 345.179 288.341 345.179 373.867 300.462C459.393 255.744 459.393 183.344 373.867 138.668C288.341 93.9916 149.672 93.95 64.1462 138.668C-21.3801 183.385 -21.3801 255.776 64.1462 300.462Z" fill="#F5F5F5"/>
<path d="M111.392 94.9379L132.004 83.041L111.392 71.144L90.5928 83.041L111.392 94.9379Z" stroke="#EBEBEB" stroke-width="1.08419" stroke-linecap="round" stroke-linejoin="round"/>
<path d="M95.3867 83.0515L111.402 36.7637V92.2966L95.3867 83.0515Z" fill="#E0E0E0"/>
<path d="M111.402 92.2966L127.407 83.0515L111.402 36.7637V92.2966Z" fill="#E6E6E6"/>
<path d="M86.204 109.456L106.816 97.5586L86.204 85.6616L65.4048 97.5586L86.204 109.456Z" stroke="#EBEBEB" stroke-width="1.08419" stroke-linecap="round" stroke-linejoin="round"/>
<path d="M70.1987 97.5688L86.2037 28.8286V106.814L70.1987 97.5688Z" fill="#E0E0E0"/>
<path d="M86.2041 106.814L102.209 97.5688L86.2041 28.8286V106.814Z" fill="#E6E6E6"/>
<path d="M61.0161 123.973L81.6281 112.076L61.0161 100.179L40.2065 112.076L61.0161 123.973Z" stroke="#EBEBEB" stroke-width="1.08419" stroke-linecap="round" stroke-linejoin="round"/>
<path d="M45.0112 112.087L61.0162 71.144V121.332L45.0112 112.087Z" fill="#E0E0E0"/>
<path d="M61.0161 121.332L77.0211 112.087L61.0161 71.144V121.332Z" fill="#E6E6E6"/>
<path d="M35.8281 138.491L56.4401 126.594L35.8281 114.697L15.0186 126.594L35.8281 138.491Z" stroke="#EBEBEB" stroke-width="1.08419" stroke-linecap="round" stroke-linejoin="round"/>
<path d="M19.813 126.604L35.8284 57.0942V135.849L19.813 126.604Z" fill="#E0E0E0"/>
<path d="M35.8281 135.849L51.8331 126.604L35.8281 57.0942V135.849Z" fill="#E6E6E6"/>
<path d="M310.533 79.1201L420.457 142.577" stroke="#EBEBEB" stroke-width="1.08419" stroke-miterlimit="10" stroke-linecap="round"/>
<path d="M420.457 135.85C420.324 127.884 419.765 119.931 418.783 112.024C417.743 103.435 415.663 88.9377 407.395 84.154C399.128 79.3702 396.008 88.0226 394.812 92.2759C393.252 97.798 385.151 94.3038 384.027 85.2043C382.904 76.1048 382.166 47.1112 372.453 41.5267C362.739 35.9423 359.609 49.4095 358.507 53.1741C356.333 60.5681 349.958 58.5298 347.878 53.6317C345.798 48.7335 340.12 47.5376 337.978 54.4324C335.836 61.3272 334.515 69.2412 327.578 65.175C321.484 61.608 324.282 55.1084 318.344 52.0198C313.643 49.5863 311.459 61.1921 311.459 72.933L420.457 135.85Z" fill="#E0E0E0"/>
<path d="M412.47 75.3352C412.47 76.604 411.326 76.9679 409.933 76.1672L401.613 71.3419C400.929 70.9542 400.344 70.4136 399.904 69.7623C399.464 69.111 399.18 68.3668 399.076 67.5877C399.076 66.3293 400.22 65.9549 401.613 66.7661L409.933 71.5914C410.616 71.9768 411.201 72.5154 411.642 73.165C412.082 73.8146 412.366 74.5575 412.47 75.3352Z" fill="#E6E6E6"/>
<path d="M378.318 34.5384C378.318 35.8071 377.184 36.1711 375.781 35.3703L367.461 30.545C366.775 30.1592 366.189 29.6191 365.749 28.9675C365.308 28.3159 365.026 27.5706 364.923 26.7908C364.923 25.5325 366.057 25.1581 367.461 25.9692L375.781 30.7946C376.465 31.1787 377.051 31.717 377.491 32.3668C377.932 33.0166 378.215 33.7601 378.318 34.5384Z" fill="#E6E6E6"/>
<path d="M351.269 42.0467C351.269 43.3154 350.135 43.6794 348.742 42.8786L340.422 38.0533C339.737 37.6675 339.151 37.1274 338.71 36.4758C338.27 35.8242 337.987 35.0789 337.885 34.2991C337.885 33.0407 339.018 32.6664 340.422 33.4775L348.742 38.3029C349.424 38.6888 350.007 39.2278 350.446 39.8774C350.884 40.5271 351.166 41.2696 351.269 42.0467Z" fill="#E6E6E6"/>
<path d="M325.624 44.532C325.624 45.8007 324.49 46.1647 323.086 45.3536L314.766 40.5386C314.084 40.1504 313.501 39.6095 313.062 38.9581C312.624 38.3068 312.342 37.5628 312.239 36.7844C312.239 35.5261 313.373 35.1517 314.766 35.9629L323.086 40.7778C323.77 41.1648 324.356 41.7053 324.796 42.3567C325.236 43.0081 325.52 43.7527 325.624 44.532Z" fill="#E6E6E6"/>
<path d="M305.958 69.7506V1" stroke="#EBEBEB" stroke-width="1.08419" stroke-miterlimit="10" stroke-linecap="round"/>
<path d="M39.5098 221.821C39.5098 221.821 41.2154 206.555 36.4836 192.016C32.0325 178.268 23.0889 170.978 17.6707 168.795C7.4271 164.708 6.51193 175.991 14.1868 183.801C19.813 189.541 33.3533 201.376 35.6828 221.447L39.5098 221.821Z" fill="#D68029"/>
<path opacity="0.7" d="M39.5098 221.821C39.5098 221.821 41.2154 206.555 36.4836 192.016C32.0325 178.268 23.0889 170.978 17.6707 168.795C7.4271 164.708 6.51193 175.991 14.1868 183.801C19.813 189.541 33.3533 201.376 35.6828 221.447L39.5098 221.821Z" fill="white"/>
<path d="M14.9043 171.946C21.0921 176.106 37.721 188.117 38.3242 221.707" stroke="#FAFAFA" stroke-width="1.08419" stroke-miterlimit="10" stroke-linecap="round"/>
<path d="M35.1524 232.252C31.9701 216.861 25.4704 211.277 13.854 205.328C8.88303 202.791 3.05925 199.962 0.958537 196.728C-1.14218 193.494 -0.0814219 189.147 7.0735 189.24C20.1458 189.417 35.038 205.172 37.0243 222.435L35.1524 232.252Z" fill="#D68029"/>
<path opacity="0.8" d="M35.1524 232.252C31.9701 216.861 25.4704 211.277 13.854 205.328C8.88303 202.791 3.05925 199.962 0.958537 196.728C-1.14218 193.494 -0.0814219 189.147 7.0735 189.24C20.1458 189.417 35.038 205.172 37.0243 222.435L35.1524 232.252Z" fill="white"/>
<path d="M5.97119 192.589C15.8404 193.93 31.4294 205.432 36.3796 225.867" stroke="#FAFAFA" stroke-width="1.08419" stroke-miterlimit="10" stroke-linecap="round"/>
<path d="M399.752 214.615C403.755 206.919 406.865 185.33 401.717 175.347C396.569 165.363 388.915 166.164 387.73 169.398C386.69 172.383 389.258 177.718 392.586 184.072C395.914 190.426 398.722 204.039 395.571 210.382L399.752 214.615Z" fill="#D68029"/>
<path opacity="0.7" d="M399.752 214.615C403.755 206.919 406.865 185.33 401.717 175.347C396.569 165.363 388.915 166.164 387.73 169.398C386.69 172.383 389.258 177.718 392.586 184.072C395.914 190.426 398.722 204.039 395.571 210.382L399.752 214.615Z" fill="white"/>
<path d="M392.784 169.918C396.06 172.549 405.44 188.637 398.878 210.715" stroke="#FAFAFA" stroke-width="1.08419" stroke-miterlimit="10" stroke-linecap="round"/>
<path d="M398.483 222.768C396.07 217.942 390.787 209.956 394.386 204.475C397.984 198.995 401.748 203.841 404.64 200.263C407.531 196.686 404.224 190.904 406.719 187.784C411.545 181.648 415.039 188.772 418.825 187.836C421.56 187.16 424.607 181.097 432.479 181.836C440.352 182.574 439.957 188.814 436.452 191.746C432.947 194.679 428.787 197.601 431.491 202C433.883 205.9 435.121 213.107 426.936 215.904C419.116 218.577 422.984 221.967 421.736 225.794C420.489 229.621 413.105 233.25 405.253 230.297L398.483 222.768Z" fill="#D68029"/>
<path opacity="0.8" d="M398.483 222.768C396.07 217.942 390.787 209.956 394.386 204.475C397.984 198.995 401.748 203.841 404.64 200.263C407.531 196.686 404.224 190.904 406.719 187.784C411.545 181.648 415.039 188.772 418.825 187.836C421.56 187.16 424.607 181.097 432.479 181.836C440.352 182.574 439.957 188.814 436.452 191.746C432.947 194.679 428.787 197.601 431.491 202C433.883 205.9 435.121 213.107 426.936 215.904C419.116 218.577 422.984 221.967 421.736 225.794C420.489 229.621 413.105 233.25 405.253 230.297L398.483 222.768Z" fill="white"/>
<path d="M433.561 185.372C425.033 187.659 404.608 204.257 402.882 225.087" stroke="#FAFAFA" stroke-width="1.08419" stroke-miterlimit="10" stroke-linecap="round"/>
<path d="M427.415 207.242C423.203 206.285 412.502 206.15 408.498 208.094" stroke="#FAFAFA" stroke-width="1.08419" stroke-miterlimit="10" stroke-linecap="round"/>
<path d="M410.879 189.615C410.879 189.615 413.999 195.657 413.552 200.742" stroke="#FAFAFA" stroke-width="1.08419" stroke-miterlimit="10" stroke-linecap="round"/>
<path d="M294.549 130.597C293.155 125.771 290.664 121.333 287.27 117.629C283.258 113.255 278.567 109.557 273.376 106.679C267.349 103.265 260.94 100.573 254.282 98.6609C246.948 96.5441 239.425 95.1508 231.819 94.5011C223.963 93.7835 216.058 93.7835 208.202 94.5011C200.599 95.1508 193.079 96.544 185.749 98.6609C179.087 100.572 172.675 103.263 166.645 106.679C161.454 109.582 156.766 113.305 152.761 117.702C149.37 121.408 146.879 125.846 145.482 130.67C144.239 135.133 144.239 139.851 145.482 144.314C146.868 149.141 149.361 153.577 152.761 157.272C156.769 161.674 161.46 165.4 166.655 168.306C172.678 171.719 179.084 174.407 185.739 176.313C193.072 178.439 200.595 179.847 208.202 180.515C216.058 181.222 223.963 181.222 231.819 180.515C239.429 179.844 246.956 178.433 254.293 176.303C260.948 174.396 267.353 171.709 273.376 168.295C278.573 165.392 283.265 161.666 287.27 157.262C290.666 153.564 293.158 149.128 294.549 144.304C295.794 139.82 295.794 135.082 294.549 130.597Z" fill="#37474F"/>
<path d="M144.546 130.618H295.475V138.314L144.546 137.887V130.618Z" fill="#37474F"/>
<path d="M208.201 87.6064L219.994 130.598L185.749 91.8078C193.077 89.6769 200.598 88.2697 208.201 87.6064Z" fill="#455A64"/>
<path d="M231.819 87.6063L220.026 130.598L208.233 87.5855C216.079 86.8767 223.974 86.8837 231.819 87.6063Z" fill="#455A64"/>
<path d="M254.282 91.8076L220.026 130.597L231.819 87.5854C239.427 88.2556 246.95 89.6697 254.282 91.8076Z" fill="#455A64"/>
<path d="M287.259 110.839C290.651 114.548 293.142 118.989 294.539 123.817L220.036 130.598L287.259 110.839Z" fill="#455A64"/>
<path d="M294.549 123.828C295.781 128.289 295.781 133 294.549 137.461L220.036 130.598L294.549 123.828Z" fill="#455A64"/>
<path d="M294.549 137.461C293.156 142.288 290.664 146.726 287.27 150.429L220.036 130.67L294.549 137.461Z" fill="#455A64"/>
<path d="M287.27 150.429C283.264 154.83 278.572 158.552 273.376 161.453L220.016 130.598L287.27 150.429Z" fill="#455A64"/>
<path d="M220.026 130.649L254.293 169.47C246.955 171.588 239.428 172.981 231.819 173.63L220.016 130.618L220.026 130.649Z" fill="#455A64"/>
<path d="M220.016 130.66L231.819 173.672C223.963 174.39 216.058 174.39 208.202 173.672L220.016 130.66Z" fill="#455A64"/>
<path d="M219.994 130.649L208.181 173.661C200.571 173.013 193.044 171.619 185.707 169.502L219.994 130.649Z" fill="#455A64"/>
<path d="M219.995 130.649L185.676 169.47C179.022 167.556 172.617 164.865 166.593 161.453L219.995 130.649Z" fill="#455A64"/>
<path d="M219.984 130.598L152.751 150.357C149.352 146.657 146.86 142.217 145.471 137.388L219.984 130.598Z" fill="#455A64"/>
<path d="M219.985 130.598L145.482 137.461C144.239 133.002 144.239 128.287 145.482 123.828L219.985 130.598Z" fill="#455A64"/>
<path d="M219.985 130.598L145.482 123.786C146.881 118.959 149.372 114.519 152.762 110.808L219.985 130.598Z" fill="#455A64"/>
<path d="M166.645 99.8364L219.984 130.598L152.761 110.839C156.767 106.449 161.455 102.733 166.645 99.8364Z" fill="#455A64"/>
<path d="M273.376 99.8363L220.026 130.598L254.282 91.7871C260.943 93.7053 267.352 96.4073 273.376 99.8363Z" fill="#455A64"/>
<path d="M273.376 99.8364C278.567 102.731 283.256 106.446 287.259 110.839L220.036 130.598L273.376 99.8364Z" fill="#455A64"/>
<path d="M219.995 130.598L166.624 161.411C161.429 158.508 156.738 154.786 152.73 150.388L219.963 130.629L219.995 130.598Z" fill="#455A64"/>
<path d="M185.749 91.8076L219.995 130.597L166.645 99.7944C172.674 96.3851 179.087 93.7041 185.749 91.8076Z" fill="#455A64"/>
<path d="M220.026 130.649L273.376 161.453C267.351 164.865 260.946 167.556 254.293 169.47L220.026 130.649Z" fill="#455A64"/>
<path d="M174.372 87.2114L216.75 111.671L214.67 77.0928C199.081 77.7583 185.842 81.0861 174.372 87.2114Z" fill="#D68029"/>
<path opacity="0.2" d="M174.372 87.2114L216.75 111.671L214.67 77.0928C199.081 77.7583 185.842 81.0861 174.372 87.2114Z" fill="white"/>
<path d="M216.75 111.671V125.024L174.372 100.554V87.2114L216.75 111.671Z" fill="#D68029"/>
<path opacity="0.1" d="M216.75 111.671V125.024L174.372 100.554V87.2114L216.75 111.671Z" fill="black"/>
<path d="M271.691 90.6431L223.052 112.586V125.928L271.691 103.986V90.6431Z" fill="#D68029"/>
<path opacity="0.3" d="M271.691 90.6431L223.052 112.586V125.928L271.691 103.986V90.6431Z" fill="black"/>
<path d="M271.691 90.643C258.598 81.7307 241.137 77.0302 220.899 76.9678L222.199 98.5882L223.052 112.586L271.691 90.643Z" fill="#D68029"/>
<path opacity="0.1" d="M271.691 90.643C258.598 81.7307 241.137 77.0302 220.899 76.9678L222.199 98.5882L223.052 112.586L271.691 90.643Z" fill="black"/>
<path d="M220.889 76.9678V90.3102L223.052 125.928V112.586L220.889 76.9678Z" fill="#263238"/>
<path d="M232.942 138.283L257.808 162.202C259.201 161.671 260.491 161.162 261.968 160.454C279.096 152.738 288.05 141.174 288.039 129.506V116.298C286.157 111.276 280.978 111.286 275.56 106.866L224.779 129.745L224.269 129.974L232.942 138.283Z" fill="#D68029"/>
<path opacity="0.6" d="M232.942 138.283L257.808 162.202C259.201 161.671 260.491 161.162 261.968 160.454C279.096 152.738 288.05 141.174 288.039 129.506V116.298C286.157 111.276 280.978 111.286 275.56 106.866L224.779 129.745L224.269 129.974L232.942 138.283Z" fill="white"/>
<path d="M232.942 124.94L257.807 148.859C259.201 148.329 260.491 147.819 261.967 147.101C290.639 134.154 296.38 110.443 275.58 93.4819L224.799 116.361L224.29 116.589L232.942 124.94Z" fill="#D68029"/>
<path opacity="0.8" d="M232.942 124.94L257.807 148.859C259.201 148.329 260.491 147.819 261.967 147.101C290.639 134.154 296.38 110.443 275.58 93.4819L224.799 116.361L224.29 116.589L232.942 124.94Z" fill="white"/>
<path d="M257.766 162.181V148.828L224.238 116.621V129.964L257.766 162.181Z" fill="#D68029"/>
<path opacity="0.6" d="M257.766 162.181V148.828L224.238 116.621V129.964L257.766 162.181Z" fill="white"/>
<path d="M169.962 103.102C162.818 107.605 154.883 110.444 151.992 115.914V129.267C151.992 136.224 155.226 143.275 161.934 149.722C171.293 158.697 186.113 165.041 203.719 167.568C220.013 169.973 236.637 168.762 252.41 164.021V150.679L230.519 142.983L217.665 130.598L169.962 103.102Z" fill="#D68029"/>
<path opacity="0.6" d="M169.962 103.102C162.818 107.605 154.883 110.444 151.992 115.914V129.267C151.992 136.224 155.226 143.275 161.934 149.722C171.293 158.697 186.113 165.041 203.719 167.568C220.013 169.973 236.637 168.762 252.41 164.021V150.679L230.519 142.983L217.665 130.598L169.962 103.102Z" fill="black"/>
<path d="M169.962 89.7588C149.433 102.675 146.126 121.186 161.934 136.369C171.293 145.354 186.113 151.687 203.719 154.225C220.013 156.625 236.636 155.414 252.41 150.679L230.519 129.641L217.665 117.296L169.962 89.7588Z" fill="#D68029"/>
<path opacity="0.3" d="M169.962 89.7588C149.433 102.675 146.126 121.186 161.934 136.369C171.293 145.354 186.113 151.687 203.719 154.225C220.013 156.625 236.636 155.414 252.41 150.679L230.519 129.641L217.665 117.296L169.962 89.7588Z" fill="black"/>
<path d="M408.165 235.268C406.771 230.442 404.279 226.003 400.885 222.3C396.883 217.9 392.194 214.178 387.002 211.276C380.975 207.862 374.566 205.171 367.908 203.259C360.574 201.142 353.051 199.748 345.445 199.099C337.589 198.381 329.684 198.381 321.828 199.099C314.226 199.749 306.705 201.143 299.375 203.259C292.717 205.171 286.308 207.862 280.281 211.276C275.085 214.177 270.393 217.899 266.387 222.3C262.996 226.006 260.505 230.443 259.108 235.268C257.865 239.731 257.865 244.449 259.108 248.912C260.494 253.738 262.987 258.175 266.387 261.87C270.395 266.271 275.086 269.997 280.281 272.903C286.306 276.313 292.711 279.001 299.364 280.911C306.703 283.023 314.23 284.416 321.838 285.071C329.695 285.778 337.599 285.778 345.455 285.071C353.064 284.417 360.591 283.024 367.929 280.911C374.586 279.006 380.992 276.314 387.012 272.893C392.212 269.994 396.908 266.271 400.917 261.87C404.31 258.17 406.801 253.735 408.196 248.912C409.424 244.445 409.413 239.729 408.165 235.268Z" fill="#37474F"/>
<path d="M258.161 235.257H409.09V242.953L258.161 242.527V235.257Z" fill="#37474F"/>
<path d="M321.817 192.245L333.621 235.257L299.364 196.446C306.693 194.317 314.214 192.909 321.817 192.245Z" fill="#455A64"/>
<path d="M345.435 192.245L333.641 235.257L321.838 192.245C329.687 191.529 337.585 191.529 345.435 192.245Z" fill="#455A64"/>
<path d="M367.898 196.446L333.642 235.257L345.435 192.245C353.042 192.908 360.565 194.316 367.898 196.446Z" fill="#455A64"/>
<path d="M400.875 215.488C404.269 219.196 406.761 223.637 408.155 228.467L333.652 235.278L400.875 215.488Z" fill="#455A64"/>
<path d="M408.165 228.466C409.402 232.927 409.402 237.64 408.165 242.1L333.662 235.278L408.165 228.466Z" fill="#455A64"/>
<path d="M408.165 242.1C406.768 246.925 404.277 251.363 400.885 255.068L333.652 235.309L408.165 242.1Z" fill="#455A64"/>
<path d="M400.895 255.068C396.881 259.464 392.186 263.186 386.991 266.092L333.631 235.278L400.895 255.068Z" fill="#455A64"/>
<path d="M333.641 235.289L367.908 274.11C360.57 276.222 353.043 277.616 345.434 278.269L333.631 235.257L333.641 235.289Z" fill="#455A64"/>
<path d="M333.631 235.299L345.434 278.269C337.578 278.982 329.673 278.982 321.817 278.269L333.631 235.299Z" fill="#455A64"/>
<path d="M333.621 235.289L321.817 278.269C314.209 277.615 306.682 276.221 299.344 274.11L333.621 235.289Z" fill="#455A64"/>
<path d="M333.621 235.289L299.302 274.11C292.65 272.191 286.245 269.5 280.219 266.092L333.621 235.289Z" fill="#455A64"/>
<path d="M333.6 235.278L266.366 255.037C262.967 251.337 260.475 246.898 259.086 242.069L333.6 235.278Z" fill="#455A64"/>
<path d="M333.6 235.278L259.097 242.1C257.854 237.64 257.854 232.926 259.097 228.466L333.6 235.278Z" fill="#455A64"/>
<path d="M333.6 235.268L259.097 228.456C260.494 223.628 262.985 219.187 266.377 215.478L333.6 235.268Z" fill="#455A64"/>
<path d="M280.271 204.434L333.6 235.226L266.377 215.467C270.382 211.063 275.074 207.337 280.271 204.434Z" fill="#455A64"/>
<path d="M386.992 204.433L333.642 235.226L367.898 196.416C374.557 198.324 380.966 201.015 386.992 204.433Z" fill="#455A64"/>
<path d="M386.991 204.434C392.183 207.331 396.872 211.05 400.875 215.447L333.662 235.205L386.991 204.434Z" fill="#455A64"/>
<path d="M333.621 235.268L280.261 266.092C275.068 263.186 270.377 259.464 266.367 255.069L333.6 235.31L333.621 235.268Z" fill="#455A64"/>
<path d="M299.365 196.447L333.621 235.257L280.271 204.434C286.298 201.026 292.707 198.345 299.365 196.447Z" fill="#455A64"/>
<path d="M333.642 235.289L386.992 266.092C380.967 269.504 374.562 272.195 367.908 274.11L333.642 235.289Z" fill="#455A64"/>
<path d="M267.146 218.379V239.989C266.599 238.014 266.319 235.975 266.314 233.926V218.379H267.146Z" fill="#D68029"/>
<path opacity="0.3" d="M267.146 218.379V239.989C266.599 238.014 266.319 235.975 266.314 233.926V218.379H267.146Z" fill="black"/>
<path d="M333.6 218.4L267.147 224.473C266.044 220.496 266.044 216.293 267.147 212.316L333.6 218.4Z" fill="#D68029"/>
<path d="M333.6 218.379L267.146 212.295C268.395 207.989 270.619 204.029 273.646 200.721L333.6 218.379Z" fill="#D68029"/>
<path d="M286.032 190.914L333.6 218.379L273.646 200.7C277.223 196.794 281.405 193.49 286.032 190.914Z" fill="#D68029"/>
<path d="M303.067 183.76L333.621 218.369L286.032 190.915C291.408 187.865 297.126 185.464 303.067 183.76Z" fill="#D68029"/>
<path d="M323.096 180.016L333.62 218.369L303.066 183.759C309.604 181.858 316.313 180.604 323.096 180.016Z" fill="#D68029"/>
<path d="M344.218 180.016L333.642 218.369L323.117 180.016C330.136 179.369 337.199 179.369 344.218 180.016Z" fill="#D68029"/>
<path d="M364.196 183.759L333.642 218.369L344.218 180.016C350.984 180.607 357.675 181.861 364.196 183.759Z" fill="#D68029"/>
<g opacity="0.2">
<path d="M333.6 218.4L267.147 224.473C266.044 220.496 266.044 216.293 267.147 212.316L333.6 218.4Z" fill="white"/>
<path d="M333.6 218.379L267.146 212.295C268.395 207.989 270.619 204.029 273.646 200.721L333.6 218.379Z" fill="white"/>
<path d="M286.032 190.914L333.6 218.379L273.646 200.7C277.223 196.794 281.405 193.49 286.032 190.914Z" fill="white"/>
<path d="M303.067 183.76L333.621 218.369L286.032 190.915C291.408 187.865 297.126 185.464 303.067 183.76Z" fill="white"/>
<path d="M323.097 180.016L333.621 218.369L303.067 183.759C309.605 181.858 316.313 180.604 323.097 180.016Z" fill="white"/>
<path d="M344.218 180.016L333.642 218.369L323.117 180.016C330.136 179.369 337.199 179.369 344.218 180.016Z" fill="white"/>
<path d="M364.196 183.759L333.642 218.369L344.218 180.016C350.984 180.607 357.675 181.861 364.196 183.759Z" fill="white"/>
</g>
<path d="M389.976 228.758L380.003 238.117L372.421 245.283L365.194 252.084L364.227 252.989V268.515C370.166 266.813 375.884 264.415 381.261 261.37C385.894 258.773 390.079 255.448 393.657 251.522C396.683 248.225 398.901 244.27 400.136 239.968C400.687 237.994 400.971 235.955 400.979 233.906V218.39L389.976 228.758Z" fill="#D68029"/>
<path opacity="0.3" d="M389.976 228.758L380.003 238.117L372.421 245.283L365.194 252.084L364.227 252.989V268.515C370.166 266.813 375.884 264.415 381.261 261.37C385.894 258.773 390.079 255.448 393.657 251.522C396.683 248.225 398.901 244.27 400.136 239.968C400.687 237.994 400.971 235.955 400.979 233.906V218.39L389.976 228.758Z" fill="black"/>
<path d="M393.616 200.742C396.639 204.052 398.862 208.012 400.116 212.316L333.652 218.4L393.616 200.742Z" fill="#D68029"/>
<path d="M400.948 218.41C400.939 220.463 400.656 222.506 400.105 224.483L379.972 222.632L333.652 218.389L389.945 213.19L400.105 212.264C400.662 214.266 400.945 216.333 400.948 218.41Z" fill="#D68029"/>
<path d="M400.105 224.484C398.868 228.784 396.65 232.739 393.626 236.037L372.39 229.798L333.652 218.358L379.972 222.601L400.105 224.484Z" fill="#D68029"/>
<path d="M393.626 236.037C390.048 239.963 385.863 243.288 381.23 245.885L365.162 236.588L333.662 218.41L372.401 229.85L393.626 236.037Z" fill="#D68029"/>
<path d="M381.23 190.914L333.642 218.39L364.196 183.78C370.134 185.481 375.852 187.876 381.23 190.914Z" fill="#D68029"/>
<path d="M381.23 190.914C385.859 193.505 390.041 196.823 393.616 200.742L333.652 218.421L381.23 190.914Z" fill="#D68029"/>
<path d="M381.23 245.885C375.853 248.926 370.135 251.321 364.195 253.019L333.662 218.41L365.162 236.588L381.23 245.885Z" fill="#D68029"/>
<g opacity="0.2">
<path d="M393.616 200.742C396.639 204.052 398.862 208.012 400.116 212.316L333.652 218.4L393.616 200.742Z" fill="white"/>
<path d="M400.948 218.41C400.939 220.463 400.656 222.506 400.105 224.483L379.972 222.632L333.652 218.389L389.945 213.19L400.105 212.264C400.662 214.266 400.945 216.333 400.948 218.41Z" fill="white"/>
<path d="M400.105 224.484C398.868 228.784 396.65 232.739 393.626 236.037L372.39 229.798L333.652 218.358L379.972 222.601L400.105 224.484Z" fill="white"/>
<path d="M393.626 236.037C390.048 239.963 385.863 243.288 381.23 245.885L365.162 236.588L333.662 218.41L372.401 229.85L393.626 236.037Z" fill="white"/>
<path d="M381.23 190.914L333.642 218.39L364.196 183.78C370.134 185.481 375.852 187.876 381.23 190.914Z" fill="white"/>
<path d="M381.23 190.915C385.859 193.505 390.041 196.824 393.616 200.742L333.652 218.421L381.23 190.915Z" fill="white"/>
<path d="M381.23 245.885C375.853 248.926 370.135 251.321 364.195 253.019L333.662 218.41L365.162 236.588L381.23 245.885Z" fill="white"/>
</g>
<path d="M364.206 253.03V268.556L333.621 233.905V218.369L364.206 253.03Z" fill="#263238"/>
<path d="M333.621 233.905L267.146 240.01V224.473L333.621 218.369V233.905Z" fill="#D68029"/>
<path opacity="0.1" d="M333.621 233.905L267.146 240.01V224.473L333.621 218.369V233.905Z" fill="black"/>
<path d="M180.944 235.268C179.55 230.442 177.058 226.003 173.664 222.3C169.66 217.902 164.972 214.18 159.781 211.276C153.751 207.861 147.338 205.169 140.677 203.259C133.346 201.142 125.826 199.748 118.224 199.099C110.368 198.381 102.463 198.381 94.6066 199.099C87.0011 199.749 79.4776 201.143 72.1435 203.259C65.4786 205.17 59.0627 207.861 53.029 211.276C47.8367 214.178 43.1483 217.9 39.1456 222.3C35.7514 226.003 33.2599 230.442 31.8658 235.268C30.6333 239.732 30.6333 244.447 31.8658 248.912C33.2575 253.736 35.7494 258.172 39.1456 261.87C43.1475 266.273 47.836 269.999 53.029 272.903C59.0517 276.317 65.4574 279.005 72.1123 280.911C79.4507 283.024 86.9774 284.417 94.5858 285.071C102.442 285.778 110.347 285.778 118.203 285.071C125.812 284.417 133.338 283.024 140.677 280.911C147.334 279.006 153.74 276.314 159.76 272.893C164.96 269.995 169.656 266.272 173.664 261.87C177.06 258.172 179.552 253.736 180.944 248.912C182.177 244.447 182.177 239.732 180.944 235.268Z" fill="#37474F"/>
<path d="M30.9302 235.257H181.859V242.953L30.9302 242.527V235.257Z" fill="#37474F"/>
<path d="M94.6277 192.245L106.421 235.257L72.1646 196.446C79.4973 194.317 87.0208 192.909 94.6277 192.245Z" fill="#455A64"/>
<path d="M118.203 192.245L106.41 235.257L94.6274 192.245C102.47 191.53 110.361 191.53 118.203 192.245Z" fill="#455A64"/>
<path d="M140.656 196.446L106.41 235.257L118.203 192.245C125.807 192.908 133.327 194.316 140.656 196.446Z" fill="#455A64"/>
<path d="M173.665 215.488C177.059 219.196 179.55 223.637 180.944 228.467L106.431 235.278L173.665 215.488Z" fill="#455A64"/>
<path d="M180.944 228.466C182.176 232.927 182.176 237.639 180.944 242.1L106.431 235.278L180.944 228.466Z" fill="#455A64"/>
<path d="M180.944 242.1C179.551 246.926 177.059 251.365 173.665 255.068L106.431 235.309L180.944 242.1Z" fill="#455A64"/>
<path d="M173.664 255.068C169.654 259.464 164.963 263.186 159.771 266.092L106.4 235.278L173.664 255.068Z" fill="#455A64"/>
<path d="M106.41 235.289L140.677 274.11C133.338 276.222 125.812 277.616 118.203 278.269L106.389 235.257L106.41 235.289Z" fill="#455A64"/>
<path d="M106.389 235.299L118.203 278.269C110.361 278.979 102.47 278.979 94.6274 278.269L106.389 235.299Z" fill="#455A64"/>
<path d="M106.379 235.289L94.6273 278.269C87.0189 277.616 79.4922 276.222 72.1538 274.11L106.379 235.289Z" fill="#455A64"/>
<path d="M106.379 235.289L72.0606 274.11C65.4248 272.191 59.0373 269.5 53.0293 266.092L106.379 235.289Z" fill="#455A64"/>
<path d="M106.369 235.278L39.1352 255.037C35.7407 251.334 33.2492 246.896 31.8555 242.069L106.369 235.278Z" fill="#455A64"/>
<path d="M106.369 235.278L31.8558 242.1C30.6236 237.639 30.6236 232.927 31.8558 228.466L106.369 235.278Z" fill="#455A64"/>
<path d="M106.369 235.268L31.8555 228.456C33.2494 223.627 35.7409 219.185 39.1352 215.478L106.369 235.268Z" fill="#455A64"/>
<path d="M53.0295 204.434L106.369 235.226L39.146 215.467C43.1472 211.063 47.8358 207.337 53.0295 204.434Z" fill="#455A64"/>
<path d="M159.76 204.433L106.41 235.226L140.656 196.416C147.319 198.322 153.732 201.013 159.76 204.433Z" fill="#455A64"/>
<path d="M159.76 204.434C164.961 207.344 169.656 211.077 173.664 215.488L106.441 235.247L159.76 204.434Z" fill="#455A64"/>
<path d="M106.379 235.268L53.0291 266.092C47.8352 263.189 43.1436 259.466 39.1353 255.069L106.369 235.31L106.379 235.268Z" fill="#455A64"/>
<path d="M72.1229 196.447L106.379 235.257L53.0293 204.434C59.0559 201.026 65.4651 198.345 72.1229 196.447Z" fill="#455A64"/>
<path d="M106.41 235.289L159.76 266.092C153.736 269.504 147.33 272.195 140.677 274.11L106.41 235.289Z" fill="#455A64"/>
<path d="M126.461 208.593L135.061 198.839C135.061 187.399 121.084 187.118 114.907 186.567C108.73 186.016 98.1323 182.47 98.1323 195.49L101.086 206.264C109.614 205.716 118.175 206.502 126.461 208.593Z" fill="#D68029"/>
<path opacity="0.6" d="M126.461 208.593L135.061 198.839C135.061 187.399 121.084 187.118 114.907 186.567C108.73 186.016 98.1323 182.47 98.1323 195.49L101.086 206.264C109.614 205.716 118.175 206.502 126.461 208.593Z" fill="white"/>
<path d="M126.461 193.275L135.061 183.53C123.019 180.396 110.542 179.265 98.1323 180.182L101.086 190.914C109.615 190.376 118.177 191.173 126.461 193.275Z" fill="#D68029"/>
<path opacity="0.8" d="M126.461 193.275L135.061 183.53C123.019 180.396 110.542 179.265 98.1323 180.182L101.086 190.914C109.615 190.376 118.177 191.173 126.461 193.275Z" fill="white"/>
<path d="M101.086 190.956V206.285L98.1323 195.511V180.182L101.086 190.956Z" fill="#D68029"/>
<path d="M135.061 183.531L126.461 193.275V208.614L135.061 198.86V183.531Z" fill="#D68029"/>
<g opacity="0.6">
<path d="M101.086 190.956V206.285L98.1323 195.511V180.182L101.086 190.956Z" fill="white"/>
<path d="M135.061 183.531L126.461 193.275V208.614L135.061 198.86V183.531Z" fill="white"/>
</g>
<path d="M130.662 194.512V209.841C134.25 211 137.714 212.515 140.999 214.365C143.867 215.993 146.501 218.001 148.83 220.334L165.698 215.374C162.344 211.95 158.525 209.016 154.352 206.659C149.745 204.017 144.816 193.306 130.662 194.512Z" fill="#D68029"/>
<path opacity="0.6" d="M130.662 194.512V209.841C134.25 211 137.714 212.515 140.999 214.365C143.867 215.993 146.501 218.001 148.83 220.334L165.698 215.374C162.344 211.95 158.525 209.016 154.352 206.659C149.745 204.017 144.816 193.306 130.662 194.512Z" fill="black"/>
<path d="M139.263 184.779L130.662 194.513C134.254 195.662 137.718 197.178 140.999 199.036C143.867 200.664 146.501 202.672 148.83 205.006L165.698 200.045C162.35 196.616 158.529 193.681 154.352 191.33C149.571 188.613 144.512 186.417 139.263 184.779Z" fill="#D68029"/>
<path opacity="0.3" d="M139.263 184.779L130.662 194.513C134.254 195.662 137.718 197.178 140.999 199.036C143.867 200.664 146.501 202.672 148.83 205.006L165.698 200.045C162.35 196.616 158.529 193.681 154.352 191.33C149.571 188.613 144.512 186.417 139.263 184.779Z" fill="black"/>
<path d="M148.83 205.006L165.698 200.035V215.374L148.83 220.334V205.006Z" fill="#D68029"/>
<path opacity="0.6" d="M148.83 205.006L165.698 200.035V215.374L148.83 220.334V205.006Z" fill="black"/>
<path d="M174.164 218.608H168.465C168.257 218.338 168.08 218.067 167.872 217.797L150.983 207.397V222.737C154.581 227.364 155.944 232.418 155.008 237.379L173.664 239.116C173.98 237.569 174.137 235.994 174.132 234.415L174.164 218.608Z" fill="#D68029"/>
<path opacity="0.6" d="M174.164 218.608H168.465C168.257 218.338 168.08 218.067 167.872 217.797L150.983 207.397V222.737C154.581 227.364 155.944 232.418 155.008 237.379L173.664 239.116C173.98 237.569 174.137 235.994 174.132 234.415L174.164 218.608Z" fill="black"/>
<path d="M154.997 222.112L173.665 223.787C175.183 216.58 173.259 209.165 167.862 202.468L150.973 207.428C154.571 212.056 155.985 217.121 154.997 222.112Z" fill="#D68029"/>
<path opacity="0.3" d="M154.997 222.112L173.665 223.787C175.183 216.58 173.259 209.165 167.862 202.468L150.973 207.428C154.571 212.056 155.985 217.121 154.997 222.112Z" fill="black"/>
<path d="M173.664 223.787V239.126L154.997 237.41V222.081L173.664 223.787Z" fill="#D68029"/>
<path opacity="0.6" d="M173.664 223.787V239.126L154.997 237.41V222.081L173.664 223.787Z" fill="black"/>
<path d="M96.4268 206.721V191.382C86.0272 186.588 66.6632 191.455 60.1738 205.734L73.5269 213.45C80.6992 209.863 88.454 207.584 96.4268 206.721Z" fill="#D68029"/>
<path opacity="0.3" d="M96.4268 206.721V191.382C86.0272 186.588 66.6632 191.455 60.1738 205.734L73.5269 213.45C80.6992 209.863 88.454 207.584 96.4268 206.721Z" fill="black"/>
<path d="M96.4267 191.382L93.4628 180.577C80.8897 181.991 69.3773 185.454 60.1841 190.405L73.5372 198.111C80.7063 194.525 88.4575 192.246 96.4267 191.382Z" fill="#D68029"/>
<path opacity="0.1" d="M96.4267 191.382L93.4628 180.577C80.8897 181.991 69.3773 185.454 60.1841 190.405L73.5372 198.111C80.7063 194.525 88.4575 192.246 96.4267 191.382Z" fill="black"/>
<path d="M73.5269 198.111V213.45L60.1738 205.734V190.405L73.5269 198.111Z" fill="#263238"/>
<path d="M59.5604 200.045L56.8149 207.647C47.8401 213.2 42.1723 219.887 39.8428 226.886L58.562 228.591C60.278 223.797 64.1882 219.232 70.2408 215.384V200.045H59.5604Z" fill="#D68029"/>
<path opacity="0.3" d="M59.5604 200.045L56.8149 207.647C47.8401 213.2 42.1723 219.887 39.8428 226.886L58.562 228.591C60.278 223.797 64.1882 219.232 70.2408 215.384V200.045H59.5604Z" fill="black"/>
<path d="M70.1992 200.045L56.8149 192.318C47.8401 197.861 42.1723 204.558 39.8428 211.547L58.562 213.263C60.2364 208.469 64.1466 203.893 70.1992 200.045Z" fill="#D68029"/>
<path opacity="0.1" d="M70.1992 200.045L56.8149 192.318C47.8401 197.861 42.1723 204.558 39.8428 211.547L58.562 213.263C60.2364 208.469 64.1466 203.893 70.1992 200.045Z" fill="black"/>
<path d="M39.8428 211.547V226.886L58.5204 228.592V213.263L39.8428 211.547Z" fill="#263238"/>
<path d="M57.7815 231.285V215.945L52.2282 215.446L38.6255 218.992V234.311C38.7126 240.397 40.9192 246.263 44.8652 250.898L61.7542 245.937C58.2287 241.31 56.856 236.245 57.7815 231.285Z" fill="#D68029"/>
<path opacity="0.3" d="M57.7815 231.285V215.945L52.2282 215.446L38.6255 218.992V234.311C38.7126 240.397 40.9192 246.263 44.8652 250.898L61.7542 245.937C58.2287 241.31 56.856 236.245 57.7815 231.285Z" fill="black"/>
<path d="M44.9282 235.57L61.8172 230.599V245.938L44.9282 250.898V235.57Z" fill="#263238"/>
<path d="M57.7925 215.946L39.0732 214.24C37.5549 221.457 39.4788 228.862 44.8762 235.569L61.7652 230.599C58.2293 225.971 56.8566 220.906 57.7925 215.946Z" fill="#D68029"/>
<path opacity="0.1" d="M57.7925 215.946L39.0732 214.24C37.5549 221.457 39.4788 228.862 44.8762 235.569L61.7652 230.599C58.2293 225.971 56.8566 220.906 57.7925 215.946Z" fill="black"/>
<path d="M77.7697 250.877C69.8557 246.312 65.9038 240.332 65.9038 234.353V218.993H146.885V234.321C146.885 240.311 142.934 246.291 135.02 250.857C119.212 260.008 93.5875 260.008 77.7697 250.877Z" fill="#37474F"/>
<path d="M106.4 242.392C128.76 242.392 146.886 231.925 146.886 219.014C146.886 206.102 128.76 195.636 106.4 195.636C84.0406 195.636 65.9146 206.102 65.9146 219.014C65.9146 231.925 84.0406 242.392 106.4 242.392Z" fill="#455A64"/>
<path d="M73.5267 255.266V253.311L47.0806 237.992V253.311C50.4356 256.737 54.259 259.671 58.4369 262.025C63.2181 264.742 68.277 266.939 73.5267 268.577L82.1168 258.843C79.1626 257.882 76.2901 256.685 73.5267 255.266Z" fill="#D68029"/>
<path opacity="0.3" d="M73.5267 255.266V253.311L47.0806 237.992V253.311C50.4356 256.737 54.259 259.671 58.4369 262.025C63.2181 264.742 68.277 266.939 73.5267 268.577L82.1168 258.843C79.1626 257.882 76.2901 256.685 73.5267 255.266Z" fill="black"/>
<path d="M71.7485 238.991C68.878 237.367 66.2404 235.363 63.9072 233.032L47.0391 237.993C50.3968 241.416 54.2198 244.35 58.3954 246.707C63.1787 249.42 68.2371 251.617 73.4852 253.259L82.0753 243.515C78.4869 242.365 75.0264 240.849 71.7485 238.991Z" fill="#D68029"/>
<path opacity="0.1" d="M71.7485 238.991C68.878 237.367 66.2404 235.363 63.9072 233.032L47.0391 237.993C50.3968 241.416 54.2198 244.35 58.3954 246.707C63.1787 249.42 68.2371 251.617 73.4852 253.259L82.0753 243.515C78.4869 242.365 75.0264 240.849 71.7485 238.991Z" fill="black"/>
<path d="M73.5269 268.588V253.259L82.1169 243.515V258.854L73.5269 268.588Z" fill="#263238"/>
<path d="M77.728 254.497V269.836C89.7707 272.97 102.247 274.101 114.657 273.184V257.856L77.728 254.497Z" fill="#D68029"/>
<path opacity="0.1" d="M77.728 254.497V269.836C89.7707 272.97 102.247 274.101 114.657 273.184V257.856L77.728 254.497Z" fill="black"/>
<path d="M86.308 244.752L77.7075 254.496C89.7505 257.629 102.226 258.764 114.636 257.855L111.704 247.071C103.169 247.625 94.6009 246.842 86.308 244.752Z" fill="#D68029"/>
<path opacity="0.2" d="M86.308 244.752L77.7075 254.496C89.7505 257.629 102.226 258.764 114.636 257.855L111.704 247.071C103.169 247.625 94.6009 246.842 86.308 244.752Z" fill="white"/>
<path d="M142.591 253.31L155.986 261.048C164.96 255.505 170.628 248.808 172.958 241.809V226.48L154.238 240.103C152.554 244.897 148.643 249.473 142.591 253.31Z" fill="#D68029"/>
<path opacity="0.1" d="M142.591 253.31L155.986 261.048C164.96 255.505 170.628 248.808 172.958 241.809V226.48L154.238 240.103C152.554 244.897 148.643 249.473 142.591 253.31Z" fill="black"/>
<path d="M142.591 237.982L155.986 245.719C164.96 240.166 170.628 233.479 172.958 226.48L154.238 224.775C152.554 229.569 148.643 234.134 142.591 237.982Z" fill="#D68029"/>
<path opacity="0.2" d="M142.591 237.982L155.986 245.719C164.96 240.166 170.628 233.479 172.958 226.48L154.238 224.775C152.554 229.569 148.643 234.134 142.591 237.982Z" fill="white"/>
<path d="M155.975 245.719V261.048L142.591 253.321V237.982L155.975 245.719Z" fill="#D68029"/>
<path opacity="0.3" d="M155.975 245.719V261.048L142.591 253.321V237.982L155.975 245.719Z" fill="black"/>
<path d="M119.327 257.471V261.63C118.339 261.786 117.361 261.922 116.363 262.036L119.327 272.83C131.442 271.479 143.027 268.203 152.605 263.024V247.643L119.327 257.471Z" fill="#D68029"/>
<path opacity="0.1" d="M119.327 257.471V261.63C118.339 261.786 117.361 261.922 116.363 262.036L119.327 272.83C131.442 271.479 143.027 268.203 152.605 263.024V247.643L119.327 257.471Z" fill="black"/>
<path d="M116.363 246.656L119.327 257.471C131.442 256.119 143.027 252.854 152.605 247.675L139.221 239.938C132.067 243.531 124.324 245.807 116.363 246.656Z" fill="#D68029"/>
<path opacity="0.2" d="M116.363 246.656L119.327 257.471C131.442 256.119 143.027 252.854 152.605 247.675L139.221 239.938C132.067 243.531 124.324 245.807 116.363 246.656Z" fill="white"/>
<path d="M119.327 257.439V272.768L116.363 261.994V246.655L119.327 257.439Z" fill="#D68029"/>
<path opacity="0.3" d="M119.327 257.439V272.768L116.363 261.994V246.655L119.327 257.439Z" fill="black"/>
<path d="M378.859 154.87C378.822 154.194 378.626 153.535 378.289 152.948C377.951 152.361 377.48 151.862 376.914 151.49L348.752 135.236C347.712 134.612 346.807 135.121 346.807 136.369V163.585C346.842 164.261 347.037 164.92 347.375 165.507C347.713 166.095 348.185 166.594 348.752 166.964L360.545 173.766L364.268 188.834C364.256 189.11 364.353 189.38 364.54 189.583C364.726 189.787 364.985 189.909 365.261 189.921C365.537 189.934 365.806 189.836 366.01 189.65C366.214 189.463 366.336 189.204 366.348 188.928L369.759 179.08L376.966 183.239C378.006 183.863 378.911 183.354 378.911 182.116L378.859 154.87Z" fill="#D68029"/>
<path opacity="0.5" d="M378.859 154.87C378.822 154.194 378.626 153.535 378.289 152.948C377.951 152.361 377.48 151.862 376.914 151.49L348.752 135.236C347.712 134.612 346.807 135.121 346.807 136.369V163.585C346.842 164.261 347.037 164.92 347.375 165.507C347.713 166.095 348.185 166.594 348.752 166.964L360.545 173.766L364.268 188.834C364.256 189.11 364.353 189.38 364.54 189.583C364.726 189.787 364.985 189.909 365.261 189.921C365.537 189.934 365.806 189.836 366.01 189.65C366.214 189.463 366.336 189.204 366.348 188.928L369.759 179.08L376.966 183.239C378.006 183.863 378.911 183.354 378.911 182.116L378.859 154.87Z" fill="white"/>
<path d="M357.477 147.632C358.052 147.959 358.583 148.357 359.058 148.817C359.482 149.231 359.862 149.687 360.191 150.18C360.477 150.616 360.711 151.083 360.888 151.573C361.035 151.99 361.129 152.423 361.169 152.863C361.169 153.31 361.221 153.778 361.221 154.267C361.221 154.755 361.221 155.203 361.169 155.619C361.144 155.954 361.048 156.28 360.888 156.575C360.733 156.848 360.486 157.058 360.191 157.168C359.82 157.27 359.429 157.27 359.058 157.168C358.498 157.039 357.964 156.817 357.477 156.513C356.9 156.19 356.365 155.795 355.886 155.338C355.46 154.937 355.083 154.486 354.763 153.996C354.219 153.192 353.88 152.268 353.775 151.303C353.775 150.856 353.775 150.388 353.775 149.899C353.775 149.41 353.775 148.963 353.775 148.557C353.807 148.219 353.906 147.89 354.066 147.59C354.217 147.313 354.465 147.102 354.763 146.998C355.126 146.883 355.513 146.865 355.886 146.946C356.453 147.079 356.991 147.311 357.477 147.632ZM367.419 153.965C367.526 153.887 367.652 153.84 367.783 153.83C367.972 153.842 368.155 153.903 368.314 154.007L369.801 154.87C369.971 154.967 370.12 155.098 370.237 155.255C370.335 155.388 370.389 155.547 370.393 155.712C370.397 155.747 370.397 155.782 370.393 155.816C370.375 155.855 370.351 155.89 370.321 155.92L358.07 164.968C357.963 165.047 357.838 165.097 357.706 165.113C357.515 165.101 357.332 165.036 357.176 164.926L355.688 164.073C355.516 163.975 355.366 163.84 355.252 163.678C355.151 163.55 355.093 163.394 355.085 163.231C355.077 163.193 355.077 163.154 355.085 163.117C355.1 163.076 355.125 163.04 355.158 163.013L367.419 153.965ZM358.788 153.965C358.802 153.813 358.802 153.66 358.788 153.508V152.166C358.802 152.003 358.802 151.84 358.788 151.677C358.754 151.312 358.644 150.958 358.465 150.637C358.225 150.248 357.884 149.931 357.477 149.722C356.999 149.441 356.666 149.369 356.437 149.493C356.339 149.572 356.259 149.672 356.203 149.785C356.148 149.898 356.117 150.022 356.115 150.149C356.115 150.242 356.115 150.388 356.115 150.606C356.115 150.824 356.115 151.032 356.115 151.261C356.115 151.49 356.115 151.719 356.115 151.937C356.115 152.156 356.115 152.322 356.115 152.436C356.154 152.801 356.263 153.154 356.437 153.476C356.692 153.872 357.052 154.189 357.477 154.391C357.956 154.672 358.288 154.745 358.465 154.62C358.559 154.545 358.636 154.45 358.69 154.343C358.744 154.235 358.773 154.117 358.777 153.996L358.788 153.965ZM368.21 162.503C368.788 162.83 369.322 163.228 369.801 163.689C370.222 164.102 370.599 164.558 370.924 165.051C371.217 165.482 371.452 165.951 371.621 166.444C371.765 166.862 371.863 167.295 371.912 167.734C371.912 168.181 371.912 168.649 371.912 169.138C371.912 169.627 371.912 170.074 371.912 170.49C371.88 170.825 371.781 171.15 371.621 171.447C371.55 171.587 371.451 171.711 371.332 171.813C371.212 171.915 371.073 171.992 370.924 172.039C370.557 172.147 370.167 172.147 369.801 172.039C369.238 171.91 368.7 171.688 368.21 171.384C367.635 171.061 367.104 170.666 366.629 170.209C366.202 169.805 365.822 169.355 365.495 168.867C365.208 168.433 364.974 167.965 364.798 167.474C364.653 167.057 364.559 166.624 364.518 166.184C364.518 165.727 364.518 165.259 364.518 164.77C364.518 164.281 364.518 163.834 364.518 163.429C364.542 163.09 364.637 162.76 364.798 162.461C364.951 162.186 365.199 161.975 365.495 161.869C365.868 161.777 366.256 161.777 366.629 161.869C367.191 161.996 367.726 162.221 368.21 162.534V162.503ZM369.53 168.867C369.539 168.715 369.539 168.562 369.53 168.41V167.1C369.53 166.892 369.53 166.725 369.53 166.621C369.487 166.258 369.378 165.905 369.208 165.581C368.95 165.188 368.59 164.872 368.168 164.666C367.69 164.385 367.357 164.313 367.18 164.437C367.082 164.516 367.002 164.616 366.946 164.729C366.89 164.842 366.86 164.966 366.858 165.092C366.847 165.245 366.847 165.398 366.858 165.55C366.858 165.758 366.858 165.976 366.858 166.205C366.858 166.434 366.858 166.663 366.858 166.892C366.848 167.054 366.848 167.218 366.858 167.38C366.89 167.746 367 168.101 367.18 168.42C367.417 168.812 367.759 169.129 368.168 169.335C368.646 169.616 368.979 169.689 369.208 169.564C369.305 169.482 369.385 169.381 369.44 169.266C369.496 169.151 369.526 169.026 369.53 168.899V168.867Z" fill="#FAFAFA"/>
<path d="M257.028 50.5222C256.99 49.8462 256.794 49.1883 256.457 48.6014C256.119 48.0145 255.648 47.5148 255.083 47.1424L226.921 30.8985C225.881 30.2745 224.976 30.7737 224.976 32.0216V59.2369C225.012 59.9148 225.207 60.5747 225.545 61.1635C225.883 61.7524 226.354 62.2537 226.921 62.6272L238.714 69.4284L242.437 84.466C242.478 84.6989 242.597 84.911 242.774 85.0673C242.952 85.2235 243.177 85.3146 243.413 85.3255C243.65 85.3364 243.883 85.2665 244.074 85.1272C244.265 84.988 244.403 84.7877 244.465 84.5595L247.876 74.7113L255.083 78.8711C256.123 79.495 257.028 78.9958 257.028 77.7479V50.5222Z" fill="#D68029"/>
<path opacity="0.5" d="M257.028 50.5222C256.99 49.8462 256.794 49.1883 256.457 48.6014C256.119 48.0145 255.648 47.5148 255.083 47.1424L226.921 30.8985C225.881 30.2745 224.976 30.7737 224.976 32.0216V59.2369C225.012 59.9148 225.207 60.5747 225.545 61.1635C225.883 61.7524 226.354 62.2537 226.921 62.6272L238.714 69.4284L242.437 84.466C242.478 84.6989 242.597 84.911 242.774 85.0673C242.952 85.2235 243.177 85.3146 243.413 85.3255C243.65 85.3364 243.883 85.2665 244.074 85.1272C244.265 84.988 244.403 84.7877 244.465 84.5595L247.876 74.7113L255.083 78.8711C256.123 79.495 257.028 78.9958 257.028 77.7479V50.5222Z" fill="white"/>
<path d="M235.646 43.3259C236.221 43.6528 236.752 44.0511 237.227 44.5114C237.649 44.9269 238.029 45.3832 238.36 45.8737C238.65 46.3073 238.884 46.7754 239.057 47.2672C239.204 47.6838 239.298 48.117 239.338 48.5568C239.338 49.0039 239.39 49.4719 239.39 49.9607C239.39 50.4495 239.39 50.8966 239.338 51.3126C239.314 51.6513 239.218 51.981 239.057 52.2798C238.906 52.5545 238.658 52.7624 238.36 52.8621C237.994 52.9815 237.602 52.9995 237.227 52.9141C236.666 52.7845 236.131 52.5594 235.646 52.2486C235.066 51.9286 234.531 51.5335 234.055 51.0734C233.629 50.6723 233.252 50.222 232.932 49.7319C232.638 49.3007 232.404 48.832 232.235 48.3384C232.09 47.9207 231.993 47.4882 231.944 47.0489C231.944 46.5913 231.944 46.1233 231.944 45.6449C231.944 45.1666 231.944 44.6986 231.944 44.293C231.976 43.9545 232.075 43.6258 232.235 43.3259C232.385 43.0485 232.634 42.8372 232.932 42.7331C233.301 42.6411 233.686 42.6411 234.055 42.7331C234.616 42.8374 235.154 43.0379 235.646 43.3259ZM245.588 49.6591C245.697 49.5856 245.822 49.5392 245.952 49.5239C246.143 49.5364 246.326 49.6012 246.482 49.7111L247.97 50.5638C248.138 50.6638 248.286 50.7943 248.406 50.9486C248.503 51.0824 248.557 51.2416 248.562 51.4062C248.566 51.4442 248.566 51.4826 248.562 51.5206C248.542 51.5576 248.517 51.5925 248.49 51.6246L236.239 60.6721C236.13 60.7456 236.005 60.792 235.875 60.8073C235.684 60.7948 235.501 60.73 235.345 60.6201L233.857 59.7673C233.685 59.6732 233.536 59.5417 233.421 59.3826C233.324 59.2488 233.27 59.0896 233.265 58.925C233.255 58.891 233.255 58.855 233.265 58.821C233.279 58.7773 233.304 58.7379 233.337 58.7066L245.588 49.6591ZM236.956 49.6591C236.972 49.507 236.972 49.3537 236.956 49.2015V47.86C236.971 47.7009 236.971 47.5408 236.956 47.3816C236.926 47.0157 236.816 46.6608 236.634 46.3417C236.398 45.9466 236.056 45.6259 235.646 45.4161C235.168 45.1458 234.835 45.0626 234.606 45.1978C234.51 45.2786 234.431 45.3786 234.376 45.4914C234.32 45.6042 234.289 45.7273 234.284 45.8529C234.284 45.9361 234.284 46.0921 234.284 46.3001C234.284 46.5081 234.284 46.7265 234.284 46.9657C234.284 47.2048 234.284 47.4232 234.284 47.6416C234.284 47.86 234.284 48.0264 234.284 48.1304C234.324 48.4943 234.434 48.8472 234.606 49.1703C234.861 49.5659 235.221 49.8828 235.646 50.0855C236.124 50.3663 236.457 50.4391 236.634 50.3143C236.73 50.2401 236.809 50.1458 236.864 50.038C236.92 49.9302 236.951 49.8115 236.956 49.6903V49.6591ZM246.378 58.197C246.959 58.524 247.494 58.9261 247.97 59.393C248.394 59.8 248.77 60.2535 249.093 60.7449C249.384 61.1772 249.619 61.6456 249.79 62.1384C249.933 62.5564 250.031 62.9888 250.081 63.4279C250.081 63.8855 250.081 64.3535 250.081 64.8423C250.081 65.331 250.081 65.7782 250.081 66.1838C250.049 66.5223 249.95 66.851 249.79 67.1509C249.639 67.4283 249.391 67.6396 249.093 67.7437C248.725 67.8467 248.337 67.8467 247.97 67.7437C247.407 67.6141 246.869 67.3927 246.378 67.0885C245.808 66.759 245.278 66.3646 244.798 65.9134C244.374 65.5037 243.994 65.0506 243.664 64.5615C243.379 64.1256 243.145 63.658 242.967 63.168C242.821 62.7514 242.727 62.3182 242.687 61.8784C242.687 61.4313 242.635 60.9633 242.635 60.4745C242.635 59.9857 242.635 59.5386 242.687 59.1226C242.712 58.7842 242.807 58.4547 242.967 58.1554C243.124 57.8851 243.37 57.6787 243.664 57.5731C244.03 57.4551 244.421 57.4336 244.798 57.5107C245.362 57.6569 245.897 57.8997 246.378 58.2282V58.197ZM247.699 64.5615C247.708 64.4091 247.708 64.2563 247.699 64.1039V62.7936C247.699 62.5856 247.699 62.4192 247.699 62.3152C247.663 61.9503 247.554 61.5965 247.377 61.2753C247.122 60.8765 246.762 60.5562 246.337 60.3497C245.859 60.0793 245.526 59.9961 245.349 60.1313C245.249 60.2088 245.168 60.3081 245.112 60.4217C245.056 60.5352 245.027 60.66 245.027 60.7865C245.015 60.9353 245.015 61.0848 245.027 61.2337C245.027 61.4417 245.027 61.66 245.027 61.8992C245.027 62.1384 245.027 62.3568 245.027 62.5752C245.016 62.7379 245.016 62.9012 245.027 63.064C245.057 63.4299 245.167 63.7848 245.349 64.1039C245.585 64.4989 245.927 64.8197 246.337 65.0295C246.815 65.2998 247.162 65.3726 247.377 65.2478C247.475 65.1688 247.555 65.0692 247.611 64.956C247.666 64.8428 247.697 64.7188 247.699 64.5927V64.5615Z" fill="#FAFAFA"/>
<path d="M63.6783 154.028C63.7153 153.351 63.9105 152.693 64.2483 152.106C64.5861 151.519 65.057 151.02 65.623 150.648L93.7851 134.393C94.8251 133.769 95.7299 134.279 95.7299 135.527V162.742C95.6945 163.419 95.5 164.078 95.1621 164.665C94.8242 165.252 94.3524 165.752 93.7851 166.122L81.992 172.923L78.2689 187.971C78.2814 188.247 78.1837 188.517 77.9974 188.72C77.8112 188.924 77.5516 189.046 77.2758 189.058C77 189.07 76.7305 188.973 76.5267 188.787C76.3229 188.6 76.2014 188.341 76.189 188.065L72.7884 178.217L65.5814 182.376C64.5415 183 63.6367 182.491 63.6367 181.253L63.6783 154.028Z" fill="#D68029"/>
<g opacity="0.5">
<path d="M63.6783 154.028C63.7153 153.351 63.9105 152.693 64.2483 152.106C64.5861 151.519 65.057 151.02 65.623 150.648L93.7851 134.393C94.8251 133.769 95.7299 134.279 95.7299 135.527V162.742C95.6945 163.419 95.5 164.078 95.1621 164.665C94.8242 165.252 94.3524 165.752 93.7851 166.122L81.992 172.923L78.2689 187.971C78.2814 188.247 78.1837 188.517 77.9974 188.72C77.8112 188.924 77.5516 189.046 77.2758 189.058C77 189.07 76.7305 188.973 76.5267 188.787C76.3229 188.6 76.2014 188.341 76.189 188.065L72.7884 178.217L65.5814 182.376C64.5415 183 63.6367 182.491 63.6367 181.253L63.6783 154.028Z" fill="white"/>
</g>
<path d="M73.5164 151.999C74.0793 151.65 74.6986 151.4 75.3468 151.261C75.782 151.173 76.2322 151.195 76.6571 151.324C76.9989 151.447 77.2838 151.691 77.4579 152.01C77.6439 152.353 77.7538 152.733 77.7803 153.123C77.8219 153.601 77.8427 154.121 77.8427 154.683C77.8427 155.244 77.8219 155.785 77.7803 156.305C77.7347 156.815 77.6264 157.318 77.4579 157.802C77.2586 158.367 76.9896 158.905 76.6571 159.404C76.2808 159.972 75.8412 160.495 75.3468 160.964C74.7941 161.49 74.1795 161.948 73.5164 162.326C72.9467 162.675 72.3255 162.931 71.6757 163.085C71.2452 163.181 70.7972 163.163 70.3757 163.033C70.0339 162.91 69.7491 162.666 69.575 162.347C69.3857 162.004 69.2722 161.625 69.2422 161.234C69.2422 160.756 69.2422 160.194 69.2422 159.674C69.2422 159.154 69.2422 158.572 69.2422 158.052C69.2919 157.541 69.4037 157.038 69.575 156.554C69.7699 155.988 70.0392 155.449 70.3757 154.953C70.7539 154.386 71.1896 153.86 71.6757 153.383C72.2307 152.848 72.8488 152.384 73.5164 151.999ZM84.956 146.061C85.074 145.834 85.2133 145.618 85.372 145.417C85.547 145.217 85.7544 145.048 85.9855 144.917L87.7119 143.878C87.8553 143.772 88.0347 143.727 88.2111 143.753C88.3358 143.753 88.3982 143.888 88.3982 144.054C88.4056 144.11 88.4056 144.166 88.3982 144.221L88.315 144.439L74.1508 171.249C74.0329 171.473 73.8936 171.686 73.7348 171.883C73.5621 172.085 73.3542 172.254 73.1212 172.382L71.4053 173.422C71.2577 173.528 71.0753 173.572 70.8957 173.547C70.7709 173.547 70.7085 173.412 70.7085 173.246C70.7012 173.19 70.7012 173.134 70.7085 173.079L70.7917 172.861L84.956 146.061ZM75.0348 157.636C75.0489 157.449 75.0489 157.261 75.0348 157.074V155.525C75.0498 155.348 75.0498 155.171 75.0348 154.995C75.0291 154.849 74.9928 154.706 74.9283 154.575C74.8638 154.444 74.7725 154.329 74.6604 154.235C74.4524 154.09 74.0676 154.235 73.5164 154.495C73.091 154.71 72.7279 155.03 72.462 155.425C72.1961 155.82 72.0363 156.277 71.9981 156.752C71.9829 156.942 71.9829 157.134 71.9981 157.324C71.9981 157.574 71.9981 157.834 71.9981 158.104C71.9981 158.374 71.9981 158.624 71.9981 158.874C71.9818 159.046 71.9818 159.221 71.9981 159.393C71.9981 159.54 72.0318 159.685 72.0968 159.817C72.1617 159.948 72.256 160.063 72.3725 160.153C72.5805 160.298 72.9548 160.205 73.5164 159.893C73.9857 159.657 74.3814 159.297 74.6604 158.853C74.8675 158.477 74.9949 158.063 75.0348 157.636ZM85.9231 154.932C86.4907 154.582 87.1129 154.329 87.7639 154.183C88.1956 154.095 88.6425 154.117 89.0638 154.246C89.4056 154.369 89.6905 154.613 89.8646 154.932C90.0539 155.275 90.1674 155.654 90.1974 156.045C90.1974 156.523 90.2494 157.085 90.2494 157.605C90.2494 158.125 90.2494 158.707 90.1974 159.227C90.1485 159.738 90.0367 160.241 89.8646 160.725C89.6677 161.294 89.3986 161.836 89.0638 162.337C88.2673 163.539 87.1984 164.537 85.9439 165.248C85.3792 165.599 84.7609 165.856 84.1136 166.008C83.6801 166.109 83.2273 166.091 82.8033 165.956C82.4594 165.836 82.1734 165.591 82.0025 165.269C81.8153 164.926 81.7053 164.546 81.6801 164.156C81.6801 163.688 81.6177 163.116 81.6177 162.607C81.6177 162.097 81.6177 161.494 81.6801 160.974C81.725 160.467 81.8333 159.967 82.0025 159.487C82.2017 158.919 82.4707 158.377 82.8033 157.875C83.182 157.306 83.6213 156.779 84.1136 156.305C84.6521 155.759 85.2606 155.287 85.9231 154.901V154.932ZM87.4415 160.527C87.4557 160.34 87.4557 160.152 87.4415 159.965V158.426C87.4565 158.25 87.4565 158.072 87.4415 157.896C87.4423 157.749 87.4089 157.604 87.3439 157.472C87.2789 157.34 87.1841 157.226 87.0671 157.137C86.8591 156.991 86.4847 157.074 85.9231 157.397C85.4557 157.635 85.0606 157.994 84.7792 158.437C84.5783 158.807 84.4512 159.214 84.4048 159.633C84.3948 159.82 84.3948 160.007 84.4048 160.194C84.4048 160.454 84.4048 160.714 84.4048 160.974C84.4048 161.234 84.4048 161.505 84.4048 161.744C84.394 161.917 84.394 162.091 84.4048 162.264C84.4105 162.409 84.4468 162.552 84.5113 162.683C84.5758 162.814 84.667 162.93 84.7792 163.023C84.9872 163.168 85.372 163.085 85.9231 162.763C86.3927 162.528 86.7885 162.168 87.0671 161.723C87.2816 161.347 87.4095 160.928 87.4415 160.496V160.527Z" fill="#FAFAFA"/>
</svg>
