<svg width="512" height="512" viewBox="0 0 512 512" fill="none" xmlns="http://www.w3.org/2000/svg">
<g clip-path="url(#clip0_3362_465)">
<path d="M107.352 346.841C95.3123 346.841 83.744 350.551 73.8809 357.566L83.4612 371.022C90.5062 366.005 98.7641 363.357 107.352 363.357C130.118 363.357 148.642 381.88 148.642 404.646C148.642 413.235 145.993 421.493 140.977 428.537L154.432 438.118C161.448 428.255 165.158 416.686 165.158 404.646C165.158 372.78 139.219 346.841 107.352 346.841ZM107.352 445.936C84.5863 445.936 66.0627 427.412 66.0627 404.646C66.0627 396.058 68.7115 387.8 73.7282 380.755L60.2729 371.176C53.2567 381.037 49.5469 392.604 49.5469 404.645C49.5469 436.512 75.4861 462.451 107.352 462.451C119.392 462.451 130.961 458.741 140.824 451.726L131.244 438.27C124.199 443.286 115.941 445.935 107.352 445.935V445.936Z" fill="#D68029"/>
<path d="M487.218 165.166C476.468 165.166 467.383 172.093 463.965 181.682H394.853C391.433 172.093 382.348 165.166 371.599 165.166C357.942 165.166 346.825 176.284 346.825 189.94C346.825 196.157 349.212 201.783 353.01 206.141L301.495 297.725C300.128 297.482 298.729 297.293 297.286 297.293C294.148 297.293 291.164 297.939 288.391 299.011L269.125 276.532C271.226 272.898 272.512 268.746 272.512 264.262C272.512 250.605 261.395 239.488 247.738 239.488C241.371 239.488 235.617 241.971 231.222 245.927V198C231.222 179.618 219.396 163.731 201.799 158.445L148.643 142.506V129.881C163.598 119.409 173.417 102.135 173.417 82.5872V60.3485C178.153 55.9603 182.058 50.7536 184.945 44.9785L193.327 28.2242L173.195 21.5105C164.816 18.7202 156.846 14.8271 149.494 9.93387C139.811 3.45263 128.419 -0.0025004 116.767 0.00783562C84.2567 0.00783562 57.789 26.4497 57.7746 58.9622L57.758 83.99C57.7498 99.0545 63.6047 113.216 74.2584 123.869C76.8095 126.416 79.5955 128.716 82.5793 130.739V142.506L29.423 158.453C11.8264 163.731 0 179.626 0 198.008V280.778H219.545L177.429 322.893L166.804 312.265L149.106 324.067C144.519 321.687 139.737 319.703 134.813 318.135L130.631 297.293H84.0658L79.8852 318.135C74.958 319.696 70.1753 321.681 65.5907 324.067L47.8929 312.265L14.9706 345.187L26.7732 362.885C24.393 367.473 22.4084 372.255 20.841 377.18L0 381.368V427.933L20.842 432.113C22.403 437.041 24.3879 441.823 26.7743 446.408L14.9716 464.105L47.8939 497.028L65.5917 485.225C70.1792 487.606 74.9614 489.59 79.8862 491.158L84.075 511.999H130.639L134.82 491.158C139.747 489.597 144.53 487.612 149.115 485.225L166.812 497.028L199.735 464.105L187.933 446.408C190.313 441.82 192.297 437.038 193.864 432.113L214.706 427.925V381.36L193.864 377.18C192.304 372.252 190.319 367.47 187.933 362.885L199.735 345.187L189.106 334.571L237.125 286.551C240.355 288.104 243.924 289.035 247.738 289.035C250.876 289.035 253.859 288.39 256.633 287.318L275.899 309.797C273.798 313.43 272.512 317.583 272.512 322.067C272.512 335.724 283.629 346.841 297.286 346.841C310.942 346.841 322.059 335.724 322.059 322.067C322.059 315.849 319.673 310.224 315.874 305.866L367.385 214.286C368.764 214.524 370.164 214.714 371.607 214.714C382.357 214.714 391.441 207.787 394.86 198.198H463.972C467.392 207.787 476.476 214.714 487.226 214.714C500.883 214.714 512 203.597 512 189.94C512 176.284 500.875 165.166 487.218 165.166ZM114.744 206.456H116.47L122.894 264.262H108.32L114.744 206.456ZM117.913 189.94H113.301L107.434 172.351C109.963 173.022 112.671 173.424 115.611 173.424C118.551 173.424 121.261 173.022 123.776 172.351L117.913 189.94ZM116.768 16.5237C125.183 16.5237 133.325 18.9908 140.336 23.6565C148.9 29.3762 158.193 33.9208 167.965 37.1685L170.03 37.8622C163.748 50.1768 151.284 57.8134 137.453 57.8134C130.228 57.8179 123.165 55.6794 117.155 51.6684L99.7001 40.0268L93.6676 43.0389C87.9573 45.8886 81.8411 47.8391 75.5353 48.8215C80.0957 30.2979 96.8573 16.5227 116.768 16.5227V16.5237ZM74.2811 65.6316C82.6369 64.7365 90.796 62.5122 98.45 59.0428L107.99 65.4096C122.418 75.0229 141.449 76.7158 156.901 70.6885V82.5872C156.901 105.353 138.272 123.877 115.374 123.877H114.131C103.478 123.877 93.4705 119.731 85.9424 112.199C78.4173 104.668 74.2729 94.651 74.2811 84.0065V65.6316ZM114.124 140.393H115.365C121.191 140.393 126.809 139.509 132.119 137.916V146.372C130.079 149.533 124.389 156.909 115.611 156.909C106.833 156.909 101.143 149.533 99.0952 146.372V138.321C103.933 139.659 108.97 140.393 114.124 140.393ZM16.5159 198.008C16.5159 186.977 23.6084 177.444 34.1724 174.275L85.5429 158.864L98.9455 199.081L91.7043 264.262H66.0635V198.198H49.5476V264.262H16.5159V198.008ZM214.706 264.262H181.674V198.198H165.159V264.262H139.518L132.277 199.081L145.679 158.865L197.05 174.276C207.614 177.436 214.706 186.976 214.706 198.008V264.262ZM198.19 394.892V414.392L180.585 417.909L179.303 422.952C177.551 429.843 174.814 436.446 171.179 442.557L168.522 447.025L178.477 461.98L164.695 475.762L149.739 465.807L145.271 468.464C139.162 472.103 132.559 474.839 125.667 476.589L120.623 477.871L117.107 495.484H97.6087L94.0919 477.879L89.0484 476.597C82.157 474.844 75.554 472.108 69.443 468.472L64.9755 465.815L50.0204 475.77L36.2379 461.989L46.198 447.032L43.5368 442.565C39.8978 436.456 37.1613 429.853 35.4121 422.961L34.129 417.916L16.5159 414.4V394.901L34.1207 391.384L35.4028 386.341C37.1554 379.449 39.8918 372.846 43.5276 366.735L46.1845 362.268L36.2296 347.313L50.0111 333.53L64.9662 343.49L69.4348 340.829C75.5438 337.19 82.1469 334.454 89.0391 332.704L94.0836 331.421L97.5995 313.809H117.099L120.615 331.414L125.659 332.696C132.55 334.448 139.153 337.184 145.264 340.82L149.732 343.478L164.687 333.523L178.469 347.304L168.509 362.26L171.17 366.728C174.809 372.837 177.546 379.44 179.295 386.332L180.577 391.376L198.19 394.892ZM239.48 264.262C239.48 259.705 243.182 256.004 247.738 256.004C252.294 256.004 255.996 259.705 255.996 264.262C255.996 268.822 252.294 272.52 247.738 272.52C243.182 272.52 239.48 268.822 239.48 264.262ZM297.286 330.325C292.729 330.325 289.028 326.628 289.028 322.067C289.028 317.511 292.729 313.809 297.286 313.809C301.842 313.809 305.543 317.511 305.543 322.067C305.543 326.628 301.842 330.325 297.286 330.325ZM371.607 198.198C367.051 198.198 363.349 194.501 363.349 189.94C363.349 185.384 367.051 181.682 371.607 181.682C376.163 181.682 379.865 185.384 379.865 189.94C379.865 194.501 376.163 198.198 371.607 198.198ZM487.218 198.198C482.662 198.198 478.96 194.501 478.96 189.94C478.96 185.384 482.662 181.682 487.218 181.682C491.774 181.682 495.476 185.384 495.476 189.94C495.476 194.501 491.774 198.198 487.218 198.198Z" fill="#D68029"/>
<path d="M478.961 222.972H429.413V495.484H412.897V264.262H363.35V495.484H346.834V388.131H297.286V495.484H280.77V355.099H231.223V495.484H214.707V512H511.993V495.484H478.961V222.972ZM445.929 239.488H462.445V495.484H445.929V239.488ZM379.866 280.777H396.381V495.484H379.866V280.777ZM313.802 404.646H330.318V495.484H313.802V404.646ZM247.739 371.615H264.255V495.484H247.739V371.615ZM181.675 495.484H198.191V512H181.675V495.484ZM132.128 404.646C132.128 390.99 121.01 379.873 107.354 379.873C93.6973 379.873 82.5801 390.99 82.5801 404.646C82.5801 418.303 93.6973 429.42 107.354 429.42C121.01 429.42 132.128 418.303 132.128 404.646ZM99.0959 404.646C99.0959 400.09 102.798 396.389 107.354 396.389C111.91 396.389 115.612 400.09 115.612 404.646C115.612 409.207 111.91 412.904 107.354 412.904C102.798 412.904 99.0959 409.207 99.0959 404.646ZM495.477 0.0078125H363.35C354.241 0.0078125 346.834 7.41518 346.834 16.5237V33.0395H239.481C230.372 33.0395 222.965 40.4469 222.965 49.5554V132.135C222.965 141.243 230.372 148.651 239.481 148.651H264.255V181.682L308.294 148.651H371.608C380.716 148.651 388.124 141.243 388.124 132.135V115.619H412.897V148.651L456.937 115.619H495.477C504.585 115.619 511.993 108.211 511.993 99.103V16.5237C511.993 7.41518 504.585 0.0078125 495.477 0.0078125ZM371.608 132.135H302.794L280.77 148.651V132.135H239.481L239.464 49.5554H371.608V132.135ZM495.477 99.103H451.437L429.413 115.619V99.103H388.124V49.5554C388.124 40.4469 380.716 33.0395 371.608 33.0395H363.35V16.5237H495.477V99.103Z" fill="#D68029"/>
<path d="M421.155 49.5557H437.671V66.0715H421.155V49.5557ZM454.186 49.5557H470.702V66.0715H454.186V49.5557ZM255.996 66.0715H355.091V82.5874H255.996V66.0715ZM255.996 99.1032H355.091V115.619H255.996V99.1032Z" fill="#D68029"/>
</g>
<defs>
<clipPath id="clip0_3362_465">
<rect width="512" height="512" fill="white"/>
</clipPath>
</defs>
</svg>
