<svg xmlns="http://www.w3.org/2000/svg" width="795" height="490" viewBox="0 0 795 490" fill="none"><g clip-path="url(#clip0_4077_735)"><mask id="mask0_4077_735" style="mask-type:luminance" maskUnits="userSpaceOnUse" x="0" y="0" width="795" height="490"><path d="M795 0H0V490H795V0Z" fill="white"></path></mask><g mask="url(#mask0_4077_735)"><path d="M554.566 475.915H555.274C555.155 475.618 555.043 475.315 554.941 475.012C554.831 475.323 554.695 475.617 554.566 475.915Z" fill="url(#paint0_linear_4077_735)"></path><path opacity="0.1" d="M130.317 30.1896C131.166 37.619 130.422 45.2321 127.904 52.1835C123.292 64.9165 116.091 74.1841 103.413 79.5192C90.8708 84.7982 77.7596 84.0038 65.7705 77.3935C63.5153 76.1497 61.407 74.7772 59.4169 73.3075C48.8054 81.8136 35.3453 86.9268 20.6684 86.9268C19.9913 86.9268 19.3238 86.9007 18.6535 86.883C25.2269 94.3275 29.2306 104.092 29.2306 114.791C29.2306 133.317 17.2635 149.05 0.621094 154.741C11.3589 159.865 18.788 170.803 18.788 183.467C18.788 194.282 13.3738 203.835 5.10687 209.59C14.9355 212.195 23.9249 216.865 31.5765 223.097C46.0419 234.865 55.7524 252.223 57.3759 271.88C57.5365 273.82 57.6163 275.785 57.6163 277.758C57.6163 301.318 46.0228 322.173 28.2239 334.98C37.9618 338.156 44.9981 347.281 44.9981 358.05C44.9981 358.531 44.9803 359.01 44.9541 359.491C52.4973 354.617 61.4784 351.781 71.1354 351.781C71.8495 351.781 72.572 351.798 73.2753 351.833C98.9249 352.945 119.365 374.023 119.365 399.877C119.365 404.85 118.605 409.643 117.206 414.16C121.219 412.817 125.509 412.071 129.976 412.071C152.092 412.071 170.027 429.938 170.062 451.985C175.004 448.437 181.059 446.347 187.614 446.347C195.852 446.347 203.309 449.647 208.74 455.001C208.615 454.041 208.544 453.061 208.544 452.056C208.544 439.525 218.737 429.367 231.302 429.367C241.647 429.367 250.376 436.262 253.142 445.688C256.264 422.138 276.462 403.96 300.932 403.96C326.732 403.96 347.797 424.157 349.1 449.556C352.149 447.636 355.752 446.516 359.622 446.516C365.695 446.516 371.126 449.263 374.738 453.568C374.728 453.338 374.72 453.097 374.72 452.866C374.72 440.333 384.905 430.168 397.479 430.168C405.014 430.168 411.686 433.823 415.831 439.455C421.905 413.655 445.117 394.452 472.835 394.452C501.809 394.452 525.852 415.432 530.561 442.985C534.619 441.063 539.39 440.627 543.991 442.166C549.235 443.918 553.132 447.857 555.005 452.626L555.191 452.012C558.839 441.18 570.592 435.337 581.456 438.965C586.065 440.503 589.766 443.501 592.227 447.262C594.672 417.247 619.865 393.642 650.596 393.642C663.473 393.642 675.37 397.797 685.036 404.822C687.017 406.263 688.908 407.818 690.691 409.491C691.681 405.677 693.321 402.118 695.49 398.952C696.14 397.983 696.844 397.058 697.604 396.17C701.482 391.571 706.573 388.012 712.38 385.977C710.365 383.086 709.169 379.572 709.169 375.783C709.169 365.912 717.186 357.917 727.076 357.917C731.089 357.917 734.781 359.252 737.769 361.473C737.644 360.31 737.581 359.118 737.581 357.917C737.581 346.568 743.165 336.528 751.725 330.347C729.11 322.306 712.797 301.016 712.229 275.846C712.219 275.385 712.211 274.931 712.211 274.468C712.211 250.998 725.881 230.72 745.715 221.106C751.127 218.483 756.997 216.651 763.176 215.77C759.806 211.198 757.807 205.551 757.807 199.441C757.807 187.433 765.512 177.216 776.269 173.445C774.635 171.107 773.664 168.261 773.664 165.182C773.664 161.688 774.912 158.476 776.981 155.978C759.931 149.022 747.917 132.321 747.917 112.818C747.917 103.649 750.583 95.1013 755.167 87.887C749.611 89.6046 743.709 90.5292 737.581 90.5292C708.241 90.5292 683.886 69.3366 679.008 41.4721C672.962 53.7367 660.3 62.1852 645.665 62.1852C625.143 62.1852 608.521 45.5991 608.521 25.1435C608.521 22.5998 608.771 20.1192 609.261 17.7263C606.596 18.8646 603.661 19.4961 600.576 19.4961C596.205 19.4961 592.149 18.2345 588.724 16.0538C587.777 23.2135 581.652 28.7458 574.215 28.7458C567.659 28.7458 562.113 24.4586 560.24 18.5358C556.236 22.6095 550.652 25.1435 544.474 25.1435C538.025 25.1435 532.227 22.3876 528.188 17.9935C518.557 37.7902 498.206 51.4328 474.662 51.4328C447.035 51.4328 423.804 32.6332 417.125 7.16841C414.797 9.7394 411.56 11.5009 407.832 11.8734C404.765 12.1844 401.831 11.5091 399.325 10.1216C396.648 21.1767 387.241 29.8581 375.256 31.0676C362.868 32.3208 351.577 25.2147 346.994 14.3472C335.232 27.4473 318.153 35.7001 299.131 35.7001C278.336 35.7001 259.848 25.8283 248.121 10.5407C244.777 23.5162 232.346 32.4633 218.567 31.0676C206.581 29.8581 197.172 21.1767 194.499 10.1216C191.991 11.5091 189.057 12.1844 185.99 11.8734C179.384 11.2077 174.281 6.21781 173.175 0.00195312C164.242 15.6046 148.68 26.9146 130.317 30.1896Z" fill="url(#paint1_linear_4077_735)"></path><g opacity="0.190002"><g opacity="0.190002"><path opacity="0.190002" d="M113.453 303.617C113.596 305.337 113.667 307.081 113.667 308.831C113.667 329.725 103.386 348.221 87.5996 359.577C96.2357 362.395 102.476 370.486 102.476 380.037C102.476 380.465 102.46 380.89 102.437 381.316C109.128 376.993 117.091 374.477 125.657 374.477C126.289 374.477 126.929 374.493 127.554 374.525C140.692 359.776 143.041 342.328 132.957 322.697C128.274 313.587 121.663 307.293 113.453 303.617Z" fill="white"></path></g><g opacity="0.190002"><path opacity="0.190002" d="M675.111 425.659C675.989 422.275 677.443 419.12 679.366 416.312C676.162 418.103 673.031 419.711 670.096 421.519C671.852 422.796 673.529 424.176 675.111 425.659Z" fill="white"></path></g><g opacity="0.190002"><path opacity="0.190002" d="M694.21 307.137C685.883 312.625 679.824 321.207 676.4 333.007C670.404 353.625 677.965 370.408 695.064 383.028C684.331 395.86 682.41 399.277 681.24 413.844C684.68 409.765 689.195 406.612 694.344 404.805C692.558 402.242 691.496 399.125 691.496 395.765C691.496 387.012 698.608 379.92 707.379 379.92C710.936 379.92 714.211 381.104 716.861 383.075C716.75 382.043 716.695 380.984 716.695 379.92C716.695 369.857 721.646 360.95 729.239 355.47C709.181 348.339 694.716 329.457 694.21 307.137Z" fill="white"></path></g><g opacity="0.190002"><path opacity="0.190002" d="M120.899 131.137C118.899 130.035 117.028 128.817 115.264 127.514C105.853 135.059 93.9163 139.594 80.9012 139.594C80.2995 139.594 79.7075 139.569 79.1131 139.555C84.9416 146.155 88.4935 154.816 88.4935 164.305C88.4935 180.735 77.8805 194.686 63.1211 199.735C72.644 204.277 79.2325 213.979 79.2325 225.21C79.2325 234.801 74.4321 243.272 67.1005 248.376C75.8158 250.687 83.7881 254.827 90.574 260.357C89.6957 258.526 88.6676 256.705 87.513 254.875C102.231 250.726 112.608 241.742 116.989 226.977C121.395 212.125 117.417 199.001 107.056 187.115C121.916 186.405 134.025 181.05 143.445 170.156C152.518 159.662 155.361 147.321 154.211 133.052C143.108 137.7 131.507 136.987 120.899 131.137Z" fill="white"></path></g><g opacity="0.190002"><path opacity="0.09" d="M751.636 200.83C736.514 194.662 725.863 179.85 725.863 162.554C725.863 154.422 728.226 146.842 732.291 140.445C727.364 141.968 722.129 142.788 716.695 142.788C690.674 142.788 669.075 123.993 664.749 99.281C659.388 110.158 648.156 117.651 635.178 117.651C616.98 117.651 602.238 102.941 602.238 84.8C602.238 82.5442 602.459 80.343 602.894 78.2221C600.53 79.2315 597.928 79.7915 595.191 79.7915C591.315 79.7915 587.718 78.6715 584.68 76.7388C583.843 83.0883 578.409 87.9936 571.813 87.9936C565.999 87.9936 561.08 84.1926 559.419 78.94C555.868 82.5515 550.916 84.8 545.436 84.8C539.718 84.8 534.578 82.3546 530.994 78.459C522.453 96.0157 504.405 108.115 483.525 108.115C459.023 108.115 438.42 91.441 432.498 68.8587C430.433 71.1388 427.561 72.701 424.255 73.0315C421.535 73.3072 418.934 72.7082 416.711 71.4777C414.338 81.282 405.994 88.98 395.365 90.0526C384.38 91.1652 374.368 84.8631 370.303 75.2252C359.871 86.8432 344.724 94.1621 327.854 94.1621C309.411 94.1621 293.016 85.4073 282.616 71.8482C279.65 83.3568 268.625 91.2916 256.405 90.0526C245.776 88.98 237.433 81.282 235.06 71.4777C232.839 72.7082 230.235 73.3072 227.514 73.0315C221.654 72.4411 217.13 68.0157 216.15 62.502C208.229 76.3403 194.426 86.3706 178.141 89.2751C178.894 95.864 178.235 102.614 176 108.78C171.99 119.852 165.76 127.96 154.924 132.733C166.93 148.667 181.943 155.73 201.258 152.292C221.251 148.727 232.403 135.894 237.551 116.578C249.51 121.673 261.468 122.383 272.248 117.343C277.435 121.39 281.414 125.695 286.334 127.999C291.254 130.302 297.12 130.602 303.314 131.934C311.681 146.495 324.92 154.532 342.905 152.465C360.764 150.407 371.654 139.593 376.993 122.106C383.446 121.13 389.703 118.628 394.305 114.44C400.625 113.809 406.209 113.249 412.139 112.665C414.14 118.251 417.106 123.314 421.899 127.06C426.565 130.72 431.928 132.715 437.829 133.338C442.463 149.618 452.83 160.337 469.384 163.153C488.548 166.418 502.886 158.105 512.298 141.573C528.811 141.983 534.309 135.815 541.655 127.36C553.235 132.637 565.074 131.753 577.181 126.784C582.308 145.328 593.23 158.049 612.465 161.804C631.193 165.455 646.614 159.414 658.691 143.979C663.381 170.733 679.294 184.795 706.034 187.549C696.575 199.357 692.044 212.219 696.544 227.183C700.988 241.955 711.151 250.782 726.091 255.127C725.3 256.279 724.573 257.43 723.908 258.59C728.709 256.263 733.914 254.638 739.394 253.857C736.404 249.803 734.634 244.795 734.634 239.377C734.634 228.728 741.465 219.665 751.004 216.322C749.556 214.247 748.694 211.723 748.694 208.994C748.694 205.894 749.801 203.047 751.636 200.83Z" fill="white"></path></g></g><path d="M486.941 338.44C486.941 355.771 501.071 369.85 518.449 369.85C526.484 369.85 533.846 366.837 539.409 361.864L532.864 354.551C529.026 357.97 523.97 360.044 518.449 360.044C506.495 360.044 496.774 350.361 496.774 338.44C496.774 326.533 506.495 316.838 518.449 316.838V307.031C501.071 307.031 486.941 321.125 486.941 338.44Z" fill="url(#paint2_linear_4077_735)"></path><path d="M46.3308 68.2422C44.2328 68.2422 42.5078 69.9626 42.5078 72.0548V402.743C42.5078 404.866 44.2328 406.571 46.3308 406.571H570.348C572.459 406.571 574.184 404.866 574.184 402.743V72.0548C574.184 69.9626 572.459 68.2422 570.348 68.2422H46.3308Z" fill="url(#paint3_radial_4077_735)"></path><path d="M46.18 68.2422C44.1473 68.2422 42.5 69.8851 42.5 71.9122V94.9072C42.5 96.9343 44.1473 98.5771 46.18 98.5771H570.498C572.53 98.5771 574.175 96.9343 574.175 94.9072V71.9122C574.175 69.8851 572.53 68.2422 570.498 68.2422H46.18Z" fill="url(#paint4_linear_4077_735)"></path><path d="M55.8203 83.4098C55.8203 86.3963 58.2463 88.817 61.2409 88.817C64.2341 88.817 66.6616 86.3963 66.6616 83.4098C66.6616 80.4248 64.2341 78.0039 61.2409 78.0039C58.2463 78.0039 55.8203 80.4248 55.8203 83.4098Z" fill="url(#paint5_linear_4077_735)"></path><path d="M74.4531 83.4098C74.4531 86.3963 76.879 88.817 79.8737 88.817C82.8684 88.817 85.2942 86.3963 85.2942 83.4098C85.2942 80.4248 82.8684 78.0039 79.8737 78.0039C76.879 78.0039 74.4531 80.4248 74.4531 83.4098Z" fill="url(#paint6_linear_4077_735)"></path><path d="M103.929 83.4097C103.929 86.3962 101.501 88.817 98.5081 88.817C95.5133 88.817 93.0859 86.3962 93.0859 83.4097C93.0859 80.4247 95.5133 78.0039 98.5081 78.0039C101.501 78.0039 103.929 80.4247 103.929 83.4097Z" fill="white"></path><path d="M87.7727 122.112V121.707C87.7727 120.497 87.5939 119.511 87.3344 118.736C88.4207 118.882 89.1495 120.109 89.6189 121.531C89.0672 121.707 88.4362 121.901 87.7727 122.112ZM84.5169 117.605C84.7283 117.605 84.938 117.67 85.1494 117.816C83.5782 118.558 81.878 120.416 81.1648 124.147C80.1282 124.469 79.1072 124.776 78.153 125.067C78.9953 122.225 80.986 117.605 84.5169 117.605ZM86.4765 122.288V122.499C85.2784 122.871 83.9823 123.274 82.6707 123.679C83.3995 120.852 84.7764 119.496 85.9745 118.978C86.2823 119.737 86.4765 120.819 86.4765 122.288ZM98.4615 123.694C98.4289 123.5 98.2673 123.403 98.1212 123.387C97.975 123.37 95.0442 123.161 95.0442 123.161C95.0442 123.161 93.0037 121.143 92.7923 120.917C92.744 120.884 92.6959 120.852 92.6307 120.819C92.5824 120.804 92.5328 120.787 92.4845 120.771H92.469C92.2748 120.739 92.0649 120.787 91.9499 120.819C91.9344 120.819 91.5133 120.949 90.817 121.159C90.1364 119.204 88.9382 117.411 86.8169 117.411C86.7687 117.411 86.7034 117.411 86.6397 117.428C86.0399 116.621 85.2939 116.281 84.6459 116.281C79.7225 116.281 77.3744 122.419 76.6455 125.536C74.7185 126.133 73.3743 126.553 73.197 126.602C72.1279 126.941 72.0953 126.973 71.9492 127.974C71.8513 128.733 69.0508 150.296 69.0508 150.296L90.817 154.349H90.8325L102.623 151.814C102.623 151.814 98.477 123.888 98.4615 123.694Z" fill="#95BE47"></path><path d="M98.119 123.388C97.9806 123.377 95.045 123.16 95.045 123.16C95.045 123.16 93.0076 121.142 92.7838 120.919C92.7015 120.835 92.588 120.794 92.47 120.773L90.8242 154.356L102.619 151.81C102.619 151.81 98.478 123.889 98.4515 123.696C98.4251 123.506 98.2572 123.399 98.119 123.388Z" fill="#5E8E3E"></path><path d="M86.8202 129.889L85.3655 134.205C85.3655 134.205 84.0912 133.527 82.5278 133.527C80.2387 133.527 80.122 134.959 80.122 135.322C80.122 137.292 85.2738 138.048 85.2738 142.663C85.2738 146.295 82.9645 148.634 79.8502 148.634C76.1127 148.634 74.2012 146.314 74.2012 146.314L75.2019 143.017C75.2019 143.017 77.1663 144.699 78.8244 144.699C79.9077 144.699 80.3474 143.849 80.3474 143.227C80.3474 140.655 76.1219 140.542 76.1219 136.317C76.1219 132.763 78.6814 129.32 83.8457 129.32C85.8364 129.32 86.8202 129.889 86.8202 129.889Z" fill="white"></path><path d="M116.373 137.979C115.197 137.342 114.592 136.806 114.592 136.067C114.592 135.13 115.431 134.526 116.743 134.526C118.271 134.526 119.634 135.162 119.634 135.162L120.71 131.877C120.71 131.877 119.721 131.107 116.81 131.107C112.76 131.107 109.953 133.42 109.953 136.672C109.953 138.515 111.263 139.924 113.012 140.93C114.424 141.734 114.928 142.305 114.928 143.142C114.928 144.014 114.222 144.717 112.911 144.717C110.957 144.717 109.113 143.711 109.113 143.711L107.969 146.997C107.969 146.997 109.674 148.136 112.541 148.136C116.709 148.136 119.702 146.092 119.702 142.404C119.702 140.426 118.188 139.019 116.373 137.979Z" fill="#394E61"></path><path d="M132.979 131.074C130.929 131.074 129.316 132.045 128.071 133.52L128.004 133.487L129.786 124.201H125.147L120.643 147.836H125.282L126.828 139.757C127.432 136.705 129.013 134.829 130.491 134.829C131.533 134.829 131.938 135.532 131.938 136.537C131.938 137.175 131.871 137.946 131.736 138.584L129.987 147.836H134.626L136.442 138.281C136.643 137.276 136.778 136.069 136.778 135.264C136.778 132.65 135.401 131.074 132.979 131.074Z" fill="#394E61"></path><path d="M144.974 144.612C143.403 144.612 142.723 143.272 142.723 141.609C142.723 138.961 144.099 134.632 146.627 134.632C148.278 134.632 148.813 136.036 148.813 137.409C148.813 140.267 147.437 144.612 144.974 144.612ZM147.273 131.078C141.685 131.078 137.994 136.101 137.994 141.706C137.994 145.289 140.213 148.164 144.374 148.164C149.849 148.164 153.558 143.272 153.558 137.537C153.558 134.227 151.598 131.078 147.273 131.078Z" fill="#394E61"></path><path d="M160.976 144.676C159.779 144.676 159.065 144.014 159.065 144.014L159.844 139.685C160.376 136.81 161.883 134.889 163.501 134.889C164.911 134.889 165.348 136.196 165.348 137.44C165.348 140.427 163.568 144.676 160.976 144.676ZM165.414 131.076C162.288 131.076 160.508 133.822 160.508 133.822H160.441L160.716 131.335H156.619C156.409 133.015 156.036 135.566 155.665 137.472L152.441 154.4H157.09L158.369 147.566H158.466C158.466 147.566 159.423 148.165 161.186 148.165C166.629 148.165 170.193 142.609 170.193 136.971C170.193 133.855 168.815 131.076 165.414 131.076Z" fill="#394E61"></path><path d="M176.815 124.436C175.335 124.436 174.16 125.609 174.16 127.116C174.16 128.491 175.034 129.43 176.344 129.43H176.413C177.858 129.43 179.1 128.459 179.135 126.749C179.135 125.408 178.228 124.436 176.815 124.436Z" fill="#394E61"></path><path d="M170.328 147.836H174.967L178.128 131.441H173.454L170.328 147.836Z" fill="#394E61"></path><path d="M189.927 131.408H186.699L186.868 130.638C187.138 129.061 188.079 127.654 189.626 127.654C190.451 127.654 191.103 127.889 191.103 127.889L192.011 124.268C192.011 124.268 191.204 123.865 189.491 123.865C187.843 123.865 186.196 124.335 184.953 125.408C183.372 126.749 182.632 128.693 182.263 130.638L182.129 131.408H179.977L179.306 134.895H181.456L179.002 147.836H183.641L186.094 134.895H189.288L189.927 131.408Z" fill="#394E61"></path><path d="M201.086 131.441C201.086 131.441 198.186 138.729 196.883 142.706H196.817C196.728 141.426 195.674 131.441 195.674 131.441H190.799L193.588 146.494C193.657 146.829 193.623 147.03 193.488 147.265C192.951 148.304 192.042 149.31 190.967 150.048C190.093 150.684 189.118 151.088 188.346 151.355L189.623 155.276C190.563 155.076 192.513 154.305 194.161 152.763C196.279 150.785 198.229 147.735 200.244 143.576L205.927 131.441H201.086Z" fill="#394E61"></path><g opacity="0.600006"><path opacity="0.600006" d="M97.1422 345.038H92.3945V181.209H97.1422V345.038Z" fill="#ADC6E0"></path></g><g opacity="0.600006"><path opacity="0.600006" d="M158.435 345.038H153.688V181.209H158.435V345.038Z" fill="#ADC6E0"></path></g><g opacity="0.600006"><path opacity="0.600006" d="M219.73 345.038H214.982V181.209H219.73V345.038Z" fill="#ADC6E0"></path></g><g opacity="0.600006"><path opacity="0.600006" d="M281.024 345.038H276.275V181.209H281.024V345.038Z" fill="#ADC6E0"></path></g><g opacity="0.600006"><path opacity="0.600006" d="M342.318 345.038H337.57V181.209H342.318V345.038Z" fill="#ADC6E0"></path></g><g opacity="0.600006"><path opacity="0.600006" d="M403.613 345.038H398.865V181.209H403.613V345.038Z" fill="#ADC6E0"></path></g><path d="M92.3945 351.465H119.359V354.237H92.3945V351.465Z" fill="#ADC6E0"></path><path d="M92.3945 356.957H105.878V359.728H92.3945V356.957Z" fill="#ADC6E0"></path><path d="M153.688 351.465H180.653V354.237H153.688V351.465Z" fill="#ADC6E0"></path><path d="M153.688 356.957H167.171V359.728H153.688V356.957Z" fill="#ADC6E0"></path><path d="M214.982 351.465H241.947V354.237H214.982V351.465Z" fill="#ADC6E0"></path><path d="M214.982 356.957H228.465V359.728H214.982V356.957Z" fill="#ADC6E0"></path><path d="M276.275 351.465H303.24V354.237H276.275V351.465Z" fill="#ADC6E0"></path><path d="M276.275 356.957H289.758V359.728H276.275V356.957Z" fill="#ADC6E0"></path><path d="M337.57 351.465H364.534V354.237H337.57V351.465Z" fill="#ADC6E0"></path><path d="M337.57 356.957H351.053V359.728H337.57V356.957Z" fill="#ADC6E0"></path><path d="M398.865 351.465H425.829V354.237H398.865V351.465Z" fill="#ADC6E0"></path><path d="M398.865 356.957H412.346V359.728H398.865V356.957Z" fill="#ADC6E0"></path><path d="M515.084 340.209C510.192 344.57 503.739 347.215 496.695 347.215C481.443 347.215 469.04 334.865 469.04 319.653C469.04 304.461 481.443 292.093 496.695 292.093C511.929 292.093 524.333 304.461 524.333 319.653C524.333 327.823 520.748 335.169 515.084 340.209ZM496.695 279.58C474.525 279.58 456.494 297.561 456.494 319.653C456.494 341.763 474.525 359.728 496.695 359.728C506.948 359.728 516.338 355.884 523.435 349.539C531.68 342.211 536.877 331.521 536.877 319.653C536.877 297.561 518.848 279.58 496.695 279.58Z" fill="#ADC6E0"></path><g opacity="0.600006"><path opacity="0.600006" d="M308.883 125.035H547.625V120.291H308.883V125.035Z" fill="#ADC6E0"></path><path opacity="0.600006" d="M308.883 138.151H547.625V133.406H308.883V138.151Z" fill="#ADC6E0"></path><path opacity="0.600006" d="M308.883 151.271H428.254V146.527H308.883V151.271Z" fill="#ADC6E0"></path></g><path d="M376.901 216.086C373.173 223.653 371.069 231.658 369.036 239.399C367.574 244.962 366.194 250.216 364.265 255.264C360.391 265.408 352.323 276.617 341.296 277.652C332.294 278.498 322.694 272.673 311.975 259.838C311.129 258.823 310.281 257.794 309.426 256.761C301.083 246.637 291.625 235.162 277.608 231.289C257.886 225.844 238.175 238.199 226.306 251.581C221.124 257.424 216.649 263.793 212.323 269.954C206.803 277.814 201.589 285.241 195.1 291.521C185.041 301.262 168.47 308.638 155.87 301.811C150.428 298.862 146.278 293.602 141.886 288.032C137.981 283.083 133.944 277.966 128.594 273.894C117.668 265.579 102.839 263.272 89.8935 267.873C76.9481 272.469 66.9212 283.608 63.7246 296.938L75.8167 299.821C78.0111 290.666 85.1737 282.709 94.0646 279.551C102.954 276.394 113.548 278.042 121.052 283.751C125.149 286.869 128.533 291.158 132.114 295.698C137.094 302.009 142.243 308.536 149.935 312.704C155.336 315.633 161.061 316.904 166.805 316.904C180.435 316.903 194.149 309.723 203.763 300.416C211.095 293.317 216.895 285.056 222.506 277.067C226.824 270.918 230.901 265.113 235.618 259.797C244.999 249.219 260.086 239.316 274.288 243.239C284.519 246.066 292.299 255.506 299.824 264.636C300.693 265.689 301.559 266.738 302.423 267.773C315.963 283.984 329.074 291.243 342.461 289.997C356.645 288.666 369.14 277.332 375.884 259.677C378.05 254.003 379.583 248.177 381.061 242.542C383.026 235.064 384.883 228.001 388.059 221.552C392.924 211.682 403.158 202.688 413.294 204.566L415.574 192.377C413.851 192.057 412.15 191.904 410.474 191.904C395.638 191.906 382.935 203.833 376.901 216.086Z" fill="url(#paint7_linear_4077_735)"></path><path d="M456.49 212.276C456.49 234.36 474.518 252.337 496.693 252.337C504.309 252.337 511.426 250.216 517.503 246.541C529.113 239.505 536.883 226.782 536.883 212.276C536.883 210.647 536.789 209.035 536.588 207.455C534.193 187.602 517.224 172.18 496.693 172.18C474.518 172.18 456.49 190.158 456.49 212.276ZM469.048 212.276C469.048 197.055 481.449 184.687 496.693 184.687C508.52 184.687 518.653 192.158 522.585 202.621C523.703 205.626 524.325 208.882 524.325 212.276C524.325 222.131 519.104 230.795 511.271 235.661C507.044 238.296 502.04 239.831 496.693 239.831C481.449 239.831 469.048 227.465 469.048 212.276Z" fill="url(#paint8_linear_4077_735)"></path><path d="M524.327 212.278C524.327 222.133 519.106 230.797 511.273 235.663L517.505 246.543C529.113 239.507 536.883 226.784 536.883 212.278C536.883 210.649 536.791 209.037 536.588 207.457L522.586 202.623C523.703 205.628 524.327 208.884 524.327 212.278Z" fill="url(#paint9_linear_4077_735)"></path><path d="M536.878 212.261H524.332C524.332 197.051 511.93 184.682 496.695 184.682V172.17C518.848 172.17 536.878 190.151 536.878 212.261Z" fill="#ADC6E0"></path><g opacity="0.199997"><g opacity="0.199997"><path opacity="0.199997" d="M116.509 330.26V340.845C116.493 354.731 116.477 367.673 116.477 379.483C116.462 389.324 116.446 398.39 116.415 406.574H46.3269C44.2289 406.574 42.5039 404.869 42.5039 402.745V323.518C57.7338 323.534 72.4508 323.534 86.5617 323.534C94.3942 323.534 102.025 323.549 109.438 323.549H110.821C111.302 323.564 111.8 323.611 112.25 323.735C113.198 323.968 114.053 324.464 114.737 325.13C115.436 325.78 115.949 326.618 116.244 327.501C116.555 328.415 116.524 329.376 116.509 330.26Z" fill="#394E61"></path></g></g><path d="M91.6092 331.734C91.4022 332.347 91.262 332.989 91.2585 333.638L91.25 335.493V339.171C91.25 344.071 91.25 348.938 91.2518 353.769C91.2534 363.43 91.2551 372.949 91.2551 382.304C91.262 401.014 91.2689 419.061 91.274 436.251C91.2791 444.848 91.2842 453.229 91.2876 461.374C91.2996 462.402 91.2603 463.38 91.3185 464.44C91.4143 465.494 91.7924 466.512 92.3757 467.385C93.5529 469.13 95.6403 470.187 97.7071 470.134C101.666 470.131 105.564 470.129 109.396 470.125C124.728 470.111 139.006 470.099 152.043 470.088C178.108 470.045 199.2 470.011 213.794 469.985C221.076 469.961 226.731 469.941 230.583 469.927C232.491 469.914 233.952 469.904 234.949 469.895C235.93 469.886 236.435 469.864 236.435 469.864C236.435 469.864 236.949 469.924 237.914 469.707C238.856 469.492 240.326 468.869 241.462 467.275C241.997 466.478 242.447 465.441 242.512 464.241C242.555 463.053 242.532 461.767 242.545 460.366C242.555 457.565 242.564 454.336 242.574 450.703C242.6 436.148 242.634 415.111 242.676 389.116C242.689 376.116 242.701 361.875 242.714 346.589C242.718 342.767 242.721 338.88 242.722 334.93C242.726 333.965 242.764 332.897 242.424 331.901C242.095 330.916 241.541 329.994 240.771 329.276C240.008 328.556 239.065 328.012 238.035 327.752C237.525 327.604 236.991 327.561 236.462 327.541L234.932 327.54C226.766 327.536 218.364 327.531 209.745 327.526C175.273 327.519 137.375 327.51 97.5976 327.503C97.5634 327.5 97.5309 327.5 97.4984 327.5C94.8926 327.5 92.4305 329.29 91.6092 331.734ZM236.995 469.808C236.939 469.815 236.888 469.82 236.841 469.825C236.893 469.82 236.944 469.813 236.995 469.808Z" fill="url(#paint10_linear_4077_735)"></path><path d="M236.997 469.809C236.866 469.825 236.761 469.836 236.676 469.842C236.785 469.836 236.89 469.82 236.997 469.809Z" stroke="#9FE0F6" stroke-width="1.33333" stroke-miterlimit="10"></path><path d="M117.898 454.389H126.034V384.691H117.898V454.389Z" fill="url(#paint11_linear_4077_735)"></path><path d="M154.865 454.389H162.999V379.035H154.865V454.389Z" fill="url(#paint12_linear_4077_735)"></path><path d="M193.158 454.389H201.292V369.467H193.158V454.389Z" fill="url(#paint13_linear_4077_735)"></path><path d="M175.172 454.391H183.307V420.453H175.172V454.391Z" fill="url(#paint14_linear_4077_735)"></path><path d="M127.379 454.39H135.513V377.225H127.379V454.39Z" fill="url(#paint15_linear_4077_735)"></path><path d="M165.008 454.39H173.143V361.059H165.008V454.39Z" fill="url(#paint16_linear_4077_735)"></path><path d="M214.135 454.39H222.27V361.059H214.135V454.39Z" fill="url(#paint17_linear_4077_735)"></path><path d="M204.021 454.39H212.159V342.625H204.021V454.39Z" fill="url(#paint18_linear_4077_735)"></path><path d="M137.328 454.389H145.464V405.414H137.328V454.389Z" fill="url(#paint19_linear_4077_735)"></path><path d="M233.907 458.62C233.907 458.795 204.883 458.937 169.088 458.937C133.282 458.937 104.266 458.795 104.266 458.62C104.266 458.444 133.282 458.303 169.088 458.303C204.883 458.303 233.907 458.444 233.907 458.62Z" fill="#ADC6E0"></path><path d="M105.462 443.85H100.498V441.994H105.462V443.85Z" fill="#ADC6E0"></path><path d="M105.462 419.048H100.498V417.191H105.462V419.048Z" fill="#ADC6E0"></path><path d="M105.462 372.367H100.498V370.51H105.462V372.367Z" fill="#ADC6E0"></path><path d="M105.462 348.909H100.498V347.053H105.462V348.909Z" fill="#ADC6E0"></path><path d="M105.713 395.708H100.75V393.852H105.713V395.708Z" fill="#ADC6E0"></path><path d="M605.036 305.129C570.67 311.798 573.436 334.481 573.436 334.481L568.833 418.499L563.898 486.911L690.658 489.459L712.341 403.86L752.997 363.14L732.556 325.7C712.115 299.606 668.848 301.286 668.848 301.286C668.848 301.286 662.648 300.691 652.621 300.691C640.792 300.691 623.636 301.52 605.036 305.129Z" fill="#D68029"></path><path d="M698.641 374.384L728.804 436.814L636.893 438.449L644.058 485.522L757.594 486.908C779.05 487.17 794.89 469.729 795 450.305V449.917C794.974 444.764 793.838 439.482 791.406 434.359L742.86 344.574L698.641 374.384Z" fill="#D68029"></path><path d="M486.385 461.13L539.541 464.598C539.541 464.598 571.284 414.71 570.565 415.741C569.267 417.609 577.497 320.844 577.497 320.844L486.385 461.13Z" fill="#D68029"></path><path d="M700.921 382.443C700.945 382.438 700.901 382.188 700.795 381.721C700.667 381.18 700.506 380.509 700.312 379.689C699.891 377.925 699.28 375.374 698.636 372.198C698 369.024 697.319 365.225 696.855 360.975C696.425 356.73 696.154 352.005 696.806 347.14C697.531 342.29 699.357 337.894 701.508 334.225C703.658 330.54 706.077 327.518 708.271 325.145C710.467 322.771 712.406 320.998 713.789 319.825C715.166 318.645 715.952 318.019 715.917 317.973C715.902 317.953 715.691 318.088 715.297 318.364C714.911 318.646 714.32 319.036 713.615 319.615C712.174 320.728 710.172 322.458 707.91 324.808C705.65 327.159 703.162 330.18 700.951 333.899C698.738 337.601 696.853 342.074 696.111 347.04C695.447 352.006 695.745 356.773 696.211 361.045C696.716 365.321 697.448 369.129 698.152 372.301C698.858 375.474 699.545 378.013 700.048 379.759C700.3 380.633 700.507 381.305 700.658 381.76C700.808 382.215 700.898 382.449 700.921 382.443Z" fill="url(#paint20_linear_4077_735)"></path><path d="M704.573 387.284C704.529 387.302 704.809 388.024 705.354 389.311C705.898 390.6 706.714 392.451 707.742 394.73C709.799 399.286 712.728 405.542 716.094 412.387C719.465 419.234 722.635 425.37 724.99 429.781C726.168 431.987 727.138 433.764 727.825 434.98C728.514 436.197 728.913 436.861 728.958 436.837C729 436.815 728.68 436.11 728.068 434.854C727.39 433.492 726.503 431.707 725.43 429.555C723.149 424.977 720.098 418.851 716.724 412.079C713.418 405.276 710.427 399.121 708.192 394.521C707.139 392.357 706.267 390.565 705.602 389.199C704.98 387.946 704.617 387.262 704.573 387.284Z" fill="url(#paint21_linear_4077_735)"></path><path d="M644.056 485.521C644.065 485.519 644.065 485.439 644.055 485.284C644.039 485.097 644.021 484.874 643.999 484.594C643.934 483.943 643.845 483.053 643.73 481.918C643.466 479.533 643.09 476.129 642.618 471.844C641.613 463.166 640.198 450.937 638.529 436.532L638.211 436.889C648.424 436.898 659.79 436.908 671.748 436.919C694.644 436.879 715.369 436.843 730.424 436.817C737.896 436.771 743.959 436.732 748.204 436.706C750.268 436.677 751.886 436.656 753.039 436.639C753.56 436.626 753.975 436.614 754.295 436.606C754.579 436.593 754.724 436.581 754.724 436.571C754.724 436.557 754.579 436.546 754.295 436.534C753.975 436.526 753.56 436.513 753.039 436.499C751.886 436.484 750.268 436.461 748.204 436.433C743.959 436.408 737.896 436.369 730.424 436.322C715.369 436.297 694.644 436.261 671.748 436.221C659.79 436.231 648.424 436.241 638.211 436.249H637.848L637.891 436.608C639.663 451.001 641.166 463.219 642.233 471.891C642.784 476.166 643.22 479.563 643.525 481.943C643.681 483.072 643.804 483.958 643.895 484.607C643.939 484.883 643.974 485.106 644.003 485.291C644.03 485.443 644.048 485.521 644.056 485.521Z" fill="url(#paint22_linear_4077_735)"></path><path d="M728.005 437.771C728.102 437.831 728.873 436.678 730.27 434.942C731.663 433.203 733.734 430.917 736.328 428.726C738.929 426.541 741.537 424.888 743.488 423.809C745.439 422.727 746.707 422.159 746.664 422.056C746.635 421.981 745.294 422.388 743.258 423.371C741.224 424.349 738.523 425.967 735.877 428.191C733.234 430.422 731.183 432.806 729.875 434.642C728.563 436.479 727.935 437.729 728.005 437.771Z" fill="url(#paint23_linear_4077_735)"></path><path d="M566.951 446.656C566.976 446.658 567.036 446.258 567.13 445.494C567.225 444.669 567.351 443.556 567.51 442.153C567.821 439.251 568.238 435.044 568.688 429.843C569.608 419.441 570.671 405.053 571.618 389.151C572.561 373.242 573.221 358.829 573.6 348.394C573.795 343.178 573.917 338.956 573.983 336.036C574.006 334.626 574.026 333.504 574.038 332.674C574.043 331.906 574.035 331.503 574.011 331.502C573.987 331.501 573.948 331.902 573.897 332.669C573.851 333.498 573.79 334.617 573.71 336.027C573.563 339.008 573.357 343.211 573.103 348.374C572.598 358.802 571.861 373.206 570.918 389.108C569.972 405.007 568.987 419.394 568.195 429.802C567.793 434.957 567.47 439.152 567.238 442.128C567.133 443.536 567.052 444.653 566.99 445.482C566.941 446.248 566.927 446.653 566.951 446.656Z" fill="url(#paint24_linear_4077_735)"></path><path d="M586.023 456.552C586.023 456.552 574.122 463.589 575.085 465.758C576.145 468.143 580.535 467.655 587.532 464.373C587.532 464.373 585.09 471.445 589.883 471.292C589.883 471.292 587.506 478.935 591.998 479.727C596.491 480.518 597.548 470.765 601.512 470.239C605.476 469.712 613.67 469.184 613.67 469.184C613.67 469.184 620.492 480.453 625.777 481.242C631.062 482.033 643.31 480.609 643.31 480.609L640.252 453.655C640.252 453.655 617.597 447.147 610.1 445.239C609.948 445.2 609.767 445.182 609.566 445.182C605.882 445.18 594.215 451.365 586.023 456.552Z" fill="url(#paint25_linear_4077_735)"></path><path d="M601.588 455.211C601.485 455.048 598.651 456.644 595.261 458.778C591.869 460.911 589.204 462.772 589.308 462.934C589.411 463.098 592.244 461.502 595.635 459.368C599.025 457.236 601.691 455.374 601.588 455.211Z" fill="#FF9B6C"></path><path d="M602.927 459.556C602.846 459.38 599.482 460.756 595.414 462.629C591.347 464.502 588.117 466.161 588.197 466.336C588.278 466.512 591.64 465.136 595.709 463.264C599.775 461.392 603.007 459.731 602.927 459.556Z" fill="#FF9B6C"></path><path d="M600.503 470.09C600.476 469.898 598.186 470.053 595.39 470.436C592.591 470.818 590.345 471.283 590.371 471.475C590.399 471.666 592.686 471.511 595.485 471.128C598.281 470.747 600.529 470.281 600.503 470.09Z" fill="#FF9B6C"></path><path d="M669.719 220.618C669.193 222.346 669.794 224.362 671.181 225.523C672.567 226.685 674.662 226.925 676.278 226.108C679.347 224.556 679.736 220.332 679.133 216.955C678.528 213.576 677.378 209.968 678.798 206.843C679.886 204.451 682.241 202.936 684.076 201.055C687.276 197.776 688.979 192.997 688.202 188.488C687.424 183.98 684.033 179.927 679.617 178.696C675.106 177.438 669.548 178.82 666.191 175.563C663.757 173.205 663.607 169.338 661.726 166.521C658.803 162.15 652.623 161.455 647.402 162.166C642.183 162.878 636.867 164.548 631.753 163.281C627.483 162.221 623.978 159.246 619.976 157.421C611.301 153.463 600.213 155.607 593.648 162.51C587.084 169.412 585.526 180.567 589.946 188.998C591.534 192.025 593.926 194.777 597.102 196.058L669.719 220.618Z" fill="#394E61"></path><path d="M595.601 190.03C595.601 190.03 594.606 237.431 595.984 257.976C597.361 278.523 618.155 280.598 618.155 280.598L617.814 305.284C617.614 319.708 629.274 331.513 643.739 331.526C657.94 331.543 669.518 320.171 669.72 306.009L671.268 197.323L668.086 195.143C655.919 186.813 641.729 182.58 627.471 182.58C616.598 182.58 605.684 185.043 595.601 190.03Z" fill="url(#paint26_radial_4077_735)"></path><path d="M601.064 227.243C604.724 226.523 604.697 221.809 601.03 221.129C600.87 221.099 600.689 221.1 600.53 221.132C596.869 221.853 596.897 226.568 600.564 227.245C600.725 227.275 600.904 227.274 601.064 227.243Z" fill="#394E61"></path><path d="M597.021 220.683C597.363 221.021 599.302 219.358 602.141 219.19C604.977 218.981 607.119 220.374 607.413 219.993C607.558 219.823 607.202 219.198 606.264 218.565C605.346 217.935 603.794 217.364 602.026 217.483C600.258 217.599 598.797 218.37 597.969 219.116C597.126 219.868 596.856 220.534 597.021 220.683Z" fill="#394E61"></path><path d="M629.867 221.374C628.507 222.314 628.167 224.177 629.109 225.533C630.052 226.892 631.921 227.229 633.282 226.289C634.642 225.348 634.982 223.487 634.039 222.129C633.097 220.772 631.229 220.434 629.867 221.374Z" fill="#394E61"></path><path d="M627.997 221.502C628.34 221.841 630.28 220.176 633.117 220.008C635.955 219.799 638.097 221.192 638.39 220.812C638.535 220.641 638.178 220.017 637.242 219.383C636.322 218.753 634.771 218.183 633.002 218.301C631.235 218.417 629.773 219.188 628.946 219.934C628.102 220.686 627.832 221.352 627.997 221.502Z" fill="#394E61"></path><path d="M617.889 245.479C617.896 245.255 616.12 244.998 613.244 244.758C612.496 244.719 611.904 244.582 611.829 244.187C611.671 243.745 611.916 242.939 612.245 242.037C612.874 240.124 613.51 238.189 614.176 236.16C616.83 227.794 618.636 220.907 618.21 220.772C617.785 220.637 615.287 227.309 612.634 235.674C612.009 237.715 611.414 239.663 610.825 241.588C610.599 242.46 610.136 243.488 610.586 244.689C610.825 245.289 611.434 245.7 611.931 245.802C612.431 245.924 612.85 245.902 613.206 245.898C616.094 245.845 617.881 245.702 617.889 245.479Z" fill="#394E61"></path><path d="M627.284 248.105C623.645 249.784 619.306 251.875 613.58 252.897C613.58 252.897 617.184 258 623.01 255.508C629.056 252.92 627.284 248.105 627.284 248.105Z" fill="white"></path><path d="M618.105 280.304C618.105 280.304 631.193 280.653 644.565 271.227C644.565 271.227 639.022 286.369 618.349 285.634L618.105 280.304Z" fill="#FF9B6C"></path><path d="M595.458 195.225C595.458 195.225 607.899 201.532 624.404 193.712C635.234 188.582 647.788 186.215 650.503 188.42C653.217 190.624 653.584 201.657 664.148 205.082C664.148 205.082 663.008 226.097 671.429 225.51C679.85 224.924 675.232 192.25 675.232 192.25L654.859 181.834L632.495 177.17L611.289 179.734L594.838 183.885L595.458 195.225Z" fill="#394E61"></path><path d="M669.891 218.754C669.891 218.754 670.157 238.574 670.189 238.978C670.223 239.38 684.463 241.965 684.146 227.885C683.958 219.584 679.156 217.838 675.174 217.838C672.404 217.838 670.032 218.684 669.891 218.754Z" fill="url(#paint27_linear_4077_735)"></path><path d="M674.382 233.547C674.443 233.499 674.632 233.714 675.052 233.894C675.46 234.069 676.16 234.182 676.89 233.89C678.369 233.312 679.572 230.92 679.583 228.382C679.59 227.099 679.294 225.885 678.815 224.885C678.362 223.865 677.678 223.16 676.923 223.044C676.172 222.889 675.65 223.349 675.487 223.75C675.307 224.148 675.403 224.427 675.328 224.452C675.289 224.488 675.02 224.224 675.12 223.638C675.172 223.358 675.33 223.023 675.655 222.744C675.988 222.463 676.484 222.31 677.008 222.355C678.098 222.407 679.102 223.383 679.627 224.482C680.213 225.582 680.575 226.947 680.568 228.385C680.542 231.224 679.144 233.913 677.118 234.547C676.129 234.828 675.295 234.548 674.859 234.225C674.414 233.887 674.333 233.574 674.382 233.547Z" fill="#FF9B6C"></path><path d="M677.079 174.676C677.158 174.512 674.838 173.85 672.182 174.856C669.513 175.831 668.194 177.845 668.362 177.919C668.517 178.064 669.964 176.401 672.427 175.511C674.871 174.576 677.058 174.886 677.079 174.676Z" fill="#394E61"></path><path d="M668.587 166.242C668.339 166.259 668.726 169.211 668.233 172.734C667.755 176.286 666.074 178.759 666.263 178.869C666.329 178.916 666.845 178.367 667.446 177.314C668.034 176.261 668.669 174.672 668.926 172.837C669.436 169.151 668.719 166.212 668.587 166.242Z" fill="#394E61"></path><path d="M610.574 213.921C610.649 213.756 610.044 213.271 608.899 212.804C607.76 212.336 606.064 211.939 604.165 211.956C602.268 211.977 600.58 212.406 599.45 212.897C598.315 213.386 597.719 213.883 597.798 214.047C597.97 214.421 600.69 213.361 604.179 213.353C607.668 213.292 610.408 214.297 610.574 213.921Z" fill="#394E61"></path><path d="M642.056 210.958C642.133 210.793 641.528 210.309 640.383 209.841C639.243 209.373 637.546 208.976 635.649 208.993C633.751 209.015 632.063 209.445 630.934 209.934C629.799 210.424 629.203 210.92 629.28 211.085C629.454 211.458 632.174 210.398 635.664 210.393C639.15 210.329 641.891 211.335 642.056 210.958Z" fill="#394E61"></path><path d="M613.005 216.134C612.988 216.152 612.97 216.439 612.952 216.968C612.933 217.563 612.912 218.315 612.883 219.239C612.863 220.237 612.838 221.414 612.809 222.764C612.804 224.124 612.723 225.707 612.138 227.33C611.577 228.948 610.602 230.61 609.162 232.022C607.709 233.409 605.808 234.565 603.597 235.07C602.499 235.33 601.334 235.457 600.153 235.372C598.973 235.317 597.774 235.079 596.63 234.63C594.325 233.788 592.235 232.128 590.824 229.947C589.472 227.862 588.865 225.433 588.932 223.072C588.925 220.669 588.919 218.349 588.913 216.134L588.588 216.459C595.642 216.395 601.678 216.339 606.059 216.3C608.16 216.264 609.863 216.235 611.133 216.212C611.678 216.198 612.129 216.184 612.505 216.173C612.822 216.16 612.992 216.148 613.005 216.134C613.03 216.109 612.425 216.083 611.275 216.055C610.023 216.034 608.345 216.004 606.275 215.968C601.84 215.928 595.728 215.873 588.588 215.81L588.263 215.807L588.262 216.134C588.255 218.349 588.249 220.669 588.243 223.072C588.164 225.51 588.802 228.13 590.234 230.324C591.729 232.634 593.945 234.388 596.388 235.272C597.602 235.74 598.87 235.985 600.117 236.038C601.364 236.12 602.593 235.98 603.748 235.697C606.077 235.145 608.065 233.909 609.57 232.435C611.063 230.938 612.054 229.182 612.608 227.487C613.185 225.782 613.237 224.144 613.2 222.733C613.172 221.348 613.148 220.139 613.127 219.117C613.099 218.205 613.077 217.463 613.059 216.875C613.039 216.372 613.022 216.118 613.005 216.134Z" fill="#394E61"></path><path d="M646.013 215.44C645.996 215.456 645.979 215.745 645.959 216.273C645.942 216.868 645.919 217.62 645.892 218.545C645.871 219.541 645.847 220.719 645.818 222.07C645.812 223.429 645.732 225.011 645.147 226.636C644.584 228.253 643.609 229.916 642.171 231.328C640.717 232.715 638.817 233.87 636.604 234.375C635.507 234.635 634.342 234.761 633.162 234.676C631.981 234.621 630.782 234.384 629.638 233.935C627.333 233.093 625.244 231.433 623.832 229.251C622.481 227.166 621.874 224.739 621.939 222.378C621.933 219.974 621.927 217.654 621.921 215.44L621.596 215.764C628.651 215.7 634.688 215.645 639.068 215.606C641.171 215.57 642.872 215.54 644.141 215.518C644.686 215.503 645.137 215.489 645.514 215.479C645.831 215.465 645.999 215.453 646.013 215.44C646.039 215.414 645.433 215.389 644.283 215.36C643.032 215.339 641.356 215.31 639.283 215.273C634.848 215.233 628.737 215.179 621.596 215.114L621.271 215.111V215.44C621.264 217.654 621.258 219.974 621.251 222.378C621.172 224.815 621.811 227.435 623.243 229.629C624.737 231.94 626.953 233.693 629.397 234.576C630.609 235.046 631.878 235.291 633.124 235.344C634.372 235.426 635.601 235.285 636.757 235.003C639.086 234.45 641.074 233.214 642.578 231.74C644.071 230.243 645.062 228.488 645.617 226.791C646.193 225.088 646.244 223.45 646.209 222.038C646.181 220.654 646.156 219.445 646.134 218.421C646.108 217.511 646.086 216.769 646.067 216.18C646.047 215.676 646.031 215.423 646.013 215.44Z" fill="#394E61"></path><path d="M612.709 217.112C612.709 217.304 614.789 217.462 617.357 217.462C619.925 217.462 622.005 217.304 622.005 217.112C622.005 216.918 619.925 216.762 617.357 216.762C614.789 216.762 612.709 216.918 612.709 217.112Z" fill="#394E61"></path><path d="M671.76 217.296C671.76 217.103 665.996 216.93 658.889 216.908C651.777 216.887 646.015 217.026 646.014 217.218C646.014 217.412 651.776 217.586 658.887 217.607C665.995 217.628 671.76 217.49 671.76 217.296Z" fill="#394E61"></path><path d="M527.198 373.969L571.89 484.193H652.478V489.168H412.448L363.352 373.969H527.198Z" fill="#394E61"></path><path d="M458.882 439.044C460.502 444.59 465.217 448.1 469.415 446.881C473.612 445.663 475.702 440.178 474.082 434.63C472.464 429.083 467.749 425.574 463.551 426.793C459.354 428.011 457.262 433.495 458.882 439.044Z" fill="#FAFAFA"></path><path d="M754.415 489.393H77.123" stroke="#9FE0F6" stroke-width="1.33333" stroke-miterlimit="10"></path></g></g><defs><linearGradient id="paint0_linear_4077_735" x1="554.92" y1="475.012" x2="554.92" y2="475.915" gradientUnits="userSpaceOnUse"><stop stop-color="#1498EB"></stop><stop offset="1" stop-color="#1664E2"></stop></linearGradient><linearGradient id="paint1_linear_4077_735" x1="121.988" y1="-56.1238" x2="582.899" y2="410.208" gradientUnits="userSpaceOnUse"><stop stop-color="#D68029"></stop><stop offset="1" stop-color="#D68029"></stop></linearGradient><linearGradient id="paint2_linear_4077_735" x1="557.661" y1="314.232" x2="470.554" y2="368.304" gradientUnits="userSpaceOnUse"><stop stop-color="#1498EB"></stop><stop offset="1" stop-color="#1664E2"></stop></linearGradient><radialGradient id="paint3_radial_4077_735" cx="0" cy="0" r="1" gradientUnits="userSpaceOnUse" gradientTransform="translate(116.177 482.138) rotate(32.0598) scale(358.224 357.799)"><stop stop-color="#DEE9F8"></stop><stop offset="0.988827" stop-color="white"></stop><stop offset="1" stop-color="white"></stop></radialGradient><linearGradient id="paint4_linear_4077_735" x1="307.967" y1="53.8409" x2="311.481" y2="335.749" gradientUnits="userSpaceOnUse"><stop stop-color="#D68029"></stop><stop offset="1" stop-color="#FFF4EA"></stop></linearGradient><linearGradient id="paint5_linear_4077_735" x1="61.2269" y1="82.0019" x2="61.3822" y2="98.0329" gradientUnits="userSpaceOnUse"><stop stop-color="white"></stop><stop offset="0.0111732" stop-color="white"></stop><stop offset="1" stop-color="#DEE9F8"></stop></linearGradient><linearGradient id="paint6_linear_4077_735" x1="79.8601" y1="82.0019" x2="80.0154" y2="98.0329" gradientUnits="userSpaceOnUse"><stop stop-color="white"></stop><stop offset="0.0111732" stop-color="white"></stop><stop offset="1" stop-color="#DEE9F8"></stop></linearGradient><linearGradient id="paint7_linear_4077_735" x1="18.6439" y1="369.303" x2="138.574" y2="74.1792" gradientUnits="userSpaceOnUse"><stop stop-color="#2D6967"></stop><stop offset="1" stop-color="#12315C"></stop></linearGradient><linearGradient id="paint8_linear_4077_735" x1="456.49" y1="252.337" x2="549.765" y2="192.142" gradientUnits="userSpaceOnUse"><stop stop-color="#64D698"></stop><stop offset="1" stop-color="#006BFE"></stop></linearGradient><linearGradient id="paint9_linear_4077_735" x1="551.376" y1="231.468" x2="634.196" y2="249.771" gradientUnits="userSpaceOnUse"><stop stop-color="#1498EB"></stop><stop offset="1" stop-color="#1664E2"></stop></linearGradient><linearGradient id="paint10_linear_4077_735" x1="163.355" y1="342.49" x2="175.42" y2="529.791" gradientUnits="userSpaceOnUse"><stop stop-color="white"></stop><stop offset="0.0111732" stop-color="white"></stop><stop offset="1" stop-color="#DEE9F8"></stop></linearGradient><linearGradient id="paint11_linear_4077_735" x1="121.081" y1="365.449" x2="122.953" y2="480.581" gradientUnits="userSpaceOnUse"><stop stop-color="#FEC955"></stop><stop offset="1" stop-color="#EA7531"></stop></linearGradient><linearGradient id="paint12_linear_4077_735" x1="158.084" y1="364.848" x2="159.956" y2="479.979" gradientUnits="userSpaceOnUse"><stop stop-color="#FEC955"></stop><stop offset="1" stop-color="#EA7531"></stop></linearGradient><linearGradient id="paint13_linear_4077_735" x1="196.444" y1="364.224" x2="198.317" y2="479.357" gradientUnits="userSpaceOnUse"><stop stop-color="#FEC955"></stop><stop offset="1" stop-color="#EA7531"></stop></linearGradient><linearGradient id="paint14_linear_4077_735" x1="179.918" y1="364.547" x2="178.669" y2="499.076" gradientUnits="userSpaceOnUse"><stop stop-color="#FF837A"></stop><stop offset="1" stop-color="#FD687E"></stop></linearGradient><linearGradient id="paint15_linear_4077_735" x1="126.54" y1="351.641" x2="136.941" y2="488.468" gradientUnits="userSpaceOnUse"><stop stop-color="#1498EB"></stop><stop offset="1" stop-color="#1664E2"></stop></linearGradient><linearGradient id="paint16_linear_4077_735" x1="164.568" y1="348.751" x2="174.968" y2="485.579" gradientUnits="userSpaceOnUse"><stop stop-color="#1498EB"></stop><stop offset="1" stop-color="#1664E2"></stop></linearGradient><linearGradient id="paint17_linear_4077_735" x1="218.602" y1="364.905" x2="217.355" y2="499.434" gradientUnits="userSpaceOnUse"><stop stop-color="#FF837A"></stop><stop offset="1" stop-color="#FD687E"></stop></linearGradient><linearGradient id="paint18_linear_4077_735" x1="204.058" y1="345.75" x2="214.458" y2="482.577" gradientUnits="userSpaceOnUse"><stop stop-color="#1498EB"></stop><stop offset="1" stop-color="#1664E2"></stop></linearGradient><linearGradient id="paint19_linear_4077_735" x1="142.009" y1="364.193" x2="140.761" y2="498.723" gradientUnits="userSpaceOnUse"><stop stop-color="#FF837A"></stop><stop offset="1" stop-color="#FD687E"></stop></linearGradient><linearGradient id="paint20_linear_4077_735" x1="693.137" y1="409.469" x2="738.315" y2="397.099" gradientUnits="userSpaceOnUse"><stop stop-color="#2D6967"></stop><stop offset="1" stop-color="#12315C"></stop></linearGradient><linearGradient id="paint21_linear_4077_735" x1="701.443" y1="457.611" x2="750.94" y2="436.311" gradientUnits="userSpaceOnUse"><stop stop-color="#2D6967"></stop><stop offset="1" stop-color="#12315C"></stop></linearGradient><linearGradient id="paint22_linear_4077_735" x1="622.873" y1="506.186" x2="675.951" y2="396.178" gradientUnits="userSpaceOnUse"><stop stop-color="#2D6967"></stop><stop offset="1" stop-color="#12315C"></stop></linearGradient><linearGradient id="paint23_linear_4077_735" x1="725.608" y1="444.366" x2="747.224" y2="421.936" gradientUnits="userSpaceOnUse"><stop stop-color="#2D6967"></stop><stop offset="1" stop-color="#12315C"></stop></linearGradient><linearGradient id="paint24_linear_4077_735" x1="566.03" y1="494.926" x2="583.057" y2="494.008" gradientUnits="userSpaceOnUse"><stop stop-color="#2D6967"></stop><stop offset="1" stop-color="#12315C"></stop></linearGradient><linearGradient id="paint25_linear_4077_735" x1="650.792" y1="463.033" x2="615.758" y2="463.374" gradientUnits="userSpaceOnUse"><stop stop-color="#FF9A6C"></stop><stop offset="1" stop-color="#FFBF9D"></stop></linearGradient><radialGradient id="paint26_radial_4077_735" cx="0" cy="0" r="1" gradientUnits="userSpaceOnUse" gradientTransform="translate(676.648 279.413) rotate(48.1244) scale(51.5936 51.6091)"><stop stop-color="#FF9A6C"></stop><stop offset="1" stop-color="#FFBF9D"></stop></radialGradient><linearGradient id="paint27_linear_4077_735" x1="688.192" y1="223.553" x2="674.086" y2="228.667" gradientUnits="userSpaceOnUse"><stop stop-color="#FF9A6C"></stop><stop offset="1" stop-color="#FFBF9D"></stop></linearGradient><clipPath id="clip0_4077_735"><rect width="795" height="490" fill="white"></rect></clipPath></defs></svg>