<svg width="512" height="512" viewBox="0 0 512 512" fill="none" xmlns="http://www.w3.org/2000/svg">
<path d="M493.353 367.353L482.085 359.225C480.824 358.323 479.534 357.487 478.217 356.717C480.355 351.77 481.468 346.441 481.489 341.053C481.545 332.605 478.704 324.393 473.441 317.785C466.748 309.779 457.155 304.753 446.764 303.807C436.372 302.86 426.029 306.072 418.001 312.737L323.913 387.517C323.841 387.573 323.793 387.645 323.725 387.701L308.177 385.621L317.749 370.001C319.989 366.351 321.296 362.205 321.555 357.93C321.814 353.656 321.016 349.383 319.233 345.489C317.45 341.595 314.736 338.2 311.33 335.604C307.924 333.007 303.932 331.289 299.705 330.601L180.381 311.401C169.32 309.596 157.977 310.855 147.581 315.041L96.5129 335.601V334.473C96.5129 331.29 95.2487 328.238 92.9982 325.987C90.7478 323.737 87.6955 322.473 84.5129 322.473H19.9609C16.7783 322.473 13.7261 323.737 11.4757 325.987C9.22522 328.238 7.96094 331.29 7.96094 334.473V485.325C7.96094 488.507 9.22522 491.559 11.4757 493.81C13.7261 496.06 16.7783 497.325 19.9609 497.325H84.5129C87.6955 497.325 90.7478 496.06 92.9982 493.81C95.2487 491.559 96.5129 488.507 96.5129 485.325V477.361L219.497 502.497C226.313 503.883 233.25 504.587 240.205 504.597C247.232 504.599 254.239 503.854 261.109 502.377C332.105 486.897 407.229 456.921 490.753 410.741C494.55 408.644 497.756 405.621 500.071 401.953C502.387 398.284 503.737 394.09 503.996 389.76C504.256 385.43 503.416 381.105 501.555 377.186C499.694 373.268 496.873 369.888 493.353 367.353ZM432.953 331.525C436.001 328.822 439.992 327.432 444.06 327.657C448.127 327.881 451.941 329.703 454.673 332.725C456.536 335.098 457.533 338.036 457.501 341.053C457.462 344.141 456.54 347.154 454.845 349.737C446.407 349.291 437.991 350.94 430.345 354.537L368.053 384.049C367.205 384.449 366.333 384.793 365.473 385.149L432.953 331.525ZM31.9609 473.329V346.477H72.5129V473.329H31.9609ZM479.161 389.729C397.681 434.777 324.681 463.957 256.025 478.929C245.559 481.143 234.747 481.162 224.273 478.985L96.5129 452.873V361.481L156.561 337.273C162.901 334.725 169.818 333.964 176.561 335.073L295.881 354.273C296.22 354.324 296.539 354.461 296.81 354.671C297.08 354.881 297.292 355.157 297.425 355.473C297.578 355.781 297.647 356.123 297.626 356.467C297.605 356.81 297.494 357.141 297.305 357.429L282.173 382.129L230.877 375.285C229.306 375.054 227.705 375.138 226.166 375.531C224.628 375.924 223.183 376.618 221.914 377.574C220.646 378.529 219.58 379.727 218.778 381.097C217.976 382.468 217.454 383.984 217.243 385.557C217.031 387.131 217.134 388.731 217.545 390.265C217.956 391.799 218.668 393.235 219.638 394.492C220.609 395.749 221.819 396.801 223.199 397.586C224.579 398.372 226.101 398.876 227.677 399.069C227.677 399.069 328.625 412.633 329.553 412.769C346.137 415.363 363.119 412.918 378.297 405.749L440.601 376.241C444.989 374.164 449.853 373.299 454.688 373.737C459.523 374.174 464.153 375.898 468.097 378.729L479.297 386.821C479.544 386.987 479.741 387.216 479.869 387.485C479.996 387.754 480.049 388.052 480.021 388.349C480.018 388.635 479.937 388.915 479.786 389.158C479.635 389.402 479.416 389.599 479.161 389.729ZM264.401 162.129C265.684 162.265 266.9 162.768 267.905 163.577C267.97 164.79 267.791 166.003 267.379 167.146C266.967 168.288 266.33 169.337 265.505 170.229C264.269 172.149 262.541 173.704 260.501 174.731C258.462 175.759 256.184 176.222 253.905 176.073C251.749 175.605 249.709 174.71 247.904 173.441C246.099 172.172 244.567 170.555 243.397 168.685L242.197 166.837C240.482 164.155 237.772 162.265 234.664 161.582C231.555 160.898 228.302 161.478 225.621 163.193C222.94 164.908 221.049 167.617 220.366 170.726C219.683 173.835 220.262 177.087 221.977 179.769L223.177 181.625C228.085 189.298 235.413 195.113 244.001 198.149V200.461C244.001 203.643 245.265 206.695 247.516 208.946C249.766 211.196 252.818 212.461 256.001 212.461C259.184 212.461 262.236 211.196 264.486 208.946C266.737 206.695 268.001 203.643 268.001 200.461V197.773C273.813 195.352 278.964 191.58 283.026 186.77C287.089 181.961 289.946 176.251 291.361 170.117C293.985 157.293 288.185 142.585 269.301 138.637C247.017 133.977 245.149 127.901 244.449 125.617C244.089 124.459 243.964 123.24 244.082 122.033C244.201 120.826 244.559 119.655 245.137 118.589C245.638 117.654 246.326 116.833 247.158 116.175C247.99 115.517 248.948 115.037 249.973 114.765C256.005 113.133 263.145 118.645 268.061 123.565C270.311 125.816 273.363 127.081 276.546 127.082C279.729 127.082 282.782 125.819 285.033 123.569C287.284 121.319 288.549 118.266 288.55 115.083C288.551 111.901 287.287 108.848 285.037 106.597C280.126 101.499 274.36 97.2992 268.001 94.1886V90.2246C268.001 87.042 266.737 83.9898 264.486 81.7393C262.236 79.4889 259.184 78.2246 256.001 78.2246C252.818 78.2246 249.766 79.4889 247.516 81.7393C245.265 83.9898 244.001 87.042 244.001 90.2246V91.5286L243.713 91.6006C239.574 92.7051 235.703 94.6384 232.334 97.2835C228.965 99.9286 226.168 103.23 224.113 106.989C221.985 110.876 220.657 115.151 220.207 119.559C219.756 123.968 220.192 128.423 221.489 132.661C227.461 152.077 247.549 158.609 264.401 162.129Z" fill="#D68029"/>
<path d="M134.362 181.2H160.902C161.67 183.24 162.504 185.254 163.402 187.24L144.642 206C141.587 209.056 139.871 213.2 139.871 217.52C139.871 221.841 141.587 225.985 144.642 229.04L172.358 256.78C175.425 259.799 179.559 261.487 183.863 261.477C188.167 261.467 192.293 259.761 195.346 256.728L214.114 237.956C216.096 238.855 218.105 239.687 220.142 240.452V267.004C220.148 271.323 221.865 275.462 224.919 278.516C227.972 281.569 232.112 283.287 236.43 283.292H275.582C279.9 283.287 284.04 281.569 287.094 278.516C290.147 275.462 291.865 271.323 291.87 267.004V240.44C293.908 239.675 295.917 238.843 297.898 237.944L316.666 256.712C319.723 259.767 323.867 261.483 328.188 261.483C332.509 261.483 336.654 259.767 339.71 256.712L367.31 229.088C368.838 227.58 370.052 225.784 370.882 223.805C371.713 221.825 372.143 219.7 372.147 217.553C372.152 215.406 371.732 213.28 370.911 211.296C370.089 209.313 368.883 207.511 367.362 205.996L348.602 187.232C349.501 185.246 350.334 183.234 351.102 181.196H377.642C381.961 181.192 386.101 179.475 389.155 176.421C392.209 173.367 393.926 169.227 393.93 164.908V125.776C393.925 121.458 392.207 117.318 389.154 114.265C386.1 111.211 381.96 109.494 377.642 109.488H351.094C350.332 107.454 349.5 105.442 348.598 103.452L367.314 84.7364C368.841 83.2286 370.054 81.4335 370.884 79.4545C371.714 77.4756 372.144 75.3519 372.149 73.206C372.155 71.0602 371.735 68.9345 370.915 66.9515C370.094 64.9685 368.89 63.1676 367.37 61.6524L339.702 33.9604C336.645 30.9125 332.503 29.201 328.186 29.201C323.869 29.201 319.728 30.9125 316.67 33.9604L297.898 52.7324C295.917 51.8337 293.908 51.0017 291.87 50.2364V23.6924C291.866 19.3728 290.148 15.2313 287.094 12.1769C284.039 9.12246 279.898 7.40463 275.578 7.40039H236.426C232.108 7.40568 227.968 9.12344 224.915 12.1769C221.861 15.2303 220.144 19.3702 220.138 23.6884V50.2404C218.101 51.0057 216.092 51.8377 214.11 52.7364L195.334 33.9604C192.269 30.9249 188.13 29.222 183.816 29.222C179.502 29.222 175.363 30.9249 172.298 33.9604L144.642 61.6444C141.587 64.6997 139.871 68.8436 139.871 73.1644C139.871 77.4852 141.587 81.6291 144.642 84.6844L163.406 103.448C162.508 105.438 161.676 107.45 160.91 109.484H134.362C130.044 109.49 125.904 111.207 122.851 114.261C119.797 117.314 118.08 121.454 118.074 125.772V164.904C118.076 169.224 119.793 173.367 122.847 176.422C125.901 179.478 130.042 181.196 134.362 181.2ZM142.074 133.492H169.634C172.273 133.496 174.84 132.63 176.937 131.027C179.034 129.425 180.545 127.176 181.234 124.628C182.905 118.48 185.344 112.567 188.494 107.028C189.788 104.745 190.298 102.1 189.946 99.4993C189.593 96.8984 188.398 94.4848 186.542 92.6284L167.074 73.1604L183.834 56.3844L203.318 75.8684C205.182 77.7313 207.607 78.9291 210.219 79.2768C212.83 79.6245 215.484 79.1029 217.77 77.7924C223.281 74.6386 229.171 72.2003 235.298 70.5364C237.844 69.8452 240.091 68.3343 241.692 66.2374C243.293 64.1405 244.158 61.5745 244.154 58.9364V31.4004H267.886V58.9604C267.882 61.598 268.746 64.1636 270.347 66.2604C271.947 68.3572 274.193 69.8685 276.738 70.5604C282.865 72.2253 288.755 74.6636 294.266 77.8164C296.552 79.1259 299.205 79.647 301.816 79.2993C304.427 78.9516 306.851 77.7544 308.714 75.8924L328.186 56.4004L344.95 73.1764L325.482 92.6324C323.627 94.4889 322.431 96.9024 322.079 99.5033C321.726 102.104 322.236 104.749 323.53 107.032C326.68 112.571 329.12 118.484 330.79 124.632C331.48 127.18 332.99 129.429 335.087 131.031C337.184 132.634 339.751 133.5 342.39 133.496H369.95V157.2H342.402C339.768 157.195 337.205 158.056 335.108 159.651C333.012 161.247 331.499 163.488 330.802 166.028C329.112 172.175 326.664 178.087 323.514 183.628C322.22 185.912 321.71 188.557 322.063 191.157C322.415 193.758 323.611 196.172 325.466 198.028L344.93 217.496L328.17 234.268L308.702 214.8C306.839 212.938 304.415 211.741 301.804 211.394C299.193 211.046 296.54 211.567 294.254 212.876C288.743 216.031 282.851 218.469 276.722 220.132C274.177 220.824 271.931 222.336 270.331 224.432C268.73 226.529 267.866 229.095 267.87 231.732V259.292H244.138V231.72C244.142 229.082 243.277 226.516 241.676 224.419C240.075 222.322 237.828 220.812 235.282 220.12C229.154 218.457 223.262 216.018 217.75 212.864C215.465 211.555 212.812 211.034 210.201 211.382C207.59 211.729 205.165 212.926 203.302 214.788L183.822 234.272L167.062 217.5L186.526 198.032C188.382 196.176 189.577 193.762 189.93 191.161C190.282 188.561 189.772 185.916 188.478 183.632C185.328 178.091 182.88 172.179 181.19 166.032C180.495 163.493 178.984 161.252 176.89 159.656C174.796 158.06 172.235 157.197 169.602 157.2H142.074V133.492Z" fill="#D68029"/>
</svg>
