<svg width="512" height="512" viewBox="0 0 512 512" fill="none" xmlns="http://www.w3.org/2000/svg">
<path fill-rule="evenodd" clip-rule="evenodd" d="M36 250.7H475.998V313.301L440.698 316.171C435.835 342.608 425.435 367.106 410.746 388.419L433.695 415.431L389.43 459.696L362.416 436.744C341.101 451.429 316.608 461.832 290.171 466.692L287.301 501.999H224.7L221.83 466.699C195.393 461.836 170.895 451.436 149.583 436.746L122.571 459.696L78.3048 415.431L101.257 388.417C86.5718 367.102 76.1688 342.608 71.3089 316.172L36.002 313.301L36 250.7Z" stroke="#D68029" stroke-width="19.9999" stroke-miterlimit="22.9256" stroke-linecap="round" stroke-linejoin="round"/>
<path d="M372.434 252.971C374.801 262.466 375.998 272.216 375.999 282.002C375.999 348.276 322.273 402.001 255.999 402.001C189.726 402.001 136 348.276 136 282.002C136 272.216 137.197 262.466 139.565 252.971M285.999 245.7V130H305.999L255.999 59.9998L205.999 130H225.999V245.7M425.999 245.7V79.9997H445.999L395.999 10L345.999 79.9997H365.999V245.7M146 245.7V180H166L116 110.001L66 180H85.9999V245.7" stroke="#D68029" stroke-width="19.9999" stroke-miterlimit="22.9256" stroke-linecap="round" stroke-linejoin="round"/>
</svg>
