<svg width="512" height="512" viewBox="0 0 512 512" fill="none" xmlns="http://www.w3.org/2000/svg">
<g clip-path="url(#clip0_3362_457)">
<path d="M14.4384 373.333L25.7323 360.533C23.0097 358.13 20.8291 355.175 19.3351 351.865C17.8411 348.555 17.0679 344.965 17.0667 341.333V42.6667C17.0827 28.5355 28.5355 17.0827 42.6667 17.0667H469.333C483.465 17.0827 494.917 28.5355 494.933 42.6667V341.333C494.917 355.465 483.465 366.917 469.333 366.933H324.267V384H469.333C492.886 383.973 511.973 364.886 512 341.333V42.6667C511.973 19.1136 492.886 0.0266667 469.333 0H42.6667C19.1136 0.0266667 0.0266667 19.1136 0 42.6667V341.333C0.00152235 347.386 1.28959 353.369 3.7788 358.886C6.26802 364.403 9.90151 369.327 14.4384 373.333Z" fill="#D68029"/>
<path d="M42.666 34.1338H59.7327V51.2005H42.666V34.1338ZM76.7994 34.1338H93.866V51.2005H76.7994V34.1338ZM110.933 34.1338H127.999V51.2005H110.933V34.1338ZM42.666 68.2671H469.333V85.3338H42.666V68.2671ZM409.599 119.467C376.609 119.467 349.866 146.211 349.866 179.2C349.866 212.19 376.609 238.934 409.599 238.934C442.589 238.934 469.333 212.19 469.333 179.2C469.295 146.227 442.574 119.504 409.599 119.467ZM409.599 221.867C386.036 221.867 366.933 202.764 366.933 179.2C366.933 155.637 386.036 136.534 409.599 136.534C433.163 136.534 452.266 155.637 452.266 179.2C452.239 202.754 433.152 221.84 409.599 221.867Z" fill="#D68029"/>
<path d="M429.167 156.099L401.068 184.2L390.035 173.166L377.967 185.234L395.033 202.301C395.826 203.093 396.767 203.722 397.802 204.151C398.837 204.58 399.947 204.8 401.068 204.8C402.188 204.8 403.298 204.58 404.333 204.151C405.369 203.722 406.309 203.093 407.102 202.301L441.235 168.168L429.167 156.099ZM366.934 256H452.268V273.067H366.934V256ZM366.934 290.133H452.268V307.2H366.934V290.133ZM256.001 119.467C223.011 119.467 196.268 146.21 196.268 179.2C196.268 212.19 223.011 238.933 256.001 238.933C288.991 238.933 315.734 212.19 315.734 179.2C315.697 146.226 288.976 119.504 256.001 119.467ZM256.001 221.867C232.437 221.867 213.334 202.764 213.334 179.2C213.334 155.636 232.437 136.533 256.001 136.533C279.565 136.533 298.668 155.636 298.668 179.2C298.641 202.753 279.554 221.84 256.001 221.867Z" fill="#D68029"/>
<path d="M275.565 156.1L247.466 184.2L236.433 173.166L224.365 185.234L241.432 202.301C242.224 203.094 243.165 203.722 244.2 204.151C245.236 204.58 246.345 204.801 247.466 204.801C248.587 204.801 249.696 204.58 250.732 204.151C251.767 203.722 252.708 203.094 253.5 202.301L287.634 168.168L275.565 156.1ZM213.333 256H298.666V273.067H213.333V256ZM213.333 290.134H298.666V307.2H213.333V290.134ZM102.399 136.534C109.445 136.533 116.38 138.277 122.586 141.612C128.793 144.947 134.076 149.767 137.963 155.643L152.175 146.196C133.951 118.701 96.89 111.185 69.3956 129.408C61.1761 134.856 54.4334 142.255 49.7693 150.943C45.1052 159.631 42.6648 169.339 42.666 179.2C42.666 182.533 42.9423 185.86 43.4916 189.147L60.3236 186.322C59.9302 183.969 59.7325 181.587 59.7327 179.2C59.7593 155.647 78.8463 136.56 102.399 136.534Z" fill="#D68029"/>
<path d="M8.5335 512H247.467C248.837 512.001 250.187 511.669 251.401 511.033C277.518 507.048 301.44 490.95 312.651 469.333H358.4C359.521 469.333 360.63 469.112 361.666 468.684C362.701 468.255 363.642 467.626 364.434 466.834L375.467 455.8L386.499 466.834C387.292 467.626 388.233 468.255 389.268 468.684C390.303 469.112 391.413 469.333 392.534 469.333H409.6C410.721 469.333 411.83 469.112 412.866 468.684C413.901 468.255 414.842 467.626 415.634 466.834L426.667 455.8L437.699 466.834C438.492 467.626 439.433 468.255 440.468 468.684C441.503 469.112 442.613 469.333 443.734 469.333H460.8C462.205 469.333 463.588 468.986 464.826 468.323C466.065 467.661 467.121 466.702 467.9 465.534L484.967 439.934C485.901 438.532 486.4 436.885 486.4 435.2C486.4 433.515 485.901 431.868 484.967 430.466L467.9 404.866C467.121 403.697 466.065 402.739 464.826 402.076C463.588 401.413 462.205 401.066 460.8 401.066H312.651C299.668 376.042 269.664 358.4 238.934 358.4C223.747 358.384 208.9 362.897 196.291 371.362L190.455 369.038C189.65 368.726 188.866 368.364 188.108 367.954C188.038 367.915 187.967 367.88 187.895 367.847C172.378 359.956 166.196 340.98 174.088 325.463C175.327 323.027 176.878 320.762 178.701 318.725C190.018 306.212 196.279 289.938 196.267 273.066V241.408C196.267 214.163 180.858 189.014 157.038 177.351C148.663 173.21 139.49 170.929 130.151 170.666C121.309 170.367 112.495 171.822 104.219 174.947C97.1674 177.513 90.6153 181.285 84.8546 186.094C77.0245 192.499 70.7107 200.559 66.3671 209.696C62.0235 218.832 59.758 228.817 59.7335 238.933V273.066C59.7645 289.934 66.0224 306.197 77.3068 318.735C86.9431 329.508 88.0172 345.455 79.9116 357.422C79.8754 357.474 79.8402 357.528 79.805 357.582C76.9272 361.989 72.9008 365.526 68.1602 367.813C68.0684 367.858 67.9777 367.905 67.8882 367.954C67.1298 368.365 66.3458 368.726 65.5415 369.038L65.4348 369.078L26.7564 384.533C18.8383 387.704 12.0546 393.18 7.28417 400.251C2.51371 407.322 -0.0238446 415.662 0.00016887 424.192V503.466C0.00016887 505.73 0.899214 507.9 2.49952 509.5C4.09983 511.101 6.27032 512 8.5335 512ZM238.934 375.466C264.72 375.466 290.667 391.518 299.291 412.8C299.928 414.375 301.021 415.725 302.431 416.675C303.84 417.625 305.501 418.133 307.2 418.133H456.234L467.611 435.2L456.234 452.266H447.267L432.701 437.699C431.909 436.906 430.968 436.278 429.932 435.849C428.897 435.42 427.788 435.199 426.667 435.199C425.546 435.199 424.437 435.42 423.401 435.849C422.366 436.278 421.425 436.906 420.633 437.699L406.066 452.266H396.067L381.501 437.699C380.709 436.906 379.768 436.278 378.733 435.849C377.697 435.42 376.587 435.199 375.467 435.199C374.346 435.199 373.237 435.42 372.201 435.849C371.166 436.278 370.225 436.906 369.433 437.699L354.866 452.266H307.2C305.501 452.267 303.84 452.774 302.431 453.724C301.021 454.675 299.928 456.024 299.291 457.6C290.668 478.886 264.72 494.933 238.934 494.933C205.944 494.933 179.2 468.19 179.2 435.2C179.2 402.21 205.944 375.466 238.934 375.466ZM17.0668 424.192C17.0513 419.071 18.5729 414.063 21.4347 409.817C24.2965 405.57 28.3669 402.28 33.1191 400.372L71.725 384.946C73.1353 384.399 74.511 383.767 75.8444 383.053C83.2323 379.406 89.5162 373.859 94.0503 366.98C106.554 348.507 104.872 323.893 89.9703 307.294C86.6574 303.639 83.9044 299.513 81.8007 295.051L81.7527 294.951C78.4598 288.128 76.7661 280.643 76.8002 273.066V238.933C76.8254 231.317 78.5419 223.802 81.8259 216.931C85.1098 210.06 89.879 204.004 95.789 199.201C100.074 195.627 104.95 192.829 110.198 190.933C116.392 188.588 122.991 187.497 129.611 187.726C136.52 187.916 143.305 189.601 149.501 192.663C167.545 201.498 179.2 220.63 179.2 241.408V273.066C179.211 285.704 174.525 297.894 166.052 307.27C148.113 327.224 149.747 357.943 169.703 375.882C172.85 378.712 176.354 381.118 180.125 383.04C180.698 383.346 181.273 383.623 181.844 383.893C153.503 415.344 156.024 463.814 187.474 492.154C188.536 493.111 189.623 494.037 190.736 494.933H17.0668V424.192Z" fill="#D68029"/>
<path d="M221.868 460.8C236.006 460.8 247.468 449.338 247.468 435.2C247.468 421.061 236.006 409.6 221.868 409.6C207.729 409.6 196.268 421.061 196.268 435.2C196.284 449.332 207.735 460.784 221.868 460.8ZM221.868 426.666C223.555 426.666 225.205 427.167 226.608 428.104C228.012 429.042 229.105 430.375 229.751 431.934C230.397 433.493 230.566 435.209 230.237 436.864C229.908 438.52 229.095 440.04 227.902 441.234C226.708 442.427 225.188 443.24 223.532 443.569C221.877 443.898 220.161 443.729 218.602 443.083C217.043 442.438 215.71 441.344 214.772 439.94C213.835 438.537 213.334 436.887 213.334 435.2C213.337 432.937 214.237 430.768 215.837 429.169C217.436 427.569 219.605 426.669 221.868 426.666Z" fill="#D68029"/>
</g>
<defs>
<clipPath id="clip0_3362_457">
<rect width="512" height="512" fill="white"/>
</clipPath>
</defs>
</svg>
