<svg width="512" height="512" viewBox="0 0 512 512" fill="none" xmlns="http://www.w3.org/2000/svg">
<path fill-rule="evenodd" clip-rule="evenodd" d="M498.874 216.053L462.998 202.244C458.035 183.085 450.419 164.713 440.371 147.662L455.985 112.507C456.641 111.03 456.835 109.388 456.539 107.798C456.244 106.209 455.474 104.746 454.331 103.603L408.396 57.67C407.253 56.5267 405.79 55.7567 404.201 55.4612C402.611 55.1658 400.97 55.3589 399.492 56.015L364.324 71.635C347.278 61.5899 328.913 53.9753 309.76 49.012L295.946 13.125C295.365 11.6164 294.34 10.3193 293.007 9.40449C291.674 8.48964 290.096 7.99998 288.479 8H223.521C221.904 7.99999 220.326 8.48978 218.993 9.40483C217.66 10.3199 216.636 11.6173 216.055 13.126L202.241 49.013C183.088 53.9753 164.722 61.59 147.677 71.636L112.508 56.016C111.03 55.3601 109.389 55.1672 107.799 55.4626C106.21 55.7581 104.747 56.528 103.604 57.671L57.67 103.605C56.5269 104.748 55.757 106.211 55.4618 107.8C55.1665 109.39 55.3597 111.032 56.016 112.509L71.633 147.673C61.5872 164.721 53.9725 183.088 49.01 202.243L13.126 216.055C11.6173 216.636 10.3199 217.66 9.40483 218.993C8.48978 220.326 7.99999 221.904 8 223.521V288.481C7.99999 290.098 8.48978 291.676 9.40483 293.009C10.3199 294.342 11.6173 295.366 13.126 295.947L49.004 309.756C53.9662 328.915 61.5819 347.286 71.63 364.337L56.016 399.492C55.3597 400.969 55.1665 402.611 55.4618 404.201C55.757 405.79 56.5269 407.253 57.67 408.396L103.606 454.33C104.749 455.473 106.212 456.243 107.801 456.539C109.391 456.834 111.033 456.641 112.51 455.984L147.677 440.364C164.723 450.409 183.088 458.024 202.241 462.987L216.055 498.873C216.636 500.382 217.66 501.679 218.993 502.594C220.326 503.509 221.904 503.999 223.521 503.999H288.481C290.098 503.999 291.676 503.509 293.009 502.594C294.342 501.679 295.366 500.382 295.947 498.873L309.756 462.997C328.916 458.035 347.287 450.419 364.338 440.37L399.493 455.984C400.97 456.641 402.612 456.834 404.202 456.539C405.791 456.244 407.254 455.473 408.397 454.33L454.331 408.395C455.474 407.252 456.244 405.789 456.539 404.2C456.835 402.61 456.641 400.968 455.985 399.491L440.366 364.323C450.41 347.277 458.024 328.911 462.987 309.758L498.874 295.945C500.383 295.364 501.68 294.34 502.595 293.007C503.51 291.674 504 290.096 504 288.479V223.519C504 221.902 503.51 220.324 502.595 218.991C501.68 217.658 500.383 216.634 498.874 216.053ZM488 282.987L453.354 296.322C452.141 296.788 451.06 297.543 450.205 298.522C449.35 299.5 448.746 300.672 448.446 301.936C443.6 322.297 435.534 341.754 424.551 359.571C423.87 360.678 423.469 361.933 423.382 363.23C423.295 364.526 423.525 365.824 424.052 367.012L439.132 400.966L400.967 439.133L367.025 424.058C365.837 423.53 364.539 423.3 363.242 423.387C361.945 423.474 360.689 423.876 359.583 424.558C341.763 435.545 322.301 443.612 301.934 448.456C300.67 448.757 299.498 449.361 298.52 450.216C297.542 451.072 296.787 452.152 296.32 453.365L282.988 488H229.014L215.677 453.354C215.21 452.141 214.455 451.061 213.477 450.206C212.499 449.35 211.327 448.746 210.063 448.445C189.702 443.6 170.246 435.534 152.429 424.551C151.323 423.87 150.067 423.468 148.77 423.381C147.474 423.294 146.176 423.524 144.988 424.052L111.035 439.132L72.868 400.966L87.943 367.025C88.4703 365.837 88.7004 364.539 88.6133 363.242C88.5261 361.945 88.1245 360.69 87.443 359.583C76.457 341.762 68.3892 322.301 63.545 301.934C63.2444 300.67 62.6405 299.498 61.7853 298.52C60.9301 297.542 59.8496 296.787 58.637 296.32L24 282.988V229.013L58.643 215.679C59.8556 215.212 60.9363 214.457 61.7915 213.479C62.6467 212.501 63.2506 211.329 63.551 210.065C68.3965 189.702 76.4634 170.244 87.447 152.426C88.1285 151.319 88.5301 150.063 88.6172 148.767C88.7044 147.47 88.4743 146.172 87.947 144.984L72.869 111.034L111.034 72.867L144.989 87.947C146.176 88.4746 147.475 88.7049 148.771 88.618C150.068 88.5311 151.324 88.1295 152.43 87.448C170.247 76.465 189.704 68.3987 210.065 63.554C211.329 63.253 212.5 62.6488 213.478 61.7935C214.456 60.9382 215.211 59.8575 215.678 58.645L229.015 24H282.987L296.324 58.646C296.791 59.8584 297.546 60.939 298.524 61.7943C299.502 62.6496 300.673 63.2539 301.937 63.555C322.298 68.4001 341.755 76.4663 359.572 87.449C360.678 88.1305 361.934 88.5322 363.231 88.6191C364.527 88.7061 365.826 88.4757 367.013 87.948L400.967 72.868L439.133 111.034L424.058 144.975C423.531 146.163 423.301 147.461 423.388 148.758C423.475 150.054 423.877 151.31 424.558 152.417C435.544 170.238 443.612 189.699 448.456 210.066C448.756 211.33 449.36 212.502 450.216 213.48C451.071 214.458 452.151 215.213 453.364 215.68L488 229.012V282.987ZM226.431 257.779C225.463 257.448 224.492 257.124 223.519 256.808C207.502 251.609 193.163 257.462 180.046 264.727V235.878H187.51C192.044 235.878 196.139 233.373 198.462 229.177C201.094 224.425 200.943 218.398 198.078 213.821L160.841 154.363C158.462 150.567 154.511 148.301 150.273 148.301C146.035 148.301 142.084 150.567 139.704 154.365L102.469 213.82C99.604 218.394 99.452 224.421 102.084 229.174C104.407 233.372 108.502 235.878 113.036 235.878H120.5V276.846C116.44 276.015 112.275 276.648 108.646 278.702L91.203 288.575C82.973 293.233 80.065 303.72 84.724 311.951L136.005 402.56C138.256 406.539 141.932 409.405 146.354 410.631C147.883 411.055 149.436 411.265 150.979 411.265C153.898 411.265 156.779 410.514 159.381 409.04L176.824 399.168C185.054 394.509 187.961 384.022 183.303 375.792L179.229 368.593L186.749 364.252L265.379 385.32C269.992 386.556 274.582 387.171 279.098 387.171C288.238 387.171 297.07 384.653 305.145 379.682L417.964 310.214C429.342 303.209 432.999 285.634 425.637 273.342C422.857 268.699 413.372 256.864 391.5 262.372V235.88H398.964C403.498 235.88 407.593 233.375 409.916 229.179C412.548 224.427 412.397 218.4 409.532 213.823L372.295 154.365C369.916 150.569 365.965 148.303 361.727 148.303C357.489 148.303 353.538 150.569 351.158 154.367L313.923 213.822C311.058 218.396 310.906 224.423 313.538 229.176C315.861 233.374 319.956 235.88 324.49 235.88H331.954V293.829L308.223 307.651C307.041 308.342 305.818 308.961 304.561 309.505C304.765 308.901 304.953 308.282 305.123 307.65C308.643 294.512 300.875 280.809 287.44 276.453C287.097 276.342 286.747 276.254 286.392 276.19C286.285 276.171 286.178 276.148 286.071 276.129L286.025 168.321H293.487C298.022 168.321 302.117 165.816 304.44 161.619C307.072 156.867 306.921 150.84 304.056 146.264L266.818 86.805C264.438 83.009 260.487 80.743 256.249 80.743C252.011 80.744 248.061 83.011 245.682 86.808L208.447 146.263C205.582 150.837 205.43 156.864 208.062 161.618C210.385 165.815 214.48 168.321 219.014 168.321H226.477L226.431 257.779ZM339.953 219.878H329.006L361.727 167.633L394.448 219.878H383.5C381.378 219.878 379.343 220.721 377.843 222.221C376.343 223.721 375.5 225.756 375.5 227.878V268.632C373.772 269.523 372.067 270.46 370.388 271.44L347.953 284.507V227.878C347.953 225.756 347.11 223.721 345.61 222.221C344.11 220.721 342.075 219.878 339.953 219.878ZM242.476 160.32C242.476 158.198 241.633 156.163 240.133 154.663C238.633 153.163 236.598 152.32 234.476 152.32H223.529L256.25 100.075L288.97 152.32H278.024C276.973 152.32 275.933 152.526 274.962 152.928C273.991 153.33 273.109 153.92 272.367 154.663C271.624 155.405 271.034 156.288 270.632 157.258C270.23 158.229 270.024 159.269 270.024 160.32L270.07 272.439C260.281 269.762 250.867 266.512 242.43 263.489L242.476 160.32ZM117.553 219.878L150.274 167.633L182.995 219.878H172.048C169.926 219.878 167.891 220.721 166.391 222.221C164.891 223.721 164.048 225.756 164.048 227.878V273.674L136.5 289.086V227.879C136.5 225.757 135.657 223.722 134.157 222.222C132.657 220.722 130.622 219.879 128.5 219.879L117.553 219.878ZM168.943 385.243L151.5 395.115C151.17 395.303 150.843 395.272 150.629 395.212C150.483 395.174 150.346 395.107 150.226 395.016C150.106 394.924 150.005 394.81 149.93 394.679L98.649 304.07C98.347 303.535 98.55 302.8 99.085 302.498L116.528 292.626C116.717 292.519 116.904 292.483 117.07 292.483C117.195 292.483 117.308 292.504 117.4 292.529C117.615 292.589 117.911 292.73 118.099 293.062L169.38 383.671C169.682 384.206 169.478 384.941 168.943 385.243ZM409.575 296.588L296.756 366.056C288.416 371.191 279.255 372.475 269.521 369.865L187.69 347.939C185.641 347.391 183.458 347.678 181.62 348.738L171.349 354.668L142.659 303.975L187.144 279.088C199.2 272.344 208.664 268.811 218.583 272.028C222.323 273.241 226.661 274.809 231.684 276.625C246.176 281.864 264.174 288.371 282.947 291.826C288.091 293.711 290.967 298.658 289.667 303.51C289.149 305.446 287.571 311.292 278.039 310.218C269.033 308.358 260.424 305.902 251.319 303.302C246.944 302.052 242.42 300.76 237.76 299.512C233.498 298.37 229.106 300.902 227.962 305.169C227.69 306.184 227.621 307.242 227.758 308.284C227.895 309.325 228.236 310.33 228.761 311.24C229.287 312.149 229.986 312.947 230.819 313.586C231.653 314.226 232.604 314.695 233.619 314.967C238.151 316.181 242.611 317.455 246.924 318.687C256.461 321.411 265.47 323.983 275.214 325.976C275.268 325.987 275.322 325.991 275.377 326.001C275.429 326.011 275.48 326.026 275.533 326.034L283.27 327.292C295.419 329.235 306.216 327.334 316.274 321.478L378.441 285.269C394.761 275.764 407.588 274.344 411.911 281.564C415.057 286.815 413.226 294.34 409.575 296.588ZM120.365 307.965C120.604 309.599 120.184 311.262 119.197 312.586C118.211 313.911 116.738 314.789 115.104 315.028C113.47 315.267 111.807 314.847 110.483 313.86C109.158 312.874 108.28 311.401 108.041 309.767C107.923 308.958 107.965 308.133 108.165 307.34C108.366 306.547 108.72 305.802 109.209 305.146C109.697 304.49 110.31 303.937 111.012 303.518C111.715 303.099 112.493 302.822 113.302 302.704C114.111 302.586 114.936 302.628 115.729 302.828C116.522 303.029 117.267 303.383 117.923 303.872C118.579 304.36 119.132 304.973 119.551 305.675C119.97 306.378 120.247 307.156 120.365 307.965Z" fill="#D68029"/>
</svg>
