<svg width="512" height="512" viewBox="0 0 512 512" fill="none" xmlns="http://www.w3.org/2000/svg">
<path d="M134.594 504.242C131.957 504.242 129.552 502.458 128.931 499.82L124.199 480.349C117.14 478.642 110.313 476.082 103.641 472.669L87.4282 485.003C85.1785 486.71 82.0754 486.555 79.9809 484.693L53.5276 460.8C52.5105 459.894 51.8444 458.659 51.6458 457.312C51.4473 455.965 51.7289 454.591 52.4415 453.43L63.0694 435.975C58.9579 429.692 55.6221 423.02 53.2173 416.271L33.513 413.634C32.1706 413.46 30.9314 412.822 30.0104 411.83C29.0893 410.838 28.5446 409.555 28.4706 408.203L26.6088 372.518C26.376 369.803 28.3154 367.321 31.0306 366.623L50.3469 361.968C52.0536 354.909 54.6136 348.082 58.0269 341.411L45.6924 325.197C43.9857 322.948 44.1409 319.844 46.0027 317.75L60.9748 301.149C63.1469 298.744 66.793 298.589 69.1979 300.683C71.6027 302.855 71.7579 306.501 69.6633 308.906L57.7942 321.939L69.5082 337.299C70.9045 339.161 71.0597 341.643 69.9736 343.66C65.6294 351.418 62.6039 359.563 60.9748 367.864C60.5094 370.114 58.8027 371.82 56.6306 372.363L38.4003 376.785L39.7191 402.851L58.2597 405.333C60.5094 405.643 62.3712 407.195 63.0694 409.367C65.5518 417.435 69.4306 425.192 74.6282 432.562C75.9469 434.424 76.0245 436.984 74.8609 438.923L64.776 455.447L84.0924 472.901L99.4524 461.188C101.314 459.791 103.797 459.636 105.814 460.722C113.571 465.066 121.717 468.092 130.017 469.721C132.267 470.186 133.974 471.815 134.517 474.065L139.016 492.373L165.081 491.054L167.564 472.514C167.874 470.264 169.426 468.402 171.598 467.781C179.976 465.144 187.734 461.265 194.793 456.3C196.655 454.981 199.215 454.904 201.154 456.068L217.678 466.152L235.132 446.758L223.418 431.398C222.742 430.493 222.338 429.413 222.256 428.286C222.173 427.159 222.415 426.031 222.953 425.037C227.142 417.512 230.168 409.367 231.952 400.834C232.189 399.755 232.721 398.764 233.488 397.97C234.255 397.176 235.227 396.609 236.296 396.334L254.526 391.835L252.897 361.037C252.855 360.273 252.965 359.508 253.219 358.786C253.473 358.064 253.868 357.399 254.379 356.83C254.891 356.261 255.51 355.798 256.201 355.468C256.892 355.139 257.641 354.948 258.405 354.909C261.586 354.831 264.378 357.158 264.534 360.417L266.473 396.024C266.628 398.817 264.766 401.299 262.051 401.997L242.58 406.729C240.795 413.866 238.235 420.771 234.977 427.287L247.312 443.5C249.018 445.75 248.863 448.853 247.001 450.948L223.031 477.478C221.169 479.573 218.066 480.038 215.661 478.564L198.206 467.937C192.078 471.893 185.484 475.151 178.58 477.634L175.942 497.415C175.554 500.208 173.305 502.303 170.512 502.458L134.905 504.242H134.594Z" fill="#D68029"/>
<path d="M146.463 446.836C134.101 446.824 122.02 443.152 111.743 436.282C101.466 429.413 93.4532 419.654 88.7153 408.237C83.9774 396.819 82.7265 384.254 85.1205 372.127C87.5144 359.999 93.446 348.852 102.167 340.092C104.417 337.842 108.14 337.842 110.39 340.092C112.64 342.341 112.64 346.065 110.39 348.315C105.38 353.358 101.481 359.393 98.9428 366.033C96.4044 372.673 95.283 379.771 95.6507 386.87C97.1247 414.952 121.173 436.441 149.178 435.122C155.863 434.786 162.415 433.133 168.459 430.258C174.503 427.382 179.92 423.341 184.397 418.366C188.89 413.401 192.355 407.595 194.592 401.284C196.829 394.973 197.793 388.281 197.43 381.595C197.275 378.104 196.732 374.69 195.879 371.355C195.613 369.905 195.908 368.408 196.703 367.167C197.498 365.926 198.735 365.033 200.163 364.669C201.591 364.305 203.105 364.496 204.397 365.204C205.69 365.912 206.666 367.085 207.127 368.484C208.213 372.518 208.834 376.785 209.067 380.974C210.851 415.418 184.242 444.897 149.799 446.681C148.713 446.836 147.549 446.836 146.463 446.836ZM359.331 246.846C357.837 246.791 356.421 246.164 355.376 245.095C354.332 244.026 353.738 242.596 353.718 241.101C353.698 239.606 354.254 238.161 355.269 237.065C356.285 235.968 357.684 235.304 359.176 235.209L380.587 234.511L383.457 216.048C383.614 214.956 384.087 213.934 384.818 213.107C385.548 212.28 386.504 211.684 387.568 211.393C395.947 208.911 403.859 205.187 410.996 200.378C412.936 199.059 415.418 199.059 417.357 200.3L433.648 210.695L451.491 191.612L440.087 176.019C439.415 175.107 439.027 174.017 438.972 172.885C438.917 171.754 439.197 170.631 439.777 169.658C444.121 162.288 447.302 154.143 449.319 145.609C449.784 143.437 451.568 141.73 453.74 141.265L472.126 137.153L471.273 111.166L452.732 108.295C451.63 108.141 450.597 107.67 449.757 106.94C448.917 106.211 448.307 105.253 448 104.184C445.595 95.8056 441.871 87.8929 436.984 80.8335C436.335 79.8917 435.974 78.7809 435.947 77.6372C435.919 76.4936 436.226 75.3667 436.829 74.3947L447.224 58.1038L428.218 40.3389L412.625 51.7426C410.763 53.1389 408.203 53.2165 406.186 52.0529C398.739 47.5535 390.671 44.3729 382.138 42.5111C381.052 42.2803 380.057 41.7399 379.272 40.9551C378.487 40.1703 377.947 39.1749 377.716 38.0892L373.682 19.7814L347.694 20.5571L344.746 39.1753C344.589 40.2673 344.116 41.2896 343.386 42.1165C342.655 42.9433 341.699 43.5389 340.635 43.8299C332.49 46.1571 324.654 49.8808 317.285 54.8456C315.345 56.1644 312.863 56.1644 310.923 54.9232L294.633 44.528L280.281 59.8105C278.109 62.1377 274.385 62.2929 272.058 60.0432C271.499 59.5206 271.05 58.8925 270.735 58.1951C270.421 57.4977 270.248 56.7449 270.226 55.9802C270.205 55.2155 270.335 54.4541 270.609 53.7401C270.884 53.026 271.297 52.3735 271.825 51.8202L289.435 33.0468C290.37 32.0699 291.613 31.4443 292.955 31.2748C294.297 31.1053 295.656 31.4023 296.805 32.1159L314.027 43.0541C320.388 39.0977 326.982 35.9947 333.886 33.6674L336.989 13.8856C337.454 11.0929 339.782 9.07592 342.574 8.99834L378.104 7.75713C381.052 7.67955 383.379 9.61895 383.922 12.3341L388.189 31.8056C395.326 33.6674 402.23 36.3826 408.669 39.9511L425.115 27.9268C427.365 26.2977 430.468 26.4529 432.562 28.3923L458.55 52.8286C460.567 54.768 460.955 57.8711 459.481 60.1983L448.543 77.4202C452.499 83.6262 455.602 90.2977 457.93 97.3571L477.634 100.383C480.427 100.848 482.443 103.175 482.599 105.968L483.84 141.575C483.917 144.368 482.056 146.85 479.263 147.471L459.714 151.815C457.774 158.952 455.059 165.779 451.646 172.218L463.67 188.741C465.299 190.991 465.144 194.094 463.205 196.189L438.768 222.254C437.833 223.231 436.59 223.857 435.249 224.026C433.907 224.196 432.547 223.899 431.399 223.185L414.177 212.247C407.971 216.048 401.377 219.229 394.317 221.556L391.292 241.26C390.826 244.053 388.499 246.07 385.707 246.225L359.486 247.078C359.486 246.846 359.408 246.846 359.331 246.846Z" fill="#D68029"/>
<path d="M364.14 189.982H361.968C358.788 189.905 356.228 187.189 356.383 184.009C356.538 180.828 359.176 178.191 362.356 178.423C363.442 178.423 364.606 178.501 365.77 178.423C393.852 177.492 415.961 153.987 415.03 125.905C414.565 112.329 408.902 99.684 398.972 90.3749C389.042 81.0658 376.087 76.2561 362.511 76.644C348.005 77.1094 334.429 83.7034 325.12 94.8743C323.025 97.3567 319.379 97.667 316.897 95.5725C314.414 93.4779 314.104 89.8319 316.199 87.3494C321.845 80.5968 328.855 75.1151 336.77 71.2645C344.686 67.414 353.326 65.2816 362.123 65.0076C396.567 63.6888 425.58 91.0731 426.667 125.517C427.21 142.196 421.159 158.099 409.755 170.355C404.141 176.367 397.39 181.204 389.893 184.586C382.396 187.968 374.301 189.829 366.08 190.06C365.459 189.982 364.761 189.982 364.14 189.982Z" fill="#D68029"/>
<path d="M315.424 88.7467C251.268 24.6691 147.317 24.6691 83.1617 88.7467C19.0841 152.824 19.0841 256.853 83.1617 320.931C147.317 385.086 251.268 385.086 315.424 320.931C379.501 256.776 379.501 152.824 315.424 88.7467ZM289.591 295.176C239.787 344.979 158.798 344.979 108.994 295.176C59.1908 245.372 59.1908 164.383 108.994 114.579C158.798 64.7758 239.787 64.7758 289.591 114.579C339.394 164.383 339.394 245.372 289.591 295.176Z" stroke="#D68029" stroke-width="11.6364" stroke-miterlimit="1" stroke-linecap="round" stroke-linejoin="round"/>
<path d="M332.256 367.165C330.782 367.165 329.308 366.622 328.145 365.459L299.519 336.833C297.27 334.583 297.27 330.86 299.519 328.61C301.769 326.36 305.493 326.36 307.742 328.61L336.368 357.236C338.617 359.485 338.617 363.209 336.368 365.459C335.204 366.622 333.73 367.165 332.256 367.165ZM355.762 343.582C354.288 343.582 352.814 343.039 351.65 341.876L323.025 313.25C320.775 311 320.775 307.277 323.025 305.027C325.274 302.777 328.998 302.777 331.248 305.027L359.873 333.653C362.123 335.902 362.123 339.626 359.873 341.876C359.344 342.431 358.706 342.869 357.998 343.163C357.29 343.457 356.528 343.6 355.762 343.582ZM412.004 477.4C410.462 477.399 408.983 476.785 407.893 475.694L340.945 408.746C340.243 408.033 339.733 407.154 339.461 406.191C339.19 405.228 339.167 404.212 339.393 403.238C351.34 353.279 396.179 345.211 398.118 344.901C399.98 344.591 401.842 345.211 403.161 346.53L470.108 413.478C471.582 414.952 472.125 416.969 471.66 418.986C459.558 468.945 414.874 477.013 413.013 477.323C412.702 477.323 412.314 477.4 412.004 477.4ZM351.495 402.85L413.866 465.221C422.787 462.816 449.939 452.964 459.558 419.374L397.265 357.08C386.274 359.989 376.25 365.757 368.21 373.796C360.171 381.835 354.404 391.859 351.495 402.85Z" fill="#D68029"/>
<path d="M345.057 410.453C343.583 410.453 342.109 409.91 340.945 408.747L338.463 406.264C334.364 402.19 331.115 397.342 328.904 392.002C326.693 386.662 325.565 380.936 325.585 375.156C325.585 363.442 330.162 352.349 338.463 344.048C346.763 335.748 357.779 331.171 369.57 331.093C381.362 331.093 392.378 335.67 400.678 343.971L403.161 346.453C405.41 348.703 405.41 352.427 403.161 354.676C400.911 356.926 397.187 356.926 394.938 354.676L392.455 352.194C389.46 349.176 385.894 346.785 381.965 345.16C378.036 343.535 373.822 342.709 369.57 342.73C360.882 342.807 352.736 346.143 346.686 352.271C340.557 358.4 337.221 366.468 337.221 375.156C337.221 383.767 340.557 391.913 346.686 398.041L349.168 400.524C351.418 402.773 351.418 406.497 349.168 408.747C348.004 409.833 346.53 410.453 345.057 410.453ZM441.483 490.977C430.235 490.977 418.986 486.71 410.375 478.099C408.126 475.85 408.126 472.126 410.375 469.876C412.625 467.627 416.349 467.627 418.598 469.876C424.67 475.913 432.883 479.301 441.444 479.301C450.006 479.301 458.219 475.913 464.29 469.876C470.355 463.809 473.768 455.586 473.783 447.008C473.797 438.429 470.412 430.194 464.368 424.107C462.118 421.857 462.118 418.133 464.368 415.884C466.618 413.634 470.341 413.634 472.591 415.884C476.672 419.973 479.907 424.827 482.112 430.167C484.317 435.508 485.448 441.23 485.441 447.008C485.434 452.785 484.288 458.505 482.07 463.839C479.852 469.174 476.605 474.02 472.513 478.099C468.453 482.196 463.619 485.444 458.292 487.654C452.964 489.865 447.251 490.995 441.483 490.977ZM160.271 287.573H129.008C125.827 287.573 123.19 284.936 123.19 281.755V224.349C123.19 221.168 125.827 218.531 129.008 218.531H160.271C163.452 218.531 166.089 221.168 166.089 224.349V281.755C166.089 285.013 163.452 287.573 160.271 287.573ZM134.826 275.937H154.453V230.167H134.826V275.937ZM214.884 287.573H183.621C180.441 287.573 177.803 284.936 177.803 281.755V193.008C177.803 189.828 180.441 187.19 183.621 187.19H214.884C218.065 187.19 220.703 189.828 220.703 193.008V281.755C220.703 285.013 218.143 287.573 214.884 287.573ZM189.517 275.937H209.144V198.827H189.517V275.937ZM269.575 287.573H238.312C235.132 287.573 232.494 284.936 232.494 281.755V224.349C232.494 221.168 235.132 218.531 238.312 218.531H269.575C272.756 218.531 275.393 221.168 275.393 224.349V281.755C275.393 285.013 272.756 287.573 269.575 287.573ZM244.13 275.937H263.757V230.167H244.13V275.937ZM144.601 202.162C131.025 202.162 119.932 191.069 119.932 177.493C119.932 163.918 131.025 152.824 144.601 152.824C158.176 152.824 169.27 163.918 169.27 177.493C169.27 191.069 158.254 202.162 144.601 202.162ZM144.601 164.383C137.386 164.383 131.568 170.201 131.568 177.416C131.568 184.63 137.386 190.448 144.601 190.448C151.815 190.448 157.633 184.63 157.633 177.416C157.633 170.201 151.815 164.383 144.601 164.383ZM199.292 159.263C185.716 159.263 174.623 148.17 174.623 134.594C174.623 121.018 185.716 109.925 199.292 109.925C212.867 109.925 223.961 121.018 223.961 134.594C223.961 148.17 212.867 159.263 199.292 159.263ZM199.292 121.484C192.077 121.484 186.259 127.302 186.259 134.516C186.259 141.731 192.077 147.549 199.292 147.549C206.506 147.549 212.324 141.731 212.324 134.516C212.324 127.302 206.506 121.484 199.292 121.484ZM253.983 202.162C240.407 202.162 229.313 191.069 229.313 177.493C229.313 163.918 240.407 152.824 253.983 152.824C267.558 152.824 278.652 163.918 278.652 177.493C278.652 191.069 267.558 202.162 253.983 202.162ZM253.983 164.383C246.768 164.383 240.95 170.201 240.95 177.416C240.95 184.63 246.768 190.448 253.983 190.448C261.197 190.448 267.015 184.63 267.015 177.416C267.015 170.201 261.12 164.383 253.983 164.383Z" fill="#D68029"/>
<path d="M159.419 171.675C157.713 171.675 156.006 170.899 154.842 169.425C152.825 166.865 153.291 163.219 155.851 161.28L180.908 141.653C183.468 139.714 187.114 140.102 189.053 142.662C191.07 145.222 190.605 148.868 188.045 150.807L162.988 170.434C161.979 171.21 160.661 171.675 159.419 171.675ZM239.167 171.675C237.926 171.675 236.607 171.287 235.599 170.434L210.542 150.73C209.331 149.781 208.545 148.392 208.356 146.865C208.167 145.339 208.591 143.8 209.533 142.584C211.55 140.102 215.196 139.636 217.679 141.576L242.736 161.28C243.686 162.026 244.381 163.049 244.723 164.208C245.066 165.367 245.039 166.603 244.647 167.746C244.254 168.889 243.516 169.881 242.534 170.585C241.552 171.289 240.375 171.67 239.167 171.675ZM410.067 419.607C408.593 419.607 407.119 419.064 405.955 417.901L374.77 386.715C372.52 384.465 372.52 380.742 374.77 378.492C377.019 376.242 380.743 376.242 382.993 378.492L414.178 409.678C416.428 411.927 416.428 415.651 414.178 417.901C413.014 419.064 411.541 419.607 410.067 419.607ZM429.15 438.768C427.676 438.768 426.202 438.225 425.039 437.062L419.221 431.244C416.971 428.994 416.971 425.27 419.221 423.021C421.47 420.771 425.194 420.771 427.444 423.021L433.262 428.839C435.511 431.088 435.511 434.812 433.262 437.062C432.176 438.148 430.624 438.768 429.15 438.768Z" fill="#D68029"/>
</svg>
