<svg width="512" height="512" viewBox="0 0 512 512" fill="none" xmlns="http://www.w3.org/2000/svg">
<g clip-path="url(#clip0_3419_2421)">
<mask id="mask0_3419_2421" style="mask-type:luminance" maskUnits="userSpaceOnUse" x="0" y="0" width="512" height="512">
<path d="M503.999 504V8.0015H8V504H503.999Z" fill="white" stroke="white" stroke-width="16"/>
</mask>
<g mask="url(#mask0_3419_2421)">
<path d="M444.573 96.682C432.076 109.179 411.815 109.179 399.318 96.682C386.821 84.185 386.821 63.9241 399.318 51.4271C411.815 38.9301 432.076 38.9301 444.573 51.4271C457.07 63.9241 457.07 84.185 444.573 96.682Z" stroke="#D68029" stroke-width="16" stroke-miterlimit="10" stroke-linecap="round" stroke-linejoin="round"/>
<path d="M112.678 460.576C100.181 473.073 79.9205 473.073 67.4235 460.576C54.9265 448.08 54.9265 427.819 67.4235 415.322C79.9205 402.825 100.181 402.825 112.678 415.322C125.175 427.819 125.175 448.08 112.678 460.576Z" stroke="#D68029" stroke-width="16" stroke-miterlimit="10" stroke-linecap="round" stroke-linejoin="round"/>
<path d="M207.488 497.217C223.462 500.406 239.712 502.008 256.001 502C391.863 502 502 391.862 502 256.001C502 196.692 481.008 142.288 446.054 99.8052" stroke="#D68029" stroke-width="16" stroke-miterlimit="10" stroke-linecap="round" stroke-linejoin="round"/>
<path d="M304.979 14.8775C288.855 11.626 272.448 9.99218 255.999 10.0005C120.138 10.0005 10 120.138 10 256C10 315.309 30.9919 369.712 65.9468 412.195" stroke="#D68029" stroke-width="16" stroke-miterlimit="10" stroke-linecap="round" stroke-linejoin="round"/>
<path d="M256.001 328.63C215.889 328.63 183.371 296.113 183.371 256.001C183.371 215.889 215.889 183.372 256.001 183.372C296.113 183.372 328.631 215.889 328.631 256.001C328.631 296.113 296.113 328.63 256.001 328.63ZM400.835 224.648C397.087 207.206 390.202 190.59 380.515 175.61L399.675 156.449L355.447 112.252L336.302 131.397C321.321 121.71 304.706 114.825 287.265 111.078V84.001H224.737V111.078C207.296 114.825 190.68 121.71 175.7 131.397L156.555 112.252L112.326 156.449L131.486 175.61C121.799 190.59 114.914 207.206 111.166 224.648H84.0184L83.9844 287.174H111.165C114.913 304.616 121.798 321.232 131.485 336.213L112.252 355.446L156.449 399.676L175.698 380.426C190.679 390.114 207.295 396.999 224.737 400.747V428H287.265V400.747C304.707 396.999 321.323 390.114 336.304 380.426L355.553 399.676L399.749 355.446L380.516 336.213C390.203 321.232 397.088 304.616 400.836 287.174H428.017V224.648H400.835Z" stroke="#D68029" stroke-width="16" stroke-miterlimit="10" stroke-linecap="round" stroke-linejoin="round"/>
</g>
</g>
<defs>
<clipPath id="clip0_3419_2421">
<rect width="512" height="512" fill="white"/>
</clipPath>
</defs>
</svg>
