<svg width="512" height="512" viewBox="0 0 512 512" fill="none" xmlns="http://www.w3.org/2000/svg">
<path fill-rule="evenodd" clip-rule="evenodd" d="M334.515 470.155H177.476C176.08 470.155 174.741 469.601 173.754 468.614C172.767 467.628 172.212 466.289 172.211 464.893V434.126C172.211 399.147 200.676 370.686 235.654 370.686C237.049 370.686 238.388 371.24 239.375 372.227C240.361 373.213 240.916 374.552 240.916 375.947C240.916 377.343 240.361 378.681 239.375 379.668C238.388 380.655 237.049 381.209 235.654 381.209C206.481 381.209 182.735 404.949 182.735 434.129V459.632H329.265V434.129C329.265 404.949 305.519 381.209 276.343 381.209C274.978 381.163 273.684 380.589 272.735 379.607C271.785 378.625 271.255 377.313 271.255 375.947C271.255 374.582 271.785 373.269 272.735 372.287C273.684 371.306 274.978 370.731 276.343 370.686C311.321 370.686 339.777 399.15 339.777 434.129V464.893C339.778 465.585 339.642 466.269 339.378 466.908C339.114 467.547 338.727 468.127 338.238 468.616C337.749 469.105 337.169 469.492 336.53 469.756C335.891 470.02 335.207 470.156 334.515 470.155Z" fill="#D68029"/>
<path fill-rule="evenodd" clip-rule="evenodd" d="M235.656 381.21C234.261 381.21 232.922 380.656 231.936 379.669C230.949 378.682 230.395 377.344 230.395 375.948V355.796C230.395 354.4 230.949 353.062 231.936 352.075C232.922 351.088 234.261 350.534 235.656 350.534C237.052 350.534 238.39 351.088 239.377 352.075C240.364 353.062 240.918 354.4 240.918 355.796V375.948C240.918 378.854 238.562 381.21 235.656 381.21ZM276.345 381.21C274.95 381.21 273.611 380.656 272.624 379.669C271.636 378.683 271.081 377.344 271.081 375.948V355.061C271.081 353.665 271.635 352.327 272.622 351.34C273.609 350.353 274.947 349.799 276.342 349.799C277.738 349.799 279.076 350.353 280.063 351.34C281.05 352.327 281.604 353.665 281.604 355.061V375.948C281.604 378.854 279.248 381.21 276.345 381.21Z" fill="#D68029"/>
<path fill-rule="evenodd" clip-rule="evenodd" d="M256.003 400.821C241.587 400.821 229.856 389.662 229.856 375.947C229.856 374.551 230.41 373.213 231.397 372.226C232.384 371.239 233.722 370.685 235.118 370.685C236.513 370.685 237.852 371.239 238.838 372.226C239.825 373.213 240.379 374.551 240.379 375.947C240.379 383.86 247.386 390.297 256 390.297C264.616 390.297 271.62 383.86 271.62 375.947C271.62 374.551 272.174 373.212 273.161 372.225C274.148 371.238 275.487 370.683 276.883 370.683C278.279 370.683 279.618 371.238 280.605 372.225C281.592 373.212 282.146 374.551 282.146 375.947C282.146 389.662 270.415 400.821 256.003 400.821ZM212.455 470.155C211.06 470.155 209.721 469.6 208.735 468.613C207.748 467.627 207.193 466.288 207.193 464.893V434.125C207.193 432.73 207.748 431.391 208.735 430.404C209.721 429.418 211.06 428.863 212.455 428.863C213.851 428.863 215.189 429.418 216.176 430.404C217.163 431.391 217.717 432.73 217.717 434.125V464.893C217.717 467.798 215.361 470.155 212.455 470.155ZM299.55 470.155C298.859 470.155 298.174 470.02 297.535 469.756C296.897 469.492 296.316 469.104 295.827 468.615C295.339 468.126 294.951 467.546 294.687 466.907C294.423 466.269 294.287 465.584 294.288 464.893V434.125C294.288 432.73 294.842 431.391 295.829 430.404C296.816 429.418 298.154 428.863 299.55 428.863C300.945 428.863 302.284 429.418 303.271 430.404C304.257 431.391 304.812 432.73 304.812 434.125V464.893C304.812 467.798 302.455 470.155 299.55 470.155ZM255.938 369.158C229.658 369.158 208.498 335.966 208.498 308.482C208.498 307.087 209.053 305.748 210.04 304.761C211.026 303.775 212.365 303.22 213.76 303.22C215.156 303.22 216.494 303.775 217.481 304.761C218.468 305.748 219.022 307.087 219.022 308.482C219.022 330.589 236.396 358.635 255.938 358.635C264.772 358.635 274.162 352.083 281.697 340.661C288.814 329.869 293.237 316.39 293.237 305.479C293.283 304.114 293.857 302.82 294.839 301.871C295.821 300.921 297.133 300.391 298.499 300.391C299.864 300.391 301.177 300.921 302.159 301.871C303.14 302.82 303.715 304.114 303.76 305.479C303.76 331.121 283.682 369.158 255.938 369.158Z" fill="#D68029"/>
<path fill-rule="evenodd" clip-rule="evenodd" d="M213.964 313.745H213.743C213.052 313.743 212.368 313.604 211.73 313.337C211.093 313.07 210.514 312.681 210.028 312.19C209.541 311.7 209.155 311.119 208.893 310.479C208.631 309.84 208.498 309.155 208.5 308.464C208.503 307.773 208.641 307.089 208.908 306.452C209.175 305.815 209.564 305.236 210.055 304.749C210.545 304.262 211.127 303.877 211.766 303.615C212.405 303.353 213.09 303.219 213.781 303.221H213.961C240.134 303.221 260.213 278.885 260.414 278.637C260.945 277.98 261.626 277.461 262.401 277.123C263.175 276.786 264.019 276.64 264.862 276.698C265.704 276.756 266.521 277.017 267.241 277.458C267.962 277.898 268.565 278.507 269.001 279.23C269.119 279.428 281.579 299.593 298.691 300.221C300.085 300.273 301.403 300.876 302.353 301.898C303.304 302.92 303.81 304.277 303.761 305.672C303.708 307.067 303.105 308.384 302.082 309.334C301.059 310.284 299.702 310.789 298.307 310.739C282.102 310.146 269.904 297.777 263.975 290.277C255.766 298.473 237.341 313.745 213.964 313.745Z" fill="#D68029"/>
<path fill-rule="evenodd" clip-rule="evenodd" d="M213.771 313.744C212.878 313.746 212 313.521 211.218 313.09C210.436 312.66 209.776 312.037 209.301 311.282C202.022 299.689 209.968 273.557 225.051 259.502C239.513 246.029 257.826 245.636 275.304 258.424C276.43 259.248 277.183 260.486 277.396 261.865C277.61 263.243 277.267 264.651 276.444 265.777C275.62 266.903 274.382 267.656 273.003 267.869C271.625 268.083 270.217 267.74 269.091 266.917C255.509 256.975 243.101 257.069 232.223 267.203C219.042 279.486 214.811 300.262 218.218 305.68C218.717 306.476 218.993 307.391 219.019 308.33C219.046 309.269 218.82 310.198 218.367 311.02C217.913 311.843 217.248 312.529 216.44 313.008C215.632 313.487 214.71 313.741 213.771 313.744Z" fill="#D68029"/>
<path fill-rule="evenodd" clip-rule="evenodd" d="M298.501 310.74C297.567 310.738 296.65 310.489 295.845 310.016C295.039 309.544 294.373 308.866 293.916 308.052C293.459 307.237 293.226 306.316 293.242 305.383C293.258 304.449 293.522 303.536 294.007 302.738C295.344 298.477 296.26 276.21 288.193 268.368C287.023 267.228 283.459 263.761 274.188 267.547C273.548 267.808 272.863 267.941 272.172 267.938C271.48 267.935 270.797 267.796 270.159 267.528C269.522 267.261 268.943 266.87 268.457 266.379C267.971 265.888 267.586 265.306 267.324 264.666C267.062 264.027 266.929 263.342 266.933 262.65C266.936 261.959 267.075 261.275 267.343 260.638C267.61 260.001 268.001 259.422 268.492 258.936C268.983 258.449 269.565 258.064 270.204 257.803C286.321 251.23 294.807 259.043 298.442 264.284C303.677 271.849 305.091 282.444 305.357 289.994C305.487 293.567 305.64 305.508 302.36 309.057C301.867 309.589 301.27 310.013 300.605 310.302C299.94 310.592 299.223 310.741 298.498 310.74H298.501ZM188.383 405.571C185.643 405.571 183.331 403.445 183.139 400.666C181.249 373.028 158.056 351.379 130.347 351.379C128.982 351.333 127.688 350.759 126.739 349.777C125.789 348.795 125.258 347.483 125.258 346.117C125.258 344.751 125.789 343.439 126.739 342.457C127.688 341.475 128.982 340.901 130.347 340.855C163.571 340.855 191.372 366.81 193.645 399.943C193.693 400.633 193.604 401.326 193.383 401.982C193.163 402.638 192.815 403.243 192.36 403.765C191.905 404.286 191.352 404.712 190.732 405.019C190.111 405.326 189.437 405.507 188.747 405.553C188.628 405.562 188.51 405.571 188.383 405.571ZM177.476 440.319H31.4884C30.0936 440.318 28.7561 439.764 27.7696 438.778C26.7831 437.792 26.2281 436.455 26.2266 435.06V404.292C26.2266 369.314 54.6823 340.855 89.6607 340.855C91.0563 340.855 92.3946 341.409 93.3814 342.396C94.3682 343.383 94.9226 344.721 94.9226 346.117C94.9226 347.512 94.3682 348.851 93.3814 349.838C92.3946 350.824 91.0563 351.379 89.6607 351.379C60.4845 351.379 36.7473 375.119 36.7473 404.292L36.7502 429.795H177.479C178.874 429.795 180.213 430.35 181.199 431.336C182.186 432.323 182.741 433.662 182.741 435.057C182.741 436.453 182.186 437.791 181.199 438.778C180.213 439.764 178.871 440.319 177.476 440.319Z" fill="#D68029"/>
<path fill-rule="evenodd" clip-rule="evenodd" d="M89.6603 351.378C88.2647 351.378 86.9264 350.824 85.9396 349.837C84.9528 348.85 84.3984 347.512 84.3984 346.116V325.964C84.3984 324.568 84.9528 323.23 85.9396 322.243C86.9264 321.256 88.2647 320.702 89.6603 320.702C91.0558 320.702 92.3941 321.256 93.3809 322.243C94.3677 323.23 94.9221 324.568 94.9221 325.964V346.116C94.9221 349.022 92.5658 351.378 89.6603 351.378ZM130.349 351.378C129.658 351.379 128.974 351.243 128.335 350.979C127.696 350.714 127.116 350.327 126.627 349.838C126.138 349.35 125.75 348.769 125.485 348.131C125.221 347.492 125.085 346.808 125.085 346.116V325.229C125.085 323.833 125.639 322.495 126.626 321.508C127.612 320.521 128.951 319.967 130.346 319.967C131.742 319.967 133.08 320.521 134.067 321.508C135.054 322.495 135.608 323.833 135.608 325.229V346.116C135.608 349.022 133.252 351.378 130.349 351.378Z" fill="#D68029"/>
<path fill-rule="evenodd" clip-rule="evenodd" d="M110.005 370.99C95.59 370.99 83.8675 359.832 83.8675 346.119C83.8675 344.724 84.4219 343.385 85.4087 342.398C86.3955 341.412 87.7338 340.857 89.1293 340.857C90.5249 340.857 91.8632 341.412 92.85 342.398C93.8368 343.385 94.3912 344.724 94.3912 346.119C94.3941 354.033 101.398 360.47 110.002 360.47C118.619 360.47 125.623 354.033 125.623 346.119C125.623 344.723 126.177 343.384 127.164 342.397C128.151 341.41 129.49 340.856 130.886 340.856C132.282 340.856 133.62 341.41 134.608 342.397C135.595 343.384 136.149 344.723 136.149 346.119C136.149 359.832 124.418 370.99 110.005 370.99ZM66.4669 440.321C65.0716 440.32 63.7337 439.766 62.7471 438.779C61.7605 437.792 61.2059 436.455 61.2051 435.059V404.292C61.2051 402.896 61.7594 401.558 62.7462 400.571C63.733 399.584 65.0714 399.03 66.4669 399.03C67.8624 399.03 69.2008 399.584 70.1876 400.571C71.1743 401.558 71.7287 402.896 71.7287 404.292V435.059C71.7287 437.965 69.3695 440.321 66.4669 440.321ZM153.553 440.321C152.861 440.321 152.177 440.186 151.538 439.921C150.899 439.657 150.319 439.27 149.83 438.781C149.341 438.292 148.953 437.712 148.689 437.074C148.424 436.435 148.288 435.751 148.288 435.059V404.292C148.288 402.896 148.842 401.558 149.829 400.571C150.816 399.584 152.154 399.03 153.55 399.03C154.945 399.03 156.284 399.584 157.27 400.571C158.257 401.558 158.812 402.896 158.812 404.292V435.059C158.812 437.965 156.455 440.321 153.553 440.321ZM109.94 339.328C83.6697 339.328 62.5102 306.136 62.5102 278.652C62.5102 277.256 63.0646 275.918 64.0514 274.931C65.0381 273.944 66.3765 273.39 67.772 273.39C69.1675 273.39 70.5059 273.944 71.4927 274.931C72.4795 275.918 73.0338 277.256 73.0338 278.652C73.0338 300.759 90.4079 328.804 109.94 328.804C118.775 328.804 128.165 322.252 135.7 310.831C142.816 300.038 147.246 286.559 147.246 275.649C147.246 274.253 147.8 272.915 148.787 271.928C149.774 270.941 151.112 270.387 152.507 270.387C153.903 270.387 155.241 270.941 156.228 271.928C157.215 272.915 157.769 274.253 157.769 275.649C157.769 301.29 137.685 339.328 109.94 339.328Z" fill="#D68029"/>
<path fill-rule="evenodd" clip-rule="evenodd" d="M67.9725 283.913H67.7451C66.3496 283.909 65.0128 283.351 64.0288 282.361C63.0448 281.371 62.4942 280.032 62.4981 278.636C62.502 277.241 63.0601 275.904 64.0497 274.92C65.0392 273.936 66.3791 273.385 67.7746 273.389H67.9636C94.1458 273.389 114.216 249.052 114.416 248.807C114.947 248.15 115.628 247.631 116.403 247.294C117.177 246.956 118.021 246.811 118.863 246.87C119.707 246.927 120.525 247.187 121.248 247.627C121.97 248.068 122.575 248.676 123.012 249.401C123.13 249.596 135.582 269.763 152.702 270.389C153.392 270.414 154.071 270.575 154.699 270.863C155.327 271.15 155.892 271.559 156.362 272.065C156.833 272.571 157.198 273.165 157.438 273.813C157.679 274.461 157.789 275.149 157.763 275.84C157.71 277.232 157.107 278.547 156.087 279.496C155.066 280.446 153.711 280.952 152.318 280.904C136.105 280.313 123.916 267.941 117.978 260.447C109.778 268.644 91.3406 283.913 67.9725 283.913Z" fill="#D68029"/>
<path fill-rule="evenodd" clip-rule="evenodd" d="M67.7723 283.914C66.8813 283.915 66.0047 283.689 65.2247 283.259C64.4448 282.828 63.7872 282.206 63.3136 281.451C56.0262 269.861 63.9721 243.729 79.0637 229.674C93.5263 216.198 111.839 215.805 129.317 228.597C130.411 229.434 131.133 230.666 131.329 232.029C131.525 233.392 131.178 234.778 130.364 235.889C129.55 237 128.334 237.748 126.975 237.972C125.616 238.197 124.223 237.879 123.095 237.089C109.513 227.144 97.1139 227.241 86.2359 237.375C73.0518 249.659 68.8146 270.434 72.2221 275.853C72.7241 276.648 73.0035 277.564 73.031 278.504C73.0586 279.444 72.8333 280.374 72.3787 281.198C71.9242 282.021 71.257 282.708 70.4467 283.185C69.6365 283.663 68.7129 283.915 67.7723 283.914Z" fill="#D68029"/>
<path fill-rule="evenodd" clip-rule="evenodd" d="M152.502 280.911C151.568 280.908 150.653 280.658 149.848 280.185C149.043 279.712 148.378 279.034 147.922 278.22C147.465 277.406 147.233 276.485 147.249 275.552C147.265 274.619 147.529 273.707 148.014 272.909C149.348 268.645 150.264 246.378 142.205 238.539C141.03 237.396 137.463 233.932 128.192 237.715C127.551 237.98 126.864 238.116 126.171 238.115C125.477 238.115 124.791 237.977 124.151 237.709C123.511 237.442 122.93 237.052 122.442 236.559C121.954 236.067 121.568 235.483 121.306 234.841C121.044 234.199 120.911 233.511 120.916 232.818C120.921 232.125 121.063 231.439 121.333 230.8C121.604 230.162 121.998 229.583 122.493 229.098C122.988 228.612 123.574 228.229 124.217 227.971C140.325 221.398 148.82 229.211 152.446 234.452C157.69 242.017 159.104 252.612 159.37 260.162C159.5 263.735 159.653 275.673 156.364 279.225C155.331 280.344 153.916 280.911 152.502 280.911ZM323.611 405.57C323.493 405.57 323.372 405.562 323.245 405.553C322.556 405.506 321.882 405.324 321.263 405.016C320.644 404.709 320.092 404.282 319.638 403.761C319.184 403.24 318.838 402.634 318.618 401.979C318.398 401.324 318.31 400.632 318.358 399.943C320.632 366.813 348.429 340.858 381.645 340.858C383.018 340.89 384.325 341.459 385.285 342.442C386.245 343.425 386.782 344.744 386.782 346.118C386.782 347.492 386.245 348.811 385.285 349.794C384.325 350.777 383.018 351.346 381.645 351.378C353.939 351.378 330.754 373.028 328.853 400.666C328.763 401.996 328.173 403.242 327.2 404.152C326.227 405.063 324.944 405.57 323.611 405.57ZM480.512 440.319H334.519C333.145 440.286 331.839 439.718 330.879 438.735C329.919 437.752 329.382 436.432 329.382 435.058C329.382 433.684 329.919 432.365 330.879 431.382C331.839 430.399 333.145 429.83 334.519 429.798H475.253V404.292C475.253 375.116 451.522 351.378 422.346 351.378C421.655 351.379 420.97 351.244 420.331 350.979C419.693 350.715 419.112 350.328 418.623 349.839C418.135 349.35 417.747 348.77 417.483 348.131C417.219 347.492 417.083 346.808 417.084 346.117C417.083 345.426 417.219 344.741 417.483 344.103C417.747 343.464 418.134 342.884 418.622 342.395C419.111 341.907 419.691 341.519 420.329 341.255C420.968 340.99 421.652 340.854 422.343 340.855C457.324 340.855 485.777 369.313 485.777 404.292V435.06C485.777 437.962 483.418 440.322 480.512 440.319Z" fill="#D68029"/>
<path fill-rule="evenodd" clip-rule="evenodd" d="M381.645 351.378C380.249 351.378 378.911 350.823 377.924 349.837C376.937 348.85 376.383 347.511 376.383 346.116V325.963C376.383 324.568 376.937 323.229 377.924 322.243C378.911 321.256 380.249 320.702 381.645 320.702C383.04 320.702 384.379 321.256 385.365 322.243C386.352 323.229 386.906 324.568 386.906 325.963V346.116C386.906 349.021 384.55 351.378 381.645 351.378ZM422.343 351.378C421.651 351.379 420.966 351.244 420.327 350.98C419.688 350.716 419.107 350.328 418.618 349.839C418.129 349.351 417.741 348.77 417.477 348.131C417.213 347.492 417.077 346.807 417.078 346.116V325.228C417.078 323.834 417.632 322.496 418.618 321.511C419.604 320.525 420.941 319.971 422.335 319.971C423.73 319.971 425.067 320.525 426.053 321.511C427.039 322.496 427.593 323.834 427.593 325.228V346.116C427.593 346.806 427.458 347.49 427.194 348.128C426.931 348.767 426.544 349.347 426.056 349.835C425.568 350.324 424.989 350.712 424.351 350.976C423.714 351.241 423.03 351.377 422.34 351.378H422.343Z" fill="#D68029"/>
<path fill-rule="evenodd" clip-rule="evenodd" d="M401.99 370.99C387.574 370.99 375.852 359.832 375.852 346.119C375.852 344.724 376.406 343.385 377.393 342.398C378.38 341.412 379.718 340.857 381.114 340.857C382.509 340.857 383.848 341.412 384.834 342.398C385.821 343.385 386.376 344.724 386.376 346.119C386.376 354.033 393.382 360.47 401.99 360.47C410.603 360.47 417.61 354.033 417.61 346.119C417.61 344.724 418.164 343.385 419.151 342.398C420.138 341.412 421.476 340.857 422.872 340.857C424.267 340.857 425.606 341.412 426.592 342.398C427.579 343.385 428.134 344.724 428.134 346.119C428.134 359.832 416.405 370.99 401.99 370.99ZM358.451 440.321C357.056 440.321 355.717 439.767 354.731 438.78C353.744 437.793 353.189 436.455 353.189 435.059V404.292C353.222 402.918 353.791 401.612 354.773 400.652C355.756 399.692 357.076 399.154 358.45 399.154C359.824 399.154 361.143 399.692 362.126 400.652C363.109 401.612 363.678 402.918 363.71 404.292L363.713 435.059C363.713 437.965 361.354 440.321 358.451 440.321ZM445.537 440.321C444.846 440.321 444.161 440.186 443.523 439.921C442.884 439.657 442.303 439.27 441.814 438.781C441.326 438.292 440.938 437.712 440.673 437.074C440.408 436.435 440.272 435.751 440.272 435.059L440.275 404.292C440.308 402.918 440.876 401.612 441.859 400.652C442.842 399.692 444.162 399.154 445.536 399.154C446.91 399.154 448.229 399.692 449.212 400.652C450.195 401.612 450.763 402.918 450.796 404.292V435.059C450.796 437.965 448.44 440.321 445.537 440.321ZM401.925 339.328C375.654 339.328 354.495 306.136 354.495 278.652C354.495 277.256 355.049 275.918 356.036 274.931C357.023 273.944 358.361 273.39 359.756 273.39C361.152 273.39 362.49 273.944 363.477 274.931C364.464 275.918 365.018 277.256 365.018 278.652C365.018 300.759 382.392 328.804 401.925 328.804C410.759 328.804 420.146 322.252 427.685 310.831C434.81 300.038 439.23 286.559 439.23 275.649C439.23 274.253 439.784 272.915 440.771 271.928C441.758 270.941 443.096 270.387 444.492 270.387C445.887 270.387 447.226 270.941 448.212 271.928C449.199 272.915 449.754 274.253 449.754 275.649C449.754 301.29 429.666 339.328 401.925 339.328Z" fill="#D68029"/>
<path fill-rule="evenodd" clip-rule="evenodd" d="M359.96 283.912H359.73C358.334 283.908 356.997 283.35 356.013 282.361C355.029 281.371 354.479 280.031 354.482 278.636C354.486 277.24 355.044 275.903 356.034 274.919C357.024 273.935 358.363 273.385 359.759 273.389H359.96C386.251 273.389 406.2 249.058 406.401 248.813C406.933 248.156 407.615 247.636 408.39 247.298C409.165 246.96 410.009 246.814 410.853 246.872C411.696 246.929 412.513 247.189 413.235 247.629C413.957 248.069 414.562 248.677 414.999 249.4C415.117 249.595 427.578 269.763 444.686 270.389C445.377 270.413 446.056 270.574 446.684 270.862C447.312 271.149 447.878 271.558 448.348 272.064C448.818 272.57 449.184 273.164 449.424 273.812C449.664 274.46 449.774 275.149 449.747 275.839C449.694 277.232 449.091 278.547 448.071 279.496C447.05 280.445 445.695 280.951 444.302 280.903C428.092 280.313 415.903 267.941 409.974 260.447C401.765 268.644 383.328 283.912 359.96 283.912Z" fill="#D68029"/>
<path fill-rule="evenodd" clip-rule="evenodd" d="M359.757 283.914C358.866 283.915 357.989 283.689 357.209 283.259C356.429 282.828 355.772 282.206 355.298 281.451C348.011 269.861 355.956 243.729 371.048 229.674C385.508 216.198 403.824 215.805 421.298 228.597C422.381 229.437 423.094 230.667 423.285 232.025C423.476 233.382 423.129 234.761 422.319 235.867C421.509 236.973 420.299 237.72 418.947 237.948C417.595 238.176 416.208 237.868 415.08 237.089C401.497 227.144 389.095 227.241 378.217 237.375C365.036 249.656 360.808 270.434 364.206 275.853C364.576 276.437 364.826 277.089 364.943 277.77C365.06 278.452 365.041 279.149 364.887 279.824C364.733 280.498 364.448 281.135 364.047 281.698C363.647 282.262 363.139 282.741 362.553 283.108C361.716 283.636 360.746 283.916 359.757 283.914Z" fill="#D68029"/>
<path fill-rule="evenodd" clip-rule="evenodd" d="M444.494 280.91C443.56 280.909 442.643 280.66 441.837 280.188C441.031 279.716 440.365 279.038 439.907 278.223C439.449 277.409 439.217 276.488 439.232 275.554C439.248 274.62 439.512 273.707 439.997 272.908C441.331 268.644 442.244 246.378 434.186 238.538C433.019 237.398 429.447 233.932 420.175 237.714C418.894 238.187 417.479 238.143 416.23 237.592C414.981 237.042 413.994 236.027 413.478 234.763C412.963 233.499 412.958 232.084 413.466 230.816C413.974 229.549 414.954 228.528 416.201 227.97C432.305 221.4 440.8 229.21 444.429 234.451C449.673 242.016 451.087 252.611 451.353 260.161C451.48 263.734 451.637 275.672 448.347 279.224C447.314 280.343 445.896 280.91 444.494 280.91ZM241.861 225.283H270.142V211.175C270.141 210.016 270.522 208.889 271.227 207.97C271.932 207.05 272.921 206.39 274.04 206.09C285.834 202.923 296.588 196.708 305.221 188.069C306.04 187.251 307.106 186.725 308.254 186.575C309.402 186.424 310.567 186.657 311.569 187.237L323.803 194.297L337.943 169.807L325.719 162.749C324.718 162.17 323.936 161.277 323.493 160.209C323.05 159.14 322.971 157.956 323.268 156.838C326.419 145.036 326.419 132.614 323.268 120.811C322.66 118.508 323.664 116.087 325.719 114.897L337.943 107.84L323.8 83.3497L311.569 90.4157C309.502 91.6086 306.901 91.2631 305.212 89.58C296.582 80.945 285.833 74.7313 274.043 71.5623C272.923 71.2625 271.934 70.6017 271.229 69.6823C270.524 68.7629 270.142 67.6364 270.142 66.4776V52.3664H241.861V66.4806C241.861 68.8605 240.26 70.9481 237.957 71.5623C226.167 74.7344 215.416 80.9476 206.782 89.58C205.963 90.3987 204.897 90.9244 203.749 91.0755C202.602 91.2265 201.436 90.9946 200.433 90.4157L188.191 83.3497L174.059 107.84L186.275 114.897C187.277 115.476 188.061 116.369 188.504 117.438C188.948 118.507 189.027 119.693 188.729 120.811C185.583 132.614 185.583 145.035 188.729 156.838C189.343 159.135 188.336 161.562 186.272 162.752L174.059 169.81L188.191 194.297L200.433 187.231C201.436 186.651 202.602 186.419 203.749 186.57C204.897 186.721 205.963 187.247 206.782 188.066C215.414 196.703 226.165 202.918 237.957 206.087C240.26 206.701 241.858 208.789 241.858 211.172L241.861 225.283ZM272.171 235.804H239.832C237.58 235.802 235.42 234.907 233.827 233.315C232.234 231.723 231.337 229.564 231.334 227.312V215.102C220.579 211.615 210.683 205.892 202.297 198.31L191.699 204.425C190.735 204.985 189.669 205.348 188.564 205.493C187.459 205.639 186.335 205.564 185.259 205.272C184.179 204.988 183.167 204.491 182.281 203.812C181.395 203.133 180.653 202.284 180.098 201.316L163.928 173.312C163.37 172.346 163.007 171.28 162.86 170.174C162.714 169.068 162.787 167.944 163.075 166.866C163.363 165.788 163.861 164.778 164.54 163.893C165.219 163.008 166.066 162.265 167.032 161.707L177.611 155.601C175.263 144.539 175.263 133.107 177.611 122.046L167.035 115.939C166.068 115.382 165.22 114.64 164.54 113.755C163.861 112.87 163.362 111.86 163.074 110.782C162.785 109.704 162.712 108.579 162.859 107.473C163.005 106.367 163.369 105.301 163.928 104.335L180.098 76.331C180.653 75.3626 181.395 74.5143 182.281 73.8355C183.167 73.1568 184.18 72.661 185.259 72.3773C186.335 72.0854 187.458 72.01 188.563 72.1555C189.668 72.3009 190.733 72.6644 191.696 73.2247L202.297 79.3369C210.684 71.7565 220.58 66.0349 231.334 62.5475V50.3378C231.337 48.0855 232.234 45.9264 233.827 44.3344C235.42 42.7423 237.58 41.8473 239.832 41.8457H272.171C274.422 41.848 276.581 42.7434 278.174 44.3354C279.767 45.9274 280.663 48.086 280.666 50.3378V62.5475C291.421 66.0351 301.317 71.7566 309.706 79.3369L320.304 73.2247C321.267 72.6641 322.332 72.3004 323.437 72.155C324.542 72.0095 325.665 72.085 326.741 72.3773C328.938 72.9678 330.771 74.3704 331.905 76.334L348.074 104.335C349.205 106.299 349.506 108.587 348.913 110.781C348.628 111.86 348.132 112.872 347.453 113.758C346.774 114.643 345.925 115.385 344.956 115.939L334.388 122.046C336.74 133.107 336.74 144.539 334.388 155.601L344.959 161.71C345.927 162.265 346.776 163.006 347.454 163.892C348.133 164.778 348.629 165.79 348.913 166.869C349.207 167.945 349.285 169.068 349.14 170.175C348.996 171.281 348.632 172.347 348.071 173.312L331.905 201.318C331.348 202.286 330.605 203.134 329.719 203.812C328.832 204.491 327.82 204.987 326.741 205.272C325.665 205.564 324.542 205.64 323.437 205.494C322.332 205.349 321.267 204.985 320.304 204.425L309.715 198.313C301.324 205.895 291.424 211.617 280.666 215.105V227.312C280.663 229.563 279.767 231.722 278.174 233.314C276.581 234.906 274.422 235.801 272.171 235.804Z" fill="#D68029"/>
<path fill-rule="evenodd" clip-rule="evenodd" d="M256.001 103.322C236.424 103.322 220.491 119.25 220.491 138.824C220.491 158.4 236.424 174.328 256.001 174.328C275.578 174.328 291.496 158.4 291.496 138.824C291.496 119.247 275.578 103.322 256.001 103.322ZM256.001 184.848C230.625 184.848 209.977 164.203 209.977 138.824C209.977 113.445 230.622 92.7988 256.001 92.7988C281.377 92.7988 302.023 113.447 302.023 138.824C302.023 164.203 281.377 184.848 256.001 184.848Z" fill="#D68029"/>
</svg>
