<svg width="512" height="512" viewBox="0 0 512 512" fill="none" xmlns="http://www.w3.org/2000/svg">
<g clip-path="url(#clip0_3411_2311)">
<path d="M423.444 327.065C423.435 318.243 419.926 309.785 413.687 303.546C407.449 297.308 398.991 293.799 390.168 293.789H289.468C303.375 260.084 303.426 222.254 289.609 188.512C289.489 188.216 289.35 187.927 289.194 187.648C286.354 182.538 282.145 178.322 277.039 175.474C271.933 172.626 266.134 171.26 260.294 171.528C254.454 171.797 248.805 173.689 243.982 176.994C239.159 180.298 235.354 184.882 232.994 190.231C232.622 191.076 232.399 191.978 232.333 192.899L229.956 226.646C226.398 246.04 215.933 263.488 200.499 275.76C194.317 277.93 182.999 285.606 153.473 313.701V312.862C153.469 308.439 151.71 304.198 148.582 301.07C145.454 297.942 141.213 296.183 136.789 296.179H52.8043C48.3811 296.184 44.1403 297.943 41.0126 301.07C37.8849 304.198 36.1258 308.439 36.1213 312.862V480.462C36.1245 484.886 37.883 489.128 41.0108 492.257C44.1387 495.386 48.3802 497.146 52.8043 497.15H136.784C141.208 497.146 145.449 495.387 148.577 492.259C151.705 489.131 153.464 484.89 153.468 480.467V479.732C176.562 484.826 188.615 490.88 202.674 503.94C208.202 509.198 215.564 512.09 223.192 512H353.367C359.684 512.002 365.871 510.206 371.204 506.82C376.537 503.435 380.796 498.601 383.482 492.884C386.169 487.167 387.171 480.803 386.373 474.537C385.575 468.27 383.008 462.361 378.974 457.5C389.363 451.251 396.754 440.063 396.754 428.176C396.762 420.781 394.294 413.596 389.743 407.766C400.325 401.499 407.917 389.93 407.917 377.623C407.926 370.685 405.753 363.92 401.706 358.284C408.081 355.919 413.581 351.66 417.466 346.08C421.352 340.5 423.438 333.865 423.444 327.065ZM137.468 480.465C137.462 480.644 137.387 480.814 137.26 480.941C137.134 481.068 136.963 481.142 136.784 481.148H52.8043C52.6252 481.142 52.4552 481.068 52.3285 480.941C52.2018 480.814 52.1277 480.644 52.1213 480.465V312.865C52.128 312.686 52.2021 312.516 52.3288 312.389C52.4554 312.263 52.6253 312.189 52.8043 312.182H136.784C136.963 312.189 137.133 312.263 137.26 312.389C137.387 312.516 137.461 312.686 137.468 312.865V480.465ZM390.168 344.34H362.363C360.242 344.34 358.207 345.183 356.706 346.683C355.206 348.183 354.363 350.218 354.363 352.34C354.363 354.462 355.206 356.497 356.706 357.997C358.207 359.497 360.242 360.34 362.363 360.34H374.641C379.221 360.346 383.612 362.169 386.85 365.407C390.089 368.646 391.911 373.036 391.917 377.616C391.917 386.616 383.023 395.772 373.895 396.562C370.534 395.453 367.017 394.89 363.478 394.893C361.357 394.893 359.322 395.736 357.821 397.236C356.321 398.736 355.478 400.771 355.478 402.893C355.478 405.015 356.321 407.05 357.821 408.55C359.322 410.05 361.357 410.893 363.478 410.893C365.501 410.891 367.509 411.246 369.408 411.941C369.619 412.034 369.833 412.118 370.053 412.192C373.217 413.499 375.922 415.714 377.826 418.558C379.731 421.402 380.749 424.746 380.753 428.169C380.753 436.989 371.505 445.969 362.089 446.605C359.246 445.833 356.313 445.443 353.366 445.445C351.245 445.445 349.21 446.288 347.709 447.788C346.209 449.288 345.366 451.323 345.366 453.445C345.366 455.567 346.209 457.602 347.709 459.102C349.21 460.602 351.245 461.445 353.366 461.445C355.042 461.444 356.708 461.687 358.313 462.167C358.502 462.235 358.695 462.297 358.891 462.351C362.775 463.66 366.066 466.307 368.178 469.818C370.29 473.33 371.086 477.478 370.422 481.522C369.758 485.566 367.678 489.242 364.554 491.894C361.43 494.546 357.465 496.001 353.367 496H223.192C221.417 496.04 219.651 495.726 217.998 495.077C216.345 494.427 214.837 493.456 213.563 492.218C196.573 476.433 181.722 469.247 153.468 463.368V335.915L154.887 334.534C194.153 296.401 203.772 291.45 205.814 290.849C207 290.605 208.115 290.096 209.076 289.359C228.412 274.548 241.506 253.038 245.782 229.059C245.832 228.778 245.867 228.495 245.888 228.211L248.188 195.566C249.488 193.172 251.398 191.165 253.726 189.75C256.053 188.334 258.714 187.561 261.437 187.508C264.16 187.455 266.849 188.125 269.23 189.449C271.61 190.773 273.597 192.704 274.988 195.046C281.669 211.562 284.667 229.336 283.775 247.13C282.882 264.924 278.119 282.309 269.819 298.073C269.179 299.292 268.864 300.656 268.905 302.033C268.947 303.41 269.343 304.752 270.055 305.931C270.767 307.11 271.772 308.084 272.972 308.761C274.171 309.438 275.525 309.793 276.902 309.793H390.168C394.728 309.828 399.088 311.663 402.3 314.899C405.512 318.136 407.314 322.51 407.314 327.07C407.314 331.629 405.512 336.003 402.3 339.24C399.088 342.476 394.728 344.311 390.168 344.346V344.34ZM110.349 338.46V339.425C110.349 341.547 109.506 343.582 108.006 345.082C106.506 346.582 104.471 347.425 102.349 347.425C100.228 347.425 98.1927 346.582 96.6924 345.082C95.1921 343.582 94.3493 341.547 94.3493 339.425V338.46C94.3493 336.338 95.1921 334.303 96.6924 332.803C98.1927 331.303 100.228 330.46 102.349 330.46C104.471 330.46 106.506 331.303 108.006 332.803C109.506 334.303 110.349 336.338 110.349 338.46ZM350.399 68.582C349.917 67.0971 349.011 65.7858 347.792 64.8097C346.573 63.8337 345.096 63.2355 343.541 63.089L286.202 57.689L263.342 4.82504C262.723 3.392 261.697 2.17158 260.392 1.31421C259.088 0.456839 257.561 0 255.999 0C254.438 0 252.911 0.456839 251.606 1.31421C250.301 2.17158 249.276 3.392 248.656 4.82504L225.799 57.688L168.461 63.088C166.907 63.2346 165.43 63.8327 164.211 64.8087C162.992 65.7847 162.086 67.0959 161.604 68.5807C161.121 70.0655 161.084 71.659 161.496 73.1648C161.908 74.6706 162.752 76.0229 163.923 77.055L207.136 115.127L194.554 171.327C194.213 172.851 194.326 174.441 194.877 175.901C195.429 177.362 196.396 178.629 197.659 179.546C198.922 180.464 200.426 180.992 201.985 181.065C203.545 181.139 205.092 180.754 206.435 179.959L255.999 150.628L305.561 179.961C306.905 180.756 308.452 181.141 310.011 181.067C311.571 180.994 313.075 180.466 314.338 179.548C315.601 178.631 316.568 177.364 317.119 175.903C317.671 174.443 317.783 172.853 317.442 171.329L304.861 115.129L348.074 77.057C349.247 76.0255 350.092 74.6734 350.505 73.1674C350.918 71.6614 350.881 70.0674 350.399 68.582ZM290.736 106.253C289.661 107.201 288.86 108.42 288.417 109.783C287.974 111.147 287.905 112.604 288.218 114.003L297.792 156.768L260.079 134.447C258.845 133.717 257.438 133.331 256.004 133.331C254.571 133.331 253.163 133.717 251.929 134.447L214.216 156.768L223.785 114C224.098 112.601 224.03 111.144 223.587 109.78C223.144 108.417 222.343 107.198 221.267 106.25L188.386 77.28L232.016 73.17C233.443 73.0355 234.808 72.5199 235.968 71.6772C237.128 70.8346 238.039 69.6958 238.608 68.38L255.999 28.159L273.39 68.383C273.959 69.6988 274.871 70.8376 276.031 71.6802C277.19 72.5229 278.555 73.0385 279.982 73.173L323.613 77.283L290.736 106.253ZM491.242 115.46C490.76 113.975 489.854 112.664 488.635 111.688C487.416 110.712 485.939 110.114 484.384 109.967L443.977 106.161L427.866 68.908C427.247 67.475 426.221 66.2546 424.917 65.3972C423.612 64.5398 422.085 64.083 420.523 64.083C418.962 64.083 417.435 64.5398 416.13 65.3972C414.825 66.2546 413.8 67.475 413.18 68.908L397.074 106.161L356.666 109.967C355.112 110.113 353.634 110.711 352.415 111.688C351.197 112.664 350.29 113.975 349.808 115.46C349.325 116.945 349.288 118.539 349.7 120.045C350.113 121.551 350.957 122.903 352.128 123.935L382.581 150.764L373.715 190.37C373.374 191.894 373.487 193.484 374.039 194.945C374.591 196.405 375.558 197.673 376.821 198.59C378.085 199.508 379.589 200.035 381.149 200.108C382.709 200.181 384.256 199.796 385.599 199L420.526 178.329L455.45 199C456.794 199.795 458.341 200.18 459.901 200.107C461.46 200.034 462.964 199.506 464.228 198.588C465.491 197.67 466.458 196.403 467.01 194.943C467.561 193.482 467.673 191.892 467.332 190.368L458.465 150.762L488.917 123.933C490.088 122.901 490.932 121.549 491.344 120.043C491.757 118.538 491.719 116.945 491.237 115.46H491.242ZM444.342 141.889C443.267 142.837 442.466 144.056 442.023 145.419C441.58 146.783 441.511 148.24 441.824 149.639L447.683 175.809L424.599 162.15C423.365 161.42 421.958 161.034 420.524 161.034C419.091 161.034 417.683 161.42 416.449 162.15L393.372 175.809L399.23 149.639C399.543 148.24 399.475 146.783 399.032 145.419C398.589 144.056 397.788 142.837 396.712 141.889L376.589 124.162L403.289 121.646C404.717 121.512 406.082 120.996 407.241 120.153C408.401 119.311 409.313 118.172 409.882 116.856L420.524 92.241L431.166 116.856C431.735 118.172 432.647 119.311 433.807 120.153C434.967 120.996 436.332 121.512 437.759 121.646L464.459 124.162L444.342 141.889ZM155.342 109.967L114.935 106.161L98.8183 68.908C98.1987 67.475 97.1733 66.2546 95.8685 65.3972C94.5637 64.5398 93.0366 64.083 91.4753 64.083C89.914 64.083 88.3869 64.5398 87.0821 65.3972C85.7773 66.2546 84.7519 67.475 84.1323 68.908L68.0263 106.161L27.6193 109.967C26.0648 110.113 24.587 110.711 23.3683 111.688C22.1495 112.664 21.2431 113.975 20.7606 115.46C20.2782 116.945 20.2408 118.539 20.6532 120.045C21.0655 121.551 21.9096 122.903 23.0813 123.935L53.5333 150.764L44.6663 190.37C44.3257 191.894 44.4383 193.483 44.9902 194.944C45.542 196.404 46.5091 197.671 47.7723 198.588C49.0354 199.506 50.5393 200.034 52.0987 200.107C53.6581 200.18 55.2048 199.795 56.5483 199L91.4753 178.329L126.399 199C127.743 199.795 129.29 200.18 130.849 200.106C132.409 200.033 133.913 199.505 135.176 198.587C136.439 197.67 137.406 196.403 137.957 194.942C138.509 193.482 138.621 191.892 138.28 190.368L129.413 150.762L159.866 123.933C161.038 122.901 161.882 121.549 162.294 120.043C162.707 118.537 162.669 116.943 162.187 115.458C161.705 113.973 160.798 112.662 159.579 111.686C158.361 110.709 156.883 110.111 155.328 109.965L155.342 109.967ZM115.298 141.889C114.223 142.837 113.422 144.056 112.979 145.419C112.536 146.783 112.467 148.24 112.78 149.639L118.638 175.808L95.5503 162.15C94.3165 161.42 92.909 161.034 91.4753 161.034C90.0415 161.034 88.6341 161.42 87.4003 162.15L64.3223 175.809L70.1813 149.639C70.4944 148.24 70.426 146.783 69.983 145.419C69.54 144.056 68.7389 142.837 67.6633 141.889L47.5413 124.162L74.2413 121.646C75.6686 121.512 77.0336 120.996 78.1934 120.153C79.3533 119.311 80.2654 118.172 80.8343 116.856L91.4753 92.242L102.117 116.856C102.686 118.172 103.598 119.311 104.758 120.153C105.917 120.996 107.282 121.511 108.709 121.646L135.409 124.162L115.298 141.889Z" fill="#D68029"/>
</g>
<defs>
<clipPath id="clip0_3411_2311">
<rect width="512" height="512" fill="white"/>
</clipPath>
</defs>
</svg>
