<svg width="512" height="512" viewBox="0 0 512 512" fill="none" xmlns="http://www.w3.org/2000/svg">
<path d="M255.999 165.123C261.532 165.123 266.019 160.637 266.019 155.103C266.019 149.569 261.532 145.083 255.999 145.083C250.465 145.083 245.979 149.569 245.979 155.103C245.979 160.637 250.465 165.123 255.999 165.123Z" fill="#D68029"/>
<path d="M466.207 180.422C462.148 176.66 455.808 176.899 452.048 180.959L391.655 246.119H339.066V178.07L387.931 116.988C391.676 118.474 395.668 119.237 399.696 119.235C417.365 119.235 431.74 104.86 431.74 87.1924C431.74 69.5234 417.365 55.1484 399.696 55.1484C382.028 55.1484 367.653 69.5234 367.653 87.1924C367.648 93.1946 369.339 99.0761 372.532 104.158L321.223 168.295C319.802 170.072 319.027 172.279 319.027 174.554V246.118H266.019V200.056C266.019 194.523 261.533 190.036 255.999 190.036C250.465 190.036 245.979 194.522 245.979 200.056V246.118H192.237V98.9404C192.237 93.4074 187.751 88.9204 182.217 88.9204H123.963V76.9164C123.963 71.3834 119.477 66.8964 113.943 66.8964H69.8952C64.3622 66.8964 59.8752 71.3824 59.8752 76.9164V120.964C59.8752 126.497 64.3612 130.984 69.8952 130.984H113.944C119.477 130.984 123.964 126.498 123.964 120.964V108.96H172.199V246.119H120.344L59.9512 180.959C56.1892 176.9 49.8502 176.661 45.7922 180.422C41.7342 184.183 41.4932 190.523 45.2552 194.581L105.951 260.068V501.98C105.951 507.513 110.437 512 115.971 512H396.029C401.562 512 406.049 507.514 406.049 501.98V260.068L466.745 194.581C470.507 190.523 470.266 184.183 466.207 180.422ZM399.696 75.1884C406.315 75.1884 411.701 80.5744 411.701 87.1934C411.701 93.8124 406.315 99.1974 399.696 99.1974C393.077 99.1974 387.692 93.8124 387.692 87.1934C387.692 80.5734 393.076 75.1884 399.696 75.1884ZM103.925 110.944H79.9152V86.9354H103.925V110.944ZM386.01 491.961H125.988V266.159H386.01V491.961Z" fill="#D68029"/>
<path d="M245.979 62.474V110.048C245.979 115.581 250.465 120.068 255.999 120.068C261.533 120.068 266.019 115.582 266.019 110.048V62.474C278.794 58.257 288.043 46.213 288.043 32.044C288.043 14.375 273.668 0 255.999 0C238.33 0 223.955 14.375 223.955 32.044C223.955 46.214 233.204 58.257 245.979 62.474ZM255.999 20.039C262.618 20.039 268.004 25.425 268.004 32.044C268.004 38.663 262.618 44.048 255.999 44.048C249.38 44.048 243.994 38.663 243.994 32.044C243.994 25.425 249.38 20.039 255.999 20.039ZM306.888 419.233C307.827 420.397 309.015 421.336 310.364 421.98C311.714 422.624 313.191 422.958 314.686 422.955C316.977 422.957 319.199 422.171 320.978 420.728L362.896 386.853C364.059 385.914 364.997 384.727 365.641 383.378C366.285 382.03 366.619 380.554 366.619 379.06C366.619 377.566 366.285 376.09 365.641 374.742C364.997 373.393 364.059 372.206 362.896 371.267L320.978 337.391C316.679 333.913 310.366 334.582 306.888 338.886C303.41 343.189 304.079 349.499 308.383 352.976L340.657 379.059L308.383 405.141C304.079 408.621 303.41 414.93 306.888 419.233ZM149.102 386.854L191.02 420.729C192.8 422.172 195.022 422.958 197.312 422.956C198.808 422.958 200.285 422.625 201.634 421.981C202.984 421.337 204.172 420.398 205.11 419.234C208.588 414.931 207.919 408.621 203.615 405.144L171.341 379.062L203.615 352.979C207.919 349.502 208.589 343.192 205.11 338.889C201.633 334.585 195.322 333.915 191.02 337.394L149.102 371.27C147.94 372.209 147.003 373.396 146.359 374.744C145.715 376.093 145.381 377.568 145.381 379.062C145.381 380.556 145.715 382.031 146.359 383.38C147.003 384.728 147.94 385.915 149.102 386.854ZM232.472 415.455C233.602 416.13 234.854 416.575 236.156 416.766C237.458 416.956 238.784 416.888 240.06 416.566C241.336 416.244 242.536 415.673 243.591 414.887C244.646 414.101 245.536 413.114 246.209 411.984L282.998 350.319C285.833 345.568 284.279 339.417 279.526 336.581C274.774 333.745 268.624 335.3 265.788 340.053L228.999 401.718C226.165 406.469 227.719 412.62 232.472 415.455Z" fill="#D68029"/>
</svg>
