<svg width="512" height="512" viewBox="0 0 512 512" fill="none" xmlns="http://www.w3.org/2000/svg">
<g clip-path="url(#clip0_3353_1700)">
<path d="M436.789 121.39H361.739C361.219 120.62 360.629 119.89 359.949 119.22L344.369 103.64C339.929 99.14 333.149 98.0601 327.519 100.94L312.829 108.41C304.479 103.63 295.589 99.94 286.409 97.41V75.47H308.719C313.329 75.47 317.459 72.71 319.259 68.34C320.949 64.1 319.969 59.28 316.749 56.07L264.029 3.34005C262.978 2.27799 261.725 1.43574 260.345 0.862333C258.964 0.288924 257.484 -0.00419322 255.989 4.53186e-05H255.929C252.889 0.0200453 250.039 1.22005 247.969 3.34005L195.219 56.07C193.633 57.6478 192.552 59.6617 192.114 61.8556C191.676 64.0495 191.901 66.3242 192.759 68.39C194.489 72.69 198.609 75.47 203.279 75.47H225.559V97.41C216.327 99.9573 207.451 103.653 199.139 108.41L184.489 100.95C181.76 99.5475 178.656 99.0493 175.625 99.5275C172.594 100.006 169.794 101.435 167.629 103.61L152.009 119.23C151.339 119.9 150.749 120.63 150.239 121.4H75.1792C55.7492 121.4 39.9492 137.21 39.9492 156.63V418.3C39.9492 437.74 55.7592 453.56 75.1792 453.56H209.389L194.189 496.02H164.869C160.449 496.02 156.879 499.6 156.879 504.01C156.879 508.42 160.459 512 164.869 512H347.099C351.519 512 355.089 508.42 355.089 504.01C355.089 499.6 351.509 496.02 347.099 496.02H317.779L302.579 453.56H436.789C456.229 453.56 472.049 437.74 472.049 418.3V156.62C472.059 137.19 456.239 121.39 436.789 121.39ZM145.669 177.64L129.989 182.73C124.009 184.7 119.989 190.25 119.989 196.53V218.61C119.989 224.94 124.039 230.48 130.019 232.39L145.659 237.47C148.209 246.89 151.959 255.94 156.829 264.43L149.349 279.06C146.499 284.64 147.549 291.4 152.009 295.92L167.669 311.58C169.84 313.732 172.635 315.144 175.655 315.614C178.675 316.085 181.767 315.59 184.489 314.2L199.109 306.73C207.629 311.61 216.719 315.37 226.079 317.89L231.149 333.52C232.084 336.441 233.925 338.988 236.404 340.793C238.883 342.598 241.873 343.567 244.939 343.56H267.019C273.329 343.56 278.869 339.52 280.799 333.54L285.909 317.89C295.279 315.35 304.319 311.61 312.859 306.73L327.509 314.2C333.119 317.07 339.879 316 344.339 311.54L359.959 295.92C362.131 293.756 363.56 290.958 364.038 287.929C364.516 284.9 364.019 281.798 362.619 279.07L355.149 264.4C360.019 255.91 363.779 246.84 366.299 237.47L381.909 232.39C384.836 231.461 387.39 229.623 389.201 227.143C391.012 224.663 391.985 221.671 391.979 218.6V196.52C391.979 190.24 387.959 184.69 381.949 182.71L366.299 177.62C365.739 175.55 365.109 173.5 364.429 171.46H419.559V403.42H92.4092V171.47H147.539C146.859 173.52 146.229 175.57 145.669 177.64ZM286.419 171.44C296.899 180.29 303.229 193.44 303.229 207.56C303.229 222.03 296.689 234.99 286.419 243.67V171.44ZM214.409 59.48L255.999 17.92L297.559 59.48H281.789C275.519 59.48 270.419 64.57 270.419 70.82V252.55C265.869 254.01 261.019 254.81 255.989 254.81C250.949 254.81 246.089 254.01 241.529 252.54V70.82C241.529 64.57 236.429 59.48 230.159 59.48H214.409ZM208.749 207.56C208.749 193.44 215.079 180.29 225.559 171.44V243.66C215.289 234.98 208.749 222.02 208.749 207.56ZM178.169 115.67L192.559 123C197.019 125.29 202.249 125.14 206.469 122.63C212.509 119.118 218.905 116.259 225.549 114.1V152.14C205.469 163.19 192.749 184.4 192.749 207.56C192.749 232.98 207.829 254.93 229.509 264.97C229.999 265.25 230.509 265.49 231.059 265.67C238.719 268.97 247.139 270.8 255.999 270.8C264.879 270.8 273.319 268.95 280.999 265.63C281.489 265.46 281.959 265.25 282.409 264.99C304.109 254.96 319.219 233 319.219 207.55C319.219 184.39 306.499 163.18 286.419 152.13V114.09C293.039 116.24 299.429 119.09 305.439 122.59C309.729 125.14 314.949 125.29 319.379 123.01L333.809 115.68L347.889 129.75L340.569 144.15C338.279 148.61 338.429 153.84 340.939 158.06C345.404 165.726 348.811 173.961 351.069 182.54C352.389 187.45 355.909 191.13 360.619 192.6L375.989 197.6V217.53L360.619 222.53C355.869 224.07 352.389 227.73 351.049 232.64C348.799 241.197 345.398 249.408 340.939 257.05C338.379 261.42 338.239 266.5 340.539 270.98L347.879 285.4L333.799 299.48L319.319 292.09C314.799 289.83 309.739 290 305.489 292.53C297.821 296.99 289.587 300.398 281.009 302.66C276.179 303.96 272.419 307.54 270.949 312.18L265.919 327.59H246.019L241.009 312.17C239.459 307.45 235.799 303.99 230.909 302.66C222.362 300.407 214.155 297.017 206.509 292.58C202.199 290.02 197.129 289.85 192.549 292.14L178.139 299.5L164.049 285.41L171.439 270.94C173.689 266.45 173.519 261.39 170.999 257.07C166.526 249.401 163.118 241.159 160.869 232.57C159.549 227.75 156.089 224.1 151.349 222.54L135.959 217.54V197.6L151.289 192.62C155.999 191.13 159.579 187.37 160.889 182.5C163.143 173.962 166.533 165.765 170.969 158.13C173.529 153.82 173.709 148.75 171.419 144.18L164.059 129.76L178.169 115.67ZM300.799 496.01H211.169L226.369 453.55H285.609L300.799 496.01ZM456.069 418.29C456.069 428.92 447.419 437.57 436.789 437.57H75.1792C64.5692 437.57 55.9292 428.92 55.9292 418.29V156.62C55.9292 146.01 64.5592 137.37 75.1792 137.37H150.029L156.829 150.69C155.929 152.27 155.079 153.87 154.249 155.48H84.4192C79.9992 155.48 76.4292 159.06 76.4292 163.47V411.42C76.4292 415.83 80.0092 419.41 84.4192 419.41H427.549C431.969 419.41 435.539 415.83 435.539 411.42V163.48C435.539 159.06 431.959 155.49 427.549 155.49H357.709C356.889 153.89 356.049 152.3 355.149 150.73L361.939 137.38H436.789C447.419 137.38 456.069 146.01 456.069 156.63V418.29Z" fill="#D68029"/>
</g>
<defs>
<clipPath id="clip0_3353_1700">
<rect width="512" height="512" fill="white"/>
</clipPath>
</defs>
</svg>
