<svg width="75" height="75" viewBox="0 0 75 75" fill="none" xmlns="http://www.w3.org/2000/svg">
<path d="M30.417 8.5456H36.0233C36.3158 8.5456 36.5963 8.4294 36.8032 8.22256C37.01 8.01572 37.1262 7.73518 37.1262 7.44266C37.1262 7.15014 37.01 6.86961 36.8032 6.66277C36.5963 6.45592 36.3158 6.33972 36.0233 6.33972H30.417C30.1245 6.33972 29.844 6.45592 29.6371 6.66277C29.4303 6.86961 29.3141 7.15014 29.3141 7.44266C29.3141 7.73518 29.4303 8.01572 29.6371 8.22256C29.844 8.4294 30.1245 8.5456 30.417 8.5456ZM25.4174 67.9235H35.4167C35.7092 67.9235 35.9897 67.8073 36.1966 67.6005C36.4034 67.3937 36.5196 67.1131 36.5196 66.8206C36.5196 66.5281 36.4034 66.2476 36.1966 66.0407C35.9897 65.8339 35.7092 65.7177 35.4167 65.7177H25.4174C25.1249 65.7177 24.8443 65.8339 24.6375 66.0407C24.4307 66.2476 24.3145 66.5281 24.3145 66.8206C24.3145 67.1131 24.4307 67.3937 24.6375 67.6005C24.8443 67.8073 25.1249 67.9235 25.4174 67.9235Z" fill="black"/>
<path d="M11.2006 56.9493C11.4931 56.9493 11.7737 56.833 11.9805 56.6262C12.1873 56.4194 12.3035 56.1388 12.3035 55.8463V12.6838H48.5296V18.3573C48.5296 18.6499 48.6458 18.9304 48.8527 19.1372C49.0595 19.3441 49.3401 19.4603 49.6326 19.4603C49.9251 19.4603 50.2056 19.3441 50.4125 19.1372C50.6193 18.9304 50.7355 18.6499 50.7355 18.3573L50.7399 6.59558C50.7399 4.18014 48.7657 2.20587 46.3425 2.20587H14.4874C12.1822 2.20587 10.0977 4.10293 10.0977 6.59889V55.8463C10.0977 56.1388 10.2139 56.4194 10.4207 56.6262C10.6275 56.833 10.9081 56.9493 11.2006 56.9493ZM46.3403 4.41175C47.5061 4.41175 48.5308 5.3658 48.5308 6.59889V10.4779H12.3035V6.59558C12.3035 5.39337 13.2896 4.41175 14.4907 4.41175H46.3403Z" fill="black"/>
<path d="M37.2235 29.9956C37.4314 30.2013 37.7124 30.3161 38.0049 30.3147C38.2973 30.3132 38.5773 30.1957 38.7831 29.9879L43.3934 25.3357C43.5978 25.1292 43.7124 24.8503 43.7124 24.5597C43.7124 24.2692 43.5978 23.9903 43.3934 23.7838L38.7831 19.1316C38.5751 18.9345 38.2986 18.8261 38.0121 18.8293C37.7256 18.8325 37.4516 18.947 37.2481 19.1487C37.0445 19.3503 36.9275 19.6233 36.9217 19.9098C36.9158 20.1962 37.0217 20.4737 37.2169 20.6835L41.0562 24.5603L37.2158 28.436C37.01 28.6439 36.8953 28.9249 36.8967 29.2174C36.8982 29.5099 37.0157 29.7898 37.2235 29.9956ZM23.6099 19.1239C23.5071 19.0218 23.3852 18.9409 23.2511 18.886C23.117 18.8311 22.9734 18.8032 22.8285 18.8039C22.6836 18.8046 22.5403 18.8339 22.4068 18.8902C22.2732 18.9464 22.1521 19.0285 22.0503 19.1316L17.4412 23.7838C17.2367 23.9903 17.1221 24.2692 17.1221 24.5597C17.1221 24.8503 17.2367 25.1292 17.4412 25.3357L22.0515 29.9879C22.1521 30.096 22.2735 30.1829 22.4083 30.2433C22.5432 30.3036 22.6888 30.3363 22.8365 30.3393C22.9843 30.3423 23.1311 30.3156 23.2683 30.2607C23.4055 30.2059 23.5303 30.124 23.6352 30.02C23.7402 29.916 23.8232 29.792 23.8793 29.6553C23.9354 29.5186 23.9635 29.3721 23.9618 29.2243C23.9602 29.0766 23.9289 28.9306 23.8697 28.7952C23.8106 28.6598 23.7249 28.5377 23.6176 28.436L19.7783 24.5603L23.6176 20.6835C23.8234 20.4756 23.9381 20.1945 23.9367 19.9021C23.9353 19.6096 23.8177 19.3297 23.6099 19.1239ZM32.1952 16.007L25.7209 32.2974C25.6674 32.4321 25.6409 32.5759 25.643 32.7208C25.6451 32.8656 25.6757 33.0087 25.733 33.1417C25.7904 33.2747 25.8734 33.3952 25.9773 33.4962C26.0812 33.5971 26.204 33.6766 26.3386 33.7301C26.4732 33.7837 26.6171 33.8101 26.7619 33.8081C26.9068 33.806 27.0498 33.7754 27.1829 33.718C27.3159 33.6607 27.4363 33.5777 27.5373 33.4738C27.6383 33.3699 27.7178 33.2471 27.7713 33.1125L34.2456 16.8221C34.3537 16.55 34.3492 16.2462 34.2333 15.9774C34.1174 15.7086 33.8994 15.4969 33.6274 15.3888C33.3553 15.2807 33.0515 15.2851 32.7827 15.401C32.5139 15.517 32.3022 15.7349 32.1941 16.007H32.1952ZM49.6382 36.4412C46.4066 36.4412 43.7816 39.0662 43.7816 42.2978C43.7816 45.5603 46.4419 48.1544 49.6382 48.1544C52.8213 48.1544 55.4838 45.5647 55.4838 42.2978C55.4838 39.0662 52.8588 36.4412 49.6382 36.4412ZM50.7412 45.7721V41.5699C50.7412 40.9632 50.2448 40.4669 49.6382 40.4669C49.0206 40.4669 48.5353 40.9632 48.5353 41.5699V45.7831C47.7062 45.5175 46.9992 44.9647 46.5414 44.2243C46.0836 43.4838 45.9051 42.6042 46.0381 41.7439C46.1711 40.8835 46.6068 40.0989 47.2667 39.5312C47.9267 38.9635 48.7677 38.65 49.6382 38.6471C51.6456 38.6471 53.2779 40.2904 53.2779 42.2978C53.2779 43.9301 52.2081 45.3088 50.7412 45.7721Z" fill="black"/>
<path d="M63.9212 38.8125L61.208 38.5037C60.9984 37.864 60.7337 37.2353 60.4138 36.6287L62.0021 34.3787C62.3219 33.9485 62.2668 33.3419 61.8918 32.9669L58.7263 29.8125C58.5359 29.6192 58.2807 29.5033 58.0098 29.487C57.739 29.4707 57.4717 29.5552 57.2594 29.7243L55.1307 31.4338C54.5241 31.125 53.8955 30.8713 53.2447 30.6728L52.7925 27.9485C52.7482 27.6915 52.6141 27.4584 52.4142 27.2908C52.2143 27.1232 51.9615 27.0319 51.7006 27.0331H47.2337C46.6712 27.0331 46.1969 27.4522 46.1307 28.0147L45.833 30.739C45.1822 30.9485 44.5646 31.2132 43.969 31.5221L41.708 29.9228C41.4968 29.7714 41.2385 29.7004 40.9797 29.7227C40.7208 29.7449 40.4784 29.8589 40.2962 30.0441L37.1418 33.1985C36.7447 33.5956 36.7116 34.2243 37.0646 34.6654L38.7631 36.8052C38.4543 37.4118 38.2006 38.0404 38.0021 38.6912L35.2888 39.1434C34.7594 39.2427 34.3624 39.6949 34.3624 40.2353V44.7022C34.3624 45.2647 34.7925 45.7279 35.344 45.7941L38.0572 46.1029C38.2668 46.7537 38.5425 47.3824 38.8513 47.9779L37.2631 50.2169C36.9543 50.6581 36.9984 51.2537 37.3844 51.6397L40.5388 54.7941C40.9359 55.1912 41.5646 55.2243 42.0057 54.8713L44.1455 53.1728C44.7521 53.4706 45.3697 53.7243 46.0205 53.9228L46.4727 56.6471C46.5147 56.9062 46.6477 57.1418 46.8478 57.3116C47.048 57.4814 47.3021 57.5743 47.5646 57.5735H48.5352V60.011H11.2006C10.594 60.011 10.0977 60.5074 10.0977 61.114V68.4044C10.1006 69.5677 10.564 70.6826 11.3866 71.5052C12.2092 72.3278 13.324 72.7912 14.4874 72.7941H46.3403C48.7668 72.7941 50.741 70.8199 50.741 68.4044V57.5735H52.0315C52.594 57.5735 53.0682 57.1544 53.1344 56.5919L53.4433 53.8676C54.0846 53.6571 54.7079 53.3952 55.3072 53.0846L57.5572 54.6838C57.9984 54.9927 58.594 54.9375 58.98 54.5625L62.1234 51.3971C62.5205 51 62.5535 50.3713 62.2006 49.9412L60.5021 47.8015C60.8109 47.1838 61.0646 46.5552 61.2631 45.9154L63.9763 45.4522C64.5058 45.364 64.9028 44.9007 64.9028 44.3713V39.9044C64.9028 39.3419 64.4837 38.8676 63.9212 38.8125ZM48.5352 68.4044C48.5352 69.6066 47.5535 70.5882 46.3403 70.5882H14.4874C13.2852 70.5882 12.3035 69.6066 12.3035 68.4044V62.2169H48.5352V68.4044ZM62.6969 43.4338L60.2043 43.8529C59.7631 43.9301 59.4212 44.25 59.3109 44.6912C59.0903 45.6177 58.7263 46.511 58.241 47.3603C58.0094 47.7463 58.0425 48.2427 58.3293 48.5956L59.8624 50.5368L58.0756 52.3456L56.0021 50.8676C55.8252 50.7441 55.6161 50.6751 55.4004 50.6692C55.1848 50.6633 54.9721 50.7208 54.7888 50.8346C53.9837 51.3309 53.1013 51.7059 52.1638 51.9375C51.7116 52.0478 51.3807 52.4338 51.3256 52.886L51.0499 55.3677H48.491L48.0719 52.864C48.0374 52.6513 47.9403 52.4538 47.793 52.2966C47.6456 52.1394 47.4547 52.0297 47.2447 51.9816C46.3182 51.75 45.4249 51.386 44.5977 50.9007C44.4056 50.7869 44.1834 50.7344 43.9607 50.7502C43.738 50.7659 43.5254 50.8492 43.3513 50.989L41.3991 52.5331L39.6013 50.7353L41.0572 48.6949C41.2921 48.3629 41.333 47.8721 41.1013 47.4596C40.605 46.6544 40.219 45.761 39.9763 44.8125C39.9231 44.5965 39.8044 44.4022 39.6366 44.2562C39.4689 44.1101 39.2601 44.0194 39.0388 43.9963L36.5682 43.7096V41.1728L39.0609 40.7537C39.5021 40.6765 39.855 40.3456 39.9543 39.9154C40.1749 38.9779 40.5388 38.0846 41.0352 37.2684C41.2668 36.8713 41.2447 36.375 40.958 36.011L39.4028 34.0588L41.2006 32.261L43.2631 33.7279C43.4388 33.8532 43.6475 33.9241 43.8631 33.932C44.0788 33.9398 44.292 33.8842 44.4763 33.7721C45.2815 33.2757 46.1749 32.9007 47.1234 32.6581C47.5646 32.5478 47.8844 32.1728 47.9396 31.7206L48.2153 29.239H50.7741L51.1932 31.7316C51.2705 32.1728 51.5903 32.5257 52.0205 32.625C52.958 32.8456 53.8513 33.2096 54.6785 33.7059C55.0756 33.9375 55.5719 33.9044 55.9249 33.6177L57.866 32.0625L59.6638 33.8713L58.208 35.9228C57.9763 36.2504 57.9289 36.729 58.1638 37.1471C58.6712 37.9743 59.0462 38.8677 59.2778 39.7831C59.3881 40.2243 59.7631 40.5552 60.2263 40.6103L62.6969 40.886V43.4338Z" fill="black"/>
</svg>
