<svg xmlns="http://www.w3.org/2000/svg" width="326" height="301" viewBox="0 0 326 301" fill="none"><path d="M314.4 131.958C313.734 127.835 312.942 123.786 312.076 119.843C305.016 87.7485 288.706 53.6959 256.738 40.7356C219.961 25.8305 167.76 29.9597 134.86 59.0706C109.552 81.4482 58.2699 94.9546 29.6319 128.881C-0.0517298 164.052 -6.25219 229.966 32.2959 256.573C59.7151 275.494 93.6145 260.569 124.151 254.315C141.54 250.759 156.591 252.77 173.734 254.315C203.524 256.979 234.38 258.977 264.424 252.317C279.262 248.987 292.455 242.953 300.82 229.194C318.39 200.256 319.602 163.826 314.4 131.958Z" fill="#D68029"></path><path opacity="0.7" d="M314.4 131.958C313.734 127.835 312.942 123.786 312.076 119.843C305.016 87.7485 288.706 53.6959 256.738 40.7356C219.961 25.8305 167.76 29.9597 134.86 59.0706C109.552 81.4482 58.2699 94.9546 29.6319 128.881C-0.0517298 164.052 -6.25219 229.966 32.2959 256.573C59.7151 275.494 93.6145 260.569 124.151 254.315C141.54 250.759 156.591 252.77 173.734 254.315C203.524 256.979 234.38 258.977 264.424 252.317C279.262 248.987 292.455 242.953 300.82 229.194C318.39 200.256 319.602 163.826 314.4 131.958Z" fill="white"></path><path d="M136.659 6.65039C136.144 7.96287 135.89 9.36328 135.913 10.7729C135.913 13.2105 130.065 10.7729 127.874 13.9364C125.683 17.0999 128.12 19.0513 125.21 20.0237C122.3 20.996 122.046 18.5651 118.397 18.8049C114.747 19.0447 115.227 22.4612 114.015 23.4336C112.802 24.406 112.796 23.9198 110.118 24.1662C107.441 24.4126 106.948 26.3573 106.948 26.3573H170.984C170.984 26.3573 172.849 20.7629 170.378 17.5728" stroke="#B2B2B2" stroke-linecap="round" stroke-linejoin="round"></path><path d="M167.208 15.495C164.544 14.7157 164.091 17.0867 161.214 15.8613C158.337 14.6358 157.884 12.3648 157.078 9.93385C156.991 9.66079 156.898 9.38107 156.798 9.10135C153.914 1.10935 142.846 -1.10843 138.09 4.27285" stroke="#B2B2B2" stroke-linecap="round" stroke-linejoin="round"></path><path d="M159.316 23.667C159.316 23.667 160.648 19.5645 157.384 16.5475C154.121 13.5305 150.724 15.2155 149.785 16.5475C148.846 17.8795 148.826 20.4103 147.254 20.65C145.683 20.8898 146.049 17.986 142.672 18.7186C139.296 19.4512 140.621 22.8212 139.056 23.5471C137.491 24.2731 137.491 21.6157 135.32 22.4616C133.148 23.3074 133.268 24.8725 133.268 24.8725" stroke="#B2B2B2" stroke-linecap="round" stroke-linejoin="round"></path><path d="M141.993 15.4751C141.106 14.8419 140.065 14.4579 138.98 14.363C137.894 14.2681 136.803 14.4659 135.819 14.9356C132.329 16.5473 133.941 19.904 132.329 20.7098C130.718 21.5157 129.912 20.5766 127.9 21.5157C125.889 22.4548 126.022 23.7934 126.022 23.7934" stroke="#B2B2B2" stroke-linecap="round" stroke-linejoin="round"></path><path d="M281.187 86.2709H306.555C306.555 86.2709 308.993 78.9449 304.61 76.2809C300.228 73.6169 300.228 77.2532 296.818 75.7947C294.001 74.5892 293.488 72.2982 292.689 69.8673C292.596 69.5942 292.502 69.3145 292.402 69.0348C292.134 68.2782 291.781 67.5543 291.35 66.877" stroke="#B2B2B2" stroke-linecap="round" stroke-linejoin="round"></path><path d="M288.373 63.7136C282.02 59.0516 271.497 60.8032 271.497 70.6866C271.497 73.1242 265.656 70.6866 263.465 73.8501C261.274 77.0136 263.705 78.965 260.801 79.9374C257.897 80.9097 257.637 78.4788 253.981 78.7186C250.325 78.9584 250.817 82.3749 249.599 83.3473C248.38 84.3197 248.38 83.8335 245.703 84.0799C243.025 84.3263 242.539 86.271 242.539 86.271H276.718" stroke="#B2B2B2" stroke-linecap="round" stroke-linejoin="round"></path><path d="M294.9 83.6065C294.9 83.6065 296.232 79.5039 292.975 76.4869C289.718 73.47 286.315 75.1549 285.376 76.4869C284.437 77.8189 284.41 80.3497 282.845 80.5895C281.28 80.8293 281.64 77.9255 278.263 78.6581C274.887 79.3907 276.212 82.7607 274.647 83.4866C273.082 84.2125 273.075 81.5552 270.904 82.401C268.733 83.2468 268.859 84.8119 268.859 84.8119" stroke="#B2B2B2" stroke-linecap="round" stroke-linejoin="round"></path><path d="M277.584 75.4145C276.697 74.7813 275.656 74.3973 274.571 74.3025C273.485 74.2076 272.394 74.4053 271.41 74.8751C267.914 76.4868 269.525 79.8434 267.914 80.6493C266.302 81.4552 265.503 80.5161 263.485 81.4552C261.467 82.3942 261.607 83.7329 261.607 83.7329" stroke="#B2B2B2" stroke-linecap="round" stroke-linejoin="round"></path><path d="M260.308 96.4074C256.978 92.478 249.439 92.9575 249.439 99.3045C249.439 100.703 246.109 99.3045 244.83 101.123C243.551 102.941 244.97 104.053 243.292 104.613C241.613 105.172 241.473 103.773 239.376 103.913C237.278 104.053 237.564 106.011 236.865 106.577C236.165 107.143 236.165 106.857 234.627 106.997C234.231 106.991 233.844 107.109 233.519 107.335C233.194 107.561 232.948 107.883 232.815 108.256H269.559C269.559 108.256 270.957 104.06 268.44 102.528C265.922 100.996 265.922 103.081 263.971 102.248C262.353 101.582 262.053 100.25 261.6 98.8449" stroke="#B2B2B2" stroke-linecap="round" stroke-linejoin="round"></path><path d="M262.866 106.717C263.07 106 263.075 105.241 262.881 104.522C262.686 103.802 262.298 103.15 261.76 102.634C259.895 100.903 257.957 101.875 257.404 102.634C256.852 103.394 256.852 104.852 255.953 104.985C255.053 105.118 255.286 103.467 253.322 103.88C251.357 104.293 252.143 106.231 251.244 106.65C250.345 107.07 250.345 105.538 249.099 106.024C247.854 106.51 247.921 107.41 247.921 107.41" stroke="#B2B2B2" stroke-linecap="round" stroke-linejoin="round"></path><path d="M252.928 102.015C252.419 101.653 251.822 101.433 251.199 101.379C250.576 101.325 249.949 101.439 249.385 101.709C247.387 102.635 248.306 104.56 247.387 105.039C246.468 105.519 246.002 104.966 244.85 105.505C243.698 106.045 243.771 106.837 243.771 106.837" stroke="#B2B2B2" stroke-linecap="round" stroke-linejoin="round"></path><path d="M32.8556 71.6117C32.2672 71.285 31.5947 71.1412 30.9242 71.1987C28.8263 71.3386 29.106 73.2966 28.4067 73.8627C27.7074 74.4288 27.7407 74.1425 26.1756 74.2823C25.7792 74.2769 25.3911 74.3952 25.0651 74.6208C24.7392 74.8465 24.4918 75.1682 24.3574 75.5411H61.1006C61.1006 75.5411 62.0064 72.8238 61.0474 70.959" stroke="#B2B2B2" stroke-linecap="round" stroke-linejoin="round"></path><path d="M59.9815 69.8002C57.4707 68.2684 57.4707 70.3597 55.5127 69.5205C53.8943 68.8545 53.5946 67.5225 53.1417 66.1239L52.9819 65.6444C50.8573 59.7436 40.9939 59.3374 40.9939 66.5901C40.9939 67.9887 37.6639 66.5901 36.3851 68.4083C35.1064 70.2265 36.525 71.3387 34.8467 71.8981" stroke="#B2B2B2" stroke-linecap="round" stroke-linejoin="round"></path><path d="M54.4141 74.003C54.6172 73.2862 54.6217 72.5277 54.4269 71.8086C54.2322 71.0894 53.8456 70.4368 53.3086 69.9204C51.4371 68.1888 49.499 69.1612 48.9463 69.9204C48.3935 70.6797 48.3935 72.1316 47.4944 72.2714C46.5953 72.4113 46.8284 70.7529 44.8637 71.1659C42.899 71.5788 43.6849 73.5168 42.7858 73.9164C41.8867 74.316 41.8867 72.8042 40.6412 73.2904C39.3958 73.7766 39.4691 74.6757 39.4691 74.6757" stroke="#B2B2B2" stroke-linecap="round" stroke-linejoin="round"></path><path d="M44.4774 69.3014C43.9666 68.9388 43.3683 68.7192 42.7442 68.6654C42.1201 68.6115 41.493 68.7253 40.9276 68.9951C38.9296 69.9208 39.8487 71.8455 38.9296 72.3251C38.0106 72.8046 37.5377 72.2518 36.3855 72.7913C35.2333 73.3307 35.3066 74.1233 35.3066 74.1233" stroke="#B2B2B2" stroke-linecap="round" stroke-linejoin="round"></path><path d="M210.857 106.443V269.054C210.857 273.378 209.14 277.525 206.082 280.582C203.025 283.64 198.878 285.358 194.554 285.358H117.218C115.075 285.36 112.953 284.94 110.972 284.122C108.992 283.304 107.192 282.104 105.676 280.589C104.16 279.075 102.958 277.277 102.137 275.298C101.316 273.318 100.894 271.197 100.894 269.054V106.443C100.894 106.19 100.894 105.944 100.894 105.697C101.084 101.507 102.883 97.5511 105.916 94.6533C108.949 91.7554 112.983 90.1388 117.178 90.1396H149.512L149.545 90.2595C150.504 93.7027 152.702 95.9405 155.146 95.9405H156.552C158.983 95.9405 161.214 93.7027 162.146 90.2595L162.179 90.1396H194.514C198.709 90.1388 202.742 91.7554 205.775 94.6533C208.808 97.5511 210.607 101.507 210.797 105.697C210.851 105.944 210.857 106.19 210.857 106.443Z" fill="#D68029" stroke="#263238" stroke-linecap="round" stroke-linejoin="round"></path><path d="M210.837 105.697H100.947C101.138 101.507 102.936 97.5511 105.969 94.6533C109.002 91.7554 113.036 90.1388 117.231 90.1396H149.565L149.599 90.2595C150.558 93.7027 152.755 95.9405 155.2 95.9405H156.605C159.036 95.9405 161.267 93.7027 162.199 90.2595L162.233 90.1396H194.567C198.759 90.1422 202.79 91.7604 205.82 94.6579C208.85 97.5553 210.647 101.509 210.837 105.697Z" fill="white" stroke="#263238" stroke-linecap="round" stroke-linejoin="round"></path><path d="M217.85 149.84V129.194H215.979V102.721C215.98 100.579 215.558 98.4581 214.74 96.4793C213.921 94.5005 212.72 92.7024 211.206 91.1878C209.692 89.6731 207.894 88.4716 205.916 87.6518C203.937 86.8321 201.817 86.4102 199.675 86.4102H112.096C109.954 86.4093 107.833 86.8306 105.853 87.6499C103.874 88.4693 102.076 89.6707 100.561 91.1854C99.0462 92.7001 97.8448 94.4985 97.0254 96.4778C96.2061 98.457 95.7848 100.578 95.7856 102.721V280.676C95.7848 282.818 96.2061 284.939 97.0254 286.918C97.8448 288.898 99.0462 290.696 100.561 292.211C102.076 293.726 103.874 294.927 105.853 295.746C107.833 296.566 109.954 296.987 112.096 296.986H199.675C201.817 296.986 203.937 296.564 205.916 295.744C207.894 294.925 209.692 293.723 211.206 292.208C212.72 290.694 213.921 288.896 214.74 286.917C215.558 284.938 215.98 282.817 215.979 280.676V167.456H217.85V155.235H215.979V149.84H217.85ZM210.857 269.054C210.857 273.378 209.139 277.525 206.082 280.582C203.024 283.64 198.877 285.358 194.553 285.358H117.218C115.075 285.36 112.953 284.941 110.972 284.122C108.992 283.304 107.192 282.104 105.676 280.59C104.16 279.075 102.957 277.277 102.137 275.298C101.316 273.318 100.894 271.197 100.894 269.054V106.443C100.894 102.119 102.612 97.9725 105.669 94.915C108.727 91.8575 112.874 90.1398 117.198 90.1398H149.532L149.565 90.2596C150.518 93.7029 152.722 95.9406 155.16 95.9406H156.565C159.009 95.9406 161.227 93.7029 162.166 90.2596L162.199 90.1398H194.533C198.857 90.1398 203.004 91.8575 206.062 94.915C209.119 97.9725 210.837 102.119 210.837 106.443L210.857 269.054Z" fill="#707070" stroke="#263238" stroke-linecap="round" stroke-linejoin="round"></path><path d="M196.798 88.6612H114.947C110.367 88.6612 105.974 90.4806 102.735 93.7193C99.4967 96.9579 97.6772 101.35 97.6772 105.931V277.466C97.6772 282.046 99.4967 286.438 102.735 289.677C105.974 292.915 110.367 294.735 114.947 294.735H196.798C199.07 294.741 201.32 294.299 203.421 293.434C205.522 292.569 207.431 291.298 209.039 289.693C210.648 288.089 211.924 286.183 212.795 284.085C213.666 281.987 214.114 279.737 214.114 277.466V105.931C214.114 103.659 213.666 101.409 212.795 99.3111C211.924 97.2128 210.648 95.307 209.039 93.7028C207.431 92.0985 205.522 90.8275 203.421 89.9623C201.32 89.0972 199.07 88.6551 196.798 88.6612ZM210.857 269.054C210.857 273.378 209.14 277.525 206.082 280.582C203.025 283.64 198.878 285.358 194.554 285.358H117.218C115.075 285.36 112.953 284.94 110.972 284.122C108.992 283.304 107.192 282.104 105.676 280.589C104.16 279.075 102.958 277.277 102.137 275.298C101.316 273.318 100.894 271.197 100.894 269.054V106.443C100.894 102.119 102.612 97.9725 105.669 94.915C108.727 91.8574 112.874 90.1397 117.198 90.1397H149.532L149.565 90.2596C150.518 93.7028 152.722 95.9406 155.16 95.9406H156.565C159.009 95.9406 161.227 93.7028 162.166 90.2596L162.199 90.1397H194.534C198.858 90.1397 203.005 91.8574 206.062 94.915C209.12 97.9725 210.837 102.119 210.837 106.443L210.857 269.054Z" fill="#263238" stroke="#263238" stroke-linecap="round" stroke-linejoin="round"></path><path d="M157.078 90.9185C157.078 90.6156 156.988 90.3194 156.82 90.0675C156.651 89.8156 156.412 89.6193 156.132 89.5033C155.852 89.3874 155.544 89.357 155.247 89.4162C154.95 89.4753 154.677 89.6211 154.463 89.8354C154.249 90.0496 154.103 90.3225 154.044 90.6197C153.984 90.9168 154.015 91.2248 154.131 91.5047C154.247 91.7846 154.443 92.0238 154.695 92.1922C154.947 92.3605 155.243 92.4503 155.546 92.4503C155.952 92.4503 156.342 92.2889 156.629 92.0017C156.916 91.7144 157.078 91.3248 157.078 90.9185Z" fill="#707070"></path><path d="M110.684 96.7866C110.684 98.3384 108.946 98.8912 108.939 100.077V100.157H110.624V100.676H108.373V100.237C108.373 98.5782 110.111 98.2385 110.111 96.8066C110.111 96.2805 109.931 96.0008 109.512 96.0008C109.092 96.0008 108.906 96.3005 108.906 96.76V97.2262H108.373V96.8066C108.373 96.0207 108.733 95.4746 109.525 95.4746C110.318 95.4746 110.684 96.0008 110.684 96.7866Z" fill="#263238"></path><path d="M113.495 96.7793V96.9125C113.518 97.1329 113.469 97.3548 113.357 97.5455C113.244 97.7361 113.073 97.8855 112.869 97.9715C113.075 98.0547 113.248 98.2036 113.361 98.395C113.474 98.5863 113.521 98.8097 113.495 99.0304V99.43C113.495 100.216 113.128 100.729 112.336 100.729C111.543 100.729 111.184 100.216 111.184 99.43V99.077H111.716V99.4633C111.716 99.9295 111.909 100.209 112.322 100.209C112.735 100.209 112.922 99.9362 112.922 99.4167V99.0171C112.922 98.5109 112.709 98.2712 112.256 98.2579H111.949V97.7384H112.282C112.371 97.7402 112.46 97.7228 112.541 97.6871C112.622 97.6515 112.695 97.5986 112.754 97.5321C112.813 97.4655 112.857 97.387 112.882 97.3019C112.908 97.2167 112.914 97.1271 112.902 97.0391V96.7993C112.902 96.2732 112.715 96.0001 112.302 96.0001C111.89 96.0001 111.696 96.2865 111.696 96.7527V97.0124H111.164V96.7793C111.164 95.9935 111.53 95.4873 112.316 95.4873C113.102 95.4873 113.495 95.9935 113.495 96.7793Z" fill="#263238"></path><path d="M114.607 97.166V97.892H114.054V97.1793L114.607 97.166ZM114.607 99.9632V100.676H114.054V99.9632H114.607Z" fill="#263238"></path><path d="M115.765 97.6323C115.839 97.497 115.949 97.3853 116.084 97.3099C116.218 97.2345 116.371 97.1985 116.525 97.206C117.191 97.206 117.484 97.6922 117.484 98.4248V99.4305C117.484 100.216 117.104 100.729 116.318 100.729C115.532 100.729 115.166 100.216 115.166 99.4305V99.0841H115.705V99.4638C115.705 99.93 115.899 100.21 116.305 100.21C116.711 100.21 116.911 99.93 116.911 99.4638V98.4648C116.911 98.0052 116.718 97.7255 116.305 97.7255C116.23 97.7228 116.156 97.7351 116.086 97.7616C116.016 97.7881 115.953 97.8283 115.899 97.8798C115.845 97.9313 115.802 97.9931 115.772 98.0615C115.742 98.13 115.726 98.2037 115.725 98.2783V98.3915H115.193L115.333 95.541H117.331V96.0538H115.819L115.765 97.6323Z" fill="#263238"></path><path d="M120.334 96.7733V96.8666H119.801V96.7333C119.801 96.2738 119.608 96.0008 119.189 96.0008C118.769 96.0008 118.569 96.2805 118.569 96.8333V97.9854C118.628 97.8161 118.741 97.6706 118.89 97.5709C119.039 97.4712 119.216 97.4227 119.395 97.4327C120.061 97.4327 120.354 97.9122 120.354 98.6514V99.4307C120.354 100.217 119.961 100.729 119.175 100.729C118.39 100.729 117.997 100.217 117.997 99.4307V96.8066C117.997 95.9941 118.363 95.4746 119.175 95.4746C119.988 95.4746 120.334 95.9874 120.334 96.7733ZM118.569 98.6981V99.464C118.569 99.9302 118.756 100.21 119.175 100.21C119.595 100.21 119.788 99.9302 119.788 99.464V98.6981C119.788 98.2319 119.588 97.9521 119.175 97.9521C118.762 97.9521 118.569 98.2319 118.569 98.6981Z" fill="#263238"></path><path d="M176.425 97H174.973V100.63H176.425V97Z" fill="#263238"></path><path d="M178.356 96.2734H176.904V100.629H178.356V96.2734Z" fill="#263238"></path><path d="M180.294 95.7539H178.842V100.622H180.294V95.7539Z" fill="#263238"></path><path d="M182.226 94.8613H180.774V100.629H182.226V94.8613Z" fill="#263238"></path><path d="M200.181 100.556H191.47V95.2275H200.174L200.181 100.556ZM191.956 100.076H199.695V95.7204H191.956V100.076Z" fill="#263238"></path><path d="M197.278 96.2139H192.682V99.5106H197.278V96.2139Z" fill="#263238"></path><path d="M200.967 97.2393H199.875V98.4913H200.967V97.2393Z" fill="#263238"></path><path d="M188.28 99.3701C188.223 99.368 188.168 99.352 188.12 99.3234C186.348 98.2712 185.176 99.2435 185.123 99.2902C185.057 99.3409 184.974 99.3645 184.891 99.3561C184.808 99.3477 184.732 99.3079 184.677 99.2449C184.623 99.1819 184.594 99.1004 184.598 99.0172C184.602 98.934 184.637 98.8553 184.697 98.7973C184.763 98.744 186.255 97.4653 188.446 98.764C188.484 98.7853 188.516 98.8139 188.542 98.8481C188.568 98.8823 188.587 98.9214 188.598 98.9631C188.608 99.0047 188.61 99.0481 188.604 99.0905C188.597 99.133 188.582 99.1737 188.559 99.2102C188.531 99.2588 188.49 99.2991 188.441 99.3271C188.392 99.3551 188.336 99.3699 188.28 99.3701Z" fill="#263238"></path><path d="M188.939 98.2781C188.881 98.2761 188.824 98.2601 188.773 98.2315C186.208 96.7064 184.49 98.1782 184.47 98.1915C184.409 98.2521 184.326 98.2861 184.24 98.2861C184.154 98.2861 184.072 98.2521 184.011 98.1915C183.956 98.1254 183.929 98.0407 183.935 97.9551C183.941 97.8695 183.98 97.7895 184.044 97.732C184.044 97.732 186.142 95.9338 189.106 97.6987C189.18 97.743 189.233 97.8148 189.254 97.8985C189.275 97.9821 189.263 98.0707 189.219 98.1449C189.186 98.1881 189.144 98.2228 189.095 98.246C189.047 98.2692 188.993 98.2803 188.939 98.2781Z" fill="#263238"></path><path d="M189.532 97.0125C189.473 97.0095 189.417 96.9936 189.365 96.9659C186.122 95.0345 183.964 96.8527 183.877 96.9326C183.811 96.9873 183.727 97.0144 183.641 97.0082C183.555 97.002 183.475 96.963 183.418 96.8993C183.357 96.8382 183.323 96.7556 183.323 96.6695C183.323 96.5834 183.357 96.5009 183.418 96.4398C183.418 96.4398 186.009 94.2286 189.672 96.4398C189.733 96.4764 189.78 96.5321 189.806 96.5982C189.833 96.6643 189.837 96.7373 189.818 96.8059C189.799 96.8746 189.759 96.9352 189.702 96.9785C189.645 97.0218 189.576 97.0455 189.505 97.0458L189.532 97.0125Z" fill="#263238"></path><path d="M187.307 99.8897C187.309 100.052 187.262 100.211 187.172 100.347C187.083 100.482 186.956 100.588 186.806 100.651C186.657 100.714 186.492 100.731 186.332 100.701C186.173 100.67 186.026 100.592 185.911 100.478C185.796 100.364 185.717 100.218 185.685 100.059C185.653 99.8995 185.669 99.7345 185.731 99.5844C185.792 99.4343 185.897 99.306 186.032 99.2157C186.167 99.1254 186.326 99.0772 186.488 99.0771C186.704 99.0771 186.912 99.1625 187.065 99.3147C187.218 99.4669 187.306 99.6736 187.307 99.8897Z" fill="#263238"></path><path opacity="0.3" d="M72.5893 147.063L73.1753 143.287C74.1048 143.027 74.9993 142.656 75.8393 142.181L80.1883 145.358L83.5849 141.968L80.4081 137.619C80.8819 136.78 81.251 135.885 81.507 134.955L86.835 134.129V129.328L81.507 128.502C81.2526 127.572 80.8835 126.677 80.4081 125.838L83.5783 121.469L80.1817 118.072L75.8327 121.249C74.9926 120.774 74.0981 120.403 73.1687 120.143L72.3428 114.815H67.541L66.7085 120.143C65.7799 120.405 64.8857 120.776 64.0445 121.249L63.4451 120.809M62.1597 119.87L59.6955 118.072L56.3056 121.469L59.4824 125.818C59.0076 126.658 58.6364 127.552 58.3768 128.482L53.0488 129.308V134.109L58.3768 134.935C58.638 135.864 59.0092 136.758 59.4824 137.599L56.3056 141.948L59.6955 145.338L64.0445 142.161C64.8857 142.634 65.7799 143.005 66.7085 143.267L67.541 148.595H72.3428M68.2603 139.118C66.4209 138.696 64.8047 137.604 63.7272 136.055C62.6497 134.506 62.1882 132.611 62.4329 130.74C62.6775 128.869 63.6108 127.156 65.0504 125.936C66.49 124.716 68.3326 124.077 70.2184 124.143C72.1043 124.208 73.8979 124.974 75.2493 126.291C76.6006 127.608 77.4125 129.382 77.5265 131.265C77.6404 133.149 77.0483 135.007 75.8657 136.478C74.6831 137.948 72.9949 138.925 71.1307 139.218" stroke="black" stroke-linecap="round" stroke-linejoin="round"></path><path opacity="0.3" d="M46.0957 142.508C47.1758 142.964 48.0648 143.78 48.612 144.817C49.1592 145.854 49.3309 147.048 49.0981 148.198C48.8653 149.347 48.2422 150.38 47.3344 151.122C46.4267 151.865 45.2903 152.27 44.1177 152.27C42.9452 152.27 41.8087 151.865 40.901 151.122C39.9933 150.38 39.3702 149.347 39.1373 148.198C38.9045 147.048 39.0762 145.854 39.6234 144.817C40.1706 143.78 41.0596 142.964 42.1397 142.508M55.4197 148.801V145.585L51.8566 145.032C51.6809 144.408 51.4328 143.807 51.1174 143.24L53.2419 140.337L50.9442 138.059L48.0338 140.19C47.4824 139.873 46.8942 139.625 46.2822 139.451L45.7228 135.888H42.506L41.9532 139.451C41.3273 139.621 40.7253 139.869 40.1617 140.19L37.2513 138.059L34.9602 140.337L37.0848 143.24C36.7689 143.806 36.5229 144.407 36.3522 145.032L32.7891 145.585V148.801L36.3522 149.354C36.5239 149.976 36.7699 150.576 37.0848 151.139L34.9602 154.05L37.2313 156.321L40.1417 154.196C40.708 154.511 41.3093 154.76 41.9332 154.935L42.486 158.498H45.6961L46.2556 154.935C46.877 154.758 47.4759 154.51 48.0405 154.196L50.9442 156.321L53.2153 154.05L51.1174 151.172C51.4316 150.608 51.6796 150.009 51.8566 149.388L55.4197 148.801Z" stroke="black" stroke-linecap="round" stroke-linejoin="round"></path><path opacity="0.3" d="M239.808 233.816L241.626 228.741L237.424 226.43L234.147 230.713C233.206 230.494 232.243 230.388 231.277 230.4L228.979 225.531L224.37 226.863L225.083 232.191C224.26 232.702 223.504 233.313 222.832 234.009L217.764 232.185L215.446 236.42L219.728 239.697C219.509 240.638 219.404 241.602 219.415 242.568L214.547 244.865L215.879 249.474L221.207 248.768C221.72 249.587 222.33 250.341 223.025 251.012L221.2 256.087L225.436 258.398L228.713 254.116C229.656 254.335 230.622 254.441 231.59 254.429L233.881 259.297L238.49 257.965L237.784 252.637C238.604 252.127 239.358 251.516 240.028 250.819L245.103 252.644L247.414 248.408L243.132 245.132C243.354 244.191 243.459 243.227 243.445 242.261L248.32 239.963L246.988 235.355L241.66 236.061C241.54 235.861 241.407 235.668 241.273 235.475M225.769 247.463C224.55 246.076 223.878 244.292 223.878 242.446C223.879 240.599 224.553 238.816 225.774 237.431C226.994 236.045 228.678 235.152 230.51 234.918C232.341 234.684 234.195 235.126 235.725 236.161C237.254 237.195 238.354 238.752 238.819 240.539C239.284 242.326 239.081 244.221 238.249 245.87C237.417 247.518 236.013 248.807 234.299 249.495C232.586 250.183 230.68 250.223 228.939 249.607" stroke="black" stroke-linecap="round" stroke-linejoin="round"></path><path opacity="0.3" d="M231.69 217.2C230.564 217.543 229.353 217.483 228.265 217.032C227.177 216.582 226.28 215.767 225.726 214.727C225.173 213.688 224.997 212.489 225.23 211.335C225.462 210.18 226.089 209.143 227.002 208.399C227.915 207.655 229.057 207.251 230.235 207.257C231.413 207.262 232.552 207.677 233.458 208.429C234.364 209.181 234.98 210.224 235.202 211.381C235.424 212.537 235.237 213.735 234.674 214.769C234.531 215.031 234.366 215.281 234.181 215.515M223.392 221.496L226.209 223.034L228.407 220.17C229.036 220.315 229.68 220.384 230.325 220.377L231.863 223.64L234.947 222.728L234.474 219.158C235.022 218.815 235.525 218.405 235.973 217.939L239.369 219.158L240.908 216.341L238.044 214.15C238.191 213.519 238.261 212.873 238.25 212.225L241.514 210.686L240.608 207.603L237.032 208.076C236.688 207.53 236.281 207.027 235.819 206.577L237.038 203.181L234.214 201.642L232.023 204.506C231.393 204.358 230.746 204.289 230.098 204.3L228.56 201.036L225.483 201.942L225.956 205.518C225.407 205.86 224.902 206.267 224.451 206.73L221.054 205.512L219.516 208.335L222.38 210.527C222.235 211.158 222.166 211.804 222.173 212.451L218.91 213.99L219.822 217.067L223.392 216.594C223.733 217.145 224.143 217.65 224.611 218.099L223.392 221.496Z" stroke="black" stroke-linecap="round" stroke-linejoin="round"></path><path d="M12.9819 297.026H310.684" stroke="#263238" stroke-linecap="round" stroke-linejoin="round"></path><path d="M129.545 117.339H113.868C111.896 117.339 110.298 118.937 110.298 120.909V136.586C110.298 138.558 111.896 140.156 113.868 140.156H129.545C131.517 140.156 133.115 138.558 133.115 136.586V120.909C133.115 118.937 131.517 117.339 129.545 117.339Z" fill="white" stroke="#263238" stroke-linecap="round" stroke-linejoin="round"></path><path d="M121.473 122.121V132.524C121.473 132.524 114.027 126.776 114.98 133.27C115.433 136.307 122.306 134.975 122.306 134.975V126.043C123.369 125.902 124.415 125.654 125.429 125.304C127.341 124.638 129.578 122.107 129.578 122.107L121.473 122.121Z" fill="#263238" stroke="#263238" stroke-linecap="round" stroke-linejoin="round"></path><path d="M163.152 190.372H147.474C145.503 190.372 143.904 191.97 143.904 193.942V209.619C143.904 211.591 145.503 213.189 147.474 213.189H163.152C165.123 213.189 166.721 211.591 166.721 209.619V193.942C166.721 191.97 165.123 190.372 163.152 190.372Z" fill="white" stroke="#263238" stroke-linecap="round" stroke-linejoin="round"></path><path d="M163.132 196.387H147.181V206.623H163.132V196.387Z" fill="#263238" stroke="#263238" stroke-linecap="round" stroke-linejoin="round"></path><path d="M147.181 196.387L155.027 203.033L163.019 196.473" stroke="white" stroke-linecap="round" stroke-linejoin="round"></path><path d="M147.181 206.616L152.895 201.435" stroke="white" stroke-linecap="round" stroke-linejoin="round"></path><path d="M163.132 206.616L157.151 201.435" stroke="white" stroke-linecap="round" stroke-linejoin="round"></path><path d="M196.265 117.339H180.587C178.616 117.339 177.018 118.937 177.018 120.909V136.586C177.018 138.558 178.616 140.156 180.587 140.156H196.265C198.237 140.156 199.835 138.558 199.835 136.586V120.909C199.835 118.937 198.237 117.339 196.265 117.339Z" fill="white" stroke="#263238" stroke-linecap="round" stroke-linejoin="round"></path><path d="M193.403 134.127C196.366 131.382 196.542 126.755 193.797 123.793C191.052 120.831 186.425 120.655 183.462 123.4C180.5 126.145 180.324 130.772 183.069 133.734C185.814 136.696 190.441 136.872 193.403 134.127Z" fill="white" stroke="#263238" stroke-linecap="round" stroke-linejoin="round"></path><path d="M194.192 130.922C195.393 127.738 193.785 124.184 190.602 122.984C187.418 121.783 183.864 123.391 182.664 126.575C181.463 129.758 183.071 133.312 186.255 134.512C189.438 135.713 192.992 134.105 194.192 130.922Z" fill="#263238" stroke="#263238" stroke-linecap="round" stroke-linejoin="round"></path><path d="M188.506 125.498C188.506 125.955 188.371 126.401 188.117 126.781C187.863 127.162 187.502 127.458 187.08 127.633C186.657 127.808 186.193 127.853 185.744 127.764C185.296 127.675 184.884 127.455 184.561 127.132C184.238 126.808 184.018 126.397 183.929 125.948C183.84 125.5 183.885 125.035 184.06 124.613C184.235 124.191 184.531 123.83 184.911 123.576C185.291 123.322 185.738 123.187 186.195 123.187C186.808 123.187 187.396 123.43 187.829 123.863C188.263 124.297 188.506 124.885 188.506 125.498Z" fill="white" stroke="#263238" stroke-linecap="round" stroke-linejoin="round"></path><path d="M129.545 154.981H113.868C111.896 154.981 110.298 156.58 110.298 158.551V174.229C110.298 176.2 111.896 177.799 113.868 177.799H129.545C131.517 177.799 133.115 176.2 133.115 174.229V158.551C133.115 156.58 131.517 154.981 129.545 154.981Z" fill="white" stroke="#263238" stroke-linecap="round" stroke-linejoin="round"></path><path d="M129.965 166.436L116.472 158.65V174.228L129.965 166.436Z" fill="#263238" stroke="#263238" stroke-linecap="round" stroke-linejoin="round"></path><path d="M196.265 228.021H180.587C178.616 228.021 177.018 229.62 177.018 231.591V247.269C177.018 249.24 178.616 250.839 180.587 250.839H196.265C198.237 250.839 199.835 249.24 199.835 247.269V231.591C199.835 229.62 198.237 228.021 196.265 228.021Z" fill="white" stroke="#263238" stroke-linecap="round" stroke-linejoin="round"></path><path d="M188.54 232.244C183.924 232.244 180.175 235.241 180.175 238.904C180.175 241.288 181.747 243.38 184.104 244.565L182.686 248.102L187.161 245.498C187.618 245.559 188.079 245.59 188.54 245.591C193.162 245.591 196.911 242.6 196.911 238.931C196.911 235.261 193.162 232.244 188.54 232.244Z" fill="#263238" stroke="#263238" stroke-linecap="round" stroke-linejoin="round"></path><path d="M196.265 154.981H180.587C178.616 154.981 177.018 156.58 177.018 158.551V174.229C177.018 176.2 178.616 177.799 180.587 177.799H196.265C198.237 177.799 199.835 176.2 199.835 174.229V158.551C199.835 156.58 198.237 154.981 196.265 154.981Z" fill="white" stroke="#263238" stroke-linecap="round" stroke-linejoin="round"></path><path d="M188.426 174.255C192.77 174.255 196.292 170.734 196.292 166.39C196.292 162.046 192.77 158.524 188.426 158.524C184.083 158.524 180.561 162.046 180.561 166.39C180.561 170.734 184.083 174.255 188.426 174.255Z" fill="#263238" stroke="#263238" stroke-linecap="round" stroke-linejoin="round"></path><path d="M185.949 169.613L188.433 166.39V160.629" stroke="white" stroke-linecap="round" stroke-linejoin="round"></path><path d="M129.545 189.554H113.868C111.896 189.554 110.298 191.152 110.298 193.123V208.801C110.298 210.773 111.896 212.371 113.868 212.371H129.545C131.517 212.371 133.115 210.773 133.115 208.801V193.123C133.115 191.152 131.517 189.554 129.545 189.554Z" fill="white" stroke="#263238" stroke-linecap="round" stroke-linejoin="round"></path><path d="M119.342 200.216C119.387 200.174 119.443 200.147 119.504 200.137C119.564 200.128 119.626 200.137 119.682 200.163L123.012 201.834L126.295 197.239C126.338 197.178 126.402 197.136 126.475 197.12C126.547 197.104 126.623 197.116 126.688 197.152L129.285 198.638V194.495H114.081V205.244L119.342 200.216ZM117.078 195.221C117.431 195.221 117.776 195.326 118.069 195.522C118.363 195.718 118.591 195.997 118.727 196.323C118.862 196.649 118.897 197.008 118.828 197.354C118.759 197.7 118.589 198.018 118.34 198.268C118.09 198.518 117.772 198.688 117.426 198.757C117.08 198.825 116.721 198.79 116.395 198.655C116.068 198.52 115.79 198.291 115.593 197.998C115.397 197.704 115.293 197.359 115.293 197.006C115.293 196.533 115.481 196.079 115.815 195.744C116.15 195.409 116.604 195.221 117.078 195.221Z" fill="#263238"></path><path d="M129.279 199.323L126.615 197.812L123.338 202.394C123.296 202.452 123.235 202.494 123.165 202.511C123.096 202.528 123.022 202.519 122.958 202.487L119.582 200.802L114.061 206.077V207.875H129.272V199.33L129.279 199.323Z" fill="#263238"></path><path d="M180.774 117.34L188.613 110.007V51.9316" stroke="#263238" stroke-linecap="round" stroke-linejoin="round"></path><path d="M188.613 110.007L197.131 117.339" stroke="#263238" stroke-linecap="round" stroke-linejoin="round"></path><path d="M190.497 43.6533V47.5095L192.042 50.2068C192.043 51.0664 191.702 51.8911 191.095 52.5002C190.489 53.1093 189.665 53.4533 188.806 53.4568C187.944 53.4551 187.119 53.1121 186.51 52.503C185.9 51.8938 185.557 51.0682 185.556 50.2068V47.5095" stroke="#263238" stroke-width="3" stroke-linecap="round" stroke-linejoin="round"></path><path d="M193.847 36.2471H187.347V43.4665H193.847V36.2471Z" fill="white" stroke="#263238" stroke-linecap="round" stroke-linejoin="round"></path><path d="M196.252 26.5635H184.943V41.0623H196.252V26.5635Z" fill="white" stroke="#263238" stroke-linecap="round" stroke-linejoin="round"></path><path d="M199.622 33.8428H181.693V38.2917H199.622V33.8428Z" fill="white" stroke="#263238" stroke-linecap="round" stroke-linejoin="round"></path><path d="M190.598 33.8428H188.033L184.404 37.9587L184.783 38.2917H186.675L190.598 33.8428Z" fill="#263238"></path><path d="M183.098 33.8428L181.693 35.4345V38.2917H181.739L185.669 33.8428H183.098Z" fill="#263238"></path><path d="M195.533 33.8428H192.969L189.339 37.9587L189.718 38.2917H191.61L195.533 33.8428Z" fill="#263238"></path><path d="M199.622 34.7952V33.8428H197.897L194.267 37.9587L194.653 38.2917H196.538L199.622 34.7952Z" fill="#263238"></path><path d="M190.344 26.3105V17.5859" stroke="#263238" stroke-width="2" stroke-linecap="round" stroke-linejoin="round"></path><path d="M324.39 17.3659H185.815V12.1378L209.525 2.08789H324.39" stroke="#263238" stroke-width="2" stroke-linecap="round" stroke-linejoin="round"></path><path d="M209.525 17.3659V2.08789L225.203 17.3659V2.08789L209.525 17.3659Z" stroke="#263238" stroke-width="2" stroke-linecap="round" stroke-linejoin="round"></path><path d="M225.183 17.3659V2.08789L240.854 17.3659V2.08789L225.183 17.3659Z" stroke="#263238" stroke-width="2" stroke-linecap="round" stroke-linejoin="round"></path><path d="M240.834 17.3659V2.08789L256.512 17.3659V2.08789L240.834 17.3659Z" stroke="#263238" stroke-width="2" stroke-linecap="round" stroke-linejoin="round"></path><path d="M256.492 17.3659V2.08789L272.163 17.3659V2.08789L256.492 17.3659Z" stroke="#263238" stroke-width="2" stroke-linecap="round" stroke-linejoin="round"></path><path d="M272.143 17.3659V2.08789L287.82 17.3659V2.08789L272.143 17.3659Z" stroke="#263238" stroke-width="2" stroke-linecap="round" stroke-linejoin="round"></path><path d="M287.8 17.3659V2.08789L303.471 17.3659V2.08789L287.8 17.3659Z" stroke="#263238" stroke-width="2" stroke-linecap="round" stroke-linejoin="round"></path><path d="M303.451 17.3659V2.08789L319.129 17.3659V2.08789L303.451 17.3659Z" stroke="#263238" stroke-width="2" stroke-linecap="round" stroke-linejoin="round"></path><path d="M129.545 189.4L121.707 182.067V78.1113" stroke="#263238" stroke-linecap="round" stroke-linejoin="round"></path><path d="M121.707 182.067L113.188 189.4" stroke="#263238" stroke-linecap="round" stroke-linejoin="round"></path><path d="M119.815 70.2998V74.1559L118.276 76.8199C118.276 77.6819 118.619 78.5086 119.228 79.1181C119.838 79.7276 120.664 80.07 121.526 80.07C122.387 80.0683 123.212 79.7251 123.82 79.1157C124.428 78.5064 124.77 77.6808 124.77 76.8199V74.1559" stroke="#263238" stroke-width="3" stroke-linecap="round" stroke-linejoin="round"></path><path d="M116.465 70.1133H122.965V62.8938H116.465V70.1133Z" fill="white" stroke="#263238" stroke-linecap="round" stroke-linejoin="round"></path><path d="M114.067 67.709H125.376V53.2102H114.067V67.709Z" fill="white" stroke="#263238" stroke-linecap="round" stroke-linejoin="round"></path><path d="M110.691 64.9385H128.62V60.4896H110.691V64.9385Z" fill="white" stroke="#263238" stroke-linecap="round" stroke-linejoin="round"></path><path d="M119.715 60.4893H122.286L125.916 64.6051L125.536 64.9381H123.645L119.715 60.4893Z" fill="#263238"></path><path d="M127.221 60.4893L128.626 62.081V64.9381H128.58L124.65 60.4893H127.221Z" fill="#263238"></path><path d="M114.787 60.4893H117.351L120.98 64.6051L120.601 64.9381H118.709L114.787 60.4893Z" fill="#263238"></path><path d="M110.698 61.4483V60.4893H112.416L116.046 64.6051L115.666 64.9381H113.775L110.698 61.4483Z" fill="#263238"></path><path d="M119.975 52.957V44.2324" stroke="#263238" stroke-width="2" stroke-linecap="round" stroke-linejoin="round"></path><path d="M1.91309 44.0124H124.504V38.7843L100.787 28.7344H1.91309" stroke="#263238" stroke-width="2" stroke-linecap="round" stroke-linejoin="round"></path><path d="M100.788 44.0124V28.7344L85.1167 44.0124V28.7344L100.788 44.0124Z" stroke="#263238" stroke-width="2" stroke-linecap="round" stroke-linejoin="round"></path><path d="M85.1366 44.0124V28.7344L69.459 44.0124V28.7344L85.1366 44.0124Z" stroke="#263238" stroke-width="2" stroke-linecap="round" stroke-linejoin="round"></path><path d="M69.4786 44.0124V28.7344L53.8076 44.0124V28.7344L69.4786 44.0124Z" stroke="#263238" stroke-width="2" stroke-linecap="round" stroke-linejoin="round"></path><path d="M53.828 44.0124V28.7344L38.1504 44.0124V28.7344L53.828 44.0124Z" stroke="#263238" stroke-width="2" stroke-linecap="round" stroke-linejoin="round"></path><path d="M38.1767 44.0124V28.7344L22.499 44.0124V28.7344L38.1767 44.0124Z" stroke="#263238" stroke-width="2" stroke-linecap="round" stroke-linejoin="round"></path><path d="M22.5189 44.0124V28.7344L6.84131 44.0124V28.7344L22.5189 44.0124Z" stroke="#263238" stroke-width="2" stroke-linecap="round" stroke-linejoin="round"></path><path d="M30.6778 249.859C32.2495 250.525 36.0924 250.459 36.099 250.459C36.1057 250.459 35.2732 247.941 35.1999 247.795C34.3541 246.03 31.6834 243.133 29.5123 243.406C29.1529 243.465 28.81 243.6 28.506 243.801C28.2019 244.001 27.9435 244.264 27.7476 244.571C27.5516 244.878 27.4225 245.223 27.3685 245.583C27.3145 245.944 27.337 246.311 27.4344 246.662C27.794 248.154 29.3391 249.273 30.6778 249.859Z" fill="#263238"></path><path d="M32.0032 261.002C33.6349 261.242 37.0648 260.249 37.3312 260.163C37.8995 262.129 38.5958 264.055 39.4158 265.93C39.8886 267.022 40.4015 268.108 40.9209 269.187C40.6079 268.734 40.3282 268.321 40.2549 268.268C38.9762 266.789 35.5929 264.685 33.5949 265.537C33.2626 265.688 32.966 265.907 32.7243 266.181C32.4827 266.454 32.3015 266.776 32.1928 267.124C32.084 267.472 32.05 267.84 32.0931 268.202C32.1362 268.565 32.2553 268.914 32.4428 269.227C33.1887 270.559 34.9736 271.225 36.4388 271.465C37.904 271.704 40.8477 270.885 41.6269 270.666C41.8334 271.078 42.0332 271.498 42.2396 271.904C43.232 273.902 44.2376 275.86 45.1567 277.818C45.483 278.484 45.7761 279.204 46.0758 279.896C45.7961 279.49 45.5563 279.15 45.5163 279.104C44.2376 277.625 40.8943 275.514 38.8563 276.373C38.5257 276.525 38.2306 276.744 37.9902 277.017C37.7498 277.291 37.5695 277.611 37.4608 277.958C37.3522 278.305 37.3178 278.672 37.3597 279.033C37.4016 279.394 37.519 279.743 37.7042 280.056C38.4501 281.388 40.235 282.054 41.7002 282.294C43.1654 282.534 45.8227 281.794 46.7484 281.535C47.0348 282.254 47.3212 282.973 47.561 283.686C47.7141 284.172 47.9006 284.632 48.0272 285.131C48.1537 285.631 48.3002 286.103 48.4334 286.59C48.6599 287.522 48.893 288.488 49.0994 289.407C49.2393 290.073 49.3592 290.659 49.4857 291.272C49.1727 290.606 48.5267 289.234 48.4601 289.127C47.4144 287.475 44.4641 284.885 42.3062 285.424C41.9558 285.524 41.6303 285.696 41.3509 285.93C41.0716 286.163 40.8447 286.454 40.6851 286.781C40.5254 287.108 40.4366 287.466 40.4245 287.83C40.4123 288.194 40.4771 288.557 40.6146 288.894C41.1407 290.346 42.8057 291.278 44.2043 291.704C45.7428 292.177 49.146 291.744 49.5723 291.704C49.7787 292.723 49.9652 293.702 50.1317 294.655C50.2516 295.321 50.3648 295.987 50.4647 296.653H51.83C51.7035 295.934 51.5636 295.188 51.4104 294.408C51.204 293.376 50.9642 292.271 50.7444 291.145C51.7695 290.732 52.7702 290.26 53.7414 289.733C54.867 290.945 57.7374 292.397 58.1104 292.55C57.7175 293.516 57.3312 294.442 56.9449 295.321L56.3588 296.653H57.7974L58.1437 295.82C58.5433 294.848 58.9562 293.822 59.3625 292.717C59.7754 292.803 63.152 293.489 64.7238 293.13C66.149 292.81 67.874 292.004 68.5133 290.592C68.6749 290.266 68.7659 289.909 68.7804 289.546C68.7949 289.182 68.7326 288.819 68.5975 288.481C68.4624 288.143 68.2576 287.837 67.9963 287.583C67.7351 287.33 67.4234 287.134 67.0814 287.009C65.0035 286.31 61.8333 288.674 60.6678 290.246C60.6012 290.339 60.0018 291.431 59.5823 292.124C59.7488 291.684 59.9153 291.252 60.0818 290.792C60.4148 289.893 60.7478 288.981 61.0475 288.001C61.1873 287.522 61.3338 287.036 61.4804 286.55C61.6269 286.063 61.7401 285.537 61.8733 285.031C62.153 283.846 62.3795 282.627 62.5859 281.401C63.3785 281.688 66.2023 282.673 67.6675 282.567C69.1327 282.46 70.9575 281.901 71.8034 280.636C72.0112 280.337 72.1541 279.998 72.2228 279.64C72.2915 279.283 72.2845 278.915 72.2023 278.56C72.1201 278.206 71.9645 277.872 71.7455 277.582C71.5265 277.291 71.249 277.049 70.9309 276.873C68.9795 275.867 65.4897 277.718 64.1044 279.104C64.0178 279.19 63.132 280.289 62.6592 280.902C62.7724 280.163 62.8923 279.423 62.9855 278.671C63.2586 276.5 63.465 274.295 63.6515 272.091C63.7181 271.425 63.7914 270.759 63.858 270.093C64.1377 270.199 67.4744 271.425 69.1194 271.325C70.5779 271.225 72.4028 270.659 73.2486 269.393C73.4574 269.095 73.6012 268.756 73.6705 268.398C73.7397 268.041 73.733 267.672 73.6508 267.318C73.5685 266.963 73.4125 266.629 73.1929 266.338C72.9733 266.048 72.695 265.807 72.3761 265.631C70.4314 264.625 66.9349 266.476 65.5496 267.855C65.4431 267.962 64.1777 269.553 63.8713 269.973C64.0311 268.488 64.1976 267.016 64.4241 265.571C64.7221 263.616 65.1448 261.683 65.6895 259.783C65.816 259.83 69.2925 261.115 70.9775 261.028C72.4294 260.922 74.2609 260.362 75.1067 259.09C75.3156 258.792 75.4593 258.453 75.5286 258.095C75.5979 257.738 75.5912 257.369 75.5089 257.015C75.4266 256.66 75.2706 256.326 75.051 256.035C74.8314 255.745 74.5531 255.504 74.2343 255.328C72.2895 254.329 68.793 256.18 67.4078 257.559C67.3012 257.665 65.9359 259.377 65.7095 259.703C65.7095 259.597 65.7627 259.477 65.796 259.37C66.3954 257.479 67.1621 255.644 68.0871 253.889C68.5866 252.917 69.1194 252.011 69.6522 251.145C70.2782 251.451 73.1354 252.843 74.6605 252.903C76.1856 252.963 77.9905 252.63 78.9762 251.431C79.2175 251.159 79.3985 250.838 79.5072 250.491C79.616 250.143 79.6502 249.777 79.6074 249.415C79.5646 249.054 79.446 248.705 79.2591 248.393C79.0723 248.08 78.8216 247.811 78.5233 247.602C76.6985 246.39 73.0288 247.842 71.497 249.067C71.4104 249.134 70.6379 249.9 70.0851 250.466C70.3382 250.079 70.5846 249.673 70.831 249.307C71.7434 247.928 72.6692 246.716 73.495 245.657C73.9745 245.051 74.4141 244.518 74.827 244.026C75.5996 244.026 78.6965 243.919 80.0551 243.28C81.4137 242.64 82.8923 241.501 83.2119 239.99C83.2994 239.636 83.3114 239.267 83.2471 238.909C83.1829 238.55 83.0439 238.209 82.8391 237.907C82.6343 237.606 82.3684 237.351 82.0585 237.159C81.7487 236.967 81.4019 236.842 81.0408 236.793C78.863 236.56 76.2722 239.543 75.4797 241.335C75.4064 241.488 74.6072 243.999 74.6472 243.999H74.6938C74.2809 244.465 73.848 244.978 73.3618 245.537C72.5093 246.583 71.5569 247.775 70.6046 249.14C69.5642 250.602 68.6102 252.123 67.7474 253.696C66.7718 255.451 65.9539 257.29 65.3032 259.19V259.264C65.3032 258.598 65.3032 256.819 65.3032 256.686C65.0501 254.741 63.4251 251.138 61.2672 250.745C60.9072 250.688 60.539 250.707 60.1868 250.801C59.8346 250.896 59.5064 251.064 59.2235 251.294C58.9406 251.524 58.7094 251.811 58.5452 252.137C58.3809 252.462 58.2872 252.819 58.2702 253.183C58.1437 254.721 59.2626 256.267 60.3548 257.239C61.5869 258.338 65.0168 259.403 65.2699 259.49C64.6555 261.438 64.1727 263.425 63.8247 265.437C63.6182 266.616 63.4451 267.802 63.2852 268.994C63.2852 268.441 63.2852 267.942 63.2852 267.875C63.0388 265.93 61.4071 262.327 59.2892 261.928C58.9227 261.861 58.5463 261.875 58.1855 261.967C57.8247 262.059 57.4879 262.228 57.198 262.462C56.908 262.695 56.6718 262.989 56.5051 263.322C56.3385 263.655 56.2455 264.02 56.2323 264.392C56.1057 265.93 57.2246 267.475 58.3102 268.448C59.3958 269.42 62.3062 270.406 63.0788 270.646C63.0188 271.105 62.9589 271.565 62.9056 272.024C62.6392 274.222 62.3928 276.42 62.0731 278.564C61.9665 279.317 61.8267 280.063 61.6935 280.802C61.6935 280.309 61.6935 279.896 61.6935 279.83C61.4471 277.892 59.8154 274.289 57.6975 273.889C57.3379 273.832 56.9705 273.852 56.6191 273.947C56.2677 274.042 55.9403 274.21 55.6581 274.44C55.376 274.67 55.1455 274.957 54.9816 275.282C54.8178 275.607 54.7242 275.963 54.7071 276.327C54.5806 277.872 55.6928 279.417 56.7851 280.389C57.8773 281.361 60.5013 282.247 61.4138 282.54C61.2539 283.3 61.0941 284.052 60.9076 284.778C60.7677 285.271 60.6678 285.75 60.4947 286.243L60.0351 287.682C59.7021 288.588 59.3691 289.52 59.0228 290.399C58.7897 291.005 58.5566 291.585 58.3235 292.164C58.4434 291.411 58.6432 289.94 58.6432 289.813C58.6263 288.092 58.1676 286.404 57.3112 284.911C57.3311 284.721 57.3311 284.529 57.3112 284.338C57.2659 283.977 57.145 283.63 56.9564 283.319C56.7678 283.007 56.5158 282.739 56.2167 282.532C55.9176 282.325 55.5782 282.183 55.2206 282.115C54.8629 282.048 54.4951 282.056 54.141 282.141C52.0232 282.7 50.6778 286.423 50.5779 288.374C50.5779 288.488 50.6512 289.746 50.7111 290.539C50.6046 290.079 50.5047 289.633 50.3915 289.16C50.165 288.221 49.9186 287.296 49.6522 286.297L49.2126 284.845C49.0794 284.358 48.873 283.859 48.6998 283.366C48.2869 282.221 47.8007 281.082 47.2946 279.943C48.1137 279.743 51.0175 279.004 52.183 278.111C53.3485 277.219 54.5673 275.767 54.5606 274.215C54.5722 273.85 54.5065 273.487 54.3678 273.149C54.229 272.811 54.0204 272.507 53.7557 272.255C53.4909 272.003 53.176 271.811 52.8315 271.689C52.487 271.568 52.1207 271.521 51.7568 271.551C49.5789 271.784 47.6875 275.254 47.2946 277.172C47.2946 277.292 47.1414 278.697 47.0814 279.477C46.7684 278.811 46.4621 278.111 46.1291 277.432C45.15 275.467 44.1311 273.516 43.0721 271.558C42.7524 270.965 42.4461 270.359 42.1331 269.76C42.4261 269.693 45.8893 268.894 47.1947 267.888C48.3535 267.002 49.5856 265.544 49.5723 263.999C49.5848 263.634 49.52 263.271 49.382 262.933C49.2441 262.595 49.0361 262.29 48.7719 262.039C48.5076 261.787 48.193 261.594 47.8489 261.473C47.5047 261.352 47.1387 261.305 46.7751 261.335C44.5973 261.575 42.7058 265.044 42.3062 266.963C42.3062 267.102 42.0931 269.127 42.0731 269.627C41.4071 268.295 40.7411 266.963 40.0751 265.631C39.2405 263.84 38.5263 261.995 37.9373 260.109C38.0705 260.076 41.6935 259.25 43.0322 258.225C44.191 257.339 45.4231 255.88 45.4098 254.335C45.4193 253.971 45.3521 253.608 45.2127 253.271C45.0732 252.935 44.8646 252.631 44.6003 252.38C44.336 252.129 44.0219 251.936 43.6783 251.814C43.3348 251.692 42.9694 251.643 42.6059 251.671C40.4281 251.911 38.5367 255.381 38.1437 257.299C38.1437 257.445 37.9173 259.63 37.9106 260.023C37.9106 259.916 37.8307 259.803 37.7974 259.696C37.254 257.789 36.8818 255.836 36.6852 253.862C36.5653 252.777 36.512 251.724 36.4787 250.705C37.1447 250.626 40.3215 250.206 41.6202 249.413C42.9189 248.621 44.2842 247.342 44.4174 245.804C44.4661 245.443 44.4385 245.076 44.3362 244.727C44.234 244.377 44.0595 244.053 43.824 243.776C43.5885 243.498 43.2973 243.273 42.9693 243.116C42.6413 242.958 42.2838 242.871 41.9199 242.86C39.7288 242.86 37.4711 246.097 36.865 247.955C36.8317 248.061 36.6119 249.127 36.4654 249.906C36.4654 249.44 36.4654 248.967 36.4654 248.528C36.4654 246.869 36.572 245.351 36.6785 244.006C36.7385 243.246 36.8117 242.554 36.8916 241.914C37.5576 241.475 40.0618 239.69 40.841 238.411C41.6202 237.132 42.2196 235.361 41.6535 233.922C41.5315 233.579 41.3388 233.266 41.0877 233.002C40.8367 232.738 40.533 232.53 40.1964 232.391C39.8598 232.253 39.4978 232.186 39.1338 232.196C38.7699 232.206 38.4121 232.293 38.0838 232.45C36.1391 233.463 35.6262 237.379 35.9459 239.31C35.9459 239.477 36.7118 242.034 36.7451 242.014H36.7851C36.6985 242.634 36.6119 243.293 36.532 244.012C36.3988 245.344 36.2656 246.876 36.2256 248.541C36.1606 250.333 36.2029 252.128 36.3522 253.916C36.5063 255.917 36.8384 257.901 37.3445 259.843C37.3445 259.843 37.3445 259.89 37.3445 259.916C36.9982 259.37 36.0125 257.918 35.8926 257.785C34.6139 256.307 31.2706 254.202 29.2326 255.054C28.9013 255.205 28.6054 255.424 28.3645 255.697C28.1235 255.97 27.9427 256.291 27.834 256.639C27.7253 256.986 27.691 257.353 27.7335 257.714C27.776 258.076 27.8942 258.425 28.0805 258.737C28.7731 260.123 30.558 260.795 32.0032 261.002Z" fill="#263238"></path><path d="M69.5922 250.705C69.6255 250.705 70.2915 248.148 70.3181 247.982C70.5845 246.043 69.9652 242.141 67.9938 241.188C67.6614 241.04 67.3016 240.963 66.9375 240.962C66.5734 240.961 66.2132 241.037 65.8804 241.185C65.5475 241.332 65.2495 241.548 65.0054 241.819C64.7614 242.089 64.577 242.407 64.464 242.753C63.9379 244.205 64.6039 245.99 65.4031 247.216C66.3288 248.654 69.5922 250.705 69.5922 250.705Z" fill="#263238"></path><path d="M268.259 161.575C268.259 161.575 265.263 165.911 265.376 166.47C265.489 167.03 266.202 167.076 265.502 167.862C264.803 168.648 263.358 170.113 263.278 170.913C263.322 171.553 263.583 172.159 264.017 172.631C264.017 172.631 263.298 176.114 263.531 176.92C263.764 177.726 266.381 178.252 266.381 178.252L265.682 180.809L273.221 182.967L274.513 178.445L278.995 164.672L268.259 161.575Z" fill="white" stroke="#263238" stroke-linecap="round" stroke-linejoin="round"></path><path d="M278.416 161.036C277.936 160.943 275.925 159.491 272.995 158.965C270.064 158.438 268.932 159.631 268.592 160.849C268.253 162.068 267.587 161.442 268.439 162.268C269.292 163.094 267.806 163.833 267.806 163.833C267.855 164.298 267.75 164.766 267.507 165.165C267.087 166.051 268.386 167.656 268.386 167.656C268.113 168.254 267.923 168.885 267.82 169.534C267.82 170.06 268.273 170.313 268.679 170.047C269.085 169.78 269.891 168.089 269.911 168.921C269.931 169.754 269.065 175.681 269.571 176.587C270.078 177.493 273.527 178.305 274.513 178.452C275.499 178.598 278.629 175.348 280.274 173.337C281.919 171.326 282.998 167.143 282.452 164.872C282.179 163.933 281.661 163.083 280.952 162.409C280.243 161.735 279.368 161.261 278.416 161.036Z" fill="#263238" stroke="#263238" stroke-linecap="round" stroke-linejoin="round"></path><path d="M269.132 168.582C268.959 169.481 268.737 170.371 268.466 171.246C268.106 172.258 267.227 172.578 267.52 173.19C267.813 173.803 268.226 173.697 268.852 173.024C269.548 172.225 270.055 171.281 270.337 170.26C270.471 169.441 270.963 167.716 269.132 168.582Z" fill="white" stroke="#263238" stroke-linecap="round" stroke-linejoin="round"></path><path d="M269.765 171.818C270.973 172.767 272.306 173.545 273.727 174.129C275.741 174.894 277.914 175.142 280.048 174.848C280.714 174.778 281.339 174.49 281.826 174.029C282.372 173.363 282.372 171.978 282.372 171.571C282.372 171.165 284.65 167.169 282.738 163.206C280.827 159.244 272.535 156.686 271.03 156.959C269.525 157.232 266.801 161.328 266.801 161.328C266.801 161.328 263.677 161.914 263.664 163.266C263.664 164.951 265.369 165.464 265.962 167.056C266.784 168.953 268.097 170.596 269.765 171.818Z" fill="white" stroke="#263238" stroke-linecap="round" stroke-linejoin="round"></path><path d="M268.439 162.268C268.439 162.268 271.583 158.811 272.209 158.491C272.669 158.265 274.62 158.451 276.678 159.597" stroke="#263238" stroke-linecap="round" stroke-linejoin="round"></path><path d="M264.87 180.736L262.732 184.646C262.732 184.646 268.113 183.081 271.05 183.081C273.116 183.118 275.176 183.316 277.211 183.673L275.839 179.857C275.839 179.857 268.393 179.071 264.87 180.736Z" fill="white" stroke="#263238" stroke-linecap="round" stroke-linejoin="round"></path><path d="M285.116 232.318C285.126 233.952 285.028 235.585 284.823 237.206C284.53 238.672 282.578 240.923 281.793 241.316C281.007 241.709 280.034 241.802 279.835 241.316C279.635 240.829 279.348 241.023 279.641 238.478C279.934 235.934 281.013 231.046 281.013 231.046L285.116 232.318Z" fill="white" stroke="#263238" stroke-linecap="round" stroke-linejoin="round"></path><path d="M285.802 229.188L285.136 232.318C284.301 232.491 283.443 232.523 282.598 232.411C282.235 232.355 281.895 232.197 281.617 231.956C281.34 231.714 281.138 231.398 281.033 231.046L281.326 228.302L285.802 229.188Z" fill="white" stroke="#263238" stroke-linecap="round" stroke-linejoin="round"></path><path d="M285.323 187.097C285.323 187.097 286.695 195.408 287.574 201.569C288.317 206.521 288.609 211.529 288.446 216.534C288.246 219.471 287.074 228.895 286.681 229.574C286.288 230.253 283.651 230.553 282.579 230.067C281.506 229.581 281.014 228.988 281.014 227.13C281.014 225.272 281.986 207.929 281.986 207.929L285.323 187.097Z" fill="white" stroke="#263238" stroke-linecap="round" stroke-linejoin="round"></path><path d="M264.19 294.482C263.805 294.484 263.425 294.58 263.085 294.762C262.505 295.075 259.988 295.761 258.37 296.333C255.839 297.233 253.867 296.753 254.067 297.412C254.267 298.072 258.216 299.41 260.501 299.41C262.785 299.41 263.884 298.878 264.976 298.898C266.068 298.918 265.263 299.444 267.074 299.65C268.886 299.857 269.485 299.863 270.118 298.871C270.75 297.879 271.11 297.626 270.91 296.367V296.36C270.811 295.819 270.523 295.33 270.097 294.982C269.672 294.633 269.136 294.446 268.586 294.455L264.19 294.482Z" fill="#263238" stroke="#263238" stroke-linecap="round" stroke-linejoin="round"></path><path d="M278.323 293.27C277.986 293.265 277.656 293.357 277.371 293.536C276.871 293.849 274.707 294.508 273.315 295.075C271.137 295.954 269.405 295.368 269.605 296.087C269.805 296.806 272.136 297.779 274.127 297.892C275.203 297.957 276.283 297.917 277.351 297.772C279.495 297.652 278.13 298.438 278.902 298.724C279.443 298.895 280.007 298.976 280.574 298.964C282.838 299.084 283.118 299.264 283.638 298.218C284.157 297.172 284.457 296.886 284.244 295.554V295.514C284.188 294.975 283.951 294.471 283.571 294.085C283.191 293.699 282.691 293.453 282.153 293.39L278.323 293.27Z" fill="#263238" stroke="#263238" stroke-linecap="round" stroke-linejoin="round"></path><path d="M258.023 222.341C258.023 222.341 258.416 236.033 258.416 240.629C258.416 245.224 259.588 265.997 261.153 273.529C262.371 279.973 263.187 286.485 263.597 293.03C263.597 294.202 263.211 294.495 263.99 295.274C264.77 296.053 267.707 297.525 268.786 297.039C269.864 296.553 270.444 294.688 270.444 294.688C270.444 294.688 270.444 284.518 270.744 277.865C271.043 271.212 270.544 262.514 270.544 262.514C270.544 262.514 274.36 280.116 275.432 283.639C276.504 287.162 277.39 293.549 277.59 294.815C277.79 296.08 278.642 296.147 279.735 296.147C281.067 296.147 282.672 295.973 283.258 294.994C283.844 294.015 282.592 283.746 282.592 279.643C282.592 275.541 279.382 250.019 279.641 243.746C279.901 237.472 281.792 226.63 281.206 223.399C280.855 221.485 280.659 219.545 280.62 217.599C280.62 217.599 260.467 215.294 258.023 222.341Z" fill="#5E5E5E" stroke="#263238" stroke-linecap="round" stroke-linejoin="round"></path><path d="M236.192 158.498C236.192 158.498 236.571 157.832 237.137 156.707C237.542 155.658 237.701 154.53 237.604 153.41C237.604 152.657 238.449 152.378 238.449 151.532C238.449 150.686 237.231 150.773 236.571 151.339C235.912 151.905 235.719 153.603 235.719 153.603C235.719 153.603 234.68 151.838 234.12 150.586C233.621 149.467 232.928 147.536 231.989 147.256C231.05 146.976 231.09 148.135 231.183 148.415C231.34 148.963 231.536 149.5 231.769 150.02C231.989 150.453 232.435 151.718 232.435 151.718C232.435 151.718 231.103 150.679 230.644 150.679C230.522 150.677 230.401 150.708 230.296 150.769C230.19 150.83 230.103 150.919 230.045 151.027C229.986 151.134 229.958 151.255 229.964 151.377C229.97 151.499 230.009 151.617 230.078 151.718C230.078 151.718 228.946 152.191 229.232 152.944C229.518 153.696 229.605 153.976 229.605 153.976C229.605 153.976 229.325 154.356 229.605 155.308C229.885 156.26 231.117 157.852 231.603 158.638C231.874 159.078 232.227 159.463 232.642 159.77L236.192 158.498Z" fill="white" stroke="#263238" stroke-linecap="round" stroke-linejoin="round"></path><path d="M230.098 151.685C230.399 152.148 230.749 152.576 231.143 152.963" stroke="#263238" stroke-linecap="round" stroke-linejoin="round"></path><path d="M229.598 153.942C229.784 154.249 230.008 154.531 230.264 154.782" stroke="#263238" stroke-linecap="round" stroke-linejoin="round"></path><path d="M233.268 163.366L231.609 159.743C231.937 159.272 232.358 158.873 232.846 158.571C233.334 158.268 233.879 158.069 234.447 157.985C236.498 157.592 236.791 157.985 236.791 157.985L237.87 161.701C237.87 161.701 234.347 161.995 233.268 163.366Z" fill="white" stroke="#263238" stroke-linecap="round" stroke-linejoin="round"></path><path d="M256.291 182.581L243.244 170.013C243.244 170.013 240.214 164.832 239.435 162.974C238.656 161.116 237.577 160.623 235.812 160.823C234.047 161.022 232.482 162.874 232.482 164.246C232.482 165.025 234.48 169.72 236.305 173.776C236.398 174.063 238.969 182.001 240.414 182.581C241.859 183.16 257.164 199.038 257.164 199.038L262.732 184.645L256.291 182.581Z" fill="white" stroke="#263238" stroke-linecap="round" stroke-linejoin="round"></path><path d="M254.74 196.274C255.552 203.993 255.226 224.246 255.226 225.625C255.226 227.29 255.126 227.383 255.712 227.876C256.298 228.369 261.859 228.542 267.241 228.469C272.622 228.395 279.362 227.263 279.855 227.263C280.25 227.235 280.633 227.114 280.973 226.91C281.313 226.707 281.601 226.426 281.813 226.091C282.132 225.605 285.316 205.645 286.248 196.481C287.021 188.902 285.249 187.27 285.296 187.097C285.396 186.704 277.564 183.867 276.878 183.673C276.192 183.48 272.282 180.836 263.478 184.16C263.478 184.16 259.861 183.014 258.549 183.58C258.549 183.58 261.087 188.655 259.182 193.524C257.277 198.392 254.74 196.274 254.74 196.274Z" fill="#D68029" stroke="#263238" stroke-linecap="round" stroke-linejoin="round"></path><path d="M255.319 215.301C255.319 216.54 255.319 217.725 255.319 218.824C258.896 218.464 270.178 217.452 283.391 217.439C283.564 216.327 283.751 215.154 283.931 213.936C270.757 213.922 259.402 214.901 255.319 215.301Z" fill="white" stroke="#263238" stroke-linecap="round" stroke-linejoin="round"></path><path d="M255.293 210.06C259.515 209.634 272.775 208.448 284.637 209.147C285.303 204.485 285.969 199.777 286.275 196.493C287.048 188.914 285.276 187.283 285.323 187.109C285.369 186.936 283.265 186.031 281.14 185.218C281.973 186.643 283.391 189.933 283.258 195.668C283.165 199.497 282.839 202.994 282.519 205.544C277.417 205.338 272.236 205.431 267.68 205.644C267.76 203.646 267.78 201.262 267.727 198.591C267.629 193.503 266.614 188.474 264.73 183.746C264.337 183.873 263.951 184.006 263.538 184.159C262.648 183.885 261.74 183.674 260.821 183.526C262.964 188.286 264.132 193.426 264.257 198.645C264.31 201.402 264.257 203.799 264.191 205.817C260.288 206.057 257.124 206.35 255.279 206.543C255.266 207.702 255.279 208.881 255.293 210.06Z" fill="white" stroke="#263238" stroke-linecap="round" stroke-linejoin="round"></path><path d="M278.869 204.1C276.072 208.096 271.649 213.983 268.213 216.201" stroke="#263238" stroke-linecap="round" stroke-linejoin="round"></path><path d="M281.593 200.003C281.593 200.003 281.087 200.815 280.261 202.088" stroke="#263238" stroke-linecap="round" stroke-linejoin="round"></path><path d="M273.494 213.909C271.316 215.883 268.959 217.651 266.455 219.191" stroke="#263238" stroke-linecap="round" stroke-linejoin="round"></path><path d="M278.955 277.712C279.999 278.81 281.231 279.712 282.592 280.376C282.592 280.09 282.592 279.824 282.592 279.577C282.592 275.468 279.362 250 279.655 243.74C279.708 242.601 279.815 241.309 279.948 239.937C279.841 239.661 279.71 239.396 279.555 239.144C277.961 236.659 276.524 234.077 275.252 231.412L280.334 236.274C280.374 235.908 280.421 235.535 280.461 235.168C279.129 232.737 277.33 229.401 277.211 228.382L271.217 231.612C271.217 231.612 270.431 254.829 270.551 262.461C270.551 262.461 271.13 265.125 271.883 268.582C273.734 272.804 277.037 275.748 278.955 277.712Z" fill="#263238" stroke="#263238" stroke-linecap="round" stroke-linejoin="round"></path><path d="M265.509 291.519C265.638 293.02 265.62 294.53 265.456 296.027" stroke="#263238" stroke-linecap="round" stroke-linejoin="round"></path><path d="M265.076 285.911C265.163 287.21 265.249 288.362 265.323 289.301" stroke="#263238" stroke-linecap="round" stroke-linejoin="round"></path><path d="M262.545 235.048C262.785 244.851 263.371 266.383 263.877 271.185C264.257 274.662 264.603 279.47 264.89 283.553" stroke="#263238" stroke-linecap="round" stroke-linejoin="round"></path></svg>