<svg width="512" height="512" viewBox="0 0 512 512" fill="none" xmlns="http://www.w3.org/2000/svg">
<path d="M437 432.25H22.5C14.253 432.25 7.5 425.5 7.5 417.25V379.75H203.501L218.501 394.75H293.5L308.5 379.75H504.5V417.25C504.5 425.499 497.749 432.25 489.5 432.25H452M429.5 147.25V132.25M429.5 177.25V162.25" stroke="#D68029" stroke-width="15.0001" stroke-miterlimit="22.9256"/>
<path d="M489.5 379.75V94.75C489.5 86.5 482.748 79.75 474.5 79.75H37.5C29.252 79.75 22.5 86.502 22.5 94.75V132.25M22.5 147.25V379.75M52.5 379.75V109.75H459.5V379.749" stroke="#D68029" stroke-width="15.0001" stroke-miterlimit="22.9256"/>
<path d="M302.875 160.375V197.875C302.875 223.654 281.782 244.75 256 244.75C230.218 244.75 209.125 223.657 209.125 197.875V160.375M302.875 190.375H209.125" stroke="#D68029" stroke-width="15.0001" stroke-miterlimit="22.9256"/>
<path d="M302.875 329.124V291.624C302.875 265.845 281.782 244.749 256 244.749C230.218 244.749 209.125 265.842 209.125 291.624V329.124M302.875 299.124H209.125M186.625 160.375H325.375M186.625 329.124H325.375" stroke="#D68029" stroke-width="15.0001" stroke-miterlimit="22.9256"/>
</svg>
