<svg width="512" height="512" viewBox="0 0 512 512" fill="none" xmlns="http://www.w3.org/2000/svg">
<path fill-rule="evenodd" clip-rule="evenodd" d="M305.003 286.381C305.027 286.65 305.027 286.931 305.003 287.2C304.137 300.92 296.382 311.783 282.557 318.613C276.476 321.534 269.921 323.366 262.979 324.109V336.377C262.979 340.234 259.854 343.353 256.003 343.353C252.152 343.353 249.026 340.233 249.026 336.377V324.161C235.664 323.095 222.816 319.42 210.765 313.187C209.95 312.766 209.227 312.189 208.636 311.489C208.044 310.788 207.597 309.978 207.318 309.105C207.04 308.231 206.937 307.311 207.014 306.398C207.091 305.484 207.348 304.595 207.768 303.781C208.619 302.139 210.087 300.901 211.85 300.34C213.612 299.78 215.525 299.941 217.169 300.79C229.401 307.111 242.571 310.395 256.326 310.546C263.642 310.471 270.414 308.96 276.454 306.063C285.702 301.492 290.372 295.329 291.058 286.731C290.461 278.391 285.79 272.251 276.402 267.434C261.906 260.317 247.828 265.761 230.146 257.126C230.075 257.091 229.987 257.051 229.911 257.003C215.507 249.424 207.998 238.812 207.617 225.444C207.606 225.274 207.617 225.099 207.617 224.929C208.25 210.946 216.034 200.03 230.128 193.369C235.858 190.542 242.19 188.739 249.026 187.961V175.623C249.026 171.772 252.152 168.647 256.003 168.647C259.854 168.647 262.979 171.772 262.979 175.623V187.885C277.173 189.073 289.716 192.691 301.153 198.889C304.542 200.721 305.806 204.953 303.974 208.337C302.142 211.725 297.899 212.99 294.516 211.158C283.36 205.123 270.84 201.945 256.249 201.466C248.962 201.391 241.755 203.249 236.137 205.966C226.685 210.426 222.055 216.572 221.569 225.298C221.89 233.212 226.713 239.527 236.284 244.596C250.393 251.679 263.549 246.097 282.453 254.867C282.517 254.897 282.582 254.92 282.645 254.961C296.727 262.138 304.254 272.721 305.003 286.381ZM256.002 362.459C314.697 362.459 362.462 314.704 362.462 256.004C362.462 197.31 314.696 149.555 256.002 149.555C197.302 149.555 149.547 197.31 149.547 256.004C149.547 314.704 197.302 362.459 256.002 362.459ZM256.002 135.601C189.605 135.601 135.593 189.613 135.593 256.004C135.593 322.395 189.605 376.413 256.002 376.413C322.399 376.413 376.411 322.395 376.411 256.004C376.41 189.613 322.398 135.601 256.002 135.601ZM256.002 390.431C330.119 390.431 390.422 330.127 390.422 256.004C390.422 181.887 330.119 121.584 256.002 121.584C181.879 121.584 121.575 181.887 121.575 256.004C121.575 330.127 181.879 390.431 256.002 390.431ZM413.853 394.112C424.745 394.112 433.601 402.967 433.601 413.86C433.601 424.741 424.746 433.608 413.853 433.608C402.972 433.608 394.116 424.741 394.116 413.86C394.116 402.967 402.972 394.112 413.853 394.112ZM98.1452 433.609C87.2641 433.609 78.4086 424.742 78.4086 413.861C78.4086 402.968 87.2641 394.113 98.1452 394.113C109.037 394.113 117.893 402.968 117.893 413.861C117.894 424.741 109.038 433.609 98.1452 433.609ZM98.1452 117.89C87.2641 117.89 78.4086 109.034 78.4086 98.1534C78.4086 87.2611 87.2641 78.4055 98.1452 78.4055C109.037 78.4055 117.893 87.2611 117.893 98.1534C117.894 109.034 109.038 117.89 98.1452 117.89ZM413.853 78.4055C424.745 78.4055 433.601 87.2611 433.601 98.1534C433.601 109.034 424.746 117.89 413.853 117.89C402.972 117.89 394.116 109.034 394.116 98.1534C394.116 87.2611 402.972 78.4055 413.853 78.4055ZM482.854 250.028L445.324 227.359C442.018 225.369 437.733 226.428 435.743 229.723C433.753 233.024 434.812 237.314 438.101 239.305L454.197 249.026H404.206C402.556 213.37 388.245 180.956 365.688 156.185L395.491 126.382C417.726 140.885 447.554 124.916 447.554 98.1534C447.554 79.5698 432.436 64.4515 413.853 64.4515C387.051 64.4515 371.132 94.3349 385.624 116.515L355.82 146.318C331.051 123.761 298.642 109.45 262.979 107.799V57.8088L272.701 73.904C274.692 77.2054 278.982 78.2529 282.283 76.2633C283.864 75.3069 285.001 73.762 285.445 71.9678C285.888 70.1736 285.601 68.2769 284.647 66.694L261.978 29.1583C259.264 24.668 252.748 24.666 250.032 29.1521L227.363 66.694C224.541 71.3635 227.957 77.2699 233.326 77.2699C234.528 77.2721 235.71 76.9633 236.758 76.3735C237.805 75.7837 238.681 74.933 239.303 73.904L249.024 57.8088V107.799C213.362 109.45 180.948 123.761 156.183 146.318L126.374 116.515C140.88 94.3134 124.941 64.4515 98.1452 64.4515C79.5678 64.4515 64.4545 79.5698 64.4545 98.1534C64.4545 124.881 94.2161 140.897 116.518 126.382L146.316 156.185C123.752 180.955 109.454 213.37 107.804 249.026H57.8006L73.9081 239.305C77.1972 237.314 78.257 233.024 76.2664 229.723C74.2767 226.428 69.9862 225.369 66.6848 227.359L29.1552 250.028C24.6732 252.733 24.6609 259.274 29.1552 261.974L66.6848 284.643C69.9299 286.612 74.2542 285.602 76.2664 282.279C78.257 278.99 77.1972 274.699 73.9081 272.697L57.8006 262.975H107.804C109.454 298.638 123.753 331.058 146.316 355.828L116.518 385.631C94.2509 371.114 64.4545 387.1 64.4545 413.86C64.4545 432.437 79.5667 447.562 98.1452 447.562C124.933 447.562 140.883 417.704 126.374 395.498L156.183 365.683C180.948 388.252 213.362 402.551 249.024 404.214V454.204L239.303 438.108C237.318 434.807 233.027 433.748 229.727 435.737C226.426 437.727 225.372 442.024 227.363 445.319L250.032 482.849C252.742 487.337 259.278 487.323 261.978 482.849L284.647 445.319C286.632 442.024 285.578 437.728 282.283 435.737C281.498 435.264 280.628 434.95 279.722 434.812C278.815 434.675 277.891 434.718 277.001 434.938C276.111 435.158 275.274 435.551 274.536 436.095C273.798 436.639 273.175 437.323 272.701 438.108L262.979 454.204V404.214C298.642 402.551 331.05 388.253 355.82 365.683L385.624 395.498C371.13 417.681 387.061 447.562 413.853 447.562C432.436 447.562 447.554 432.437 447.554 413.86C447.554 387.064 417.693 371.125 395.491 385.631L365.688 355.828C388.245 331.058 402.556 298.638 404.206 262.975H454.197L438.101 272.697C432.083 276.346 434.697 285.644 441.719 285.644C442.947 285.644 444.182 285.327 445.324 284.643L482.854 261.974C487.336 259.274 487.328 252.743 482.854 250.028Z" fill="#D68029"/>
</svg>
