<svg width="512" height="512" viewBox="0 0 512 512" fill="none" xmlns="http://www.w3.org/2000/svg">
<g clip-path="url(#clip0_3353_1721)">
<path d="M510.908 460.688C506.198 442.445 487.59 431.474 469.347 436.184C463.447 437.708 458.062 440.784 453.753 445.093C449.443 449.402 446.367 454.787 444.844 460.688H288.904C287.372 454.826 284.306 449.479 280.022 445.195C275.738 440.911 270.391 437.845 264.529 436.312V383.928H469.22C492.76 383.901 511.837 364.824 511.864 341.284V290.112C511.846 283.467 510.269 276.919 507.261 270.994C504.252 265.069 499.896 259.932 494.542 255.996C499.896 252.061 504.252 246.924 507.261 240.999C510.269 235.074 511.846 228.526 511.864 221.881V170.708C511.846 164.063 510.269 157.516 507.261 151.591C504.252 145.666 499.896 140.529 494.542 136.593C499.896 132.657 504.252 127.521 507.261 121.596C510.269 115.671 511.846 109.123 511.864 102.478V51.3051C511.837 27.7657 492.76 8.68885 469.22 8.66113H42.7802C19.2407 8.68885 0.163951 27.7657 0.136232 51.3051V102.478C0.154711 109.123 1.73148 115.671 4.73985 121.596C7.74823 127.521 12.1043 132.657 17.4582 136.593C12.1043 140.529 7.74823 145.666 4.73985 151.591C1.73148 157.516 0.154711 164.063 0.136232 170.708V221.881C0.154711 228.526 1.73148 235.074 4.73985 240.999C7.74823 246.924 12.1043 252.061 17.4582 255.996C12.1043 259.932 7.74823 265.069 4.73985 270.994C1.73148 276.919 0.154711 283.467 0.136232 290.112V341.284C0.163951 364.824 19.2407 383.901 42.7802 383.928H247.472V436.312C241.61 437.845 236.262 440.911 231.978 445.195C227.694 449.479 224.629 454.826 223.096 460.688H67.1556C62.4455 442.445 43.8378 431.474 25.5947 436.184C7.3516 440.895 -3.61857 459.502 1.09146 477.745C5.80149 495.988 24.4092 506.959 42.6523 502.249C48.5529 500.725 53.9378 497.649 58.247 493.34C62.5561 489.031 65.6323 483.646 67.1556 477.745H223.096C227.722 495.918 246.203 506.9 264.375 502.275C270.291 500.769 275.692 497.696 280.008 493.379C284.325 489.062 287.398 483.662 288.904 477.745H444.845C449.555 495.988 468.163 506.959 486.406 502.249C504.649 497.539 515.619 478.931 510.908 460.688ZM34.2514 486.274C24.8303 486.274 17.1938 478.638 17.1938 469.216C17.1938 459.795 24.8303 452.159 34.2514 452.159C43.6726 452.159 51.309 459.795 51.309 469.216C51.309 478.638 43.6715 486.274 34.2514 486.274ZM17.1938 102.478V51.3051C17.1938 37.174 28.6491 25.7187 42.7802 25.7187H469.22C483.352 25.7187 494.807 37.174 494.807 51.3051V102.478C494.807 116.609 483.352 128.064 469.22 128.064H42.7802C28.6491 128.064 17.1938 116.609 17.1938 102.478ZM17.1938 221.881V170.708C17.1938 156.577 28.6491 145.122 42.7802 145.122H469.22C483.352 145.122 494.807 156.577 494.807 170.708V221.881C494.807 236.012 483.352 247.468 469.22 247.468H42.7802C28.6491 247.468 17.1938 236.012 17.1938 221.881ZM42.7802 366.871C28.6491 366.871 17.1938 355.416 17.1938 341.284V290.112C17.1938 275.98 28.6491 264.525 42.7802 264.525H469.22C483.352 264.525 494.807 275.98 494.807 290.112V341.284C494.807 355.416 483.352 366.871 469.22 366.871H42.7802ZM256 486.274C246.579 486.274 238.943 478.638 238.943 469.216C238.943 459.795 246.579 452.159 256 452.159C265.421 452.159 273.058 459.795 273.058 469.216C273.058 478.638 265.42 486.274 256 486.274ZM477.749 486.274C468.328 486.274 460.692 478.638 460.692 469.216C460.692 459.795 468.328 452.159 477.749 452.159C487.17 452.159 494.807 459.795 494.807 469.216C494.807 478.638 487.169 486.274 477.749 486.274Z" fill="#D68029"/>
<path d="M102.481 51.3052H59.8374C57.5754 51.3052 55.4061 52.2037 53.8066 53.8032C52.2072 55.4027 51.3086 57.572 51.3086 59.834V93.9492C51.3086 96.2112 52.2072 98.3805 53.8066 99.98C55.4061 101.579 57.5754 102.478 59.8374 102.478H102.481C104.743 102.478 106.913 101.579 108.512 99.98C110.112 98.3805 111.01 96.2112 111.01 93.9492V59.834C111.01 57.572 110.112 55.4027 108.512 53.8032C106.913 52.2037 104.743 51.3052 102.481 51.3052ZM93.9526 85.4204H68.3662V68.3628H93.9526V85.4204ZM102.481 170.708H59.8374C57.5754 170.708 55.4061 171.607 53.8066 173.206C52.2072 174.806 51.3086 176.975 51.3086 179.237V213.352C51.3086 215.614 52.2072 217.784 53.8066 219.383C55.4061 220.983 57.5754 221.881 59.8374 221.881H102.481C104.743 221.881 106.913 220.983 108.512 219.383C110.112 217.784 111.01 215.614 111.01 213.352V179.237C111.01 176.975 110.112 174.806 108.512 173.206C106.913 171.607 104.743 170.708 102.481 170.708ZM93.9526 204.824H68.3662V187.766H93.9526V204.824ZM102.481 290.112H59.8374C57.5754 290.112 55.4061 291.01 53.8066 292.61C52.2072 294.209 51.3086 296.378 51.3086 298.64V332.756C51.3086 335.018 52.2072 337.187 53.8066 338.786C55.4061 340.386 57.5754 341.284 59.8374 341.284H102.481C104.743 341.284 106.913 340.386 108.512 338.786C110.112 337.187 111.01 335.018 111.01 332.756V298.64C111.01 296.378 110.112 294.209 108.512 292.61C106.913 291.01 104.743 290.112 102.481 290.112ZM93.9526 324.227H68.3662V307.169H93.9526V324.227ZM452.162 42.7764H366.874C364.612 42.7764 362.443 43.6749 360.844 45.2744C359.244 46.8739 358.345 49.0432 358.345 51.3052C358.345 53.5671 359.244 55.7365 360.844 57.3359C362.443 58.9354 364.612 59.834 366.874 59.834H452.162C454.424 59.834 456.594 58.9354 458.193 57.3359C459.793 55.7365 460.691 53.5671 460.691 51.3052C460.691 49.0432 459.793 46.8739 458.193 45.2744C456.594 43.6749 454.424 42.7764 452.162 42.7764ZM452.162 76.8916H366.874C364.612 76.8916 362.443 77.7901 360.844 79.3896C359.244 80.9891 358.345 83.1584 358.345 85.4204C358.345 87.6824 359.244 89.8517 360.844 91.4512C362.443 93.0506 364.612 93.9492 366.874 93.9492H452.162C454.424 93.9492 456.594 93.0506 458.193 91.4512C459.793 89.8517 460.691 87.6824 460.691 85.4204C460.691 83.1584 459.793 80.9891 458.193 79.3896C456.594 77.7901 454.424 76.8916 452.162 76.8916ZM452.162 162.18H366.874C364.612 162.18 362.443 163.078 360.844 164.678C359.244 166.277 358.345 168.446 358.345 170.708C358.345 172.97 359.244 175.14 360.844 176.739C362.443 178.339 364.612 179.237 366.874 179.237H452.162C454.424 179.237 456.594 178.339 458.193 176.739C459.793 175.14 460.691 172.97 460.691 170.708C460.691 168.446 459.793 166.277 458.193 164.678C456.594 163.078 454.424 162.18 452.162 162.18ZM452.162 196.295H366.874C364.612 196.295 362.443 197.193 360.844 198.793C359.244 200.392 358.345 202.562 358.345 204.824C358.345 207.086 359.244 209.255 360.844 210.854C362.443 212.454 364.612 213.352 366.874 213.352H452.162C454.424 213.352 456.594 212.454 458.193 210.854C459.793 209.255 460.691 207.086 460.691 204.824C460.691 202.562 459.793 200.392 458.193 198.793C456.594 197.193 454.424 196.295 452.162 196.295ZM452.162 281.583H366.874C364.612 281.583 362.443 282.481 360.844 284.081C359.244 285.68 358.345 287.85 358.345 290.112C358.345 292.374 359.244 294.543 360.844 296.142C362.443 297.742 364.612 298.64 366.874 298.64H452.162C454.424 298.64 456.594 297.742 458.193 296.142C459.793 294.543 460.691 292.374 460.691 290.112C460.691 287.85 459.793 285.68 458.193 284.081C456.594 282.481 454.424 281.583 452.162 281.583ZM452.162 315.698H366.874C364.612 315.698 362.443 316.597 360.844 318.196C359.244 319.796 358.345 321.965 358.345 324.227C358.345 326.489 359.244 328.658 360.844 330.258C362.443 331.857 364.612 332.756 366.874 332.756H452.162C454.424 332.756 456.594 331.857 458.193 330.258C459.793 328.658 460.691 326.489 460.691 324.227C460.691 321.965 459.793 319.796 458.193 318.196C456.594 316.597 454.424 315.698 452.162 315.698Z" fill="#D68029"/>
</g>
<defs>
<clipPath id="clip0_3353_1721">
<rect width="512" height="512" fill="white"/>
</clipPath>
</defs>
</svg>
