<svg width="75" height="75" viewBox="0 0 75 75" fill="none" xmlns="http://www.w3.org/2000/svg">
<path d="M68.9392 18.6218H63.7207V13.4373C63.7207 12.6793 63.1061 12.064 62.3474 12.064H56.3049V9.28345C56.3049 8.52517 55.6903 7.91016 54.9316 7.91016H15.3809C14.6221 7.91016 14.0076 8.52517 14.0076 9.28345V12.064H7.96508C7.20637 12.064 6.59179 12.6793 6.59179 13.4373V18.6218H1.37329C0.614575 18.6218 0 19.2368 0 19.9951V55.1513C0 55.9101 0.614575 56.5246 1.37329 56.5246H6.59179V61.7771C6.59179 62.5354 7.20637 63.1504 7.96508 63.1504H14.0076V65.863C14.0076 66.6217 14.6221 67.2363 15.3809 67.2363H54.9316C55.6903 67.2363 56.3049 66.6217 56.3049 65.863V63.1504H62.3474C63.1061 63.1504 63.7207 62.5354 63.7207 61.7771V56.5246H68.9392C69.6979 56.5246 70.3125 55.9101 70.3125 55.1513V19.9951C70.3125 19.2368 69.6979 18.6218 68.9392 18.6218ZM45.4298 35.9253L39.5074 30.003L46.6403 22.87L53.5583 29.788V35.9253H45.4298ZM16.7541 35.9253V16.6992H53.5583V25.9037L47.6111 19.9564C47.4837 19.8289 47.3323 19.7277 47.1658 19.6587C46.9992 19.5896 46.8206 19.5541 46.6403 19.5541C46.46 19.5541 46.2815 19.5896 46.1149 19.6587C45.9484 19.7277 45.797 19.8289 45.6696 19.9564L37.5655 28.0606L35.2803 25.7758C35.0227 25.5183 34.6735 25.3736 34.3093 25.3736C33.9451 25.3736 33.5959 25.5183 33.3383 25.7758L23.1893 35.9253H16.7541ZM34.3092 28.6894L41.5453 35.9253H27.073L34.3092 28.6894ZM53.5583 10.6567V13.9526H16.7541V10.6567H53.5583ZM9.33837 60.4038V43.0664C9.33837 42.3081 8.7238 41.6931 7.96508 41.6931C7.20637 41.6931 6.59179 42.3081 6.59179 43.0664V53.7781H2.74658V21.3684H6.59179V32.0346C6.59179 32.7929 7.20637 33.4079 7.96508 33.4079C8.7238 33.4079 9.33837 32.7929 9.33837 32.0346V14.8106H14.0076V60.4038H9.33837ZM16.7541 64.4897V38.6719H53.5583V64.4897H16.7541ZM60.9741 60.4038H56.3049V14.8106H60.9741V60.4038ZM67.5659 53.7781H63.7207V21.3684H67.5659V53.7781Z" fill="black"/>
<path d="M7.96509 35.7591C7.6012 35.7603 7.25242 35.9047 6.99434 36.1612C6.7375 36.4193 6.59285 36.7683 6.5918 37.1324C6.5918 37.4939 6.73857 37.8479 6.99434 38.1032C7.24922 38.3585 7.60408 38.5057 7.96509 38.5057C8.3261 38.5057 8.68096 38.3585 8.93584 38.1032C9.19266 37.8453 9.33731 37.4964 9.33838 37.1324C9.33838 36.7711 9.1916 36.4167 8.93584 36.1612C8.67776 35.9047 8.32897 35.7603 7.96509 35.7591ZM48.8891 41.4914H21.4233C20.6646 41.4914 20.05 42.1068 20.05 42.8647V48.3578C20.05 49.1165 20.6646 49.7311 21.4233 49.7311H48.8891C49.6479 49.7311 50.2624 49.1165 50.2624 48.3578V42.8647C50.2624 42.1068 49.6479 41.4914 48.8891 41.4914ZM47.5158 46.9845H22.7966V44.238H47.5158V46.9845ZM48.8891 53.0463C48.5282 53.0463 48.1733 53.1918 47.9184 53.4489C47.6614 53.7067 47.5167 54.0556 47.5158 54.4196C47.5158 54.7805 47.6626 55.1346 47.9184 55.3899C48.1733 55.6461 48.5281 55.7929 48.8891 55.7929C49.2501 55.7929 49.605 55.6461 49.8599 55.3899C50.1166 55.1321 50.2613 54.7835 50.2624 54.4196C50.2624 54.0571 50.1157 53.7042 49.8599 53.4489C49.605 53.1918 49.2501 53.0463 48.8891 53.0463ZM21.4233 55.7925H43.396C44.1547 55.7925 44.7693 55.1775 44.7693 54.4192C44.7693 53.6605 44.1547 53.0459 43.396 53.0459H21.4233C20.6646 53.0459 20.05 53.6605 20.05 54.4192C20.05 55.1775 20.6646 55.7925 21.4233 55.7925ZM48.8891 58.7674H21.4233C20.6646 58.7674 20.05 59.3824 20.05 60.1407C20.05 60.8994 20.6646 61.5139 21.4233 61.5139H48.8891C49.6479 61.5139 50.2624 60.8994 50.2624 60.1407C50.2624 59.3824 49.6479 58.7674 48.8891 58.7674ZM23.939 19.1682C21.5912 19.1682 19.6806 21.0787 19.6806 23.4266C19.6806 25.7754 21.5911 27.6855 23.939 27.6855C26.2879 27.6855 28.1979 25.7753 28.1979 23.4266C28.1979 21.0788 26.2877 19.1682 23.939 19.1682ZM23.939 24.9389C23.1057 24.9389 22.4272 24.2609 22.4272 23.4266C22.4272 22.5931 23.1056 21.9147 23.939 21.9147C24.7733 21.9147 25.4514 22.5931 25.4514 23.4266C25.4514 24.2609 24.7733 24.9389 23.939 24.9389Z" fill="black"/>
</svg>
