<svg width="512" height="512" viewBox="0 0 512 512" fill="none" xmlns="http://www.w3.org/2000/svg">
<g clip-path="url(#clip0_3353_1623)">
<path d="M232 32C232 29.8783 231.157 27.8434 229.657 26.3431C228.157 24.8429 226.122 24 224 24C221.878 24 219.843 24.8429 218.343 26.3431C216.843 27.8434 216 29.8783 216 32C216 34.1217 216.843 36.1566 218.343 37.6569C219.843 39.1571 221.878 40 224 40C226.122 40 228.157 39.1571 229.657 37.6569C231.157 36.1566 232 34.1217 232 32ZM296 32C296 29.8783 295.157 27.8434 293.657 26.3431C292.157 24.8429 290.122 24 288 24C285.878 24 283.843 24.8429 282.343 26.3431C280.843 27.8434 280 29.8783 280 32C280 34.1217 280.843 36.1566 282.343 37.6569C283.843 39.1571 285.878 40 288 40C290.122 40 292.157 39.1571 293.657 37.6569C295.157 36.1566 296 34.1217 296 32Z" fill="#D68029"/>
<path d="M504 96H416V40C416 29.3913 411.786 19.2172 404.284 11.7157C396.783 4.21427 386.609 0 376 0L136 0C125.391 0 115.217 4.21427 107.716 11.7157C100.214 19.2172 96 29.3913 96 40V96H32C29.8783 96 27.8434 96.8429 26.3431 98.3431C24.8429 99.8434 24 101.878 24 104V248C24 250.122 24.8429 252.157 26.3431 253.657C27.8434 255.157 29.8783 256 32 256H96V320H8C5.87827 320 3.84344 320.843 2.34315 322.343C0.842855 323.843 0 325.878 0 328L0 424C0 426.122 0.842855 428.157 2.34315 429.657C3.84344 431.157 5.87827 432 8 432H96V472C96 482.609 100.214 492.783 107.716 500.284C115.217 507.786 125.391 512 136 512H376C386.609 512 396.783 507.786 404.284 500.284C411.786 492.783 416 482.609 416 472V436.72C501.36 412.32 500.64 291.44 416 267.44V224H504C506.122 224 508.157 223.157 509.657 221.657C511.157 220.157 512 218.122 512 216V104C512 101.878 511.157 99.8434 509.657 98.3431C508.157 96.8429 506.122 96 504 96ZM112 40C112 33.6348 114.529 27.5303 119.029 23.0294C123.53 18.5286 129.635 16 136 16H376C382.365 16 388.47 18.5286 392.971 23.0294C397.471 27.5303 400 33.6348 400 40V96H384V40C384 37.8783 383.157 35.8434 381.657 34.3431C380.157 32.8429 378.122 32 376 32H320C317.878 32 315.843 32.8429 314.343 34.3431C312.843 35.8434 312 37.8783 312 40C312 42.1217 311.157 44.1566 309.657 45.6569C308.157 47.1571 306.122 48 304 48H208C205.878 48 203.843 47.1571 202.343 45.6569C200.843 44.1566 200 42.1217 200 40C200 37.8783 199.157 35.8434 197.657 34.3431C196.157 32.8429 194.122 32 192 32H136C133.878 32 131.843 32.8429 130.343 34.3431C128.843 35.8434 128 37.8783 128 40V96H112V40ZM280 96C277.878 96 275.843 96.8429 274.343 98.3431C272.843 99.8434 272 101.878 272 104V216C272 218.122 272.843 220.157 274.343 221.657C275.843 223.157 277.878 224 280 224H368V267.44C283.68 291.44 282.8 410.56 366.24 436.16C368.72 436.88 368 433.2 368 464H144V432H248C250.122 432 252.157 431.157 253.657 429.657C255.157 428.157 256 426.122 256 424V328C256 325.878 255.157 323.843 253.657 322.343C252.157 320.843 250.122 320 248 320H144V256H208C210.122 256 212.157 255.157 213.657 253.657C215.157 252.157 216 250.122 216 248V104C216 101.878 215.157 99.8434 213.657 98.3431C212.157 96.8429 210.122 96 208 96H144V48H185.36C187.015 52.6813 190.081 56.7339 194.136 59.5996C198.191 62.4652 203.035 64.0026 208 64H304C308.965 64.0026 313.809 62.4652 317.864 59.5996C321.919 56.7339 324.985 52.6813 326.64 48H368V96H280ZM413.12 337.44C413.12 343.041 410.895 348.413 406.934 352.374C402.973 356.335 397.601 358.56 392 358.56C386.399 358.56 381.027 356.335 377.066 352.374C373.105 348.413 370.88 343.041 370.88 337.44V330.16C370.88 324.559 373.105 319.187 377.066 315.226C381.027 311.265 386.399 309.04 392 309.04C397.601 309.04 402.973 311.265 406.934 315.226C410.895 319.187 413.12 324.559 413.12 330.16V337.44ZM432 403.6L434.16 410C421.871 419.075 406.997 423.972 391.72 423.972C376.443 423.972 361.569 419.075 349.28 410L351.52 403.52C354.375 395.108 359.795 387.802 367.019 382.631C374.242 377.46 382.905 374.683 391.789 374.692C400.672 374.701 409.33 377.495 416.543 382.68C423.756 387.866 429.162 395.182 432 403.6ZM40 112H200V240H40V112ZM112 256H128V320H112V256ZM16 336H240V416H16V336ZM376 496H136C129.635 496 123.53 493.471 119.029 488.971C114.529 484.47 112 478.365 112 472V432H128V472C128 474.122 128.843 476.157 130.343 477.657C131.843 479.157 133.878 480 136 480H376C378.122 480 380.157 479.157 381.657 477.657C383.157 476.157 384 474.122 384 472V440C389.319 440.56 394.681 440.56 400 440V472C400 478.365 397.471 484.47 392.971 488.971C388.47 493.471 382.365 496 376 496ZM447.28 398.08C444.818 390.743 440.908 383.974 435.783 378.175C430.657 372.376 424.42 367.665 417.44 364.32C421.882 359.907 425.247 354.53 427.273 348.605C429.298 342.681 429.93 336.369 429.12 330.16C429.12 320.315 425.209 310.874 418.248 303.912C411.286 296.951 401.845 293.04 392 293.04C382.155 293.04 372.714 296.951 365.752 303.912C358.791 310.874 354.88 320.315 354.88 330.16C354.88 341.84 354.88 353.04 366.56 364.32C359.573 367.653 353.329 372.361 348.202 378.161C343.075 383.962 339.17 390.736 336.72 398.08C327.949 387.57 322.356 374.777 320.597 361.202C318.838 347.626 320.985 333.83 326.787 321.432C332.589 309.033 341.805 298.545 353.355 291.198C364.906 283.851 378.311 279.948 392 279.948C405.689 279.948 419.094 283.851 430.645 291.198C442.195 298.545 451.411 309.033 457.213 321.432C463.015 333.83 465.162 347.626 463.403 361.202C461.644 374.777 456.051 387.57 447.28 398.08ZM400 264.4C394.681 263.84 389.319 263.84 384 264.4V224H400V264.4ZM496 208.4H288V112H496V208.4Z" fill="#D68029"/>
<path d="M176 384H48C45.8783 384 43.8434 384.842 42.3431 386.343C40.8429 387.843 40 389.878 40 392C40 394.121 40.8429 396.156 42.3431 397.656C43.8434 399.157 45.8783 400 48 400H176C178.122 400 180.157 399.157 181.657 397.656C183.157 396.156 184 394.121 184 392C184 389.878 183.157 387.843 181.657 386.343C180.157 384.842 178.122 384 176 384ZM48 368H208C210.122 368 212.157 367.157 213.657 365.656C215.157 364.156 216 362.121 216 360C216 357.878 215.157 355.843 213.657 354.343C212.157 352.842 210.122 352 208 352H48C45.8783 352 43.8434 352.842 42.3431 354.343C40.8429 355.843 40 357.878 40 360C40 362.121 40.8429 364.156 42.3431 365.656C43.8434 367.157 45.8783 368 48 368ZM112 216V168C112 165.878 111.157 163.843 109.657 162.343C108.157 160.842 106.122 160 104 160C101.878 160 99.8434 160.842 98.3431 162.343C96.8429 163.843 96 165.878 96 168V216C96 218.121 96.8429 220.156 98.3431 221.656C99.8434 223.157 101.878 224 104 224C106.122 224 108.157 223.157 109.657 221.656C111.157 220.156 112 218.121 112 216ZM64 200V216C64 218.121 64.8429 220.156 66.3431 221.656C67.8434 223.157 69.8783 224 72 224C74.1217 224 76.1566 223.157 77.6569 221.656C79.1571 220.156 80 218.121 80 216V200C80 197.878 79.1571 195.843 77.6569 194.343C76.1566 192.842 74.1217 192 72 192C69.8783 192 67.8434 192.842 66.3431 194.343C64.8429 195.843 64 197.878 64 200ZM144 216V176C144 173.878 143.157 171.843 141.657 170.343C140.157 168.842 138.122 168 136 168C133.878 168 131.843 168.842 130.343 170.343C128.843 171.843 128 173.878 128 176V216C128 218.121 128.843 220.156 130.343 221.656C131.843 223.157 133.878 224 136 224C138.122 224 140.157 223.157 141.657 221.656C143.157 220.156 144 218.121 144 216ZM176 216V136C176 133.878 175.157 131.843 173.657 130.343C172.157 128.842 170.122 128 168 128C165.878 128 163.843 128.842 162.343 130.343C160.843 131.843 160 133.878 160 136V216C160 218.121 160.843 220.156 162.343 221.656C163.843 223.157 165.878 224 168 224C170.122 224 172.157 223.157 173.657 221.656C175.157 220.156 176 218.121 176 216ZM338.32 130.32L314.32 154.32C313.57 155.063 312.975 155.948 312.569 156.923C312.163 157.898 311.954 158.943 311.954 160C311.954 161.056 312.163 162.101 312.569 163.076C312.975 164.051 313.57 164.936 314.32 165.68L338.32 189.68C339.826 191.186 341.87 192.032 344 192.032C346.13 192.032 348.174 191.186 349.68 189.68C351.186 188.173 352.033 186.13 352.033 184C352.033 181.869 351.186 179.826 349.68 178.32L331.28 160L349.68 141.68C351.186 140.173 352.033 138.13 352.033 136C352.033 133.869 351.186 131.826 349.68 130.32C348.174 128.813 346.13 127.967 344 127.967C341.87 127.967 339.826 128.813 338.32 130.32ZM445.68 189.68L469.68 165.68C470.43 164.936 471.025 164.051 471.431 163.076C471.837 162.101 472.046 161.056 472.046 160C472.046 158.943 471.837 157.898 471.431 156.923C471.025 155.948 470.43 155.063 469.68 154.32L445.68 130.32C444.174 128.813 442.13 127.967 440 127.967C437.87 127.967 435.826 128.813 434.32 130.32C432.814 131.826 431.967 133.869 431.967 136C431.967 138.13 432.814 140.173 434.32 141.68L452.72 160L434.32 178.32C432.814 179.826 431.967 181.869 431.967 184C431.967 186.13 432.814 188.173 434.32 189.68C435.826 191.186 437.87 192.032 440 192.032C442.13 192.032 444.174 191.186 445.68 189.68ZM369.36 179.6C368.568 180.803 368.115 182.198 368.049 183.637C367.984 185.076 368.309 186.506 368.989 187.776C369.669 189.046 370.679 190.109 371.913 190.852C373.147 191.596 374.559 191.992 376 192C381.84 192 379.68 192.96 414.64 140.4C415.582 138.643 415.835 136.598 415.348 134.665C414.862 132.732 413.671 131.05 412.009 129.949C410.348 128.848 408.335 128.407 406.365 128.712C404.395 129.018 402.61 130.047 401.36 131.6L369.36 179.6Z" fill="#D68029"/>
</g>
<defs>
<clipPath id="clip0_3353_1623">
<rect width="512" height="512" fill="white"/>
</clipPath>
</defs>
</svg>
