<svg width="512" height="512" viewBox="0 0 512 512" fill="none" xmlns="http://www.w3.org/2000/svg">
<path d="M137.379 365.93C126.36 358.655 111.833 359.054 101.233 366.923C100.427 367.504 99.7447 368.24 99.2255 369.087C98.7063 369.934 98.3607 370.876 98.2085 371.858C98.0564 372.84 98.1009 373.842 98.3395 374.807C98.578 375.771 99.0058 376.679 99.5981 377.476C100.19 378.274 100.935 378.946 101.789 379.454C102.644 379.961 103.59 380.294 104.574 380.433C105.558 380.571 106.559 380.513 107.521 380.261C108.482 380.009 109.383 379.569 110.173 378.966C115.728 374.842 123.34 374.634 129.114 378.447C129.936 378.999 130.859 379.383 131.829 379.577C132.8 379.77 133.8 379.77 134.771 379.575C135.741 379.381 136.664 378.996 137.485 378.443C138.306 377.89 139.01 377.18 139.555 376.354C140.101 375.528 140.477 374.602 140.663 373.63C140.849 372.657 140.841 371.658 140.638 370.689C140.436 369.72 140.044 368.8 139.484 367.984C138.925 367.167 138.209 366.469 137.379 365.93ZM156.663 340.269C134.444 324.576 104.723 324.765 82.705 340.742C81.095 341.91 80.0149 343.67 79.7025 345.634C79.3901 347.599 79.8708 349.607 81.039 351.217C82.2071 352.827 83.967 353.907 85.9314 354.219C87.8959 354.532 89.904 354.051 91.5139 352.883C108.332 340.679 131.035 340.534 148.009 352.522C149.635 353.641 151.636 354.075 153.579 353.728C155.523 353.382 157.251 352.283 158.39 350.671C159.528 349.059 159.986 347.063 159.662 345.115C159.339 343.168 158.261 341.427 156.663 340.269Z" fill="#D68029"/>
<path d="M175.009 313.965C141.832 290.61 97.3756 290.79 64.3876 314.412C63.0958 315.337 62.1311 316.648 61.6326 318.157C61.1341 319.666 61.1276 321.293 61.614 322.806C62.1005 324.319 63.0547 325.638 64.3391 326.573C65.6235 327.508 67.1718 328.011 68.7606 328.01C70.3251 328.011 71.8502 327.52 73.1206 326.607C100.93 306.693 138.405 306.543 166.374 326.23C167.179 326.797 168.088 327.2 169.049 327.415C170.01 327.631 171.004 327.655 171.975 327.486C172.945 327.318 173.873 326.959 174.705 326.432C175.537 325.905 176.257 325.219 176.824 324.414C177.391 323.609 177.794 322.7 178.009 321.739C178.225 320.778 178.249 319.784 178.081 318.813C177.912 317.843 177.554 316.916 177.027 316.084C176.5 315.252 175.814 314.532 175.009 313.965Z" fill="#D68029"/>
<path d="M183.853 208.419H55.5945C42.6185 208.419 32.0625 218.976 32.0625 231.951V488.467C32.0625 501.443 42.6195 511.999 55.5945 511.999H183.853C196.829 511.999 207.385 501.442 207.385 488.467V231.952C207.385 218.976 196.829 208.419 183.853 208.419ZM192.385 488.468C192.385 493.173 188.557 497 183.853 497H55.5945C50.8895 497 47.0625 493.172 47.0625 488.468V231.952C47.0625 227.247 50.8905 223.42 55.5945 223.42H183.853C188.558 223.42 192.385 227.248 192.385 231.952V488.468Z" fill="#D68029"/>
<path d="M167.819 448.903H71.625C69.6359 448.903 67.7282 449.693 66.3217 451.1C64.9152 452.506 64.125 454.414 64.125 456.403C64.125 458.392 64.9152 460.3 66.3217 461.706C67.7282 463.113 69.6359 463.903 71.625 463.903H167.819C169.808 463.903 171.716 463.113 173.122 461.706C174.529 460.3 175.319 458.392 175.319 456.403C175.319 454.414 174.529 452.506 173.122 451.1C171.716 449.693 169.808 448.903 167.819 448.903ZM127.738 472.952H111.706C109.717 472.952 107.809 473.742 106.403 475.149C104.996 476.555 104.206 478.463 104.206 480.452C104.206 482.441 104.996 484.349 106.403 485.755C107.809 487.162 109.717 487.952 111.706 487.952H127.738C129.727 487.952 131.635 487.162 133.041 485.755C134.448 484.349 135.238 482.441 135.238 480.452C135.238 478.463 134.448 476.555 133.041 475.149C131.635 473.742 129.727 472.952 127.738 472.952ZM464.415 240.484H463.899V31.548C463.899 14.152 449.747 0 432.351 0H127.738C110.342 0 96.19 14.152 96.19 31.548V183.855C96.19 185.844 96.9802 187.752 98.3867 189.158C99.7932 190.565 101.701 191.355 103.69 191.355C105.679 191.355 107.587 190.565 108.993 189.158C110.4 187.752 111.19 185.844 111.19 183.855V31.548C111.19 22.423 118.613 15 127.738 15H432.351C441.476 15 448.899 22.423 448.899 31.548V240.484H231.948C229.959 240.484 228.051 241.274 226.645 242.681C225.238 244.087 224.448 245.995 224.448 247.984C224.448 249.973 225.238 251.881 226.645 253.287C228.051 254.694 229.959 255.484 231.948 255.484H256.539C256.527 255.655 256.513 255.826 256.513 256C256.513 257.989 257.303 259.897 258.71 261.303C260.116 262.71 262.024 263.5 264.013 263.5H296.077C298.066 263.5 299.974 262.71 301.38 261.303C302.787 259.897 303.577 257.989 303.577 256C303.577 255.826 303.563 255.655 303.551 255.484H464.416C464.701 255.484 464.932 255.715 464.932 256V272.032C464.932 272.169 464.878 272.3 464.781 272.397C464.684 272.494 464.553 272.548 464.416 272.548H231.948C229.959 272.548 228.051 273.338 226.645 274.745C225.238 276.151 224.448 278.059 224.448 280.048C224.448 282.037 225.238 283.945 226.645 285.351C228.051 286.758 229.959 287.548 231.948 287.548H464.416C472.972 287.548 479.932 280.588 479.932 272.032V256C479.932 247.444 472.971 240.484 464.415 240.484Z" fill="#D68029"/>
<path d="M424.335 32.0645H135.754C133.765 32.0645 131.857 32.8546 130.451 34.2612C129.044 35.6677 128.254 37.5753 128.254 39.5645V183.855C128.254 185.845 129.044 187.752 130.451 189.159C131.857 190.565 133.765 191.355 135.754 191.355C137.743 191.355 139.651 190.565 141.057 189.159C142.464 187.752 143.254 185.845 143.254 183.855V47.0645H416.835V208.419H231.948C229.959 208.419 228.051 209.21 226.645 210.616C225.238 212.023 224.448 213.93 224.448 215.919C224.448 217.909 225.238 219.816 226.645 221.223C228.051 222.629 229.959 223.419 231.948 223.419H424.335C426.324 223.419 428.232 222.629 429.638 221.223C431.045 219.816 431.835 217.909 431.835 215.919V39.5645C431.835 37.5753 431.045 35.6677 429.638 34.2612C428.232 32.8546 426.324 32.0645 424.335 32.0645Z" fill="#D68029"/>
<path d="M291.377 69L232.309 128L250.5 146.192L327.613 69.059H291.441L291.377 69ZM291.446 123.437L259.631 155.184L291.441 186.995H327.692L295.93 155.194L327.692 123.432H291.451L291.446 123.437Z" fill="#D68029"/>
</svg>
