<svg width="512" height="512" viewBox="0 0 512 512" fill="none" xmlns="http://www.w3.org/2000/svg">
<g clip-path="url(#clip0_3353_1730)">
<path d="M92.309 53.2301C92.309 39.3601 81.027 28.0781 67.156 28.0781C53.285 28.0781 42 39.3601 42 53.2301C42 67.1021 53.285 78.3831 67.156 78.3831C81.023 78.3831 92.309 67.1021 92.309 53.2301ZM57 53.2301C57 47.6331 61.559 43.0781 67.156 43.0781C72.753 43.0781 77.31 47.6331 77.31 53.2301C77.31 58.8281 72.755 63.3831 67.157 63.3831C61.559 63.3831 57 58.8281 57 53.2301ZM126.914 78.3831C140.785 78.3831 152.07 67.1021 152.07 53.2301C152.07 39.3601 140.785 28.0781 126.914 28.0781C113.043 28.0781 101.762 39.3591 101.762 53.2301C101.762 67.1021 113.043 78.3831 126.914 78.3831ZM126.914 43.0781C132.516 43.0781 137.07 47.6331 137.07 53.2301C137.07 58.8281 132.512 63.3831 126.914 63.3831C121.316 63.3831 116.762 58.8281 116.762 53.2301C116.762 47.6331 121.316 43.0781 126.914 43.0781ZM186.676 78.3831C200.543 78.3831 211.828 67.1021 211.828 53.2301C211.828 39.3601 200.543 28.0781 186.676 28.0781C172.805 28.0781 161.52 39.3591 161.52 53.2301C161.52 67.1021 172.805 78.3831 186.676 78.3831ZM186.676 43.0781C192.273 43.0781 196.828 47.6331 196.828 53.2301C196.828 58.8281 192.273 63.3831 186.676 63.3831C181.074 63.3831 176.52 58.8281 176.52 53.2301C176.52 47.6331 181.074 43.0781 186.676 43.0781ZM269.668 60.7301H452.332C456.477 60.7301 459.832 57.3751 459.832 53.2301C459.832 49.0851 456.477 45.7301 452.332 45.7301H269.668C265.523 45.7301 262.168 49.0861 262.168 53.2301C262.168 57.3741 265.523 60.7301 269.668 60.7301Z" fill="#D68029"/>
<path d="M480.684 1H31.316C14.051 1 0 15.047 0 32.316V449.566C0 466.832 14.05 480.883 31.316 480.883H480.684C497.949 480.883 512 466.832 512 449.566V32.316C512 15.046 497.95 1 480.684 1ZM480.684 465.883H31.316C22.32 465.883 15 458.563 15 449.566V105.461H56.809C60.953 105.461 64.309 102.105 64.309 97.961C64.309 95.9719 63.5188 94.0642 62.1123 92.6577C60.7058 91.2512 58.7981 90.461 56.809 90.461H15V32.316C15 23.32 22.32 16 31.316 16H480.684C489.68 16 497 23.32 497 32.316V90.461H84.809C82.8199 90.461 80.9122 91.2512 79.5057 92.6577C78.0992 94.0642 77.309 95.9719 77.309 97.961C77.309 99.9501 78.0992 101.858 79.5057 103.264C80.9122 104.671 82.8199 105.461 84.809 105.461H497V449.566C497 458.563 489.68 465.883 480.684 465.883Z" fill="#D68029"/>
<path d="M424.402 124.16H358.855C345.762 124.16 335.109 134.813 335.109 147.906V156.98C331.309 158.193 327.854 160.299 325.034 163.122C322.214 165.944 320.112 169.401 318.902 173.203L201.758 173.645C199.316 165.973 193.242 159.906 185.566 157.469V148.399C185.566 135.305 174.914 124.652 161.82 124.652H96.2775C83.1845 124.652 72.5315 135.305 72.5315 148.398V213.941C72.5315 227.035 83.1845 237.684 96.2775 237.684H105.347C106.558 241.483 108.662 244.936 111.481 247.755C114.3 250.574 117.753 252.676 121.551 253.887V284.531C121.551 300.344 134.414 313.207 150.227 313.207H220.875C222.087 317.004 224.19 320.456 227.008 323.275C229.826 326.093 233.278 328.196 237.075 329.407V338.997C237.075 351.805 247.496 362.227 260.305 362.227H270.465C272.621 369.742 278.238 375.805 285.473 378.582C283.316 382.879 278.871 385.832 273.75 385.832H193.64C191.7 377.187 185.242 370.234 176.89 367.582V358.508C176.89 345.414 166.238 334.762 153.145 334.762H87.5985C74.5085 334.762 63.8555 345.414 63.8555 358.508V424.055C63.8555 437.148 74.5085 447.797 87.5985 447.797H153.145C166.238 447.797 176.891 437.148 176.891 424.055V414.98C180.336 413.88 183.501 412.045 186.168 409.603C188.835 407.16 190.939 404.168 192.336 400.832H273.75C286.984 400.832 298.113 391.637 301.082 379.301C309.348 376.977 315.882 370.473 318.254 362.227H326.879C339.691 362.227 350.109 351.805 350.109 338.997V319.266C350.109 315.121 346.754 311.766 342.609 311.766C340.62 311.766 338.713 312.556 337.306 313.963C335.9 315.369 335.109 317.277 335.109 319.266V338.996C335.109 343.536 331.418 347.226 326.879 347.226H317.844C310.047 324.852 278.57 325.027 270.871 347.226H260.305C255.765 347.226 252.075 343.536 252.075 338.996V329.406C253.669 328.903 255.207 328.238 256.665 327.422C256.77 327.316 269.43 320.922 269.43 305.707C269.43 294.93 262.445 285.317 252.074 282.007V272.422C252.074 267.882 255.766 264.192 260.304 264.192H326.879C331.418 264.192 335.109 267.882 335.109 272.422V292.152C335.109 294.141 335.9 296.049 337.306 297.455C338.713 298.862 340.62 299.652 342.609 299.652C344.599 299.652 346.506 298.862 347.913 297.455C349.319 296.049 350.109 294.141 350.109 292.152V272.422C350.109 259.613 339.687 249.192 326.879 249.192H260.305C247.496 249.192 237.075 259.613 237.075 272.422V282.008C233.278 283.219 229.826 285.322 227.008 288.14C224.19 290.958 222.087 294.41 220.875 298.207H150.23C142.687 298.207 136.55 292.07 136.55 284.531V253.887C140.348 252.676 143.8 250.572 146.619 247.754C149.437 244.935 151.54 241.482 152.75 237.684H161.824C174.914 237.684 185.566 227.035 185.566 213.941V204.867C193.262 202.426 199.344 196.34 201.773 188.645L318.918 188.203C320.132 191.995 322.235 195.442 325.051 198.256C327.868 201.07 331.316 203.169 335.109 204.379V213.453C335.109 226.547 345.762 237.199 358.855 237.199H424.402C437.492 237.199 448.145 226.547 448.145 213.453V147.906C448.145 134.812 437.492 124.16 424.402 124.16ZM169.391 401.137C163.953 401.137 159.535 396.715 159.535 391.281C159.535 385.847 163.957 381.426 169.391 381.426C174.825 381.426 179.246 385.848 179.246 391.281C179.246 396.714 174.824 401.137 169.391 401.137ZM161.891 424.055C161.891 428.875 157.969 432.797 153.145 432.797H87.5985C82.7785 432.797 78.8555 428.875 78.8555 424.055V358.508C78.8555 353.684 82.7775 349.762 87.5985 349.762H153.145C157.969 349.762 161.891 353.684 161.891 358.508V367.582C138.633 374.992 138.902 407.652 161.891 414.98V424.055ZM304.211 355.415C304.188 360.828 299.777 365.223 294.355 365.223C288.938 365.223 284.527 360.828 284.504 355.414C285.738 341.879 303.027 342.449 304.211 355.414V355.415ZM246.071 295.965C250.797 296.691 254.43 300.785 254.43 305.707C254.43 311.152 250 315.562 244.574 315.562C239.137 315.562 234.719 311.141 234.719 305.707C234.719 299.695 240.09 295.051 246.071 295.965ZM178.066 191.023C172.633 191.023 168.211 186.602 168.211 181.168C168.211 175.734 172.633 171.312 178.066 171.312C183.499 171.312 187.922 175.734 187.922 181.168C187.922 186.602 183.504 191.023 178.066 191.023ZM129.051 240.043C123.074 240.043 118.387 234.711 119.309 228.687C120.031 223.961 124.125 220.332 129.051 220.332C134.481 220.332 138.906 224.746 138.906 230.184C138.906 235.622 134.484 240.043 129.051 240.043ZM170.566 213.941C170.566 218.761 166.645 222.684 161.82 222.684H152.75C148.852 210.508 136.465 203.301 124.066 205.832C123.961 205.887 110.016 208.102 105.352 222.684H96.2775C91.4535 222.684 87.5315 218.762 87.5315 213.941V148.395C87.5315 143.575 91.4535 139.648 96.2775 139.648H161.824C166.644 139.648 170.566 143.574 170.566 148.395V157.469C160.046 160.82 152.676 170.863 153.242 182.422C153.285 182.523 153.391 199.391 170.566 204.867V213.941ZM342.609 170.824C348.031 170.824 352.465 175.234 352.465 180.68C352.465 186.133 348.023 190.535 342.609 190.535C337.176 190.535 332.754 186.113 332.754 180.68C332.754 175.246 337.176 170.824 342.609 170.824ZM433.145 213.454C433.145 218.274 429.223 222.199 424.402 222.199H358.855C354.031 222.199 350.109 218.273 350.109 213.453V204.379C360.829 200.965 368.012 190.777 367.434 179.406V179.402C366.914 169.09 359.992 160.129 350.109 156.98V147.906C350.109 143.086 354.031 139.164 358.855 139.164H424.402C429.222 139.164 433.145 143.086 433.145 147.906V213.454Z" fill="#D68029"/>
</g>
<defs>
<clipPath id="clip0_3353_1730">
<rect width="512" height="512" fill="white"/>
</clipPath>
</defs>
</svg>
