<svg width="512" height="512" viewBox="0 0 512 512" fill="none" xmlns="http://www.w3.org/2000/svg">
<path d="M256 320C291.288 320 320 291.288 320 256C320 220.712 291.288 192 256 192C220.712 192 192 220.712 192 256C192 291.288 220.712 320 256 320ZM256 208C282.472 208 304 229.528 304 256C304 282.472 282.472 304 256 304C229.528 304 208 282.472 208 256C208 229.528 229.528 208 256 208Z" fill="#D68029"/>
<path d="M256 288C273.648 288 288 273.648 288 256C288 238.352 273.648 224 256 224C238.352 224 224 238.352 224 256C224 273.648 238.352 288 256 288ZM256 240C264.824 240 272 247.176 272 256C272 264.824 264.824 272 256 272C247.176 272 240 264.824 240 256C240 247.176 247.176 240 256 240Z" fill="#D68029"/>
<path d="M203.44 350.512L217.424 343.824C218.672 344.376 219.928 344.904 221.192 345.392L226.336 360H285.656L290.816 345.392C292.072 344.896 293.328 344.376 294.584 343.824L308.568 350.512L350.52 308.56L343.832 294.576C344.384 293.328 344.912 292.072 345.4 290.808L360 285.664V226.344L345.392 221.184C344.893 219.918 344.37 218.662 343.824 217.416L350.512 203.432L308.56 161.48L294.576 168.168C293.333 167.615 292.076 167.092 290.808 166.6L285.664 152H226.344L221.184 166.608C219.928 167.104 218.672 167.624 217.416 168.176L203.432 161.488L161.48 203.44L168.168 217.424C167.615 218.667 167.092 219.924 166.6 221.192L152 226.336V285.656L166.608 290.816C167.104 292.072 167.624 293.328 168.176 294.584L161.488 308.568L203.44 350.512ZM168 274.336V237.656L179.136 233.728L180.392 230.064C181.44 227 182.728 223.912 184.216 220.888L185.92 217.408L180.816 206.736L206.752 180.8L217.424 185.904L220.904 184.2C223.88 182.735 226.945 181.458 230.08 180.376L233.744 179.12L237.664 168H274.344L278.272 179.136L281.936 180.392C285 181.44 288.088 182.728 291.112 184.216L294.592 185.92L305.264 180.816L331.2 206.752L326.096 217.424L327.8 220.904C329.288 223.928 330.568 227.016 331.624 230.08L332.88 233.744L344 237.664V274.344L332.864 278.272L331.608 281.936C330.529 285.073 329.252 288.138 327.784 291.112L326.08 294.592L331.184 305.264L305.248 331.2L294.576 326.096L291.096 327.8C288.12 329.265 285.055 330.542 281.92 331.624L278.256 332.88L274.336 344H237.656L233.728 332.864L230.064 331.608C226.927 330.529 223.862 329.252 220.888 327.784L217.408 326.08L206.736 331.184L180.8 305.248L185.904 294.576L184.2 291.096C182.735 288.12 181.458 285.055 180.376 281.92L179.12 278.256L168 274.336ZM112 376H32C18.768 376 8 386.768 8 400V480C8 493.232 18.768 504 32 504H112C125.232 504 136 493.232 136 480V400C136 386.768 125.232 376 112 376ZM120 480C120 484.408 116.408 488 112 488H32C27.592 488 24 484.408 24 480V400C24 395.592 27.592 392 32 392H112C116.408 392 120 395.592 120 400V480ZM480 192H400C386.768 192 376 202.768 376 216V296C376 309.232 386.768 320 400 320H480C493.232 320 504 309.232 504 296V216C504 202.768 493.232 192 480 192ZM488 296C488 300.408 484.408 304 480 304H400C395.592 304 392 300.408 392 296V216C392 211.592 395.592 208 400 208H480C484.408 208 488 211.592 488 216V296ZM80 136H160C173.232 136 184 125.232 184 112V32C184 18.768 173.232 8 160 8H80C66.768 8 56 18.768 56 32V112C56 125.232 66.768 136 80 136ZM72 32C72 27.592 75.592 24 80 24H160C164.408 24 168 27.592 168 32V112C168 116.408 164.408 120 160 120H80C75.592 120 72 116.408 72 112V32Z" fill="#D68029"/>
<path d="M56.0007 452.688L45.6567 442.344L34.3447 453.656L56.0007 475.312L109.657 421.656L98.3447 410.344L56.0007 452.688ZM157.657 53.6557L146.345 42.3438L104.001 84.6878L93.6567 74.3438L82.3447 85.6557L104.001 107.312L157.657 53.6557ZM424.001 268.688L413.657 258.344L402.345 269.656L424.001 291.312L477.657 237.656L466.345 226.344L424.001 268.688ZM374.057 360.24L377.937 375.76L423.409 364.392C386.681 421.288 324.153 456 256.001 456C226.729 456 198.521 449.824 172.169 437.64L165.457 452.16C193.828 465.304 224.733 472.076 256.001 472C328.473 472 395.033 435.68 434.937 375.968L440.065 416.992L455.937 415.008L446.817 342.048L374.057 360.24ZM95.7847 289.856L80.2247 286.136L70.4647 326.984C60.8967 303.304 56.0007 279.504 56.0007 256C56.0007 226.48 62.2807 198.056 74.6647 171.504L60.1607 164.736C46.8102 193.304 39.9266 224.466 40.0007 256C40.0007 281.464 45.2407 307.152 55.4807 332.632L19.8647 312.992L12.1367 327.008L78.2007 363.424L95.7847 289.856ZM268.441 73.3438L242.425 55.9997H256.001C292.615 55.9406 328.54 65.9563 359.842 84.9501C391.144 103.944 416.617 131.184 433.473 163.688L447.657 156.288C410.273 84.5598 336.833 39.9998 256.001 39.9998H242.425L268.441 22.6558L259.569 9.34375L201.577 47.9997L259.561 86.6557L268.441 73.3438Z" fill="#D68029"/>
</svg>
