<svg width="512" height="512" viewBox="0 0 512 512" fill="none" xmlns="http://www.w3.org/2000/svg">
<path d="M42.343 437.655C43.0859 438.398 43.9678 438.988 44.9385 439.39C45.9091 439.792 46.9494 439.998 48 439.998H152C153.051 439.998 154.091 439.792 155.062 439.39C156.032 438.988 156.914 438.398 157.657 437.655L176 419.312V487.998C176 490.12 176.843 492.155 178.343 493.655C179.843 495.156 181.878 495.998 184 495.998H328C330.122 495.998 332.157 495.156 333.657 493.655C335.157 492.155 336 490.12 336 487.998V419.312L354.343 437.655C355.086 438.398 355.968 438.988 356.938 439.39C357.909 439.792 358.949 439.998 360 439.998H464C465.051 439.998 466.091 439.792 467.062 439.39C468.032 438.988 468.914 438.398 469.657 437.655L493.657 413.655C494.4 412.913 494.989 412.031 495.391 411.06C495.793 410.089 496 409.049 496 407.998V383.998C496 381.877 495.157 379.842 493.657 378.342C492.157 376.841 490.122 375.998 488 375.998H456C456 373.877 455.157 371.842 453.657 370.342C452.157 368.841 450.122 367.998 448 367.998H432C430.683 367.999 429.386 368.324 428.225 368.945C427.064 369.567 426.074 370.466 425.344 371.561L413.781 388.904L374.009 362.389L355.875 330.654C346.582 314.308 331.233 302.273 313.142 297.146L294.979 291.957C300.851 283.818 304.008 274.035 304 263.998V223.998C304.008 215.329 301.284 206.877 296.214 199.843C291.145 192.81 283.988 187.553 275.76 184.819L254.77 177.822C249.429 176.041 243.741 175.555 238.175 176.404C232.609 177.253 227.324 179.412 222.756 182.704C218.189 185.996 214.469 190.327 211.903 195.338C209.338 200.35 208 205.9 208 211.53V263.998C207.992 274.035 211.148 283.819 217.02 291.958L198.858 297.146C180.767 302.273 165.418 314.308 156.125 330.654L137.991 362.389L98.219 388.904L86.656 371.56C85.9254 370.465 84.9357 369.566 83.7746 368.945C82.6135 368.324 81.3169 367.998 80 367.998H64C61.8783 367.998 59.8434 368.841 58.3431 370.342C56.8429 371.842 56 373.877 56 375.998H24C21.8783 375.998 19.8434 376.841 18.3431 378.342C16.8429 379.842 16 381.877 16 383.998V407.998C16 409.049 16.2069 410.089 16.6089 411.06C17.0109 412.031 17.6001 412.913 18.343 413.655L42.343 437.655ZM424 402.42L436.281 383.998H440V407.998H456V391.998H480V404.685L460.687 423.998H424V402.42ZM224 211.53C224 208.435 224.735 205.385 226.146 202.63C227.556 199.875 229.601 197.494 232.111 195.685C234.622 193.875 237.527 192.688 240.587 192.221C243.646 191.755 246.773 192.022 249.709 193L270.702 199.998C274.429 201.238 277.816 203.329 280.594 206.107C283.371 208.884 285.463 212.271 286.702 215.998H224V211.53ZM224 231.998H288V263.998C288 272.485 284.629 280.625 278.627 286.626C272.626 292.627 264.487 295.998 256 295.998C247.513 295.998 239.374 292.627 233.373 286.626C227.371 280.625 224 272.485 224 263.998V231.998ZM254.559 343.998H257.441L271.315 413.368L256 428.686L240.685 413.37L254.559 343.998ZM246.647 311.076C252.822 312.305 259.178 312.305 265.353 311.076L258.583 327.998H253.416L246.647 311.076ZM104 404.279L148.438 374.654C149.471 373.965 150.33 373.045 150.946 371.967L170.018 338.593C177.245 325.879 189.183 316.518 203.254 312.531L227.254 305.674L239.688 336.761L224.155 414.429C223.897 415.721 223.962 417.056 224.343 418.317C224.725 419.577 225.412 420.724 226.343 421.655L250.343 445.655C251.086 446.398 251.968 446.988 252.938 447.39C253.909 447.792 254.949 447.999 256 447.999C257.051 447.999 258.091 447.792 259.062 447.39C260.032 446.988 260.914 446.398 261.657 445.655L285.657 421.655C286.588 420.724 287.275 419.577 287.657 418.317C288.038 417.056 288.103 415.721 287.845 414.429L272.312 336.761L284.746 305.674L308.746 312.531C322.817 316.518 334.755 325.879 341.982 338.593L361.054 371.967C361.671 373.046 362.53 373.966 363.563 374.654L408 404.279V423.998H363.313L333.657 394.341C332.538 393.223 331.113 392.461 329.561 392.152C328.009 391.843 326.4 392.002 324.939 392.607C323.477 393.213 322.227 394.238 321.348 395.554C320.469 396.869 320 398.416 320 399.998V479.998H192V399.998C192 398.416 191.531 396.869 190.652 395.554C189.773 394.238 188.523 393.213 187.062 392.607C185.6 392.002 183.991 391.843 182.439 392.152C180.887 392.461 179.462 393.223 178.343 394.341L148.687 423.998H104V404.279ZM32 391.998H56V407.998H72V383.998H75.719L88 402.42V423.998H51.313L32 404.685V391.998Z" fill="#D68029"/>
<path d="M24 328H48V352C48 354.122 48.8429 356.157 50.3431 357.657C51.8434 359.157 53.8783 360 56 360H120C122.122 360 124.157 359.157 125.657 357.657C127.157 356.157 128 354.122 128 352V328H152C154.122 328 156.157 327.157 157.657 325.657C159.157 324.157 160 322.122 160 320V288C159.988 277.395 155.77 267.228 148.271 259.729C140.772 252.23 130.605 248.012 120 248H56C45.3951 248.012 35.228 252.23 27.7292 259.729C20.2304 267.228 16.0122 277.395 16 288V320C16 322.122 16.8429 324.157 18.3431 325.657C19.8434 327.157 21.8783 328 24 328ZM112 344H64V312C64 305.635 66.5286 299.53 71.0294 295.029C75.5303 290.529 81.6348 288 88 288C94.3652 288 100.47 290.529 104.971 295.029C109.471 299.53 112 305.635 112 312V344ZM32 288C32.0071 281.637 34.538 275.537 39.0373 271.037C43.5367 266.538 49.637 264.007 56 264H120C126.363 264.007 132.463 266.538 136.963 271.037C141.462 275.537 143.993 281.637 144 288V312H128C128 301.391 123.786 291.217 116.284 283.716C108.783 276.214 98.6087 272 88 272C77.3913 272 67.2172 276.214 59.7157 283.716C52.2143 291.217 48 301.391 48 312H32V288Z" fill="#D68029"/>
<path d="M88 328C92.4183 328 96 324.418 96 320C96 315.582 92.4183 312 88 312C83.5817 312 80 315.582 80 320C80 324.418 83.5817 328 88 328Z" fill="#D68029"/>
<path d="M416 207.998C409.637 208.005 403.537 210.536 399.037 215.035C394.538 219.535 392.007 225.635 392 231.998V327.998C392.007 334.361 394.538 340.461 399.037 344.961C403.537 349.46 409.637 351.991 416 351.998H464C470.363 351.991 476.463 349.46 480.963 344.961C485.462 340.461 487.993 334.361 488 327.998V231.998C487.993 225.635 485.462 219.535 480.963 215.035C476.463 210.536 470.363 208.005 464 207.998H416ZM472 231.998V327.998C471.997 330.119 471.154 332.152 469.654 333.652C468.154 335.152 466.121 335.995 464 335.998H416C413.879 335.995 411.846 335.152 410.346 333.652C408.846 332.152 408.003 330.119 408 327.998V231.998C408.003 229.877 408.846 227.844 410.346 226.344C411.846 224.844 413.879 224.001 416 223.998H420.686L426.343 229.655C427.086 230.398 427.968 230.987 428.938 231.389C429.909 231.791 430.949 231.998 432 231.998H448C449.051 231.998 450.091 231.791 451.062 231.389C452.032 230.987 452.914 230.398 453.657 229.655L459.314 223.998H464C466.121 224.001 468.154 224.844 469.654 226.344C471.154 227.844 471.997 229.877 472 231.998ZM72 231.998H168C174.363 231.991 180.463 229.46 184.963 224.961C189.462 220.461 191.993 214.361 192 207.998V102.625C192.008 99.4722 191.391 96.3489 190.185 93.436C188.978 90.5231 187.206 87.8784 184.97 85.6551L154.345 55.0281C152.122 52.7926 149.477 51.0201 146.564 49.8134C143.651 48.6067 140.528 47.9897 137.375 47.9981H72C65.637 48.0053 59.5367 50.5361 55.0373 55.0355C50.538 59.5348 48.0071 65.6351 48 71.9981V207.998C48.0071 214.361 50.538 220.461 55.0373 224.961C59.5367 229.46 65.637 231.991 72 231.998ZM152 75.3121L164.686 87.9981H152V75.3121ZM64 71.9981C64.0026 69.8772 64.8464 67.8439 66.3461 66.3442C67.8458 64.8445 69.8791 64.0008 72 63.9981H136V95.9981C136 98.1199 136.843 100.155 138.343 101.655C139.843 103.155 141.878 103.998 144 103.998H176V207.998C175.997 210.119 175.154 212.152 173.654 213.652C172.154 215.152 170.121 215.995 168 215.998H72C69.8791 215.995 67.8458 215.152 66.3461 213.652C64.8464 212.152 64.0026 210.119 64 207.998V71.9981Z" fill="#D68029"/>
<path d="M80 183.999H160V199.999H80V183.999ZM112 151.999H160V167.999H112V151.999ZM80 151.999H96V167.999H80V151.999ZM136 119.999H160V135.999H136V119.999ZM80 119.999H120V135.999H80V119.999ZM80 87.9991H120V103.999H80V87.9991ZM425.238 37.673L414.91 19.969C414.293 18.9117 413.442 18.01 412.422 17.3334C411.402 16.6567 410.24 16.2232 409.026 16.0661C407.812 15.9091 406.579 16.0327 405.42 16.4274C404.261 16.8222 403.209 17.4775 402.343 18.3431L323.26 97.4241L292.42 112.844C291.267 113.42 290.272 114.268 289.519 115.314L289.516 115.312L289.449 115.404L289.439 115.417L270.599 141.478C269.743 142.663 269.227 144.06 269.109 145.517C268.99 146.974 269.273 148.436 269.927 149.743L280.844 171.577C281.508 172.906 282.53 174.023 283.794 174.805C285.058 175.586 286.514 175.999 288 175.999H315.056L344.845 235.577C345.314 236.517 345.964 237.356 346.758 238.044C347.551 238.733 348.473 239.258 349.47 239.591C350.467 239.923 351.519 240.055 352.567 239.98C353.616 239.906 354.639 239.625 355.578 239.154L371.578 231.154C372.907 230.49 374.024 229.468 374.805 228.205C375.586 226.941 376 225.485 376 223.999V183.999C376 182.757 375.711 181.532 375.155 180.421L363.466 157.043L466.198 127.691C467.37 127.356 468.45 126.758 469.355 125.942C470.261 125.126 470.968 124.114 471.423 122.983C471.877 121.852 472.067 120.632 471.978 119.416C471.89 118.2 471.524 117.021 470.91 115.968L456.787 91.7561L457.954 90.9781C464.691 86.4872 469.425 79.56 471.162 71.6518C472.899 63.7436 471.503 55.47 467.268 48.5693C463.033 41.6687 456.288 36.6781 448.45 34.6463C440.613 32.6144 432.292 33.6993 425.238 37.673ZM292.944 159.999L286.406 146.923L294.749 135.384L307.056 159.999H292.944ZM306.734 123.577L324.422 114.732L341.267 148.422L323.577 157.266L306.734 123.577ZM360 219.055L355.578 221.266L330.733 171.576L348.422 162.732L360 185.888V219.055ZM356.186 142.483L337.734 105.579L406.318 36.994L451.901 115.136L356.186 142.483ZM453.71 57.0661C455.738 60.4355 456.388 64.4571 455.526 68.294C454.663 72.1308 452.354 75.4873 449.08 77.6651L448.71 77.9111L433.301 51.4961C436.765 49.6132 440.822 49.1414 444.625 50.1794C448.428 51.2174 451.683 53.6847 453.71 57.0661Z" fill="#D68029"/>
</svg>
