<svg width="512" height="512" viewBox="0 0 512 512" fill="none" xmlns="http://www.w3.org/2000/svg">
<g clip-path="url(#clip0_3411_2235)">
<path d="M494.05 152.766C489.701 145.804 484.151 141.86 477.557 141.05C467.039 139.752 455.413 146.316 437.42 163.686C436.712 164.37 436.145 165.187 435.752 166.09C435.359 166.993 435.148 167.964 435.13 168.949C435.113 169.934 435.29 170.912 435.651 171.829C436.011 172.745 436.549 173.581 437.233 174.29C438.615 175.72 440.508 176.544 442.497 176.579C444.486 176.614 446.407 175.858 447.838 174.477C461.233 161.547 470.617 155.315 475.726 155.938C476.428 156.024 478.563 156.287 481.328 160.713C485.121 166.789 468.868 185.243 455.807 200.071C436.234 222.294 414.05 247.481 409.578 274.694C403.145 313.833 355.411 361.903 354.931 362.382C353.795 363.516 353.052 364.985 352.813 366.572C352.574 368.16 352.85 369.782 353.601 371.201L361.955 386.97L304.096 444.829C293.326 421.848 276.587 382.363 276.522 358.859C277.546 328.578 318.074 276.733 357.297 226.561C371.102 208.903 382.458 203.807 388.487 204.945C390.64 205.347 392.053 206.614 392.686 208.71C393.692 212.04 392.679 218.06 386.51 224.065C360.303 249.581 346.571 294.043 345.998 295.922C345.42 297.824 345.621 299.878 346.557 301.633C347.493 303.387 349.087 304.698 350.989 305.277C351.931 305.564 352.921 305.663 353.901 305.567C354.881 305.472 355.833 305.185 356.702 304.722C357.571 304.259 358.34 303.629 358.966 302.868C359.591 302.108 360.061 301.232 360.348 300.29C360.478 299.865 373.562 257.606 396.973 234.812C402.4 229.528 405.95 223.294 407.347 217.048C408.119 216.235 408.9 215.421 409.656 214.61L414.653 209.221C418.222 205.371 421.656 201.667 424.958 198.118C426.313 196.661 427.034 194.726 426.963 192.738C426.891 190.75 426.033 188.872 424.577 187.517C423.856 186.846 423.009 186.324 422.086 185.98C421.164 185.636 420.182 185.477 419.197 185.513C417.21 185.584 415.331 186.442 413.976 187.899C410.832 191.279 407.565 194.802 404.18 198.452C401.191 194.171 396.658 191.211 391.244 190.198C383.243 188.699 366.654 190.231 345.477 217.32C303.28 271.296 263.358 322.365 261.562 357.614C261.417 358.959 261.395 360.473 261.594 361.788C262.872 389.34 280.615 430.647 292.829 456.09L281.325 467.594C280.629 468.29 280.076 469.117 279.699 470.027C279.322 470.937 279.128 471.913 279.128 472.898C279.128 473.883 279.322 474.858 279.699 475.768C280.076 476.678 280.629 477.505 281.325 478.202L312.925 509.802C314.389 511.266 316.309 511.998 318.228 511.998C320.147 511.998 322.067 511.266 323.531 509.802L338.231 495.102C339.628 493.693 340.409 491.789 340.405 489.805C340.401 487.822 339.611 485.921 338.209 484.518C336.806 483.116 334.905 482.326 332.922 482.321C330.938 482.317 329.034 483.098 327.625 484.495L318.228 493.892L297.237 472.901L376.389 393.75C376.459 393.683 376.527 393.615 376.594 393.545L393.655 376.484L414.648 397.476L351.15 460.974C349.754 462.382 348.972 464.287 348.977 466.27C348.981 468.254 349.77 470.155 351.173 471.557C352.575 472.96 354.476 473.75 356.46 473.754C358.443 473.758 360.348 472.977 361.756 471.581L430.557 402.779C431.254 402.082 431.807 401.255 432.184 400.345C432.561 399.435 432.755 398.46 432.755 397.475C432.755 396.49 432.561 395.514 432.184 394.604C431.807 393.694 431.254 392.867 430.557 392.171L398.958 360.572C397.552 359.166 395.644 358.376 393.655 358.376C391.666 358.376 389.759 359.166 388.352 360.572L373.052 375.872L369.401 368.98C381.595 356.012 418.249 314.429 424.38 277.125C428.153 254.161 448.825 230.691 467.063 209.983C476.132 199.685 484.699 189.96 490.177 181.287C492.874 177.018 501.081 164.026 494.05 152.766Z" fill="#D68029"/>
<path d="M401.655 391.903L397.463 387.711C396.048 386.343 394.153 385.586 392.186 385.603C390.218 385.62 388.336 386.409 386.945 387.8C385.554 389.191 384.765 391.073 384.749 393.041C384.732 395.008 385.489 396.903 386.857 398.318L391.049 402.51C392.513 403.974 394.433 404.706 396.352 404.706C398.271 404.706 400.191 403.974 401.655 402.51C402.351 401.813 402.904 400.986 403.281 400.076C403.658 399.166 403.852 398.191 403.852 397.206C403.852 396.221 403.658 395.246 403.281 394.336C402.904 393.426 402.351 392.599 401.655 391.903ZM250.434 357.618C248.638 322.369 208.716 271.299 166.519 217.324C145.342 190.236 128.753 188.702 120.752 190.202C115.338 191.215 110.804 194.175 107.815 198.457L107.467 198.082C73.4726 161.416 52.9606 139.292 34.9936 140.99C28.1576 141.639 22.4226 145.603 17.9476 152.771C10.9176 164.034 19.1266 177.028 21.8246 181.298C27.3046 189.974 35.8736 199.702 44.9466 210.003C50.2606 216.037 55.7576 222.277 61.0206 228.725C61.7236 229.588 62.6104 230.283 63.6162 230.76C64.6219 231.237 65.7215 231.483 66.8346 231.482C68.2533 231.481 69.6426 231.077 70.8413 230.319C72.0399 229.56 72.9988 228.477 73.6066 227.195C74.2144 225.913 74.4462 224.485 74.275 223.077C74.1039 221.668 73.5368 220.338 72.6396 219.239C67.1986 212.575 61.6086 206.227 56.2026 200.09C43.1376 185.256 26.8776 166.794 30.6716 160.715C33.4896 156.201 35.6136 155.999 36.4126 155.923C47.0196 154.951 69.9206 179.648 96.4666 208.28L102.352 214.624C103.1 215.427 103.881 216.24 104.65 217.05C106.048 223.296 109.597 229.53 115.024 234.814C138.436 257.608 151.52 299.867 151.649 300.292C152.228 302.195 153.539 303.789 155.294 304.725C157.05 305.661 159.105 305.862 161.008 305.283C162.911 304.703 164.505 303.392 165.441 301.637C166.377 299.882 166.578 297.827 165.999 295.924C165.427 294.044 151.694 249.582 125.487 224.067C119.318 218.061 118.304 212.042 119.311 208.712C119.944 206.616 121.357 205.35 123.51 204.947C129.539 203.812 140.896 208.905 154.7 226.563C193.923 276.734 234.451 328.579 235.475 358.861C235.411 382.365 218.671 421.85 207.901 444.831L150.042 386.972L158.396 371.203C159.146 369.784 159.423 368.162 159.184 366.575C158.945 364.988 158.203 363.519 157.068 362.385C156.587 361.905 108.853 313.834 102.42 274.698C101.006 266.078 97.7526 257.239 92.4746 247.677C92.0065 246.8 91.369 246.025 90.5989 245.397C89.8288 244.769 88.9417 244.301 87.9889 244.018C87.0362 243.736 86.0368 243.646 85.049 243.753C84.0611 243.861 83.1044 244.163 82.2345 244.643C81.3645 245.124 80.5987 245.772 79.9814 246.551C79.3641 247.329 78.9078 248.223 78.6388 249.179C78.3698 250.136 78.2936 251.136 78.4146 252.123C78.5356 253.109 78.8514 254.061 79.3436 254.925C83.7796 262.962 86.4866 270.224 87.6186 277.128C93.7506 314.432 130.405 356.015 142.598 368.982L138.947 375.874L123.647 360.574C122.24 359.168 120.333 358.378 118.344 358.378C116.355 358.378 114.447 359.168 113.041 360.574L81.4416 392.173C80.745 392.869 80.1924 393.696 79.8153 394.606C79.4383 395.516 79.2442 396.492 79.2442 397.477C79.2442 398.462 79.4383 399.437 79.8153 400.347C80.1924 401.257 80.745 402.084 81.4416 402.781L188.466 509.805C189.872 511.211 191.78 512.001 193.769 512.001C195.758 512.001 197.665 511.211 199.072 509.805L230.672 478.205C231.368 477.508 231.921 476.681 232.298 475.771C232.675 474.861 232.869 473.886 232.869 472.901C232.869 471.916 232.675 470.94 232.298 470.03C231.921 469.12 231.368 468.293 230.672 467.597L219.168 456.093C231.382 430.65 249.125 389.343 250.403 361.791C250.451 361.46 250.488 361.124 250.494 360.778C250.51 359.753 250.544 358.647 250.434 357.618ZM193.768 493.896L97.3506 397.478L118.344 376.486L135.405 393.547C135.472 393.617 135.54 393.684 135.61 393.752L214.762 472.903L193.768 493.896Z" fill="#D68029"/>
<path d="M125.14 387.708C123.733 386.302 121.826 385.512 119.837 385.512C117.848 385.512 115.94 386.302 114.534 387.708L110.342 391.9C108.945 393.309 108.164 395.213 108.168 397.197C108.172 399.18 108.962 401.081 110.364 402.484C111.767 403.886 113.668 404.676 115.651 404.681C117.635 404.685 119.539 403.904 120.948 402.507L125.14 398.315C125.836 397.619 126.389 396.792 126.766 395.882C127.143 394.972 127.337 393.997 127.337 393.012C127.337 392.027 127.143 391.052 126.766 390.142C126.389 389.232 125.836 388.405 125.14 387.708ZM278.225 19.1214L261.301 2.1964C259.894 0.79006 257.987 0 255.998 0C254.009 0 252.101 0.79006 250.695 2.1964L233.771 19.1214C232.389 20.5329 231.62 22.4326 231.63 24.4079C231.641 26.3831 232.43 28.2745 233.827 29.6712C235.224 31.0679 237.115 31.8573 239.09 31.8678C241.066 31.8783 242.965 31.1092 244.377 29.7274L248.498 25.6064V260.627C248.498 264.77 251.856 268.127 255.998 268.127C260.14 268.127 263.498 264.77 263.498 260.627V25.6064L267.619 29.7274C269.083 31.1924 271.003 31.9244 272.922 31.9244C274.841 31.9244 276.761 31.1924 278.225 29.7284C278.921 29.032 279.474 28.2051 279.851 27.2952C280.228 26.3852 280.422 25.4099 280.422 24.4249C280.422 23.4399 280.228 22.4646 279.851 21.5546C279.474 20.6447 278.921 19.8178 278.225 19.1214ZM220.725 180.494L146.394 106.164V71.3264L150.516 75.4484C151.93 76.8158 153.825 77.5727 155.793 77.556C157.76 77.5392 159.642 76.7502 161.033 75.359C162.424 73.9678 163.213 72.0856 163.23 70.1183C163.246 68.1509 162.489 66.2558 161.122 64.8414L144.197 47.9164C142.79 46.5102 140.883 45.7203 138.894 45.7205C136.905 45.7207 134.997 46.5109 133.591 47.9174L116.667 64.8414C115.26 66.2478 114.47 68.1555 114.469 70.1447C114.469 72.1339 115.259 74.0417 116.666 75.4484C118.072 76.8551 119.98 77.6455 121.969 77.6457C123.958 77.6459 125.866 76.8558 127.273 75.4494L131.394 71.3284V109.27C131.394 111.259 132.184 113.166 133.591 114.574L207.922 188.904V208.546C207.922 210.536 208.712 212.443 210.118 213.85C211.525 215.256 213.433 216.046 215.422 216.046C217.411 216.046 219.319 215.256 220.725 213.85C222.132 212.443 222.922 210.536 222.922 208.546V185.798C222.922 183.809 222.132 181.902 220.725 180.494ZM395.329 64.8414L378.405 47.9174C377.709 47.2206 376.882 46.6679 375.972 46.2907C375.062 45.9135 374.087 45.7193 373.102 45.7193C372.117 45.7192 371.142 45.9132 370.232 46.2902C369.322 46.6671 368.495 47.2198 367.799 47.9164L350.874 64.8414C349.477 66.25 348.696 68.1543 348.7 70.1377C348.704 72.1212 349.494 74.0222 350.896 75.4247C352.299 76.8273 354.2 77.6172 356.183 77.6217C358.167 77.6261 360.071 76.8447 361.48 75.4484L365.602 71.3264V116.443H304.572C302.583 116.443 300.675 117.234 299.268 118.64C297.862 120.047 297.072 121.954 297.072 123.943V208.544C297.072 210.534 297.862 212.441 299.268 213.848C300.675 215.254 302.583 216.044 304.572 216.044C306.561 216.044 308.469 215.254 309.875 213.848C311.282 212.441 312.072 210.534 312.072 208.544V131.443H373.102C375.091 131.443 376.999 130.653 378.405 129.247C379.812 127.84 380.602 125.933 380.602 123.943V71.3274L384.723 75.4484C386.187 76.9124 388.107 77.6444 390.026 77.6444C391.945 77.6444 393.865 76.9124 395.329 75.4484C396.025 74.7519 396.578 73.9251 396.955 73.0152C397.332 72.1052 397.526 71.1299 397.526 70.1449C397.526 69.1599 397.332 68.1846 396.955 67.2746C396.578 66.3647 396.025 65.5378 395.329 64.8414Z" fill="#D68029"/>
</g>
<defs>
<clipPath id="clip0_3411_2235">
<rect width="512" height="512" fill="white"/>
</clipPath>
</defs>
</svg>
