<svg width="512" height="512" viewBox="0 0 512 512" fill="none" xmlns="http://www.w3.org/2000/svg">
<path d="M466.105 33.1426H45.8949C20.5876 33.1426 0 53.7322 0 79.0385V389.433C0 414.739 20.5876 435.328 45.8949 435.328H148.267C152.414 435.328 155.775 431.967 155.775 427.819C155.775 423.671 152.414 420.31 148.267 420.31H45.8949C28.8696 420.31 15.018 406.459 15.018 389.433V79.0385C15.018 62.0121 28.8696 48.1606 45.8949 48.1606H466.105C483.13 48.1606 496.982 62.0121 496.982 79.0385V389.433C496.982 406.459 483.13 420.31 466.105 420.31H364.735C360.587 420.31 357.226 423.671 357.226 427.819C357.226 431.967 360.587 435.328 364.735 435.328H466.105C491.411 435.328 512 414.74 512 389.433V79.0385C512 53.7322 491.411 33.1426 466.105 33.1426Z" fill="#D68029"/>
<path d="M196.977 336.621C196.977 332.473 193.616 329.112 189.468 329.112H45.8941C45.6712 329.112 45.4574 329.023 45.2998 328.866C45.1421 328.708 45.0534 328.494 45.0531 328.271V295.758H211.322C215.47 295.758 218.831 292.397 218.831 288.249C218.831 284.101 215.47 280.74 211.322 280.74H45.0531V258.387H237.313C241.461 258.387 244.822 255.026 244.822 250.878V78.1957H267.175V250.879C267.175 255.027 270.536 258.388 274.684 258.388H333.521C335.439 258.389 337.283 257.655 338.677 256.339L418.549 180.924C419.972 179.55 420.795 177.671 420.841 175.695C420.886 173.718 420.151 171.803 418.793 170.365C417.436 168.927 415.566 168.083 413.59 168.016C411.614 167.948 409.691 168.662 408.238 170.004L330.536 243.369H282.193V78.1957H466.102C466.567 78.1957 466.944 78.5732 466.944 79.0377V114.575L431.533 148.01C430.085 149.377 429.239 151.264 429.182 153.254C429.125 155.245 429.86 157.177 431.227 158.625C431.929 159.37 432.775 159.963 433.714 160.368C434.653 160.773 435.665 160.981 436.688 160.98C438.605 160.982 440.449 160.249 441.841 158.93L466.943 135.23V165.974L382.799 245.421C381.706 246.453 380.948 247.79 380.623 249.258C380.298 250.726 380.422 252.257 380.977 253.654C381.532 255.051 382.494 256.25 383.738 257.094C384.982 257.938 386.451 258.389 387.955 258.389H466.944V280.742H301.676C297.528 280.742 294.167 284.103 294.167 288.251C294.167 292.399 297.528 295.76 301.676 295.76H466.944V328.271C466.944 328.495 466.856 328.709 466.698 328.867C466.54 329.025 466.326 329.114 466.102 329.114H323.532C319.384 329.114 316.023 332.475 316.023 336.623C316.023 340.771 319.384 344.132 323.532 344.132H466.103C474.848 344.132 481.963 337.018 481.963 328.271V79.0377C481.963 70.2933 474.849 63.1777 466.103 63.1777H102.196C98.0476 63.1777 94.6866 66.5388 94.6866 70.6867C94.6866 74.8347 98.0476 78.1957 102.196 78.1957H229.804V243.37H45.0531V79.0377C45.0531 78.5732 45.4306 78.1957 45.8951 78.1957H70.1952C74.3432 78.1957 77.7042 74.8347 77.7042 70.6867C77.7042 66.5388 74.3432 63.1777 70.1952 63.1777H45.8951C37.1497 63.1777 30.0352 70.2923 30.0352 79.0377V328.272C30.0352 337.017 37.1487 344.131 45.8941 344.131H189.468C190.454 344.131 191.431 343.937 192.342 343.559C193.253 343.182 194.081 342.629 194.778 341.931C195.475 341.234 196.028 340.406 196.406 339.495C196.783 338.584 196.977 337.607 196.977 336.621ZM406.846 243.37L466.944 186.626V243.37H406.846Z" fill="#D68029"/>
<path d="M362.994 136.677C362.306 135.97 361.486 135.406 360.58 135.017C359.674 134.628 358.7 134.421 357.714 134.408C356.728 134.395 355.749 134.576 354.833 134.941C353.917 135.307 353.082 135.849 352.375 136.537L343.068 145.602L334.002 136.294C332.613 134.867 330.714 134.05 328.722 134.024C326.731 133.998 324.81 134.764 323.384 136.153C321.957 137.543 321.141 139.442 321.114 141.434C321.088 143.425 321.854 145.345 323.244 146.772L332.309 156.08L323.002 165.146C321.933 166.189 321.199 167.526 320.894 168.988C320.589 170.45 320.726 171.969 321.288 173.352C321.851 174.736 322.813 175.92 324.051 176.754C325.29 177.588 326.749 178.034 328.243 178.034C330.2 178.037 332.08 177.272 333.481 175.905L342.788 166.839L351.853 176.146C352.552 176.866 353.388 177.437 354.313 177.827C355.237 178.217 356.23 178.417 357.233 178.416C358.71 178.415 360.153 177.979 361.383 177.162C362.612 176.346 363.574 175.185 364.148 173.825C364.722 172.464 364.882 170.965 364.609 169.515C364.336 168.064 363.641 166.726 362.612 165.668L353.547 156.361L362.854 147.296C364.28 145.906 365.096 144.007 365.123 142.015C365.149 140.024 364.383 138.104 362.994 136.677ZM116.523 178.036C120.671 178.036 124.032 174.675 124.032 170.527V156.395C135.682 153.112 144.249 142.395 144.249 129.709C144.249 114.419 131.811 101.982 116.523 101.982C101.235 101.982 88.7959 114.42 88.7959 129.709C88.7959 142.395 97.3642 153.112 109.014 156.395V170.527C109.014 172.519 109.805 174.429 111.213 175.837C112.622 177.245 114.532 178.036 116.523 178.036ZM103.813 129.709C103.813 122.701 109.514 117 116.522 117C123.529 117 129.23 122.701 129.23 129.709C129.23 136.717 123.529 142.418 116.522 142.418C109.515 142.419 103.813 136.717 103.813 129.709ZM48.6328 379.524C48.6328 391.413 58.3054 401.086 70.1946 401.086C82.0839 401.086 91.7564 391.413 91.7564 379.524C91.7564 367.634 82.0839 357.962 70.1946 357.962C58.3054 357.962 48.6328 367.634 48.6328 379.524ZM76.7385 379.524C76.7385 383.132 73.8029 386.068 70.1946 386.068C66.5863 386.068 63.6508 383.132 63.6508 379.524C63.6508 375.915 66.5863 372.98 70.1946 372.98C73.8029 372.98 76.7385 375.914 76.7385 379.524ZM107.852 379.524C107.852 391.413 117.524 401.086 129.414 401.086C141.303 401.086 150.975 391.413 150.975 379.524C150.975 367.634 141.303 357.962 129.414 357.962C117.524 357.962 107.852 367.634 107.852 379.524ZM135.957 379.524C135.957 383.132 133.022 386.068 129.414 386.068C125.805 386.068 122.87 383.132 122.87 379.524C122.87 375.915 125.805 372.98 129.414 372.98C133.022 372.98 135.957 375.914 135.957 379.524ZM421.243 379.524C421.243 391.413 430.915 401.086 442.805 401.086C454.694 401.086 464.367 391.413 464.367 379.524C464.367 367.634 454.694 357.962 442.805 357.962C430.915 357.962 421.243 367.634 421.243 379.524ZM449.35 379.524C449.35 383.132 446.414 386.068 442.806 386.068C439.197 386.068 436.262 383.132 436.262 379.524C436.262 375.915 439.197 372.98 442.806 372.98C446.414 372.98 449.35 375.914 449.35 379.524ZM362.025 379.524C362.025 391.413 371.698 401.086 383.587 401.086C395.476 401.086 405.149 391.413 405.149 379.524C405.149 367.634 395.476 357.962 383.587 357.962C371.698 357.962 362.025 367.634 362.025 379.524ZM390.131 379.524C390.131 383.132 387.195 386.068 383.587 386.068C379.978 386.068 377.043 383.132 377.043 379.524C377.043 375.915 379.978 372.98 383.587 372.98C387.195 372.98 390.131 375.914 390.131 379.524ZM268.326 269.142C266.198 264.434 261.667 261.509 256.5 261.509C251.332 261.509 246.801 264.434 244.674 269.143L219.289 325.327C218.47 327.142 218.405 329.208 219.108 331.071C219.811 332.934 221.226 334.441 223.041 335.262C223.939 335.668 224.909 335.894 225.895 335.925C226.881 335.956 227.863 335.793 228.785 335.445C229.708 335.096 230.553 334.57 231.272 333.894C231.991 333.219 232.57 332.409 232.976 331.51L256.499 279.444L338.973 461.99L261.007 429.449C259.415 428.79 257.708 428.452 255.985 428.455C254.262 428.459 252.557 428.803 250.967 429.468L174.067 461.897L219.735 360.817C220.554 359.002 220.619 356.936 219.916 355.073C219.212 353.21 217.798 351.703 215.983 350.882C214.168 350.064 212.102 349.999 210.239 350.702C208.377 351.406 206.869 352.82 206.048 354.634L158.236 460.459C156.022 465.358 157.017 471.011 160.77 474.861C164.523 478.71 170.15 479.846 175.103 477.759L256.012 443.64L337.966 477.845C339.558 478.513 341.267 478.858 342.993 478.86C346.418 478.86 349.767 477.492 352.272 474.914C354.096 473.051 355.312 470.68 355.762 468.112C356.212 465.545 355.873 462.901 354.791 460.53L268.326 269.142Z" fill="#D68029"/>
</svg>
