<svg width="512" height="512" viewBox="0 0 512 512" fill="none" xmlns="http://www.w3.org/2000/svg">
<g clip-path="url(#clip0_3419_2408)">
<path d="M388.269 0H46.9344C23.3823 0.0277335 4.29531 19.1147 4.26758 42.6668V315.735C4.26545 335.196 17.4324 352.191 36.2762 357.053L40.5429 340.533C35.0443 339.115 30.1732 335.909 26.6958 331.42C23.2185 326.931 21.3324 321.413 21.3343 315.735V42.6668C21.3343 28.5281 32.7957 17.0667 46.9344 17.0667H388.269C402.408 17.0667 413.869 28.5281 413.869 42.6668V51.2002H430.936V42.6668C430.908 19.1147 411.821 0.0277335 388.269 0Z" fill="#D68029"/>
<path d="M38.4004 34.1328H55.4671V51.1996H38.4004V34.1328ZM72.5339 34.1328H89.6006V51.1996H72.5339V34.1328ZM106.667 34.1328H123.734V51.1996H106.667V34.1328ZM505.235 471.835L424.296 390.896C428.548 383.307 431.948 375.271 434.434 366.934H448.002V349.867H438.103C441.317 329.211 438.839 308.07 430.935 288.717V204.8H413.869V259.141C408.801 252.667 403.082 246.731 396.802 241.425V170.667H379.735V229.496C374.272 226.33 368.565 223.605 362.668 221.346V136.533H345.602V216.167C339.979 214.953 334.275 214.152 328.535 213.769V153.6H311.468V213.769C305.729 214.152 300.024 214.953 294.401 216.167V187.733H277.335V221.346C271.438 223.605 265.731 226.33 260.268 229.496V179.2H243.201V241.425C236.921 246.731 231.202 252.667 226.135 259.141V196.267H209.068V288.717C201.164 308.07 198.686 329.211 201.9 349.867H89.6006V366.934H205.569C224.285 430.062 290.632 466.064 353.759 447.348C366.198 443.66 377.953 437.966 388.559 430.491L467.569 509.501C469.169 511.101 471.339 512 473.602 512C475.865 512 478.035 511.101 479.635 509.501L505.235 483.901C506.835 482.301 507.734 480.131 507.734 477.868C507.734 475.605 506.835 473.435 505.235 471.835ZM320.002 435.201C263.472 435.14 217.662 389.33 217.601 332.801C217.601 276.247 263.448 230.4 320.002 230.4C376.555 230.4 422.402 276.247 422.402 332.801C422.402 389.355 376.555 435.201 320.002 435.201ZM473.602 491.402L401.82 419.619C406.47 415.225 410.765 410.468 414.662 405.394L487.136 477.868L473.602 491.402Z" fill="#D68029"/>
<path d="M320.002 247.467C272.873 247.467 234.668 285.672 234.668 332.8C234.668 379.929 272.873 418.134 320.002 418.134C367.13 418.134 405.335 379.929 405.335 332.8C405.284 285.693 367.109 247.518 320.002 247.467ZM320.002 401.067C308.033 401.052 296.279 397.891 285.918 391.9C275.556 385.909 266.952 377.299 260.968 366.934H379.036C373.051 377.299 364.447 385.909 354.086 391.9C343.725 397.891 331.97 401.052 320.002 401.067ZM253.979 349.867C247.113 323.883 256.281 296.299 277.335 279.595V332.8H294.402V269.56C299.874 267.346 305.611 265.854 311.468 265.122V332.8H328.535V265.122C334.393 265.854 340.13 267.346 345.602 269.56V332.8H362.669V279.595C383.722 296.299 392.89 323.883 386.024 349.867H253.979Z" fill="#D68029"/>
<path d="M439.47 68.2676H98.1356C74.5835 68.2953 55.4965 87.3823 55.4688 110.934V384.002C55.4965 407.554 74.5835 426.641 98.1356 426.669H209.069V409.602H98.1356C83.9969 409.602 72.5355 398.141 72.5355 384.002V110.934C72.5355 96.7957 83.9969 85.3343 98.1356 85.3343H439.47C453.609 85.3343 465.07 96.7957 465.07 110.934V384.002C465.07 390.237 462.794 396.257 458.67 400.932L471.47 412.222C478.348 404.431 482.142 394.395 482.137 384.002V110.934C482.109 87.3823 463.022 68.2953 439.47 68.2676Z" fill="#D68029"/>
<path d="M89.6016 102.4H106.668V119.467H89.6016V102.4ZM123.735 102.4H140.802V119.467H123.735V102.4ZM157.869 102.4H174.935V119.467H157.869V102.4ZM106.668 281.601H123.735V332.801H106.668V281.601ZM140.802 230.401H157.869V332.801H140.802V230.401ZM174.935 256.001H192.002V332.801H174.935V256.001Z" fill="#D68029"/>
</g>
<defs>
<clipPath id="clip0_3419_2408">
<rect width="512" height="512" fill="white"/>
</clipPath>
</defs>
</svg>
