<svg width="512" height="512" viewBox="0 0 512 512" fill="none" xmlns="http://www.w3.org/2000/svg">
<path d="M104.279 56.2793C77.8073 56.2793 56.2793 77.8073 56.2793 104.279C56.2793 130.751 77.8073 152.279 104.279 152.279C130.751 152.279 152.279 130.751 152.279 104.279C152.279 77.8073 130.751 56.2793 104.279 56.2793ZM104.279 136.279C86.6313 136.279 72.2793 121.927 72.2793 104.279C72.2793 86.6313 86.6313 72.2793 104.279 72.2793C121.927 72.2793 136.279 86.6313 136.279 104.279C136.279 121.927 121.927 136.279 104.279 136.279ZM461.655 389.655L450.343 378.343L391.999 436.687L381.655 426.343L370.343 437.655L391.999 459.311L461.655 389.655ZM279.999 95.9993H295.999V111.999H279.999V95.9993ZM375.999 95.9993H391.999V111.999H375.999V95.9993ZM343.999 95.9993H359.999V111.999H343.999V95.9993ZM311.999 95.9993H327.999V111.999H311.999V95.9993Z" fill="#D68029"/>
<path d="M192 295.999H320C333.232 295.999 344 285.231 344 271.999V263.999H448C478.872 263.999 504 238.879 504 207.999V151.999C504 121.119 478.872 95.9993 448 95.9993H424V87.9993C424 74.7673 413.232 63.9993 400 63.9993H272C258.768 63.9993 248 74.7673 248 87.9993V95.9993H200.28V82.1753L179.28 76.4393C178.592 74.5993 177.824 72.7673 176.992 70.9593L187.8 52.0313L156.536 20.7673L137.616 31.5673C135.8 30.7353 133.976 29.9673 132.136 29.2793L126.392 8.2793H82.176L76.432 29.2793C74.5792 29.9713 72.7539 30.7345 70.96 31.5673L52.032 20.7673L20.768 52.0313L31.568 70.9593C30.736 72.7673 29.968 74.5993 29.28 76.4393L8.28 82.1753V126.383L29.28 132.127C29.968 133.967 30.736 135.799 31.568 137.607L20.76 156.535L52.024 187.791L70.952 176.991C72.76 177.823 74.584 178.591 76.424 179.279L82.168 200.279H126.384L132.128 179.279C133.96 178.591 135.792 177.823 137.608 176.991L156.528 187.783L187.792 156.527L176.984 137.599C177.816 135.791 178.584 133.959 179.272 132.119L200.272 126.375V111.999H248V119.999C248 133.231 258.768 143.999 272 143.999H400C413.232 143.999 424 133.231 424 119.999V111.999H448C470.056 111.999 488 129.943 488 151.999V207.999C488 230.055 470.056 247.999 448 247.999H344V239.999C344 226.767 333.232 215.999 320 215.999H192C178.768 215.999 168 226.767 168 239.999V247.999H64C33.128 247.999 8 273.127 8 303.999V367.999C8 398.871 33.128 423.999 64 423.999H88V431.999C88 445.231 98.768 455.999 112 455.999H240C253.232 455.999 264 445.231 264 431.999V423.999H328.408C332.464 468.783 370.176 503.999 416 503.999C464.52 503.999 504 464.519 504 415.999C504 367.479 464.52 327.999 416 327.999C370.176 327.999 332.464 363.215 328.408 407.999H264V399.999C264 386.767 253.232 375.999 240 375.999H112C98.768 375.999 88 386.767 88 399.999V407.999H64C41.944 407.999 24 390.055 24 367.999V303.999C24 281.943 41.944 263.999 64 263.999H168V271.999C168 285.231 178.768 295.999 192 295.999ZM184.28 114.175L166.736 118.975L165.448 123.175C164.264 126.962 162.732 130.631 160.872 134.135L158.808 138.023L167.848 153.855L153.864 167.847L138.024 158.815L134.144 160.871C130.642 162.735 126.973 164.264 123.184 165.439L118.992 166.735L114.184 184.279H94.4L89.592 166.735L85.4 165.439C81.6122 164.262 77.9429 162.732 74.44 160.871L70.552 158.815L54.72 167.847L40.72 153.855L49.76 138.023L47.696 134.135C45.833 130.632 44.301 126.963 43.12 123.175L41.832 118.975L24.288 114.175V94.3833L41.832 89.5913L43.128 85.3913C44.272 81.6873 45.808 77.9993 47.696 74.4393L49.76 70.5433L40.72 54.7113L54.704 40.7193L70.536 49.7513L74.424 47.6953C77.9278 45.834 81.5969 44.302 85.384 43.1193L89.576 41.8233L94.384 24.2793H114.168L118.976 41.8233L123.168 43.1193C126.864 44.2633 130.552 45.7993 134.128 47.6953L138.008 49.7513L153.848 40.7193L167.832 54.7113L158.792 70.5433L160.856 74.4313C162.744 77.9913 164.288 81.6793 165.424 85.3833L166.72 89.5833L184.264 94.3753V114.175H184.28ZM408 119.999C408 124.407 404.416 127.999 400 127.999H272C267.584 127.999 264 124.407 264 119.999V87.9993C264 83.5913 267.584 79.9993 272 79.9993H400C404.416 79.9993 408 83.5913 408 87.9993V119.999ZM416 343.999C455.704 343.999 488 376.295 488 415.999C488 455.703 455.704 487.999 416 487.999C376.296 487.999 344 455.703 344 415.999C344 376.295 376.296 343.999 416 343.999ZM104 399.999C104 397.878 104.843 395.843 106.343 394.342C107.843 392.842 109.878 391.999 112 391.999H240C242.122 391.999 244.157 392.842 245.657 394.342C247.157 395.843 248 397.878 248 399.999V431.999C248 434.121 247.157 436.156 245.657 437.656C244.157 439.156 242.122 439.999 240 439.999H112C109.878 439.999 107.843 439.156 106.343 437.656C104.843 436.156 104 434.121 104 431.999V399.999ZM184 239.999C184 235.591 187.584 231.999 192 231.999H320C324.416 231.999 328 235.591 328 239.999V271.999C328 274.121 327.157 276.156 325.657 277.656C324.157 279.156 322.122 279.999 320 279.999H192C189.878 279.999 187.843 279.156 186.343 277.656C184.843 276.156 184 274.121 184 271.999V239.999Z" fill="#D68029"/>
<path d="M264 248H280V264H264V248ZM232 248H248V264H232V248ZM200 248H216V264H200V248ZM296 248H312V264H296V248ZM152 408H168V424H152V408ZM216 408H232V424H216V408ZM184 408H200V424H184V408ZM120 408H136V424H120V408Z" fill="#D68029"/>
</svg>
