<svg width="512" height="512" viewBox="0 0 512 512" fill="none" xmlns="http://www.w3.org/2000/svg">
<path d="M485.76 26.4009C484.849 25.4684 483.725 24.7703 482.485 24.3663C481.245 23.9623 479.926 23.8644 478.64 24.0809L291.28 56.3209C284.96 56.8009 279.76 60.8009 277.6 66.7209C275.44 72.6409 276.88 79.0409 281.28 83.5209L308.64 110.801L274 145.361C261.84 87.6009 211.04 45.5209 150.4 45.5209C80.72 45.5209 24 102.081 24 171.601C24 231.921 66.16 282.721 124.08 294.881L81.36 337.521C80.6184 338.261 80.03 339.14 79.6286 340.108C79.2271 341.076 79.0205 342.113 79.0205 343.161C79.0205 344.209 79.2271 345.246 79.6286 346.214C80.03 347.182 80.6184 348.061 81.36 348.801C82.96 350.321 84.96 351.121 87.04 351.121C89.12 351.121 91.12 350.321 92.72 348.801L320 122.081C326.24 115.841 326.24 105.761 320 99.5209L293.36 72.1609L469.84 41.8409L434.24 212.241C434.16 212.561 434.16 212.881 434.08 213.201L406.72 185.921C403.68 182.881 399.68 181.281 395.44 181.201C391.2 181.201 387.12 182.881 384.16 185.841L285.2 284.481C284.459 285.222 283.872 286.101 283.471 287.069C283.07 288.036 282.864 289.073 282.864 290.121C282.864 291.168 283.07 292.206 283.471 293.173C283.872 294.141 284.459 295.02 285.2 295.761C285.941 296.502 286.82 297.089 287.788 297.49C288.755 297.891 289.793 298.097 290.84 298.097C291.887 298.097 292.925 297.891 293.892 297.49C294.86 297.089 295.739 296.502 296.48 295.761L395.28 197.201L422.64 224.481C427.12 228.961 433.6 230.321 439.44 228.161C445.2 226.081 449.12 221.041 449.84 215.041L487.84 33.6009C488.108 32.3222 488.058 30.9974 487.695 29.7423C487.333 28.4872 486.668 27.34 485.76 26.4009ZM40 171.601C40 110.881 89.52 61.5209 150.4 61.5209C206.96 61.5209 253.84 103.441 260.08 159.281L138 280.961C111.048 278.042 86.1272 265.258 68.0349 245.068C49.9425 224.879 39.957 198.711 40 171.601ZM276.08 316.081L183.92 408.001C182.32 409.521 180.32 410.321 178.24 410.321C176.16 410.321 174.16 409.521 172.56 408.001C171.818 407.261 171.23 406.382 170.829 405.414C170.427 404.446 170.22 403.409 170.22 402.361C170.22 401.313 170.427 400.276 170.829 399.308C171.23 398.34 171.818 397.461 172.56 396.721L264.8 304.801C266.296 303.305 268.325 302.465 270.44 302.465C272.555 302.465 274.584 303.305 276.08 304.801C277.576 306.297 278.416 308.326 278.416 310.441C278.416 312.556 277.576 314.585 276.08 316.081ZM148.48 373.841L37.68 484.401C36.08 485.921 34.08 486.721 32 486.721C29.92 486.721 27.92 485.921 26.32 484.401C25.5784 483.661 24.99 482.782 24.5886 481.814C24.1871 480.846 23.9805 479.809 23.9805 478.761C23.9805 477.713 24.1871 476.676 24.5886 475.708C24.99 474.74 25.5784 473.861 26.32 473.121L137.2 362.561C137.941 361.82 138.82 361.233 139.788 360.832C140.755 360.431 141.793 360.225 142.84 360.225C143.887 360.225 144.925 360.431 145.892 360.832C146.86 361.233 147.739 361.82 148.48 362.561C149.221 363.302 149.808 364.181 150.209 365.149C150.61 366.116 150.816 367.153 150.816 368.201C150.816 369.248 150.61 370.286 150.209 371.253C149.808 372.221 149.221 373.1 148.48 373.841ZM174.4 348.001C172.8 349.521 170.8 350.321 168.72 350.321C166.64 350.321 164.64 349.521 163.04 348.001C162.298 347.261 161.71 346.382 161.309 345.414C160.907 344.446 160.7 343.409 160.7 342.361C160.7 341.313 160.907 340.276 161.309 339.308C161.71 338.34 162.298 337.461 163.04 336.721L210.24 289.601C210.981 288.86 211.86 288.273 212.828 287.872C213.795 287.471 214.833 287.265 215.88 287.265C216.927 287.265 217.965 287.471 218.932 287.872C219.9 288.273 220.779 288.86 221.52 289.601C222.261 290.342 222.848 291.221 223.249 292.189C223.65 293.156 223.856 294.193 223.856 295.241C223.856 296.288 223.65 297.326 223.249 298.293C222.848 299.261 222.261 300.14 221.52 300.881L174.4 348.001ZM158.72 421.841C161.84 424.961 161.84 430.001 158.72 433.121L106 485.681C104.48 487.201 102.48 488.001 100.4 488.001C98.32 488.001 96.32 487.201 94.72 485.681C93.9784 484.941 93.39 484.062 92.9886 483.094C92.5871 482.126 92.3805 481.089 92.3805 480.041C92.3805 478.993 92.5871 477.956 92.9886 476.988C93.39 476.02 93.9784 475.141 94.72 474.401L147.44 421.841C148.18 421.099 149.059 420.511 150.027 420.109C150.995 419.708 152.032 419.501 153.08 419.501C154.128 419.501 155.165 419.708 156.133 420.109C157.101 420.511 157.98 421.099 158.72 421.841ZM188.8 189.521C188.8 206.801 174.72 220.881 157.36 220.881H155.28V232.961C155.28 237.361 151.68 240.961 147.28 240.961C142.88 240.961 139.28 237.361 139.28 232.961V220.881H127.2C122.8 220.881 119.2 217.281 119.2 212.881C119.2 208.481 122.8 204.881 127.2 204.881H157.36C165.84 204.881 172.8 198.001 172.8 189.441C172.8 180.961 165.84 174.001 157.36 174.001H144C126.64 174.001 112.56 159.921 112.56 142.641C112.56 126.961 124.24 114.001 139.36 111.761V99.2009C139.36 94.8009 142.96 91.2009 147.36 91.2009C151.76 91.2009 155.36 94.8009 155.36 99.2009V111.281H174.16C178.56 111.281 182.16 114.881 182.16 119.281C182.16 123.681 178.56 127.281 174.16 127.281H144C139.991 127.41 136.19 129.093 133.399 131.975C130.609 134.856 129.049 138.71 129.049 142.721C129.049 146.732 130.609 150.586 133.399 153.467C136.19 156.349 139.991 158.032 144 158.161H157.44C174.72 158.161 188.8 172.241 188.8 189.521ZM436.4 309.361C438.16 311.041 439.04 313.441 438.8 315.841L432.24 389.201C432.32 392.801 429.76 396.641 425.76 398.321C421.6 400.081 416.72 399.041 413.36 395.681L404.8 387.121L325.76 466.001C324.16 467.521 322.16 468.321 320.08 468.321C318 468.321 316 467.521 314.4 466.001C313.658 465.261 313.07 464.382 312.669 463.414C312.267 462.446 312.06 461.409 312.06 460.361C312.06 459.313 312.267 458.276 312.669 457.308C313.07 456.34 313.658 455.461 314.4 454.721L397.04 372.241C401.28 368.001 408.4 368.161 412.88 372.641L417.28 377.041L422 324.321L370.88 330.801L375.6 335.521C377.76 337.681 379.04 340.721 379.04 343.761C379.04 346.641 377.92 349.281 375.92 351.281L340 387.121C338.504 388.617 336.475 389.457 334.36 389.457C332.245 389.457 330.216 388.617 328.72 387.121C327.224 385.625 326.384 383.596 326.384 381.481C326.384 379.366 327.224 377.337 328.72 375.841L361.04 343.601L352.48 335.041C349.12 331.681 348.08 326.801 349.84 322.641C351.36 318.881 354.96 316.401 359.04 316.161L429.84 307.201C432.24 306.881 434.64 307.681 436.4 309.361ZM287.84 427.841C287.098 427.101 286.51 426.222 286.109 425.254C285.707 424.286 285.5 423.249 285.5 422.201C285.5 421.153 285.707 420.116 286.109 419.148C286.51 418.18 287.098 417.301 287.84 416.561L315.36 389.121C316.856 387.625 318.885 386.785 321 386.785C323.115 386.785 325.144 387.625 326.64 389.121C328.136 390.617 328.976 392.646 328.976 394.761C328.976 396.876 328.136 398.905 326.64 400.401L299.12 427.841C297.52 429.361 295.52 430.161 293.44 430.161C291.36 430.161 289.36 429.441 287.84 427.841ZM305.68 440.001C308.8 443.121 308.8 448.161 305.68 451.281L273.6 483.281C272 484.801 270 485.601 267.92 485.601C265.84 485.601 263.84 484.801 262.24 483.281C261.498 482.541 260.91 481.662 260.509 480.694C260.107 479.726 259.9 478.689 259.9 477.641C259.9 476.593 260.107 475.556 260.509 474.588C260.91 473.62 261.498 472.741 262.24 472.001L294.32 440.001C297.44 436.881 302.56 436.881 305.68 440.001ZM317.68 436.001C315.6 436.001 313.6 435.201 312 433.681C311.258 432.941 310.67 432.062 310.269 431.094C309.867 430.126 309.66 429.089 309.66 428.041C309.66 426.993 309.867 425.956 310.269 424.988C310.67 424.02 311.258 423.141 312 422.401L329.2 405.281C329.941 404.54 330.82 403.953 331.788 403.552C332.755 403.151 333.793 402.945 334.84 402.945C335.887 402.945 336.925 403.151 337.892 403.552C338.86 403.953 339.739 404.54 340.48 405.281C341.221 406.022 341.808 406.901 342.209 407.869C342.61 408.836 342.816 409.873 342.816 410.921C342.816 411.968 342.61 413.006 342.209 413.973C341.808 414.941 341.221 415.82 340.48 416.561L323.28 433.681C321.76 435.201 319.68 436.001 317.68 436.001ZM265.12 458.481C263.04 458.481 261.04 457.681 259.44 456.161C258.698 455.421 258.11 454.542 257.709 453.574C257.307 452.606 257.1 451.569 257.1 450.521C257.1 449.473 257.307 448.436 257.709 447.468C258.11 446.5 258.698 445.621 259.44 444.881L275.28 429.041C276.021 428.3 276.9 427.713 277.868 427.312C278.835 426.911 279.873 426.705 280.92 426.705C281.967 426.705 283.005 426.911 283.972 427.312C284.94 427.713 285.819 428.3 286.56 429.041C287.301 429.782 287.888 430.661 288.289 431.629C288.69 432.596 288.896 433.633 288.896 434.681C288.896 435.728 288.69 436.766 288.289 437.733C287.888 438.701 287.301 439.58 286.56 440.321L270.72 456.161C269.2 457.681 267.2 458.481 265.12 458.481Z" fill="#D68029"/>
</svg>
