<svg width="512" height="512" viewBox="0 0 512 512" fill="none" xmlns="http://www.w3.org/2000/svg">
<path d="M256 256C279.734 256 302.935 248.962 322.668 235.776C342.402 222.591 357.783 203.849 366.866 181.922C375.948 159.995 378.324 135.867 373.694 112.589C369.064 89.3115 357.635 67.9295 340.853 51.1472C324.071 34.3649 302.689 22.936 279.411 18.3058C256.133 13.6756 232.005 16.052 210.078 25.1345C188.151 34.217 169.409 49.5977 156.224 69.3316C143.038 89.0655 136 112.266 136 136C136.036 167.815 148.69 198.317 171.187 220.813C193.684 243.31 224.185 255.964 256 256ZM256 32.0001C276.569 32.0001 296.677 38.0995 313.779 49.5272C330.882 60.9549 344.212 77.1975 352.083 96.201C359.955 115.204 362.015 136.115 358.002 156.289C353.989 176.463 344.084 194.994 329.539 209.539C314.994 224.084 296.463 233.989 276.289 238.002C256.115 242.015 235.204 239.955 216.201 232.084C197.197 224.212 180.955 210.882 169.527 193.779C158.099 176.677 152 156.569 152 136C152.031 108.427 162.998 81.9925 182.495 62.4954C201.992 42.9984 228.427 32.0313 256 32.0001Z" fill="#D68029"/>
<path d="M216 144H200C200 158.852 205.9 173.096 216.402 183.598C226.904 194.1 241.148 200 256 200C270.852 200 285.096 194.1 295.598 183.598C306.1 173.096 312 158.852 312 144H296C296 154.608 291.785 164.782 284.284 172.284C276.783 179.785 266.608 184 256 184C245.391 184 235.217 179.785 227.715 172.284C220.214 164.782 216 154.608 216 144ZM76.2727 168.152C88.1298 143.896 104.786 122.299 125.233 104.668L114.767 92.5656C92.3383 111.909 74.1376 135.668 61.3007 162.359C48.4637 189.05 41.266 218.101 40.1567 247.698L56.1447 248.302C57.1451 220.467 64.0036 193.156 76.2727 168.152ZM279.087 454.683C271.422 455.56 263.714 456 256 456C235.108 456.021 214.343 452.766 194.46 446.355L189.54 461.581C211.012 468.505 233.438 472.021 256 472C264.324 471.999 272.642 471.524 280.913 470.578L279.087 454.683ZM437.275 171.389L451.769 164.611C438.218 135.769 418.509 110.249 394.029 89.8486L383.799 102.151C406.471 121.044 424.725 144.678 437.275 171.389ZM23.9997 384H39.9997V416C40.0069 422.363 42.5377 428.463 47.0371 432.962C51.5364 437.462 57.6367 439.992 63.9997 440H71.9997V496H87.9997V432C87.9997 429.878 87.1569 427.843 85.6566 426.343C84.1563 424.842 82.1215 424 79.9997 424H63.9997C61.8788 423.997 59.8455 423.153 58.3458 421.654C56.8461 420.154 56.0024 418.121 55.9997 416V376C55.9997 373.878 55.1569 371.843 53.6566 370.343C52.1563 368.842 50.1215 368 47.9997 368H36.9437L55.1547 331.578C55.7105 330.467 55.9998 329.242 55.9997 328C56.0212 308.911 63.6137 290.61 77.1117 277.112C90.6097 263.614 108.911 256.021 128 256H136C155.089 256.021 173.39 263.614 186.888 277.112C200.386 290.61 207.978 308.911 208 328C208.045 344.71 204.776 361.263 198.381 376.702C191.986 392.14 182.593 406.157 170.745 417.941L162.343 426.343C161.6 427.085 161.011 427.967 160.609 428.938C160.206 429.909 160 430.949 160 432V496H176V435.313L182.059 429.255C195.397 415.989 205.972 400.209 213.172 382.828C220.371 365.448 224.051 346.812 224 328C223.973 304.669 214.693 282.301 198.196 265.803C181.698 249.306 159.331 240.026 136 240H128C105.003 240.026 82.9281 249.044 66.4896 265.125C50.0511 281.207 40.5519 303.079 40.0207 326.07L16.8447 372.422C16.2348 373.641 15.9468 374.997 16.0081 376.359C16.0693 377.721 16.4778 379.045 17.1946 380.205C17.9115 381.365 18.913 382.323 20.104 382.987C21.2951 383.651 22.6361 384 23.9997 384Z" fill="#D68029"/>
<path d="M72 336C71.9928 342.358 73.0713 348.671 75.189 354.666L90.274 349.333C88.7628 345.051 87.9937 340.542 88 336H72ZM128 392C135.878 391.995 143.666 390.33 150.858 387.114C158.049 383.898 164.483 379.203 169.739 373.335L157.817 362.665C153.741 367.223 148.674 370.785 143.006 373.079C137.338 375.373 131.22 376.337 125.121 375.897C119.022 375.458 113.106 373.626 107.825 370.543C102.545 367.46 98.0415 363.207 94.661 358.112L81.338 366.972C86.4428 374.674 93.3765 380.991 101.519 385.359C109.662 389.726 118.76 392.008 128 392ZM184 336C184.007 329.642 182.929 323.329 180.811 317.334L165.726 322.667C167.237 326.95 168.006 331.459 168 336H184ZM128 280C114.223 279.991 100.928 285.07 90.665 294.261L101.335 306.183C105.613 302.359 110.663 299.499 116.143 297.798C121.624 296.097 127.406 295.595 133.098 296.326C138.789 297.057 144.257 299.003 149.13 302.034C154.002 305.064 158.166 309.107 161.339 313.888L174.662 305.028C169.557 297.326 162.624 291.009 154.481 286.642C146.338 282.274 137.24 279.992 128 280ZM413.416 184L399.428 149.029L384.572 154.971L400.572 194.971C401.166 196.456 402.191 197.728 403.515 198.625C404.839 199.521 406.401 200 408 200H448C450.121 200.003 452.154 200.847 453.654 202.346C455.154 203.846 455.997 205.879 456 208V288C455.997 290.121 455.154 292.154 453.654 293.654C452.154 295.154 450.121 295.998 448 296H336C333.879 295.998 331.846 295.154 330.346 293.654C328.846 292.154 328.003 290.121 328 288V256H312V288C312.007 294.363 314.538 300.464 319.037 304.963C323.537 309.462 329.637 311.993 336 312H448C454.363 311.993 460.463 309.462 464.963 304.963C469.462 300.464 471.993 294.363 472 288V208C471.993 201.637 469.462 195.537 464.963 191.038C460.463 186.538 454.363 184.007 448 184H413.416Z" fill="#D68029"/>
<path d="M360 216V232H352V248H360V280H376V248H384V232H376V216H360ZM408 216V248H400V264H408V280H424V264H432V248H424V216H408ZM392.845 363.578L395.055 368H377.89C373.43 367.985 369.054 369.219 365.26 371.564C361.465 373.909 358.404 377.271 356.423 381.267L338.733 372.422L343.156 363.578C344.105 361.68 344.261 359.484 343.59 357.471C342.919 355.458 341.477 353.794 339.579 352.845L243.579 304.845L236.423 319.155L325.268 363.578L292.264 429.585L227.25 400.689L220.752 415.311L292.752 447.311C294.265 447.985 295.95 448.172 297.574 447.846C299.198 447.52 300.68 446.697 301.816 445.491L312.001 452.281V464C312.001 465.382 312.359 466.739 313.039 467.942C313.72 469.144 314.7 470.149 315.885 470.86L346.89 489.462C350.899 491.868 355.523 493.051 360.195 492.865C364.867 492.678 369.383 491.13 373.187 488.412L420.548 454.583L434.187 445.491C435.31 446.683 436.773 447.501 438.376 447.834C439.98 448.167 441.647 447.999 443.152 447.353L499.152 423.353L492.85 408.647L443.783 429.675L410.733 363.578L499.579 319.155L492.423 304.845L396.423 352.845C394.525 353.794 393.083 355.458 392.412 357.471C391.741 359.484 391.897 361.68 392.846 363.578H392.845ZM363.886 475.393C362.618 476.299 361.113 476.815 359.555 476.877C357.998 476.939 356.456 476.545 355.12 475.743L328 459.47V448C328 446.683 327.675 445.386 327.053 444.225C326.431 443.064 325.533 442.074 324.437 441.344L309.313 431.261L331.578 386.733L349.268 395.578L336.845 420.422C335.973 422.166 335.768 424.168 336.268 426.053C336.768 427.937 337.94 429.574 339.562 430.656L350.25 437.782C355.546 441.312 362.028 442.594 368.269 441.346C374.511 440.098 380 436.421 383.531 431.125L385.243 428.557L403.666 446.979L363.886 475.393ZM426.686 431.261L417.02 437.706L389.657 410.343C388.82 409.506 387.808 408.865 386.693 408.467C385.579 408.068 384.39 407.922 383.212 408.039C382.034 408.155 380.897 408.532 379.882 409.141C378.867 409.75 378.001 410.577 377.344 411.562L370.218 422.25C369.04 424.014 367.21 425.238 365.13 425.654C363.05 426.07 360.89 425.644 359.124 424.469L354.314 421.261L370.733 388.422C371.394 387.09 372.414 385.97 373.679 385.188C374.944 384.406 376.402 383.995 377.889 384H403.056L426.686 431.261ZM216 96C218.121 96.0026 220.154 96.8464 221.654 98.3461C223.154 99.8458 223.997 101.879 224 104H240C240 97.6348 237.471 91.5303 232.971 87.0294C228.47 82.5286 222.365 80 216 80C209.635 80 203.53 82.5286 199.029 87.0294C194.529 91.5303 192 97.6348 192 104H208C208.003 101.879 208.846 99.8458 210.346 98.3461C211.846 96.8464 213.879 96.0026 216 96ZM296 96C298.121 96.0026 300.154 96.8464 301.654 98.3461C303.154 99.8458 303.997 101.879 304 104H320C320 97.6348 317.471 91.5303 312.971 87.0294C308.47 82.5286 302.365 80 296 80C289.635 80 283.53 82.5286 279.029 87.0294C274.529 91.5303 272 97.6348 272 104H288C288.003 101.879 288.846 99.8458 290.346 98.3461C291.846 96.8464 293.879 96.0026 296 96Z" fill="#D68029"/>
</svg>
